<?xml version="1.0" standalone="no"?>
<!DOCTYPE svg PUBLIC "-//W3C//DTD SVG 20010904//EN"
 "http://www.w3.org/TR/2001/REC-SVG-20010904/DTD/svg10.dtd">
<svg version="1.0" xmlns="http://www.w3.org/2000/svg"
 width="700.000000pt" height="700.000000pt" viewBox="0 0 700.000000 700.000000"
 preserveAspectRatio="xMidYMid meet">
<metadata>
Created by potrace 1.11, written by Peter Selinger 2001-2013
</metadata>
<g transform="translate(0.000000,700.000000) scale(0.100000,-0.100000)"
fill="#000000" stroke="none">
<path d="M2765 5834 c-22 -19 -56 -50 -76 -67 -20 -18 -71 -57 -113 -87 -43
-30 -85 -62 -94 -71 -9 -8 -51 -41 -92 -71 -42 -31 -93 -73 -114 -92 -21 -20
-54 -49 -74 -64 -20 -15 -45 -36 -57 -47 -11 -11 -68 -63 -125 -115 -104 -95
-284 -274 -350 -346 -19 -22 -59 -66 -90 -100 -99 -108 -124 -137 -218 -254
-51 -63 -99 -122 -105 -130 -7 -8 -28 -37 -47 -65 -19 -27 -38 -52 -42 -55 -3
-3 -23 -30 -44 -60 -21 -30 -41 -59 -46 -65 -5 -5 -24 -35 -43 -65 -19 -30
-38 -60 -43 -66 -15 -16 -121 -192 -143 -237 -12 -22 -25 -45 -31 -51 -10 -11
-46 -79 -123 -231 -19 -38 -35 -75 -35 -82 0 -7 -4 -13 -9 -13 -5 0 -15 -17
-22 -37 -6 -21 -15 -42 -19 -48 -4 -5 -15 -32 -26 -60 -10 -27 -21 -52 -24
-55 -4 -3 -22 -48 -40 -100 -19 -52 -37 -97 -40 -100 -6 -5 -43 -121 -71 -220
-7 -25 -16 -47 -20 -50 -10 -8 -73 -279 -66 -286 3 -4 48 16 99 44 51 27 125
60 163 73 39 12 72 26 75 30 3 4 61 21 130 39 69 17 134 35 145 40 26 12 238
50 245 44 2 -3 -1 -8 -7 -12 -13 -8 -83 -153 -83 -171 0 -5 -3 -11 -8 -13 -12
-5 -40 -105 -57 -202 -25 -149 -17 -324 22 -466 16 -59 95 -230 115 -252 7 -7
26 -31 43 -53 26 -36 125 -137 165 -169 8 -7 31 -22 52 -34 l36 -22 5 52 c28
319 100 505 251 653 40 40 95 85 122 101 27 15 51 31 54 34 6 7 118 60 128 60
4 0 21 7 37 16 17 8 76 26 132 40 248 58 566 81 907 65 233 -11 287 -15 761
-51 143 -11 355 -24 470 -30 116 -6 260 -15 320 -21 177 -17 532 -3 805 31
106 14 281 49 295 59 5 4 39 16 75 26 93 25 299 121 307 142 3 7 9 13 14 13
42 0 241 190 299 285 14 22 30 47 35 56 29 46 64 119 75 154 7 22 16 42 20 45
21 15 80 332 80 431 0 27 6 58 12 69 23 36 -6 47 -217 81 -110 18 -201 36
-203 41 -2 4 -13 8 -25 8 -32 0 -399 69 -422 80 -11 5 -101 25 -200 46 -99 21
-182 40 -185 43 -3 4 -69 22 -147 41 -79 19 -143 38 -143 42 0 4 -7 8 -16 8
-31 0 -222 70 -296 108 -86 44 -112 66 -123 102 -4 14 -10 27 -14 30 -3 3 -17
37 -30 75 -28 81 -59 142 -116 230 -25 38 -175 195 -186 195 -5 0 -28 15 -52
33 -23 17 -67 43 -97 57 -30 14 -57 28 -60 31 -6 8 -143 54 -190 64 -19 4 -37
11 -40 15 -12 18 -432 80 -542 80 -26 0 -49 4 -52 9 -3 5 -79 12 -168 16 -167
7 -202 16 -240 56 -10 10 -18 22 -18 27 0 5 -7 15 -16 23 -20 16 -71 129 -80
175 -3 19 -9 34 -13 34 -12 0 -31 148 -31 234 0 82 18 206 30 206 4 0 13 20
20 45 7 24 19 50 26 56 8 6 14 15 14 20 0 19 -26 8 -65 -27z"/>
</g>
</svg>
