<?xml version="1.0" standalone="no"?>
<!DOCTYPE svg PUBLIC "-//W3C//DTD SVG 1.1//EN" "http://www.w3.org/Graphics/SVG/1.1/DTD/svg11.dtd" >
<svg xmlns="http://www.w3.org/2000/svg" width="100%" height="100%">
<metadata>
Created by FontXChange 20100429 at Fri May 22 18:33:28 2015
 By Stevijn van Olst
Copyright (C) 2006, 2010 Hoefler &#38; Frere-Jones. http://www.typography.com
</metadata>
<defs>
<font id="Forza-Book" horiz-adv-x="500" >
  <font-face 
    font-family="Forza Book"
    font-weight="325"
    font-stretch="normal"
    units-per-em="1000"
    panose-1="0 0 0 0 0 0 0 0 0 0"
    ascent="800"
    descent="-200"
    x-height="535"
    cap-height="700"
    bbox="-36 -302 985 1027"
    underline-thickness="50"
    underline-position="-50"
    stemh="68"
    stemv="74"
    unicode-range="U+0020-FB04"
  />
<missing-glyph 
d="M0 -200v1000h500v-1000h-500zM71 750l179 -390l179 390h-358zM50 -76l172 376l-172 376v-752zM450 676l-172 -376l172 -376v752zM250 240l-179 -390h358z" />
    <glyph glyph-name="fi" unicode="fi" horiz-adv-x="598" 
d="M519 730v-96h-88v96h88zM512 535v-535h-74v535h74zM202 0h-75v471h-92v64h92v39c0 66 9 99 29 118c19 19 39 28 83 28h82v-63h-68c-24 0 -32 -4 -39 -11c-9 -9 -13 -26 -13 -70v-41h121v-64h-120v-471z" />
    <glyph glyph-name="fl" unicode="fl" horiz-adv-x="598" 
d="M512 0h-74v720h74v-720zM202 0h-75v471h-92v64h92v39c0 66 9 99 29 118c19 19 39 28 83 28h82v-63h-68c-24 0 -32 -4 -39 -11c-9 -9 -13 -26 -13 -70v-41h121v-64h-120v-471z" />
    <glyph glyph-name="f_f" unicode="ff" horiz-adv-x="705" 
d="M202 0h-75v471h-92v64h92v39c0 66 9 99 29 118c19 19 39 28 83 28h82v-63h-68c-24 0 -32 -4 -39 -11c-9 -9 -13 -26 -13 -70v-41h121v-64h-120v-471zM554 0h-75v471h-92v64h92v39c0 66 9 99 29 118c19 19 39 28 83 28h82v-63h-68c-24 0 -32 -4 -39 -11
c-9 -9 -13 -26 -13 -70v-41h121v-64h-120v-471z" />
    <glyph glyph-name="f_f_i" unicode="ffi" horiz-adv-x="950" 
d="M872 730v-96h-88v96h88zM865 535v-535h-74v535h74zM202 0h-75v471h-92v64h92v39c0 66 9 99 29 118c19 19 39 28 83 28h82v-63h-68c-24 0 -32 -4 -39 -11c-9 -9 -13 -26 -13 -70v-41h121v-64h-120v-471zM554 0h-75v471h-92v64h92v39c0 66 9 99 29 118c19 19 39 28 83 28
h82v-63h-68c-24 0 -32 -4 -39 -11c-9 -9 -13 -26 -13 -70v-41h121v-64h-120v-471z" />
    <glyph glyph-name="f_f_l" unicode="ffl" horiz-adv-x="950" 
d="M865 0h-74v720h74v-720zM202 0h-75v471h-92v64h92v39c0 66 9 99 29 118c19 19 39 28 83 28h82v-63h-68c-24 0 -32 -4 -39 -11c-9 -9 -13 -26 -13 -70v-41h121v-64h-120v-471zM554 0h-75v471h-92v64h92v39c0 66 9 99 29 118c19 19 39 28 83 28h82v-63h-68
c-24 0 -32 -4 -39 -11c-9 -9 -13 -26 -13 -70v-41h121v-64h-120v-471z" />
    <glyph glyph-name=".notdef" 
d="M0 -200v1000h500v-1000h-500zM71 750l179 -390l179 390h-358zM50 -76l172 376l-172 376v-752zM450 676l-172 -376l172 -376v752zM250 240l-179 -390h358z" />
    <glyph glyph-name="A" unicode="A" horiz-adv-x="649" 
d="M537 0l-69 214h-293l-69 -214h-79l228 677c6 21 12 26 38 26h63c25 0 31 -5 38 -26l228 -677h-85zM311 633l-114 -352h249l-114 352h-21z" />
    <glyph glyph-name="B" unicode="B" horiz-adv-x="673" 
d="M95 0v700h350c52 0 85 -8 108 -29c29 -27 43 -62 43 -156c0 -99 -35 -133 -97 -151v-1c76 -15 104 -55 104 -164c0 -112 -18 -143 -45 -168c-22 -22 -59 -31 -109 -31h-354zM174 397h256c37 0 52 5 64 16c12 12 23 33 23 103c0 68 -10 90 -22 102c-11 11 -28 14 -64 14
h-257v-235zM524 198c0 79 -11 102 -24 115c-12 12 -27 17 -64 17h-262v-262h263c35 0 52 3 64 14c11 11 23 31 23 116z" />
    <glyph glyph-name="C" unicode="C" horiz-adv-x="675" 
d="M614 229c-5 -133 -20 -170 -53 -201c-22 -20 -47 -28 -110 -28h-207c-63 0 -88 8 -110 28c-36 34 -58 85 -58 322s22 288 58 322c22 20 47 28 110 28h207c63 0 88 -8 110 -28c33 -31 49 -72 52 -190h-78c-3 95 -14 121 -28 135c-10 9 -22 15 -64 15h-191
c-42 0 -54 -6 -64 -15c-16 -16 -32 -52 -32 -267s16 -251 32 -267c10 -9 22 -15 64 -15h191c42 -1 54 6 64 15c14 14 25 38 29 146h78z" />
    <glyph glyph-name="D" unicode="D" horiz-adv-x="698" 
d="M95 700h316c75 0 115 -13 148 -43c43 -41 69 -119 69 -307s-26 -266 -69 -307c-33 -30 -73 -43 -148 -43h-316v700zM548 349c0 176 -20 232 -48 258c-21 20 -41 25 -89 25h-237v-564h237c48 0 69 5 89 25c28 26 48 82 48 256z" />
    <glyph glyph-name="E" unicode="E" horiz-adv-x="612" 
d="M557 68v-68h-462v700h465v-68h-386v-235h331v-67h-331v-262h383z" />
    <glyph glyph-name="F" unicode="F" horiz-adv-x="570" 
d="M534 632h-360v-249h299v-67h-299v-316h-79v700h439v-68z" />
    <glyph glyph-name="G" unicode="G" horiz-adv-x="690" 
d="M244 700h208c63 0 88 -8 110 -28c36 -34 48 -74 51 -184h-77c-3 83 -11 113 -28 129c-10 10 -21 15 -63 15h-194c-42 0 -54 -6 -64 -15c-16 -16 -31 -52 -31 -267s15 -251 31 -267c10 -9 22 -15 64 -15h194c42 -1 53 6 63 15c16 16 30 47 30 181v22h-190v68h269v-56
c0 -188 -19 -236 -55 -270c-22 -20 -47 -28 -110 -28h-209c-63 0 -88 8 -110 28c-36 34 -57 85 -57 322s21 288 57 322c22 20 47 28 111 28z" />
    <glyph glyph-name="H" unicode="H" horiz-adv-x="735" 
d="M640 700v-700h-79v329h-387v-329h-79v700h79v-303h387v303h79z" />
    <glyph glyph-name="I" unicode="I" horiz-adv-x="276" 
d="M178 0h-79v700h79v-700z" />
    <glyph glyph-name="J" unicode="J" horiz-adv-x="570" 
d="M113 223c3 -87 9 -121 26 -137c11 -11 24 -18 64 -18h72c68 0 86 7 97 18c18 19 30 54 30 192v422h79v-416c0 -169 -16 -215 -51 -251c-27 -26 -66 -34 -146 -34h-86c-57 0 -93 9 -116 31c-32 32 -42 76 -45 193h76z" />
    <glyph glyph-name="K" unicode="K" horiz-adv-x="627" 
d="M512 700h93l-289 -332l295 -368h-95l-262 329h-80v-329h-79v700h79v-303h78z" />
    <glyph glyph-name="L" unicode="L" horiz-adv-x="561" 
d="M174 700v-632h356v-68h-435v700h79z" />
    <glyph glyph-name="M" unicode="M" horiz-adv-x="885" 
d="M789 700v-700h-80v626h-12l-200 -599c-7 -23 -11 -27 -33 -27h-47c-22 0 -26 4 -33 27l-200 605h-12v-632h-77v700h120c23 0 30 -7 36 -28l187 -574h12l186 574c6 21 13 28 36 28h117z" />
    <glyph glyph-name="N" unicode="N" horiz-adv-x="726" 
d="M631 700v-700h-81c-25 0 -34 5 -45 27l-321 571h-12v-598h-77v700h87c25 0 33 -6 44 -28l315 -556h13v584h77z" />
    <glyph glyph-name="O" unicode="O" horiz-adv-x="704" 
d="M244 700h216c64 0 89 -8 110 -28c37 -34 58 -85 58 -322s-21 -288 -58 -322c-21 -20 -46 -28 -110 -28h-216c-63 0 -88 8 -110 28c-36 34 -58 85 -58 322s22 288 58 322c22 20 47 28 110 28zM156 350c0 -215 16 -251 32 -267c10 -9 22 -15 64 -15h200c42 -1 54 6 64 15
c17 16 32 52 32 267s-15 251 -32 267c-10 9 -22 15 -64 15h-200c-42 0 -54 -6 -64 -15c-16 -16 -32 -52 -32 -267z" />
    <glyph glyph-name="P" unicode="P" horiz-adv-x="633" 
d="M174 346h237c38 0 55 4 67 15c13 12 28 37 28 128c0 92 -15 116 -28 128c-12 11 -29 15 -67 15h-237v-286zM586 487c0 -115 -22 -154 -51 -181c-22 -22 -55 -28 -107 -28h-254v-278h-79v700h333c52 0 85 -6 107 -28c29 -27 51 -66 51 -185z" />
    <glyph glyph-name="Q" unicode="Q" horiz-adv-x="704" 
d="M504 -108h-75l-37 108h-148c-63 0 -88 8 -110 28c-36 34 -58 85 -58 322s22 288 58 322c22 20 47 28 110 28h216c64 0 89 -8 110 -28c37 -34 58 -85 58 -322s-21 -288 -58 -322c-20 -19 -45 -28 -103 -28zM156 350c0 -215 16 -251 32 -267c10 -9 22 -15 64 -15h117
l-51 143h76l49 -143h9c42 0 54 6 64 15c17 16 32 52 32 267s-15 251 -32 267c-10 9 -22 15 -64 15h-200c-42 0 -54 -6 -64 -15c-16 -16 -32 -52 -32 -267z" />
    <glyph glyph-name="R" unicode="R" horiz-adv-x="679" 
d="M174 370h254c36 0 51 7 61 17c12 12 28 36 28 115c0 80 -15 104 -27 116c-10 10 -27 14 -60 14h-256v-262zM511 184c-2 70 -10 88 -25 101c-15 14 -36 19 -78 19h-234v-304h-79v700h354c49 0 81 -8 103 -29c27 -27 44 -63 44 -165c0 -121 -34 -156 -104 -171v-1
c69 -16 94 -36 99 -148c3 -82 6 -144 11 -186h-78c-7 47 -11 112 -13 184z" />
    <glyph glyph-name="S" unicode="S" horiz-adv-x="666" 
d="M595 193c0 -93 -11 -133 -41 -162c-20 -20 -49 -31 -102 -31h-239c-52 0 -81 7 -102 29c-27 27 -37 55 -38 182h77c2 -98 7 -116 19 -128c10 -10 23 -15 56 -15h215c33 0 47 4 58 16c13 13 19 41 19 108c0 65 -3 83 -18 98c-11 10 -24 15 -62 18l-219 20
c-55 5 -84 16 -103 35c-25 25 -33 57 -33 147c0 86 10 129 41 159c19 20 49 31 101 31h217c52 0 82 -7 103 -29c28 -28 36 -57 38 -177h-78c-1 90 -6 110 -18 123c-11 10 -24 15 -56 15h-194c-33 0 -46 -4 -58 -16c-13 -14 -18 -45 -18 -105c0 -63 4 -80 18 -94
c11 -11 24 -14 62 -17l219 -20c53 -5 83 -16 102 -35c25 -25 34 -59 34 -152z" />
    <glyph glyph-name="T" unicode="T" horiz-adv-x="580" 
d="M558 632h-228v-632h-79v632h-228v68h535v-68z" />
    <glyph glyph-name="U" unicode="U" horiz-adv-x="723" 
d="M627 700v-415c0 -168 -15 -213 -50 -249c-27 -26 -66 -36 -145 -36h-145c-78 0 -116 10 -142 36c-35 35 -50 79 -50 249v415h79v-429c0 -137 12 -165 30 -183c12 -12 30 -19 98 -19h121c67 0 84 6 97 19c18 19 29 44 29 183v429h78z" />
    <glyph glyph-name="V" unicode="V" horiz-adv-x="636" 
d="M608 700l-221 -678c-6 -21 -12 -25 -39 -25h-61c-25 0 -33 4 -39 25l-221 678h85l198 -626h20l198 626h80z" />
    <glyph glyph-name="W" unicode="W" horiz-adv-x="943" 
d="M905 700l-155 -679c-4 -20 -11 -24 -39 -24h-49c-27 0 -34 4 -39 25l-143 580h-16l-143 -580c-4 -21 -12 -25 -39 -25h-49c-28 0 -35 4 -39 24l-156 679h83l130 -606h16l143 579c5 25 14 30 42 30h44c27 0 36 -5 41 -30l143 -579h15l131 606h79z" />
    <glyph glyph-name="X" unicode="X" horiz-adv-x="625" 
d="M516 0l-202 293h-7l-199 -293h-85l243 356l-236 344h92l191 -279h8l189 279h87l-235 -343l242 -357h-88z" />
    <glyph glyph-name="Y" unicode="Y" horiz-adv-x="589" 
d="M577 700l-242 -422v-278h-79v277l-244 423h86l195 -342h6l193 342h85z" />
    <glyph glyph-name="Z" unicode="Z" horiz-adv-x="618" 
d="M568 68v-68h-518v51l422 581h-402v68h503v-51l-423 -581h418z" />
    <glyph glyph-name="a" unicode="a" horiz-adv-x="572" 
d="M83 376c1 77 12 107 34 130c22 22 48 29 99 29h144c59 0 83 -9 101 -28c23 -23 28 -52 28 -123v-384h-73v68c-66 -53 -90 -69 -146 -69h-78c-49 0 -79 8 -100 30c-20 19 -32 48 -32 116c0 65 12 101 33 122c23 23 51 36 154 36c52 0 115 -4 169 -13v89c0 53 -5 71 -15 81
c-9 9 -21 13 -56 13h-110c-34 0 -50 -3 -62 -15c-12 -13 -17 -33 -18 -82h-72zM282 62c48 0 76 11 134 48v136h-174c-63 0 -78 -5 -91 -18c-14 -14 -18 -29 -18 -73c0 -47 4 -67 16 -78s27 -15 58 -15h75z" />
    <glyph glyph-name="b" unicode="b" horiz-adv-x="597" 
d="M86 0v720h74v-256c71 58 96 72 152 72h62c61 0 91 -10 114 -33c31 -32 42 -74 42 -235c0 -162 -11 -204 -42 -236c-23 -23 -53 -33 -114 -33h-62c-55 0 -82 14 -152 72v-71h-74zM291 470c-46 0 -78 -14 -131 -48v-308c55 -35 87 -49 133 -49h66c43 0 60 6 73 19
c19 19 24 51 24 184c0 132 -5 164 -24 183c-13 13 -30 19 -73 19h-68z" />
    <glyph glyph-name="c" unicode="c" horiz-adv-x="552" 
d="M425 181h72c-3 -97 -13 -128 -39 -154c-19 -19 -44 -27 -95 -27h-141c-55 0 -86 7 -109 30c-34 34 -46 77 -46 238c0 160 12 203 46 237c23 23 54 30 109 30h140c53 0 76 -7 96 -27c25 -25 35 -59 37 -148h-72c-3 68 -9 84 -20 95s-23 14 -56 14h-117
c-38 0 -53 -3 -65 -15c-16 -16 -24 -42 -24 -186c0 -145 8 -171 24 -187c12 -11 27 -15 65 -15h117c33 0 46 3 58 14c12 12 18 33 20 101z" />
    <glyph glyph-name="d" unicode="d" horiz-adv-x="599" 
d="M513 0h-74v71c-71 -57 -98 -72 -152 -72h-64c-60 0 -91 10 -114 33c-31 32 -42 74 -42 236c0 161 11 203 42 235c23 23 54 33 114 33h64c54 0 80 -14 152 -72v256h74v-720zM306 65c45 0 77 14 133 50v305c-54 35 -85 50 -131 50h-70c-43 0 -59 -6 -72 -19
c-19 -19 -25 -51 -25 -183c0 -133 6 -164 25 -184c13 -12 29 -19 72 -19h68z" />
    <glyph glyph-name="e" unicode="e" horiz-adv-x="575" 
d="M498 244h-357c1 -122 9 -149 24 -164c12 -12 26 -15 64 -15h133c33 0 47 4 58 15c12 12 17 29 18 84h72c-2 -82 -11 -110 -37 -136c-20 -20 -46 -28 -97 -28h-154c-55 0 -86 7 -109 30c-34 34 -46 77 -46 238c0 160 12 203 46 237c23 23 54 30 109 30h134
c54 0 87 -8 108 -29c34 -35 46 -78 46 -233v-17c0 -8 -3 -12 -12 -12zM164 454c-15 -15 -22 -39 -23 -151h296c-1 110 -9 137 -25 152c-11 11 -25 16 -64 16h-119c-38 0 -52 -4 -65 -17z" />
    <glyph glyph-name="f" unicode="f" horiz-adv-x="353" 
d="M202 0h-75v471h-92v64h92v39c0 66 9 99 29 118c19 19 39 28 83 28h82v-63h-68c-24 0 -32 -4 -39 -11c-9 -9 -13 -26 -13 -70v-41h121v-64h-120v-471z" />
    <glyph glyph-name="g" unicode="g" horiz-adv-x="598" 
d="M385 -150h-189c-46 0 -69 10 -86 26c-21 21 -28 45 -29 104h74c1 -35 5 -46 16 -56c7 -8 18 -12 49 -12h151c29 0 41 3 51 13s16 21 16 79v114c-71 -57 -97 -71 -152 -71h-62c-61 0 -91 10 -114 33c-31 32 -42 71 -42 212s11 179 42 211c23 23 53 33 114 33h62
c55 0 81 -14 152 -72v71h74v-523c0 -85 -10 -111 -34 -135c-17 -18 -42 -27 -93 -27zM308 112c45 0 76 14 130 49v259c-55 36 -87 51 -133 51h-66c-43 0 -60 -7 -72 -19c-20 -20 -25 -44 -25 -160c0 -117 5 -141 25 -160c12 -13 29 -20 72 -20h69z" />
    <glyph glyph-name="h" unicode="h" horiz-adv-x="595" 
d="M160 0h-74v720h74v-256c70 57 95 72 152 72h78c50 0 73 -9 93 -28c20 -21 28 -50 28 -107v-401h-74v396c0 31 -4 47 -16 59c-11 11 -21 15 -60 15h-70c-45 0 -75 -12 -131 -48v-422z" />
    <glyph glyph-name="i" unicode="i" horiz-adv-x="245" 
d="M167 730v-96h-88v96h88zM160 535v-535h-74v535h74z" />
    <glyph glyph-name="j" unicode="j" horiz-adv-x="256" 
d="M97 535v-560c0 -28 -5 -42 -13 -51c-8 -7 -17 -11 -44 -11h-44v-60c18 -3 40 -5 54 -5c41 0 70 7 91 28c22 22 30 49 30 113v546h-74zM178 730v-96h-88v96h88z" />
    <glyph glyph-name="k" unicode="k" horiz-adv-x="522" 
d="M160 0h-74v720h74v-419h55l197 234h89l-228 -261l236 -274h-93l-203 239h-53v-239z" />
    <glyph glyph-name="l" unicode="l" horiz-adv-x="245" 
d="M160 0h-74v720h74v-720z" />
    <glyph glyph-name="m" unicode="m" horiz-adv-x="906" 
d="M86 535h74v-71c70 57 95 72 152 72h58c49 0 73 -9 92 -28c12 -12 20 -27 24 -48c75 60 100 76 157 76h58c50 0 73 -9 93 -28c20 -21 28 -50 28 -107v-401h-74v396c0 31 -4 47 -16 59c-11 11 -21 15 -60 15h-50c-44 0 -76 -12 -132 -48c1 -7 1 -14 1 -21v-401h-74v396
c0 31 -4 47 -16 59c-11 11 -22 15 -61 15h-49c-45 0 -75 -12 -131 -48v-422h-74v535z" />
    <glyph glyph-name="n" unicode="n" horiz-adv-x="595" 
d="M160 0h-74v535h74v-71c70 57 95 72 152 72h78c50 0 73 -9 93 -28c20 -21 28 -50 28 -107v-401h-74v396c0 31 -4 47 -16 59c-11 11 -21 15 -60 15h-70c-45 0 -75 -12 -131 -48v-422z" />
    <glyph glyph-name="o" unicode="o" horiz-adv-x="584" 
d="M222 0c-55 0 -86 7 -109 30c-34 34 -46 77 -46 238c0 160 12 203 46 237c23 23 54 30 109 30h140c54 0 86 -7 108 -30c35 -34 47 -77 47 -237c0 -161 -12 -204 -47 -238c-22 -23 -54 -30 -108 -30h-140zM141 268c0 -145 8 -171 24 -187c12 -11 27 -15 65 -15h124
c38 0 53 4 64 15c16 16 25 42 25 187c0 144 -9 170 -25 186c-11 12 -26 15 -64 15h-124c-38 0 -53 -3 -65 -15c-16 -16 -24 -42 -24 -186z" />
    <glyph glyph-name="p" unicode="p" horiz-adv-x="597" 
d="M86 535h74v-71c71 58 96 72 152 72h62c61 0 91 -10 114 -33c31 -32 42 -74 42 -235c0 -162 -11 -204 -42 -236c-23 -23 -53 -33 -114 -33h-62c-55 0 -82 14 -152 72v-221h-74v685zM291 470c-46 0 -78 -14 -131 -48v-308c55 -35 87 -49 133 -49h66c43 0 60 7 72 19
c20 20 25 51 25 184c0 132 -5 164 -25 183c-12 13 -29 19 -72 19h-68z" />
    <glyph glyph-name="q" unicode="q" horiz-adv-x="597" 
d="M512 535v-685h-74v222c-71 -58 -98 -73 -152 -73h-63c-60 0 -91 10 -114 33c-31 32 -42 74 -42 236c0 161 11 203 42 235c23 23 54 33 114 33h63c54 0 80 -14 152 -72v71h74zM304 65c46 0 78 14 134 50v306c-54 35 -85 49 -131 49h-69c-43 0 -59 -6 -72 -19
c-19 -19 -25 -51 -25 -183c0 -133 6 -164 25 -184c13 -12 29 -19 72 -19h66z" />
    <glyph glyph-name="r" unicode="r" horiz-adv-x="388" 
d="M160 0h-74v535h74v-87c65 68 89 88 134 88h64v-76h-71c-41 0 -69 -6 -127 -46v-414z" />
    <glyph glyph-name="s" unicode="s" horiz-adv-x="551" 
d="M488 151c0 -73 -10 -104 -33 -127c-17 -17 -40 -24 -79 -24h-196c-41 0 -70 8 -85 23c-23 23 -30 45 -31 139h68c2 -65 6 -78 16 -88c7 -7 17 -12 45 -12h166c24 0 35 4 44 13c8 8 15 21 15 72c0 46 -5 60 -13 67c-7 8 -17 13 -51 15l-170 17c-49 5 -71 12 -86 27
c-20 20 -27 46 -27 115c0 67 11 101 33 123c17 17 39 24 79 24h185c43 0 67 -8 82 -23c21 -21 30 -46 31 -135h-68c-2 63 -7 75 -16 84c-7 7 -18 12 -45 12h-153c-22 0 -34 -4 -42 -12c-9 -9 -16 -23 -16 -69c0 -43 3 -56 12 -64c8 -9 17 -13 52 -16l172 -17
c49 -4 71 -12 85 -26c20 -20 26 -51 26 -118z" />
    <glyph glyph-name="t" unicode="t" horiz-adv-x="376" 
d="M337 64v-48l-47 -12c-19 -4 -44 -8 -72 -8c-35 0 -60 6 -79 25c-18 18 -23 41 -23 84v366h-92v64h92v134h75v-134h147v-64h-147v-349c0 -28 3 -40 11 -47c6 -7 17 -11 47 -11h88z" />
    <glyph glyph-name="u" unicode="u" horiz-adv-x="595" 
d="M436 535h74v-535h-74v72c-71 -58 -97 -73 -153 -73h-78c-50 0 -73 9 -92 29c-21 20 -29 49 -29 106v401h74v-396c0 -30 4 -47 16 -58c11 -11 22 -16 61 -16h70c44 0 74 11 131 48v422z" />
    <glyph glyph-name="v" unicode="v" horiz-adv-x="514" 
d="M491 535l-178 -513c-7 -20 -13 -25 -33 -25h-46c-20 0 -26 5 -33 25l-178 513h81l149 -456h13l148 456h77z" />
    <glyph glyph-name="w" unicode="w" horiz-adv-x="752" 
d="M31 535h77l96 -456h12l105 431c5 20 12 26 33 26h48c20 0 28 -5 33 -26l107 -431h12l95 456h72l-118 -512c-4 -21 -12 -26 -32 -26h-53c-21 0 -27 7 -32 26l-105 425h-10l-105 -425c-4 -19 -12 -26 -32 -26h-53c-20 0 -27 5 -32 26z" />
    <glyph glyph-name="x" unicode="x" horiz-adv-x="509" 
d="M99 0h-81l189 272l-186 263h86l146 -209h9l143 209h82l-186 -265l190 -270h-86l-151 215h-8z" />
    <glyph glyph-name="y" unicode="y" horiz-adv-x="532" 
d="M25 535h84l161 -434h7l147 434h79l-225 -627c-16 -44 -39 -60 -87 -60c-32 0 -73 4 -103 7v60h97c18 0 24 8 30 23l22 60z" />
    <glyph glyph-name="z" unicode="z" horiz-adv-x="504" 
d="M458 66v-66h-414v44l318 425h-304v66h403v-41l-321 -428h318z" />
    <glyph glyph-name="Aacute" unicode="&#xc1;" horiz-adv-x="649" 
d="M537 0l-69 214h-293l-69 -214h-79l228 677c6 21 12 26 38 26h63c25 0 31 -5 38 -26l228 -677h-85zM311 633l-114 -352h249l-114 352h-21zM275 766v5l92 113h116v-5l-141 -113h-67z" />
    <glyph glyph-name="aacute" unicode="&#xe1;" horiz-adv-x="572" 
d="M83 376c1 77 12 107 34 130c22 22 48 29 99 29h144c59 0 83 -9 101 -28c23 -23 28 -52 28 -123v-384h-73v68c-66 -53 -90 -69 -146 -69h-78c-49 0 -79 8 -100 30c-20 19 -32 48 -32 116c0 65 12 101 33 122c23 23 51 36 154 36c52 0 115 -4 169 -13v89c0 53 -5 71 -15 81
c-9 9 -21 13 -56 13h-110c-34 0 -50 -3 -62 -15c-12 -13 -17 -33 -18 -82h-72zM282 62c48 0 76 11 134 48v136h-174c-63 0 -78 -5 -91 -18c-14 -14 -18 -29 -18 -73c0 -47 4 -67 16 -78s27 -15 58 -15h75zM246 606v5l92 113h116v-5l-141 -113h-67z" />
    <glyph glyph-name="Abreve" unicode="&#x102;" horiz-adv-x="649" 
d="M537 0l-69 214h-293l-69 -214h-79l228 677c6 21 12 26 38 26h63c25 0 31 -5 38 -26l228 -677h-85zM311 633l-114 -352h249l-114 352h-21zM322 822c60 0 91 27 100 70h52c-5 -79 -57 -127 -152 -127s-147 48 -152 127h52c9 -43 40 -70 100 -70z" />
    <glyph glyph-name="abreve" unicode="&#x103;" horiz-adv-x="572" 
d="M83 376c1 77 12 107 34 130c22 22 48 29 99 29h144c59 0 83 -9 101 -28c23 -23 28 -52 28 -123v-384h-73v68c-66 -53 -90 -69 -146 -69h-78c-49 0 -79 8 -100 30c-20 19 -32 48 -32 116c0 65 12 101 33 122c23 23 51 36 154 36c52 0 115 -4 169 -13v89c0 53 -5 71 -15 81
c-9 9 -21 13 -56 13h-110c-34 0 -50 -3 -62 -15c-12 -13 -17 -33 -18 -82h-72zM282 62c48 0 76 11 134 48v136h-174c-63 0 -78 -5 -91 -18c-14 -14 -18 -29 -18 -73c0 -47 4 -67 16 -78s27 -15 58 -15h75zM294 662c60 0 91 27 100 70h52c-5 -79 -57 -127 -152 -127
s-147 48 -152 127h52c9 -43 40 -70 100 -70z" />
    <glyph glyph-name="Acircumflex" unicode="&#xc2;" horiz-adv-x="649" 
d="M537 0l-69 214h-293l-69 -214h-79l228 677c6 21 12 26 38 26h63c25 0 31 -5 38 -26l228 -677h-85zM311 633l-114 -352h249l-114 352h-21zM421 768l-100 72l-99 -72h-58v5l116 119h84l116 -119v-5h-59z" />
    <glyph glyph-name="acircumflex" unicode="&#xe2;" horiz-adv-x="572" 
d="M83 376c1 77 12 107 34 130c22 22 48 29 99 29h144c59 0 83 -9 101 -28c23 -23 28 -52 28 -123v-384h-73v68c-66 -53 -90 -69 -146 -69h-78c-49 0 -79 8 -100 30c-20 19 -32 48 -32 116c0 65 12 101 33 122c23 23 51 36 154 36c52 0 115 -4 169 -13v89c0 53 -5 71 -15 81
c-9 9 -21 13 -56 13h-110c-34 0 -50 -3 -62 -15c-12 -13 -17 -33 -18 -82h-72zM282 62c48 0 76 11 134 48v136h-174c-63 0 -78 -5 -91 -18c-14 -14 -18 -29 -18 -73c0 -47 4 -67 16 -78s27 -15 58 -15h75zM393 608l-100 72l-99 -72h-58v5l116 119h84l116 -119v-5h-59z" />
    <glyph glyph-name="Adieresis" unicode="&#xc4;" horiz-adv-x="649" 
d="M537 0l-69 214h-293l-69 -214h-79l228 677c6 21 12 26 38 26h63c25 0 31 -5 38 -26l228 -677h-85zM311 633l-114 -352h249l-114 352h-21zM188 784v95h83v-95h-83zM373 784v95h83v-95h-83z" />
    <glyph glyph-name="adieresis" unicode="&#xe4;" horiz-adv-x="572" 
d="M83 376c1 77 12 107 34 130c22 22 48 29 99 29h144c59 0 83 -9 101 -28c23 -23 28 -52 28 -123v-384h-73v68c-66 -53 -90 -69 -146 -69h-78c-49 0 -79 8 -100 30c-20 19 -32 48 -32 116c0 65 12 101 33 122c23 23 51 36 154 36c52 0 115 -4 169 -13v89c0 53 -5 71 -15 81
c-9 9 -21 13 -56 13h-110c-34 0 -50 -3 -62 -15c-12 -13 -17 -33 -18 -82h-72zM282 62c48 0 76 11 134 48v136h-174c-63 0 -78 -5 -91 -18c-14 -14 -18 -29 -18 -73c0 -47 4 -67 16 -78s27 -15 58 -15h75zM160 624v95h83v-95h-83zM345 624v95h83v-95h-83z" />
    <glyph glyph-name="Agrave" unicode="&#xc0;" horiz-adv-x="649" 
d="M537 0l-69 214h-293l-69 -214h-79l228 677c6 21 12 26 38 26h63c25 0 31 -5 38 -26l228 -677h-85zM311 633l-114 -352h249l-114 352h-21zM370 766h-67l-141 113v5h116l92 -113v-5z" />
    <glyph glyph-name="agrave" unicode="&#xe0;" horiz-adv-x="572" 
d="M83 376c1 77 12 107 34 130c22 22 48 29 99 29h144c59 0 83 -9 101 -28c23 -23 28 -52 28 -123v-384h-73v68c-66 -53 -90 -69 -146 -69h-78c-49 0 -79 8 -100 30c-20 19 -32 48 -32 116c0 65 12 101 33 122c23 23 51 36 154 36c52 0 115 -4 169 -13v89c0 53 -5 71 -15 81
c-9 9 -21 13 -56 13h-110c-34 0 -50 -3 -62 -15c-12 -13 -17 -33 -18 -82h-72zM282 62c48 0 76 11 134 48v136h-174c-63 0 -78 -5 -91 -18c-14 -14 -18 -29 -18 -73c0 -47 4 -67 16 -78s27 -15 58 -15h75zM341 606h-67l-141 113v5h116l92 -113v-5z" />
    <glyph glyph-name="Amacron" unicode="&#x100;" horiz-adv-x="649" 
d="M537 0l-69 214h-293l-69 -214h-79l228 677c6 21 12 26 38 26h63c25 0 31 -5 38 -26l228 -677h-85zM311 633l-114 -352h249l-114 352h-21zM176 776v61h292v-61h-292z" />
    <glyph glyph-name="amacron" unicode="&#x101;" horiz-adv-x="572" 
d="M83 376c1 77 12 107 34 130c22 22 48 29 99 29h144c59 0 83 -9 101 -28c23 -23 28 -52 28 -123v-384h-73v68c-66 -53 -90 -69 -146 -69h-78c-49 0 -79 8 -100 30c-20 19 -32 48 -32 116c0 65 12 101 33 122c23 23 51 36 154 36c52 0 115 -4 169 -13v89c0 53 -5 71 -15 81
c-9 9 -21 13 -56 13h-110c-34 0 -50 -3 -62 -15c-12 -13 -17 -33 -18 -82h-72zM282 62c48 0 76 11 134 48v136h-174c-63 0 -78 -5 -91 -18c-14 -14 -18 -29 -18 -73c0 -47 4 -67 16 -78s27 -15 58 -15h75zM148 616v61h292v-61h-292z" />
    <glyph glyph-name="Aogonek" unicode="&#x104;" horiz-adv-x="645" 
d="M591 -82h55c0 -64 -5 -84 -21 -98c-11 -10 -26 -14 -51 -14h-58c-25 0 -41 4 -52 14c-15 14 -20 36 -20 70c0 22 1 41 14 60c11 18 43 47 71 68l-63 196h-293l-69 -214h-79l228 677c6 21 12 26 38 26h63c25 0 31 -5 38 -26l228 -677h-58c-16 -14 -44 -41 -50 -54
c-8 -12 -10 -26 -10 -42c0 -25 2 -35 7 -40c5 -4 10 -6 21 -6h32c12 0 17 2 21 6c6 5 8 14 8 54zM309 633l-114 -352h249l-114 352h-21z" />
    <glyph glyph-name="aogonek" unicode="&#x105;" horiz-adv-x="574" 
d="M85 376c1 77 12 107 34 130c22 22 48 29 99 29h144c59 0 83 -9 101 -28c23 -23 28 -52 28 -123v-384h-38c-14 -12 -38 -37 -45 -51c-8 -12 -10 -24 -10 -43c0 -29 2 -37 7 -42c5 -4 10 -6 21 -6h33c11 0 16 2 20 6c6 5 8 14 8 54h55c0 -64 -5 -84 -21 -98
c-10 -10 -26 -14 -51 -14h-57c-25 0 -42 4 -52 14c-16 14 -21 34 -21 73c0 23 2 40 14 59c12 20 38 42 64 62v54c-66 -53 -90 -69 -146 -69h-78c-49 0 -79 8 -100 30c-20 19 -32 48 -32 116c0 65 12 101 33 122c23 23 51 36 154 36c52 0 115 -4 169 -13v89
c0 53 -5 71 -15 81c-9 9 -21 13 -56 13h-110c-34 0 -50 -3 -62 -15c-12 -13 -17 -33 -18 -82h-72zM284 62c48 0 76 11 134 48v136h-174c-63 0 -78 -5 -91 -18c-14 -14 -18 -29 -18 -73c0 -47 4 -67 16 -78s27 -15 58 -15h75z" />
    <glyph glyph-name="Aring" unicode="&#xc5;" horiz-adv-x="645" 
d="M535 0l-69 214h-293l-69 -214h-79l224 664c-16 3 -27 10 -35 19c-18 18 -24 37 -24 77s6 59 24 78c13 14 33 20 66 20h84c33 0 53 -6 66 -20c18 -19 24 -38 24 -78s-6 -59 -24 -77c-8 -9 -19 -15 -34 -18l224 -665h-85zM310 635l-115 -354h249l-115 354h-19zM358 816h-72
c-18 0 -26 -2 -33 -9s-11 -18 -11 -47c0 -28 4 -39 11 -47c7 -7 15 -8 33 -8h72c18 0 26 1 33 8c7 8 11 19 11 47c0 29 -4 40 -11 47s-15 9 -33 9z" />
    <glyph glyph-name="aring" unicode="&#xe5;" horiz-adv-x="572" 
d="M83 376c1 77 12 107 34 130c22 22 48 29 99 29h144c59 0 83 -9 101 -28c23 -23 28 -52 28 -123v-384h-73v68c-66 -53 -90 -69 -146 -69h-78c-49 0 -79 8 -100 30c-20 19 -32 48 -32 116c0 65 12 101 33 122c23 23 51 36 154 36c52 0 115 -4 169 -13v89c0 53 -5 71 -15 81
c-9 9 -21 13 -56 13h-110c-34 0 -50 -3 -62 -15c-12 -13 -17 -33 -18 -82h-72zM282 62c48 0 76 11 134 48v136h-174c-63 0 -78 -5 -91 -18c-14 -14 -18 -29 -18 -73c0 -47 4 -67 16 -78s27 -15 58 -15h75zM336 609h-84c-33 0 -53 7 -66 21c-18 18 -24 37 -24 77s6 59 24 78
c13 14 33 20 66 20h84c33 0 53 -6 66 -20c18 -19 24 -38 24 -78s-6 -59 -24 -77c-13 -14 -33 -21 -66 -21zM330 763h-72c-18 0 -26 -2 -33 -9s-11 -18 -11 -47c0 -28 4 -39 11 -47c7 -7 15 -8 33 -8h72c18 0 26 1 33 8c7 8 11 19 11 47c0 29 -4 40 -11 47s-15 9 -33 9z" />
    <glyph glyph-name="aring.alt" horiz-adv-x="572" 
d="M83 376c1 77 12 107 34 130c15 15 32 23 57 26c-9 15 -12 33 -12 63c0 40 6 59 24 78c13 14 33 20 66 20h84c33 0 53 -6 66 -20c18 -19 24 -38 24 -78c0 -31 -4 -49 -13 -64c23 -5 36 -12 48 -24c23 -23 28 -52 28 -123v-384h-73v68c-66 -53 -90 -69 -146 -69h-78
c-49 0 -79 8 -100 30c-20 19 -32 48 -32 116c0 65 12 101 33 122c23 23 51 36 154 36c52 0 115 -4 169 -13v89c0 53 -5 71 -15 81c-9 9 -21 13 -56 13h-110c-34 0 -50 -3 -62 -15c-12 -13 -17 -33 -18 -82h-72zM282 62c48 0 76 11 134 48v136h-174c-63 0 -78 -5 -91 -18
c-14 -14 -18 -29 -18 -73c0 -47 4 -67 16 -78s27 -15 58 -15h75zM330 651h-72c-18 0 -26 -2 -33 -9s-11 -18 -11 -47c0 -28 4 -39 11 -47c7 -7 15 -8 33 -8h72c18 0 26 1 33 8c7 8 11 19 11 47c0 29 -4 40 -11 47s-15 9 -33 9z" />
    <glyph glyph-name="Aringacute" unicode="&#x1fa;" horiz-adv-x="645" 
d="M104 0h-79l224 664c-16 3 -27 10 -35 19c-18 18 -24 37 -24 77s6 59 24 78c13 14 33 20 66 20h84c33 0 53 -6 66 -20c18 -19 24 -38 24 -78s-6 -59 -24 -77c-8 -9 -19 -15 -34 -18l224 -665h-85l-69 214h-293zM310 635l-115 -354h249l-115 354h-19zM358 816h-72
c-18 0 -26 -2 -33 -9s-11 -18 -11 -47c0 -28 4 -39 11 -47c7 -7 15 -8 33 -8h72c18 0 26 1 33 8c7 8 11 19 11 47c0 29 -4 40 -11 47s-15 9 -33 9zM273 909v5l92 113h116v-5l-141 -113h-67z" />
    <glyph glyph-name="aringacute" unicode="&#x1fb;" horiz-adv-x="572" 
d="M83 376c1 77 12 107 34 130c22 22 48 29 99 29h144c59 0 83 -9 101 -28c23 -23 28 -52 28 -123v-384h-73v68c-66 -53 -90 -69 -146 -69h-78c-49 0 -79 8 -100 30c-20 19 -32 48 -32 116c0 65 12 101 33 122c23 23 51 36 154 36c52 0 115 -4 169 -13v89c0 53 -5 71 -15 81
c-9 9 -21 13 -56 13h-110c-34 0 -50 -3 -62 -15c-12 -13 -17 -33 -18 -82h-72zM282 62c48 0 76 11 134 48v136h-174c-63 0 -78 -5 -91 -18c-14 -14 -18 -29 -18 -73c0 -47 4 -67 16 -78s27 -15 58 -15h75zM336 609h-84c-33 0 -53 7 -66 21c-18 18 -24 37 -24 77s6 59 24 78
c13 14 33 20 66 20h84c33 0 53 -6 66 -20c18 -19 24 -38 24 -78s-6 -59 -24 -77c-13 -14 -33 -21 -66 -21zM330 763h-72c-18 0 -26 -2 -33 -9s-11 -18 -11 -47c0 -28 4 -39 11 -47c7 -7 15 -8 33 -8h72c18 0 26 1 33 8c7 8 11 19 11 47c0 29 -4 40 -11 47s-15 9 -33 9z
M244 866v5l92 113h116v-5l-141 -113h-67z" />
    <glyph glyph-name="aringacute.alt" horiz-adv-x="572" 
d="M83 376c1 77 12 107 34 130c15 15 32 23 57 26c-9 15 -12 33 -12 63c0 40 6 59 24 78c13 14 33 20 66 20h84c33 0 53 -6 66 -20c18 -19 24 -38 24 -78c0 -31 -4 -49 -13 -64c23 -5 36 -12 48 -24c23 -23 28 -52 28 -123v-384h-73v68c-66 -53 -90 -69 -146 -69h-78
c-49 0 -79 8 -100 30c-20 19 -32 48 -32 116c0 65 12 101 33 122c23 23 51 36 154 36c52 0 115 -4 169 -13v89c0 53 -5 71 -15 81c-9 9 -21 13 -56 13h-110c-34 0 -50 -3 -62 -15c-12 -13 -17 -33 -18 -82h-72zM282 62c48 0 76 11 134 48v136h-174c-63 0 -78 -5 -91 -18
c-14 -14 -18 -29 -18 -73c0 -47 4 -67 16 -78s27 -15 58 -15h75zM330 651h-72c-18 0 -26 -2 -33 -9s-11 -18 -11 -47c0 -28 4 -39 11 -47c7 -7 15 -8 33 -8h72c18 0 26 1 33 8c7 8 11 19 11 47c0 29 -4 40 -11 47s-15 9 -33 9zM244 753v5l92 113h116v-5l-141 -113h-67z" />
    <glyph glyph-name="Atilde" unicode="&#xc3;" horiz-adv-x="649" 
d="M537 0l-69 214h-293l-69 -214h-79l228 677c6 21 12 26 38 26h63c25 0 31 -5 38 -26l228 -677h-85zM311 633l-114 -352h249l-114 352h-21zM176 775v66c0 18 3 32 10 40c6 7 15 11 31 11h12c18 0 31 -4 61 -15l118 -46l21 60h39v-66c0 -18 -3 -32 -10 -40
c-6 -7 -15 -11 -31 -11h-12c-18 0 -31 4 -61 15l-118 46l-21 -60h-39z" />
    <glyph glyph-name="atilde" unicode="&#xe3;" horiz-adv-x="572" 
d="M83 376c1 77 12 107 34 130c22 22 48 29 99 29h144c59 0 83 -9 101 -28c23 -23 28 -52 28 -123v-384h-73v68c-66 -53 -90 -69 -146 -69h-78c-49 0 -79 8 -100 30c-20 19 -32 48 -32 116c0 65 12 101 33 122c23 23 51 36 154 36c52 0 115 -4 169 -13v89c0 53 -5 71 -15 81
c-9 9 -21 13 -56 13h-110c-34 0 -50 -3 -62 -15c-12 -13 -17 -33 -18 -82h-72zM282 62c48 0 76 11 134 48v136h-174c-63 0 -78 -5 -91 -18c-14 -14 -18 -29 -18 -73c0 -47 4 -67 16 -78s27 -15 58 -15h75zM148 615v66c0 18 3 32 10 40c6 7 15 11 31 11h12c18 0 31 -4 61 -15
l118 -46l21 60h39v-66c0 -18 -3 -32 -10 -40c-6 -7 -15 -11 -31 -11h-12c-18 0 -31 4 -61 15l-118 46l-21 -60h-39z" />
    <glyph glyph-name="AE" unicode="&#xc6;" horiz-adv-x="977" 
d="M458 0v233h-236l-131 -233h-81l383 673c11 19 18 27 44 27h481v-68h-382v-235h327v-67h-327v-262h379v-68h-457zM450 636l-191 -337h199v337h-8z" />
    <glyph glyph-name="ae" unicode="&#xe6;" horiz-adv-x="924" 
d="M249 303c52 0 115 -3 169 -12v88c0 53 -5 71 -15 81c-9 9 -21 13 -56 13h-108c-35 0 -51 -3 -63 -15c-12 -13 -16 -33 -18 -82h-74c2 80 12 107 34 130c22 22 48 29 98 29h134c58 0 81 -9 100 -28c4 -5 8 -10 11 -15l12 13c23 23 53 30 108 30h124c54 0 87 -8 108 -29
c34 -35 46 -78 46 -231v-19c0 -8 -3 -12 -12 -12h-357c1 -122 9 -149 24 -164c12 -12 26 -15 64 -15h133c33 0 47 4 58 15c12 12 17 29 18 84h72c-2 -82 -11 -110 -37 -136c-20 -20 -46 -28 -97 -28h-153c-54 0 -85 7 -108 30c-14 13 -24 28 -31 51
c-77 -64 -101 -82 -161 -82h-78c-49 0 -79 8 -100 30c-20 19 -32 48 -32 116c0 65 12 101 33 122c23 23 51 36 154 36zM284 62c50 0 79 12 141 53c-5 31 -7 72 -7 131h-174c-63 0 -78 -5 -91 -18c-14 -14 -18 -29 -18 -73c0 -47 4 -67 16 -78s27 -15 58 -15h75zM513 454
c-15 -15 -22 -39 -23 -151h296c-1 109 -9 137 -25 152c-11 11 -25 16 -64 16h-119c-38 0 -52 -4 -65 -17z" />
    <glyph glyph-name="AEacute" unicode="&#x1fc;" horiz-adv-x="999" 
d="M480 0v233h-236l-131 -233h-81l383 673c11 19 18 27 44 27h481v-68h-382v-235h327v-67h-327v-262h379v-68h-457zM472 636l-191 -337h199v337h-8zM544 766v5l92 113h116v-5l-141 -113h-67z" />
    <glyph glyph-name="aeacute" unicode="&#x1fd;" horiz-adv-x="924" 
d="M249 303c52 0 115 -3 169 -12v88c0 53 -5 71 -15 81c-9 9 -21 13 -56 13h-108c-35 0 -51 -3 -63 -15c-12 -13 -16 -33 -18 -82h-74c2 80 12 107 34 130c22 22 48 29 98 29h134c58 0 81 -9 100 -28c4 -5 8 -10 11 -15l12 13c23 23 53 30 108 30h124c54 0 87 -8 108 -29
c34 -35 46 -78 46 -231v-19c0 -8 -3 -12 -12 -12h-357c1 -122 9 -149 24 -164c12 -12 26 -15 64 -15h133c33 0 47 4 58 15c12 12 17 29 18 84h72c-2 -82 -11 -110 -37 -136c-20 -20 -46 -28 -97 -28h-153c-54 0 -85 7 -108 30c-14 13 -24 28 -31 51
c-77 -64 -101 -82 -161 -82h-78c-49 0 -79 8 -100 30c-20 19 -32 48 -32 116c0 65 12 101 33 122c23 23 51 36 154 36zM284 62c50 0 79 12 141 53c-5 31 -7 72 -7 131h-174c-63 0 -78 -5 -91 -18c-14 -14 -18 -29 -18 -73c0 -47 4 -67 16 -78s27 -15 58 -15h75zM513 454
c-15 -15 -22 -39 -23 -151h296c-1 109 -9 137 -25 152c-11 11 -25 16 -64 16h-119c-38 0 -52 -4 -65 -17zM412 606v5l92 113h116v-5l-141 -113h-67z" />
    <glyph glyph-name="Cacute" unicode="&#x106;" horiz-adv-x="675" 
d="M299 766v5l92 113h116v-5l-141 -113h-67zM614 229c-5 -133 -20 -170 -53 -201c-22 -20 -47 -28 -110 -28h-207c-63 0 -88 8 -110 28c-36 34 -58 85 -58 322s22 288 58 322c22 20 47 28 110 28h207c63 0 88 -8 110 -28c33 -31 49 -72 52 -190h-78c-3 95 -14 121 -28 135
c-10 9 -22 15 -64 15h-191c-42 0 -54 -6 -64 -15c-16 -16 -32 -52 -32 -267s16 -251 32 -267c10 -9 22 -15 64 -15h191c42 -1 54 6 64 15c14 14 25 38 29 146h78z" />
    <glyph glyph-name="cacute" unicode="&#x107;" horiz-adv-x="552" 
d="M237 606v5l92 113h116v-5l-141 -113h-67zM425 181h72c-3 -97 -13 -128 -39 -154c-19 -19 -44 -27 -95 -27h-141c-55 0 -86 7 -109 30c-34 34 -46 77 -46 238c0 160 12 203 46 237c23 23 54 30 109 30h140c53 0 76 -7 96 -27c25 -25 35 -59 37 -148h-72
c-3 68 -9 84 -20 95s-23 14 -56 14h-117c-38 0 -53 -3 -65 -15c-16 -16 -24 -42 -24 -186c0 -145 8 -171 24 -187c12 -11 27 -15 65 -15h117c33 0 46 3 58 14c12 12 18 33 20 101z" />
    <glyph glyph-name="Ccaron" unicode="&#x10c;" horiz-adv-x="675" 
d="M614 229c-5 -133 -20 -170 -53 -201c-22 -20 -47 -28 -110 -28h-207c-63 0 -88 8 -110 28c-36 34 -58 85 -58 322s22 288 58 322c22 20 47 28 110 28h207c63 0 88 -8 110 -28c33 -31 49 -72 52 -190h-78c-3 95 -14 121 -28 135c-10 9 -22 15 -64 15h-191
c-42 0 -54 -6 -64 -15c-16 -16 -32 -52 -32 -267s16 -251 32 -267c10 -9 22 -15 64 -15h191c42 -1 54 6 64 15c14 14 25 38 29 146h78zM304 768l-116 119v5h59l100 -72l99 72h58v-5l-116 -119h-84z" />
    <glyph glyph-name="ccaron" unicode="&#x10d;" horiz-adv-x="552" 
d="M425 181h72c-3 -97 -13 -128 -39 -154c-19 -19 -44 -27 -95 -27h-141c-55 0 -86 7 -109 30c-34 34 -46 77 -46 238c0 160 12 203 46 237c23 23 54 30 109 30h140c53 0 76 -7 96 -27c25 -25 35 -59 37 -148h-72c-3 68 -9 84 -20 95s-23 14 -56 14h-117
c-38 0 -53 -3 -65 -15c-16 -16 -24 -42 -24 -186c0 -145 8 -171 24 -187c12 -11 27 -15 65 -15h117c33 0 46 3 58 14c12 12 18 33 20 101zM242 608l-116 119v5h59l100 -72l99 72h58v-5l-116 -119h-84z" />
    <glyph glyph-name="Ccedilla" unicode="&#xc7;" horiz-adv-x="671" 
d="M614 229c-5 -133 -20 -170 -53 -201c-22 -20 -47 -28 -110 -28h-207c-63 0 -88 8 -110 28c-36 34 -58 85 -58 322s22 288 58 322c22 20 47 28 110 28h207c63 0 88 -8 110 -28c33 -31 49 -72 52 -190h-78c-3 95 -14 121 -28 135c-10 9 -22 15 -64 15h-191
c-42 0 -54 -6 -64 -15c-16 -16 -32 -52 -32 -267s16 -251 32 -267c10 -9 22 -15 64 -15h191c42 -1 54 6 64 15c14 14 25 38 29 146h78zM355 -45c32 0 51 -4 62 -15c12 -12 19 -30 19 -64s-7 -52 -19 -64s-32 -16 -64 -16h-69l-44 32v14h105c16 0 23 2 28 7c6 5 8 15 8 27
c0 13 -2 23 -8 28c-5 5 -12 7 -28 7h-44v44h54z" />
    <glyph glyph-name="ccedilla" unicode="&#xe7;" horiz-adv-x="552" 
d="M425 181h72c-3 -97 -13 -128 -39 -154c-19 -19 -44 -27 -95 -27h-141c-55 0 -86 7 -109 30c-34 34 -46 77 -46 238c0 160 12 203 46 237c23 23 54 30 109 30h140c53 0 76 -7 96 -27c25 -25 35 -59 37 -148h-72c-3 68 -9 84 -20 95s-23 14 -56 14h-117
c-38 0 -53 -3 -65 -15c-16 -16 -24 -42 -24 -186c0 -145 8 -171 24 -187c12 -11 27 -15 65 -15h117c33 0 46 3 58 14c12 12 18 33 20 101zM287 -45c32 0 51 -4 62 -15c12 -12 19 -30 19 -64s-7 -52 -19 -64s-32 -16 -64 -16h-69l-44 32v14h105c16 0 23 2 28 7c6 5 8 15 8 27
c0 13 -2 23 -8 28c-5 5 -12 7 -28 7h-44v44h54z" />
    <glyph glyph-name="Cdotaccent" unicode="&#x10a;" horiz-adv-x="675" 
d="M614 229c-5 -133 -20 -170 -53 -201c-22 -20 -47 -28 -110 -28h-207c-63 0 -88 8 -110 28c-36 34 -58 85 -58 322s22 288 58 322c22 20 47 28 110 28h207c63 0 88 -8 110 -28c33 -31 49 -72 52 -190h-78c-3 95 -14 121 -28 135c-10 9 -22 15 -64 15h-191
c-42 0 -54 -6 -64 -15c-16 -16 -32 -52 -32 -267s16 -251 32 -267c10 -9 22 -15 64 -15h191c42 -1 54 6 64 15c14 14 25 38 29 146h78zM303 789v96h88v-96h-88z" />
    <glyph glyph-name="cdotaccent" unicode="&#x10b;" horiz-adv-x="552" 
d="M425 181h72c-3 -97 -13 -128 -39 -154c-19 -19 -44 -27 -95 -27h-141c-55 0 -86 7 -109 30c-34 34 -46 77 -46 238c0 160 12 203 46 237c23 23 54 30 109 30h140c53 0 76 -7 96 -27c25 -25 35 -59 37 -148h-72c-3 68 -9 84 -20 95s-23 14 -56 14h-117
c-38 0 -53 -3 -65 -15c-16 -16 -24 -42 -24 -186c0 -145 8 -171 24 -187c12 -11 27 -15 65 -15h117c33 0 46 3 58 14c12 12 18 33 20 101zM241 629v96h88v-96h-88z" />
    <glyph glyph-name="Dcaron" unicode="&#x10e;" horiz-adv-x="698" 
d="M95 700h316c75 0 115 -13 148 -43c43 -41 69 -119 69 -307s-26 -266 -69 -307c-33 -30 -73 -43 -148 -43h-316v700zM548 349c0 176 -20 232 -48 258c-21 20 -41 25 -89 25h-237v-564h237c48 0 69 5 89 25c28 26 48 82 48 256zM307 768l-116 119v5h59l100 -72l99 72h58v-5
l-116 -119h-84z" />
    <glyph glyph-name="dcaron" unicode="&#x10f;" horiz-adv-x="599" 
d="M513 0h-74v71c-71 -57 -98 -72 -152 -72h-64c-60 0 -91 10 -114 33c-31 32 -42 74 -42 236c0 161 11 203 42 235c23 23 54 33 114 33h64c54 0 80 -14 152 -72v256h74v-720zM306 65c45 0 77 14 133 50v305c-54 35 -85 50 -131 50h-70c-43 0 -59 -6 -72 -19
c-19 -19 -25 -51 -25 -183c0 -133 6 -164 25 -184c13 -12 29 -19 72 -19h68zM603 553l-28 11l23 90c2 9 3 16 3 23c0 8 -1 14 -3 24l-19 80v19h84v-74c0 -47 -4 -64 -23 -99z" />
    <glyph glyph-name="Dcroat" unicode="&#x110;" horiz-adv-x="704" 
d="M101 700h316c75 0 115 -13 148 -43c43 -41 69 -119 69 -307s-26 -266 -69 -307c-33 -30 -73 -43 -148 -43h-316v321h-98v66h98v313zM554 349c0 176 -20 232 -48 258c-21 20 -41 25 -89 25h-237v-245h162v-66h-162v-253h237c48 0 69 5 89 25c28 26 48 82 48 256z" />
    <glyph glyph-name="dcroat" unicode="&#x111;" horiz-adv-x="599" 
d="M513 0h-74v71c-71 -57 -98 -72 -152 -72h-64c-60 0 -91 10 -114 33c-31 32 -42 74 -42 236c0 161 11 203 42 235c23 23 54 33 114 33h64c54 0 80 -14 152 -72v120h-154v59h154v77h74v-77h86v-59h-86v-584zM166 451c-19 -19 -25 -51 -25 -183c0 -133 6 -164 25 -184
c13 -12 29 -19 72 -19h68c45 0 77 14 133 50v305c-54 35 -85 50 -131 50h-70c-43 0 -59 -6 -72 -19z" />
    <glyph glyph-name="Eacute" unicode="&#xc9;" horiz-adv-x="612" 
d="M279 766v5l92 113h116v-5l-141 -113h-67zM557 68v-68h-462v700h465v-68h-386v-235h331v-67h-331v-262h383z" />
    <glyph glyph-name="eacute" unicode="&#xe9;" horiz-adv-x="575" 
d="M498 244h-357c1 -122 9 -149 24 -164c12 -12 26 -15 64 -15h133c33 0 47 4 58 15c12 12 17 29 18 84h72c-2 -82 -11 -110 -37 -136c-20 -20 -46 -28 -97 -28h-154c-55 0 -86 7 -109 30c-34 34 -46 77 -46 238c0 160 12 203 46 237c23 23 54 30 109 30h134
c54 0 87 -8 108 -29c34 -35 46 -78 46 -233v-17c0 -8 -3 -12 -12 -12zM164 454c-15 -15 -22 -39 -23 -151h296c-1 110 -9 137 -25 152c-11 11 -25 16 -64 16h-119c-38 0 -52 -4 -65 -17zM243 606v5l92 113h116v-5l-141 -113h-67z" />
    <glyph glyph-name="Ebreve" unicode="&#x114;" horiz-adv-x="612" 
d="M557 68v-68h-462v700h465v-68h-386v-235h331v-67h-331v-262h383zM326 822c60 0 91 27 100 70h52c-5 -79 -57 -127 -152 -127s-147 48 -152 127h52c9 -43 40 -70 100 -70z" />
    <glyph glyph-name="ebreve" unicode="&#x115;" horiz-adv-x="575" 
d="M498 244h-357c1 -122 9 -149 24 -164c12 -12 26 -15 64 -15h133c33 0 47 4 58 15c12 12 17 29 18 84h72c-2 -82 -11 -110 -37 -136c-20 -20 -46 -28 -97 -28h-154c-55 0 -86 7 -109 30c-34 34 -46 77 -46 238c0 160 12 203 46 237c23 23 54 30 109 30h134
c54 0 87 -8 108 -29c34 -35 46 -78 46 -233v-17c0 -8 -3 -12 -12 -12zM164 454c-15 -15 -22 -39 -23 -151h296c-1 110 -9 137 -25 152c-11 11 -25 16 -64 16h-119c-38 0 -52 -4 -65 -17zM291 662c60 0 91 27 100 70h52c-5 -79 -57 -127 -152 -127s-147 48 -152 127h52
c9 -43 40 -70 100 -70z" />
    <glyph glyph-name="Ecaron" unicode="&#x11a;" horiz-adv-x="612" 
d="M557 68v-68h-462v700h465v-68h-386v-235h331v-67h-331v-262h383zM283 768l-116 119v5h59l100 -72l99 72h58v-5l-116 -119h-84z" />
    <glyph glyph-name="ecaron" unicode="&#x11b;" horiz-adv-x="575" 
d="M498 244h-357c1 -122 9 -149 24 -164c12 -12 26 -15 64 -15h133c33 0 47 4 58 15c12 12 17 29 18 84h72c-2 -82 -11 -110 -37 -136c-20 -20 -46 -28 -97 -28h-154c-55 0 -86 7 -109 30c-34 34 -46 77 -46 238c0 160 12 203 46 237c23 23 54 30 109 30h134
c54 0 87 -8 108 -29c34 -35 46 -78 46 -233v-17c0 -8 -3 -12 -12 -12zM164 454c-15 -15 -22 -39 -23 -151h296c-1 110 -9 137 -25 152c-11 11 -25 16 -64 16h-119c-38 0 -52 -4 -65 -17zM248 608l-116 119v5h59l100 -72l99 72h58v-5l-116 -119h-84z" />
    <glyph glyph-name="Ecircumflex" unicode="&#xca;" horiz-adv-x="612" 
d="M557 68v-68h-462v700h465v-68h-386v-235h331v-67h-331v-262h383zM425 768l-100 72l-99 -72h-58v5l116 119h84l116 -119v-5h-59z" />
    <glyph glyph-name="ecircumflex" unicode="&#xea;" horiz-adv-x="575" 
d="M498 244h-357c1 -122 9 -149 24 -164c12 -12 26 -15 64 -15h133c33 0 47 4 58 15c12 12 17 29 18 84h72c-2 -82 -11 -110 -37 -136c-20 -20 -46 -28 -97 -28h-154c-55 0 -86 7 -109 30c-34 34 -46 77 -46 238c0 160 12 203 46 237c23 23 54 30 109 30h134
c54 0 87 -8 108 -29c34 -35 46 -78 46 -233v-17c0 -8 -3 -12 -12 -12zM164 454c-15 -15 -22 -39 -23 -151h296c-1 110 -9 137 -25 152c-11 11 -25 16 -64 16h-119c-38 0 -52 -4 -65 -17zM390 608l-100 72l-99 -72h-58v5l116 119h84l116 -119v-5h-59z" />
    <glyph glyph-name="Edieresis" unicode="&#xcb;" horiz-adv-x="612" 
d="M192 784v95h83v-95h-83zM377 784v95h83v-95h-83zM557 68v-68h-462v700h465v-68h-386v-235h331v-67h-331v-262h383z" />
    <glyph glyph-name="edieresis" unicode="&#xeb;" horiz-adv-x="575" 
d="M498 244h-357c1 -122 9 -149 24 -164c12 -12 26 -15 64 -15h133c33 0 47 4 58 15c12 12 17 29 18 84h72c-2 -82 -11 -110 -37 -136c-20 -20 -46 -28 -97 -28h-154c-55 0 -86 7 -109 30c-34 34 -46 77 -46 238c0 160 12 203 46 237c23 23 54 30 109 30h134
c54 0 87 -8 108 -29c34 -35 46 -78 46 -233v-17c0 -8 -3 -12 -12 -12zM164 454c-15 -15 -22 -39 -23 -151h296c-1 110 -9 137 -25 152c-11 11 -25 16 -64 16h-119c-38 0 -52 -4 -65 -17zM342 624v95h83v-95h-83zM157 624v95h83v-95h-83z" />
    <glyph glyph-name="Edotaccent" unicode="&#x116;" horiz-adv-x="612" 
d="M557 68v-68h-462v700h465v-68h-386v-235h331v-67h-331v-262h383zM282 789v96h88v-96h-88z" />
    <glyph glyph-name="edotaccent" unicode="&#x117;" horiz-adv-x="575" 
d="M498 244h-357c1 -122 9 -149 24 -164c12 -12 26 -15 64 -15h133c33 0 47 4 58 15c12 12 17 29 18 84h72c-2 -82 -11 -110 -37 -136c-20 -20 -46 -28 -97 -28h-154c-55 0 -86 7 -109 30c-34 34 -46 77 -46 238c0 160 12 203 46 237c23 23 54 30 109 30h134
c54 0 87 -8 108 -29c34 -35 46 -78 46 -233v-17c0 -8 -3 -12 -12 -12zM164 454c-15 -15 -22 -39 -23 -151h296c-1 110 -9 137 -25 152c-11 11 -25 16 -64 16h-119c-38 0 -52 -4 -65 -17zM247 629v96h88v-96h-88z" />
    <glyph glyph-name="Egrave" unicode="&#xc8;" horiz-adv-x="612" 
d="M557 68v-68h-462v700h465v-68h-386v-235h331v-67h-331v-262h383zM374 766h-67l-141 113v5h116l92 -113v-5z" />
    <glyph glyph-name="egrave" unicode="&#xe8;" horiz-adv-x="575" 
d="M498 244h-357c1 -122 9 -149 24 -164c12 -12 26 -15 64 -15h133c33 0 47 4 58 15c12 12 17 29 18 84h72c-2 -82 -11 -110 -37 -136c-20 -20 -46 -28 -97 -28h-154c-55 0 -86 7 -109 30c-34 34 -46 77 -46 238c0 160 12 203 46 237c23 23 54 30 109 30h134
c54 0 87 -8 108 -29c34 -35 46 -78 46 -233v-17c0 -8 -3 -12 -12 -12zM164 454c-15 -15 -22 -39 -23 -151h296c-1 110 -9 137 -25 152c-11 11 -25 16 -64 16h-119c-38 0 -52 -4 -65 -17zM339 606h-67l-141 113v5h116l92 -113v-5z" />
    <glyph glyph-name="Emacron" unicode="&#x112;" horiz-adv-x="612" 
d="M557 68v-68h-462v700h465v-68h-386v-235h331v-67h-331v-262h383zM180 776v61h292v-61h-292z" />
    <glyph glyph-name="emacron" unicode="&#x113;" horiz-adv-x="575" 
d="M498 244h-357c1 -122 9 -149 24 -164c12 -12 26 -15 64 -15h133c33 0 47 4 58 15c12 12 17 29 18 84h72c-2 -82 -11 -110 -37 -136c-20 -20 -46 -28 -97 -28h-154c-55 0 -86 7 -109 30c-34 34 -46 77 -46 238c0 160 12 203 46 237c23 23 54 30 109 30h134
c54 0 87 -8 108 -29c34 -35 46 -78 46 -233v-17c0 -8 -3 -12 -12 -12zM164 454c-15 -15 -22 -39 -23 -151h296c-1 110 -9 137 -25 152c-11 11 -25 16 -64 16h-119c-38 0 -52 -4 -65 -17zM145 616v61h292v-61h-292z" />
    <glyph glyph-name="Eogonek" unicode="&#x118;" horiz-adv-x="612" 
d="M555 68v-68h-95c-12 -11 -29 -29 -36 -41c-9 -13 -10 -23 -10 -48c0 -34 1 -42 6 -47c5 -4 10 -6 22 -6h32c12 0 16 2 21 6c5 5 7 14 7 54h55c0 -64 -5 -84 -20 -98c-11 -10 -27 -14 -52 -14h-57c-25 0 -41 4 -52 14c-16 14 -21 34 -21 75c0 27 2 43 14 62
c8 13 24 29 41 43h-317v700h465v-68h-386v-235h331v-67h-331v-262h383z" />
    <glyph glyph-name="eogonek" unicode="&#x119;" horiz-adv-x="575" 
d="M447 -82h55c0 -64 -4 -84 -20 -98c-11 -10 -26 -14 -51 -14h-58c-25 0 -41 4 -52 14c-16 14 -20 34 -20 75c0 27 1 43 14 62c7 13 23 29 40 43h-133c-55 0 -86 7 -109 30c-34 34 -46 77 -46 238c0 160 12 203 46 237c23 23 54 30 109 30h134c54 0 87 -8 108 -29
c34 -35 46 -78 46 -233v-17c0 -8 -3 -12 -12 -12h-357c1 -122 9 -149 24 -164c12 -12 26 -15 64 -15h133c33 0 47 4 58 15c12 12 17 29 18 84h72c-2 -82 -11 -110 -37 -136c-15 -15 -34 -24 -65 -27c-13 -13 -32 -31 -39 -42c-8 -13 -10 -23 -10 -48c0 -34 1 -42 7 -47
c4 -4 9 -6 21 -6h32c12 0 16 2 21 6c5 5 7 14 7 54zM164 454c-15 -15 -22 -39 -23 -151h296c-1 110 -9 137 -25 152c-11 11 -25 16 -64 16h-119c-38 0 -52 -4 -65 -17z" />
    <glyph glyph-name="Eth" unicode="&#xd0;" horiz-adv-x="704" 
d="M101 700h316c75 0 115 -13 148 -43c43 -41 69 -119 69 -307s-26 -266 -69 -307c-33 -30 -73 -43 -148 -43h-316v321h-98v66h98v313zM554 349c0 176 -20 232 -48 258c-21 20 -41 25 -89 25h-237v-245h162v-66h-162v-253h237c48 0 69 5 89 25c28 26 48 82 48 256z" />
    <glyph glyph-name="eth" unicode="&#xf0;" horiz-adv-x="593" 
d="M227 609l108 36l-61 75h62l54 -56l134 46v-57l-94 -32c44 -49 62 -78 71 -104c11 -30 15 -86 15 -243c0 -163 -8 -207 -45 -244c-23 -23 -54 -30 -109 -30h-140c-54 0 -86 7 -108 30c-35 34 -46 78 -46 213c0 134 11 178 46 212c22 23 54 30 108 30h69
c54 0 80 -14 150 -71c-2 54 -5 73 -12 95c-7 19 -20 41 -59 91l-143 -49v58zM442 274v96c-55 35 -87 50 -133 50h-79c-38 0 -52 -3 -64 -15c-16 -16 -24 -44 -24 -162s8 -146 24 -162c12 -11 26 -15 64 -15h124c38 0 52 4 64 15c18 18 24 49 24 193z" />
    <glyph glyph-name="Gbreve" unicode="&#x11e;" horiz-adv-x="690" 
d="M244 700h208c63 0 88 -8 110 -28c36 -34 48 -74 51 -184h-77c-3 83 -11 113 -28 129c-10 10 -21 15 -63 15h-194c-42 0 -54 -6 -64 -15c-16 -16 -31 -52 -31 -267s15 -251 31 -267c10 -9 22 -15 64 -15h194c42 -1 53 6 63 15c16 16 30 47 30 181v22h-190v68h269v-56
c0 -188 -19 -236 -55 -270c-22 -20 -47 -28 -110 -28h-209c-63 0 -88 8 -110 28c-36 34 -57 85 -57 322s21 288 57 322c22 20 47 28 111 28zM347 822c60 0 91 27 100 70h52c-5 -79 -57 -127 -152 -127s-147 48 -152 127h52c9 -43 40 -70 100 -70z" />
    <glyph glyph-name="gbreve" unicode="&#x11f;" horiz-adv-x="598" 
d="M385 -150h-189c-46 0 -69 10 -86 26c-21 21 -28 45 -29 104h74c1 -35 5 -46 16 -56c7 -8 18 -12 49 -12h151c29 0 41 3 51 13s16 21 16 79v114c-71 -57 -97 -71 -152 -71h-62c-61 0 -91 10 -114 33c-31 32 -42 71 -42 212s11 179 42 211c23 23 53 33 114 33h62
c55 0 81 -14 152 -72v71h74v-523c0 -85 -10 -111 -34 -135c-17 -18 -42 -27 -93 -27zM308 112c45 0 76 14 130 49v259c-55 36 -87 51 -133 51h-66c-43 0 -60 -7 -72 -19c-20 -20 -25 -44 -25 -160c0 -117 5 -141 25 -160c12 -13 29 -20 72 -20h69zM295 662
c60 0 91 27 100 70h52c-5 -79 -57 -127 -152 -127s-147 48 -152 127h52c9 -43 40 -70 100 -70z" />
    <glyph glyph-name="Gcommaaccent" unicode="&#x122;" horiz-adv-x="690" 
d="M303 -70h89v-91c0 -26 -5 -39 -20 -56l-72 -85l-25 20l58 85c6 9 7 15 7 25v7h-37v95zM244 700h208c63 0 88 -8 110 -28c36 -34 48 -74 51 -184h-77c-3 83 -11 113 -28 129c-10 10 -21 15 -63 15h-194c-42 0 -54 -6 -64 -15c-16 -16 -31 -52 -31 -267s15 -251 31 -267
c10 -9 22 -15 64 -15h194c42 -1 53 6 63 15c16 16 30 47 30 181v22h-190v68h269v-56c0 -188 -19 -236 -55 -270c-22 -20 -47 -28 -110 -28h-209c-63 0 -88 8 -110 28c-36 34 -57 85 -57 322s21 288 57 322c22 20 47 28 111 28z" />
    <glyph glyph-name="gcommaaccent" unicode="&#x123;" horiz-adv-x="598" 
d="M385 -150h-189c-46 0 -69 10 -86 26c-21 21 -28 45 -29 104h74c1 -35 5 -46 16 -56c7 -8 18 -12 49 -12h151c29 0 41 3 51 13s16 21 16 79v114c-71 -57 -97 -71 -152 -71h-62c-61 0 -91 10 -114 33c-31 32 -42 71 -42 212s11 179 42 211c23 23 53 33 114 33h62
c55 0 81 -14 152 -72v71h74v-523c0 -85 -10 -111 -34 -135c-17 -18 -42 -27 -93 -27zM308 112c45 0 76 14 130 49v259c-55 36 -87 51 -133 51h-66c-43 0 -60 -7 -72 -19c-20 -20 -25 -44 -25 -160c0 -117 5 -141 25 -160c12 -13 29 -20 72 -20h69zM340 631h-89v91
c0 26 5 39 20 56l72 85l25 -20l-58 -85c-6 -9 -7 -15 -7 -25v-7h37v-95z" />
    <glyph glyph-name="Gdotaccent" unicode="&#x120;" horiz-adv-x="690" 
d="M244 700h208c63 0 88 -8 110 -28c36 -34 48 -74 51 -184h-77c-3 83 -11 113 -28 129c-10 10 -21 15 -63 15h-194c-42 0 -54 -6 -64 -15c-16 -16 -31 -52 -31 -267s15 -251 31 -267c10 -9 22 -15 64 -15h194c42 -1 53 6 63 15c16 16 30 47 30 181v22h-190v68h269v-56
c0 -188 -19 -236 -55 -270c-22 -20 -47 -28 -110 -28h-209c-63 0 -88 8 -110 28c-36 34 -57 85 -57 322s21 288 57 322c22 20 47 28 111 28zM303 789v96h88v-96h-88z" />
    <glyph glyph-name="gdotaccent" unicode="&#x121;" horiz-adv-x="598" 
d="M385 -150h-189c-46 0 -69 10 -86 26c-21 21 -28 45 -29 104h74c1 -35 5 -46 16 -56c7 -8 18 -12 49 -12h151c29 0 41 3 51 13s16 21 16 79v114c-71 -57 -97 -71 -152 -71h-62c-61 0 -91 10 -114 33c-31 32 -42 71 -42 212s11 179 42 211c23 23 53 33 114 33h62
c55 0 81 -14 152 -72v71h74v-523c0 -85 -10 -111 -34 -135c-17 -18 -42 -27 -93 -27zM308 112c45 0 76 14 130 49v259c-55 36 -87 51 -133 51h-66c-43 0 -60 -7 -72 -19c-20 -20 -25 -44 -25 -160c0 -117 5 -141 25 -160c12 -13 29 -20 72 -20h69zM251 629v96h88v-96h-88z
" />
    <glyph glyph-name="Hbar" unicode="&#x126;" horiz-adv-x="735" 
d="M640 700v-125h98v-65h-98v-510h-79v322h-387v-322h-79v510h-98v65h98v125h79v-125h387v125h79zM174 390h387v120h-387v-120z" />
    <glyph glyph-name="hbar" unicode="&#x127;" horiz-adv-x="595" 
d="M160 0h-74v584h-86v59h86v77h74v-77h153v-59h-153v-120c70 57 95 72 152 72h78c50 0 73 -9 93 -28c20 -21 28 -50 28 -107v-401h-74v396c0 31 -4 47 -16 59c-11 11 -21 15 -60 15h-70c-45 0 -75 -12 -131 -48v-422z" />
    <glyph glyph-name="Iacute" unicode="&#xcd;" horiz-adv-x="276" 
d="M178 0h-79v700h79v-700zM91 766v5l92 113h116v-5l-141 -113h-67z" />
    <glyph glyph-name="iacute" unicode="&#xed;" horiz-adv-x="248" 
d="M77 606v5l92 113h116v-5l-141 -113h-67zM161 535v-535h-74v535h74z" />
    <glyph glyph-name="Ibreve" unicode="&#x12c;" horiz-adv-x="276" 
d="M178 0h-79v700h79v-700zM138 822c60 0 91 27 100 70h52c-5 -79 -57 -127 -152 -127s-147 48 -152 127h52c9 -43 40 -70 100 -70z" />
    <glyph glyph-name="ibreve" unicode="&#x12d;" horiz-adv-x="248" 
d="M161 535v-535h-74v535h74zM124 662c60 0 91 27 100 70h52c-5 -79 -57 -127 -152 -127s-147 48 -152 127h52c9 -43 40 -70 100 -70z" />
    <glyph glyph-name="Icircumflex" unicode="&#xce;" horiz-adv-x="276" 
d="M178 0h-79v700h79v-700zM237 768l-100 72l-99 -72h-58v5l116 119h84l116 -119v-5h-59z" />
    <glyph glyph-name="icircumflex" unicode="&#xee;" horiz-adv-x="248" 
d="M161 535v-535h-74v535h74zM223 608l-100 72l-99 -72h-58v5l116 119h84l116 -119v-5h-59z" />
    <glyph glyph-name="Idieresis" unicode="&#xcf;" horiz-adv-x="276" 
d="M178 0h-79v700h79v-700zM4 784v95h83v-95h-83zM189 784v95h83v-95h-83z" />
    <glyph glyph-name="idieresis" unicode="&#xef;" horiz-adv-x="248" 
d="M-10 624v95h83v-95h-83zM175 624v95h83v-95h-83zM161 535v-535h-74v535h74z" />
    <glyph glyph-name="Idotaccent" unicode="&#x130;" horiz-adv-x="276" 
d="M178 0h-79v700h79v-700zM94 789v96h88v-96h-88z" />
    <glyph glyph-name="dotlessi" unicode="&#x131;" horiz-adv-x="248" 
d="M161 535v-535h-74v535h74z" />
    <glyph glyph-name="Igrave" unicode="&#xcc;" horiz-adv-x="276" 
d="M178 0h-79v700h79v-700zM186 766h-67l-141 113v5h116l92 -113v-5z" />
    <glyph glyph-name="igrave" unicode="&#xec;" horiz-adv-x="248" 
d="M161 535v-535h-74v535h74zM172 606h-67l-141 113v5h116l92 -113v-5z" />
    <glyph glyph-name="Imacron" unicode="&#x12a;" horiz-adv-x="276" 
d="M178 0h-79v700h79v-700zM-8 776v61h292v-61h-292z" />
    <glyph glyph-name="imacron" unicode="&#x12b;" horiz-adv-x="248" 
d="M161 535v-535h-74v535h74zM-22 616v61h292v-61h-292z" />
    <glyph glyph-name="Iogonek" unicode="&#x12e;" horiz-adv-x="281" 
d="M180 0h-38c-12 -11 -30 -29 -37 -41c-8 -13 -10 -23 -10 -48c0 -34 2 -42 7 -47c5 -4 10 -6 21 -6h33c11 0 16 2 20 6c6 5 8 14 8 54h55c0 -64 -5 -84 -21 -98c-10 -10 -26 -14 -51 -14h-57c-25 0 -42 4 -52 14c-16 14 -21 34 -21 75c0 27 2 43 14 62c9 16 29 34 50 50
v693h79v-700z" />
    <glyph glyph-name="iogonek" unicode="&#x12f;" horiz-adv-x="248" 
d="M161 535v-535h-35c-12 -11 -29 -29 -36 -41c-9 -13 -10 -23 -10 -48c0 -34 1 -42 6 -47c5 -4 10 -6 22 -6h32c12 0 16 2 21 6c5 5 7 14 7 54h55c0 -64 -5 -84 -20 -98c-11 -10 -27 -14 -52 -14h-57c-25 0 -41 4 -52 14c-16 14 -21 34 -21 75c0 27 2 43 14 62
c10 16 30 35 52 52v526h74zM168 730v-96h-88v96h88z" />
    <glyph glyph-name="Kcommaaccent" unicode="&#x136;" horiz-adv-x="627" 
d="M512 700h93l-289 -332l295 -368h-95l-262 329h-80v-329h-79v700h79v-303h78zM294 -70h89v-91c0 -26 -5 -39 -20 -56l-72 -85l-25 20l58 85c6 9 7 15 7 25v7h-37v95z" />
    <glyph glyph-name="kcommaaccent" unicode="&#x137;" horiz-adv-x="522" 
d="M160 0h-74v720h74v-419h55l197 234h89l-228 -261l236 -274h-93l-203 239h-53v-239zM242 -70h89v-91c0 -26 -5 -39 -20 -56l-72 -85l-25 20l58 85c6 9 7 15 7 25v7h-37v95z" />
    <glyph glyph-name="Lacute" unicode="&#x139;" horiz-adv-x="565" 
d="M100 766v5l92 113h116v-5l-141 -113h-67zM174 700v-632h356v-68h-435v700h79z" />
    <glyph glyph-name="lacute" unicode="&#x13a;" horiz-adv-x="245" 
d="M75 766v5l92 113h116v-5l-141 -113h-67zM160 0h-74v720h74v-720z" />
    <glyph glyph-name="Lcaron" unicode="&#x13d;" horiz-adv-x="565" 
d="M174 700v-632h356v-68h-435v700h79zM279 553l-28 11l23 90c2 9 3 16 3 23c0 8 -1 14 -3 24l-19 80v19h84v-74c0 -47 -4 -64 -23 -99z" />
    <glyph glyph-name="lcaron" unicode="&#x13e;" horiz-adv-x="245" 
d="M160 0h-74v720h74v-720zM250 553l-28 11l23 90c2 9 3 16 3 23c0 8 -1 14 -3 24l-19 80v19h84v-74c0 -47 -4 -64 -23 -99z" />
    <glyph glyph-name="Lcommaaccent" unicode="&#x13b;" horiz-adv-x="565" 
d="M266 -70h89v-91c0 -26 -5 -39 -20 -56l-72 -85l-25 20l58 85c6 9 7 15 7 25v7h-37v95zM174 700v-632h356v-68h-435v700h79z" />
    <glyph glyph-name="lcommaaccent" unicode="&#x13c;" horiz-adv-x="245" 
d="M79 -70h89v-91c0 -26 -5 -39 -20 -56l-72 -85l-25 20l58 85c6 9 7 15 7 25v7h-37v95zM160 0h-74v720h74v-720z" />
    <glyph glyph-name="Ldot" unicode="&#x13f;" horiz-adv-x="565" 
d="M381 340v96h88v-96h-88zM174 700v-632h356v-68h-435v700h79z" />
    <glyph glyph-name="ldot" unicode="&#x140;" horiz-adv-x="344" 
d="M339 295h-88v96h88v-96zM160 0h-74v720h74v-720z" />
    <glyph glyph-name="Lslash" unicode="&#x141;" horiz-adv-x="574" 
d="M182 700v-298l179 53v-66l-179 -53v-268h356v-68h-435v313l-97 -28v66l97 28v321h79z" />
    <glyph glyph-name="lslash" unicode="&#x142;" horiz-adv-x="265" 
d="M169 0h-74v330l-88 -25v66l88 26v323h74v-301l88 26v-67l-88 -26v-352z" />
    <glyph glyph-name="Nacute" unicode="&#x143;" horiz-adv-x="726" 
d="M316 766v5l92 113h116v-5l-141 -113h-67zM631 700v-700h-81c-25 0 -34 5 -45 27l-321 571h-12v-598h-77v700h87c25 0 33 -6 44 -28l315 -556h13v584h77z" />
    <glyph glyph-name="nacute" unicode="&#x144;" horiz-adv-x="595" 
d="M160 0h-74v535h74v-71c70 57 95 72 152 72h78c50 0 73 -9 93 -28c20 -21 28 -50 28 -107v-401h-74v396c0 31 -4 47 -16 59c-11 11 -21 15 -60 15h-70c-45 0 -75 -12 -131 -48v-422zM254 606v5l92 113h116v-5l-141 -113h-67z" />
    <glyph glyph-name="Ncaron" unicode="&#x147;" horiz-adv-x="726" 
d="M631 700v-700h-81c-25 0 -34 5 -45 27l-321 571h-12v-598h-77v700h87c25 0 33 -6 44 -28l315 -556h13v584h77zM321 768l-116 119v5h59l100 -72l99 72h58v-5l-116 -119h-84z" />
    <glyph glyph-name="ncaron" unicode="&#x148;" horiz-adv-x="595" 
d="M160 0h-74v535h74v-71c70 57 95 72 152 72h78c50 0 73 -9 93 -28c20 -21 28 -50 28 -107v-401h-74v396c0 31 -4 47 -16 59c-11 11 -21 15 -60 15h-70c-45 0 -75 -12 -131 -48v-422zM259 608l-116 119v5h59l100 -72l99 72h58v-5l-116 -119h-84z" />
    <glyph glyph-name="Ncommaaccent" unicode="&#x145;" horiz-adv-x="726" 
d="M320 -70h89v-91c0 -26 -5 -39 -20 -56l-72 -85l-25 20l58 85c6 9 7 15 7 25v7h-37v95zM631 700v-700h-81c-25 0 -34 5 -45 27l-321 571h-12v-598h-77v700h87c25 0 33 -6 44 -28l315 -556h13v584h77z" />
    <glyph glyph-name="ncommaaccent" unicode="&#x146;" horiz-adv-x="595" 
d="M160 0h-74v535h74v-71c70 57 95 72 152 72h78c50 0 73 -9 93 -28c20 -21 28 -50 28 -107v-401h-74v396c0 31 -4 47 -16 59c-11 11 -21 15 -60 15h-70c-45 0 -75 -12 -131 -48v-422zM258 -70h89v-91c0 -26 -5 -39 -20 -56l-72 -85l-25 20l58 85c6 9 7 15 7 25v7h-37v95z
" />
    <glyph glyph-name="Ntilde" unicode="&#xd1;" horiz-adv-x="726" 
d="M631 700v-700h-81c-25 0 -34 5 -45 27l-321 571h-12v-598h-77v700h87c25 0 33 -6 44 -28l315 -556h13v584h77zM218 775v66c0 18 3 32 10 40c6 7 15 11 31 11h12c18 0 31 -4 61 -15l118 -46l21 60h39v-66c0 -18 -3 -32 -10 -40c-6 -7 -15 -11 -31 -11h-12
c-18 0 -31 4 -61 15l-118 46l-21 -60h-39z" />
    <glyph glyph-name="ntilde" unicode="&#xf1;" horiz-adv-x="595" 
d="M160 0h-74v535h74v-71c70 57 95 72 152 72h78c50 0 73 -9 93 -28c20 -21 28 -50 28 -107v-401h-74v396c0 31 -4 47 -16 59c-11 11 -21 15 -60 15h-70c-45 0 -75 -12 -131 -48v-422zM156 615v66c0 18 3 32 10 40c6 7 15 11 31 11h12c18 0 31 -4 61 -15l118 -46l21 60h39
v-66c0 -18 -3 -32 -10 -40c-6 -7 -15 -11 -31 -11h-12c-18 0 -31 4 -61 15l-118 46l-21 -60h-39z" />
    <glyph glyph-name="Oacute" unicode="&#xd3;" horiz-adv-x="704" 
d="M304 766v5l92 113h116v-5l-141 -113h-67zM244 700h216c64 0 89 -8 110 -28c37 -34 58 -85 58 -322s-21 -288 -58 -322c-21 -20 -46 -28 -110 -28h-216c-63 0 -88 8 -110 28c-36 34 -58 85 -58 322s22 288 58 322c22 20 47 28 110 28zM156 350c0 -215 16 -251 32 -267
c10 -9 22 -15 64 -15h200c42 -1 54 6 64 15c17 16 32 52 32 267s-15 251 -32 267c-10 9 -22 15 -64 15h-200c-42 0 -54 -6 -64 -15c-16 -16 -32 -52 -32 -267z" />
    <glyph glyph-name="oacute" unicode="&#xf3;" horiz-adv-x="584" 
d="M243 606v5l92 113h116v-5l-141 -113h-67zM222 0c-55 0 -86 7 -109 30c-34 34 -46 77 -46 238c0 160 12 203 46 237c23 23 54 30 109 30h140c54 0 86 -7 108 -30c35 -34 47 -77 47 -237c0 -161 -12 -204 -47 -238c-22 -23 -54 -30 -108 -30h-140zM141 268
c0 -145 8 -171 24 -187c12 -11 27 -15 65 -15h124c38 0 53 4 64 15c16 16 25 42 25 187c0 144 -9 170 -25 186c-11 12 -26 15 -64 15h-124c-38 0 -53 -3 -65 -15c-16 -16 -24 -42 -24 -186z" />
    <glyph glyph-name="Obreve" unicode="&#x14e;" horiz-adv-x="704" 
d="M244 700h216c64 0 89 -8 110 -28c37 -34 58 -85 58 -322s-21 -288 -58 -322c-21 -20 -46 -28 -110 -28h-216c-63 0 -88 8 -110 28c-36 34 -58 85 -58 322s22 288 58 322c22 20 47 28 110 28zM156 350c0 -215 16 -251 32 -267c10 -9 22 -15 64 -15h200c42 -1 54 6 64 15
c17 16 32 52 32 267s-15 251 -32 267c-10 9 -22 15 -64 15h-200c-42 0 -54 -6 -64 -15c-16 -16 -32 -52 -32 -267zM352 822c60 0 91 27 100 70h52c-5 -79 -57 -127 -152 -127s-147 48 -152 127h52c9 -43 40 -70 100 -70z" />
    <glyph glyph-name="obreve" unicode="&#x14f;" horiz-adv-x="584" 
d="M222 0c-55 0 -86 7 -109 30c-34 34 -46 77 -46 238c0 160 12 203 46 237c23 23 54 30 109 30h140c54 0 86 -7 108 -30c35 -34 47 -77 47 -237c0 -161 -12 -204 -47 -238c-22 -23 -54 -30 -108 -30h-140zM141 268c0 -145 8 -171 24 -187c12 -11 27 -15 65 -15h124
c38 0 53 4 64 15c16 16 25 42 25 187c0 144 -9 170 -25 186c-11 12 -26 15 -64 15h-124c-38 0 -53 -3 -65 -15c-16 -16 -24 -42 -24 -186zM291 662c60 0 91 27 100 70h52c-5 -79 -57 -127 -152 -127s-147 48 -152 127h52c9 -43 40 -70 100 -70z" />
    <glyph glyph-name="Ocircumflex" unicode="&#xd4;" horiz-adv-x="704" 
d="M244 700h216c64 0 89 -8 110 -28c37 -34 58 -85 58 -322s-21 -288 -58 -322c-21 -20 -46 -28 -110 -28h-216c-63 0 -88 8 -110 28c-36 34 -58 85 -58 322s22 288 58 322c22 20 47 28 110 28zM156 350c0 -215 16 -251 32 -267c10 -9 22 -15 64 -15h200c42 -1 54 6 64 15
c17 16 32 52 32 267s-15 251 -32 267c-10 9 -22 15 -64 15h-200c-42 0 -54 -6 -64 -15c-16 -16 -32 -52 -32 -267zM451 768l-100 72l-99 -72h-58v5l116 119h84l116 -119v-5h-59z" />
    <glyph glyph-name="ocircumflex" unicode="&#xf4;" horiz-adv-x="584" 
d="M222 0c-55 0 -86 7 -109 30c-34 34 -46 77 -46 238c0 160 12 203 46 237c23 23 54 30 109 30h140c54 0 86 -7 108 -30c35 -34 47 -77 47 -237c0 -161 -12 -204 -47 -238c-22 -23 -54 -30 -108 -30h-140zM141 268c0 -145 8 -171 24 -187c12 -11 27 -15 65 -15h124
c38 0 53 4 64 15c16 16 25 42 25 187c0 144 -9 170 -25 186c-11 12 -26 15 -64 15h-124c-38 0 -53 -3 -65 -15c-16 -16 -24 -42 -24 -186zM390 608l-100 72l-99 -72h-58v5l116 119h84l116 -119v-5h-59z" />
    <glyph glyph-name="Odieresis" unicode="&#xd6;" horiz-adv-x="704" 
d="M218 784v95h83v-95h-83zM403 784v95h83v-95h-83zM244 700h216c64 0 89 -8 110 -28c37 -34 58 -85 58 -322s-21 -288 -58 -322c-21 -20 -46 -28 -110 -28h-216c-63 0 -88 8 -110 28c-36 34 -58 85 -58 322s22 288 58 322c22 20 47 28 110 28zM156 350
c0 -215 16 -251 32 -267c10 -9 22 -15 64 -15h200c42 -1 54 6 64 15c17 16 32 52 32 267s-15 251 -32 267c-10 9 -22 15 -64 15h-200c-42 0 -54 -6 -64 -15c-16 -16 -32 -52 -32 -267z" />
    <glyph glyph-name="odieresis" unicode="&#xf6;" horiz-adv-x="584" 
d="M157 624v95h83v-95h-83zM342 624v95h83v-95h-83zM222 0c-55 0 -86 7 -109 30c-34 34 -46 77 -46 238c0 160 12 203 46 237c23 23 54 30 109 30h140c54 0 86 -7 108 -30c35 -34 47 -77 47 -237c0 -161 -12 -204 -47 -238c-22 -23 -54 -30 -108 -30h-140zM141 268
c0 -145 8 -171 24 -187c12 -11 27 -15 65 -15h124c38 0 53 4 64 15c16 16 25 42 25 187c0 144 -9 170 -25 186c-11 12 -26 15 -64 15h-124c-38 0 -53 -3 -65 -15c-16 -16 -24 -42 -24 -186z" />
    <glyph glyph-name="Ograve" unicode="&#xd2;" horiz-adv-x="704" 
d="M244 700h216c64 0 89 -8 110 -28c37 -34 58 -85 58 -322s-21 -288 -58 -322c-21 -20 -46 -28 -110 -28h-216c-63 0 -88 8 -110 28c-36 34 -58 85 -58 322s22 288 58 322c22 20 47 28 110 28zM156 350c0 -215 16 -251 32 -267c10 -9 22 -15 64 -15h200c42 -1 54 6 64 15
c17 16 32 52 32 267s-15 251 -32 267c-10 9 -22 15 -64 15h-200c-42 0 -54 -6 -64 -15c-16 -16 -32 -52 -32 -267zM399 766h-67l-141 113v5h116l92 -113v-5z" />
    <glyph glyph-name="ograve" unicode="&#xf2;" horiz-adv-x="584" 
d="M222 0c-55 0 -86 7 -109 30c-34 34 -46 77 -46 238c0 160 12 203 46 237c23 23 54 30 109 30h140c54 0 86 -7 108 -30c35 -34 47 -77 47 -237c0 -161 -12 -204 -47 -238c-22 -23 -54 -30 -108 -30h-140zM141 268c0 -145 8 -171 24 -187c12 -11 27 -15 65 -15h124
c38 0 53 4 64 15c16 16 25 42 25 187c0 144 -9 170 -25 186c-11 12 -26 15 -64 15h-124c-38 0 -53 -3 -65 -15c-16 -16 -24 -42 -24 -186zM339 606h-67l-141 113v5h116l92 -113v-5z" />
    <glyph glyph-name="Ohungarumlaut" unicode="&#x150;" horiz-adv-x="704" 
d="M223 766v5l91 113h110v-5l-137 -113h-64zM400 766v5l96 113h109v-5l-141 -113h-64zM244 700h216c64 0 89 -8 110 -28c37 -34 58 -85 58 -322s-21 -288 -58 -322c-21 -20 -46 -28 -110 -28h-216c-63 0 -88 8 -110 28c-36 34 -58 85 -58 322s22 288 58 322
c22 20 47 28 110 28zM156 350c0 -215 16 -251 32 -267c10 -9 22 -15 64 -15h200c42 -1 54 6 64 15c17 16 32 52 32 267s-15 251 -32 267c-10 9 -22 15 -64 15h-200c-42 0 -54 -6 -64 -15c-16 -16 -32 -52 -32 -267z" />
    <glyph glyph-name="ohungarumlaut" unicode="&#x151;" horiz-adv-x="584" 
d="M163 606v5l91 113h110v-5l-137 -113h-64zM340 606v5l96 113h109v-5l-141 -113h-64zM222 0c-55 0 -86 7 -109 30c-34 34 -46 77 -46 238c0 160 12 203 46 237c23 23 54 30 109 30h140c54 0 86 -7 108 -30c35 -34 47 -77 47 -237c0 -161 -12 -204 -47 -238
c-22 -23 -54 -30 -108 -30h-140zM141 268c0 -145 8 -171 24 -187c12 -11 27 -15 65 -15h124c38 0 53 4 64 15c16 16 25 42 25 187c0 144 -9 170 -25 186c-11 12 -26 15 -64 15h-124c-38 0 -53 -3 -65 -15c-16 -16 -24 -42 -24 -186z" />
    <glyph glyph-name="Omacron" unicode="&#x14c;" horiz-adv-x="704" 
d="M206 776v61h292v-61h-292zM244 700h216c64 0 89 -8 110 -28c37 -34 58 -85 58 -322s-21 -288 -58 -322c-21 -20 -46 -28 -110 -28h-216c-63 0 -88 8 -110 28c-36 34 -58 85 -58 322s22 288 58 322c22 20 47 28 110 28zM156 350c0 -215 16 -251 32 -267
c10 -9 22 -15 64 -15h200c42 -1 54 6 64 15c17 16 32 52 32 267s-15 251 -32 267c-10 9 -22 15 -64 15h-200c-42 0 -54 -6 -64 -15c-16 -16 -32 -52 -32 -267z" />
    <glyph glyph-name="omacron" unicode="&#x14d;" horiz-adv-x="584" 
d="M145 616v61h292v-61h-292zM222 0c-55 0 -86 7 -109 30c-34 34 -46 77 -46 238c0 160 12 203 46 237c23 23 54 30 109 30h140c54 0 86 -7 108 -30c35 -34 47 -77 47 -237c0 -161 -12 -204 -47 -238c-22 -23 -54 -30 -108 -30h-140zM141 268c0 -145 8 -171 24 -187
c12 -11 27 -15 65 -15h124c38 0 53 4 64 15c16 16 25 42 25 187c0 144 -9 170 -25 186c-11 12 -26 15 -64 15h-124c-38 0 -53 -3 -65 -15c-16 -16 -24 -42 -24 -186z" />
    <glyph glyph-name="Oslash" unicode="&#xd8;" horiz-adv-x="704" 
d="M244 700h216h21l26 53h73l-32 -66c8 -4 15 -9 22 -15c37 -34 58 -85 58 -322s-21 -288 -58 -322c-21 -20 -46 -28 -110 -28h-216h-22l-25 -53h-73l31 66c-8 4 -15 9 -21 15c-36 34 -58 85 -58 322s22 288 58 322c22 20 47 28 110 28zM516 617l-3 3l-259 -552h198
c42 -1 54 6 64 15c17 16 32 52 32 267s-15 251 -32 267zM156 350c0 -215 16 -251 32 -267l2 -3l260 552h-198c-42 0 -54 -6 -64 -15c-16 -16 -32 -52 -32 -267z" />
    <glyph glyph-name="oslash" unicode="&#xf8;" horiz-adv-x="587" 
d="M223 0c-15 0 -27 0 -39 1l-27 -51h-71l39 70c-4 3 -7 6 -10 10c-35 34 -47 77 -47 238c0 160 12 203 47 237c22 23 54 30 108 30h140c13 0 25 -1 36 -2l30 57h71l-41 -74l13 -11c34 -34 46 -77 46 -237c0 -161 -12 -204 -46 -238c-23 -23 -54 -30 -109 -30h-140zM444 268
c0 141 -8 169 -23 185l-203 -387h13h124c38 0 53 4 65 15c16 16 24 42 24 187zM142 268c0 -136 8 -167 22 -184l201 385h-10h-124c-38 0 -53 -3 -64 -15c-16 -16 -25 -42 -25 -186z" />
    <glyph glyph-name="Oslashacute" unicode="&#x1fe;" horiz-adv-x="704" 
d="M244 700h216h21l26 53h73l-32 -66c8 -4 15 -9 22 -15c37 -34 58 -85 58 -322s-21 -288 -58 -322c-21 -20 -46 -28 -110 -28h-216h-22l-25 -53h-73l31 66c-8 4 -15 9 -21 15c-36 34 -58 85 -58 322s22 288 58 322c22 20 47 28 110 28zM516 617l-3 3l-259 -552h198
c42 -1 54 6 64 15c17 16 32 52 32 267s-15 251 -32 267zM156 350c0 -215 16 -251 32 -267l2 -3l260 552h-198c-42 0 -54 -6 -64 -15c-16 -16 -32 -52 -32 -267zM308 766v5l92 113h116v-5l-141 -113h-67z" />
    <glyph glyph-name="oslashacute" unicode="&#x1ff;" horiz-adv-x="587" 
d="M223 0c-15 0 -27 0 -39 1l-27 -51h-71l39 70c-4 3 -7 6 -10 10c-35 34 -47 77 -47 238c0 160 12 203 47 237c22 23 54 30 108 30h140c13 0 25 -1 36 -2l30 57h71l-41 -74l13 -11c34 -34 46 -77 46 -237c0 -161 -12 -204 -46 -238c-23 -23 -54 -30 -109 -30h-140zM444 268
c0 141 -8 169 -23 185l-203 -387h13h124c38 0 53 4 65 15c16 16 24 42 24 187zM142 268c0 -136 8 -167 22 -184l201 385h-10h-124c-38 0 -53 -3 -64 -15c-16 -16 -25 -42 -25 -186zM249 606v5l92 113h116v-5l-141 -113h-67z" />
    <glyph glyph-name="Otilde" unicode="&#xd5;" horiz-adv-x="704" 
d="M244 700h216c64 0 89 -8 110 -28c37 -34 58 -85 58 -322s-21 -288 -58 -322c-21 -20 -46 -28 -110 -28h-216c-63 0 -88 8 -110 28c-36 34 -58 85 -58 322s22 288 58 322c22 20 47 28 110 28zM156 350c0 -215 16 -251 32 -267c10 -9 22 -15 64 -15h200c42 -1 54 6 64 15
c17 16 32 52 32 267s-15 251 -32 267c-10 9 -22 15 -64 15h-200c-42 0 -54 -6 -64 -15c-16 -16 -32 -52 -32 -267zM206 775v66c0 18 3 32 10 40c6 7 15 11 31 11h12c18 0 31 -4 61 -15l118 -46l21 60h39v-66c0 -18 -3 -32 -10 -40c-6 -7 -15 -11 -31 -11h-12
c-18 0 -31 4 -61 15l-118 46l-21 -60h-39z" />
    <glyph glyph-name="otilde" unicode="&#xf5;" horiz-adv-x="584" 
d="M222 0c-55 0 -86 7 -109 30c-34 34 -46 77 -46 238c0 160 12 203 46 237c23 23 54 30 109 30h140c54 0 86 -7 108 -30c35 -34 47 -77 47 -237c0 -161 -12 -204 -47 -238c-22 -23 -54 -30 -108 -30h-140zM141 268c0 -145 8 -171 24 -187c12 -11 27 -15 65 -15h124
c38 0 53 4 64 15c16 16 25 42 25 187c0 144 -9 170 -25 186c-11 12 -26 15 -64 15h-124c-38 0 -53 -3 -65 -15c-16 -16 -24 -42 -24 -186zM145 615v66c0 18 3 32 10 40c6 7 15 11 31 11h12c18 0 31 -4 61 -15l118 -46l21 60h39v-66c0 -18 -3 -32 -10 -40
c-6 -7 -15 -11 -31 -11h-12c-18 0 -31 4 -61 15l-118 46l-21 -60h-39z" />
    <glyph glyph-name="OE" unicode="&#x152;" horiz-adv-x="1041" 
d="M982 0h-694c-76 0 -116 13 -149 43c-43 41 -68 119 -68 307s25 266 68 307c33 30 73 43 149 43h697v-68h-382v-235h327v-67h-327v-262h379v-68zM151 349c0 -174 19 -230 47 -256c20 -20 42 -25 90 -25h236v564h-236c-48 0 -69 -5 -90 -25c-28 -26 -47 -82 -47 -258z" />
    <glyph glyph-name="oe" unicode="&#x153;" horiz-adv-x="953" 
d="M353 0h-131c-55 0 -86 7 -109 30c-34 34 -46 77 -46 238c0 160 12 203 46 237c23 23 54 30 109 30h131c54 0 84 -7 107 -30c8 -8 14 -17 20 -27c5 10 12 19 20 27c23 23 53 30 108 30h125c54 0 87 -8 108 -29c35 -35 46 -78 46 -233v-17c0 -8 -3 -12 -12 -12h-357
c1 -122 10 -149 24 -164c12 -12 26 -15 64 -15h133c34 0 47 4 58 15c12 12 17 29 18 84h72c-2 -82 -11 -110 -37 -136c-20 -20 -45 -28 -97 -28h-145c-55 0 -85 7 -108 30c-8 8 -15 16 -20 26c-6 -10 -12 -18 -20 -26c-23 -23 -53 -30 -107 -30zM141 268
c0 -145 8 -171 24 -187c12 -11 27 -15 65 -15h124c38 0 53 4 64 15c16 16 25 42 25 187c0 144 -9 170 -25 186c-11 12 -26 15 -64 15h-124c-38 0 -53 -3 -65 -15c-16 -16 -24 -42 -24 -186zM541 454c-15 -15 -22 -39 -23 -151h296c-1 110 -9 137 -24 152
c-12 11 -26 16 -64 16h-120c-38 0 -52 -4 -65 -17z" />
    <glyph glyph-name="Racute" unicode="&#x154;" horiz-adv-x="679" 
d="M293 766v5l92 113h116v-5l-141 -113h-67zM174 370h254c36 0 51 7 61 17c12 12 28 36 28 115c0 80 -15 104 -27 116c-10 10 -27 14 -60 14h-256v-262zM511 184c-2 70 -10 88 -25 101c-15 14 -36 19 -78 19h-234v-304h-79v700h354c49 0 81 -8 103 -29
c27 -27 44 -63 44 -165c0 -121 -34 -156 -104 -171v-1c69 -16 94 -36 99 -148c3 -82 6 -144 11 -186h-78c-7 47 -11 112 -13 184z" />
    <glyph glyph-name="racute" unicode="&#x155;" horiz-adv-x="388" 
d="M160 0h-74v535h74v-87c65 68 89 88 134 88h64v-76h-71c-41 0 -69 -6 -127 -46v-414zM171 606v5l92 113h116v-5l-141 -113h-67z" />
    <glyph glyph-name="Rcaron" unicode="&#x158;" horiz-adv-x="679" 
d="M511 184c-2 70 -10 88 -25 101c-15 14 -36 19 -78 19h-234v-304h-79v700h354c49 0 81 -8 103 -29c27 -27 44 -63 44 -165c0 -121 -34 -156 -104 -171v-1c69 -16 94 -36 99 -148c3 -82 6 -144 11 -186h-78c-7 47 -11 112 -13 184zM174 370h254c36 0 51 7 61 17
c12 12 28 36 28 115c0 80 -15 104 -27 116c-10 10 -27 14 -60 14h-256v-262zM298 768l-116 119v5h59l100 -72l99 72h58v-5l-116 -119h-84z" />
    <glyph glyph-name="rcaron" unicode="&#x159;" horiz-adv-x="388" 
d="M160 0h-74v535h74v-87c65 68 89 88 134 88h64v-76h-71c-41 0 -69 -6 -127 -46v-414zM177 608l-116 119v5h59l100 -72l99 72h58v-5l-116 -119h-84z" />
    <glyph glyph-name="Rcommaaccent" unicode="&#x156;" horiz-adv-x="674" 
d="M298 -70h89v-91c0 -26 -5 -39 -20 -56l-72 -85l-25 20l58 85c6 9 7 15 7 25v7h-37v95zM173 370h254c36 0 51 7 61 17c12 12 28 36 28 115c0 80 -15 104 -27 116c-10 10 -27 14 -60 14h-256v-262zM510 184c-2 70 -10 88 -25 101c-15 14 -36 19 -78 19h-234v-304h-79v700
h354c49 0 81 -8 103 -29c27 -27 44 -63 44 -165c0 -121 -34 -156 -104 -171v-1c69 -16 94 -36 99 -148c3 -82 6 -144 11 -186h-78c-7 47 -11 112 -13 184z" />
    <glyph glyph-name="rcommaaccent" unicode="&#x157;" horiz-adv-x="388" 
d="M160 0h-74v535h74v-87c65 68 89 88 134 88h64v-76h-71c-41 0 -69 -6 -127 -46v-414zM77 -70h89v-91c0 -26 -5 -39 -20 -56l-72 -85l-25 20l58 85c6 9 7 15 7 25v7h-37v95z" />
    <glyph glyph-name="Sacute" unicode="&#x15a;" horiz-adv-x="666" 
d="M283 766v5l92 113h116v-5l-141 -113h-67zM595 193c0 -93 -11 -133 -41 -162c-20 -20 -49 -31 -102 -31h-239c-52 0 -81 7 -102 29c-27 27 -37 55 -38 182h77c2 -98 7 -116 19 -128c10 -10 23 -15 56 -15h215c33 0 47 4 58 16c13 13 19 41 19 108c0 65 -3 83 -18 98
c-11 10 -24 15 -62 18l-219 20c-55 5 -84 16 -103 35c-25 25 -33 57 -33 147c0 86 10 129 41 159c19 20 49 31 101 31h217c52 0 82 -7 103 -29c28 -28 36 -57 38 -177h-78c-1 90 -6 110 -18 123c-11 10 -24 15 -56 15h-194c-33 0 -46 -4 -58 -16c-13 -14 -18 -45 -18 -105
c0 -63 4 -80 18 -94c11 -11 24 -14 62 -17l219 -20c53 -5 83 -16 102 -35c25 -25 34 -59 34 -152z" />
    <glyph glyph-name="sacute" unicode="&#x15b;" horiz-adv-x="551" 
d="M229 606v5l92 113h116v-5l-141 -113h-67zM488 151c0 -73 -10 -104 -33 -127c-17 -17 -40 -24 -79 -24h-196c-41 0 -70 8 -85 23c-23 23 -30 45 -31 139h68c2 -65 6 -78 16 -88c7 -7 17 -12 45 -12h166c24 0 35 4 44 13c8 8 15 21 15 72c0 46 -5 60 -13 67
c-7 8 -17 13 -51 15l-170 17c-49 5 -71 12 -86 27c-20 20 -27 46 -27 115c0 67 11 101 33 123c17 17 39 24 79 24h185c43 0 67 -8 82 -23c21 -21 30 -46 31 -135h-68c-2 63 -7 75 -16 84c-7 7 -18 12 -45 12h-153c-22 0 -34 -4 -42 -12c-9 -9 -16 -23 -16 -69
c0 -43 3 -56 12 -64c8 -9 17 -13 52 -16l172 -17c49 -4 71 -12 85 -26c20 -20 26 -51 26 -118z" />
    <glyph glyph-name="Scaron" unicode="&#x160;" horiz-adv-x="666" 
d="M595 193c0 -93 -11 -133 -41 -162c-20 -20 -49 -31 -102 -31h-239c-52 0 -81 7 -102 29c-27 27 -37 55 -38 182h77c2 -98 7 -116 19 -128c10 -10 23 -15 56 -15h215c33 0 47 4 58 16c13 13 19 41 19 108c0 65 -3 83 -18 98c-11 10 -24 15 -62 18l-219 20
c-55 5 -84 16 -103 35c-25 25 -33 57 -33 147c0 86 10 129 41 159c19 20 49 31 101 31h217c52 0 82 -7 103 -29c28 -28 36 -57 38 -177h-78c-1 90 -6 110 -18 123c-11 10 -24 15 -56 15h-194c-33 0 -46 -4 -58 -16c-13 -14 -18 -45 -18 -105c0 -63 4 -80 18 -94
c11 -11 24 -14 62 -17l219 -20c53 -5 83 -16 102 -35c25 -25 34 -59 34 -152zM288 768l-116 119v5h59l100 -72l99 72h58v-5l-116 -119h-84z" />
    <glyph glyph-name="scaron" unicode="&#x161;" horiz-adv-x="551" 
d="M488 151c0 -73 -10 -104 -33 -127c-17 -17 -40 -24 -79 -24h-196c-41 0 -70 8 -85 23c-23 23 -30 45 -31 139h68c2 -65 6 -78 16 -88c7 -7 17 -12 45 -12h166c24 0 35 4 44 13c8 8 15 21 15 72c0 46 -5 60 -13 67c-7 8 -17 13 -51 15l-170 17c-49 5 -71 12 -86 27
c-20 20 -27 46 -27 115c0 67 11 101 33 123c17 17 39 24 79 24h185c43 0 67 -8 82 -23c21 -21 30 -46 31 -135h-68c-2 63 -7 75 -16 84c-7 7 -18 12 -45 12h-153c-22 0 -34 -4 -42 -12c-9 -9 -16 -23 -16 -69c0 -43 3 -56 12 -64c8 -9 17 -13 52 -16l172 -17
c49 -4 71 -12 85 -26c20 -20 26 -51 26 -118zM233 608l-116 119v5h59l100 -72l99 72h58v-5l-116 -119h-84z" />
    <glyph glyph-name="Scedilla" unicode="&#x15e;" horiz-adv-x="666" 
d="M595 193c0 -93 -11 -133 -41 -162c-20 -20 -49 -31 -102 -31h-239c-52 0 -81 7 -102 29c-27 27 -37 55 -38 182h77c2 -98 7 -116 19 -128c10 -10 23 -15 56 -15h215c33 0 47 4 58 16c13 13 19 41 19 108c0 65 -3 83 -18 98c-11 10 -24 15 -62 18l-219 20
c-55 5 -84 16 -103 35c-25 25 -33 57 -33 147c0 86 10 129 41 159c19 20 49 31 101 31h217c52 0 82 -7 103 -29c28 -28 36 -57 38 -177h-78c-1 90 -6 110 -18 123c-11 10 -24 15 -56 15h-194c-33 0 -46 -4 -58 -16c-13 -14 -18 -45 -18 -105c0 -63 4 -80 18 -94
c11 -11 24 -14 62 -17l219 -20c53 -5 83 -16 102 -35c25 -25 34 -59 34 -152zM346 -45c32 0 51 -4 62 -15c12 -12 19 -30 19 -64s-7 -52 -19 -64s-32 -16 -64 -16h-69l-44 32v14h105c16 0 23 2 28 7c6 5 8 15 8 27c0 13 -2 23 -8 28c-5 5 -12 7 -28 7h-44v44h54z" />
    <glyph glyph-name="scedilla" unicode="&#x15f;" horiz-adv-x="551" 
d="M488 151c0 -73 -10 -104 -33 -127c-17 -17 -40 -24 -79 -24h-196c-41 0 -70 8 -85 23c-23 23 -30 45 -31 139h68c2 -65 6 -78 16 -88c7 -7 17 -12 45 -12h166c24 0 35 4 44 13c8 8 15 21 15 72c0 46 -5 60 -13 67c-7 8 -17 13 -51 15l-170 17c-49 5 -71 12 -86 27
c-20 20 -27 46 -27 115c0 67 11 101 33 123c17 17 39 24 79 24h185c43 0 67 -8 82 -23c21 -21 30 -46 31 -135h-68c-2 63 -7 75 -16 84c-7 7 -18 12 -45 12h-153c-22 0 -34 -4 -42 -12c-9 -9 -16 -23 -16 -69c0 -43 3 -56 12 -64c8 -9 17 -13 52 -16l172 -17
c49 -4 71 -12 85 -26c20 -20 26 -51 26 -118zM285 -45c32 0 51 -4 62 -15c12 -12 19 -30 19 -64s-7 -52 -19 -64s-32 -16 -64 -16h-69l-44 32v14h105c16 0 23 2 28 7c6 5 8 15 8 27c0 13 -2 23 -8 28c-5 5 -12 7 -28 7h-44v44h54z" />
    <glyph glyph-name="Scommaaccent" unicode="&#x218;" horiz-adv-x="666" 
d="M290 -70h89v-91c0 -26 -5 -39 -20 -56l-72 -85l-25 20l58 85c6 9 7 15 7 25v7h-37v95zM595 193c0 -93 -11 -133 -41 -162c-20 -20 -49 -31 -102 -31h-239c-52 0 -81 7 -102 29c-27 27 -37 55 -38 182h77c2 -98 7 -116 19 -128c10 -10 23 -15 56 -15h215c33 0 47 4 58 16
c13 13 19 41 19 108c0 65 -3 83 -18 98c-11 10 -24 15 -62 18l-219 20c-55 5 -84 16 -103 35c-25 25 -33 57 -33 147c0 86 10 129 41 159c19 20 49 31 101 31h217c52 0 82 -7 103 -29c28 -28 36 -57 38 -177h-78c-1 90 -6 110 -18 123c-11 10 -24 15 -56 15h-194
c-33 0 -46 -4 -58 -16c-13 -14 -18 -45 -18 -105c0 -63 4 -80 18 -94c11 -11 24 -14 62 -17l219 -20c53 -5 83 -16 102 -35c25 -25 34 -59 34 -152z" />
    <glyph glyph-name="scommaaccent" unicode="&#x219;" horiz-adv-x="551" 
d="M233 -70h89v-91c0 -26 -5 -39 -20 -56l-72 -85l-25 20l58 85c6 9 7 15 7 25v7h-37v95zM488 151c0 -73 -10 -104 -33 -127c-17 -17 -40 -24 -79 -24h-196c-41 0 -70 8 -85 23c-23 23 -30 45 -31 139h68c2 -65 6 -78 16 -88c7 -7 17 -12 45 -12h166c24 0 35 4 44 13
c8 8 15 21 15 72c0 46 -5 60 -13 67c-7 8 -17 13 -51 15l-170 17c-49 5 -71 12 -86 27c-20 20 -27 46 -27 115c0 67 11 101 33 123c17 17 39 24 79 24h185c43 0 67 -8 82 -23c21 -21 30 -46 31 -135h-68c-2 63 -7 75 -16 84c-7 7 -18 12 -45 12h-153c-22 0 -34 -4 -42 -12
c-9 -9 -16 -23 -16 -69c0 -43 3 -56 12 -64c8 -9 17 -13 52 -16l172 -17c49 -4 71 -12 85 -26c20 -20 26 -51 26 -118z" />
    <glyph glyph-name="Tcaron" unicode="&#x164;" horiz-adv-x="580" 
d="M558 632h-228v-632h-79v632h-228v68h535v-68zM247 768l-116 119v5h59l100 -72l99 72h58v-5l-116 -119h-84z" />
    <glyph glyph-name="tcaron" unicode="&#x165;" horiz-adv-x="376" 
d="M337 64v-48l-47 -12c-19 -4 -44 -8 -72 -8c-35 0 -60 6 -79 25c-18 18 -23 41 -23 84v366h-92v64h92v134h75v-134h147v-64h-147v-349c0 -28 3 -40 11 -47c6 -7 17 -11 47 -11h88zM279 600l-28 11l23 90c2 9 3 16 3 23c0 8 -1 14 -3 24l-19 80v19h84v-74
c0 -47 -4 -64 -23 -99z" />
    <glyph glyph-name="Tcommaaccent" unicode="&#x162;" horiz-adv-x="580" 
d="M246 -70h89v-91c0 -26 -5 -39 -20 -56l-72 -85l-25 20l58 85c6 9 7 15 7 25v7h-37v95zM558 632h-228v-632h-79v632h-228v68h535v-68z" />
    <glyph glyph-name="tcommaaccent" unicode="&#x163;" horiz-adv-x="376" 
d="M151 -70h89v-91c0 -26 -5 -39 -20 -56l-72 -85l-25 20l58 85c6 9 7 15 7 25v7h-37v95zM337 64v-48l-47 -12c-19 -4 -44 -8 -72 -8c-35 0 -60 6 -79 25c-18 18 -23 41 -23 84v366h-92v64h92v134h75v-134h147v-64h-147v-349c0 -28 3 -40 11 -47c6 -7 17 -11 47 -11h88z" />
    <glyph glyph-name="Thorn" unicode="&#xde;" horiz-adv-x="633" 
d="M174 207h237c38 0 55 4 67 15c13 12 28 37 28 128c0 92 -15 116 -28 128c-12 11 -29 15 -67 15h-237v-286zM174 700v-139h254c52 0 85 -6 107 -28c29 -27 51 -66 51 -185c0 -115 -22 -154 -51 -181c-22 -22 -55 -28 -107 -28h-254v-139h-79v700h79z" />
    <glyph glyph-name="thorn" unicode="&#xfe;" horiz-adv-x="597" 
d="M86 -150v870h74v-256c71 58 96 72 152 72h62c61 0 91 -10 114 -33c31 -32 42 -74 42 -235c0 -162 -11 -204 -42 -236c-23 -23 -53 -33 -114 -33h-62c-55 0 -82 14 -152 72v-221h-74zM291 470c-46 0 -78 -14 -131 -48v-308c55 -35 87 -49 133 -49h66c43 0 60 6 73 19
c19 19 24 51 24 184c0 132 -5 164 -24 183c-13 13 -30 19 -73 19h-68z" />
    <glyph glyph-name="Uacute" unicode="&#xda;" horiz-adv-x="723" 
d="M313 766v5l92 113h116v-5l-141 -113h-67zM627 700v-415c0 -168 -15 -213 -50 -249c-27 -26 -66 -36 -145 -36h-145c-78 0 -116 10 -142 36c-35 35 -50 79 -50 249v415h79v-429c0 -137 12 -165 30 -183c12 -12 30 -19 98 -19h121c67 0 84 6 97 19c18 19 29 44 29 183v429
h78z" />
    <glyph glyph-name="uacute" unicode="&#xfa;" horiz-adv-x="595" 
d="M436 535h74v-535h-74v72c-71 -58 -97 -73 -153 -73h-78c-50 0 -73 9 -92 29c-21 20 -29 49 -29 106v401h74v-396c0 -30 4 -47 16 -58c11 -11 22 -16 61 -16h70c44 0 74 11 131 48v422zM250 606v5l92 113h116v-5l-141 -113h-67z" />
    <glyph glyph-name="Ubreve" unicode="&#x16c;" horiz-adv-x="723" 
d="M627 700v-415c0 -168 -15 -213 -50 -249c-27 -26 -66 -36 -145 -36h-145c-78 0 -116 10 -142 36c-35 35 -50 79 -50 249v415h79v-429c0 -137 12 -165 30 -183c12 -12 30 -19 98 -19h121c67 0 84 6 97 19c18 19 29 44 29 183v429h78zM360 822c60 0 91 27 100 70h52
c-5 -79 -57 -127 -152 -127s-147 48 -152 127h52c9 -43 40 -70 100 -70z" />
    <glyph glyph-name="ubreve" unicode="&#x16d;" horiz-adv-x="595" 
d="M436 535h74v-535h-74v72c-71 -58 -97 -73 -153 -73h-78c-50 0 -73 9 -92 29c-21 20 -29 49 -29 106v401h74v-396c0 -30 4 -47 16 -58c11 -11 22 -16 61 -16h70c44 0 74 11 131 48v422zM298 662c60 0 91 27 100 70h52c-5 -79 -57 -127 -152 -127s-147 48 -152 127h52
c9 -43 40 -70 100 -70z" />
    <glyph glyph-name="Ucircumflex" unicode="&#xdb;" horiz-adv-x="723" 
d="M627 700v-415c0 -168 -15 -213 -50 -249c-27 -26 -66 -36 -145 -36h-145c-78 0 -116 10 -142 36c-35 35 -50 79 -50 249v415h79v-429c0 -137 12 -165 30 -183c12 -12 30 -19 98 -19h121c67 0 84 6 97 19c18 19 29 44 29 183v429h78zM459 768l-100 72l-99 -72h-58v5
l116 119h84l116 -119v-5h-59z" />
    <glyph glyph-name="ucircumflex" unicode="&#xfb;" horiz-adv-x="595" 
d="M436 535h74v-535h-74v72c-71 -58 -97 -73 -153 -73h-78c-50 0 -73 9 -92 29c-21 20 -29 49 -29 106v401h74v-396c0 -30 4 -47 16 -58c11 -11 22 -16 61 -16h70c44 0 74 11 131 48v422zM397 608l-100 72l-99 -72h-58v5l116 119h84l116 -119v-5h-59z" />
    <glyph glyph-name="Udieresis" unicode="&#xdc;" horiz-adv-x="723" 
d="M226 784v95h83v-95h-83zM411 784v95h83v-95h-83zM627 700v-415c0 -168 -15 -213 -50 -249c-27 -26 -66 -36 -145 -36h-145c-78 0 -116 10 -142 36c-35 35 -50 79 -50 249v415h79v-429c0 -137 12 -165 30 -183c12 -12 30 -19 98 -19h121c67 0 84 6 97 19
c18 19 29 44 29 183v429h78z" />
    <glyph glyph-name="udieresis" unicode="&#xfc;" horiz-adv-x="595" 
d="M436 535h74v-535h-74v72c-71 -58 -97 -73 -153 -73h-78c-50 0 -73 9 -92 29c-21 20 -29 49 -29 106v401h74v-396c0 -30 4 -47 16 -58c11 -11 22 -16 61 -16h70c44 0 74 11 131 48v422zM349 624v95h83v-95h-83zM164 624v95h83v-95h-83z" />
    <glyph glyph-name="Ugrave" unicode="&#xd9;" horiz-adv-x="723" 
d="M627 700v-415c0 -168 -15 -213 -50 -249c-27 -26 -66 -36 -145 -36h-145c-78 0 -116 10 -142 36c-35 35 -50 79 -50 249v415h79v-429c0 -137 12 -165 30 -183c12 -12 30 -19 98 -19h121c67 0 84 6 97 19c18 19 29 44 29 183v429h78zM408 766h-67l-141 113v5h116l92 -113
v-5z" />
    <glyph glyph-name="ugrave" unicode="&#xf9;" horiz-adv-x="595" 
d="M436 535h74v-535h-74v72c-71 -58 -97 -73 -153 -73h-78c-50 0 -73 9 -92 29c-21 20 -29 49 -29 106v401h74v-396c0 -30 4 -47 16 -58c11 -11 22 -16 61 -16h70c44 0 74 11 131 48v422zM346 606h-67l-141 113v5h116l92 -113v-5z" />
    <glyph glyph-name="Uhungarumlaut" unicode="&#x170;" horiz-adv-x="723" 
d="M627 700v-415c0 -168 -15 -213 -50 -249c-27 -26 -66 -36 -145 -36h-145c-78 0 -116 10 -142 36c-35 35 -50 79 -50 249v415h79v-429c0 -137 12 -165 30 -183c12 -12 30 -19 98 -19h121c67 0 84 6 97 19c18 19 29 44 29 183v429h78zM232 766v5l91 113h110v-5l-137 -113
h-64zM409 766v5l96 113h109v-5l-141 -113h-64z" />
    <glyph glyph-name="uhungarumlaut" unicode="&#x171;" horiz-adv-x="595" 
d="M436 535h74v-535h-74v72c-71 -58 -97 -73 -153 -73h-78c-50 0 -73 9 -92 29c-21 20 -29 49 -29 106v401h74v-396c0 -30 4 -47 16 -58c11 -11 22 -16 61 -16h70c44 0 74 11 131 48v422zM170 606v5l91 113h110v-5l-137 -113h-64zM347 606v5l96 113h109v-5l-141 -113h-64z
" />
    <glyph glyph-name="Umacron" unicode="&#x16a;" horiz-adv-x="723" 
d="M627 700v-415c0 -168 -15 -213 -50 -249c-27 -26 -66 -36 -145 -36h-145c-78 0 -116 10 -142 36c-35 35 -50 79 -50 249v415h79v-429c0 -137 12 -165 30 -183c12 -12 30 -19 98 -19h121c67 0 84 6 97 19c18 19 29 44 29 183v429h78zM214 776v61h292v-61h-292z" />
    <glyph glyph-name="umacron" unicode="&#x16b;" horiz-adv-x="595" 
d="M436 535h74v-535h-74v72c-71 -58 -97 -73 -153 -73h-78c-50 0 -73 9 -92 29c-21 20 -29 49 -29 106v401h74v-396c0 -30 4 -47 16 -58c11 -11 22 -16 61 -16h70c44 0 74 11 131 48v422zM152 616v61h292v-61h-292z" />
    <glyph glyph-name="Uogonek" unicode="&#x172;" horiz-adv-x="723" 
d="M627 700v-415c0 -168 -15 -213 -50 -249c-27 -26 -66 -36 -145 -36h-43c-12 -11 -29 -29 -36 -41c-9 -13 -10 -23 -10 -48c0 -34 1 -42 6 -47c5 -4 10 -6 22 -6h32c12 0 16 2 21 6c5 5 7 14 7 54h55c0 -64 -5 -84 -20 -98c-11 -10 -27 -14 -52 -14h-57
c-25 0 -41 4 -52 14c-16 14 -21 34 -21 75c0 27 2 43 14 62c8 13 24 29 41 43h-52c-78 0 -116 10 -142 36c-35 35 -50 79 -50 249v415h79v-429c0 -137 12 -165 30 -183c12 -12 30 -19 98 -19h121c67 0 84 6 97 19c18 19 29 44 29 183v429h78z" />
    <glyph glyph-name="uogonek" unicode="&#x173;" horiz-adv-x="595" 
d="M436 535h74v-535h-39c-14 -12 -38 -37 -45 -51c-8 -12 -9 -24 -9 -43c0 -29 1 -37 6 -42c5 -4 10 -6 22 -6h32c12 0 16 2 21 6c5 5 7 14 7 54h55c0 -64 -5 -84 -20 -98c-11 -10 -27 -14 -52 -14h-57c-25 0 -41 4 -52 14c-16 14 -21 34 -21 73c0 23 2 40 14 59
c12 20 38 42 64 62v58c-71 -58 -97 -73 -153 -73h-78c-50 0 -73 9 -92 29c-21 20 -29 49 -29 106v401h74v-396c0 -30 4 -47 16 -58c11 -11 22 -16 61 -16h70c44 0 74 11 131 48v422z" />
    <glyph glyph-name="Uring" unicode="&#x16e;" horiz-adv-x="723" 
d="M396 923h-72c-18 0 -26 -2 -33 -9s-11 -18 -11 -47c0 -28 4 -39 11 -47c7 -7 15 -8 33 -8h72c18 0 26 1 33 8c7 8 11 19 11 47c0 29 -4 40 -11 47s-15 9 -33 9zM402 769h-84c-33 0 -53 7 -66 21c-18 18 -24 37 -24 77s6 59 24 78c13 14 33 20 66 20h84c33 0 53 -6 66 -20
c18 -19 24 -38 24 -78s-6 -59 -24 -77c-13 -14 -33 -21 -66 -21zM627 700v-415c0 -168 -15 -213 -50 -249c-27 -26 -66 -36 -145 -36h-145c-78 0 -116 10 -142 36c-35 35 -50 79 -50 249v415h79v-429c0 -137 12 -165 30 -183c12 -12 30 -19 98 -19h121c67 0 84 6 97 19
c18 19 29 44 29 183v429h78z" />
    <glyph glyph-name="uring" unicode="&#x16f;" horiz-adv-x="595" 
d="M436 535h74v-535h-74v72c-71 -58 -97 -73 -153 -73h-78c-50 0 -73 9 -92 29c-21 20 -29 49 -29 106v401h74v-396c0 -30 4 -47 16 -58c11 -11 22 -16 61 -16h70c44 0 74 11 131 48v422zM340 609h-84c-33 0 -53 7 -66 21c-18 18 -24 37 -24 77s6 59 24 78
c13 14 33 20 66 20h84c33 0 53 -6 66 -20c18 -19 24 -38 24 -78s-6 -59 -24 -77c-13 -14 -33 -21 -66 -21zM334 763h-72c-18 0 -26 -2 -33 -9s-11 -18 -11 -47c0 -28 4 -39 11 -47c7 -7 15 -8 33 -8h72c18 0 26 1 33 8c7 8 11 19 11 47c0 29 -4 40 -11 47s-15 9 -33 9z" />
    <glyph glyph-name="Wacute" unicode="&#x1e82;" horiz-adv-x="943" 
d="M424 766v5l92 113h116v-5l-141 -113h-67zM905 700l-155 -679c-4 -20 -11 -24 -39 -24h-49c-27 0 -34 4 -39 25l-143 580h-16l-143 -580c-4 -21 -12 -25 -39 -25h-49c-28 0 -35 4 -39 24l-156 679h83l130 -606h16l143 579c5 25 14 30 42 30h44c27 0 36 -5 41 -30l143 -579
h15l131 606h79z" />
    <glyph glyph-name="wacute" unicode="&#x1e83;" horiz-adv-x="752" 
d="M328 606v5l92 113h116v-5l-141 -113h-67zM31 535h77l96 -456h12l105 431c5 20 12 26 33 26h48c20 0 28 -5 33 -26l107 -431h12l95 456h72l-118 -512c-4 -21 -12 -26 -32 -26h-53c-21 0 -27 7 -32 26l-105 425h-10l-105 -425c-4 -19 -12 -26 -32 -26h-53
c-20 0 -27 5 -32 26z" />
    <glyph glyph-name="Wcircumflex" unicode="&#x174;" horiz-adv-x="943" 
d="M905 700l-155 -679c-4 -20 -11 -24 -39 -24h-49c-27 0 -34 4 -39 25l-143 580h-16l-143 -580c-4 -21 -12 -25 -39 -25h-49c-28 0 -35 4 -39 24l-156 679h83l130 -606h16l143 579c5 25 14 30 42 30h44c27 0 36 -5 41 -30l143 -579h15l131 606h79zM571 768l-100 72l-99 -72
h-58v5l116 119h84l116 -119v-5h-59z" />
    <glyph glyph-name="wcircumflex" unicode="&#x175;" horiz-adv-x="752" 
d="M31 535h77l96 -456h12l105 431c5 20 12 26 33 26h48c20 0 28 -5 33 -26l107 -431h12l95 456h72l-118 -512c-4 -21 -12 -26 -32 -26h-53c-21 0 -27 7 -32 26l-105 425h-10l-105 -425c-4 -19 -12 -26 -32 -26h-53c-20 0 -27 5 -32 26zM475 608l-100 72l-99 -72h-58v5
l116 119h84l116 -119v-5h-59z" />
    <glyph glyph-name="Wdieresis" unicode="&#x1e84;" horiz-adv-x="943" 
d="M338 784v95h83v-95h-83zM523 784v95h83v-95h-83zM905 700l-155 -679c-4 -20 -11 -24 -39 -24h-49c-27 0 -34 4 -39 25l-143 580h-16l-143 -580c-4 -21 -12 -25 -39 -25h-49c-28 0 -35 4 -39 24l-156 679h83l130 -606h16l143 579c5 25 14 30 42 30h44c27 0 36 -5 41 -30
l143 -579h15l131 606h79z" />
    <glyph glyph-name="wdieresis" unicode="&#x1e85;" horiz-adv-x="752" 
d="M242 624v95h83v-95h-83zM427 624v95h83v-95h-83zM31 535h77l96 -456h12l105 431c5 20 12 26 33 26h48c20 0 28 -5 33 -26l107 -431h12l95 456h72l-118 -512c-4 -21 -12 -26 -32 -26h-53c-21 0 -27 7 -32 26l-105 425h-10l-105 -425c-4 -19 -12 -26 -32 -26h-53
c-20 0 -27 5 -32 26z" />
    <glyph glyph-name="Wgrave" unicode="&#x1e80;" horiz-adv-x="943" 
d="M905 700l-155 -679c-4 -20 -11 -24 -39 -24h-49c-27 0 -34 4 -39 25l-143 580h-16l-143 -580c-4 -21 -12 -25 -39 -25h-49c-28 0 -35 4 -39 24l-156 679h83l130 -606h16l143 579c5 25 14 30 42 30h44c27 0 36 -5 41 -30l143 -579h15l131 606h79zM519 766h-67l-141 113v5
h116l92 -113v-5z" />
    <glyph glyph-name="wgrave" unicode="&#x1e81;" horiz-adv-x="752" 
d="M31 535h77l96 -456h12l105 431c5 20 12 26 33 26h48c20 0 28 -5 33 -26l107 -431h12l95 456h72l-118 -512c-4 -21 -12 -26 -32 -26h-53c-21 0 -27 7 -32 26l-105 425h-10l-105 -425c-4 -19 -12 -26 -32 -26h-53c-20 0 -27 5 -32 26zM424 606h-67l-141 113v5h116l92 -113
v-5z" />
    <glyph glyph-name="Yacute" unicode="&#xdd;" horiz-adv-x="589" 
d="M577 700l-242 -422v-278h-79v277l-244 423h86l195 -342h6l193 342h85zM248 766v5l92 113h116v-5l-141 -113h-67z" />
    <glyph glyph-name="yacute" unicode="&#xfd;" horiz-adv-x="532" 
d="M25 535h84l161 -434h7l147 434h79l-225 -627c-16 -44 -39 -60 -87 -60c-32 0 -73 4 -103 7v60h97c18 0 24 8 30 23l22 60zM224 606v5l92 113h116v-5l-141 -113h-67z" />
    <glyph glyph-name="Ycircumflex" unicode="&#x176;" horiz-adv-x="589" 
d="M577 700l-242 -422v-278h-79v277l-244 423h86l195 -342h6l193 342h85zM395 768l-100 72l-99 -72h-58v5l116 119h84l116 -119v-5h-59z" />
    <glyph glyph-name="ycircumflex" unicode="&#x177;" horiz-adv-x="532" 
d="M25 535h84l161 -434h7l147 434h79l-225 -627c-16 -44 -39 -60 -87 -60c-32 0 -73 4 -103 7v60h97c18 0 24 8 30 23l22 60zM371 608l-100 72l-99 -72h-58v5l116 119h84l116 -119v-5h-59z" />
    <glyph glyph-name="Ydieresis" unicode="&#x178;" horiz-adv-x="589" 
d="M577 700l-242 -422v-278h-79v277l-244 423h86l195 -342h6l193 342h85zM162 784v95h83v-95h-83zM347 784v95h83v-95h-83z" />
    <glyph glyph-name="ydieresis" unicode="&#xff;" horiz-adv-x="532" 
d="M25 535h84l161 -434h7l147 434h79l-225 -627c-16 -44 -39 -60 -87 -60c-32 0 -73 4 -103 7v60h97c18 0 24 8 30 23l22 60zM323 624v95h83v-95h-83zM138 624v95h83v-95h-83z" />
    <glyph glyph-name="Ygrave" unicode="&#x1ef2;" horiz-adv-x="589" 
d="M577 700l-242 -422v-278h-79v277l-244 423h86l195 -342h6l193 342h85zM343 766h-67l-141 113v5h116l92 -113v-5z" />
    <glyph glyph-name="ygrave" unicode="&#x1ef3;" horiz-adv-x="532" 
d="M25 535h84l161 -434h7l147 434h79l-225 -627c-16 -44 -39 -60 -87 -60c-32 0 -73 4 -103 7v60h97c18 0 24 8 30 23l22 60zM320 606h-67l-141 113v5h116l92 -113v-5z" />
    <glyph glyph-name="Zacute" unicode="&#x179;" horiz-adv-x="618" 
d="M269 766v5l92 113h116v-5l-141 -113h-67zM568 68v-68h-518v51l422 581h-402v68h503v-51l-423 -581h418z" />
    <glyph glyph-name="zacute" unicode="&#x17a;" horiz-adv-x="504" 
d="M210 606v5l92 113h116v-5l-141 -113h-67zM458 66v-66h-414v44l318 425h-304v66h403v-41l-321 -428h318z" />
    <glyph glyph-name="Zcaron" unicode="&#x17d;" horiz-adv-x="618" 
d="M568 68v-68h-518v51l422 581h-402v68h503v-51l-423 -581h418zM274 768l-116 119v5h59l100 -72l99 72h58v-5l-116 -119h-84z" />
    <glyph glyph-name="zcaron" unicode="&#x17e;" horiz-adv-x="504" 
d="M458 66v-66h-414v44l318 425h-304v66h403v-41l-321 -428h318zM215 608l-116 119v5h59l100 -72l99 72h58v-5l-116 -119h-84z" />
    <glyph glyph-name="Zdotaccent" unicode="&#x17b;" horiz-adv-x="618" 
d="M568 68v-68h-518v51l422 581h-402v68h503v-51l-423 -581h418zM273 789v96h88v-96h-88z" />
    <glyph glyph-name="zdotaccent" unicode="&#x17c;" horiz-adv-x="504" 
d="M458 66v-66h-414v44l318 425h-304v66h403v-41l-321 -428h318zM214 629v96h88v-96h-88z" />
    <glyph glyph-name="schwa" unicode="&#x259;" horiz-adv-x="575" 
d="M67 279c0 8 3 12 12 12h357c-1 121 -9 149 -24 164c-12 12 -26 15 -64 15h-133c-33 0 -47 -4 -58 -15c-12 -12 -17 -29 -18 -84h-72c2 82 11 110 37 136c20 20 46 28 97 28h154c55 0 86 -7 109 -30c34 -34 46 -77 46 -238c0 -160 -12 -203 -46 -237
c-23 -23 -54 -30 -109 -30h-134c-54 0 -87 8 -108 29c-34 35 -46 78 -46 233v17zM413 81c14 14 22 38 23 151h-296c1 -110 9 -137 25 -152c11 -11 25 -16 64 -16h119c38 0 52 4 65 17z" />
    <glyph glyph-name="germandbls" unicode="&#xdf;" horiz-adv-x="625" 
d="M130 0v471h-91v64h91v18c0 70 13 104 37 128c22 22 49 31 101 31h122c50 0 82 -7 104 -28c27 -27 39 -64 39 -147c0 -96 -27 -129 -84 -146c83 -11 111 -53 111 -179c0 -114 -14 -153 -42 -180c-24 -24 -59 -32 -114 -32h-117v63h101c38 0 61 5 73 17s23 35 23 134
c0 85 -9 111 -22 124s-29 18 -73 18h-82v66h64c37 0 54 6 65 17c12 12 22 34 22 98c0 61 -10 84 -22 96s-29 16 -63 16h-89c-27 0 -47 -4 -59 -16s-21 -33 -21 -80v-553h-74z" />
    <glyph glyph-name="zero" unicode="0" horiz-adv-x="685" 
d="M414 632h-143c-47 0 -62 -7 -75 -19c-20 -19 -37 -58 -37 -263s17 -244 37 -263c13 -12 28 -19 75 -19h143c47 0 62 7 75 19c19 19 37 58 37 263s-18 244 -37 263c-13 12 -28 19 -75 19zM269 700h147c71 0 102 -8 130 -34c37 -35 63 -97 63 -316s-26 -281 -63 -316
c-28 -26 -59 -34 -130 -34h-147c-72 0 -102 8 -130 34c-38 35 -63 97 -63 316s25 281 63 316c28 26 58 34 130 34z" />
    <glyph glyph-name="one" unicode="1" horiz-adv-x="385" 
d="M262 0h-79v621l-128 -50l-23 63l164 67h66v-701z" />
    <glyph glyph-name="two" unicode="2" horiz-adv-x="643" 
d="M79 0v87c0 101 12 137 44 170c21 21 44 35 96 56l197 78c39 16 51 27 60 40c11 16 18 35 18 93c0 41 -8 74 -23 88c-13 14 -31 19 -70 19h-142c-37 0 -53 -6 -65 -19s-20 -38 -21 -118h-80c1 109 14 145 42 174c23 22 57 32 114 32h172c56 0 88 -10 110 -32
c33 -33 44 -85 44 -144c0 -79 -11 -110 -35 -140c-19 -24 -48 -40 -102 -62l-197 -78c-29 -12 -49 -23 -61 -37c-15 -17 -24 -37 -24 -101v-37h425v-69h-502z" />
    <glyph glyph-name="three" unicode="3" horiz-adv-x="654" 
d="M399 330h-153v67h146c39 0 57 6 70 20c12 11 26 39 26 98s-13 88 -26 100c-12 13 -31 17 -68 17h-143c-42 0 -57 -6 -68 -17c-16 -15 -24 -53 -27 -120h-80c1 83 13 138 48 173c22 21 55 32 115 32h174c57 0 91 -9 114 -32c32 -32 45 -80 45 -147
c0 -97 -40 -142 -91 -157v-1c61 -13 97 -58 97 -166c0 -88 -14 -134 -45 -165c-23 -23 -57 -32 -114 -32h-185c-60 0 -93 10 -115 32c-35 34 -47 89 -49 186h81c3 -83 11 -118 26 -133c12 -11 27 -17 69 -17h153c37 0 56 4 69 18c12 11 26 40 26 113c0 66 -12 98 -25 112
c-15 13 -33 19 -70 19z" />
    <glyph glyph-name="four" unicode="4" horiz-adv-x="653" 
d="M488 0h-77v186h-362v28c0 23 5 39 18 60l260 383c21 33 36 43 65 43h96v-449h119v-65h-119v-186zM411 635h-17l-259 -384h276v384z" />
    <glyph glyph-name="five" unicode="5" horiz-adv-x="660" 
d="M160 315l-68 24l24 361h449v-71h-376l-18 -244h8c46 39 77 47 147 47h97c59 0 92 -11 117 -35c32 -33 46 -78 46 -180s-14 -148 -46 -180c-25 -25 -57 -37 -117 -37h-187c-54 0 -93 9 -115 32c-30 29 -43 61 -43 170h80c1 -83 11 -105 23 -117c13 -12 31 -17 65 -17h166
c35 0 53 7 66 19c16 15 25 49 25 130s-9 113 -25 129c-13 11 -30 18 -66 18h-105c-56 0 -92 -12 -147 -49z" />
    <glyph glyph-name="six" unicode="6" horiz-adv-x="667" 
d="M197 612c-21 -20 -37 -61 -37 -261c57 42 80 52 125 52h144c65 0 99 -10 124 -34c30 -30 40 -71 40 -165c0 -88 -14 -134 -46 -166c-26 -27 -63 -38 -122 -38h-155c-71 0 -103 10 -131 36c-37 35 -61 95 -61 314c0 214 24 279 63 315c29 27 61 35 134 35h150
c54 0 86 -9 107 -31c29 -29 41 -63 41 -162h-80c-2 72 -8 94 -22 108c-13 13 -30 17 -63 17h-132c-50 0 -66 -8 -79 -20zM411 335h-147c-35 0 -64 -10 -104 -31c3 -162 19 -198 38 -216c12 -12 27 -20 76 -20h137c38 0 59 5 75 21c15 16 25 45 25 113s-7 95 -23 112
c-15 14 -33 21 -77 21z" />
    <glyph glyph-name="seven" unicode="7" horiz-adv-x="585" 
d="M48 630v70h486v-51l-312 -649h-86l306 630h-394z" />
    <glyph glyph-name="eight" unicode="8" horiz-adv-x="671" 
d="M265 396h142c37 0 57 7 72 22c14 14 25 39 25 98c0 55 -11 82 -25 96c-15 15 -34 20 -69 20h-149c-35 0 -53 -5 -68 -20c-15 -14 -25 -41 -25 -96c0 -59 10 -84 25 -98c15 -15 34 -22 72 -22zM249 700h173c58 0 94 -11 119 -37c32 -31 46 -74 46 -144
c0 -99 -35 -142 -93 -155v-1c62 -13 100 -59 100 -167c0 -83 -15 -127 -46 -158c-27 -26 -65 -38 -125 -38h-174c-61 0 -99 12 -125 38c-32 31 -47 75 -47 158c0 108 38 154 100 167v1c-58 13 -92 56 -92 155c0 70 13 113 45 144c26 26 61 37 119 37zM261 68h149
c38 0 59 5 75 21s26 42 26 109c0 63 -9 93 -27 111c-17 16 -38 23 -77 23h-143c-39 0 -60 -7 -77 -23c-18 -18 -27 -48 -27 -111c0 -67 11 -93 26 -109c16 -16 37 -21 75 -21z" />
    <glyph glyph-name="nine" unicode="9" horiz-adv-x="668" 
d="M471 88c21 20 36 51 37 247c-58 -42 -80 -51 -124 -51h-145c-64 0 -98 10 -123 34c-30 30 -41 74 -41 172c0 92 14 140 46 172c27 27 63 38 122 38h156c71 0 102 -10 130 -36c37 -35 62 -95 62 -314c0 -214 -25 -279 -63 -315c-29 -27 -61 -35 -135 -35h-163
c-54 0 -86 9 -108 31c-29 29 -40 62 -41 157h78c2 -68 8 -89 22 -103c13 -13 29 -17 62 -17h149c50 0 66 8 79 20zM258 352h147c34 0 63 9 103 30c-2 167 -19 211 -37 230c-13 12 -27 20 -76 20h-138c-38 0 -59 -5 -75 -21c-15 -16 -25 -48 -25 -118c0 -73 7 -103 23 -120
c15 -14 33 -21 78 -21z" />
    <glyph glyph-name="period" unicode="." horiz-adv-x="230" 
d="M67 104h97v-104h-97v104z" />
    <glyph glyph-name="comma" unicode="," horiz-adv-x="228" 
d="M64 104h99v-100c0 -28 -6 -43 -22 -62l-84 -98l-28 22l68 98c7 11 8 17 8 28v8h-41v104z" />
    <glyph glyph-name="colon" unicode=":" horiz-adv-x="232" 
d="M68 104h97v-104h-97v104zM68 535h97v-104h-97v104z" />
    <glyph glyph-name="semicolon" unicode=";" horiz-adv-x="231" 
d="M66 535h99v-104h-99v104zM65 104h99v-100c0 -28 -5 -43 -22 -62l-84 -98l-28 22l68 98c7 11 8 17 8 28v8h-41v104z" />
    <glyph glyph-name="ellipsis" unicode="&#x2026;" horiz-adv-x="709" 
d="M73 102h93v-102h-93v102zM308 102h94v-102h-94v102zM543 102h94v-102h-94v102z" />
    <glyph glyph-name="periodcentered" unicode="&#xb7;" horiz-adv-x="241" 
d="M73 369h95v-103h-95v103z" />
    <glyph glyph-name="bullet" unicode="&#x2022;" horiz-adv-x="487" 
d="M146 251c-16 16 -23 37 -23 112s7 96 23 112c13 14 28 17 58 17h80c29 0 44 -3 57 -17c16 -16 23 -37 23 -112s-7 -96 -23 -112c-13 -14 -28 -17 -57 -17h-80c-30 0 -45 3 -58 17z" />
    <glyph glyph-name="ampersand" unicode="&#x26;" horiz-adv-x="694" 
d="M668 0h-99l-118 126h-9l-48 -66c-32 -43 -69 -61 -126 -61h-50c-59 0 -91 8 -116 33c-31 31 -40 74 -40 171c0 101 4 129 34 158c16 17 48 30 99 36l7 1c-14 27 -22 59 -22 111c0 98 8 134 34 161c22 22 53 30 113 30h65c48 0 79 -8 98 -27c28 -27 35 -65 35 -167h-74
c-1 83 -6 104 -17 115c-10 11 -26 14 -55 14h-46c-35 0 -50 -4 -60 -15c-13 -13 -16 -36 -16 -112c0 -36 5 -62 12 -77c6 -16 19 -32 41 -56l128 -134h8l119 159h85l-159 -211zM257 64c39 0 62 8 84 38l57 76l-158 165l-33 -7c-23 -4 -42 -12 -53 -23
c-11 -12 -17 -31 -17 -110c0 -78 6 -104 23 -121c13 -13 30 -18 74 -18h23z" />
    <glyph glyph-name="exclam" unicode="!" horiz-adv-x="334" 
d="M189 200h-36l-34 463v37h97v-37zM121 102h92v-102h-92v102z" />
    <glyph glyph-name="exclamdown" unicode="&#xa1;" horiz-adv-x="333" 
d="M146 500h33l35 -463v-37h-95v37zM211 599h-90v101h90v-101z" />
    <glyph glyph-name="question" unicode="?" horiz-adv-x="542" 
d="M195 101h90v-101h-90v101zM49 490c0 117 8 153 35 181c21 21 53 29 103 29h159c55 0 84 -11 104 -31c27 -27 37 -66 37 -140c0 -81 -7 -108 -38 -139c-16 -17 -45 -30 -104 -56c-24 -11 -42 -21 -54 -33c-14 -14 -19 -33 -21 -96h-60v29c0 68 5 96 27 118
c16 16 38 28 81 47c33 14 58 25 71 38c15 15 20 31 20 89c0 51 -7 78 -19 91c-10 9 -23 14 -55 14h-137c-31 0 -43 -3 -54 -14c-12 -11 -17 -35 -18 -127h-77z" />
    <glyph glyph-name="questiondown" unicode="&#xbf;" horiz-adv-x="542" 
d="M347 599h-90v101h90v-101zM493 210c0 -117 -8 -153 -35 -181c-21 -21 -53 -29 -103 -29h-159c-55 0 -84 11 -104 31c-27 27 -37 66 -37 140c0 81 7 108 38 139c16 17 45 30 104 56c24 11 42 21 54 33c14 14 19 33 21 96h60v-29c0 -68 -5 -96 -27 -118
c-16 -16 -38 -28 -81 -47c-33 -14 -58 -25 -71 -38c-15 -15 -20 -31 -20 -89c0 -51 7 -78 19 -91c10 -9 23 -14 55 -14h137c31 0 43 3 54 14c12 11 17 35 18 127h77z" />
    <glyph glyph-name="quotedblleft" unicode="&#x201c;" horiz-adv-x="407" 
d="M156 452h-97v100c0 28 5 43 22 62l83 99l28 -22l-68 -99c-7 -11 -7 -17 -7 -28v-8h39v-104zM340 452h-98v100c0 28 6 43 22 62l84 99l28 -22l-68 -99c-7 -11 -8 -17 -8 -28v-8h40v-104z" />
    <glyph glyph-name="quotedblright" unicode="&#x201d;" horiz-adv-x="407" 
d="M251 700h98v-100c0 -28 -6 -42 -22 -61l-84 -99l-28 22l68 99c7 10 8 16 8 27v8h-40v104zM67 700h98v-100c0 -28 -6 -42 -22 -61l-83 -99l-28 22l68 99c7 10 7 16 7 27v8h-40v104z" />
    <glyph glyph-name="quoteleft" unicode="&#x2018;" horiz-adv-x="224" 
d="M156 452h-97v100c0 28 5 43 22 62l83 99l28 -22l-68 -99c-7 -11 -7 -17 -7 -28v-8h39v-104z" />
    <glyph glyph-name="quoteright" unicode="&#x2019;" horiz-adv-x="224" 
d="M67 700h98v-100c0 -28 -6 -42 -22 -61l-83 -99l-28 22l68 99c7 10 7 16 7 27v8h-40v104z" />
    <glyph glyph-name="quotedblbase" unicode="&#x201e;" horiz-adv-x="408" 
d="M64 104h97v-100c0 -28 -5 -43 -22 -62l-83 -98l-28 22l68 98c7 11 7 17 7 28v8h-39v104zM247 104h98v-100c0 -28 -6 -43 -22 -62l-83 -98l-28 22l67 98c7 11 8 17 8 28v8h-40v104z" />
    <glyph glyph-name="quotesinglbase" unicode="&#x201a;" horiz-adv-x="226" 
d="M64 104h97v-100c0 -28 -5 -43 -22 -62l-83 -98l-28 22l68 98c7 11 7 17 7 28v8h-39v104z" />
    <glyph glyph-name="guillemotleft" unicode="&#xab;" horiz-adv-x="574" 
d="M60 243v49l154 160h85l-171 -184l172 -184h-86zM272 243v49l154 160h85l-171 -184l172 -184h-86z" />
    <glyph glyph-name="guillemotright" unicode="&#xbb;" horiz-adv-x="574" 
d="M514 243l-154 -159h-87l172 184l-171 184h86l154 -160v-49zM302 243l-154 -159h-87l172 184l-171 184h86l154 -160v-49z" />
    <glyph glyph-name="guilsinglleft" unicode="&#x2039;" horiz-adv-x="362" 
d="M60 243v49l154 160h85l-171 -184l172 -184h-86z" />
    <glyph glyph-name="guilsinglright" unicode="&#x203a;" horiz-adv-x="362" 
d="M302 243l-154 -159h-87l172 184l-171 184h86l154 -160v-49z" />
    <glyph glyph-name="hyphen" unicode="-" horiz-adv-x="408" 
d="M345 281h-282v75h282v-75z" />
    <glyph glyph-name="endash" unicode="&#x2013;" horiz-adv-x="554" 
d="M485 282h-416v73h416v-73z" />
    <glyph glyph-name="emdash" unicode="&#x2014;" horiz-adv-x="994" 
d="M925 283h-856v71h856v-71z" />
    <glyph glyph-name="slash" unicode="/" horiz-adv-x="478" 
d="M42 -160h-75l408 870h75z" />
    <glyph glyph-name="backslash" unicode="\" horiz-adv-x="476" 
d="M436 -160l-408 870h73l408 -870h-73z" />
    <glyph glyph-name="bar" unicode="|" horiz-adv-x="319" 
d="M193 -160h-67v940h67v-940z" />
    <glyph glyph-name="parenleft" unicode="(" horiz-adv-x="389" 
d="M99 275c0 97 4 181 9 209c8 49 44 107 135 226h56c-74 -124 -102 -179 -109 -216c-7 -34 -10 -101 -10 -219s3 -185 10 -219c7 -37 35 -92 109 -216h-56c-91 119 -127 177 -135 226c-5 28 -9 112 -9 209z" />
    <glyph glyph-name="parenright" unicode=")" horiz-adv-x="389" 
d="M290 275c0 -97 -4 -181 -9 -209c-7 -49 -44 -107 -135 -226h-56c74 124 102 179 109 216c7 34 10 101 10 219s-3 185 -10 219c-7 37 -35 92 -109 216h56c91 -119 128 -177 135 -226c5 -28 9 -112 9 -209z" />
    <glyph glyph-name="bracketleft" unicode="[" horiz-adv-x="424" 
d="M102 700h258v-63h-187v-724h187v-63h-258v850z" />
    <glyph glyph-name="bracketright" unicode="]" horiz-adv-x="424" 
d="M323 700v-850h-259v63h187v724h-187v63h259z" />
    <glyph glyph-name="braceleft" unicode="{" horiz-adv-x="444" 
d="M67 252v46c76 8 101 19 111 28c9 9 12 20 12 37c0 33 -18 105 -18 158c0 47 21 82 133 189h57c-97 -114 -115 -150 -115 -180c0 -51 18 -115 18 -158c0 -56 -19 -79 -103 -96v-2c84 -17 103 -43 103 -99c0 -39 -18 -110 -18 -155c0 -30 18 -66 115 -180h-57
c-112 107 -133 142 -133 189c0 50 18 123 18 161c0 15 -3 25 -11 33c-10 10 -36 21 -112 29z" />
    <glyph glyph-name="braceright" unicode="}" horiz-adv-x="444" 
d="M376 252c-75 -8 -102 -19 -111 -29c-9 -8 -11 -18 -11 -33c0 -38 18 -111 18 -161c0 -47 -21 -82 -133 -189h-57c97 114 115 150 115 180c0 45 -18 116 -18 155c0 56 19 82 102 99v2c-83 17 -102 40 -102 96c0 43 18 107 18 158c0 30 -18 66 -115 180h57
c112 -107 133 -142 133 -189c0 -53 -18 -125 -18 -158c0 -17 3 -28 12 -37s35 -20 110 -28v-46z" />
    <glyph glyph-name="at" unicode="@" horiz-adv-x="943" 
d="M715 92c35 0 51 5 66 20c23 24 35 72 35 210c0 187 -24 272 -59 307c-29 30 -61 43 -150 43h-261c-95 0 -125 -16 -157 -48c-34 -35 -62 -110 -62 -349s28 -314 63 -350c31 -31 63 -47 156 -47h410v-28h-411c-108 0 -144 22 -178 55c-38 38 -70 118 -70 370
c0 251 32 332 70 370c34 33 70 55 178 55h265c102 0 138 -19 172 -52c40 -40 64 -139 64 -326c0 -148 -16 -203 -44 -230c-20 -20 -46 -30 -81 -30h-25c-47 0 -81 18 -111 60c-56 -48 -78 -60 -121 -60h-39c-51 0 -77 8 -96 28c-26 25 -40 65 -40 189s14 164 40 189
c19 20 45 28 96 28h39c43 0 64 -12 119 -60l15 60h47l-6 -110v-220c0 -35 6 -47 17 -58c9 -9 26 -16 59 -16zM476 116c37 0 62 11 102 38v249c-40 27 -65 39 -100 39h-48c-33 0 -47 -5 -58 -16c-13 -14 -20 -40 -20 -147s7 -133 20 -147c11 -11 25 -16 58 -16h46z" />
    <glyph glyph-name="copyright" unicode="&#xa9;" horiz-adv-x="789" 
d="M155 52c-35 36 -66 107 -66 298c0 192 31 262 66 298c31 32 67 52 168 52h142c102 0 138 -20 169 -52c35 -36 65 -106 65 -298s-30 -262 -65 -298c-31 -32 -67 -52 -169 -52h-142c-101 0 -137 20 -168 52zM117 350c0 -178 26 -247 59 -280c28 -30 60 -45 152 -45h133
c92 0 123 14 151 44c33 34 60 102 60 281s-27 247 -60 280c-28 30 -59 45 -151 45h-133c-92 0 -124 -14 -152 -44c-33 -34 -59 -102 -59 -281zM540 289c-3 -68 -9 -92 -29 -110c-12 -12 -27 -16 -60 -16h-109c-33 0 -49 4 -61 15c-20 19 -32 47 -32 177c0 131 11 158 32 177
c13 12 28 16 61 16h109c33 0 48 -4 60 -16c20 -19 27 -45 28 -104h-46c-1 48 -6 61 -15 70c-5 5 -12 8 -35 8h-93c-23 0 -30 -2 -36 -9c-9 -8 -17 -23 -17 -142c0 -118 8 -133 17 -142c6 -6 13 -9 36 -9h93c23 0 30 4 35 9c9 9 14 21 15 76h47z" />
    <glyph glyph-name="published" unicode="&#x2117;" horiz-adv-x="789" 
d="M155 52c-35 36 -66 107 -66 298c0 192 31 262 66 298c31 32 67 52 168 52h142c102 0 138 -20 169 -52c35 -36 65 -106 65 -298s-30 -262 -65 -298c-31 -32 -67 -52 -169 -52h-142c-101 0 -137 20 -168 52zM117 350c0 -178 26 -247 59 -280c28 -30 60 -45 152 -45h133
c92 0 123 14 151 44c33 34 60 102 60 281s-27 247 -60 280c-28 30 -59 45 -151 45h-133c-92 0 -124 -14 -152 -44c-33 -34 -59 -102 -59 -281zM322 353h129c21 0 30 3 37 9c7 7 16 17 16 68s-9 62 -16 69s-16 8 -37 8h-129v-154zM550 432c0 -64 -15 -87 -30 -102
c-12 -13 -30 -17 -59 -17h-139v-150h-46v385h185c29 0 49 -4 61 -16c16 -16 28 -38 28 -100z" />
    <glyph glyph-name="registered.alt" horiz-adv-x="789" 
d="M155 52c-35 36 -66 107 -66 298c0 192 31 262 66 298c31 32 67 52 168 52h142c102 0 138 -20 169 -52c35 -36 65 -106 65 -298s-30 -262 -65 -298c-31 -32 -67 -52 -169 -52h-142c-101 0 -137 20 -168 52zM117 350c0 -178 26 -247 59 -280c28 -30 60 -45 152 -45h133
c92 0 123 14 151 44c33 34 60 102 60 281s-27 247 -60 280c-28 30 -59 45 -151 45h-133c-92 0 -124 -14 -152 -44c-33 -34 -59 -102 -59 -281zM311 366h135c18 0 27 2 34 9s14 17 14 62c0 44 -7 55 -14 62s-15 8 -34 8h-135v-141zM491 263c-1 37 -5 45 -13 53
c-8 7 -21 11 -44 11h-123v-164h-47v385h195c26 0 46 -5 58 -18c15 -15 24 -35 24 -89c0 -61 -16 -86 -56 -95v-1c38 -9 53 -22 54 -78c1 -47 3 -81 6 -104h-47c-4 26 -6 60 -7 100z" />
    <glyph glyph-name="registered" unicode="&#xae;" horiz-adv-x="454" 
d="M186 333h82c45 0 63 8 78 23c18 18 31 55 31 151s-13 133 -31 151c-15 15 -33 23 -78 23h-82c-45 0 -63 -8 -78 -23c-18 -18 -31 -55 -31 -151s13 -133 31 -151c15 -15 33 -23 78 -23zM269 314h-84c-56 0 -74 11 -92 29c-19 20 -37 58 -37 164s18 144 37 164
c18 18 36 29 92 29h84c56 0 74 -11 92 -29c19 -20 37 -58 37 -164s-18 -144 -37 -164c-18 -18 -36 -29 -92 -29zM279 556c0 23 -5 29 -8 33c-3 3 -8 4 -18 4h-71v-75h70c11 0 15 1 18 4c4 4 9 10 9 34zM277 460c0 19 -1 24 -6 29c-5 4 -12 6 -25 6h-64v-89h-27v211h106
c15 0 25 -2 32 -10c8 -8 13 -19 13 -49c0 -32 -9 -47 -30 -52v-1c21 -4 28 -11 29 -42c1 -26 1 -45 4 -57h-28c-3 12 -4 31 -4 54z" />
    <glyph glyph-name="servicemark" unicode="&#x2120;" horiz-adv-x="869" 
d="M343 421c0 -49 -5 -71 -22 -88c-12 -12 -28 -18 -57 -18h-134c-28 0 -45 4 -56 16c-16 15 -21 32 -22 100h47c0 -50 3 -61 10 -68c6 -6 13 -7 31 -7h115c18 0 26 1 32 8c7 8 9 23 9 57c0 35 -1 42 -8 50c-6 6 -16 9 -34 11l-121 12c-29 3 -46 7 -58 18
c-14 14 -18 34 -18 83c0 47 6 70 22 87c12 12 29 18 57 18h123c29 0 44 -4 56 -16c16 -16 20 -33 21 -97h-47c0 47 -3 57 -10 65c-5 5 -13 7 -31 7h-103c-17 0 -25 -2 -31 -8c-8 -8 -10 -24 -10 -55c0 -33 3 -43 10 -49c7 -7 14 -9 34 -11l121 -11c28 -3 45 -9 56 -19
c14 -14 18 -33 18 -85zM817 700v-385h-47v339h-7l-106 -322c-5 -14 -9 -17 -23 -17h-23c-14 0 -18 3 -22 17l-106 322h-8v-339h-44v385h69c14 0 19 -3 22 -17l100 -315h6l99 315c4 14 7 17 22 17h68z" />
    <glyph glyph-name="trademark" unicode="&#x2122;" horiz-adv-x="849" 
d="M797 700v-385h-46v339h-7l-107 -322c-4 -14 -9 -17 -23 -17h-22c-14 0 -18 3 -22 17l-107 322h-7v-339h-45v385h70c14 0 18 -3 22 -17l99 -315h7l99 315c4 14 7 17 22 17h67zM335 660h-118v-345h-47v345h-118v40h283v-40z" />
    <glyph glyph-name="asterisk" unicode="*" horiz-adv-x="516" 
d="M143 394l79 104l26 -15l-51 -120zM83 561l130 -16v-30l-130 -16v62zM143 666l54 31l51 -120l-26 -15zM373 394l-55 -31l-51 120l27 15zM433 561v-62l-130 16v30zM373 666l-79 -104l-27 15l51 120z" />
    <glyph glyph-name="dagger" unicode="&#x2020;" horiz-adv-x="487" 
d="M77 566l127 -21v-30l-127 -21v72zM410 566v-72l-127 21v30zM282 700l-21 -134h-35l-21 134h77zM280 374l-21 -257h-31l-21 257l19 120h35z" />
    <glyph glyph-name="daggerdbl" unicode="&#x2021;" horiz-adv-x="495" 
d="M81 566l127 -21v-30l-127 -21v72zM414 566v-72l-127 21v30zM286 700l-21 -134h-35l-21 134h77zM81 134v72l127 -21v-30zM414 134l-127 21v30l127 21v-72zM286 0h-77l21 134h35zM283 350l-18 -144h-35l-18 144l18 144h35z" />
    <glyph glyph-name="dollar" unicode="$" horiz-adv-x="659" 
d="M363 -90h-65v90h-79c-52 0 -85 8 -107 30c-26 26 -35 55 -37 181h77c1 -98 7 -116 19 -128c11 -12 26 -16 58 -16h71v253l-79 8c-55 5 -84 14 -104 34c-24 25 -32 58 -32 148c0 86 10 129 40 159c20 20 53 31 105 31h68v80h65v-80h66c52 0 84 -8 105 -29
c28 -28 36 -57 38 -177h-76c-1 90 -6 111 -19 123c-10 11 -23 16 -55 16h-61v-246l88 -8c53 -5 83 -14 102 -33c25 -25 34 -60 34 -153s-11 -133 -40 -162c-20 -20 -49 -31 -103 -31h-79v-90zM429 308l-68 6v-247h72c33 0 45 5 57 16c13 13 19 42 19 109c0 65 -3 82 -18 97
c-11 11 -24 15 -62 19zM179 417c11 -10 24 -14 62 -18l59 -6v240h-63c-33 0 -45 -5 -57 -16c-14 -14 -19 -46 -19 -106c0 -63 4 -80 18 -94z" />
    <glyph glyph-name="sterling" unicode="&#xa3;" horiz-adv-x="668" 
d="M600 68v-68h-541v68h97v226h-96v65h96v127c0 109 13 150 44 181c26 26 59 34 135 34h101c61 0 94 -7 118 -31c29 -30 41 -64 42 -182h-76c-2 91 -11 114 -25 127c-12 13 -30 18 -70 18h-90c-39 0 -63 -4 -77 -18c-15 -15 -24 -41 -24 -122v-134h210v-65h-210v-226h366z
" />
    <glyph glyph-name="Euro" unicode="&#x20ac;" horiz-adv-x="694" 
d="M414 413h-222v-63c0 -21 -1 -40 0 -57h222v-66h-220c5 -108 17 -132 30 -144c10 -10 22 -16 64 -16h163c42 0 54 6 64 16c17 16 26 46 29 146h78c-5 -123 -18 -167 -55 -201c-22 -20 -46 -28 -110 -28h-176c-64 0 -89 8 -110 28c-30 27 -48 65 -55 199h-76v66h74v57v63
h-74v66h77c6 129 25 166 54 193c21 20 46 28 110 28h176c64 0 89 -8 110 -28c37 -34 51 -82 54 -190h-77c-3 86 -12 119 -29 135c-10 10 -22 16 -64 16h-163c-42 0 -54 -6 -64 -16c-13 -12 -25 -36 -30 -138h220v-66z" />
    <glyph glyph-name="yen" unicode="&#xa5;" horiz-adv-x="660" 
d="M547 315v-65h-178v-250h-79v250h-181v65h158l-215 385h86l190 -342h6l188 342h83l-215 -385h157z" />
    <glyph glyph-name="cent" unicode="&#xa2;" horiz-adv-x="559" 
d="M228 93c-56 0 -87 9 -109 31c-34 34 -46 77 -46 229c0 151 12 194 46 228c22 22 53 31 109 31h30v91h62v-91h40c54 0 78 -10 96 -28c26 -25 36 -58 38 -148h-70c-3 65 -8 85 -20 97c-9 9 -21 14 -58 14h-29v-389h30c37 0 50 5 59 15c13 12 18 37 19 102h70
c-2 -99 -12 -128 -38 -154c-17 -17 -43 -28 -96 -28h-41v-96h-62v96h-30zM170 174c12 -12 26 -16 64 -16h27v389h-27c-38 0 -52 -4 -64 -15c-15 -16 -24 -43 -24 -179s9 -164 24 -179z" />
    <glyph glyph-name="numbersign" unicode="#" horiz-adv-x="752" 
d="M108 524h137l43 176h71l-43 -176h199l43 176h71l-43 -176h123v-65h-138l-49 -202h122v-65h-138l-46 -192h-71l47 192h-199l-47 -192h-71l46 192h-122v65h138l49 202h-122v65zM298 462l-49 -208h204l50 208h-205z" />
    <glyph glyph-name="paragraph" unicode="&#xb6;" horiz-adv-x="551" 
d="M52 491c0 115 23 154 51 181c22 22 56 28 108 28h245v-700h-79v278h-166c-52 0 -80 5 -103 28c-29 27 -56 66 -56 185z" />
    <glyph glyph-name="section" unicode="&#xa7;" horiz-adv-x="655" 
d="M61 359c0 55 11 86 30 105c15 15 36 23 71 24c-10 19 -14 45 -14 78c0 44 7 79 33 105c19 19 48 30 105 30h99c48 0 73 -8 91 -26c24 -24 32 -49 34 -136h-72c-1 59 -6 73 -18 85c-10 10 -23 13 -51 13h-77c-34 0 -45 -4 -55 -14c-12 -12 -15 -33 -15 -62
c0 -30 6 -46 15 -56c10 -9 23 -14 54 -17l188 -17c52 -4 73 -12 89 -28c17 -18 27 -44 27 -103c0 -55 -12 -85 -30 -104c-15 -15 -37 -24 -72 -25c10 -19 15 -44 15 -78c0 -43 -7 -78 -33 -104c-20 -20 -49 -30 -105 -30h-100c-47 0 -72 8 -91 25c-23 24 -31 49 -33 137h72
c1 -60 6 -74 17 -85c10 -10 24 -14 51 -14h78c33 0 45 5 55 15c12 12 15 33 15 62c0 30 -6 46 -15 56c-10 9 -23 14 -55 17l-187 17c-52 4 -73 12 -89 28c-18 18 -27 44 -27 102zM130 362c0 -30 2 -46 13 -58c9 -9 23 -14 58 -16l254 -21c31 -3 45 0 54 9c10 10 17 29 17 61
c0 30 -3 47 -14 59c-8 9 -22 14 -57 16l-255 21c-30 3 -44 0 -53 -9c-10 -10 -17 -29 -17 -62z" />
    <glyph glyph-name="ordfeminine" unicode="&#xaa;" horiz-adv-x="480" 
d="M392 315h-56v48c-47 -39 -67 -49 -105 -49h-50c-39 0 -58 6 -75 23c-14 14 -24 36 -24 85c0 47 8 75 24 90c17 17 42 27 108 27c33 0 83 -3 122 -10v60c0 35 -2 45 -9 53c-6 6 -15 8 -38 8h-83c-21 0 -30 -1 -38 -9s-11 -20 -12 -56h-57c1 54 8 77 25 94s35 21 72 21h102
c43 0 59 -6 73 -19c17 -18 21 -39 21 -90v-276zM240 364c35 0 55 8 96 34v95h-122c-42 0 -55 -3 -63 -11c-8 -9 -11 -24 -11 -53c0 -35 3 -46 11 -54c8 -7 19 -11 42 -11h47zM83 177v50h313v-50h-313z" />
    <glyph glyph-name="ordmasculine" unicode="&#xba;" horiz-adv-x="506" 
d="M302 315h-95c-43 0 -65 6 -83 24c-25 25 -36 62 -36 169c0 105 11 142 36 168c18 17 40 24 83 24h95c43 0 65 -7 83 -24c25 -26 36 -63 36 -168c0 -107 -11 -144 -36 -169c-18 -18 -40 -24 -83 -24zM217 369h75c29 0 38 2 47 11c10 11 19 31 19 128c0 95 -9 115 -19 126
c-9 9 -18 12 -47 12h-75c-29 0 -38 -3 -47 -12c-10 -11 -19 -31 -19 -126c0 -96 9 -117 19 -128c9 -9 18 -11 47 -11zM87 177v50h335v-50h-335z" />
    <glyph glyph-name="degree" unicode="&#xb0;" horiz-adv-x="417" 
d="M180 427h57c25 0 33 4 41 12c8 9 16 27 16 98s-8 89 -16 98c-8 8 -16 12 -41 12h-57c-25 0 -33 -4 -41 -12c-8 -9 -16 -27 -16 -98s8 -89 16 -98c8 -8 16 -12 41 -12zM352 537c0 -88 -10 -116 -32 -138c-15 -16 -38 -25 -77 -25h-69c-39 0 -62 9 -77 25
c-21 22 -32 50 -32 138s11 116 32 138c15 16 38 25 77 25h69c39 0 62 -9 77 -25c22 -22 32 -50 32 -138z" />
    <glyph glyph-name="percent" unicode="%" horiz-adv-x="838" 
d="M279 523c0 79 -7 102 -17 111c-8 8 -17 12 -40 12h-34c-23 0 -32 -4 -41 -12c-9 -9 -16 -32 -16 -111s7 -102 16 -111c9 -8 18 -12 41 -12h34c23 0 32 4 40 12c10 9 17 32 17 111zM340 523c0 -100 -12 -132 -34 -153c-16 -15 -35 -24 -76 -24h-50c-41 0 -61 9 -76 24
c-23 21 -35 53 -35 153s12 132 35 153c15 15 35 24 76 24h50c41 0 60 -9 76 -24c22 -21 34 -53 34 -153zM210 -3h-63l253 369l228 337h64l-252 -367zM708 177c0 79 -7 102 -16 111c-9 8 -18 12 -41 12h-34c-23 0 -32 -4 -40 -12c-10 -9 -17 -32 -17 -111s7 -102 17 -111
c8 -8 17 -12 40 -12h34c23 0 32 4 41 12c9 9 16 32 16 111zM770 177c0 -100 -12 -132 -35 -153c-15 -15 -35 -24 -76 -24h-50c-41 0 -61 9 -76 24c-22 21 -35 53 -35 153s13 132 35 153c15 15 35 24 76 24h50c41 0 61 -9 76 -24c23 -21 35 -53 35 -153z" />
    <glyph glyph-name="quotedbl" unicode="&#x22;" horiz-adv-x="395" 
d="M93 443l-30 238v19h101v-19l-30 -238h-41zM267 443l-30 238v19h101v-19l-30 -238h-41z" />
    <glyph glyph-name="quotesingle" unicode="'" horiz-adv-x="222" 
d="M93 443l-30 238v19h101v-19l-30 -238h-41z" />
    <glyph glyph-name="plus" unicode="+" horiz-adv-x="514" 
d="M290 558v-162h162v-66h-162v-162h-66v162h-162v66h162v162h66z" />
    <glyph glyph-name="minus" unicode="&#x2212;" horiz-adv-x="514" 
d="M62 330v66h390v-66h-390z" />
    <glyph glyph-name="divide" unicode="&#xf7;" horiz-adv-x="514" 
d="M62 330v66h390v-66h-390zM212 159v91h89v-91h-89zM212 476v91h89v-91h-89z" />
    <glyph glyph-name="equal" unicode="=" horiz-adv-x="514" 
d="M68 419v71h378v-71h-378zM68 236v71h378v-71h-378z" />
    <glyph glyph-name="multiply" unicode="&#xd7;" horiz-adv-x="514" 
d="M131 536l126 -127l126 127l46 -47l-126 -126l126 -126l-46 -47l-126 127l-126 -127l-47 47l126 126l-126 126z" />
    <glyph glyph-name="less" unicode="&#x3c;" horiz-adv-x="506" 
d="M430 505l-290 -143l290 -143v-75l-363 184v66l363 185v-74z" />
    <glyph glyph-name="greater" unicode="&#x3e;" horiz-adv-x="506" 
d="M76 144v73l290 143l-290 144v75l363 -185v-66z" />
    <glyph glyph-name="plusminus" unicode="&#xb1;" horiz-adv-x="514" 
d="M290 619v-163h162v-66h-162v-162h-66v162h-162v66h162v163h66zM62 107v66h390v-66h-390z" />
    <glyph glyph-name="underscore" unicode="_" 
d="M-2 -125v60h504v-60h-504z" />
    <glyph glyph-name="hfjslug" horiz-adv-x="694" 
d="M644 -200h-208l-8 14h-163l-8 -14h-207v303c18 0 32 14 32 32c0 17 -14 32 -32 32v554h100l30 79h334l29 -79h101v-921zM400 563v-172h15v78h38v14h-38v66h43v14h-58zM184 563v-172h15v79h47v-79h15v172h-15v-79h-47v79h-15zM460 394c5 -2 14 -4 21 -4c20 0 31 11 31 36
v137h-16v-137c0 -16 -5 -22 -16 -22c-6 0 -15 3 -20 5v-15zM371 465l-13 3c-2 -9 -5 -21 -8 -30h-1l-16 31c13 12 23 26 23 42s-9 31 -27 31c-17 0 -28 -15 -28 -31c0 -15 6 -24 14 -39c-15 -12 -23 -28 -23 -47c0 -22 12 -37 29 -37c13 0 23 9 29 24h1l12 -24l12 6l-17 32
c5 12 9 25 13 39zM523 323v-46h8v12l8 8l15 -20h10l-20 26l18 20h-10l-20 -24h-1v24h-8zM488 292l10 -15h9l-12 17c5 2 10 6 10 14c0 9 -7 15 -17 15h-20v-46h8v15h12zM426 276c14 0 24 11 24 24c0 12 -10 24 -24 24s-24 -12 -24 -24c0 -13 10 -24 24 -24zM370 301l-13 22
h-9l18 -29v-17h8v17l18 29h-9zM193 323v-46h34v7h-26v13h23v7h-23v12h26v7h-34zM132 323v-46h8v32l25 -32h7v46h-8v-32l-25 32h-7zM241 323l14 -47h8l11 34h1l11 -34h8l14 47h-8l-10 -35h-1l-11 35h-7l-11 -35h-1l-10 35h-8zM327 479c-7 13 -12 22 -12 32s6 19 14 19
s13 -9 13 -19c0 -12 -5 -21 -15 -32zM342 423c-5 -13 -12 -21 -20 -21c-9 0 -16 10 -16 25c0 13 7 26 16 35zM487 299h-11v17h11c6 0 10 -3 10 -8s-4 -9 -10 -9zM426 283c-10 0 -16 8 -16 17c0 8 6 17 16 17s16 -9 16 -17c0 -9 -6 -17 -16 -17z" />
    <glyph glyph-name="acute" unicode="&#xb4;" 
d="M140 606v5l92 113h116v-5l-141 -113h-67z" />
    <glyph glyph-name="hungarumlaut" unicode="&#x2dd;" 
d="M57 606v5l91 113h110v-5l-137 -113h-64zM234 606v5l96 113h109v-5l-141 -113h-64z" />
    <glyph glyph-name="caron.alt" 
d="M233 553l-28 11l23 90c2 9 3 16 3 23c0 8 -1 14 -3 24l-19 80v19h84v-74c0 -47 -4 -64 -23 -99z" />
    <glyph glyph-name="grave" unicode="`" 
d="M335 606h-67l-141 113v5h116l92 -113v-5z" />
    <glyph glyph-name="circumflex" unicode="&#x2c6;" 
d="M349 608l-100 72l-99 -72h-58v5l116 119h84l116 -119v-5h-59z" />
    <glyph glyph-name="caron" unicode="&#x2c7;" 
d="M208 608l-116 119v5h59l100 -72l99 72h58v-5l-116 -119h-84z" />
    <glyph glyph-name="breve" unicode="&#x2d8;" 
d="M250 662c60 0 91 27 100 70h52c-5 -79 -57 -127 -152 -127s-147 48 -152 127h52c9 -43 40 -70 100 -70z" />
    <glyph glyph-name="tilde" unicode="&#x2dc;" 
d="M104 615v66c0 18 3 32 10 40c6 7 15 11 31 11h12c18 0 31 -4 61 -15l118 -46l21 60h39v-66c0 -18 -3 -32 -10 -40c-6 -7 -15 -11 -31 -11h-12c-18 0 -31 4 -61 15l-118 46l-21 -60h-39z" />
    <glyph glyph-name="macron" unicode="&#xaf;" 
d="M104 616v61h292v-61h-292z" />
    <glyph glyph-name="dieresis" unicode="&#xa8;" 
d="M116 624v95h83v-95h-83zM301 624v95h83v-95h-83z" />
    <glyph glyph-name="dotaccent" unicode="&#x2d9;" 
d="M206 629v96h88v-96h-88z" />
    <glyph glyph-name="ring" unicode="&#x2da;" 
d="M286 763h-72c-18 0 -26 -2 -33 -9s-11 -18 -11 -47c0 -28 4 -39 11 -47c7 -7 15 -8 33 -8h72c18 0 26 1 33 8c7 8 11 19 11 47c0 29 -4 40 -11 47s-15 9 -33 9zM292 609h-84c-33 0 -53 7 -66 21c-18 18 -24 37 -24 77s6 59 24 78c13 14 33 20 66 20h84c33 0 53 -6 66 -20
c18 -19 24 -38 24 -78s-6 -59 -24 -77c-13 -14 -33 -21 -66 -21z" />
    <glyph glyph-name="commaaccent" unicode="&#x326;" 
d="M214 -70h89v-91c0 -26 -5 -39 -20 -56l-72 -85l-25 20l58 85c6 9 7 15 7 25v7h-37v95z" />
    <glyph glyph-name="cedilla" unicode="&#xb8;" 
d="M267 -45c32 0 51 -4 62 -15c12 -12 19 -30 19 -64s-7 -52 -19 -64s-32 -16 -64 -16h-69l-44 32v14h105c16 0 23 2 28 7c6 5 8 15 8 27c0 13 -2 23 -8 28c-5 5 -12 7 -28 7h-44v44h54z" />
    <glyph glyph-name="ogonek" unicode="&#x2db;" 
d="M296 -82h55c0 -64 -5 -84 -20 -98c-11 -10 -27 -14 -52 -14h-57c-25 0 -41 4 -52 14c-16 14 -21 34 -21 75c0 27 2 43 14 62c13 21 44 47 72 67l25 -19c-11 -10 -34 -32 -42 -46c-9 -13 -10 -23 -10 -48c0 -34 1 -42 6 -47c5 -4 10 -6 22 -6h32c12 0 16 2 21 6
c5 5 7 14 7 54z" />
    <glyph glyph-name="asciicircum" unicode="^" horiz-adv-x="514" 
d="M374 478l-118 166l-118 -166h-53v5l148 220h47l148 -220v-5h-54z" />
    <glyph glyph-name="asciitilde" unicode="~" horiz-adv-x="444" 
d="M76 260v66c0 20 4 33 11 40c6 6 14 11 31 11h11c18 0 31 -3 63 -16l116 -45l22 60h38v-66c0 -20 -4 -33 -11 -40c-6 -6 -14 -11 -31 -11h-10c-18 0 -31 3 -64 16l-116 45l-21 -60h-39z" />
    <glyph glyph-name="fraction" unicode="&#x2044;" horiz-adv-x="566" 
d="M74 -3h-64l253 369l229 337h64l-253 -367z" />
    <glyph glyph-name="i.dot" horiz-adv-x="245" 
d="M167 730v-96h-88v96h88zM160 535v-535h-74v535h74z" />
    <glyph glyph-name="space" unicode=" " horiz-adv-x="225" 
 />
    <glyph glyph-name="uni00A0" unicode="&#xa0;" horiz-adv-x="189" 
 />
    <glyph glyph-name="emspace" unicode="&#x2003;" horiz-adv-x="1000" 
 />
    <glyph glyph-name="enspace" unicode="&#x2002;" 
 />
    <glyph glyph-name="threeperemspace" unicode="&#x2004;" horiz-adv-x="333" 
 />
    <glyph glyph-name="fourperemspace" unicode="&#x2005;" horiz-adv-x="250" 
 />
    <glyph glyph-name="thinspace" unicode="&#x2009;" horiz-adv-x="133" 
 />
    <glyph glyph-name="hairspace" unicode="&#x200a;" horiz-adv-x="75" 
 />
    <glyph glyph-name="NUL" unicode="&#xe05d;" horiz-adv-x="0" 
 />
    </font>
</defs>
</svg>
