<?xml version="1.0" standalone="no"?>
<!DOCTYPE svg PUBLIC "-//W3C//DTD SVG 1.1//EN" "http://www.w3.org/Graphics/SVG/1.1/DTD/svg11.dtd" >
<svg xmlns="http://www.w3.org/2000/svg" width="100%" height="100%">
<metadata>
Created by FontXChange 20100429 at Thu Aug 27 13:23:48 2015
 By Stevijn van Olst
Copyright (C) 2006, 2010 Hoefler &#38; Frere-Jones. http://www.typography.com
</metadata>
<defs>
<font id="Forza-MediumItalic" horiz-adv-x="585" >
  <font-face 
    font-family="Forza Medium"
    font-weight="350"
    font-style="italic"
    font-stretch="normal"
    units-per-em="1000"
    panose-1="0 0 0 0 0 0 0 0 0 0"
    ascent="800"
    descent="-200"
    x-height="540"
    cap-height="700"
    bbox="-153 -325 1048 1012"
    underline-thickness="50"
    underline-position="-50"
    slope="-14"
    stemh="95"
    stemv="107"
    unicode-range="U+0020-FB04"
  />
<missing-glyph horiz-adv-x="494" 
d="M-3 -200v1000h500v-1000h-500zM68 750l179 -390l179 390h-358zM47 -76l172 376l-172 376v-752zM447 676l-172 -376l172 -376v752zM247 240l-179 -390h358z" />
    <glyph glyph-name="fi" unicode="fi" horiz-adv-x="604" 
d="M150 0h-104l111 450h-89l23 90h89l5 20c18 73 34 102 53 122c29 29 57 38 111 38h88l-23 -88h-59c-20 0 -32 -1 -42 -11c-9 -9 -16 -24 -25 -63l-4 -18h117l-23 -90h-116zM654 730l-28 -111h-118l28 111h118zM599 540l-136 -540h-104l136 540h104z" />
    <glyph glyph-name="fl" unicode="fl" horiz-adv-x="604" 
d="M150 0h-104l111 450h-89l23 90h89l5 20c18 73 34 102 53 122c29 29 57 38 111 38h88l-23 -88h-59c-20 0 -32 -1 -42 -11c-9 -9 -16 -24 -25 -63l-4 -18h117l-23 -90h-116zM464 0h-104l179 720h104z" />
    <glyph glyph-name="f_f" unicode="ff" horiz-adv-x="708" 
d="M150 0h-104l111 450h-89l23 90h89l5 20c18 73 34 102 53 122c29 29 57 38 111 38h88l-23 -88h-59c-20 0 -32 -1 -42 -11c-9 -9 -16 -24 -25 -63l-4 -18h117l-23 -90h-116zM504 0h-104l111 450h-89l23 90h89l5 20c18 73 34 102 53 122c29 29 57 38 111 38h88l-23 -88h-59
c-20 0 -32 -1 -42 -11c-9 -9 -16 -24 -25 -63l-4 -18h117l-23 -90h-116z" />
    <glyph glyph-name="f_f_i" unicode="ffi" horiz-adv-x="958" 
d="M150 0h-104l111 450h-89l23 90h89l5 20c18 73 34 102 53 122c29 29 57 38 111 38h88l-23 -88h-59c-20 0 -32 -1 -42 -11c-9 -9 -16 -24 -25 -63l-4 -18h117l-23 -90h-116zM504 0h-104l111 450h-89l23 90h89l5 20c18 73 34 102 53 122c29 29 57 38 111 38h88l-23 -88h-59
c-20 0 -32 -1 -42 -11c-9 -9 -16 -24 -25 -63l-4 -18h117l-23 -90h-116zM1008 730l-28 -111h-118l28 111h118zM953 540l-136 -540h-104l136 540h104z" />
    <glyph glyph-name="f_f_l" unicode="ffl" horiz-adv-x="958" 
d="M150 0h-104l111 450h-89l23 90h89l5 20c18 73 34 102 53 122c29 29 57 38 111 38h88l-23 -88h-59c-20 0 -32 -1 -42 -11c-9 -9 -16 -24 -25 -63l-4 -18h117l-23 -90h-116zM504 0h-104l111 450h-89l23 90h89l5 20c18 73 34 102 53 122c29 29 57 38 111 38h88l-23 -88h-59
c-20 0 -32 -1 -42 -11c-9 -9 -16 -24 -25 -63l-4 -18h117l-23 -90h-116zM818 0h-104l179 720h104z" />
    <glyph glyph-name=".notdef" horiz-adv-x="494" 
d="M-3 -200v1000h500v-1000h-500zM68 750l179 -390l179 390h-358zM47 -76l172 376l-172 376v-752zM447 676l-172 -376l172 -376v752zM247 240l-179 -390h358z" />
    <glyph glyph-name="A" unicode="A" horiz-adv-x="646" 
d="M386 703h74c39 0 48 -7 51 -42l53 -661h-109l-13 198h-267l-109 -198h-117l390 676c13 23 20 27 47 27zM401 605l-173 -314h208l-20 314h-15z" />
    <glyph glyph-name="B" unicode="B" horiz-adv-x="653" 
d="M484 605h-210l-49 -196h224c32 0 45 3 55 13c9 9 18 21 34 86c14 60 12 77 2 87c-6 6 -17 10 -56 10zM419 317h-216l-55 -222h229c31 0 45 1 54 10c11 11 20 29 38 99c19 75 15 92 5 102c-8 8 -18 11 -55 11zM373 0h-361l174 700h327c58 0 96 -9 119 -32
c30 -30 38 -76 15 -167c-23 -92 -66 -122 -141 -138v-2c72 -18 100 -63 74 -163c-28 -108 -52 -134 -72 -154c-35 -35 -83 -44 -135 -44z" />
    <glyph glyph-name="C" unicode="C" horiz-adv-x="653" 
d="M643 470h-107c17 96 13 112 2 123c-8 8 -20 12 -51 12h-152c-34 0 -48 -6 -58 -16c-11 -11 -31 -37 -81 -239c-51 -206 -41 -231 -28 -244c7 -7 18 -11 47 -11h157c34 0 49 6 59 16c8 8 24 28 53 130h108c-40 -139 -67 -174 -88 -195c-41 -41 -77 -46 -143 -46h-165
c-63 0 -91 12 -111 32c-36 36 -55 104 0 328c56 226 92 268 118 294c41 41 77 46 143 46h160c66 0 95 -13 116 -33c29 -28 41 -76 21 -197z" />
    <glyph glyph-name="D" unicode="D" horiz-adv-x="668" 
d="M186 700h273c88 0 129 -15 162 -48c48 -48 50 -148 10 -313c-40 -164 -79 -233 -120 -274c-52 -52 -116 -65 -203 -65h-296zM442 606h-168l-127 -512h184c43 0 77 7 101 31c27 27 49 67 89 225c39 155 39 207 11 235c-18 18 -40 21 -90 21z" />
    <glyph glyph-name="E" unicode="E" horiz-adv-x="591" 
d="M501 95l-23 -95h-466l174 700h466l-24 -95h-355l-48 -194h292l-24 -95h-292l-54 -221h354z" />
    <glyph glyph-name="F" unicode="F" horiz-adv-x="551" 
d="M604 605h-331l-53 -212h262l-24 -95h-262l-72 -298h-112l174 700h442z" />
    <glyph glyph-name="G" unicode="G" horiz-adv-x="671" 
d="M494 272h-157l24 95h267c-6 -26 -13 -56 -22 -89c-46 -170 -77 -209 -100 -232c-41 -41 -77 -46 -143 -46h-167c-63 0 -91 12 -111 32c-36 36 -55 104 0 328c56 226 92 268 118 294c41 41 77 46 143 46h170c63 0 91 -12 111 -32c28 -28 39 -73 18 -188h-104
c16 89 10 104 0 114c-7 7 -18 11 -47 11h-159c-34 0 -48 -6 -58 -16c-11 -11 -31 -37 -81 -239c-51 -206 -41 -231 -28 -244c7 -7 18 -11 47 -11h160c34 0 49 6 59 16c9 9 25 31 60 161z" />
    <glyph glyph-name="H" unicode="H" horiz-adv-x="708" 
d="M736 700l-174 -700h-112l78 316h-326l-78 -316h-112l174 700h112l-72 -290h326l72 290h112z" />
    <glyph glyph-name="I" unicode="I" horiz-adv-x="282" 
d="M130 0h-112l174 700h112z" />
    <glyph glyph-name="J" unicode="J" horiz-adv-x="566" 
d="M204 -2h-59c-63 0 -102 11 -125 34c-33 33 -32 81 2 200h106c-20 -79 -27 -110 -13 -124c9 -9 21 -13 55 -13h35c75 0 96 5 112 21c15 15 28 34 60 163l105 421h112l-102 -411c-41 -166 -64 -205 -98 -239c-44 -44 -100 -52 -190 -52z" />
    <glyph glyph-name="K" unicode="K" horiz-adv-x="619" 
d="M567 700h130l-342 -342l193 -358h-121l-165 316h-60l-78 -316h-112l174 700h112l-72 -289h51z" />
    <glyph glyph-name="L" unicode="L" horiz-adv-x="548" 
d="M298 700l-150 -604h330l-23 -96h-443l174 700h112z" />
    <glyph glyph-name="M" unicode="M" horiz-adv-x="881" 
d="M304 45l-18 560h-15l-150 -605h-109l174 700h152c36 0 44 -12 45 -45l17 -509h15l268 519c14 26 24 35 52 35h174l-174 -700h-114l148 595h-15l-301 -564c-14 -26 -19 -31 -46 -31h-57c-39 0 -45 7 -46 45z" />
    <glyph glyph-name="N" unicode="N" horiz-adv-x="709" 
d="M737 700l-174 -700h-104c-29 0 -37 6 -44 33l-141 523h-15l-138 -556h-109l174 700h119c29 0 36 -6 43 -33l133 -499h15l132 532h109z" />
    <glyph glyph-name="O" unicode="O" horiz-adv-x="672" 
d="M366 0h-170c-63 0 -91 12 -111 32c-36 36 -55 104 0 328c56 226 92 268 118 294c41 41 77 46 143 46h170c63 0 91 -12 111 -32c36 -36 55 -104 0 -328c-56 -226 -92 -268 -118 -294c-41 -41 -77 -46 -143 -46zM196 350c-51 -206 -41 -231 -28 -244c7 -7 18 -11 47 -11
h162c34 0 48 6 58 16c11 11 31 37 81 239c51 206 41 231 28 244c-7 7 -18 11 -47 11h-162c-34 0 -48 -6 -58 -16c-11 -11 -31 -37 -81 -239z" />
    <glyph glyph-name="P" unicode="P" horiz-adv-x="618" 
d="M632 455c-23 -92 -56 -132 -79 -155c-35 -35 -79 -42 -134 -42h-231l-64 -258h-112l174 700h304c62 0 100 -8 122 -30c30 -30 52 -86 20 -215zM456 605h-182l-62 -252h203c35 0 51 4 62 15c8 8 27 27 48 111c20 80 9 104 -2 114c-8 8 -22 12 -67 12z" />
    <glyph glyph-name="Q" unicode="Q" horiz-adv-x="672" 
d="M401 -108h-103l-5 108h-97c-63 0 -91 12 -111 32c-36 36 -55 104 0 328c56 226 92 268 118 294c41 41 77 46 143 46h170c63 0 91 -12 111 -32c36 -36 55 -104 0 -328c-56 -226 -92 -268 -118 -294c-35 -35 -66 -44 -114 -46zM215 95h73l-8 142h103l6 -142
c25 1 37 7 46 16c11 11 31 37 81 239c51 206 41 231 28 244c-7 7 -18 11 -47 11h-162c-34 0 -48 -6 -58 -16c-11 -11 -31 -37 -81 -239c-51 -206 -41 -231 -28 -244c7 -7 18 -11 47 -11z" />
    <glyph glyph-name="R" unicode="R" horiz-adv-x="661" 
d="M486 605h-212l-56 -225h226c29 0 40 5 46 10c11 9 30 32 47 104c16 69 9 93 0 102c-7 7 -18 9 -51 9zM568 191c-20 -95 -32 -154 -36 -191h-112c3 48 17 114 35 194c11 51 6 66 -6 79c-14 13 -36 17 -84 17h-169l-72 -290h-112l174 700h330c59 0 90 -7 113 -30
c30 -30 43 -76 20 -176c-28 -122 -74 -153 -158 -163v-2c66 -17 97 -42 77 -138z" />
    <glyph glyph-name="S" unicode="S" horiz-adv-x="641" 
d="M51 220h106c-16 -68 -23 -108 -13 -118c6 -6 13 -7 37 -7h190c29 0 41 2 51 12s19 33 33 90c11 44 13 63 1 75c-8 8 -17 11 -37 15l-178 35c-60 12 -80 20 -102 42c-27 27 -29 64 -11 150c17 80 35 113 65 143c32 32 75 43 128 43h191c53 0 84 -9 103 -28
c32 -32 33 -76 10 -187h-108c14 76 16 102 7 111c-6 6 -13 9 -41 9h-166c-28 0 -40 -2 -50 -12s-18 -34 -31 -84c-11 -44 -11 -63 -1 -73c7 -7 14 -11 39 -16l178 -36c57 -11 81 -22 100 -41c28 -28 34 -67 13 -150c-23 -90 -33 -117 -68 -152c-30 -30 -73 -41 -129 -41
h-222c-53 0 -79 9 -98 28c-29 29 -23 91 3 192z" />
    <glyph glyph-name="T" unicode="T" horiz-adv-x="586" 
d="M648 605h-216l-150 -605h-112l150 605h-216l24 95h544z" />
    <glyph glyph-name="U" unicode="U" horiz-adv-x="694" 
d="M297 700l-102 -410c-33 -131 -29 -160 -14 -175c11 -11 29 -17 108 -17h45c75 0 96 5 112 21c15 15 28 32 60 161l104 420h112l-101 -409c-41 -166 -64 -204 -98 -238c-44 -44 -100 -53 -190 -53h-81c-87 0 -128 14 -156 42c-41 41 -50 93 -9 260l98 398h112z" />
    <glyph glyph-name="V" unicode="V" horiz-adv-x="622" 
d="M161 39l-40 661h111l29 -592h14l319 592h120l-378 -676c-13 -23 -20 -27 -47 -27h-77c-39 0 -48 7 -51 42z" />
    <glyph glyph-name="W" unicode="W" horiz-adv-x="931" 
d="M534 702h56c46 0 53 -8 53 -41l-7 -520h13l243 559h117l-314 -679c-9 -20 -17 -24 -46 -24h-62c-46 0 -54 5 -53 38l8 516h-13l-253 -528c-10 -22 -19 -26 -46 -26h-64c-46 0 -54 5 -53 38l22 665h112l-29 -559h13l250 528c13 28 24 33 53 33z" />
    <glyph glyph-name="X" unicode="X" horiz-adv-x="631" 
d="M442 0l-118 265h-10l-233 -265h-130l325 364l-153 336h120l111 -251h8l221 251h132l-314 -349l158 -351h-117z" />
    <glyph glyph-name="Y" unicode="Y" horiz-adv-x="595" 
d="M701 700l-344 -420l-69 -280h-112l71 286l-140 414h116l97 -310h8l246 310h127z" />
    <glyph glyph-name="Z" unicode="Z" horiz-adv-x="611" 
d="M523 95l-23 -95h-521l17 73l514 532h-362l24 95h506l-17 -73l-515 -532h377z" />
    <glyph glyph-name="a" unicode="a" horiz-adv-x="560" 
d="M422 0h-95l16 70c-88 -59 -122 -71 -167 -71h-48c-51 0 -68 11 -85 28c-25 25 -28 72 -13 135c12 51 29 81 49 101c34 34 82 48 191 48c49 0 97 -5 127 -16l15 61c15 62 12 77 2 87c-7 7 -17 11 -41 11h-94c-25 0 -38 -2 -47 -11s-15 -28 -27 -69h-100
c20 75 35 107 56 128c28 28 60 38 107 38h146c39 0 66 -10 87 -31c26 -26 33 -67 14 -142zM216 86c43 0 68 12 140 46l25 103h-133c-63 0 -81 -4 -95 -18c-9 -9 -14 -21 -22 -53c-10 -40 -11 -60 -1 -70c6 -6 15 -8 39 -8h47z" />
    <glyph glyph-name="b" unicode="b" horiz-adv-x="587" 
d="M308 -1h-46c-41 0 -63 14 -135 69l-17 -68h-104l179 720h104l-62 -249c90 64 112 70 160 70h47c53 0 77 -11 95 -29c32 -32 38 -83 -1 -243c-38 -156 -59 -198 -90 -229c-35 -35 -77 -41 -130 -41zM344 449c-43 0 -59 -7 -133 -42l-70 -281c43 -25 74 -35 98 -35h66
c33 0 49 4 62 17c15 15 28 44 58 165s32 148 16 164c-9 9 -26 12 -52 12h-45z" />
    <glyph glyph-name="c" unicode="c" horiz-adv-x="541" 
d="M300 0h-136c-51 0 -78 12 -97 31c-35 35 -44 89 -5 249c38 156 59 190 88 219c35 35 77 41 130 41h120c53 0 80 -12 98 -30c29 -29 32 -70 10 -160h-99c11 58 12 80 3 89c-8 8 -18 9 -43 9h-100c-30 0 -41 -3 -51 -13s-20 -27 -54 -165c-32 -131 -29 -157 -19 -167
c8 -8 21 -11 46 -11h104c22 0 34 2 43 11c8 8 18 26 35 94h101c-28 -112 -44 -136 -71 -163c-21 -21 -54 -34 -103 -34z" />
    <glyph glyph-name="d" unicode="d" horiz-adv-x="587" 
d="M279 541h46c40 0 63 -14 135 -69l63 248h104l-181 -720h-102l17 70c-92 -66 -113 -71 -161 -71h-47c-53 0 -77 11 -95 29c-32 32 -38 83 1 243c38 156 59 198 90 229c35 35 77 41 130 41zM243 91c43 0 58 7 132 42l70 280c-43 26 -74 36 -97 36h-66c-33 0 -49 -4 -62 -17
c-15 -15 -28 -44 -58 -165s-32 -148 -16 -164c9 -9 26 -12 52 -12h45z" />
    <glyph glyph-name="e" unicode="e" horiz-adv-x="559" 
d="M300 0h-136c-53 0 -79 13 -98 32c-34 34 -42 88 -4 248c38 156 59 190 88 219c35 35 77 41 130 41h120c53 0 79 -13 98 -32c34 -34 44 -91 -1 -258c-2 -8 -7 -14 -16 -14h-326c-23 -102 -20 -126 -10 -136c7 -7 20 -10 45 -10h108c31 0 40 2 50 12c7 7 14 19 27 66h101
c-24 -85 -39 -110 -61 -132c-31 -30 -64 -36 -115 -36zM217 437c-9 -9 -18 -24 -42 -119h236c19 83 19 111 8 122c-7 7 -20 10 -45 10h-106c-31 0 -41 -3 -51 -13z" />
    <glyph glyph-name="f" unicode="f" horiz-adv-x="354" 
d="M150 0h-104l111 450h-89l23 90h89l5 20c18 73 34 102 53 122c29 29 57 38 111 38h88l-23 -88h-59c-20 0 -32 -1 -42 -11c-9 -9 -16 -24 -25 -63l-4 -18h117l-23 -90h-116z" />
    <glyph glyph-name="g" unicode="g" horiz-adv-x="587" 
d="M5 -16h100c-3 -16 -4 -34 3 -41c5 -5 14 -8 34 -8h126c29 0 41 2 49 9c10 8 16 18 28 68l28 113c-91 -65 -112 -70 -160 -70h-36c-50 0 -77 11 -96 30c-35 35 -48 88 -13 224c32 124 53 163 81 191c35 35 77 41 130 41h45c40 0 62 -14 135 -70l18 69h104l-129 -514
c-24 -96 -37 -122 -68 -147c-23 -18 -50 -29 -111 -29h-172c-40 0 -63 9 -80 26c-20 20 -28 46 -16 108zM169 297c-24 -98 -21 -124 -7 -138c10 -10 27 -13 53 -13h41c43 0 57 8 133 43l56 224c-44 26 -74 37 -98 37h-65c-33 0 -49 -4 -62 -17c-14 -14 -27 -42 -51 -136z
" />
    <glyph glyph-name="h" unicode="h" 
d="M448 0h-104l94 374c7 28 7 49 -5 61c-7 7 -17 14 -50 14h-39c-40 0 -60 -7 -133 -41l-101 -408h-104l179 720h104l-62 -250c93 62 110 71 156 71h59c35 0 61 -11 81 -31c27 -27 36 -70 17 -145z" />
    <glyph glyph-name="i" unicode="i" horiz-adv-x="250" 
d="M300 730l-28 -111h-118l28 111h118zM245 540l-136 -540h-104l136 540h104z" />
    <glyph glyph-name="j" unicode="j" horiz-adv-x="263" 
d="M313 730l-28 -111h-118l28 111h118zM154 540h104l-132 -528c-19 -76 -33 -104 -55 -126c-32 -32 -73 -38 -116 -38c-18 0 -44 2 -64 6l21 83h49c22 0 31 3 38 10c8 8 12 18 18 42z" />
    <glyph glyph-name="k" unicode="k" horiz-adv-x="522" 
d="M110 0h-104l179 720h104l-100 -402h36l229 222h125l-283 -272l155 -268h-116l-130 232h-37z" />
    <glyph glyph-name="l" unicode="l" horiz-adv-x="250" 
d="M110 0h-104l179 720h104z" />
    <glyph glyph-name="m" unicode="m" horiz-adv-x="883" 
d="M746 0h-104l94 374c7 28 7 49 -5 61c-7 7 -17 14 -50 14h-19c-40 0 -60 -7 -134 -42c-2 -13 -4 -27 -8 -42l-92 -365h-104l94 374c7 28 7 49 -5 61c-7 7 -17 14 -50 14h-19c-39 0 -60 -7 -131 -40l-103 -409h-104l136 540h102l-18 -71c94 63 111 72 157 72h39
c35 0 61 -11 81 -31c13 -13 22 -30 25 -51c108 72 125 82 173 82h39c35 0 61 -11 81 -31c27 -27 36 -70 17 -145z" />
    <glyph glyph-name="n" unicode="n" 
d="M110 0h-104l136 540h102l-18 -71c94 63 111 72 157 72h59c35 0 61 -11 81 -31c27 -27 36 -70 17 -145l-92 -365h-104l94 374c7 28 7 49 -5 61c-7 7 -17 14 -50 14h-39c-39 0 -60 -7 -131 -40z" />
    <glyph glyph-name="o" unicode="o" horiz-adv-x="573" 
d="M511 260c-38 -156 -59 -190 -88 -219c-35 -35 -77 -41 -130 -41h-129c-53 0 -79 13 -98 32c-34 34 -42 88 -4 248c38 156 59 190 88 219c35 35 77 41 130 41h129c53 0 79 -13 98 -32c34 -34 43 -88 4 -248zM164 270c-32 -131 -29 -158 -18 -169c7 -7 20 -10 45 -10h113
c31 0 41 3 51 13s20 28 54 166c32 131 29 158 18 169c-7 7 -20 10 -45 10h-113c-31 0 -41 -3 -51 -13s-20 -28 -54 -166z" />
    <glyph glyph-name="p" unicode="p" horiz-adv-x="587" 
d="M307 -1h-45c-41 0 -63 13 -136 69l-54 -218h-104l173 690h102l-18 -70c92 65 113 71 162 71h47c53 0 77 -11 95 -29c32 -32 38 -83 -1 -243c-38 -156 -60 -198 -91 -229c-35 -35 -77 -41 -130 -41zM344 449c-43 0 -58 -7 -133 -42l-70 -281c43 -26 74 -35 98 -35h66
c33 0 49 4 62 17c15 15 28 44 58 165s32 148 16 164c-9 9 -26 12 -52 12h-45z" />
    <glyph glyph-name="q" unicode="q" horiz-adv-x="587" 
d="M581 540l-172 -690h-104l54 218c-90 -64 -111 -69 -159 -69h-47c-53 0 -77 11 -95 29c-32 32 -38 83 1 243c38 156 59 198 90 229c35 35 77 41 130 41h46c40 0 62 -14 135 -69l17 68h104zM243 91c43 0 58 7 132 42l70 280c-43 26 -74 36 -97 36h-66c-33 0 -49 -4 -62 -17
c-15 -15 -28 -44 -58 -165s-32 -148 -16 -164c9 -9 26 -12 52 -12h45z" />
    <glyph glyph-name="r" unicode="r" horiz-adv-x="378" 
d="M109 0h-104l136 540h102l-18 -73c62 51 92 74 134 74h59l-27 -107h-61c-41 0 -71 -4 -117 -21z" />
    <glyph glyph-name="s" unicode="s" horiz-adv-x="532" 
d="M32 170h92c-8 -37 -14 -65 -5 -75c6 -6 14 -9 35 -9h141c21 0 31 2 37 8c7 7 13 17 23 57c8 32 8 42 0 50c-5 5 -12 9 -29 12l-138 28c-48 9 -70 17 -87 34c-24 24 -23 63 -8 126c13 56 30 85 52 107c24 24 54 32 96 32h172c31 0 55 -8 74 -27c21 -21 30 -59 10 -139h-94
c7 30 12 58 1 69c-7 7 -15 11 -40 11h-118c-19 0 -30 -2 -37 -9c-8 -8 -12 -17 -21 -52c-8 -31 -8 -43 0 -51c5 -5 11 -9 29 -12l138 -26c48 -9 70 -17 87 -34c23 -23 22 -64 7 -127c-13 -56 -33 -92 -53 -112c-24 -24 -55 -31 -95 -31h-197c-31 0 -53 8 -70 25
c-19 19 -28 60 -2 145z" />
    <glyph glyph-name="t" unicode="t" horiz-adv-x="381" 
d="M261 450l-80 -317c-4 -17 -4 -27 3 -34c5 -5 12 -8 36 -8h79l-17 -69l-66 -17c-17 -4 -39 -9 -65 -9c-27 0 -49 8 -65 24c-17 17 -26 49 -12 105l82 325h-93l22 90h94l34 134h104l-34 -134h125l-22 -90h-125z" />
    <glyph glyph-name="u" unicode="u" 
d="M475 540h104l-136 -540h-102l17 70c-93 -62 -111 -71 -156 -71h-59c-35 0 -61 11 -81 31c-27 27 -36 70 -17 145l92 365h104l-94 -374c-7 -28 -7 -49 5 -61c7 -7 17 -14 50 -14h39c39 0 59 6 131 40z" />
    <glyph glyph-name="v" unicode="v" horiz-adv-x="495" 
d="M439 540h108l-292 -516c-12 -20 -22 -26 -43 -26h-55c-26 0 -40 11 -42 38l-36 504h101l23 -419h10z" />
    <glyph glyph-name="w" unicode="w" horiz-adv-x="750" 
d="M404 542h58c28 0 40 -9 40 -36l1 -389h10l175 423h107l-233 -514c-9 -20 -21 -28 -43 -28h-69c-31 0 -42 7 -41 38l5 376h-8l-184 -386c-10 -20 -21 -28 -43 -28h-70c-31 0 -42 7 -41 38l21 504h100l-26 -423h10l187 397c10 21 21 28 44 28z" />
    <glyph glyph-name="x" unicode="x" horiz-adv-x="515" 
d="M68 0h-122l249 280l-126 260h112l89 -188h7l167 188h124l-250 -274l128 -266h-112l-90 192h-7z" />
    <glyph glyph-name="y" unicode="y" horiz-adv-x="536" 
d="M82 540h109l48 -391h6l220 391h117l-374 -625c-29 -48 -61 -67 -113 -67c-35 0 -76 4 -106 7l22 86h92c13 0 19 6 27 18l29 47z" />
    <glyph glyph-name="z" unicode="z" horiz-adv-x="491" 
d="M409 92l-23 -92h-418l14 64l375 384h-263l23 92h408l-13 -58l-381 -390h278z" />
    <glyph glyph-name="Aacute" unicode="&#xc1;" horiz-adv-x="646" 
d="M386 703h74c39 0 48 -7 51 -42l53 -661h-109l-13 198h-267l-109 -198h-117l390 676c13 23 20 27 47 27zM401 605l-173 -314h208l-20 314h-15zM376 758v5l113 107h160v-5l-169 -107h-104z" />
    <glyph glyph-name="aacute" unicode="&#xe1;" horiz-adv-x="560" 
d="M422 0h-95l16 70c-88 -59 -122 -71 -167 -71h-48c-51 0 -68 11 -85 28c-25 25 -28 72 -13 135c12 51 29 81 49 101c34 34 82 48 191 48c49 0 97 -5 127 -16l15 61c15 62 12 77 2 87c-7 7 -17 11 -41 11h-94c-25 0 -38 -2 -47 -11s-15 -28 -27 -69h-100
c20 75 35 107 56 128c28 28 60 38 107 38h146c39 0 66 -10 87 -31c26 -26 33 -67 14 -142zM216 86c43 0 68 12 140 46l25 103h-133c-63 0 -81 -4 -95 -18c-9 -9 -14 -21 -22 -53c-10 -40 -11 -60 -1 -70c6 -6 15 -8 39 -8h47zM301 608v5l113 107h160v-5l-169 -107h-104z" />
    <glyph glyph-name="Abreve" unicode="&#x102;" horiz-adv-x="646" 
d="M386 703h74c39 0 48 -7 51 -42l53 -661h-109l-13 198h-267l-109 -198h-117l390 676c13 23 20 27 47 27zM401 605l-173 -314h208l-20 314h-15zM461 828c46 0 70 21 86 52h78c-24 -83 -87 -125 -174 -125c-86 0 -134 50 -130 125h76c2 -27 25 -52 64 -52z" />
    <glyph glyph-name="abreve" unicode="&#x103;" horiz-adv-x="560" 
d="M422 0h-95l16 70c-88 -59 -122 -71 -167 -71h-48c-51 0 -68 11 -85 28c-25 25 -28 72 -13 135c12 51 29 81 49 101c34 34 82 48 191 48c49 0 97 -5 127 -16l15 61c15 62 12 77 2 87c-7 7 -17 11 -41 11h-94c-25 0 -38 -2 -47 -11s-15 -28 -27 -69h-100
c20 75 35 107 56 128c28 28 60 38 107 38h146c39 0 66 -10 87 -31c26 -26 33 -67 14 -142zM216 86c43 0 68 12 140 46l25 103h-133c-63 0 -81 -4 -95 -18c-9 -9 -14 -21 -22 -53c-10 -40 -11 -60 -1 -70c6 -6 15 -8 39 -8h47zM386 678c46 0 70 21 86 52h78
c-24 -83 -87 -125 -174 -125c-86 0 -134 50 -130 125h76c2 -27 25 -52 64 -52z" />
    <glyph glyph-name="Acircumflex" unicode="&#xc2;" horiz-adv-x="646" 
d="M386 703h74c39 0 48 -7 51 -42l53 -661h-109l-13 198h-267l-109 -198h-117l390 676c13 23 20 27 47 27zM401 605l-173 -314h208l-20 314h-15zM518 758l-59 52l-89 -52h-86v5l129 117h120l71 -117v-5h-86z" />
    <glyph glyph-name="acircumflex" unicode="&#xe2;" horiz-adv-x="560" 
d="M422 0h-95l16 70c-88 -59 -122 -71 -167 -71h-48c-51 0 -68 11 -85 28c-25 25 -28 72 -13 135c12 51 29 81 49 101c34 34 82 48 191 48c49 0 97 -5 127 -16l15 61c15 62 12 77 2 87c-7 7 -17 11 -41 11h-94c-25 0 -38 -2 -47 -11s-15 -28 -27 -69h-100
c20 75 35 107 56 128c28 28 60 38 107 38h146c39 0 66 -10 87 -31c26 -26 33 -67 14 -142zM216 86c43 0 68 12 140 46l25 103h-133c-63 0 -81 -4 -95 -18c-9 -9 -14 -21 -22 -53c-10 -40 -11 -60 -1 -70c6 -6 15 -8 39 -8h47zM443 608l-59 52l-89 -52h-86v5l129 117h120
l71 -117v-5h-86z" />
    <glyph glyph-name="Adieresis" unicode="&#xc4;" horiz-adv-x="646" 
d="M386 703h74c39 0 48 -7 51 -42l53 -661h-109l-13 198h-267l-109 -198h-117l390 676c13 23 20 27 47 27zM401 605l-173 -314h208l-20 314h-15zM300 760l27 110h111l-27 -110h-111zM485 760l27 110h111l-27 -110h-111z" />
    <glyph glyph-name="adieresis" unicode="&#xe4;" horiz-adv-x="560" 
d="M422 0h-95l16 70c-88 -59 -122 -71 -167 -71h-48c-51 0 -68 11 -85 28c-25 25 -28 72 -13 135c12 51 29 81 49 101c34 34 82 48 191 48c49 0 97 -5 127 -16l15 61c15 62 12 77 2 87c-7 7 -17 11 -41 11h-94c-25 0 -38 -2 -47 -11s-15 -28 -27 -69h-100
c20 75 35 107 56 128c28 28 60 38 107 38h146c39 0 66 -10 87 -31c26 -26 33 -67 14 -142zM216 86c43 0 68 12 140 46l25 103h-133c-63 0 -81 -4 -95 -18c-9 -9 -14 -21 -22 -53c-10 -40 -11 -60 -1 -70c6 -6 15 -8 39 -8h47zM225 610l27 110h111l-27 -110h-111zM410 610
l27 110h111l-27 -110h-111z" />
    <glyph glyph-name="Agrave" unicode="&#xc0;" horiz-adv-x="646" 
d="M386 703h74c39 0 48 -7 51 -42l53 -661h-109l-13 198h-267l-109 -198h-117l390 676c13 23 20 27 47 27zM401 605l-173 -314h208l-20 314h-15zM503 758h-94l-132 107v5h161l65 -107v-5z" />
    <glyph glyph-name="agrave" unicode="&#xe0;" horiz-adv-x="560" 
d="M422 0h-95l16 70c-88 -59 -122 -71 -167 -71h-48c-51 0 -68 11 -85 28c-25 25 -28 72 -13 135c12 51 29 81 49 101c34 34 82 48 191 48c49 0 97 -5 127 -16l15 61c15 62 12 77 2 87c-7 7 -17 11 -41 11h-94c-25 0 -38 -2 -47 -11s-15 -28 -27 -69h-100
c20 75 35 107 56 128c28 28 60 38 107 38h146c39 0 66 -10 87 -31c26 -26 33 -67 14 -142zM216 86c43 0 68 12 140 46l25 103h-133c-63 0 -81 -4 -95 -18c-9 -9 -14 -21 -22 -53c-10 -40 -11 -60 -1 -70c6 -6 15 -8 39 -8h47zM428 608h-94l-132 107v5h161l65 -107v-5z" />
    <glyph glyph-name="Amacron" unicode="&#x100;" horiz-adv-x="646" 
d="M386 703h74c39 0 48 -7 51 -42l53 -661h-109l-13 198h-267l-109 -198h-117l390 676c13 23 20 27 47 27zM401 605l-173 -314h208l-20 314h-15zM297 760l19 85h302l-19 -85h-302z" />
    <glyph glyph-name="amacron" unicode="&#x101;" horiz-adv-x="560" 
d="M422 0h-95l16 70c-88 -59 -122 -71 -167 -71h-48c-51 0 -68 11 -85 28c-25 25 -28 72 -13 135c12 51 29 81 49 101c34 34 82 48 191 48c49 0 97 -5 127 -16l15 61c15 62 12 77 2 87c-7 7 -17 11 -41 11h-94c-25 0 -38 -2 -47 -11s-15 -28 -27 -69h-100
c20 75 35 107 56 128c28 28 60 38 107 38h146c39 0 66 -10 87 -31c26 -26 33 -67 14 -142zM216 86c43 0 68 12 140 46l25 103h-133c-63 0 -81 -4 -95 -18c-9 -9 -14 -21 -22 -53c-10 -40 -11 -60 -1 -70c6 -6 15 -8 39 -8h47zM222 610l19 85h302l-19 -85h-302z" />
    <glyph glyph-name="Aogonek" unicode="&#x104;" horiz-adv-x="646" 
d="M386 703h74c39 0 48 -7 51 -42l53 -661h-90c-13 -10 -33 -27 -41 -37c-8 -9 -11 -18 -17 -43c-6 -27 -6 -33 -3 -38s8 -6 21 -6h28c9 0 12 1 15 4c4 3 8 10 18 50h73c-19 -75 -28 -95 -49 -110c-15 -11 -32 -14 -57 -14h-57c-31 0 -51 5 -63 17c-15 16 -17 37 -10 77
c5 28 12 43 30 64c17 20 59 48 91 67l-11 167h-267l-109 -198h-117l390 676c13 23 20 27 47 27zM401 605l-173 -314h208l-20 314h-15z" />
    <glyph glyph-name="aogonek" unicode="&#x105;" horiz-adv-x="560" 
d="M422 0h-56c-13 -10 -33 -27 -41 -37c-8 -9 -11 -18 -17 -43c-6 -27 -6 -33 -3 -38s8 -6 21 -6h28c9 0 12 1 15 4c4 3 8 10 18 50h73c-19 -75 -28 -95 -49 -110c-15 -11 -32 -14 -57 -14h-57c-31 0 -51 5 -63 17c-15 16 -17 37 -10 77c5 28 12 43 30 64c14 17 49 41 78 59
l11 47c-88 -59 -122 -71 -167 -71h-48c-51 0 -68 11 -85 28c-25 25 -28 72 -13 135c12 51 29 81 49 101c34 34 82 48 191 48c49 0 97 -5 127 -16l15 61c15 62 12 77 2 87c-7 7 -17 11 -41 11h-94c-25 0 -38 -2 -47 -11s-15 -28 -27 -69h-100c20 75 35 107 56 128
c28 28 60 38 107 38h146c39 0 66 -10 87 -31c26 -26 33 -67 14 -142zM216 86c43 0 68 12 140 46l25 103h-133c-63 0 -81 -4 -95 -18c-9 -9 -14 -21 -22 -53c-10 -40 -11 -60 -1 -70c6 -6 15 -8 39 -8h47z" />
    <glyph glyph-name="Aring" unicode="&#xc5;" horiz-adv-x="646" 
d="M572 745c-8 -35 -17 -49 -34 -66c-8 -8 -17 -14 -27 -18l53 -661h-109l-13 198h-267l-109 -198h-117l383 665c-3 2 -6 4 -8 7c-21 21 -23 48 -14 87c8 34 16 48 35 67s48 26 80 26h66c39 0 54 -7 69 -22c18 -18 21 -46 12 -85zM401 605l-173 -314h208l-20 314h-15z
M406 708h55c17 0 23 1 30 8c5 5 10 13 15 35c5 23 4 33 -2 39c-4 4 -7 6 -28 6h-55c-17 0 -23 -1 -29 -7s-11 -14 -16 -36c-5 -23 -4 -33 2 -39c4 -4 7 -6 28 -6z" />
    <glyph glyph-name="aring" unicode="&#xe5;" horiz-adv-x="560" 
d="M422 0h-95l16 70c-88 -59 -122 -71 -167 -71h-48c-51 0 -68 11 -85 28c-25 25 -28 72 -13 135c12 51 29 81 49 101c34 34 82 48 191 48c49 0 97 -5 127 -16l15 61c15 62 12 77 2 87c-7 7 -17 11 -41 11h-94c-25 0 -38 -2 -47 -11s-15 -28 -27 -69h-100
c20 75 35 107 56 128c28 28 60 38 107 38h146c39 0 66 -10 87 -31c26 -26 33 -67 14 -142zM528 703c-8 -35 -17 -49 -34 -66c-21 -21 -49 -27 -81 -27h-66c-39 0 -55 8 -67 20c-21 21 -23 48 -14 87c8 34 16 48 35 67s48 26 80 26h66c39 0 54 -7 69 -22
c18 -18 21 -46 12 -85zM216 86c43 0 68 12 140 46l25 103h-133c-63 0 -81 -4 -95 -18c-9 -9 -14 -21 -22 -53c-10 -40 -11 -60 -1 -70c6 -6 15 -8 39 -8h47zM362 666h55c17 0 23 1 30 8c5 5 10 13 15 35c5 23 4 33 -2 39c-4 4 -7 6 -28 6h-55c-17 0 -23 -1 -29 -7
s-11 -14 -16 -36c-5 -23 -4 -33 2 -39c4 -4 7 -6 28 -6z" />
    <glyph glyph-name="aring.alt" horiz-adv-x="560" 
d="M422 0h-95l16 70c-88 -59 -122 -71 -167 -71h-48c-51 0 -68 11 -85 28c-25 25 -28 72 -13 135c12 51 29 81 49 101c34 34 82 48 191 48c49 0 97 -5 127 -16l15 61c15 62 12 77 2 87c-7 7 -17 11 -41 11h-94c-25 0 -38 -2 -47 -11s-15 -28 -27 -69h-100
c20 75 35 107 56 128s45 32 76 36c-4 16 -3 35 3 58c8 34 16 48 35 67s48 26 80 26h66c39 0 54 -7 69 -22c18 -18 21 -46 12 -85c-7 -28 -13 -42 -24 -56c8 -4 16 -10 23 -17c26 -26 33 -67 14 -142zM216 86c43 0 68 12 140 46l25 103h-133c-63 0 -81 -4 -95 -18
c-9 -9 -14 -21 -22 -53c-10 -40 -11 -60 -1 -70c6 -6 15 -8 39 -8h47zM336 545h55c17 0 23 1 30 8c5 5 10 13 15 35c5 23 4 33 -2 39c-4 4 -7 6 -28 6h-55c-17 0 -23 -1 -29 -7s-11 -14 -16 -36c-5 -23 -4 -33 2 -39c4 -4 7 -6 28 -6z" />
    <glyph glyph-name="Aringacute" unicode="&#x1fa;" horiz-adv-x="646" 
d="M572 745c-8 -35 -17 -49 -34 -66c-8 -8 -17 -14 -27 -18l53 -661h-109l-13 198h-267l-109 -198h-117l383 665c-3 2 -6 4 -8 7c-21 21 -23 48 -14 87c8 34 16 48 35 67s48 26 80 26h66c39 0 54 -7 69 -22c18 -18 21 -46 12 -85zM401 605l-173 -314h208l-20 314h-15z
M424 900v5l113 107h160v-5l-169 -107h-104zM406 708h55c17 0 23 1 30 8c5 5 10 13 15 35c5 23 4 33 -2 39c-4 4 -7 6 -28 6h-55c-17 0 -23 -1 -29 -7s-11 -14 -16 -36c-5 -23 -4 -33 2 -39c4 -4 7 -6 28 -6z" />
    <glyph glyph-name="aringacute" unicode="&#x1fb;" horiz-adv-x="560" 
d="M422 0h-95l16 70c-88 -59 -122 -71 -167 -71h-48c-51 0 -68 11 -85 28c-25 25 -28 72 -13 135c12 51 29 81 49 101c34 34 82 48 191 48c49 0 97 -5 127 -16l15 61c15 62 12 77 2 87c-7 7 -17 11 -41 11h-94c-25 0 -38 -2 -47 -11s-15 -28 -27 -69h-100
c20 75 35 107 56 128c28 28 60 38 107 38h146c39 0 66 -10 87 -31c26 -26 33 -67 14 -142zM528 703c-8 -35 -17 -49 -34 -66c-21 -21 -49 -27 -81 -27h-66c-39 0 -55 8 -67 20c-21 21 -23 48 -14 87c8 34 16 48 35 67s48 26 80 26h66c39 0 54 -7 69 -22
c18 -18 21 -46 12 -85zM216 86c43 0 68 12 140 46l25 103h-133c-63 0 -81 -4 -95 -18c-9 -9 -14 -21 -22 -53c-10 -40 -11 -60 -1 -70c6 -6 15 -8 39 -8h47zM380 868v5l113 107h160v-5l-169 -107h-104zM362 666h55c17 0 23 1 30 8c5 5 10 13 15 35c5 23 4 33 -2 39
c-4 4 -7 6 -28 6h-55c-17 0 -23 -1 -29 -7s-11 -14 -16 -36c-5 -23 -4 -33 2 -39c4 -4 7 -6 28 -6z" />
    <glyph glyph-name="aringacute.alt" horiz-adv-x="560" 
d="M422 0h-95l16 70c-88 -59 -122 -71 -167 -71h-48c-51 0 -68 11 -85 28c-25 25 -28 72 -13 135c12 51 29 81 49 101c34 34 82 48 191 48c49 0 97 -5 127 -16l15 61c15 62 12 77 2 87c-7 7 -17 11 -41 11h-94c-25 0 -38 -2 -47 -11s-15 -28 -27 -69h-100
c20 75 35 107 56 128s45 32 76 36c-4 16 -3 35 3 58c8 34 16 48 35 67s48 26 80 26h66c39 0 54 -7 69 -22c18 -18 21 -46 12 -85c-7 -28 -13 -42 -24 -56c8 -4 16 -10 23 -17c26 -26 33 -67 14 -142zM216 86c43 0 68 12 140 46l25 103h-133c-63 0 -81 -4 -95 -18
c-9 -9 -14 -21 -22 -53c-10 -40 -11 -60 -1 -70c6 -6 15 -8 39 -8h47zM353 747v5l113 107h160v-5l-169 -107h-104zM336 545h55c17 0 23 1 30 8c5 5 10 13 15 35c5 23 4 33 -2 39c-4 4 -7 6 -28 6h-55c-17 0 -23 -1 -29 -7s-11 -14 -16 -36c-5 -23 -4 -33 2 -39
c4 -4 7 -6 28 -6z" />
    <glyph glyph-name="Atilde" unicode="&#xc3;" horiz-adv-x="646" 
d="M386 703h74c39 0 48 -7 51 -42l53 -661h-109l-13 198h-267l-109 -198h-117l390 676c13 23 20 27 47 27zM401 605l-173 -314h208l-20 314h-15zM297 758l15 63c6 24 16 41 27 50c9 7 20 13 41 13h10c24 0 40 -4 78 -20l67 -28l40 48h53l-16 -63c-6 -24 -15 -41 -26 -50
c-9 -7 -20 -13 -41 -13h-10c-24 0 -40 4 -78 20l-65 29l-42 -49h-53z" />
    <glyph glyph-name="atilde" unicode="&#xe3;" horiz-adv-x="560" 
d="M422 0h-95l16 70c-88 -59 -122 -71 -167 -71h-48c-51 0 -68 11 -85 28c-25 25 -28 72 -13 135c12 51 29 81 49 101c34 34 82 48 191 48c49 0 97 -5 127 -16l15 61c15 62 12 77 2 87c-7 7 -17 11 -41 11h-94c-25 0 -38 -2 -47 -11s-15 -28 -27 -69h-100
c20 75 35 107 56 128c28 28 60 38 107 38h146c39 0 66 -10 87 -31c26 -26 33 -67 14 -142zM216 86c43 0 68 12 140 46l25 103h-133c-63 0 -81 -4 -95 -18c-9 -9 -14 -21 -22 -53c-10 -40 -11 -60 -1 -70c6 -6 15 -8 39 -8h47zM222 608l15 63c6 24 16 41 27 50
c9 7 20 13 41 13h10c24 0 40 -4 78 -20l67 -28l40 48h53l-16 -63c-6 -24 -15 -41 -26 -50c-9 -7 -20 -13 -41 -13h-10c-24 0 -40 4 -78 20l-65 29l-42 -49h-53z" />
    <glyph glyph-name="AE" unicode="&#xc6;" horiz-adv-x="957" 
d="M-70 0l513 661c22 28 35 39 71 39h504l-24 -95h-355l-48 -194h292l-24 -95h-292l-54 -221h354l-23 -95h-466l54 217h-213l-166 -217h-123zM520 610l-230 -300h165l75 300h-10z" />
    <glyph glyph-name="ae" unicode="&#xe6;" horiz-adv-x="887" 
d="M270 311c49 0 97 -5 127 -16l15 61c15 62 12 77 2 87c-7 7 -17 11 -41 11h-94c-25 0 -38 -2 -47 -11s-15 -28 -27 -69h-100c20 75 35 107 56 128c28 28 60 38 107 38h142c39 0 66 -10 87 -31l3 -4c34 29 74 35 124 35h104c53 0 79 -13 98 -32c34 -34 44 -91 -1 -258
c-2 -8 -7 -14 -16 -14h-326c-23 -102 -20 -126 -10 -136c7 -7 20 -10 45 -10h108c31 0 40 2 50 12c7 7 14 19 27 66h101c-24 -85 -39 -110 -61 -132c-31 -30 -64 -36 -115 -36h-136c-53 0 -79 13 -98 32c-13 12 -21 27 -26 49c-100 -68 -134 -82 -182 -82h-58
c-51 0 -68 11 -85 28c-25 25 -28 72 -13 135c12 51 29 81 49 101c34 34 82 48 191 48zM216 86c45 0 71 14 150 51c2 26 7 58 16 98h-134c-63 0 -81 -4 -95 -18c-9 -9 -14 -21 -22 -53c-10 -40 -11 -60 -1 -70c6 -6 15 -8 39 -8h47zM739 318c19 83 19 111 8 122
c-7 7 -20 10 -45 10h-106c-31 0 -41 -3 -51 -13c-9 -9 -18 -24 -42 -119h236z" />
    <glyph glyph-name="AEacute" unicode="&#x1fc;" horiz-adv-x="957" 
d="M-70 0l513 661c22 28 35 39 71 39h504l-24 -95h-355l-48 -194h292l-24 -95h-292l-54 -221h354l-23 -95h-466l54 217h-213l-166 -217h-123zM520 610l-230 -300h165l75 300h-10zM560 758v5l113 107h160v-5l-169 -107h-104z" />
    <glyph glyph-name="aeacute" unicode="&#x1fd;" horiz-adv-x="887" 
d="M270 311c49 0 97 -5 127 -16l15 61c15 62 12 77 2 87c-7 7 -17 11 -41 11h-94c-25 0 -38 -2 -47 -11s-15 -28 -27 -69h-100c20 75 35 107 56 128c28 28 60 38 107 38h142c39 0 66 -10 87 -31l3 -4c34 29 74 35 124 35h104c53 0 79 -13 98 -32c34 -34 44 -91 -1 -258
c-2 -8 -7 -14 -16 -14h-326c-23 -102 -20 -126 -10 -136c7 -7 20 -10 45 -10h108c31 0 40 2 50 12c7 7 14 19 27 66h101c-24 -85 -39 -110 -61 -132c-31 -30 -64 -36 -115 -36h-136c-53 0 -79 13 -98 32c-13 12 -21 27 -26 49c-100 -68 -134 -82 -182 -82h-58
c-51 0 -68 11 -85 28c-25 25 -28 72 -13 135c12 51 29 81 49 101c34 34 82 48 191 48zM216 86c45 0 71 14 150 51c2 26 7 58 16 98h-134c-63 0 -81 -4 -95 -18c-9 -9 -14 -21 -22 -53c-10 -40 -11 -60 -1 -70c6 -6 15 -8 39 -8h47zM739 318c19 83 19 111 8 122
c-7 7 -20 10 -45 10h-106c-31 0 -41 -3 -51 -13c-9 -9 -18 -24 -42 -119h236zM452 608v5l113 107h160v-5l-169 -107h-104z" />
    <glyph glyph-name="Cacute" unicode="&#x106;" horiz-adv-x="653" 
d="M643 470h-107c17 96 13 112 2 123c-8 8 -20 12 -51 12h-152c-34 0 -48 -6 -58 -16c-11 -11 -31 -37 -81 -239c-51 -206 -41 -231 -28 -244c7 -7 18 -11 47 -11h157c34 0 49 6 59 16c8 8 24 28 53 130h108c-40 -139 -67 -174 -88 -195c-41 -41 -77 -46 -143 -46h-165
c-63 0 -91 12 -111 32c-36 36 -55 104 0 328c56 226 92 268 118 294c41 41 77 46 143 46h160c66 0 95 -13 116 -33c29 -28 41 -76 21 -197zM384 758v5l113 107h160v-5l-169 -107h-104z" />
    <glyph glyph-name="cacute" unicode="&#x107;" horiz-adv-x="541" 
d="M300 0h-136c-51 0 -78 12 -97 31c-35 35 -44 89 -5 249c38 156 59 190 88 219c35 35 77 41 130 41h120c53 0 80 -12 98 -30c29 -29 32 -70 10 -160h-99c11 58 12 80 3 89c-8 8 -18 9 -43 9h-100c-30 0 -41 -3 -51 -13s-20 -27 -54 -165c-32 -131 -29 -157 -19 -167
c8 -8 21 -11 46 -11h104c22 0 34 2 43 11c8 8 18 26 35 94h101c-28 -112 -44 -136 -71 -163c-21 -21 -54 -34 -103 -34zM293 608v5l113 107h160v-5l-169 -107h-104z" />
    <glyph glyph-name="Ccaron" unicode="&#x10c;" horiz-adv-x="653" 
d="M643 470h-107c17 96 13 112 2 123c-8 8 -20 12 -51 12h-152c-34 0 -48 -6 -58 -16c-11 -11 -31 -37 -81 -239c-51 -206 -41 -231 -28 -244c7 -7 18 -11 47 -11h157c34 0 49 6 59 16c8 8 24 28 53 130h108c-40 -139 -67 -174 -88 -195c-41 -41 -77 -46 -143 -46h-165
c-63 0 -91 12 -111 32c-36 36 -55 104 0 328c56 226 92 268 118 294c41 41 77 46 143 46h160c66 0 95 -13 116 -33c29 -28 41 -76 21 -197zM407 880l59 -52l89 52h86v-5l-129 -117h-120l-71 117v5h86z" />
    <glyph glyph-name="ccaron" unicode="&#x10d;" horiz-adv-x="541" 
d="M300 0h-136c-51 0 -78 12 -97 31c-35 35 -44 89 -5 249c38 156 59 190 88 219c35 35 77 41 130 41h120c53 0 80 -12 98 -30c29 -29 32 -70 10 -160h-99c11 58 12 80 3 89c-8 8 -18 9 -43 9h-100c-30 0 -41 -3 -51 -13s-20 -27 -54 -165c-32 -131 -29 -157 -19 -167
c8 -8 21 -11 46 -11h104c22 0 34 2 43 11c8 8 18 26 35 94h101c-28 -112 -44 -136 -71 -163c-21 -21 -54 -34 -103 -34zM316 730l59 -52l89 52h86v-5l-129 -117h-120l-71 117v5h86z" />
    <glyph glyph-name="Ccedilla" unicode="&#xc7;" horiz-adv-x="653" 
d="M643 470h-107c17 96 13 112 2 123c-8 8 -20 12 -51 12h-152c-34 0 -48 -6 -58 -16c-11 -11 -31 -37 -81 -239c-51 -206 -41 -231 -28 -244c7 -7 18 -11 47 -11h157c34 0 49 6 59 16c8 8 24 28 53 130h108c-40 -139 -67 -174 -88 -195c-41 -41 -77 -46 -143 -46h-165
c-63 0 -91 12 -111 32c-36 36 -55 104 0 328c56 226 92 268 118 294c41 41 77 46 143 46h160c66 0 95 -13 116 -33c29 -28 41 -76 21 -197zM236 -90h-40l16 60h47c37 0 55 -4 66 -15c13 -13 16 -34 8 -70c-8 -34 -17 -46 -30 -59c-17 -17 -41 -20 -73 -20h-76l-47 40l5 20
h119c12 0 17 1 21 4s6 9 8 17s2 14 -1 18s-9 5 -23 5z" />
    <glyph glyph-name="ccedilla" unicode="&#xe7;" horiz-adv-x="541" 
d="M300 0h-136c-51 0 -78 12 -97 31c-35 35 -44 89 -5 249c38 156 59 190 88 219c35 35 77 41 130 41h120c53 0 80 -12 98 -30c29 -29 32 -70 10 -160h-99c11 58 12 80 3 89c-8 8 -18 9 -43 9h-100c-30 0 -41 -3 -51 -13s-20 -27 -54 -165c-32 -131 -29 -157 -19 -167
c8 -8 21 -11 46 -11h104c22 0 34 2 43 11c8 8 18 26 35 94h101c-28 -112 -44 -136 -71 -163c-21 -21 -54 -34 -103 -34zM171 -90h-40l16 60h47c37 0 55 -4 66 -15c13 -13 16 -34 8 -70c-8 -34 -17 -46 -30 -59c-17 -17 -41 -20 -73 -20h-76l-47 40l5 20h119c12 0 17 1 21 4
s6 9 8 17s2 14 -1 18s-9 5 -23 5z" />
    <glyph glyph-name="Cdotaccent" unicode="&#x10a;" horiz-adv-x="653" 
d="M643 470h-107c17 96 13 112 2 123c-8 8 -20 12 -51 12h-152c-34 0 -48 -6 -58 -16c-11 -11 -31 -37 -81 -239c-51 -206 -41 -231 -28 -244c7 -7 18 -11 47 -11h157c34 0 49 6 59 16c8 8 24 28 53 130h108c-40 -139 -67 -174 -88 -195c-41 -41 -77 -46 -143 -46h-165
c-63 0 -91 12 -111 32c-36 36 -55 104 0 328c56 226 92 268 118 294c41 41 77 46 143 46h160c66 0 95 -13 116 -33c29 -28 41 -76 21 -197zM397 769l28 111h118l-28 -111h-118z" />
    <glyph glyph-name="cdotaccent" unicode="&#x10b;" horiz-adv-x="541" 
d="M300 0h-136c-51 0 -78 12 -97 31c-35 35 -44 89 -5 249c38 156 59 190 88 219c35 35 77 41 130 41h120c53 0 80 -12 98 -30c29 -29 32 -70 10 -160h-99c11 58 12 80 3 89c-8 8 -18 9 -43 9h-100c-30 0 -41 -3 -51 -13s-20 -27 -54 -165c-32 -131 -29 -157 -19 -167
c8 -8 21 -11 46 -11h104c22 0 34 2 43 11c8 8 18 26 35 94h101c-28 -112 -44 -136 -71 -163c-21 -21 -54 -34 -103 -34zM307 619l28 111h118l-28 -111h-118z" />
    <glyph glyph-name="Dcaron" unicode="&#x10e;" horiz-adv-x="668" 
d="M186 700h273c88 0 129 -15 162 -48c48 -48 50 -148 10 -313c-40 -164 -79 -233 -120 -274c-52 -52 -116 -65 -203 -65h-296zM442 606h-168l-127 -512h184c43 0 77 7 101 31c27 27 49 67 89 225c39 155 39 207 11 235c-18 18 -40 21 -90 21zM391 880l59 -52l89 52h86v-5
l-129 -117h-120l-71 117v5h86z" />
    <glyph glyph-name="dcaron" unicode="&#x10f;" horiz-adv-x="587" 
d="M279 541h46c40 0 63 -14 135 -69l63 248h104l-181 -720h-102l17 70c-92 -66 -113 -71 -161 -71h-47c-53 0 -77 11 -95 29c-32 32 -38 83 1 243c38 156 59 198 90 229c35 35 77 41 130 41zM243 91c43 0 58 7 132 42l70 280c-43 26 -74 36 -97 36h-66c-33 0 -49 -4 -62 -17
c-15 -15 -28 -44 -58 -165s-32 -148 -16 -164c9 -9 26 -12 52 -12h45zM814 800l-19 -75c-13 -52 -27 -74 -64 -113l-60 -62l-32 21l42 81c7 14 11 26 11 46v82l5 20h117z" />
    <glyph glyph-name="Dcroat" unicode="&#x110;" horiz-adv-x="678" 
d="M196 700h273c88 0 129 -15 162 -48c48 -48 50 -148 10 -313c-40 -164 -79 -233 -120 -274c-52 -52 -116 -65 -203 -65h-296l76 307h-94l23 92h94zM452 606h-168l-51 -207h154l-23 -92h-154l-53 -213h184c43 0 77 7 101 31c27 27 49 67 89 225c39 155 39 207 11 235
c-18 18 -40 21 -90 21z" />
    <glyph glyph-name="dcroat" unicode="&#x111;" horiz-adv-x="587" 
d="M279 541h46c40 0 63 -14 135 -69l26 102h-135l20 82h136l16 64h104l-16 -64h80l-20 -82h-81l-144 -574h-102l17 70c-92 -66 -113 -71 -161 -71h-47c-53 0 -77 11 -95 29c-32 32 -38 83 1 243c38 156 59 198 90 229c35 35 77 41 130 41zM243 91c43 0 58 7 132 42l70 280
c-43 26 -74 36 -97 36h-66c-33 0 -49 -4 -62 -17c-15 -15 -28 -44 -58 -165s-32 -148 -16 -164c9 -9 26 -12 52 -12h45z" />
    <glyph glyph-name="Eacute" unicode="&#xc9;" horiz-adv-x="591" 
d="M501 95l-23 -95h-466l174 700h466l-24 -95h-355l-48 -194h292l-24 -95h-292l-54 -221h354zM354 758v5l113 107h160v-5l-169 -107h-104z" />
    <glyph glyph-name="eacute" unicode="&#xe9;" horiz-adv-x="559" 
d="M300 0h-136c-53 0 -79 13 -98 32c-34 34 -42 88 -4 248c38 156 59 190 88 219c35 35 77 41 130 41h120c53 0 79 -13 98 -32c34 -34 44 -91 -1 -258c-2 -8 -7 -14 -16 -14h-326c-23 -102 -20 -126 -10 -136c7 -7 20 -10 45 -10h108c31 0 40 2 50 12c7 7 14 19 27 66h101
c-24 -85 -39 -110 -61 -132c-31 -30 -64 -36 -115 -36zM217 437c-9 -9 -18 -24 -42 -119h236c19 83 19 111 8 122c-7 7 -20 10 -45 10h-106c-31 0 -41 -3 -51 -13zM294 608v5l113 107h160v-5l-169 -107h-104z" />
    <glyph glyph-name="Ebreve" unicode="&#x114;" horiz-adv-x="591" 
d="M501 95l-23 -95h-466l174 700h466l-24 -95h-355l-48 -194h292l-24 -95h-292l-54 -221h354zM438 828c46 0 70 21 86 52h78c-24 -83 -87 -125 -174 -125c-86 0 -134 50 -130 125h76c2 -27 25 -52 64 -52z" />
    <glyph glyph-name="ebreve" unicode="&#x115;" horiz-adv-x="559" 
d="M300 0h-136c-53 0 -79 13 -98 32c-34 34 -42 88 -4 248c38 156 59 190 88 219c35 35 77 41 130 41h120c53 0 79 -13 98 -32c34 -34 44 -91 -1 -258c-2 -8 -7 -14 -16 -14h-326c-23 -102 -20 -126 -10 -136c7 -7 20 -10 45 -10h108c31 0 40 2 50 12c7 7 14 19 27 66h101
c-24 -85 -39 -110 -61 -132c-31 -30 -64 -36 -115 -36zM217 437c-9 -9 -18 -24 -42 -119h236c19 83 19 111 8 122c-7 7 -20 10 -45 10h-106c-31 0 -41 -3 -51 -13zM379 678c46 0 70 21 86 52h78c-24 -83 -87 -125 -174 -125c-86 0 -134 50 -130 125h76c2 -27 25 -52 64 -52z
" />
    <glyph glyph-name="Ecaron" unicode="&#x11a;" horiz-adv-x="591" 
d="M501 95l-23 -95h-466l174 700h466l-24 -95h-355l-48 -194h292l-24 -95h-292l-54 -221h354zM377 880l59 -52l89 52h86v-5l-129 -117h-120l-71 117v5h86z" />
    <glyph glyph-name="ecaron" unicode="&#x11b;" horiz-adv-x="559" 
d="M300 0h-136c-53 0 -79 13 -98 32c-34 34 -42 88 -4 248c38 156 59 190 88 219c35 35 77 41 130 41h120c53 0 79 -13 98 -32c34 -34 44 -91 -1 -258c-2 -8 -7 -14 -16 -14h-326c-23 -102 -20 -126 -10 -136c7 -7 20 -10 45 -10h108c31 0 40 2 50 12c7 7 14 19 27 66h101
c-24 -85 -39 -110 -61 -132c-31 -30 -64 -36 -115 -36zM217 437c-9 -9 -18 -24 -42 -119h236c19 83 19 111 8 122c-7 7 -20 10 -45 10h-106c-31 0 -41 -3 -51 -13zM317 730l59 -52l89 52h86v-5l-129 -117h-120l-71 117v5h86z" />
    <glyph glyph-name="Ecircumflex" unicode="&#xca;" horiz-adv-x="591" 
d="M501 95l-23 -95h-466l174 700h466l-24 -95h-355l-48 -194h292l-24 -95h-292l-54 -221h354zM495 758l-59 52l-89 -52h-86v5l129 117h120l71 -117v-5h-86z" />
    <glyph glyph-name="ecircumflex" unicode="&#xea;" horiz-adv-x="559" 
d="M300 0h-136c-53 0 -79 13 -98 32c-34 34 -42 88 -4 248c38 156 59 190 88 219c35 35 77 41 130 41h120c53 0 79 -13 98 -32c34 -34 44 -91 -1 -258c-2 -8 -7 -14 -16 -14h-326c-23 -102 -20 -126 -10 -136c7 -7 20 -10 45 -10h108c31 0 40 2 50 12c7 7 14 19 27 66h101
c-24 -85 -39 -110 -61 -132c-31 -30 -64 -36 -115 -36zM217 437c-9 -9 -18 -24 -42 -119h236c19 83 19 111 8 122c-7 7 -20 10 -45 10h-106c-31 0 -41 -3 -51 -13zM435 608l-59 52l-89 -52h-86v5l129 117h120l71 -117v-5h-86z" />
    <glyph glyph-name="Edieresis" unicode="&#xcb;" horiz-adv-x="591" 
d="M501 95l-23 -95h-466l174 700h466l-24 -95h-355l-48 -194h292l-24 -95h-292l-54 -221h354zM277 760l27 110h111l-27 -110h-111zM462 760l27 110h111l-27 -110h-111z" />
    <glyph glyph-name="edieresis" unicode="&#xeb;" horiz-adv-x="559" 
d="M300 0h-136c-53 0 -79 13 -98 32c-34 34 -42 88 -4 248c38 156 59 190 88 219c35 35 77 41 130 41h120c53 0 79 -13 98 -32c34 -34 44 -91 -1 -258c-2 -8 -7 -14 -16 -14h-326c-23 -102 -20 -126 -10 -136c7 -7 20 -10 45 -10h108c31 0 40 2 50 12c7 7 14 19 27 66h101
c-24 -85 -39 -110 -61 -132c-31 -30 -64 -36 -115 -36zM217 437c-9 -9 -18 -24 -42 -119h236c19 83 19 111 8 122c-7 7 -20 10 -45 10h-106c-31 0 -41 -3 -51 -13zM217 610l27 110h111l-27 -110h-111zM402 610l27 110h111l-27 -110h-111z" />
    <glyph glyph-name="Edotaccent" unicode="&#x116;" horiz-adv-x="591" 
d="M501 95l-23 -95h-466l174 700h466l-24 -95h-355l-48 -194h292l-24 -95h-292l-54 -221h354zM367 769l28 111h118l-28 -111h-118z" />
    <glyph glyph-name="edotaccent" unicode="&#x117;" horiz-adv-x="559" 
d="M300 0h-136c-53 0 -79 13 -98 32c-34 34 -42 88 -4 248c38 156 59 190 88 219c35 35 77 41 130 41h120c53 0 79 -13 98 -32c34 -34 44 -91 -1 -258c-2 -8 -7 -14 -16 -14h-326c-23 -102 -20 -126 -10 -136c7 -7 20 -10 45 -10h108c31 0 40 2 50 12c7 7 14 19 27 66h101
c-24 -85 -39 -110 -61 -132c-31 -30 -64 -36 -115 -36zM217 437c-9 -9 -18 -24 -42 -119h236c19 83 19 111 8 122c-7 7 -20 10 -45 10h-106c-31 0 -41 -3 -51 -13zM308 619l28 111h118l-28 -111h-118z" />
    <glyph glyph-name="Egrave" unicode="&#xc8;" horiz-adv-x="591" 
d="M501 95l-23 -95h-466l174 700h466l-24 -95h-355l-48 -194h292l-24 -95h-292l-54 -221h354zM481 758h-94l-132 107v5h161l65 -107v-5z" />
    <glyph glyph-name="egrave" unicode="&#xe8;" horiz-adv-x="559" 
d="M300 0h-136c-53 0 -79 13 -98 32c-34 34 -42 88 -4 248c38 156 59 190 88 219c35 35 77 41 130 41h120c53 0 79 -13 98 -32c34 -34 44 -91 -1 -258c-2 -8 -7 -14 -16 -14h-326c-23 -102 -20 -126 -10 -136c7 -7 20 -10 45 -10h108c31 0 40 2 50 12c7 7 14 19 27 66h101
c-24 -85 -39 -110 -61 -132c-31 -30 -64 -36 -115 -36zM217 437c-9 -9 -18 -24 -42 -119h236c19 83 19 111 8 122c-7 7 -20 10 -45 10h-106c-31 0 -41 -3 -51 -13zM421 608h-94l-132 107v5h161l65 -107v-5z" />
    <glyph glyph-name="Emacron" unicode="&#x112;" horiz-adv-x="591" 
d="M501 95l-23 -95h-466l174 700h466l-24 -95h-355l-48 -194h292l-24 -95h-292l-54 -221h354zM275 760l19 85h302l-19 -85h-302z" />
    <glyph glyph-name="emacron" unicode="&#x113;" horiz-adv-x="559" 
d="M300 0h-136c-53 0 -79 13 -98 32c-34 34 -42 88 -4 248c38 156 59 190 88 219c35 35 77 41 130 41h120c53 0 79 -13 98 -32c34 -34 44 -91 -1 -258c-2 -8 -7 -14 -16 -14h-326c-23 -102 -20 -126 -10 -136c7 -7 20 -10 45 -10h108c31 0 40 2 50 12c7 7 14 19 27 66h101
c-24 -85 -39 -110 -61 -132c-31 -30 -64 -36 -115 -36zM217 437c-9 -9 -18 -24 -42 -119h236c19 83 19 111 8 122c-7 7 -20 10 -45 10h-106c-31 0 -41 -3 -51 -13zM215 610l19 85h302l-19 -85h-302z" />
    <glyph glyph-name="Eogonek" unicode="&#x118;" horiz-adv-x="591" 
d="M316 -80c-6 -27 -6 -33 -3 -38s8 -6 21 -6h28c9 0 12 1 15 4c4 3 8 10 18 50h73c-19 -75 -28 -95 -49 -110c-15 -11 -32 -14 -57 -14h-57c-31 0 -51 5 -63 17c-15 16 -17 37 -10 77c5 28 12 43 30 64c9 11 25 24 43 36h-293l174 700h466l-24 -95h-355l-48 -194h292
l-24 -95h-292l-54 -221h354l-23 -95h-104c-13 -10 -33 -27 -41 -37c-8 -9 -11 -18 -17 -43z" />
    <glyph glyph-name="eogonek" unicode="&#x119;" horiz-adv-x="559" 
d="M259 -80c-6 -27 -6 -33 -3 -38s8 -6 21 -6h28c9 0 12 1 15 4c4 3 8 10 18 50h73c-19 -75 -28 -95 -49 -110c-15 -11 -32 -14 -57 -14h-57c-31 0 -51 5 -63 17c-15 16 -17 37 -10 77c5 28 12 43 30 64c9 11 25 24 43 36h-84c-53 0 -79 13 -98 32c-34 34 -42 88 -4 248
c38 156 59 190 88 219c35 35 77 41 130 41h120c53 0 79 -13 98 -32c34 -34 44 -91 -1 -258c-2 -8 -7 -14 -16 -14h-326c-23 -102 -20 -126 -10 -136c7 -7 20 -10 45 -10h108c31 0 40 2 50 12c7 7 14 19 27 66h101c-24 -85 -39 -110 -61 -132c-28 -27 -56 -35 -98 -36
c-12 -10 -33 -27 -41 -37c-8 -9 -11 -18 -17 -43zM217 437c-9 -9 -18 -24 -42 -119h236c19 83 19 111 8 122c-7 7 -20 10 -45 10h-106c-31 0 -41 -3 -51 -13z" />
    <glyph glyph-name="Eth" unicode="&#xd0;" horiz-adv-x="678" 
d="M196 700h273c88 0 129 -15 162 -48c48 -48 50 -148 10 -313c-40 -164 -79 -233 -120 -274c-52 -52 -116 -65 -203 -65h-296l76 307h-94l23 92h94zM452 606h-168l-51 -207h154l-23 -92h-154l-53 -213h184c43 0 77 7 101 31c27 27 49 67 89 225c39 155 39 207 11 235
c-18 18 -40 21 -90 21z" />
    <glyph glyph-name="eth" unicode="&#xf0;" horiz-adv-x="583" 
d="M517 260c-38 -156 -59 -197 -102 -231c-27 -22 -63 -29 -116 -29h-132c-53 0 -82 13 -102 36c-27 32 -40 79 -6 219c33 135 53 175 94 206c29 22 65 29 118 29h48c40 0 62 -14 133 -68c8 40 11 61 11 78c0 23 -11 53 -28 88l-145 -49l18 82l94 32l-35 67h84
c8 -11 19 -25 30 -41l143 49l-18 -81l-83 -29c24 -37 43 -77 43 -109c0 -35 -13 -101 -49 -249zM415 270l23 94c-42 25 -72 34 -95 34h-82c-31 0 -39 -3 -48 -10c-12 -9 -24 -28 -52 -143c-26 -109 -21 -132 -14 -141s22 -12 47 -12h116c31 0 39 3 48 10c13 10 23 30 57 168
z" />
    <glyph glyph-name="Gbreve" unicode="&#x11e;" horiz-adv-x="671" 
d="M494 272h-157l24 95h267c-6 -26 -13 -56 -22 -89c-46 -170 -77 -209 -100 -232c-41 -41 -77 -46 -143 -46h-167c-63 0 -91 12 -111 32c-36 36 -55 104 0 328c56 226 92 268 118 294c41 41 77 46 143 46h170c63 0 91 -12 111 -32c28 -28 39 -73 18 -188h-104
c16 89 10 104 0 114c-7 7 -18 11 -47 11h-159c-34 0 -48 -6 -58 -16c-11 -11 -31 -37 -81 -239c-51 -206 -41 -231 -28 -244c7 -7 18 -11 47 -11h160c34 0 49 6 59 16c9 9 25 31 60 161zM469 828c46 0 70 21 86 52h78c-24 -83 -87 -125 -174 -125c-86 0 -134 50 -130 125h76
c2 -27 25 -52 64 -52z" />
    <glyph glyph-name="gbreve" unicode="&#x11f;" horiz-adv-x="587" 
d="M5 -16h100c-3 -16 -4 -34 3 -41c5 -5 14 -8 34 -8h126c29 0 41 2 49 9c10 8 16 18 28 68l28 113c-91 -65 -112 -70 -160 -70h-36c-50 0 -77 11 -96 30c-35 35 -48 88 -13 224c32 124 53 163 81 191c35 35 77 41 130 41h45c40 0 62 -14 135 -70l18 69h104l-129 -514
c-24 -96 -37 -122 -68 -147c-23 -18 -50 -29 -111 -29h-172c-40 0 -63 9 -80 26c-20 20 -28 46 -16 108zM169 297c-24 -98 -21 -124 -7 -138c10 -10 27 -13 53 -13h41c43 0 57 8 133 43l56 224c-44 26 -74 37 -98 37h-65c-33 0 -49 -4 -62 -17c-14 -14 -27 -42 -51 -136z
M402 678c46 0 70 21 86 52h78c-24 -83 -87 -125 -174 -125c-86 0 -134 50 -130 125h76c2 -27 25 -52 64 -52z" />
    <glyph glyph-name="Gcommaaccent" unicode="&#x122;" horiz-adv-x="671" 
d="M494 272h-157l24 95h267c-6 -26 -13 -56 -22 -89c-46 -170 -77 -209 -100 -232c-41 -41 -77 -46 -143 -46h-167c-63 0 -91 12 -111 32c-36 36 -55 104 0 328c56 226 92 268 118 294c41 41 77 46 143 46h170c63 0 91 -12 111 -32c28 -28 39 -73 18 -188h-104
c16 89 10 104 0 114c-7 7 -18 11 -47 11h-159c-34 0 -48 -6 -58 -16c-11 -11 -31 -37 -81 -239c-51 -206 -41 -231 -28 -244c7 -7 18 -11 47 -11h160c34 0 49 6 59 16c9 9 25 31 60 161zM210 -70h113l-29 -114c-7 -27 -17 -43 -41 -62l-97 -79l-26 27l77 79c7 8 11 15 14 23
l2 6h-43z" />
    <glyph glyph-name="gcommaaccent" unicode="&#x123;" horiz-adv-x="587" 
d="M5 -16h100c-3 -16 -4 -34 3 -41c5 -5 14 -8 34 -8h126c29 0 41 2 49 9c10 8 16 18 28 68l28 113c-91 -65 -112 -70 -160 -70h-36c-50 0 -77 11 -96 30c-35 35 -48 88 -13 224c32 124 53 163 81 191c35 35 77 41 130 41h45c40 0 62 -14 135 -70l18 69h104l-129 -514
c-24 -96 -37 -122 -68 -147c-23 -18 -50 -29 -111 -29h-172c-40 0 -63 9 -80 26c-20 20 -28 46 -16 108zM169 297c-24 -98 -21 -124 -7 -138c10 -10 27 -13 53 -13h41c43 0 57 8 133 43l56 224c-44 26 -74 37 -98 37h-65c-33 0 -49 -4 -62 -17c-14 -14 -27 -42 -51 -136z
M444 617h-113l29 114c7 27 17 43 41 62l97 79l26 -27l-77 -79c-7 -8 -11 -15 -14 -23l-2 -6h43z" />
    <glyph glyph-name="Gdotaccent" unicode="&#x120;" horiz-adv-x="671" 
d="M494 272h-157l24 95h267c-6 -26 -13 -56 -22 -89c-46 -170 -77 -209 -100 -232c-41 -41 -77 -46 -143 -46h-167c-63 0 -91 12 -111 32c-36 36 -55 104 0 328c56 226 92 268 118 294c41 41 77 46 143 46h170c63 0 91 -12 111 -32c28 -28 39 -73 18 -188h-104
c16 89 10 104 0 114c-7 7 -18 11 -47 11h-159c-34 0 -48 -6 -58 -16c-11 -11 -31 -37 -81 -239c-51 -206 -41 -231 -28 -244c7 -7 18 -11 47 -11h160c34 0 49 6 59 16c9 9 25 31 60 161zM398 769l28 111h118l-28 -111h-118z" />
    <glyph glyph-name="gdotaccent" unicode="&#x121;" horiz-adv-x="587" 
d="M5 -16h100c-3 -16 -4 -34 3 -41c5 -5 14 -8 34 -8h126c29 0 41 2 49 9c10 8 16 18 28 68l28 113c-91 -65 -112 -70 -160 -70h-36c-50 0 -77 11 -96 30c-35 35 -48 88 -13 224c32 124 53 163 81 191c35 35 77 41 130 41h45c40 0 62 -14 135 -70l18 69h104l-129 -514
c-24 -96 -37 -122 -68 -147c-23 -18 -50 -29 -111 -29h-172c-40 0 -63 9 -80 26c-20 20 -28 46 -16 108zM169 297c-24 -98 -21 -124 -7 -138c10 -10 27 -13 53 -13h41c43 0 57 8 133 43l56 224c-44 26 -74 37 -98 37h-65c-33 0 -49 -4 -62 -17c-14 -14 -27 -42 -51 -136z
M330 619l28 111h118l-28 -111h-118z" />
    <glyph glyph-name="Hbar" unicode="&#x126;" horiz-adv-x="708" 
d="M736 700l-26 -104h94l-23 -91h-94l-125 -505h-112l78 316h-326l-78 -316h-112l125 505h-94l23 91h94l26 104h112l-26 -104h326l26 104h112zM226 410h326l23 95h-326z" />
    <glyph glyph-name="hbar" unicode="&#x127;" 
d="M110 0h-104l142 574h-80l20 82h81l16 64h104l-16 -64h135l-20 -82h-136l-25 -104c93 62 110 71 156 71h59c35 0 61 -11 81 -31c27 -27 36 -70 17 -145l-92 -365h-104l94 374c7 28 7 49 -5 61c-7 7 -17 14 -50 14h-39c-40 0 -60 -7 -133 -41z" />
    <glyph glyph-name="Iacute" unicode="&#xcd;" horiz-adv-x="282" 
d="M130 0h-112l174 700h112zM193 758v5l113 107h160v-5l-169 -107h-104z" />
    <glyph glyph-name="iacute" unicode="&#xed;" horiz-adv-x="250" 
d="M245 540l-136 -540h-104l136 540h104zM139 608v5l113 107h160v-5l-169 -107h-104z" />
    <glyph glyph-name="Ibreve" unicode="&#x12c;" horiz-adv-x="282" 
d="M130 0h-112l174 700h112zM277 828c46 0 70 21 86 52h78c-24 -83 -87 -125 -174 -125c-86 0 -134 50 -130 125h76c2 -27 25 -52 64 -52z" />
    <glyph glyph-name="ibreve" unicode="&#x12d;" horiz-adv-x="250" 
d="M245 540l-136 -540h-104l136 540h104zM224 678c46 0 70 21 86 52h78c-24 -83 -87 -125 -174 -125c-86 0 -134 50 -130 125h76c2 -27 25 -52 64 -52z" />
    <glyph glyph-name="Icircumflex" unicode="&#xce;" horiz-adv-x="282" 
d="M130 0h-112l174 700h112zM334 758l-59 52l-89 -52h-86v5l129 117h120l71 -117v-5h-86z" />
    <glyph glyph-name="icircumflex" unicode="&#xee;" horiz-adv-x="250" 
d="M245 540l-136 -540h-104l136 540h104zM280 608l-59 52l-89 -52h-86v5l129 117h120l71 -117v-5h-86z" />
    <glyph glyph-name="Idieresis" unicode="&#xcf;" horiz-adv-x="282" 
d="M130 0h-112l174 700h112zM116 760l27 110h111l-27 -110h-111zM301 760l27 110h111l-27 -110h-111z" />
    <glyph glyph-name="idieresis" unicode="&#xef;" horiz-adv-x="250" 
d="M245 540l-136 -540h-104l136 540h104zM62 610l27 110h111l-27 -110h-111zM247 610l27 110h111l-27 -110h-111z" />
    <glyph glyph-name="Idotaccent" unicode="&#x130;" horiz-adv-x="282" 
d="M130 0h-112l174 700h112zM206 769l28 111h118l-28 -111h-118z" />
    <glyph glyph-name="dotlessi" unicode="&#x131;" horiz-adv-x="250" 
d="M245 540l-136 -540h-104l136 540h104z" />
    <glyph glyph-name="Igrave" unicode="&#xcc;" horiz-adv-x="282" 
d="M130 0h-112l174 700h112zM320 758h-94l-132 107v5h161l65 -107v-5z" />
    <glyph glyph-name="igrave" unicode="&#xec;" horiz-adv-x="250" 
d="M245 540l-136 -540h-104l136 540h104zM266 608h-94l-132 107v5h161l65 -107v-5z" />
    <glyph glyph-name="Imacron" unicode="&#x12a;" horiz-adv-x="282" 
d="M130 0h-112l174 700h112zM114 760l19 85h302l-19 -85h-302z" />
    <glyph glyph-name="imacron" unicode="&#x12b;" horiz-adv-x="250" 
d="M245 540l-136 -540h-104l136 540h104zM60 610l19 85h302l-19 -85h-302z" />
    <glyph glyph-name="Iogonek" unicode="&#x12e;" horiz-adv-x="282" 
d="M130 0h-60c-13 -10 -33 -27 -41 -37c-8 -9 -11 -18 -17 -43c-6 -27 -6 -33 -3 -38s8 -6 21 -6h28c9 0 12 1 15 4c4 3 8 10 18 50h73c-19 -75 -28 -95 -49 -110c-15 -11 -32 -14 -57 -14h-57c-31 0 -51 5 -63 17c-15 16 -17 37 -10 77c5 28 12 43 30 64c12 14 38 33 63 49
l171 687h112z" />
    <glyph glyph-name="iogonek" unicode="&#x12f;" horiz-adv-x="250" 
d="M245 540l-136 -540h-52c-13 -10 -33 -27 -41 -37c-8 -9 -11 -18 -17 -43c-6 -27 -6 -33 -3 -38s8 -6 21 -6h28c9 0 12 1 15 4c4 3 8 10 18 50h73c-19 -75 -28 -95 -49 -110c-15 -11 -32 -14 -57 -14h-57c-31 0 -51 5 -63 17c-15 16 -17 37 -10 77c5 28 12 43 30 64
c12 14 38 34 63 50l133 526h104zM300 730l-28 -111h-118l28 111h118z" />
    <glyph glyph-name="Kcommaaccent" unicode="&#x136;" horiz-adv-x="619" 
d="M567 700h130l-342 -342l193 -358h-121l-165 316h-60l-78 -316h-112l174 700h112l-72 -289h51zM195 -70h113l-29 -114c-7 -27 -17 -43 -41 -62l-97 -79l-26 27l77 79c7 8 11 15 14 23l2 6h-43z" />
    <glyph glyph-name="kcommaaccent" unicode="&#x137;" horiz-adv-x="522" 
d="M110 0h-104l179 720h104l-100 -402h36l229 222h125l-283 -272l155 -268h-116l-130 232h-37zM141 -70h113l-29 -114c-7 -27 -17 -43 -41 -62l-97 -79l-26 27l77 79c7 8 11 15 14 23l2 6h-43z" />
    <glyph glyph-name="Lacute" unicode="&#x139;" horiz-adv-x="548" 
d="M298 700l-150 -604h330l-23 -96h-443l174 700h112zM205 758v5l113 107h160v-5l-169 -107h-104z" />
    <glyph glyph-name="lacute" unicode="&#x13a;" horiz-adv-x="250" 
d="M110 0h-104l179 720h104zM190 758v5l113 107h160v-5l-169 -107h-104z" />
    <glyph glyph-name="Lcaron" unicode="&#x13d;" horiz-adv-x="548" 
d="M298 700l-150 -604h330l-23 -96h-443l174 700h112zM499 780l-19 -75c-13 -52 -27 -74 -64 -113l-60 -62l-32 21l42 81c7 14 11 26 11 46v82l5 20h117z" />
    <glyph glyph-name="lcaron" unicode="&#x13e;" horiz-adv-x="250" 
d="M110 0h-104l179 720h104zM477 800l-19 -75c-13 -52 -27 -74 -64 -113l-60 -62l-32 21l42 81c7 14 11 26 11 46v82l5 20h117z" />
    <glyph glyph-name="Lcommaaccent" unicode="&#x13b;" horiz-adv-x="548" 
d="M298 700l-150 -604h330l-23 -96h-443l174 700h112zM166 -70h113l-29 -114c-7 -27 -17 -43 -41 -62l-97 -79l-26 27l77 79c7 8 11 15 14 23l2 6h-43z" />
    <glyph glyph-name="lcommaaccent" unicode="&#x13c;" horiz-adv-x="250" 
d="M110 0h-104l179 720h104zM-14 -70h113l-29 -114c-7 -27 -17 -43 -41 -62l-97 -79l-26 27l77 79c7 8 11 15 14 23l2 6h-43z" />
    <glyph glyph-name="Ldot" unicode="&#x13f;" horiz-adv-x="548" 
d="M298 700l-150 -604h330l-23 -96h-443l174 700h112zM364 324l28 111h118l-28 -111h-118z" />
    <glyph glyph-name="ldot" unicode="&#x140;" horiz-adv-x="361" 
d="M255 304l28 111h118l-28 -111h-118zM110 0h-104l179 720h104z" />
    <glyph glyph-name="Lslash" unicode="&#x141;" horiz-adv-x="562" 
d="M312 700l-69 -279l181 50l-24 -94l-181 -50l-57 -231h330l-23 -96h-443l73 294l-100 -27l24 94l99 27l78 312h112z" />
    <glyph glyph-name="lslash" unicode="&#x142;" horiz-adv-x="270" 
d="M120 0h-104l77 312l-90 -25l23 94l91 25l78 314h104l-71 -284l90 25l-23 -94l-90 -25z" />
    <glyph glyph-name="Nacute" unicode="&#x143;" horiz-adv-x="709" 
d="M737 700l-174 -700h-104c-29 0 -37 6 -44 33l-141 523h-15l-138 -556h-109l174 700h119c29 0 36 -6 43 -33l133 -499h15l132 532h109zM406 758v5l113 107h160v-5l-169 -107h-104z" />
    <glyph glyph-name="nacute" unicode="&#x144;" 
d="M110 0h-104l136 540h102l-18 -71c94 63 111 72 157 72h59c35 0 61 -11 81 -31c27 -27 36 -70 17 -145l-92 -365h-104l94 374c7 28 7 49 -5 61c-7 7 -17 14 -50 14h-39c-39 0 -60 -7 -131 -40zM312 608v5l113 107h160v-5l-169 -107h-104z" />
    <glyph glyph-name="Ncaron" unicode="&#x147;" horiz-adv-x="709" 
d="M737 700l-174 -700h-104c-29 0 -37 6 -44 33l-141 523h-15l-138 -556h-109l174 700h119c29 0 36 -6 43 -33l133 -499h15l132 532h109zM429 880l59 -52l89 52h86v-5l-129 -117h-120l-71 117v5h86z" />
    <glyph glyph-name="ncaron" unicode="&#x148;" 
d="M110 0h-104l136 540h102l-18 -71c94 63 111 72 157 72h59c35 0 61 -11 81 -31c27 -27 36 -70 17 -145l-92 -365h-104l94 374c7 28 7 49 -5 61c-7 7 -17 14 -50 14h-39c-39 0 -60 -7 -131 -40zM335 730l59 -52l89 52h86v-5l-129 -117h-120l-71 117v5h86z" />
    <glyph glyph-name="Ncommaaccent" unicode="&#x145;" horiz-adv-x="709" 
d="M737 700l-174 -700h-104c-29 0 -37 6 -44 33l-141 523h-15l-138 -556h-109l174 700h119c29 0 36 -6 43 -33l133 -499h15l132 532h109zM215 -70h113l-29 -114c-7 -27 -17 -43 -41 -62l-97 -79l-26 27l77 79c7 8 11 15 14 23l2 6h-43z" />
    <glyph glyph-name="ncommaaccent" unicode="&#x146;" 
d="M110 0h-104l136 540h102l-18 -71c94 63 111 72 157 72h59c35 0 61 -11 81 -31c27 -27 36 -70 17 -145l-92 -365h-104l94 374c7 28 7 49 -5 61c-7 7 -17 14 -50 14h-39c-39 0 -60 -7 -131 -40zM159 -70h113l-29 -114c-7 -27 -17 -43 -41 -62l-97 -79l-26 27l77 79
c7 8 11 15 14 23l2 6h-43z" />
    <glyph glyph-name="Ntilde" unicode="&#xd1;" horiz-adv-x="709" 
d="M737 700l-174 -700h-104c-29 0 -37 6 -44 33l-141 523h-15l-138 -556h-109l174 700h119c29 0 36 -6 43 -33l133 -499h15l132 532h109zM326 758l15 63c6 24 16 41 27 50c9 7 20 13 41 13h10c24 0 40 -4 78 -20l67 -28l40 48h53l-16 -63c-6 -24 -15 -41 -26 -50
c-9 -7 -20 -13 -41 -13h-10c-24 0 -40 4 -78 20l-65 29l-42 -49h-53z" />
    <glyph glyph-name="ntilde" unicode="&#xf1;" 
d="M110 0h-104l136 540h102l-18 -71c94 63 111 72 157 72h59c35 0 61 -11 81 -31c27 -27 36 -70 17 -145l-92 -365h-104l94 374c7 28 7 49 -5 61c-7 7 -17 14 -50 14h-39c-39 0 -60 -7 -131 -40zM233 608l15 63c6 24 16 41 27 50c9 7 20 13 41 13h10c24 0 40 -4 78 -20
l67 -28l40 48h53l-16 -63c-6 -24 -15 -41 -26 -50c-9 -7 -20 -13 -41 -13h-10c-24 0 -40 4 -78 20l-65 29l-42 -49h-53z" />
    <glyph glyph-name="Oacute" unicode="&#xd3;" horiz-adv-x="672" 
d="M366 0h-170c-63 0 -91 12 -111 32c-36 36 -55 104 0 328c56 226 92 268 118 294c41 41 77 46 143 46h170c63 0 91 -12 111 -32c36 -36 55 -104 0 -328c-56 -226 -92 -268 -118 -294c-41 -41 -77 -46 -143 -46zM196 350c-51 -206 -41 -231 -28 -244c7 -7 18 -11 47 -11
h162c34 0 48 6 58 16c11 11 31 37 81 239c51 206 41 231 28 244c-7 7 -18 11 -47 11h-162c-34 0 -48 -6 -58 -16c-11 -11 -31 -37 -81 -239zM388 758v5l113 107h160v-5l-169 -107h-104z" />
    <glyph glyph-name="oacute" unicode="&#xf3;" horiz-adv-x="573" 
d="M511 260c-38 -156 -59 -190 -88 -219c-35 -35 -77 -41 -130 -41h-129c-53 0 -79 13 -98 32c-34 34 -42 88 -4 248c38 156 59 190 88 219c35 35 77 41 130 41h129c53 0 79 -13 98 -32c34 -34 43 -88 4 -248zM164 270c-32 -131 -29 -158 -18 -169c7 -7 20 -10 45 -10h113
c31 0 41 3 51 13s20 28 54 166c32 131 29 158 18 169c-7 7 -20 10 -45 10h-113c-31 0 -41 -3 -51 -13s-20 -28 -54 -166zM301 608v5l113 107h160v-5l-169 -107h-104z" />
    <glyph glyph-name="Obreve" unicode="&#x14e;" horiz-adv-x="672" 
d="M366 0h-170c-63 0 -91 12 -111 32c-36 36 -55 104 0 328c56 226 92 268 118 294c41 41 77 46 143 46h170c63 0 91 -12 111 -32c36 -36 55 -104 0 -328c-56 -226 -92 -268 -118 -294c-41 -41 -77 -46 -143 -46zM196 350c-51 -206 -41 -231 -28 -244c7 -7 18 -11 47 -11
h162c34 0 48 6 58 16c11 11 31 37 81 239c51 206 41 231 28 244c-7 7 -18 11 -47 11h-162c-34 0 -48 -6 -58 -16c-11 -11 -31 -37 -81 -239zM472 828c46 0 70 21 86 52h78c-24 -83 -87 -125 -174 -125c-86 0 -134 50 -130 125h76c2 -27 25 -52 64 -52z" />
    <glyph glyph-name="obreve" unicode="&#x14f;" horiz-adv-x="573" 
d="M511 260c-38 -156 -59 -190 -88 -219c-35 -35 -77 -41 -130 -41h-129c-53 0 -79 13 -98 32c-34 34 -42 88 -4 248c38 156 59 190 88 219c35 35 77 41 130 41h129c53 0 79 -13 98 -32c34 -34 43 -88 4 -248zM164 270c-32 -131 -29 -158 -18 -169c7 -7 20 -10 45 -10h113
c31 0 41 3 51 13s20 28 54 166c32 131 29 158 18 169c-7 7 -20 10 -45 10h-113c-31 0 -41 -3 -51 -13s-20 -28 -54 -166zM386 678c46 0 70 21 86 52h78c-24 -83 -87 -125 -174 -125c-86 0 -134 50 -130 125h76c2 -27 25 -52 64 -52z" />
    <glyph glyph-name="Ocircumflex" unicode="&#xd4;" horiz-adv-x="672" 
d="M366 0h-170c-63 0 -91 12 -111 32c-36 36 -55 104 0 328c56 226 92 268 118 294c41 41 77 46 143 46h170c63 0 91 -12 111 -32c36 -36 55 -104 0 -328c-56 -226 -92 -268 -118 -294c-41 -41 -77 -46 -143 -46zM196 350c-51 -206 -41 -231 -28 -244c7 -7 18 -11 47 -11
h162c34 0 48 6 58 16c11 11 31 37 81 239c51 206 41 231 28 244c-7 7 -18 11 -47 11h-162c-34 0 -48 -6 -58 -16c-11 -11 -31 -37 -81 -239zM529 758l-59 52l-89 -52h-86v5l129 117h120l71 -117v-5h-86z" />
    <glyph glyph-name="ocircumflex" unicode="&#xf4;" horiz-adv-x="573" 
d="M511 260c-38 -156 -59 -190 -88 -219c-35 -35 -77 -41 -130 -41h-129c-53 0 -79 13 -98 32c-34 34 -42 88 -4 248c38 156 59 190 88 219c35 35 77 41 130 41h129c53 0 79 -13 98 -32c34 -34 43 -88 4 -248zM164 270c-32 -131 -29 -158 -18 -169c7 -7 20 -10 45 -10h113
c31 0 41 3 51 13s20 28 54 166c32 131 29 158 18 169c-7 7 -20 10 -45 10h-113c-31 0 -41 -3 -51 -13s-20 -28 -54 -166zM442 608l-59 52l-89 -52h-86v5l129 117h120l71 -117v-5h-86z" />
    <glyph glyph-name="Odieresis" unicode="&#xd6;" horiz-adv-x="672" 
d="M366 0h-170c-63 0 -91 12 -111 32c-36 36 -55 104 0 328c56 226 92 268 118 294c41 41 77 46 143 46h170c63 0 91 -12 111 -32c36 -36 55 -104 0 -328c-56 -226 -92 -268 -118 -294c-41 -41 -77 -46 -143 -46zM196 350c-51 -206 -41 -231 -28 -244c7 -7 18 -11 47 -11
h162c34 0 48 6 58 16c11 11 31 37 81 239c51 206 41 231 28 244c-7 7 -18 11 -47 11h-162c-34 0 -48 -6 -58 -16c-11 -11 -31 -37 -81 -239zM311 760l27 110h111l-27 -110h-111zM496 760l27 110h111l-27 -110h-111z" />
    <glyph glyph-name="odieresis" unicode="&#xf6;" horiz-adv-x="573" 
d="M511 260c-38 -156 -59 -190 -88 -219c-35 -35 -77 -41 -130 -41h-129c-53 0 -79 13 -98 32c-34 34 -42 88 -4 248c38 156 59 190 88 219c35 35 77 41 130 41h129c53 0 79 -13 98 -32c34 -34 43 -88 4 -248zM164 270c-32 -131 -29 -158 -18 -169c7 -7 20 -10 45 -10h113
c31 0 41 3 51 13s20 28 54 166c32 131 29 158 18 169c-7 7 -20 10 -45 10h-113c-31 0 -41 -3 -51 -13s-20 -28 -54 -166zM224 610l27 110h111l-27 -110h-111zM409 610l27 110h111l-27 -110h-111z" />
    <glyph glyph-name="Ograve" unicode="&#xd2;" horiz-adv-x="672" 
d="M366 0h-170c-63 0 -91 12 -111 32c-36 36 -55 104 0 328c56 226 92 268 118 294c41 41 77 46 143 46h170c63 0 91 -12 111 -32c36 -36 55 -104 0 -328c-56 -226 -92 -268 -118 -294c-41 -41 -77 -46 -143 -46zM196 350c-51 -206 -41 -231 -28 -244c7 -7 18 -11 47 -11
h162c34 0 48 6 58 16c11 11 31 37 81 239c51 206 41 231 28 244c-7 7 -18 11 -47 11h-162c-34 0 -48 -6 -58 -16c-11 -11 -31 -37 -81 -239zM515 758h-94l-132 107v5h161l65 -107v-5z" />
    <glyph glyph-name="ograve" unicode="&#xf2;" horiz-adv-x="573" 
d="M511 260c-38 -156 -59 -190 -88 -219c-35 -35 -77 -41 -130 -41h-129c-53 0 -79 13 -98 32c-34 34 -42 88 -4 248c38 156 59 190 88 219c35 35 77 41 130 41h129c53 0 79 -13 98 -32c34 -34 43 -88 4 -248zM164 270c-32 -131 -29 -158 -18 -169c7 -7 20 -10 45 -10h113
c31 0 41 3 51 13s20 28 54 166c32 131 29 158 18 169c-7 7 -20 10 -45 10h-113c-31 0 -41 -3 -51 -13s-20 -28 -54 -166zM428 608h-94l-132 107v5h161l65 -107v-5z" />
    <glyph glyph-name="Ohungarumlaut" unicode="&#x150;" horiz-adv-x="672" 
d="M366 0h-170c-63 0 -91 12 -111 32c-36 36 -55 104 0 328c56 226 92 268 118 294c41 41 77 46 143 46h170c63 0 91 -12 111 -32c36 -36 55 -104 0 -328c-56 -226 -92 -268 -118 -294c-41 -41 -77 -46 -143 -46zM196 350c-51 -206 -41 -231 -28 -244c7 -7 18 -11 47 -11
h162c34 0 48 6 58 16c11 11 31 37 81 239c51 206 41 231 28 244c-7 7 -18 11 -47 11h-162c-34 0 -48 -6 -58 -16c-11 -11 -31 -37 -81 -239zM278 758v5l112 107h148v-5l-165 -107h-95zM494 758v5l112 107h148v-5l-165 -107h-95z" />
    <glyph glyph-name="ohungarumlaut" unicode="&#x151;" horiz-adv-x="573" 
d="M511 260c-38 -156 -59 -190 -88 -219c-35 -35 -77 -41 -130 -41h-129c-53 0 -79 13 -98 32c-34 34 -42 88 -4 248c38 156 59 190 88 219c35 35 77 41 130 41h129c53 0 79 -13 98 -32c34 -34 43 -88 4 -248zM164 270c-32 -131 -29 -158 -18 -169c7 -7 20 -10 45 -10h113
c31 0 41 3 51 13s20 28 54 166c32 131 29 158 18 169c-7 7 -20 10 -45 10h-113c-31 0 -41 -3 -51 -13s-20 -28 -54 -166zM191 608v5l112 107h148v-5l-165 -107h-95zM407 608v5l112 107h148v-5l-165 -107h-95z" />
    <glyph glyph-name="Omacron" unicode="&#x14c;" horiz-adv-x="672" 
d="M366 0h-170c-63 0 -91 12 -111 32c-36 36 -55 104 0 328c56 226 92 268 118 294c41 41 77 46 143 46h170c63 0 91 -12 111 -32c36 -36 55 -104 0 -328c-56 -226 -92 -268 -118 -294c-41 -41 -77 -46 -143 -46zM196 350c-51 -206 -41 -231 -28 -244c7 -7 18 -11 47 -11
h162c34 0 48 6 58 16c11 11 31 37 81 239c51 206 41 231 28 244c-7 7 -18 11 -47 11h-162c-34 0 -48 -6 -58 -16c-11 -11 -31 -37 -81 -239zM309 760l19 85h302l-19 -85h-302z" />
    <glyph glyph-name="omacron" unicode="&#x14d;" horiz-adv-x="573" 
d="M511 260c-38 -156 -59 -190 -88 -219c-35 -35 -77 -41 -130 -41h-129c-53 0 -79 13 -98 32c-34 34 -42 88 -4 248c38 156 59 190 88 219c35 35 77 41 130 41h129c53 0 79 -13 98 -32c34 -34 43 -88 4 -248zM164 270c-32 -131 -29 -158 -18 -169c7 -7 20 -10 45 -10h113
c31 0 41 3 51 13s20 28 54 166c32 131 29 158 18 169c-7 7 -20 10 -45 10h-113c-31 0 -41 -3 -51 -13s-20 -28 -54 -166zM222 610l19 85h302l-19 -85h-302z" />
    <glyph glyph-name="Oslash" unicode="&#xd8;" horiz-adv-x="672" 
d="M366 0h-170c-10 0 -19 0 -27 1l-38 -54h-108l61 86c-36 36 -54 105 1 327c56 226 92 268 118 294c41 41 77 46 143 46h170c18 0 32 -1 45 -3l39 56h108l-70 -98c28 -39 38 -115 -11 -315c-56 -226 -92 -268 -118 -294c-41 -41 -77 -46 -143 -46zM196 350
c-35 -139 -42 -196 -38 -222l339 477h-162c-34 0 -48 -6 -58 -16c-11 -11 -31 -37 -81 -239zM516 350c26 105 36 162 38 196l-319 -451h142c34 0 48 6 58 16c11 11 31 37 81 239z" />
    <glyph glyph-name="oslash" unicode="&#xf8;" horiz-adv-x="573" 
d="M511 260c-38 -156 -59 -190 -88 -219c-35 -35 -77 -41 -130 -41h-129c-17 0 -31 1 -43 3l-42 -53h-102l77 96c-24 35 -26 94 8 234c38 156 59 190 88 219c35 35 77 41 130 41h129c17 0 32 -2 44 -4l43 54h102l-79 -97c23 -36 25 -95 -8 -233zM164 270
c-16 -64 -23 -103 -25 -128l244 307h-1h-113c-31 0 -41 -3 -51 -13s-20 -28 -54 -166zM409 270c15 62 22 101 25 125l-243 -304h113c31 0 41 3 51 13s20 28 54 166z" />
    <glyph glyph-name="Oslashacute" unicode="&#x1fe;" horiz-adv-x="672" 
d="M366 0h-170c-10 0 -19 0 -27 1l-38 -54h-108l61 86c-36 36 -54 105 1 327c56 226 92 268 118 294c41 41 77 46 143 46h170c18 0 32 -1 45 -3l39 56h108l-70 -98c28 -39 38 -115 -11 -315c-56 -226 -92 -268 -118 -294c-41 -41 -77 -46 -143 -46zM196 350
c-35 -139 -42 -196 -38 -222l339 477h-162c-34 0 -48 -6 -58 -16c-11 -11 -31 -37 -81 -239zM516 350c26 105 36 162 38 196l-319 -451h142c34 0 48 6 58 16c11 11 31 37 81 239zM397 758v5l113 107h160v-5l-169 -107h-104z" />
    <glyph glyph-name="oslashacute" unicode="&#x1ff;" horiz-adv-x="573" 
d="M511 260c-38 -156 -59 -190 -88 -219c-35 -35 -77 -41 -130 -41h-129c-17 0 -31 1 -43 3l-42 -53h-102l77 96c-24 35 -26 94 8 234c38 156 59 190 88 219c35 35 77 41 130 41h129c17 0 32 -2 44 -4l43 54h102l-79 -97c23 -36 25 -95 -8 -233zM164 270
c-16 -64 -23 -103 -25 -128l244 307h-1h-113c-31 0 -41 -3 -51 -13s-20 -28 -54 -166zM409 270c15 62 22 101 25 125l-243 -304h113c31 0 41 3 51 13s20 28 54 166zM301 608v5l113 107h160v-5l-169 -107h-104z" />
    <glyph glyph-name="Otilde" unicode="&#xd5;" horiz-adv-x="672" 
d="M366 0h-170c-63 0 -91 12 -111 32c-36 36 -55 104 0 328c56 226 92 268 118 294c41 41 77 46 143 46h170c63 0 91 -12 111 -32c36 -36 55 -104 0 -328c-56 -226 -92 -268 -118 -294c-41 -41 -77 -46 -143 -46zM196 350c-51 -206 -41 -231 -28 -244c7 -7 18 -11 47 -11
h162c34 0 48 6 58 16c11 11 31 37 81 239c51 206 41 231 28 244c-7 7 -18 11 -47 11h-162c-34 0 -48 -6 -58 -16c-11 -11 -31 -37 -81 -239zM308 758l15 63c6 24 16 41 27 50c9 7 20 13 41 13h10c24 0 40 -4 78 -20l67 -28l40 48h53l-16 -63c-6 -24 -15 -41 -26 -50
c-9 -7 -20 -13 -41 -13h-10c-24 0 -40 4 -78 20l-65 29l-42 -49h-53z" />
    <glyph glyph-name="otilde" unicode="&#xf5;" horiz-adv-x="573" 
d="M511 260c-38 -156 -59 -190 -88 -219c-35 -35 -77 -41 -130 -41h-129c-53 0 -79 13 -98 32c-34 34 -42 88 -4 248c38 156 59 190 88 219c35 35 77 41 130 41h129c53 0 79 -13 98 -32c34 -34 43 -88 4 -248zM164 270c-32 -131 -29 -158 -18 -169c7 -7 20 -10 45 -10h113
c31 0 41 3 51 13s20 28 54 166c32 131 29 158 18 169c-7 7 -20 10 -45 10h-113c-31 0 -41 -3 -51 -13s-20 -28 -54 -166zM222 608l15 63c6 24 16 41 27 50c9 7 20 13 41 13h10c24 0 40 -4 78 -20l67 -28l40 48h53l-16 -63c-6 -24 -15 -41 -26 -50c-9 -7 -20 -13 -41 -13h-10
c-24 0 -40 4 -78 20l-65 29l-42 -49h-53z" />
    <glyph glyph-name="OE" unicode="&#x152;" horiz-adv-x="987" 
d="M397 700h651l-24 -95h-355l-48 -194h292l-24 -95h-292l-54 -221h354l-23 -95h-628c-88 0 -129 15 -162 48c-48 48 -50 148 -10 313c40 164 79 233 120 274c52 52 116 65 203 65zM263 94h168l127 512h-184c-43 0 -77 -7 -101 -31c-27 -27 -49 -67 -89 -225
c-39 -155 -39 -207 -11 -235c18 -18 40 -21 90 -21z" />
    <glyph glyph-name="oe" unicode="&#x153;" horiz-adv-x="907" 
d="M648 0h-126c-53 0 -79 13 -98 32l-11 12l-3 -3c-35 -35 -77 -41 -130 -41h-116c-53 0 -79 13 -98 32c-34 34 -42 88 -4 248c38 156 59 190 88 219c35 35 77 41 130 41h116c53 0 79 -13 98 -32c4 -4 7 -8 10 -13l4 4c35 35 77 41 130 41h110c53 0 79 -13 98 -32
c34 -34 44 -91 -1 -258c-2 -8 -7 -14 -16 -14h-326c-23 -102 -20 -126 -10 -136c7 -7 20 -10 45 -10h108c31 0 40 2 50 12c7 7 14 19 27 66h101c-24 -85 -39 -110 -61 -132c-31 -30 -64 -36 -115 -36zM164 270c-32 -131 -29 -158 -18 -169c7 -7 20 -10 45 -10h113
c31 0 41 3 51 13s20 28 54 166c32 131 29 158 18 169c-7 7 -20 10 -45 10h-113c-31 0 -41 -3 -51 -13s-20 -28 -54 -166zM565 437c-9 -9 -18 -24 -42 -119h236c21 90 17 112 8 122c-7 7 -20 10 -45 10h-106c-31 0 -41 -3 -51 -13z" />
    <glyph glyph-name="Racute" unicode="&#x154;" horiz-adv-x="661" 
d="M486 605h-212l-56 -225h226c29 0 40 5 46 10c11 9 30 32 47 104c16 69 9 93 0 102c-7 7 -18 9 -51 9zM568 191c-20 -95 -32 -154 -36 -191h-112c3 48 17 114 35 194c11 51 6 66 -6 79c-14 13 -36 17 -84 17h-169l-72 -290h-112l174 700h330c59 0 90 -7 113 -30
c30 -30 43 -76 20 -176c-28 -122 -74 -153 -158 -163v-2c66 -17 97 -42 77 -138zM368 758v5l113 107h160v-5l-169 -107h-104z" />
    <glyph glyph-name="racute" unicode="&#x155;" horiz-adv-x="378" 
d="M109 0h-104l136 540h102l-18 -73c62 51 92 74 134 74h59l-27 -107h-61c-41 0 -71 -4 -117 -21zM231 608v5l113 107h160v-5l-169 -107h-104z" />
    <glyph glyph-name="Rcaron" unicode="&#x158;" horiz-adv-x="661" 
d="M568 191c-20 -95 -32 -154 -36 -191h-112c3 48 17 114 35 194c11 51 6 66 -6 79c-14 13 -36 17 -84 17h-169l-72 -290h-112l174 700h330c59 0 90 -7 113 -30c30 -30 43 -76 20 -176c-28 -122 -74 -153 -158 -163v-2c66 -17 97 -42 77 -138zM486 605h-212l-56 -225h226
c29 0 40 5 46 10c11 9 30 32 47 104c16 69 9 93 0 102c-7 7 -18 9 -51 9zM391 880l59 -52l89 52h86v-5l-129 -117h-120l-71 117v5h86z" />
    <glyph glyph-name="rcaron" unicode="&#x159;" horiz-adv-x="378" 
d="M109 0h-104l136 540h102l-18 -73c62 51 92 74 134 74h59l-27 -107h-61c-41 0 -71 -4 -117 -21zM254 730l59 -52l89 52h86v-5l-129 -117h-120l-71 117v5h86z" />
    <glyph glyph-name="Rcommaaccent" unicode="&#x156;" horiz-adv-x="661" 
d="M486 605h-212l-56 -225h226c29 0 40 5 46 10c11 9 30 32 47 104c16 69 9 93 0 102c-7 7 -18 9 -51 9zM568 191c-20 -95 -32 -154 -36 -191h-112c3 48 17 114 35 194c11 51 6 66 -6 79c-14 13 -36 17 -84 17h-169l-72 -290h-112l174 700h330c59 0 90 -7 113 -30
c30 -30 43 -76 20 -176c-28 -122 -74 -153 -158 -163v-2c66 -17 97 -42 77 -138zM199 -70h113l-29 -114c-7 -27 -17 -43 -41 -62l-97 -79l-26 27l77 79c7 8 11 15 14 23l2 6h-43z" />
    <glyph glyph-name="rcommaaccent" unicode="&#x157;" horiz-adv-x="378" 
d="M109 0h-104l136 540h102l-18 -73c62 51 92 74 134 74h59l-27 -107h-61c-41 0 -71 -4 -117 -21zM-18 -70h113l-29 -114c-7 -27 -17 -43 -41 -62l-97 -79l-26 27l77 79c7 8 11 15 14 23l2 6h-43z" />
    <glyph glyph-name="Sacute" unicode="&#x15a;" horiz-adv-x="641" 
d="M51 220h106c-16 -68 -23 -108 -13 -118c6 -6 13 -7 37 -7h190c29 0 41 2 51 12s19 33 33 90c11 44 13 63 1 75c-8 8 -17 11 -37 15l-178 35c-60 12 -80 20 -102 42c-27 27 -29 64 -11 150c17 80 35 113 65 143c32 32 75 43 128 43h191c53 0 84 -9 103 -28
c32 -32 33 -76 10 -187h-108c14 76 16 102 7 111c-6 6 -13 9 -41 9h-166c-28 0 -40 -2 -50 -12s-18 -34 -31 -84c-11 -44 -11 -63 -1 -73c7 -7 14 -11 39 -16l178 -36c57 -11 81 -22 100 -41c28 -28 34 -67 13 -150c-23 -90 -33 -117 -68 -152c-30 -30 -73 -41 -129 -41
h-222c-53 0 -79 9 -98 28c-29 29 -23 91 3 192zM367 758v5l113 107h160v-5l-169 -107h-104z" />
    <glyph glyph-name="sacute" unicode="&#x15b;" horiz-adv-x="532" 
d="M32 170h92c-8 -37 -14 -65 -5 -75c6 -6 14 -9 35 -9h141c21 0 31 2 37 8c7 7 13 17 23 57c8 32 8 42 0 50c-5 5 -12 9 -29 12l-138 28c-48 9 -70 17 -87 34c-24 24 -23 63 -8 126c13 56 30 85 52 107c24 24 54 32 96 32h172c31 0 55 -8 74 -27c21 -21 30 -59 10 -139h-94
c7 30 12 58 1 69c-7 7 -15 11 -40 11h-118c-19 0 -30 -2 -37 -9c-8 -8 -12 -17 -21 -52c-8 -31 -8 -43 0 -51c5 -5 11 -9 29 -12l138 -26c48 -9 70 -17 87 -34c23 -23 22 -64 7 -127c-13 -56 -33 -92 -53 -112c-24 -24 -55 -31 -95 -31h-197c-31 0 -53 8 -70 25
c-19 19 -28 60 -2 145zM276 608v5l113 107h160v-5l-169 -107h-104z" />
    <glyph glyph-name="Scaron" unicode="&#x160;" horiz-adv-x="641" 
d="M51 220h106c-16 -68 -23 -108 -13 -118c6 -6 13 -7 37 -7h190c29 0 41 2 51 12s19 33 33 90c11 44 13 63 1 75c-8 8 -17 11 -37 15l-178 35c-60 12 -80 20 -102 42c-27 27 -29 64 -11 150c17 80 35 113 65 143c32 32 75 43 128 43h191c53 0 84 -9 103 -28
c32 -32 33 -76 10 -187h-108c14 76 16 102 7 111c-6 6 -13 9 -41 9h-166c-28 0 -40 -2 -50 -12s-18 -34 -31 -84c-11 -44 -11 -63 -1 -73c7 -7 14 -11 39 -16l178 -36c57 -11 81 -22 100 -41c28 -28 34 -67 13 -150c-23 -90 -33 -117 -68 -152c-30 -30 -73 -41 -129 -41
h-222c-53 0 -79 9 -98 28c-29 29 -23 91 3 192zM390 880l59 -52l89 52h86v-5l-129 -117h-120l-71 117v5h86z" />
    <glyph glyph-name="scaron" unicode="&#x161;" horiz-adv-x="532" 
d="M32 170h92c-8 -37 -14 -65 -5 -75c6 -6 14 -9 35 -9h141c21 0 31 2 37 8c7 7 13 17 23 57c8 32 8 42 0 50c-5 5 -12 9 -29 12l-138 28c-48 9 -70 17 -87 34c-24 24 -23 63 -8 126c13 56 30 85 52 107c24 24 54 32 96 32h172c31 0 55 -8 74 -27c21 -21 30 -59 10 -139h-94
c7 30 12 58 1 69c-7 7 -15 11 -40 11h-118c-19 0 -30 -2 -37 -9c-8 -8 -12 -17 -21 -52c-8 -31 -8 -43 0 -51c5 -5 11 -9 29 -12l138 -26c48 -9 70 -17 87 -34c23 -23 22 -64 7 -127c-13 -56 -33 -92 -53 -112c-24 -24 -55 -31 -95 -31h-197c-31 0 -53 8 -70 25
c-19 19 -28 60 -2 145zM299 730l59 -52l89 52h86v-5l-129 -117h-120l-71 117v5h86z" />
    <glyph glyph-name="Scedilla" unicode="&#x15e;" horiz-adv-x="641" 
d="M51 220h106c-16 -68 -23 -108 -13 -118c6 -6 13 -7 37 -7h190c29 0 41 2 51 12s19 33 33 90c11 44 13 63 1 75c-8 8 -17 11 -37 15l-178 35c-60 12 -80 20 -102 42c-27 27 -29 64 -11 150c17 80 35 113 65 143c32 32 75 43 128 43h191c53 0 84 -9 103 -28
c32 -32 33 -76 10 -187h-108c14 76 16 102 7 111c-6 6 -13 9 -41 9h-166c-28 0 -40 -2 -50 -12s-18 -34 -31 -84c-11 -44 -11 -63 -1 -73c7 -7 14 -11 39 -16l178 -36c57 -11 81 -22 100 -41c28 -28 34 -67 13 -150c-23 -90 -33 -117 -68 -152c-30 -30 -73 -41 -129 -41
h-222c-53 0 -79 9 -98 28c-29 29 -23 91 3 192zM232 -90h-40l16 60h47c37 0 55 -4 66 -15c13 -13 16 -34 8 -70c-8 -34 -17 -46 -30 -59c-17 -17 -41 -20 -73 -20h-76l-47 40l5 20h119c12 0 17 1 21 4s6 9 8 17s2 14 -1 18s-9 5 -23 5z" />
    <glyph glyph-name="scedilla" unicode="&#x15f;" horiz-adv-x="532" 
d="M32 170h92c-8 -37 -14 -65 -5 -75c6 -6 14 -9 35 -9h141c21 0 31 2 37 8c7 7 13 17 23 57c8 32 8 42 0 50c-5 5 -12 9 -29 12l-138 28c-48 9 -70 17 -87 34c-24 24 -23 63 -8 126c13 56 30 85 52 107c24 24 54 32 96 32h172c31 0 55 -8 74 -27c21 -21 30 -59 10 -139h-94
c7 30 12 58 1 69c-7 7 -15 11 -40 11h-118c-19 0 -30 -2 -37 -9c-8 -8 -12 -17 -21 -52c-8 -31 -8 -43 0 -51c5 -5 11 -9 29 -12l138 -26c48 -9 70 -17 87 -34c23 -23 22 -64 7 -127c-13 -56 -33 -92 -53 -112c-24 -24 -55 -31 -95 -31h-197c-31 0 -53 8 -70 25
c-19 19 -28 60 -2 145zM172 -90h-40l16 60h47c37 0 55 -4 66 -15c13 -13 16 -34 8 -70c-8 -34 -17 -46 -30 -59c-17 -17 -41 -20 -73 -20h-76l-47 40l5 20h119c12 0 17 1 21 4s6 9 8 17s2 14 -1 18s-9 5 -23 5z" />
    <glyph glyph-name="Scommaaccent" unicode="&#x218;" horiz-adv-x="641" 
d="M51 220h106c-16 -68 -23 -108 -13 -118c6 -6 13 -7 37 -7h190c29 0 41 2 51 12s19 33 33 90c11 44 13 63 1 75c-8 8 -17 11 -37 15l-178 35c-60 12 -80 20 -102 42c-27 27 -29 64 -11 150c17 80 35 113 65 143c32 32 75 43 128 43h191c53 0 84 -9 103 -28
c32 -32 33 -76 10 -187h-108c14 76 16 102 7 111c-6 6 -13 9 -41 9h-166c-28 0 -40 -2 -50 -12s-18 -34 -31 -84c-11 -44 -11 -63 -1 -73c7 -7 14 -11 39 -16l178 -36c57 -11 81 -22 100 -41c28 -28 34 -67 13 -150c-23 -90 -33 -117 -68 -152c-30 -30 -73 -41 -129 -41
h-222c-53 0 -79 9 -98 28c-29 29 -23 91 3 192zM200 -70h113l-29 -114c-7 -27 -17 -43 -41 -62l-97 -79l-26 27l77 79c7 8 11 15 14 23l2 6h-43z" />
    <glyph glyph-name="scommaaccent" unicode="&#x219;" horiz-adv-x="532" 
d="M32 170h92c-8 -37 -14 -65 -5 -75c6 -6 14 -9 35 -9h141c21 0 31 2 37 8c7 7 13 17 23 57c8 32 8 42 0 50c-5 5 -12 9 -29 12l-138 28c-48 9 -70 17 -87 34c-24 24 -23 63 -8 126c13 56 30 85 52 107c24 24 54 32 96 32h172c31 0 55 -8 74 -27c21 -21 30 -59 10 -139h-94
c7 30 12 58 1 69c-7 7 -15 11 -40 11h-118c-19 0 -30 -2 -37 -9c-8 -8 -12 -17 -21 -52c-8 -31 -8 -43 0 -51c5 -5 11 -9 29 -12l138 -26c48 -9 70 -17 87 -34c23 -23 22 -64 7 -127c-13 -56 -33 -92 -53 -112c-24 -24 -55 -31 -95 -31h-197c-31 0 -53 8 -70 25
c-19 19 -28 60 -2 145zM139 -70h113l-29 -114c-7 -27 -17 -43 -41 -62l-97 -79l-26 27l77 79c7 8 11 15 14 23l2 6h-43z" />
    <glyph glyph-name="Tcaron" unicode="&#x164;" horiz-adv-x="586" 
d="M648 605h-216l-150 -605h-112l150 605h-216l24 95h544zM367 880l59 -52l89 52h86v-5l-129 -117h-120l-71 117v5h86z" />
    <glyph glyph-name="tcaron" unicode="&#x165;" horiz-adv-x="381" 
d="M261 450l-80 -317c-4 -17 -4 -27 3 -34c5 -5 12 -8 36 -8h79l-17 -69l-66 -17c-17 -4 -39 -9 -65 -9c-27 0 -49 8 -65 24c-17 17 -26 49 -12 105l82 325h-93l22 90h94l34 134h104l-34 -134h125l-22 -90h-125zM515 844l-19 -75c-13 -52 -27 -74 -64 -113l-60 -62l-32 21
l42 81c7 14 11 26 11 46v82l5 20h117z" />
    <glyph glyph-name="Tcommaaccent" unicode="&#x162;" horiz-adv-x="586" 
d="M648 605h-216l-150 -605h-112l150 605h-216l24 95h544zM153 -70h113l-29 -114c-7 -27 -17 -43 -41 -62l-97 -79l-26 27l77 79c7 8 11 15 14 23l2 6h-43z" />
    <glyph glyph-name="tcommaaccent" unicode="&#x163;" horiz-adv-x="381" 
d="M261 450l-80 -317c-4 -17 -4 -27 3 -34c5 -5 12 -8 36 -8h79l-17 -69l-66 -17c-17 -4 -39 -9 -65 -9c-27 0 -49 8 -65 24c-17 17 -26 49 -12 105l82 325h-93l22 90h94l34 134h104l-34 -134h125l-22 -90h-125zM86 -70h113l-29 -114c-7 -27 -17 -43 -41 -62l-97 -79l-26 27
l77 79c7 8 11 15 14 23l2 6h-43z" />
    <glyph glyph-name="Thorn" unicode="&#xde;" horiz-adv-x="618" 
d="M266 571h192c62 0 100 -8 122 -30c30 -30 52 -86 20 -215c-23 -92 -56 -132 -79 -155c-35 -35 -79 -42 -134 -42h-231l-32 -129h-112l174 700h112zM424 476h-182l-62 -252h203c35 0 51 4 62 15c8 8 27 27 48 111c20 80 9 104 -2 114c-8 8 -22 12 -67 12z" />
    <glyph glyph-name="thorn" unicode="&#xfe;" horiz-adv-x="587" 
d="M72 -150h-104l217 870h104l-62 -249c90 64 112 70 160 70h47c53 0 77 -11 95 -29c32 -32 38 -83 -1 -243c-38 -156 -59 -198 -90 -229c-35 -35 -77 -41 -130 -41h-46c-41 0 -63 14 -136 69zM344 449c-43 0 -59 -7 -133 -42l-70 -281c43 -26 74 -35 98 -35h66
c33 0 49 4 62 17c15 15 28 44 58 165s32 148 16 164c-9 9 -26 12 -52 12h-45z" />
    <glyph glyph-name="Uacute" unicode="&#xda;" horiz-adv-x="694" 
d="M297 700l-102 -410c-33 -131 -29 -160 -14 -175c11 -11 29 -17 108 -17h45c75 0 96 5 112 21c15 15 28 32 60 161l104 420h112l-101 -409c-41 -166 -64 -204 -98 -238c-44 -44 -100 -53 -190 -53h-81c-87 0 -128 14 -156 42c-41 41 -50 93 -9 260l98 398h112zM391 758v5
l113 107h160v-5l-169 -107h-104z" />
    <glyph glyph-name="uacute" unicode="&#xfa;" 
d="M475 540h104l-136 -540h-102l17 70c-93 -62 -111 -71 -156 -71h-59c-35 0 -61 11 -81 31c-27 27 -36 70 -17 145l92 365h104l-94 -374c-7 -28 -7 -49 5 -61c7 -7 17 -14 50 -14h39c39 0 59 6 131 40zM303 608v5l113 107h160v-5l-169 -107h-104z" />
    <glyph glyph-name="Ubreve" unicode="&#x16c;" horiz-adv-x="694" 
d="M297 700l-102 -410c-33 -131 -29 -160 -14 -175c11 -11 29 -17 108 -17h45c75 0 96 5 112 21c15 15 28 32 60 161l104 420h112l-101 -409c-41 -166 -64 -204 -98 -238c-44 -44 -100 -53 -190 -53h-81c-87 0 -128 14 -156 42c-41 41 -50 93 -9 260l98 398h112zM475 828
c46 0 70 21 86 52h78c-24 -83 -87 -125 -174 -125c-86 0 -134 50 -130 125h76c2 -27 25 -52 64 -52z" />
    <glyph glyph-name="ubreve" unicode="&#x16d;" 
d="M475 540h104l-136 -540h-102l17 70c-93 -62 -111 -71 -156 -71h-59c-35 0 -61 11 -81 31c-27 27 -36 70 -17 145l92 365h104l-94 -374c-7 -28 -7 -49 5 -61c7 -7 17 -14 50 -14h39c39 0 59 6 131 40zM388 678c46 0 70 21 86 52h78c-24 -83 -87 -125 -174 -125
c-86 0 -134 50 -130 125h76c2 -27 25 -52 64 -52z" />
    <glyph glyph-name="Ucircumflex" unicode="&#xdb;" horiz-adv-x="694" 
d="M297 700l-102 -410c-33 -131 -29 -160 -14 -175c11 -11 29 -17 108 -17h45c75 0 96 5 112 21c15 15 28 32 60 161l104 420h112l-101 -409c-41 -166 -64 -204 -98 -238c-44 -44 -100 -53 -190 -53h-81c-87 0 -128 14 -156 42c-41 41 -50 93 -9 260l98 398h112zM532 758
l-59 52l-89 -52h-86v5l129 117h120l71 -117v-5h-86z" />
    <glyph glyph-name="ucircumflex" unicode="&#xfb;" 
d="M475 540h104l-136 -540h-102l17 70c-93 -62 -111 -71 -156 -71h-59c-35 0 -61 11 -81 31c-27 27 -36 70 -17 145l92 365h104l-94 -374c-7 -28 -7 -49 5 -61c7 -7 17 -14 50 -14h39c39 0 59 6 131 40zM445 608l-59 52l-89 -52h-86v5l129 117h120l71 -117v-5h-86z" />
    <glyph glyph-name="Udieresis" unicode="&#xdc;" horiz-adv-x="694" 
d="M297 700l-102 -410c-33 -131 -29 -160 -14 -175c11 -11 29 -17 108 -17h45c75 0 96 5 112 21c15 15 28 32 60 161l104 420h112l-101 -409c-41 -166 -64 -204 -98 -238c-44 -44 -100 -53 -190 -53h-81c-87 0 -128 14 -156 42c-41 41 -50 93 -9 260l98 398h112zM314 760
l27 110h111l-27 -110h-111zM499 760l27 110h111l-27 -110h-111z" />
    <glyph glyph-name="udieresis" unicode="&#xfc;" 
d="M475 540h104l-136 -540h-102l17 70c-93 -62 -111 -71 -156 -71h-59c-35 0 -61 11 -81 31c-27 27 -36 70 -17 145l92 365h104l-94 -374c-7 -28 -7 -49 5 -61c7 -7 17 -14 50 -14h39c39 0 59 6 131 40zM412 610l27 110h111l-27 -110h-111zM227 610l27 110h111l-27 -110
h-111z" />
    <glyph glyph-name="Ugrave" unicode="&#xd9;" horiz-adv-x="694" 
d="M297 700l-102 -410c-33 -131 -29 -160 -14 -175c11 -11 29 -17 108 -17h45c75 0 96 5 112 21c15 15 28 32 60 161l104 420h112l-101 -409c-41 -166 -64 -204 -98 -238c-44 -44 -100 -53 -190 -53h-81c-87 0 -128 14 -156 42c-41 41 -50 93 -9 260l98 398h112zM518 758
h-94l-132 107v5h161l65 -107v-5z" />
    <glyph glyph-name="ugrave" unicode="&#xf9;" 
d="M475 540h104l-136 -540h-102l17 70c-93 -62 -111 -71 -156 -71h-59c-35 0 -61 11 -81 31c-27 27 -36 70 -17 145l92 365h104l-94 -374c-7 -28 -7 -49 5 -61c7 -7 17 -14 50 -14h39c39 0 59 6 131 40zM430 608h-94l-132 107v5h161l65 -107v-5z" />
    <glyph glyph-name="Uhungarumlaut" unicode="&#x170;" horiz-adv-x="694" 
d="M297 700l-102 -410c-33 -131 -29 -160 -14 -175c11 -11 29 -17 108 -17h45c75 0 96 5 112 21c15 15 28 32 60 161l104 420h112l-101 -409c-41 -166 -64 -204 -98 -238c-44 -44 -100 -53 -190 -53h-81c-87 0 -128 14 -156 42c-41 41 -50 93 -9 260l98 398h112zM281 758v5
l112 107h148v-5l-165 -107h-95zM497 758v5l112 107h148v-5l-165 -107h-95z" />
    <glyph glyph-name="uhungarumlaut" unicode="&#x171;" 
d="M475 540h104l-136 -540h-102l17 70c-93 -62 -111 -71 -156 -71h-59c-35 0 -61 11 -81 31c-27 27 -36 70 -17 145l92 365h104l-94 -374c-7 -28 -7 -49 5 -61c7 -7 17 -14 50 -14h39c39 0 59 6 131 40zM409 608v5l112 107h148v-5l-165 -107h-95zM193 608v5l112 107h148v-5
l-165 -107h-95z" />
    <glyph glyph-name="Umacron" unicode="&#x16a;" horiz-adv-x="694" 
d="M297 700l-102 -410c-33 -131 -29 -160 -14 -175c11 -11 29 -17 108 -17h45c75 0 96 5 112 21c15 15 28 32 60 161l104 420h112l-101 -409c-41 -166 -64 -204 -98 -238c-44 -44 -100 -53 -190 -53h-81c-87 0 -128 14 -156 42c-41 41 -50 93 -9 260l98 398h112zM312 760
l19 85h302l-19 -85h-302z" />
    <glyph glyph-name="umacron" unicode="&#x16b;" 
d="M475 540h104l-136 -540h-102l17 70c-93 -62 -111 -71 -156 -71h-59c-35 0 -61 11 -81 31c-27 27 -36 70 -17 145l92 365h104l-94 -374c-7 -28 -7 -49 5 -61c7 -7 17 -14 50 -14h39c39 0 59 6 131 40zM224 610l19 85h302l-19 -85h-302z" />
    <glyph glyph-name="Uogonek" unicode="&#x172;" horiz-adv-x="694" 
d="M253 -80c-6 -27 -6 -33 -3 -38s8 -6 21 -6h28c9 0 12 1 15 4c4 3 8 10 18 50h73c-19 -75 -28 -95 -49 -110c-15 -11 -32 -14 -57 -14h-57c-31 0 -51 5 -63 17c-15 16 -17 37 -10 77c5 28 12 43 30 64c9 11 25 24 43 36c-80 1 -119 15 -146 42c-41 41 -50 93 -9 260
l98 398h112l-102 -410c-33 -131 -29 -160 -14 -175c11 -11 29 -17 108 -17h45c75 0 96 5 112 21c15 15 28 32 60 161l104 420h112l-101 -409c-41 -166 -64 -204 -98 -238c-44 -44 -100 -53 -190 -53h-22c-13 -10 -33 -27 -41 -37c-8 -9 -11 -18 -17 -43z" />
    <glyph glyph-name="uogonek" unicode="&#x173;" 
d="M475 540h104l-136 -540h-66c-13 -10 -33 -27 -41 -37c-8 -9 -11 -18 -17 -43c-6 -27 -6 -33 -3 -38s8 -6 21 -6h28c9 0 12 1 15 4c4 3 8 10 18 50h73c-19 -75 -28 -95 -49 -110c-15 -11 -32 -14 -57 -14h-57c-31 0 -51 5 -63 17c-15 16 -17 37 -10 77c5 28 12 43 30 64
c15 18 52 42 82 61l11 45c-93 -62 -111 -71 -156 -71h-59c-35 0 -61 11 -81 31c-27 27 -36 70 -17 145l92 365h104l-94 -374c-7 -28 -7 -49 5 -61c7 -7 17 -14 50 -14h39c39 0 59 6 131 40z" />
    <glyph glyph-name="Uring" unicode="&#x16e;" horiz-adv-x="694" 
d="M297 700l-102 -410c-33 -131 -29 -160 -14 -175c11 -11 29 -17 108 -17h45c75 0 96 5 112 21c15 15 28 32 60 161l104 420h112l-101 -409c-41 -166 -64 -204 -98 -238c-44 -44 -100 -53 -190 -53h-81c-87 0 -128 14 -156 42c-41 41 -50 93 -9 260l98 398h112zM451 816h55
c17 0 23 1 30 8c5 5 10 13 15 35c5 23 4 33 -2 39c-4 4 -7 6 -28 6h-55c-17 0 -23 -1 -29 -7s-11 -14 -16 -36c-5 -23 -4 -33 2 -39c4 -4 7 -6 28 -6zM617 853c-8 -35 -17 -49 -34 -66c-21 -21 -49 -27 -81 -27h-66c-39 0 -55 8 -67 20c-21 21 -23 48 -14 87
c8 34 16 48 35 67s48 26 80 26h66c39 0 54 -7 69 -22c18 -18 21 -46 12 -85z" />
    <glyph glyph-name="uring" unicode="&#x16f;" 
d="M475 540h104l-136 -540h-102l17 70c-93 -62 -111 -71 -156 -71h-59c-35 0 -61 11 -81 31c-27 27 -36 70 -17 145l92 365h104l-94 -374c-7 -28 -7 -49 5 -61c7 -7 17 -14 50 -14h39c39 0 59 6 131 40zM530 703c-8 -35 -17 -49 -34 -66c-21 -21 -49 -27 -81 -27h-66
c-39 0 -55 8 -67 20c-21 21 -23 48 -14 87c8 34 16 48 35 67s48 26 80 26h66c39 0 54 -7 69 -22c18 -18 21 -46 12 -85zM364 666h55c17 0 23 1 30 8c5 5 10 13 15 35c5 23 4 33 -2 39c-4 4 -7 6 -28 6h-55c-17 0 -23 -1 -29 -7s-11 -14 -16 -36c-5 -23 -4 -33 2 -39
c4 -4 7 -6 28 -6z" />
    <glyph glyph-name="Wacute" unicode="&#x1e82;" horiz-adv-x="931" 
d="M534 702h56c46 0 53 -8 53 -41l-7 -520h13l243 559h117l-314 -679c-9 -20 -17 -24 -46 -24h-62c-46 0 -54 5 -53 38l8 516h-13l-253 -528c-10 -22 -19 -26 -46 -26h-64c-46 0 -54 5 -53 38l22 665h112l-29 -559h13l250 528c13 28 24 33 53 33zM517 758v5l113 107h160v-5
l-169 -107h-104z" />
    <glyph glyph-name="wacute" unicode="&#x1e83;" horiz-adv-x="750" 
d="M404 542h58c28 0 40 -9 40 -36l1 -389h10l175 423h107l-233 -514c-9 -20 -21 -28 -43 -28h-69c-31 0 -42 7 -41 38l5 376h-8l-184 -386c-10 -20 -21 -28 -43 -28h-70c-31 0 -42 7 -41 38l21 504h100l-26 -423h10l187 397c10 21 21 28 44 28zM390 608v5l113 107h160v-5
l-169 -107h-104z" />
    <glyph glyph-name="Wcircumflex" unicode="&#x174;" horiz-adv-x="931" 
d="M534 702h56c46 0 53 -8 53 -41l-7 -520h13l243 559h117l-314 -679c-9 -20 -17 -24 -46 -24h-62c-46 0 -54 5 -53 38l8 516h-13l-253 -528c-10 -22 -19 -26 -46 -26h-64c-46 0 -54 5 -53 38l22 665h112l-29 -559h13l250 528c13 28 24 33 53 33zM658 758l-59 52l-89 -52
h-86v5l129 117h120l71 -117v-5h-86z" />
    <glyph glyph-name="wcircumflex" unicode="&#x175;" horiz-adv-x="750" 
d="M404 542h58c28 0 40 -9 40 -36l1 -389h10l175 423h107l-233 -514c-9 -20 -21 -28 -43 -28h-69c-31 0 -42 7 -41 38l5 376h-8l-184 -386c-10 -20 -21 -28 -43 -28h-70c-31 0 -42 7 -41 38l21 504h100l-26 -423h10l187 397c10 21 21 28 44 28zM531 608l-59 52l-89 -52h-86
v5l129 117h120l71 -117v-5h-86z" />
    <glyph glyph-name="Wdieresis" unicode="&#x1e84;" horiz-adv-x="931" 
d="M534 702h56c46 0 53 -8 53 -41l-7 -520h13l243 559h117l-314 -679c-9 -20 -17 -24 -46 -24h-62c-46 0 -54 5 -53 38l8 516h-13l-253 -528c-10 -22 -19 -26 -46 -26h-64c-46 0 -54 5 -53 38l22 665h112l-29 -559h13l250 528c13 28 24 33 53 33zM440 760l27 110h111
l-27 -110h-111zM625 760l27 110h111l-27 -110h-111z" />
    <glyph glyph-name="wdieresis" unicode="&#x1e85;" horiz-adv-x="750" 
d="M404 542h58c28 0 40 -9 40 -36l1 -389h10l175 423h107l-233 -514c-9 -20 -21 -28 -43 -28h-69c-31 0 -42 7 -41 38l5 376h-8l-184 -386c-10 -20 -21 -28 -43 -28h-70c-31 0 -42 7 -41 38l21 504h100l-26 -423h10l187 397c10 21 21 28 44 28zM313 610l27 110h111l-27 -110
h-111zM498 610l27 110h111l-27 -110h-111z" />
    <glyph glyph-name="Wgrave" unicode="&#x1e80;" horiz-adv-x="931" 
d="M534 702h56c46 0 53 -8 53 -41l-7 -520h13l243 559h117l-314 -679c-9 -20 -17 -24 -46 -24h-62c-46 0 -54 5 -53 38l8 516h-13l-253 -528c-10 -22 -19 -26 -46 -26h-64c-46 0 -54 5 -53 38l22 665h112l-29 -559h13l250 528c13 28 24 33 53 33zM644 758h-94l-132 107v5
h161l65 -107v-5z" />
    <glyph glyph-name="wgrave" unicode="&#x1e81;" horiz-adv-x="750" 
d="M404 542h58c28 0 40 -9 40 -36l1 -389h10l175 423h107l-233 -514c-9 -20 -21 -28 -43 -28h-69c-31 0 -42 7 -41 38l5 376h-8l-184 -386c-10 -20 -21 -28 -43 -28h-70c-31 0 -42 7 -41 38l21 504h100l-26 -423h10l187 397c10 21 21 28 44 28zM517 608h-94l-132 107v5h161
l65 -107v-5z" />
    <glyph glyph-name="Yacute" unicode="&#xdd;" horiz-adv-x="595" 
d="M701 700l-344 -420l-69 -280h-112l71 286l-140 414h116l97 -310h8l246 310h127zM346 758v5l113 107h160v-5l-169 -107h-104z" />
    <glyph glyph-name="yacute" unicode="&#xfd;" horiz-adv-x="536" 
d="M82 540h109l48 -391h6l220 391h117l-374 -625c-29 -48 -61 -67 -113 -67c-35 0 -76 4 -106 7l22 86h92c13 0 19 6 27 18l29 47zM285 608v5l113 107h160v-5l-169 -107h-104z" />
    <glyph glyph-name="Ycircumflex" unicode="&#x176;" horiz-adv-x="595" 
d="M701 700l-344 -420l-69 -280h-112l71 286l-140 414h116l97 -310h8l246 310h127zM487 758l-59 52l-89 -52h-86v5l129 117h120l71 -117v-5h-86z" />
    <glyph glyph-name="ycircumflex" unicode="&#x177;" horiz-adv-x="536" 
d="M82 540h109l48 -391h6l220 391h117l-374 -625c-29 -48 -61 -67 -113 -67c-35 0 -76 4 -106 7l22 86h92c13 0 19 6 27 18l29 47zM426 608l-59 52l-89 -52h-86v5l129 117h120l71 -117v-5h-86z" />
    <glyph glyph-name="Ydieresis" unicode="&#x178;" horiz-adv-x="595" 
d="M701 700l-344 -420l-69 -280h-112l71 286l-140 414h116l97 -310h8l246 310h127zM269 760l27 110h111l-27 -110h-111zM454 760l27 110h111l-27 -110h-111z" />
    <glyph glyph-name="ydieresis" unicode="&#xff;" horiz-adv-x="536" 
d="M82 540h109l48 -391h6l220 391h117l-374 -625c-29 -48 -61 -67 -113 -67c-35 0 -76 4 -106 7l22 86h92c13 0 19 6 27 18l29 47zM393 610l27 110h111l-27 -110h-111zM208 610l27 110h111l-27 -110h-111z" />
    <glyph glyph-name="Ygrave" unicode="&#x1ef2;" horiz-adv-x="595" 
d="M701 700l-344 -420l-69 -280h-112l71 286l-140 414h116l97 -310h8l246 310h127zM473 758h-94l-132 107v5h161l65 -107v-5z" />
    <glyph glyph-name="ygrave" unicode="&#x1ef3;" horiz-adv-x="536" 
d="M82 540h109l48 -391h6l220 391h117l-374 -625c-29 -48 -61 -67 -113 -67c-35 0 -76 4 -106 7l22 86h92c13 0 19 6 27 18l29 47zM412 608h-94l-132 107v5h161l65 -107v-5z" />
    <glyph glyph-name="Zacute" unicode="&#x179;" horiz-adv-x="611" 
d="M523 95l-23 -95h-521l17 73l514 532h-362l24 95h506l-17 -73l-515 -532h377zM360 758v5l113 107h160v-5l-169 -107h-104z" />
    <glyph glyph-name="zacute" unicode="&#x17a;" horiz-adv-x="491" 
d="M409 92l-23 -92h-418l14 64l375 384h-263l23 92h408l-13 -58l-381 -390h278zM260 608v5l113 107h160v-5l-169 -107h-104z" />
    <glyph glyph-name="Zcaron" unicode="&#x17d;" horiz-adv-x="611" 
d="M523 95l-23 -95h-521l17 73l514 532h-362l24 95h506l-17 -73l-515 -532h377zM383 880l59 -52l89 52h86v-5l-129 -117h-120l-71 117v5h86z" />
    <glyph glyph-name="zcaron" unicode="&#x17e;" horiz-adv-x="491" 
d="M409 92l-23 -92h-418l14 64l375 384h-263l23 92h408l-13 -58l-381 -390h278zM283 730l59 -52l89 52h86v-5l-129 -117h-120l-71 117v5h86z" />
    <glyph glyph-name="Zdotaccent" unicode="&#x17b;" horiz-adv-x="611" 
d="M523 95l-23 -95h-521l17 73l514 532h-362l24 95h506l-17 -73l-515 -532h377zM373 769l28 111h118l-28 -111h-118z" />
    <glyph glyph-name="zdotaccent" unicode="&#x17c;" horiz-adv-x="491" 
d="M409 92l-23 -92h-418l14 64l375 384h-263l23 92h408l-13 -58l-381 -390h278zM274 619l28 111h118l-28 -111h-118z" />
    <glyph glyph-name="schwa" unicode="&#x259;" horiz-adv-x="559" 
d="M259 540h136c53 0 79 -13 98 -32c34 -34 42 -88 4 -248c-38 -156 -59 -190 -88 -219c-35 -35 -77 -41 -130 -41h-120c-53 0 -79 13 -98 32c-34 34 -44 91 1 258c2 8 7 14 16 14h326c23 101 20 126 10 136c-7 7 -20 10 -45 10h-108c-31 0 -40 -2 -50 -12
c-7 -7 -14 -19 -27 -66h-101c24 85 39 110 61 132c31 30 64 36 115 36zM342 103c8 8 17 24 42 119h-236c-19 -83 -19 -111 -8 -122c7 -7 20 -10 45 -10h106c31 0 41 3 51 13z" />
    <glyph glyph-name="germandbls" unicode="&#xdf;" horiz-adv-x="620" 
d="M52 0l111 450h-89l23 90h89l6 23c18 69 35 96 54 115c31 31 65 42 115 42h120c59 0 90 -8 108 -26c28 -28 33 -73 13 -157c-24 -99 -56 -126 -119 -142v-1c74 -14 95 -60 65 -182c-26 -106 -45 -139 -75 -169c-36 -36 -81 -43 -139 -43h-103l22 88h79c36 0 57 2 68 13
s21 30 44 123c19 79 16 102 6 112c-6 6 -13 11 -53 11h-69l22 91h58c31 0 46 2 55 11c10 10 18 26 33 88c13 54 12 75 2 85c-6 6 -17 11 -52 11h-79c-18 0 -35 -3 -44 -12c-10 -10 -18 -23 -27 -58l-140 -563h-104z" />
    <glyph glyph-name="zero" unicode="0" horiz-adv-x="671" 
d="M335 0h-106c-78 0 -111 9 -136 34c-40 40 -55 123 -6 323c47 189 83 253 120 290c44 44 86 53 169 53h106c78 0 111 -9 136 -34c40 -40 55 -123 6 -323c-47 -189 -83 -253 -120 -290c-44 -44 -86 -53 -169 -53zM476 605h-120c-39 0 -53 -4 -68 -19
c-13 -13 -37 -43 -85 -236s-40 -227 -25 -242c8 -8 20 -13 57 -13h120c39 0 53 4 68 19c13 13 37 43 85 236s40 227 25 242c-8 8 -20 13 -57 13z" />
    <glyph glyph-name="one" unicode="1" horiz-adv-x="374" 
d="M210 0h-112l146 586l-128 -40l-9 92l185 63h92z" />
    <glyph glyph-name="two" unicode="2" horiz-adv-x="621" 
d="M437 602h-86c-38 0 -54 -6 -65 -17c-9 -9 -20 -34 -37 -100h-115c28 107 49 143 75 169c36 36 84 46 149 46h119c65 0 104 -10 125 -31c35 -35 37 -100 23 -161c-15 -67 -35 -104 -67 -136c-30 -30 -69 -46 -132 -69l-185 -70c-19 -7 -53 -20 -70 -37
c-16 -16 -27 -35 -36 -87l-2 -11h395l-24 -98h-504l17 77c24 110 45 148 76 179c36 36 82 55 144 78l182 68c30 11 45 19 56 30c17 17 28 39 38 85c7 33 7 60 -5 72c-10 10 -26 13 -71 13z" />
    <glyph glyph-name="three" unicode="3" horiz-adv-x="649" 
d="M564 194c-17 -67 -39 -114 -75 -150c-35 -35 -79 -44 -139 -44h-156c-65 0 -106 10 -128 32c-36 36 -39 99 -18 194h115c-15 -76 -16 -107 -6 -117c9 -9 22 -14 63 -14h120c35 0 53 4 66 17c9 9 28 38 41 95c13 55 10 85 -1 96c-10 10 -23 14 -63 14h-129l23 92h136
c34 0 52 4 65 17c9 9 26 34 38 81c11 45 7 75 -3 85c-8 8 -20 13 -59 13h-108c-38 0 -58 -2 -71 -17c-11 -12 -23 -42 -37 -99h-115c19 84 39 129 75 165c37 37 84 46 144 46h145c71 0 103 -10 124 -31c34 -34 39 -95 25 -157c-20 -87 -77 -140 -130 -151v-2
c49 -20 84 -61 58 -165z" />
    <glyph glyph-name="four" unicode="4" horiz-adv-x="646" 
d="M425 0h-109l44 177h-341l9 36c8 32 20 54 45 83l292 347c37 44 61 57 99 57h135l-108 -433h118l-22 -90h-118zM467 608h-17l-283 -341h215z" />
    <glyph glyph-name="five" unicode="5" horiz-adv-x="653" 
d="M456 226c17 70 12 98 0 110c-8 8 -23 15 -60 15h-55c-51 0 -89 -6 -158 -43l-83 31l114 361h455l-25 -99h-352l-63 -194l4 -2c59 39 88 41 158 41h33c74 0 108 -12 129 -34c36 -38 44 -95 19 -196c-21 -86 -47 -130 -78 -161c-42 -42 -91 -55 -157 -55h-145
c-60 0 -96 8 -119 31c-32 32 -42 89 -20 179h115c-14 -66 -10 -92 0 -102c9 -9 24 -13 60 -13h107c34 0 59 6 75 22c11 11 28 39 46 109z" />
    <glyph glyph-name="six" unicode="6" horiz-adv-x="647" 
d="M452 604h-87c-44 0 -63 -6 -79 -22c-12 -12 -38 -45 -82 -223c69 46 92 54 134 54h72c63 0 108 -8 136 -36c36 -35 42 -96 19 -188c-18 -71 -40 -107 -69 -136c-40 -40 -89 -53 -153 -53h-98c-91 0 -126 12 -151 37c-41 41 -53 110 -9 309c41 186 84 261 122 299
c47 47 88 55 181 55h95c65 0 97 -12 117 -32c31 -31 40 -77 20 -165h-111c10 55 9 77 -2 88c-9 9 -21 13 -55 13zM281 317c-28 0 -55 -8 -92 -23c-28 -135 -16 -169 -4 -181c11 -12 22 -17 62 -17h94c35 0 56 4 73 21c15 15 26 39 38 89c12 48 13 80 -4 97
c-9 9 -22 14 -61 14h-106z" />
    <glyph glyph-name="seven" unicode="7" horiz-adv-x="574" 
d="M128 601l25 99h483l-19 -75l-447 -625h-125l432 601h-349z" />
    <glyph glyph-name="eight" unicode="8" horiz-adv-x="652" 
d="M252 508c-11 -47 -10 -73 2 -85c10 -9 22 -14 59 -14h107c31 0 50 4 64 18c12 12 23 34 34 83c9 40 10 67 -5 82c-10 10 -27 13 -67 13h-97c-31 0 -55 -4 -69 -18c-13 -13 -18 -35 -28 -79zM450 204c14 56 16 85 2 99c-10 11 -23 16 -60 16h-112c-35 0 -55 -3 -73 -21
c-14 -14 -26 -40 -39 -97c-11 -48 -11 -76 3 -90c12 -11 26 -16 66 -16h103c35 0 56 4 73 21c13 13 25 38 37 88zM345 0h-135c-76 0 -108 15 -131 38c-33 34 -44 89 -26 171c22 101 71 147 136 153v2c-49 21 -72 70 -47 170c15 60 33 91 61 119c36 35 81 47 140 47h144
c71 0 101 -16 123 -37c35 -34 43 -91 25 -162c-22 -87 -66 -128 -126 -137v-2c53 -18 83 -70 53 -182c-18 -65 -34 -99 -64 -129c-38 -38 -89 -51 -153 -51z" />
    <glyph glyph-name="nine" unicode="9" horiz-adv-x="648" 
d="M404 118c11 11 36 43 78 207c-68 -45 -92 -53 -133 -53h-74c-63 0 -108 8 -136 36c-36 35 -42 94 -18 195c19 81 42 115 71 144c40 40 89 53 153 53h100c91 0 126 -12 151 -37c41 -41 53 -110 9 -309c-41 -186 -84 -261 -122 -299c-47 -47 -88 -55 -181 -55h-107
c-65 0 -97 12 -117 32c-30 30 -40 75 -21 160h110c-9 -52 -8 -72 3 -83c9 -9 21 -13 55 -13h100c44 0 63 6 79 22zM234 485c-13 -52 -14 -86 3 -103c9 -9 22 -14 61 -14h108c28 0 55 7 91 23c32 147 20 183 8 196c-11 12 -22 17 -62 17h-96c-35 0 -56 -4 -73 -21
c-15 -15 -27 -44 -40 -98z" />
    <glyph glyph-name="period" unicode="." horiz-adv-x="266" 
d="M35 134h128l-33 -134h-128z" />
    <glyph glyph-name="comma" unicode="," horiz-adv-x="266" 
d="M35 134h127l-32 -128c-7 -29 -19 -47 -45 -68l-108 -88l-29 30l86 88c9 10 12 15 15 25l2 7h-49z" />
    <glyph glyph-name="colon" unicode=":" horiz-adv-x="266" 
d="M35 134h128l-33 -134h-128zM136 540h128l-33 -134h-128z" />
    <glyph glyph-name="semicolon" unicode=";" horiz-adv-x="266" 
d="M35 134h127l-32 -128c-7 -29 -19 -47 -45 -68l-108 -88l-29 30l86 88c9 10 12 15 15 25l2 7h-49zM136 540h128l-33 -134h-128z" />
    <glyph glyph-name="ellipsis" unicode="&#x2026;" horiz-adv-x="848" 
d="M44 130h122l-32 -130h-122zM328 130h122l-32 -130h-122zM612 130h122l-32 -130h-122z" />
    <glyph glyph-name="periodcentered" unicode="&#xb7;" horiz-adv-x="283" 
d="M106 386h128l-33 -134h-128z" />
    <glyph glyph-name="bullet" unicode="&#x2022;" horiz-adv-x="524" 
d="M274 513h78c41 0 55 -4 69 -18c20 -20 22 -51 3 -132c-20 -88 -33 -106 -53 -126s-42 -24 -75 -24h-78c-41 0 -56 4 -68 16c-22 22 -23 53 -4 134c20 88 33 106 53 126c21 21 42 24 75 24z" />
    <glyph glyph-name="ampersand" unicode="&#x26;" horiz-adv-x="700" 
d="M592 500h-106c16 73 16 92 8 100c-6 6 -16 8 -46 8h-22c-37 0 -47 -3 -56 -13c-8 -9 -14 -25 -30 -87c-7 -26 -9 -45 -9 -60c0 -24 7 -47 40 -96l60 -89h8l128 137h124l-205 -216l123 -184h-120l-70 105h-10l-36 -39c-45 -48 -75 -67 -149 -67h-48c-67 0 -99 11 -121 33
c-33 33 -36 79 -13 175c24 101 34 120 59 145s62 39 113 48l15 2c-4 13 -6 27 -6 43c0 22 3 47 10 77c20 87 33 114 57 138c32 32 75 40 140 40h57c54 0 82 -9 98 -25c31 -31 29 -77 7 -175zM223 90c35 0 53 6 83 37l55 58l-99 145l-31 -7c-21 -5 -35 -11 -46 -22
c-10 -10 -20 -30 -36 -94c-17 -71 -16 -92 -4 -104c8 -8 18 -13 64 -13h14z" />
    <glyph glyph-name="exclam" unicode="!" horiz-adv-x="332" 
d="M180 220h-45l60 443l10 37h134l-8 -36zM67 134h127l-32 -134h-127z" />
    <glyph glyph-name="exclamdown" unicode="&#xa1;" horiz-adv-x="332" 
d="M190 480h45l-60 -443l-10 -37h-134l8 36zM303 566h-127l32 134h127z" />
    <glyph glyph-name="question" unicode="?" horiz-adv-x="536" 
d="M138 133h125l-33 -133h-125zM87 478c31 119 49 156 76 183c31 31 75 39 129 39h129c72 0 99 -14 116 -31c30 -30 30 -72 12 -149c-21 -88 -35 -111 -63 -139c-22 -22 -49 -36 -132 -69c-27 -11 -52 -24 -64 -36c-7 -7 -13 -16 -26 -56h-83l7 29c16 65 28 86 44 102
c19 19 47 34 108 58c34 13 58 26 68 36s16 20 29 71c12 49 12 68 3 77c-7 7 -16 10 -51 10h-103c-30 0 -39 -2 -49 -12c-7 -7 -17 -30 -40 -113h-110z" />
    <glyph glyph-name="questiondown" unicode="&#xbf;" horiz-adv-x="536" 
d="M435 567h-125l33 133h125zM376 222h110c-31 -119 -49 -156 -76 -183c-31 -31 -75 -39 -129 -39h-129c-72 0 -99 14 -116 31c-30 30 -30 72 -12 149c21 88 35 111 63 139c22 22 49 36 132 69c27 11 52 24 64 36c7 7 13 16 26 56h83l-7 -29c-16 -65 -28 -86 -44 -102
c-19 -19 -47 -34 -108 -58c-34 -13 -58 -26 -68 -36s-16 -20 -29 -71c-12 -49 -12 -68 -3 -77c7 -7 16 -10 51 -10h103c30 0 39 2 49 12c7 7 17 30 40 113z" />
    <glyph glyph-name="quotedblleft" unicode="&#x201c;" horiz-adv-x="477" 
d="M447 429h-127l32 128c7 29 19 47 45 68l108 88l29 -30l-86 -88c-9 -10 -12 -15 -15 -25l-2 -7h49zM233 429h-127l32 128c7 29 19 47 45 68l108 88l29 -30l-86 -88c-9 -10 -12 -15 -15 -25l-2 -7h49z" />
    <glyph glyph-name="quotedblright" unicode="&#x201d;" horiz-adv-x="477" 
d="M177 700h127l-32 -128c-7 -29 -19 -47 -45 -68l-108 -88l-29 30l86 88c9 10 12 15 15 25l2 7h-49zM391 700h127l-32 -128c-7 -29 -19 -47 -45 -68l-108 -88l-29 30l86 88c9 10 12 15 15 25l2 7h-49z" />
    <glyph glyph-name="quoteleft" unicode="&#x2018;" horiz-adv-x="263" 
d="M233 429h-127l32 128c7 29 19 47 45 68l108 88l29 -30l-86 -88c-9 -10 -12 -15 -15 -25l-2 -7h49z" />
    <glyph glyph-name="quoteright" unicode="&#x2019;" horiz-adv-x="263" 
d="M177 700h127l-32 -128c-7 -29 -19 -47 -45 -68l-108 -88l-29 30l86 88c9 10 12 15 15 25l2 7h-49z" />
    <glyph glyph-name="quotedblbase" unicode="&#x201e;" horiz-adv-x="477" 
d="M35 134h127l-32 -128c-7 -29 -19 -47 -45 -68l-108 -88l-29 30l86 88c9 10 12 15 15 25l2 7h-49zM249 134h127l-32 -128c-7 -29 -19 -47 -45 -68l-108 -88l-29 30l86 88c9 10 12 15 15 25l2 7h-49z" />
    <glyph glyph-name="quotesinglbase" unicode="&#x201a;" horiz-adv-x="263" 
d="M35 134h127l-32 -128c-7 -29 -19 -47 -45 -68l-108 -88l-29 30l86 88c9 10 12 15 15 25l2 7h-49z" />
    <glyph glyph-name="guillemotleft" unicode="&#xab;" horiz-adv-x="638" 
d="M420 86l-111 163l13 64l177 141h125l-214 -182l124 -186h-114zM172 86l-111 163l13 64l177 141h125l-214 -182l124 -186h-114z" />
    <glyph glyph-name="guillemotright" unicode="&#xbb;" horiz-adv-x="638" 
d="M262 86l214 181l-124 187h114l111 -163l-13 -64l-177 -141h-125zM14 86l214 181l-124 187h114l111 -163l-13 -64l-177 -141h-125z" />
    <glyph glyph-name="guilsinglleft" unicode="&#x2039;" horiz-adv-x="390" 
d="M61 249l13 64l177 141h125l-214 -182l124 -186h-114z" />
    <glyph glyph-name="guilsinglright" unicode="&#x203a;" horiz-adv-x="390" 
d="M14 86l214 181l-124 187h114l111 -163l-13 -64l-177 -141h-125z" />
    <glyph glyph-name="hyphen" unicode="-" horiz-adv-x="400" 
d="M340 266h-282l26 106h282z" />
    <glyph glyph-name="endash" unicode="&#x2013;" horiz-adv-x="548" 
d="M478 267h-410l26 104h410z" />
    <glyph glyph-name="emdash" unicode="&#x2014;" horiz-adv-x="982" 
d="M912 268h-844l26 102h844z" />
    <glyph glyph-name="slash" unicode="/" horiz-adv-x="497" 
d="M-44 -160h-109l625 870h109z" />
    <glyph glyph-name="backslash" unicode="\" horiz-adv-x="494" 
d="M331 -160l-191 870h97l191 -870h-97z" />
    <glyph glyph-name="bar" unicode="|" horiz-adv-x="343" 
d="M112 -160h-95l234 940h95z" />
    <glyph glyph-name="parenleft" unicode="(" horiz-adv-x="398" 
d="M99 288c26 105 52 193 64 221c19 46 56 87 175 201h83c-93 -117 -124 -158 -139 -189c-18 -38 -38 -99 -72 -238c-35 -139 -48 -205 -48 -241c0 -31 7 -85 38 -202h-69c-59 117 -76 183 -76 223c0 26 17 120 44 225z" />
    <glyph glyph-name="parenright" unicode=")" horiz-adv-x="398" 
d="M301 262c-26 -105 -52 -193 -64 -221c-19 -46 -56 -87 -175 -201h-83c93 117 124 158 139 189c18 38 38 99 72 238c35 139 48 205 48 241c0 31 -7 85 -38 202h69c59 -117 76 -183 76 -223c0 -26 -17 -120 -44 -225z" />
    <glyph glyph-name="bracketleft" unicode="[" horiz-adv-x="452" 
d="M207 700h288l-21 -87h-188l-168 -676h187l-21 -87h-289z" />
    <glyph glyph-name="bracketright" unicode="]" horiz-adv-x="452" 
d="M459 700l-212 -850h-287l21 87h187l168 676h-186l21 87h288z" />
    <glyph glyph-name="braceleft" unicode="{" horiz-adv-x="454" 
d="M229 545c10 43 35 60 178 165h79c-123 -117 -145 -141 -151 -164c-11 -46 -14 -125 -24 -166c-15 -61 -38 -83 -136 -104v-2c64 -17 88 -43 88 -82c0 -48 -60 -148 -60 -183c0 -23 9 -72 63 -169h-64c-75 86 -103 133 -103 169c0 53 61 154 61 190c0 17 -12 26 -40 33
c-25 6 -52 9 -68 11l16 64c38 4 64 8 82 13c29 8 46 17 53 48c7 33 14 125 26 177z" />
    <glyph glyph-name="braceright" unicode="}" horiz-adv-x="454" 
d="M253 182c-7 -33 -14 -125 -26 -177c-10 -43 -35 -60 -178 -165h-79c123 117 145 141 151 164c11 46 14 125 24 166c15 61 38 83 136 104v2c-64 17 -88 43 -88 82c0 48 60 148 60 183c0 23 -9 72 -63 169h64c75 -86 103 -133 103 -169c0 -53 -61 -154 -61 -190
c0 -17 12 -26 40 -33c25 -6 52 -9 68 -11l-16 -64c-38 -4 -64 -8 -82 -13c-29 -8 -46 -17 -53 -48z" />
    <glyph glyph-name="at" unicode="@" horiz-adv-x="930" 
d="M132 275c-52 -230 -42 -318 -5 -355c20 -20 47 -36 142 -36h389l-7 -34h-389c-111 0 -137 20 -163 46c-42 42 -60 136 -4 379c57 253 104 323 142 361c43 43 94 64 200 64h236c111 0 139 -22 162 -45c44 -44 55 -135 10 -333c-35 -149 -61 -197 -86 -222
c-29 -29 -63 -39 -98 -39h-30c-53 0 -82 16 -113 63c-78 -57 -85 -62 -125 -62h-33c-42 0 -62 9 -75 22c-26 26 -35 68 -4 196c31 125 49 156 77 184c27 27 61 32 103 32h22c33 0 51 -13 115 -61l36 61h63l-34 -110l-56 -226c-5 -22 -4 -40 9 -52c4 -4 14 -10 44 -10
c38 0 55 3 75 23s40 61 73 201c43 189 37 270 -4 311c-17 17 -42 33 -137 33h-235c-92 0 -130 -13 -172 -55c-35 -35 -76 -101 -128 -336zM417 137c35 0 46 5 107 34l56 221c-36 21 -60 29 -79 29h-36c-27 0 -39 -2 -50 -13c-12 -12 -25 -35 -49 -131
c-24 -97 -23 -118 -10 -131c7 -7 21 -9 42 -9h19z" />
    <glyph glyph-name="copyright" unicode="&#xa9;" horiz-adv-x="788" 
d="M488 297h63c-22 -76 -37 -95 -49 -107c-21 -21 -42 -25 -78 -25h-94c-34 0 -50 7 -61 18c-20 20 -30 56 0 180c31 124 51 148 65 162c23 23 42 25 79 25h91c36 0 53 -7 64 -18c16 -16 22 -42 11 -108h-62c10 52 9 58 2 65c-4 4 -10 6 -28 6h-81c-18 0 -25 -3 -31 -9
s-18 -17 -46 -129c-27 -112 -21 -123 -14 -130c5 -5 10 -7 26 -7h83c19 0 26 3 32 9c5 5 13 12 28 68zM142 350c-39 -172 -28 -250 7 -285c22 -22 45 -36 142 -36h113c88 0 125 9 162 46c35 35 81 99 120 275c39 172 28 250 -7 285c-22 22 -45 36 -142 36h-113
c-88 0 -125 -9 -162 -46c-35 -35 -81 -99 -120 -275zM719 350c-44 -190 -91 -254 -123 -286c-44 -44 -90 -64 -192 -64h-117c-111 0 -138 20 -162 44c-41 41 -57 126 -16 306c44 190 91 254 123 286c44 44 90 64 192 64h117c111 0 138 -20 162 -44c41 -41 57 -126 16 -306z
" />
    <glyph glyph-name="published" unicode="&#x2117;" horiz-adv-x="788" 
d="M580 415c-13 -50 -30 -73 -43 -86c-19 -19 -44 -23 -74 -23h-127l-35 -141h-65l95 385h171c34 0 54 -4 67 -17c16 -16 29 -47 11 -118zM479 495h-97l-33 -134h109c19 0 27 2 34 9c4 4 14 13 26 59c11 43 4 53 -2 59c-5 5 -12 7 -37 7zM142 350c-39 -172 -28 -250 7 -285
c22 -22 45 -36 142 -36h113c88 0 125 9 162 46c35 35 81 99 120 275c39 172 28 250 -7 285c-22 22 -45 36 -142 36h-113c-88 0 -125 -9 -162 -46c-35 -35 -81 -99 -120 -275zM719 350c-44 -190 -91 -254 -123 -286c-44 -44 -90 -64 -192 -64h-117c-111 0 -138 20 -162 44
c-41 41 -57 126 -16 306c44 190 91 254 123 286c44 44 90 64 192 64h117c111 0 138 -20 162 -44c41 -41 57 -126 16 -306z" />
    <glyph glyph-name="registered.alt" horiz-adv-x="788" 
d="M518 165h-65c2 27 9 63 19 107c6 28 4 34 -3 41c-8 8 -19 10 -46 10h-90l-39 -158h-65l96 385h184c32 0 50 -4 63 -17c16 -16 23 -42 10 -96c-15 -68 -41 -85 -87 -90v-1c36 -9 54 -23 43 -76c-11 -52 -17 -85 -20 -105zM346 375h120c16 0 23 2 28 7s14 15 24 55
c9 38 4 48 -1 53c-4 4 -11 5 -28 5h-114zM142 350c-39 -172 -28 -250 7 -285c22 -22 45 -36 142 -36h113c88 0 125 9 162 46c35 35 81 99 120 275c39 172 28 250 -7 285c-22 22 -45 36 -142 36h-113c-88 0 -125 -9 -162 -46c-35 -35 -81 -99 -120 -275zM719 350
c-44 -190 -91 -254 -123 -286c-44 -44 -90 -64 -192 -64h-117c-111 0 -138 20 -162 44c-41 41 -57 126 -16 306c44 190 91 254 123 286c44 44 90 64 192 64h117c111 0 138 -20 162 -44c41 -41 57 -126 16 -306z" />
    <glyph glyph-name="registered" unicode="&#xae;" horiz-adv-x="416" 
d="M326 406h-36c1 14 4 32 10 56c3 16 2 20 -2 24c-5 5 -11 5 -26 5h-49l-20 -85h-36l52 211h102c18 0 27 -2 34 -9c9 -9 13 -23 6 -53c-9 -37 -22 -46 -48 -49v-1c20 -5 30 -13 24 -41c-6 -29 -10 -47 -11 -58zM309 586h-62l-16 -65h66c9 0 12 1 15 4s8 8 13 30
c5 21 3 25 0 28c-2 2 -6 3 -16 3zM438 508c-24 -104 -48 -138 -68 -158c-25 -25 -49 -36 -106 -36h-65c-55 0 -75 8 -92 25c-22 22 -34 70 -11 167c24 104 48 138 68 158c25 25 49 36 106 36h65c55 0 75 -8 92 -25c22 -22 34 -70 11 -167zM120 507c-22 -94 -14 -135 4 -153
c10 -10 24 -19 75 -19h67c47 0 66 6 88 28c18 18 39 50 60 144c22 94 14 135 -4 153c-10 10 -24 19 -75 19h-67c-47 0 -66 -6 -88 -28c-18 -18 -39 -50 -60 -144z" />
    <glyph glyph-name="servicemark" unicode="&#x2120;" horiz-adv-x="850" 
d="M921 700l-96 -385h-65l81 324h-8l-164 -307c-8 -14 -11 -17 -26 -17h-34c-21 0 -25 4 -25 25l-12 305h-9l-83 -330h-60l96 385h86c20 0 24 -7 25 -25l12 -277h8l145 283c7 14 14 19 29 19h100zM400 582h-63c8 41 9 54 4 59c-3 3 -7 5 -22 5h-88c-15 0 -21 -1 -27 -7
s-10 -17 -17 -44c-6 -24 -7 -34 -1 -39c4 -4 8 -7 21 -9l98 -20c31 -6 44 -12 55 -23c15 -15 18 -37 7 -82c-13 -50 -19 -64 -38 -84c-16 -17 -40 -23 -70 -23h-125c-29 0 -44 5 -54 16c-16 16 -13 50 2 106h61c-9 -38 -12 -58 -7 -64c3 -4 7 -4 20 -4h102c16 0 23 1 27 6
c6 6 10 17 18 49c6 24 7 34 1 40c-5 5 -10 6 -21 8l-97 19c-33 6 -44 11 -56 23c-15 15 -16 36 -6 84c9 44 19 62 36 78c18 17 41 24 70 24h108c29 0 46 -5 56 -15c18 -18 19 -42 6 -103z" />
    <glyph glyph-name="trademark" unicode="&#x2122;" horiz-adv-x="837" 
d="M420 647h-112l-83 -332h-64l83 332h-113l13 53h289zM908 700l-96 -385h-65l81 324h-8l-164 -307c-8 -14 -11 -17 -26 -17h-34c-21 0 -25 4 -25 25l-12 305h-9l-83 -330h-60l96 385h86c20 0 24 -7 25 -25l12 -277h8l145 283c7 14 14 19 29 19h100z" />
    <glyph glyph-name="asterisk" unicode="*" horiz-adv-x="512" 
d="M171 429l102 77l29 -28l-74 -104zM160 612l117 -50l-9 -39l-127 11zM236 691l77 22l16 -126l-39 -11zM412 369l-77 -22l-16 126l39 11zM507 526l-19 -78l-117 50l9 39zM477 631l-102 -77l-29 28l74 104z" />
    <glyph glyph-name="dagger" unicode="&#x2020;" horiz-adv-x="472" 
d="M149 576l112 -26l-10 -40l-124 -26zM476 576l-22 -92l-113 26l10 40zM394 700l-59 -130h-48l7 130h100zM309 377l-89 -260h-44l41 260l50 113h48z" />
    <glyph glyph-name="daggerdbl" unicode="&#x2021;" horiz-adv-x="486" 
d="M156 576l112 -26l-10 -40l-124 -26zM483 576l-22 -92l-113 26l10 40zM401 700l-59 -130h-48l7 130h100zM44 124l22 92l112 -26l-10 -40zM371 124l-113 26l10 40l125 26zM226 0h-100l58 130h48zM308 350l-55 -140h-50l15 140l56 140h48z" />
    <glyph glyph-name="dollar" unicode="$" horiz-adv-x="636" 
d="M51 220h105c-16 -68 -23 -108 -13 -118c6 -6 13 -7 37 -7h54l55 217l-48 10c-60 12 -80 20 -102 42c-27 27 -29 64 -11 150c17 80 35 113 65 143c32 32 75 43 128 43h61l20 80h91l-20 -80h31c53 0 84 -9 103 -28c32 -32 33 -76 10 -187h-107c14 76 16 102 7 111
c-6 6 -13 9 -41 9h-31l-53 -211l52 -11c57 -11 81 -22 100 -41c28 -28 34 -66 13 -149c-23 -90 -33 -117 -68 -152c-30 -30 -73 -41 -129 -41h-62l-22 -90h-91l22 90h-61c-53 0 -79 9 -98 28c-29 29 -23 91 3 192zM412 287l-44 9l-50 -201h46c29 0 41 2 51 12s19 33 33 90
c11 44 13 63 1 75c-8 8 -17 11 -37 15zM235 435c7 -7 14 -11 39 -16l39 -9l49 195h-46c-28 0 -40 -2 -50 -12s-18 -34 -31 -84c-11 -44 -10 -64 0 -74z" />
    <glyph glyph-name="sterling" unicode="&#xa3;" horiz-adv-x="656" 
d="M551 95l-23 -95h-543l23 95h92l46 186h-92l23 91h92l27 105c29 114 52 151 77 176c37 37 82 49 140 49h109c64 0 94 -12 112 -30c37 -37 38 -84 10 -197h-107c20 81 19 106 6 119c-8 8 -19 12 -53 12h-84c-26 0 -44 -5 -55 -16s-26 -32 -45 -113l-26 -105h197l-23 -91
h-197l-46 -186h340z" />
    <glyph glyph-name="Euro" unicode="&#x20ac;" horiz-adv-x="669" 
d="M505 241h107c-40 -139 -67 -174 -88 -195c-41 -41 -77 -46 -143 -46h-135c-63 0 -91 12 -111 32c-27 26 -44 70 -30 181h-76l23 92h70c3 17 8 35 13 55l10 41h-70l23 92h74c35 112 61 141 81 161c41 41 77 46 143 46h130c66 0 95 -13 116 -33c29 -28 41 -76 21 -197h-106
c17 96 13 112 2 123c-8 8 -20 12 -51 12h-125c-34 0 -48 -6 -58 -16c-8 -8 -20 -24 -42 -96h171l-23 -92h-174c-4 -16 -9 -33 -13 -51l-11 -45h175l-23 -92h-172c-14 -83 -7 -98 3 -107c7 -7 18 -11 47 -11h130c34 0 49 6 59 16c8 8 24 28 53 130z" />
    <glyph glyph-name="yen" unicode="&#xa5;" horiz-adv-x="660" 
d="M721 700l-292 -369h141l-23 -92h-170l-59 -239h-112l59 239h-173l23 92h148l-116 369h116l89 -308h8l234 308h127z" />
    <glyph glyph-name="cent" unicode="&#xa2;" horiz-adv-x="538" 
d="M251 -2h-85l23 93h-5c-51 0 -78 12 -97 31c-34 34 -45 87 -7 241c36 149 58 183 86 211c35 35 77 41 130 41h24l22 87h85l-23 -87h12c53 0 80 -12 98 -30c29 -29 32 -70 10 -160h-97c11 58 14 82 5 91c-8 8 -18 9 -43 9h-11l-85 -344h24c22 0 34 2 43 11c8 8 18 28 35 96
h99c-28 -112 -44 -136 -71 -163c-21 -21 -54 -34 -103 -34h-46zM180 354c-30 -125 -28 -152 -18 -162c8 -8 21 -11 46 -11h7l86 344h-18c-30 0 -41 -3 -51 -13s-20 -28 -52 -158z" />
    <glyph glyph-name="numbersign" unicode="#" horiz-adv-x="737" 
d="M160 537h130l74 163h99l-74 -163h160l74 163h99l-74 -163h109l-19 -89h-130l-82 -180h109l-18 -89h-131l-81 -179h-99l81 179h-160l-82 -179h-99l81 179h-107l18 89h130l81 180h-108zM346 452l-85 -188h168l85 188h-168z" />
    <glyph glyph-name="paragraph" unicode="&#xb6;" horiz-adv-x="551" 
d="M357 258h-114c-62 0 -100 8 -122 30c-30 30 -52 86 -20 215c23 92 56 132 79 155c35 35 79 42 134 42h265l-174 -700h-112z" />
    <glyph glyph-name="section" unicode="&#xa7;" horiz-adv-x="644" 
d="M106 160h101c-8 -44 -7 -57 1 -65c6 -6 13 -8 40 -8h53c33 0 43 3 52 12c8 8 12 23 18 43c7 23 7 36 -1 44c-5 5 -16 9 -41 14l-121 24c-80 16 -102 23 -122 43c-22 22 -30 55 -16 112c13 56 26 77 45 96c20 20 46 29 84 32c0 15 3 32 9 54c11 46 23 72 50 99
c31 31 72 41 137 41h76c57 0 80 -7 96 -23c24 -24 27 -57 10 -138h-101c8 44 7 57 -1 65c-6 6 -13 8 -40 8h-53c-33 0 -43 -3 -52 -12c-8 -8 -12 -23 -18 -43c-7 -23 -7 -37 -1 -43c7 -7 18 -10 43 -15l121 -25c80 -16 103 -24 121 -42c24 -24 30 -55 17 -112
c-13 -56 -27 -78 -45 -96c-21 -21 -47 -29 -85 -32c0 -15 -3 -33 -8 -54c-11 -46 -24 -73 -50 -99c-32 -32 -72 -41 -137 -41h-76c-57 0 -80 7 -95 22c-27 27 -28 58 -11 139zM237 315l199 -42c32 -7 50 -4 60 6c7 7 11 13 16 31c7 25 7 43 -3 53c-9 9 -21 13 -63 22
l-199 42c-32 7 -50 4 -60 -6c-6 -6 -9 -10 -16 -31c-8 -25 -8 -42 4 -54c8 -8 20 -12 62 -21z" />
    <glyph glyph-name="ordfeminine" unicode="&#xaa;" horiz-adv-x="493" 
d="M417 315h-71l10 45c-55 -39 -74 -46 -104 -46h-38c-43 0 -59 5 -75 21c-15 15 -21 45 -9 96c9 40 22 62 39 79c22 22 57 34 139 34c31 0 67 -4 89 -12l9 36c10 39 11 52 5 58c-5 5 -12 7 -34 7h-75c-13 0 -20 -1 -25 -6c-4 -4 -7 -12 -16 -46h-77c15 57 26 78 41 93
c20 20 43 26 78 26h96c51 0 66 -8 79 -21c19 -19 20 -42 4 -106zM66 166l15 66h317l-16 -66h-316zM269 381c28 0 53 8 98 30l18 73h-96c-46 0 -55 0 -64 -9c-6 -6 -11 -18 -17 -42c-7 -29 -5 -40 0 -45s13 -7 32 -7h29z" />
    <glyph glyph-name="ordmasculine" unicode="&#xba;" horiz-adv-x="532" 
d="M500 509c-24 -102 -42 -133 -68 -159c-28 -28 -56 -35 -101 -35h-89c-51 0 -68 8 -83 23c-27 28 -29 75 -7 168c24 102 42 133 68 159c28 28 56 35 101 35h89c51 0 68 -8 83 -23c27 -28 29 -75 7 -168zM70 165l16 67h343l-16 -67h-343zM238 506c-20 -78 -16 -102 -9 -109
c5 -5 12 -9 39 -9h65c25 0 33 3 41 11c7 7 18 24 40 110c20 78 16 102 9 109c-5 5 -12 9 -39 9h-65c-25 0 -33 -3 -41 -11c-7 -7 -18 -24 -40 -110z" />
    <glyph glyph-name="degree" unicode="&#xb0;" horiz-adv-x="426" 
d="M209 533c-15 -61 -15 -81 -7 -89c3 -3 8 -7 34 -7h46c22 0 28 2 35 9c6 6 16 23 32 87c15 61 15 81 7 89c-3 3 -8 7 -34 7h-46c-22 0 -28 -2 -35 -9c-6 -6 -16 -23 -32 -87zM426 526c-21 -85 -35 -104 -58 -127c-25 -25 -54 -33 -93 -33h-63c-42 0 -59 8 -73 22
c-25 25 -29 62 -7 152c21 85 35 104 58 127c25 25 54 33 93 33h63c42 0 59 -8 73 -22c25 -25 29 -62 7 -152z" />
    <glyph glyph-name="percent" unicode="%" horiz-adv-x="814" 
d="M148 -3h-91l346 373l303 333h91l-346 -373zM195 523c-16 -66 -17 -89 -9 -97c5 -5 9 -7 28 -7h31c18 0 25 2 31 8c8 8 18 29 34 96c16 66 17 89 9 97c-5 5 -9 7 -28 7h-31c-18 0 -25 -2 -31 -8c-8 -8 -18 -29 -34 -96zM393 523c-21 -100 -43 -127 -59 -143
c-25 -25 -53 -34 -94 -34h-47c-40 0 -58 9 -71 22c-24 24 -30 61 -10 155c21 100 43 127 59 143c25 25 53 34 94 34h47c40 0 58 -9 71 -22c24 -24 30 -61 10 -155zM544 177c-16 -66 -17 -89 -9 -97c5 -5 9 -7 28 -7h31c18 0 25 2 31 8c8 8 18 29 34 96c16 66 17 89 9 97
c-5 5 -9 7 -28 7h-31c-18 0 -25 -2 -31 -8c-8 -8 -18 -29 -34 -96zM742 177c-21 -100 -43 -127 -59 -143c-25 -25 -53 -34 -94 -34h-47c-40 0 -58 9 -71 22c-24 24 -30 61 -10 155c21 100 43 127 59 143c25 25 53 34 94 34h47c40 0 58 -9 71 -22c24 -24 30 -61 10 -155z" />
    <glyph glyph-name="quotedbl" unicode="&#x22;" horiz-adv-x="497" 
d="M155 427l26 273h134v-20l-104 -253h-56zM369 427l26 273h134v-20l-104 -253h-56z" />
    <glyph glyph-name="quotesingle" unicode="'" horiz-adv-x="283" 
d="M155 427l26 273h134v-20l-104 -253h-56z" />
    <glyph glyph-name="plus" unicode="+" horiz-adv-x="508" 
d="M374 561l-38 -152h151l-23 -92h-151l-38 -152h-94l38 152h-151l23 92h151l38 152h94z" />
    <glyph glyph-name="minus" unicode="&#x2212;" horiz-adv-x="508" 
d="M68 317l23 92h396l-23 -92h-396z" />
    <glyph glyph-name="divide" unicode="&#xf7;" horiz-adv-x="508" 
d="M68 317l23 92h396l-23 -92h-396zM168 152l28 112h114l-28 -112h-114zM245 462l28 112h114l-28 -112h-114z" />
    <glyph glyph-name="equal" unicode="=" horiz-adv-x="508" 
d="M102 416l26 100h376l-26 -100h-376zM51 210l26 100h376l-26 -100h-376z" />
    <glyph glyph-name="multiply" unicode="&#xd7;" horiz-adv-x="508" 
d="M195 551l95 -124l144 117l53 -70l-145 -117l93 -124l-74 -58l-93 124l-145 -117l-53 70l147 117l-96 124z" />
    <glyph glyph-name="less" unicode="&#x3c;" horiz-adv-x="508" 
d="M490 486l-305 -130l240 -129l-25 -100l-329 189l23 94l423 189z" />
    <glyph glyph-name="greater" unicode="&#x3e;" horiz-adv-x="508" 
d="M38 127l27 113l305 129l-240 130l25 100l329 -189l-23 -94z" />
    <glyph glyph-name="plusminus" unicode="&#xb1;" horiz-adv-x="508" 
d="M392 635l-38 -152h151l-23 -92h-151l-38 -152h-94l38 152h-151l23 92h151l38 152h94zM11 91l24 92h396l-24 -92h-396z" />
    <glyph glyph-name="underscore" unicode="_" horiz-adv-x="488" 
d="M-109 -149l21 84h497l-21 -84h-497z" />
    <glyph glyph-name="hfjslug" horiz-adv-x="688" 
d="M641 -200h-208l-8 14h-163l-8 -14h-207v303c18 0 32 14 32 32c0 17 -14 32 -32 32v554h100l30 79h334l29 -79h101v-921zM397 563v-172h15v78h38v14h-38v66h43v14h-58zM181 563v-172h15v79h47v-79h15v172h-15v-79h-47v79h-15zM457 394c5 -2 14 -4 21 -4c20 0 31 11 31 36
v137h-16v-137c0 -16 -5 -22 -16 -22c-6 0 -15 3 -20 5v-15zM368 465l-13 3c-2 -9 -5 -21 -8 -30h-1l-16 31c13 12 23 26 23 42c0 15 -9 31 -27 31c-17 0 -28 -16 -28 -31s6 -24 14 -39c-15 -12 -23 -28 -23 -47c0 -22 12 -37 29 -37c13 0 23 9 29 24h1l12 -24l12 6l-17 32
c5 12 9 25 13 39zM520 323v-46h8v12l8 8l15 -20h10l-20 26l18 20h-10l-20 -24h-1v24h-8zM485 292l10 -15h9l-12 17c5 2 10 6 10 14c0 9 -7 15 -17 15h-20v-46h8v15h12zM423 276c14 0 24 11 24 24c0 12 -10 24 -24 24s-24 -12 -24 -24c0 -13 10 -24 24 -24zM367 301l-13 22
h-9l18 -29v-17h8v17l18 29h-9zM190 323v-46h34v7h-26v13h23v7h-23v12h26v7h-34zM129 323v-46h8v32l25 -32h7v46h-8v-32l-25 32h-7zM238 323l14 -47h8l11 34h1l11 -34h8l14 47h-8l-10 -35h-1l-11 35h-7l-11 -35h-1l-10 35h-8zM324 479c-7 13 -12 22 -12 32s6 19 14 19
s13 -9 13 -19c0 -12 -5 -21 -15 -32zM339 423c-5 -13 -12 -21 -20 -21c-9 0 -16 10 -16 25c0 13 7 26 16 35zM484 299h-11v17h11c6 0 10 -3 10 -8s-4 -9 -10 -9zM423 283c-10 0 -16 8 -16 17c0 8 6 17 16 17s16 -9 16 -17c0 -9 -6 -17 -16 -17z" />
    <glyph glyph-name="acute" unicode="&#xb4;" horiz-adv-x="494" 
d="M216 608v5l113 107h160v-5l-169 -107h-104z" />
    <glyph glyph-name="hungarumlaut" unicode="&#x2dd;" horiz-adv-x="494" 
d="M106 608v5l112 107h148v-5l-165 -107h-95zM322 608v5l112 107h148v-5l-165 -107h-95z" />
    <glyph glyph-name="caron.alt" horiz-adv-x="494" 
d="M436 800l-19 -75c-13 -52 -27 -74 -64 -113l-60 -62l-32 21l42 81c7 14 11 26 11 46v82l5 20h117z" />
    <glyph glyph-name="grave" unicode="`" horiz-adv-x="494" 
d="M447 608h-94l-132 107v5h161l65 -107v-5z" />
    <glyph glyph-name="circumflex" unicode="&#x2c6;" horiz-adv-x="494" 
d="M406 608l-59 52l-89 -52h-86v5l129 117h120l71 -117v-5h-86z" />
    <glyph glyph-name="caron" unicode="&#x2c7;" horiz-adv-x="494" 
d="M286 730l59 -52l89 52h86v-5l-129 -117h-120l-71 117v5h86z" />
    <glyph glyph-name="breve" unicode="&#x2d8;" horiz-adv-x="494" 
d="M348 678c46 0 70 21 86 52h78c-24 -83 -87 -125 -174 -125c-86 0 -134 50 -130 125h76c2 -27 25 -52 64 -52z" />
    <glyph glyph-name="tilde" unicode="&#x2dc;" horiz-adv-x="494" 
d="M181 608l15 63c6 24 16 41 27 50c9 7 20 13 41 13h10c24 0 40 -4 78 -20l67 -28l40 48h53l-16 -63c-6 -24 -15 -41 -26 -50c-9 -7 -20 -13 -41 -13h-10c-24 0 -40 4 -78 20l-65 29l-42 -49h-53z" />
    <glyph glyph-name="macron" unicode="&#xaf;" horiz-adv-x="494" 
d="M182 610l19 85h302l-19 -85h-302z" />
    <glyph glyph-name="dieresis" unicode="&#xa8;" horiz-adv-x="494" 
d="M184 610l27 110h111l-27 -110h-111zM369 610l27 110h111l-27 -110h-111z" />
    <glyph glyph-name="dotaccent" unicode="&#x2d9;" horiz-adv-x="494" 
d="M275 619l28 111h118l-28 -111h-118z" />
    <glyph glyph-name="ring" unicode="&#x2da;" horiz-adv-x="494" 
d="M321 666h55c17 0 23 1 30 8c5 5 10 13 15 35c5 23 4 33 -2 39c-4 4 -7 6 -28 6h-55c-17 0 -23 -1 -29 -7s-11 -14 -16 -36c-5 -23 -4 -33 2 -39c4 -4 7 -6 28 -6zM487 703c-8 -35 -17 -49 -34 -66c-21 -21 -49 -27 -81 -27h-66c-39 0 -55 8 -67 20c-21 21 -23 48 -14 87
c8 34 16 48 35 67s48 26 80 26h66c39 0 54 -7 69 -22c18 -18 21 -46 12 -85z" />
    <glyph glyph-name="commaaccent" unicode="&#x326;" horiz-adv-x="494" 
d="M115 -70h113l-29 -114c-7 -27 -17 -43 -41 -62l-97 -79l-26 27l77 79c7 8 11 15 14 23l2 6h-43z" />
    <glyph glyph-name="cedilla" unicode="&#xb8;" horiz-adv-x="494" 
d="M151 -90h-40l16 60h47c37 0 55 -4 66 -15c13 -13 16 -34 8 -70c-8 -34 -17 -46 -30 -59c-17 -17 -41 -20 -73 -20h-76l-47 40l5 20h119c12 0 17 1 21 4s6 9 8 17s2 14 -1 18s-9 5 -23 5z" />
    <glyph glyph-name="ogonek" unicode="&#x2db;" horiz-adv-x="494" 
d="M124 -80c-6 -27 -6 -33 -3 -38s8 -6 21 -6h28c9 0 12 1 15 4c4 3 8 10 18 50h73c-19 -75 -28 -95 -49 -110c-15 -11 -32 -14 -57 -14h-57c-31 0 -51 5 -63 17c-15 16 -17 37 -10 77c5 28 12 43 30 64s66 52 98 71l24 -27c-5 -4 -39 -32 -51 -45c-8 -9 -11 -18 -17 -43z
" />
    <glyph glyph-name="asciicircum" unicode="^" horiz-adv-x="524" 
d="M420 478l-65 150l-139 -150h-81v5l205 220h60l95 -220v-5h-75z" />
    <glyph glyph-name="asciitilde" unicode="~" horiz-adv-x="434" 
d="M64 255l15 63c6 24 16 41 27 50c9 7 20 13 41 13h10c24 0 40 -4 78 -20l67 -28l40 48h53l-16 -63c-6 -24 -15 -41 -26 -50c-9 -7 -20 -13 -41 -13h-10c-24 0 -40 4 -78 20l-65 29l-42 -49h-53z" />
    <glyph glyph-name="fraction" unicode="&#x2044;" horiz-adv-x="590" 
d="M36 -3h-91l346 373l303 333h91l-346 -373z" />
    <glyph glyph-name="i.dot" horiz-adv-x="250" 
d="M300 730l-28 -111h-118l28 111h118zM245 540l-136 -540h-104l136 540h104z" />
    <glyph glyph-name="space" unicode=" " horiz-adv-x="210" 
 />
    <glyph glyph-name="uni00A0" unicode="&#xa0;" horiz-adv-x="165" 
 />
    <glyph glyph-name="emspace" unicode="&#x2003;" horiz-adv-x="1000" 
 />
    <glyph glyph-name="enspace" unicode="&#x2002;" horiz-adv-x="500" 
 />
    <glyph glyph-name="threeperemspace" unicode="&#x2004;" horiz-adv-x="333" 
 />
    <glyph glyph-name="fourperemspace" unicode="&#x2005;" horiz-adv-x="250" 
 />
    <glyph glyph-name="thinspace" unicode="&#x2009;" horiz-adv-x="133" 
 />
    <glyph glyph-name="hairspace" unicode="&#x200a;" horiz-adv-x="75" 
 />
    <glyph glyph-name="NUL" unicode="&#xe05d;" horiz-adv-x="0" 
 />
    </font>
</defs>
</svg>
