<svg width="51" height="55" viewBox="0 0 51 55" fill="none" xmlns="http://www.w3.org/2000/svg">
<g clip-path="url(#clip0_969_1738)">
<path d="M50.9805 18.1549C50.9805 22.0115 50.9805 25.868 50.9805 29.7246C51.0329 31.7161 50.6503 33.6955 49.8583 35.5303C49.0664 37.3651 47.8833 39.013 46.3884 40.3635C41.8056 44.6236 37.0263 48.6178 31.4746 51.6719C29.7376 52.6086 27.9499 53.4521 26.1195 54.1986C25.5839 54.3509 25.0097 54.3018 24.5092 54.061C18.8311 51.5343 13.8317 47.985 9.09918 44.0688C7.46549 42.693 5.82245 41.354 4.30579 39.8866C2.93546 38.6001 1.84881 37.0522 1.11294 35.3383C0.377071 33.6245 0.00759082 31.781 0.0273058 29.9218C-0.0195047 21.8693 0.0273115 13.8122 0.00390625 5.75512C0.00390625 4.90676 0.149029 4.27394 1.15545 4.07217C7.01612 2.91657 12.8581 1.63256 18.7375 0.573263C24.1909 -0.40808 29.6583 -0.018294 35.0696 1.03183C39.9098 1.94898 44.7219 3.03119 49.5528 3.99419C50.6294 4.20972 51.018 4.71873 51.0039 5.80096C50.9477 9.90518 50.9805 14.0277 50.9805 18.1549ZM1.97464 18.9115C1.97464 22.4609 1.97464 26.0102 1.97464 29.5595C1.93901 31.3978 2.3217 33.2207 3.09496 34.8959C3.86821 36.5712 5.01261 38.0567 6.44503 39.2446C7.84934 40.4873 9.29577 41.7254 10.7609 42.9131C14.899 46.2836 19.2196 49.3882 24.0551 51.7498C25.0241 52.2084 25.8854 52.3964 26.8638 51.8278C28.0715 51.1399 29.3681 50.608 30.6086 49.9339C35.959 46.9623 40.5979 43.0553 45.0449 38.9603C46.2956 37.8567 47.2944 36.5069 47.9761 34.9991C48.6577 33.4914 49.0067 31.8597 49.0004 30.2107C49.0004 22.4976 49.0004 14.789 49.0285 7.0758C49.0285 6.13573 48.7196 5.70009 47.7834 5.53042C43.2521 4.61328 38.7536 3.60901 34.2083 2.77899C29.5694 1.94439 24.8462 1.5225 20.1652 2.28832C14.5058 3.20546 8.8979 4.4436 3.25724 5.49832C2.1806 5.6955 1.91845 6.2091 1.9325 7.21796C2.00739 11.125 1.97464 15.0183 1.97464 18.9115Z" fill="#00778B"/>
<path d="M39.8918 22.4838C40.388 22.1261 40.6876 21.7638 41.062 21.6721C41.2685 21.6105 41.486 21.5931 41.7 21.6207C41.914 21.6484 42.1194 21.7207 42.3025 21.8326C42.3969 22.0189 42.4413 22.2258 42.4315 22.4336C42.4216 22.6414 42.3579 22.8433 42.2463 23.0203C41.4563 23.9128 40.6155 24.761 39.7279 25.5608C39.6163 25.6833 39.4786 25.7803 39.3244 25.8449C39.1703 25.9094 39.0035 25.9399 38.836 25.9342C38.6684 25.9285 38.5042 25.8868 38.355 25.8119C38.2058 25.7371 38.0752 25.631 37.9725 25.5012C37.2517 24.8041 36.5682 24.0842 35.8286 23.3963C35.3605 22.9377 34.8924 22.3599 35.4448 21.8555C35.7397 21.5941 36.5121 21.8555 37.0691 21.8876C37.2048 21.8876 37.3312 22.016 37.701 22.2086C37.6074 21.6858 37.5747 21.3373 37.481 21.0072C36.1516 16.2839 31.5408 12.4365 26.5789 11.8357C25.8018 11.744 25.4929 12.0054 25.5537 12.7529C25.6146 13.5003 25.4882 14.1286 24.6175 14.1286C23.7469 14.1286 23.6111 13.4224 23.6345 12.7529C23.6626 11.8999 23.2179 11.8357 22.5111 11.9733C19.8542 12.4599 17.4129 13.7312 15.5151 15.6166C13.6173 17.502 12.3538 19.9111 11.8944 22.5204C11.7259 23.3963 12.0021 23.7907 12.9664 23.7861C13.6686 23.7861 14.7546 23.4422 14.7826 24.6115C14.8107 25.7809 13.7107 25.602 12.9477 25.5699C11.9412 25.5332 11.7259 25.9918 11.8991 26.8356C13.0179 32.2788 17.1466 36.5206 22.9276 37.3827C23.4613 37.4607 24.0043 37.5203 24.5473 37.5524C25.2167 37.5983 25.8486 37.7038 25.8112 38.5429C25.7737 39.3821 25.0997 39.5426 24.4069 39.5013C21.6768 39.3707 19.0281 38.5475 16.7206 37.1122C14.1177 35.4622 12.0929 33.071 10.9185 30.2602C9.74403 27.4493 9.47626 24.3536 10.1512 21.3892C10.8261 18.4249 12.4114 15.7341 14.6938 13.6786C16.9762 11.623 19.8464 10.3014 22.9183 9.89137C30.4454 8.90544 37.701 13.803 39.5266 21.1906C39.6296 21.5987 39.742 21.9564 39.8918 22.4838Z" fill="#00778B"/>
<path d="M24.9224 27.8858C24.4531 27.9049 23.9855 27.8203 23.5542 27.6384C23.1228 27.4565 22.7387 27.1819 22.4304 26.8349C22.122 26.4879 21.8973 26.0774 21.7728 25.6338C21.6483 25.1902 21.6272 24.7249 21.7112 24.2722C21.8266 23.8766 21.8103 23.4553 21.6647 23.0693C21.5191 22.6834 21.2517 22.353 20.9013 22.1261C20.64 21.9594 20.4335 21.722 20.3068 21.4428C20.2179 21.1218 20.1945 20.6082 20.3864 20.4294C20.5783 20.2505 21.1167 20.2001 21.5052 20.1359C21.5636 20.1423 21.6197 20.1618 21.6692 20.1928C21.7187 20.2238 21.7603 20.2655 21.7907 20.3147C22.7878 22.0436 24.5291 21.4657 26.0037 21.5941C26.4159 21.5417 26.7941 21.3426 27.0663 21.0347C28.2319 19.9204 29.36 18.7648 30.5068 17.6275C31.0264 17.1093 31.635 16.6186 32.295 17.2927C32.8848 17.8981 32.4448 18.4667 31.9392 18.962C30.8111 20.0625 29.7111 21.1952 28.5689 22.282C28.3194 22.4788 28.1357 22.7443 28.0415 23.0442C27.9472 23.3441 27.9467 23.6647 28.0399 23.965C28.1476 24.4287 28.1487 24.9101 28.0431 25.3744C27.9376 25.8386 27.7281 26.274 27.4298 26.6492C27.1314 27.0244 26.7517 27.33 26.3181 27.5439C25.8845 27.7577 25.4077 27.8745 24.9224 27.8858V27.8858ZM25.1892 23.2129H24.6508C24.2904 23.7082 23.6444 24.208 23.6538 24.6987C23.642 25.0125 23.7579 25.318 23.9761 25.548C24.1942 25.7781 24.4967 25.9138 24.817 25.9254C25.1373 25.9369 25.4492 25.8234 25.684 25.6096C25.9189 25.3959 26.0574 25.0996 26.0692 24.7858C26.1067 24.2768 25.5075 23.7357 25.1892 23.2129Z" fill="#00778B"/>
</g>
<defs>
<clipPath id="clip0_969_1738">
<rect width="51" height="54.2949" fill="white"/>
</clipPath>
</defs>
</svg>
