<svg xmlns="http://www.w3.org/2000/svg" xmlns:xlink="http://www.w3.org/1999/xlink" viewBox="0 0 90.99 99.9"><defs><style>.cls-1{fill:#fff;}.cls-2{mask:url(#mask);}.cls-3{fill:#efa348;}.cls-4{mask:url(#mask-2-2);}.cls-5{fill:#1b1a19;}</style><mask id="mask" x="0" y="0" width="90.99" height="99.9" maskUnits="userSpaceOnUse"><g id="mask-2"><polygon id="path-1" class="cls-1" points="90.99 0 0.07 0 0.07 99.83 90.99 99.83 90.99 0"/></g></mask><mask id="mask-2-2" x="0.07" y="0" width="90.92" height="99.82" maskUnits="userSpaceOnUse"><g id="mask-2-3" data-name="mask-2"><polygon id="path-1-2" data-name="path-1" class="cls-1" points="90.99 0 0.07 0 0.07 99.83 90.99 99.83 90.99 0"/></g></mask></defs><title>Asset 1</title><g id="Layer_2" data-name="Layer 2"><g id="Layer_1-2" data-name="Layer 1"><g id="Symbols"><g id="icon-video"><g id="icon_camera" data-name="icon camera"><g class="cls-2"><path id="Fill-1" class="cls-3" d="M45.46,99.9l-.71-.32C31.2,93.48,19.16,83.48,9,74.36,3,69,0,62.62,0,55.32V7.66L1.17,7.4C15.71,4.23,30.54,0,45.25,0S75,4.23,89.81,7.4L91,7.65v48c0,7.16-2.77,13.24-8.47,18.58C72,84.11,59.73,94.17,46.17,99.61l-.71.29"/></g><g class="cls-4"><path id="Fill-4" class="cls-5" d="M45.63,39.73a5.44,5.44,0,1,1-5.4,5.43A5.42,5.42,0,0,1,45.63,39.73Zm0-4A9.4,9.4,0,1,0,55,45.16,9.36,9.36,0,0,0,45.63,35.77Zm15.25-.49a1.48,1.48,0,1,1-1.48,1.48A1.47,1.47,0,0,1,60.88,35.28ZM45.63,33.8A11.37,11.37,0,1,1,34.32,45.16,11.35,11.35,0,0,1,45.63,33.8Zm-5.9-8.9-3.44,5.93H28.42A4.42,4.42,0,0,0,24,35.28V55.05a4.42,4.42,0,0,0,4.42,4.45H62.84a4.42,4.42,0,0,0,4.43-4.45V35.28a4.42,4.42,0,0,0-4.43-4.45H55L51.53,24.9Z"/></g></g></g></g></g></g></svg>