<svg width="51" height="55" viewBox="0 0 51 55" fill="none" xmlns="http://www.w3.org/2000/svg">
<g clip-path="url(#clip0_969_1633)">
<path d="M50.986 18.3411C50.986 22.509 51.0233 26.6607 50.986 30.8193C50.9909 32.5319 50.6525 34.2283 49.9906 35.81C49.3287 37.3917 48.3565 38.8271 47.1304 40.0327C42.1243 45.0388 36.628 49.4706 30.4082 52.9207C29.1245 53.6293 27.7499 54.178 26.4196 54.8055C25.7754 55.1065 25.1826 55.0371 24.5314 54.743C19.1635 52.2909 14.3791 48.9543 9.86766 45.2217C8.09624 43.756 6.36683 42.2301 4.6631 40.6879C2.63544 38.901 1.19207 36.5539 0.518123 33.9475C0.200283 32.6998 0.0357144 31.4185 0.0280062 30.1316C-0.0163376 21.9069 0.00466819 13.6916 0.00700208 5.45997C0.00700208 4.45968 0.319742 4.17719 1.31164 3.97111C3.62219 3.4918 5.91406 2.91524 8.22927 2.45214C11.7558 1.75749 15.2823 1.01422 18.8344 0.458499C22.0762 -0.0485949 25.3576 -0.0763812 28.6367 0.132014C33.9183 0.467761 39.0505 1.6394 44.1921 2.774C46.1035 3.18615 48.015 3.58674 49.9311 3.99426C50.6873 4.15403 51 4.54535 51 5.39745C51 9.712 51 14.0265 51 18.3411H50.986ZM48.8365 19.0103C48.8365 14.928 48.8202 10.8458 48.8528 6.76128C48.8528 6.14073 48.6848 5.89992 48.071 5.77488C43.5036 4.84868 38.9478 3.84607 34.3734 2.95692C31.2734 2.35007 28.1181 2.0645 24.9585 2.10482C21.2359 2.1837 17.5297 2.61872 13.8913 3.40381C10.1874 4.16793 6.52087 5.00382 2.82166 5.79804C2.31054 5.90686 2.15184 6.11063 2.15417 6.63856C2.17284 14.3816 2.20785 22.1246 2.15417 29.8676C2.12617 33.4335 3.37558 36.4367 5.90239 38.8772C7.7695 40.6717 9.76497 42.3296 11.7511 43.9922C15.8144 47.3936 20.1764 50.3528 25.0029 52.6035C25.1784 52.6971 25.3738 52.748 25.573 52.7521C25.7723 52.7561 25.9696 52.7131 26.1488 52.6266C28.7781 51.4822 31.294 50.0969 33.6639 48.4889C37.5872 45.8677 41.1324 42.7765 44.5935 39.5997C47.4875 36.9484 48.9625 33.7229 48.8552 29.7588C48.7642 26.179 48.8365 22.6016 48.8365 19.0103Z" fill="#00778B"/>
<path d="M0.230543 18.3357C0.230543 14.0554 0.230543 9.7718 0.230543 5.48484C0.230543 4.44165 0.40773 4.23755 1.45059 4.00825C5.46511 3.12382 9.4619 2.14363 13.5017 1.38014C16.4455 0.823268 19.4349 0.457902 22.4167 0.165609C27.2741 -0.310627 32.0758 0.299156 36.8269 1.24407C41.2313 2.11843 45.6103 3.11374 49.9893 4.05865C50.6727 4.2048 50.9511 4.5626 50.9537 5.31853C50.9537 7.10253 50.9537 8.884 50.9537 10.668C50.9537 17.0682 50.9031 23.4684 50.9689 29.8686C51.017 34.5705 49.1565 38.3502 45.7318 41.4596C42.3678 44.511 38.9278 47.4717 35.1715 50.0419C32.3945 51.9483 29.4253 53.5613 26.3122 54.8546C26.0618 54.9603 25.791 55.0094 25.5192 54.9985C25.2474 54.9876 24.9815 54.917 24.7404 54.7916C18.7439 52.0728 13.4865 48.2403 8.54054 43.9818C7.21924 42.8429 5.89795 41.7015 4.64499 40.4894C1.72903 37.6749 0.187511 34.253 0.205229 30.1584C0.243197 26.225 0.230543 22.2816 0.230543 18.3357ZM2.32133 18.7716C2.32133 22.463 2.34918 26.1545 2.32133 29.8585C2.28843 33.4517 3.5186 36.5309 6.14095 38.9725C8.32033 41.0035 10.5934 42.9437 12.9018 44.831C16.6531 47.8976 20.6626 50.5862 25.0897 52.6121C25.3562 52.755 25.6671 52.7928 25.9604 52.7179C27.5779 51.962 29.2206 51.2438 30.7697 50.3518C35.7815 47.4465 40.1935 43.75 44.4181 39.8242C45.9672 38.3502 47.3113 36.735 48.0706 34.6965C48.711 32.9982 48.8755 31.2419 48.873 29.4529V13.9714C48.873 11.5172 48.873 9.06291 48.873 6.60865C48.873 6.15006 48.7515 5.94344 48.2605 5.85272C47.4353 5.7217 46.6253 5.48484 45.8052 5.30342C40.477 4.13424 35.1614 2.83404 29.6737 2.31749C25.8819 1.9204 22.0532 2.04589 18.2959 2.69042C13.16 3.62273 8.07733 4.80954 2.95414 5.84517C2.39474 5.96107 2.31121 6.19541 2.31374 6.68425C2.32893 10.7159 2.32133 14.7425 2.32133 18.7716Z" fill="#00778B"/>
<path d="M19.3184 22.3093C19.3184 20.3388 19.2779 18.3659 19.3311 16.3954C19.3994 13.7421 21.8851 11.0056 24.758 10.7537C27.4715 10.5168 29.6003 11.5348 31.0658 13.8454C31.5946 14.6561 31.8799 15.6002 31.8885 16.5668C31.9011 20.427 31.9214 24.2873 31.8733 28.1577C31.8404 30.8261 29.4281 33.4719 26.7855 33.8624C23.9354 34.2858 21.47 33.1493 19.9968 30.685C19.4767 29.745 19.2271 28.6804 19.2754 27.6084C19.2754 25.8445 19.2754 24.0807 19.2754 22.3169L19.3184 22.3093ZM21.27 22.4252C21.27 24.247 21.2194 26.0738 21.2953 27.8931C21.3346 28.5783 21.5331 29.245 21.875 29.8409C22.3408 30.6437 23.0583 31.2721 23.9174 31.6299C24.7766 31.9876 25.7299 32.0549 26.6311 31.8214C27.5708 31.595 28.4064 31.0602 29.0034 30.3032C29.6003 29.5461 29.9238 28.6111 29.9217 27.6487C29.9648 24.0857 29.9521 20.5228 29.9217 16.9598C29.934 16.1886 29.7266 15.4297 29.3234 14.771C28.9202 14.1123 28.3378 13.5809 27.6436 13.2381C24.7201 11.6759 21.3308 13.7068 21.2827 17.0178C21.2396 18.8194 21.27 20.6211 21.27 22.4252Z" fill="#00778B"/>
<path d="M26.5829 44.1456H24.6491C24.6339 43.8937 24.6111 43.6769 24.6111 43.4527C24.6111 42.2155 24.5883 40.9783 24.6111 39.7411C24.6111 39.2825 24.4339 39.0985 24.0188 39.0406C20.6978 38.5694 18.3235 36.7299 16.6529 33.9204C15.8124 32.4584 15.3856 30.7969 15.4177 29.1127C15.4106 28.9764 15.4307 28.8401 15.4771 28.7117C15.5234 28.5833 15.5949 28.4653 15.6875 28.3647C15.7801 28.2641 15.8919 28.1828 16.0164 28.1256C16.1408 28.0685 16.2755 28.0365 16.4125 28.0317C16.5445 28.0306 16.6753 28.0561 16.7971 28.1067C16.9189 28.1574 17.0291 28.232 17.1212 28.3262C17.2132 28.4204 17.2851 28.5322 17.3325 28.6548C17.3799 28.7774 17.4019 28.9083 17.3971 29.0396C17.4286 30.808 18.0106 32.523 19.0627 33.9481C22.2191 38.199 28.8357 38.2317 32.0301 34.0464C33.0966 32.6895 33.6997 31.0288 33.7513 29.3067C33.764 28.9766 33.8602 28.5155 34.088 28.3593C34.3841 28.1577 34.9334 28.0368 35.2169 28.1854C35.3766 28.3025 35.5078 28.454 35.6007 28.6284C35.6936 28.8029 35.7458 28.996 35.7535 29.1933C35.6548 32.8797 33.9817 35.6994 30.886 37.6875C29.8145 38.3943 28.5927 38.8437 27.317 39.0003C26.7854 39.0582 26.5576 39.2296 26.5728 39.8167C26.6209 41.011 26.588 42.2079 26.588 43.4023L26.5829 44.1456Z" fill="#00778B"/>
</g>
<defs>
<clipPath id="clip0_969_1633">
<rect width="51" height="55" fill="white"/>
</clipPath>
</defs>
</svg>
