<svg xmlns="http://www.w3.org/2000/svg" viewBox="0 0 500 200" enable-background="new 0 0 500 200"><style type="text/css">.st0{fill:#011E41;}</style><path d="M105 121.2h-8.5v-14.1h8.5c4.5 0 7.2 2.9 7.2 7-.1 4.2-2.8 7.1-7.2 7.1m-8.5-30.4h7.9c4.5 0 6.6 2.5 6.6 6.1 0 3.6-2.1 6.1-6.6 6.1h-7.9V90.8zm14.5 13.8c3.7-2.4 5-5.1 5-8.4 0-6.2-4.4-9.6-12.2-9.6H91.6v38.5h12.7c7.8 0 12.8-4.4 12.8-11.6 0-3.8-1.8-6.8-6.1-8.9" class="st0"/><path d="M136.6 92.1l6.1 21h-12.2l6.1-21zm-2.8-5.4L122 125.3h5l2.2-7.8H144l2.3 7.8h5.1l-11.8-38.5h-5.8zM170.8 103.6h-7.9V90.8h7.9c4.5 0 6.6 2.8 6.6 6.4 0 3.6-2.2 6.4-6.6 6.4m11.5-7.3c0-6.2-4.4-9.6-12.2-9.6H158v38.5h4.9V108h8.1l8 17.2h5.7l-8.9-18.5c5.2-2.8 6.5-6 6.5-10.4M204.7 121.2h-8.5v-14.1h8.5c4.5 0 7.2 2.9 7.2 7-.1 4.2-2.7 7.1-7.2 7.1m-8.5-30.4h7.9c4.5 0 6.6 2.5 6.6 6.1 0 3.6-2.1 6.1-6.6 6.1h-7.9V90.8zm14.5 13.8c3.7-2.4 5-5.1 5-8.4 0-6.2-4.4-9.6-12.2-9.6h-12.2v38.5H204c7.8 0 12.8-4.4 12.8-11.6 0-3.8-1.8-6.8-6.1-8.9" class="st0"/><path d="M236.4 92.1l6.1 21h-12.2l6.1-21zm-2.9-5.4l-11.8 38.5h5l2.2-7.8h14.8l2.3 7.8h5.1l-11.8-38.5h-5.8zM270.5 103.6h-7.9V90.8h7.9c4.5 0 6.6 2.8 6.6 6.4 0 3.6-2.1 6.4-6.6 6.4m11.6-7.3c0-6.2-4.4-9.6-12.2-9.6h-12.1v38.5h4.9V108h8.1l8 17.2h5.7l-8.9-18.5c5.1-2.8 6.5-6 6.5-10.4" class="st0"/><path d="M291 86.7h4.9v38.5H291zM318.2 90.7c5.2 0 7.8 3.9 7.8 8.7h4.9c0-7.8-5.4-12.9-12.7-12.9-7.3 0-12.7 5-12.7 12.8v13.5c0 7.8 5.4 12.8 12.7 12.8 7.3 0 12.7-5.1 12.7-12.9H326c0 4.8-2.5 8.7-7.8 8.7s-7.8-4-7.8-8.8v-13c0-4.9 2.5-8.9 7.8-8.9" class="st0"/><path d="M359.2 112.5c0 4.7-2.5 8.8-7.7 8.8-5.3 0-7.8-4-7.8-8.8V86.7h-4.9v26.2c0 7.8 5.3 12.7 12.7 12.7 7.3 0 12.7-4.9 12.7-12.7V86.7h-4.9v25.8zM401.8 86.7l-10.9 27-10.8-27h-6.2v38.6h4.7V95l12.3 30.3L403.1 95v30.3h4.7V86.7zM94.8 74.4c1.6 0 2.9-1.3 2.9-2.8s-1.3-2.9-2.9-2.9c-1.6 0-2.8 1.3-2.8 2.9s1.3 2.8 2.8 2.8M381.2 74.4c1.6 0 2.9-1.3 2.9-2.8 0-1.6-1.3-2.9-2.9-2.9-1.6 0-2.8 1.3-2.8 2.9 0 1.5 1.3 2.8 2.8 2.8M116.9 68.7c-1.6 0-2.8 1.3-2.8 2.9 0 1.6 1.3 2.8 2.8 2.8 1.6 0 2.9-1.3 2.9-2.8-.1-1.6-1.4-2.9-2.9-2.9M160.9 74.4c1.6 0 2.9-1.3 2.9-2.8 0-1.6-1.3-2.9-2.9-2.9-1.6 0-2.8 1.3-2.8 2.9 0 1.5 1.2 2.8 2.8 2.8M205 74.4c1.6 0 2.9-1.3 2.9-2.8 0-1.6-1.3-2.9-2.9-2.9-1.6 0-2.8 1.3-2.8 2.9-.1 1.5 1.2 2.8 2.8 2.8M249 68.7c-1.6 0-2.8 1.3-2.8 2.9 0 1.6 1.3 2.8 2.8 2.8 1.6 0 2.9-1.3 2.9-2.8 0-1.6-1.3-2.9-2.9-2.9M315.1 74.4c1.6 0 2.9-1.3 2.9-2.8 0-1.6-1.3-2.9-2.9-2.9-1.6 0-2.8 1.3-2.8 2.9 0 1.5 1.3 2.8 2.8 2.8M404.4 74.4c1.6 0 2.9-1.3 2.9-2.8 0-1.6-1.3-2.9-2.9-2.9-1.6 0-2.8 1.3-2.8 2.9 0 1.5 1.2 2.8 2.8 2.8M293.5 68.7c-1.6 0-2.8 1.3-2.8 2.9 0 1.6 1.3 2.8 2.8 2.8 1.6 0 2.9-1.3 2.9-2.8-.1-1.6-1.4-2.9-2.9-2.9M340 71.6c0-1.6-1.3-2.9-2.9-2.9-1.6 0-2.8 1.3-2.8 2.9 0 1.6 1.3 2.8 2.8 2.8 1.6 0 2.9-1.3 2.9-2.8M138.9 74.4c1.6 0 2.9-1.3 2.9-2.8 0-1.6-1.3-2.9-2.9-2.9-1.6 0-2.8 1.3-2.8 2.9-.1 1.5 1.2 2.8 2.8 2.8M182.9 68.7c-1.6 0-2.8 1.3-2.8 2.9 0 1.6 1.3 2.8 2.8 2.8 1.6 0 2.9-1.3 2.9-2.8 0-1.6-1.3-2.9-2.9-2.9M227 74.4c1.6 0 2.9-1.3 2.9-2.8 0-1.6-1.3-2.9-2.9-2.9-1.6 0-2.8 1.3-2.8 2.9 0 1.5 1.2 2.8 2.8 2.8M271.1 74.4c1.6 0 2.9-1.3 2.9-2.8 0-1.6-1.3-2.9-2.9-2.9-1.6 0-2.8 1.3-2.8 2.9-.1 1.5 1.2 2.8 2.8 2.8M359.2 74.4c1.6 0 2.9-1.3 2.9-2.8 0-1.6-1.3-2.9-2.9-2.9-1.6 0-2.8 1.3-2.8 2.9 0 1.5 1.2 2.8 2.8 2.8M105 121.3h-8.5v-14.1h8.5c4.5 0 7.2 2.9 7.2 7-.1 4.2-2.8 7.1-7.2 7.1m-8.5-30.4h7.9c4.5 0 6.6 2.5 6.6 6.1 0 3.6-2.1 6.1-6.6 6.1h-7.9V90.9zm14.5 13.9c3.7-2.4 5-5.1 5-8.4 0-6.2-4.4-9.6-12.2-9.6H91.6v38.5h12.7c7.8 0 12.8-4.4 12.8-11.6 0-3.9-1.8-6.8-6.1-8.9" class="st0"/></svg>