<svg xmlns="http://www.w3.org/2000/svg" viewBox="0 0 595.3 209.8" enable-background="new 0 0 595.3 209.8"><style type="text/css">.st0{fill:#ACADAD;} .st1{fill:#4C8C8A;} .st2{fill:#818383;} .st3{fill:url(#SVGID_1_);}</style><path d="M534.2 162.2c-1.2 4.8-3.7 8.2-8.3 9.7-6.9 2.3-13.6 2.2-19.5-2.8-3.8-3.2-5.2-7.6-5.9-12.3-.8-5.1-.4-10 1.3-14.9 2.3-6.3 6.6-10.2 13.3-11.3 4.2-.7 8.1-.2 11.8 1.8 4.5 2.5 6.7 6.7 7.6 11.6.5 2.5.3 5.1.4 7.6.1 1.4-1 1.1-1.8 1.1-7.3 0-14.7 0-22 0-2.1 0-4.2 0-6.4 0-1 0-1.5.3-1.4 1.3.3 5.8 1.8 12.2 8.6 15.2 5.2 2.3 13.2 1.9 17-2.6.7-.9 1.3-1.9 1.8-2.9 1-1.9.9-1.9 3.5-1.5zm-2.3-12.6c.3-10.1-4.3-16.6-13.7-16.5-10.7.1-14.8 8.6-14.7 16.5 9.4 0 18.8 0 28.4 0zM445.8 165.7c-.5.5-.8.6-.9.8-5 6.7-14.6 7.6-21.1 5.2-5.5-2.1-7.7-7.6-6.9-12.8 1-7.1 6.6-9.9 12.6-10.7 4.9-.6 9.9-.8 14.8-1 1.2-.1 1.6-.5 1.5-1.6-.2-3.2-.2-6.5-2.4-9.1-2.5-3.2-6.2-3.2-9.8-3.3-2-.1-4 .3-5.9.8-2.9.8-5 2.7-5.9 5.6-.4 1.4-1.4 1-2.1.8-.3-.1-.6-1.2-.5-1.7 1.2-3.9 4-6.3 7.8-7.3 4.8-1.4 9.7-1.5 14.4.3 4.7 1.7 6.8 5.5 7 10.1.3 9.6.2 19.2.3 28.7 0 1.2-.3 1.7-1.6 1.7-1.4 0-1.4-.8-1.4-1.8.1-1.5.1-2.9.1-4.7zm.5-10.5c-.2 0-.3-.1-.5-.1 0-1.1-.1-2.2 0-3.3.2-1.8-.6-2.3-2.3-2.2-2.4.2-4.7 0-7.1.3-3.6.5-7.2.9-10.6 1.9-3.3 1-5.4 3.5-5.9 7.1-.7 4.9 1.1 9.2 5.4 10.4 2.6.8 5.5.8 8.2.6 4.7-.4 8.7-2.5 10.8-6.8 1.3-2.4 1.4-5.3 2-7.9zM492.7 159.1c-.6 7.2-6.4 13.8-14.6 14.1-5 .2-9.6-.6-13.5-4.1-2.9-2.6-4.7-5.9-5.5-9.6-1.4-5.9-1.3-11.8.9-17.5 2.4-6.4 6.8-10.2 13.6-11.4 4.2-.7 8.1-.3 11.7 1.9 4.1 2.4 6.1 6.2 6.9 10.7-2.5 1.2-2.6 1.1-3.3-1.3-1.7-6-6.7-9.2-12.9-8.9-10 .6-13.7 7.9-14.2 15.2-.2 3.8-.1 7.8.8 11.5 1.9 7.5 6.1 10.2 12.5 10.8 6.7.6 12.2-1.8 14.5-9.8.4-1.8 1.3-2.2 3.1-1.6zM374 134.6c0 .9 0 1.6 0 2.3 0 7.9 0 15.8 0 23.7 0 1.6.2 3.1.6 4.7.7 3.1 2.4 4.6 5.5 4.8 2.1.1 4.3-.2 6.6-.4 1.2 1.7 1 2.4-1.1 2.7-2.1.3-4.2.6-6.3.4-4.6-.4-7.5-3.4-8-8.4-.2-1.9-.3-3.9-.3-5.8 0-7.3 0-14.6 0-21.8 0-.7 0-1.3 0-2.3-1.4 0-2.6 0-3.9 0-2.2 0-2.2 0-1.9-2.5 1.9 0 3.8 0 5.8 0 0-3.9 0-7.5 0-11.2 1.1 0 1.9 0 3 0 0 3.6 0 7.2 0 11 1.1.1 2.1.1 3 .1 2.5 0 5 0 7.5 0 .9 0 2.2-.6 2.2 1.2 0 1.9-1.4 1.3-2.3 1.3-2.7.1-5.5 0-8.2 0-.8 0-1.4.1-2.2.2zM397.3 132c0 1.9 0 3.8 0 5.6 2.5-1.8 4.7-3.8 7.3-5.3 2.6-1.5 5.7-1.3 8.8-1 0 .9-.1 1.8-.1 2.4-2.2.2-4.2.3-6.2.8-6.1 1.4-9.8 6.1-9.8 12.5 0 7.8 0 15.5 0 23.3 0 1 .2 1.9-1.4 1.9-1.6 0-1.6-.9-1.6-2 0-12 0-24 0-36 .1-2.5.1-2.5 3-2.2zM538 132v-5.4h-1.8v-.5h4.2v.5h-1.8v5.4h-.6zM546.2 132v-5.1l-2.1 5.1h-.2l-2.1-5.1v5.1h-.5v-5.8h.7l1.9 4.8 1.9-4.8h.7v5.8h-.3z" class="st0"/><path d="M189.2 196.8v-11.5h1v11.5h-1zM203.7 196.8l-7.2-9.9v9.9h-1v-11.5h1l7.2 9.8v-9.8h1v11.5h-1zM212.9 196.8v-10.6h-3.8v-.9h8.5v.9h-3.8v10.6h-.9zM222.1 196.8v-11.5h7.3v.9h-6.3v4.3h6.2v.9h-6.2v4.6h6.3v.9h-7.3zM234.3 196.8v-11.5h1v10.6h5.6v.9h-6.6zM246.1 196.8v-11.5h1v10.6h5.6v.9h-6.6zM258 196.8v-11.5h1v11.5h-1zM263.1 191c0-3.6 2.6-6 5.8-6 1.9 0 3.3.8 4.3 2l-.7.5c-.8-1-2.1-1.6-3.6-1.6-2.7 0-4.8 2.1-4.8 5.1 0 3 2.1 5.1 4.8 5.1 1.5 0 2.7-.8 3.4-1.4v-2.8H268v-.9h5.3v4c-1 1.1-2.5 1.9-4.4 1.9-3.2.1-5.8-2.3-5.8-5.9zM278.2 196.8v-11.5h7.3v.9h-6.3v4.3h6.2v.9h-6.2v4.6h6.3v.9h-7.3zM298.6 196.8l-7.2-9.9v9.9h-1v-11.5h1l7.2 9.8v-9.8h1v11.5h-1zM307.8 196.8v-10.6H304v-.9h8.5v.9h-3.8v10.6h-.9zM322.8 191c0-3.5 2.6-6 5.8-6 1.8 0 3.2.8 4.2 2l-.8.5c-.7-1-2-1.7-3.4-1.7-2.7 0-4.8 2.1-4.8 5.1 0 3 2.1 5.1 4.8 5.1 1.4 0 2.6-.7 3.4-1.7l.8.5c-1 1.3-2.4 2.1-4.2 2.1-3.2.1-5.8-2.3-5.8-5.9zM340.4 196.8v-4.9l-4.6-6.6h1.2l3.9 5.7 3.9-5.7h1.2l-4.6 6.6v4.9h-1zM350.1 196.8v-11.5h4.7c1.9 0 3.2 1.1 3.2 2.9 0 1.5-1 2.4-2 2.6 1.2.2 2.2 1.5 2.2 2.8 0 1.9-1.2 3.1-3.3 3.1h-4.8zm6.9-8.5c0-1.2-.8-2.1-2.3-2.1h-3.6v4.3h3.6c1.5-.1 2.3-1 2.3-2.2zm.2 5.3c0-1.2-.8-2.3-2.4-2.3h-3.7v4.6h3.7c1.5 0 2.4-.9 2.4-2.3zM363.1 196.8v-11.5h7.3v.9h-6.3v4.3h6.2v.9h-6.2v4.6h6.3v.9h-7.3zM382 196.8l-3.2-4.8h-2.5v4.8h-1v-11.5h4.3c2 0 3.5 1.3 3.5 3.4 0 2.1-1.5 3.2-3.2 3.3l3.3 4.8H382zm0-8.2c0-1.5-1-2.5-2.5-2.5h-3.2v5h3.2c1.5 0 2.5-1 2.5-2.5zM387.3 195.2l.6-.7c.7.9 1.9 1.7 3.6 1.7 2.4 0 3-1.3 3-2.3 0-3.4-6.9-1.6-6.9-5.6 0-1.9 1.7-3.1 3.8-3.1 1.7 0 3 .6 3.9 1.6l-.7.7c-.8-1-2-1.5-3.3-1.5-1.5 0-2.7.9-2.7 2.1 0 3 6.9 1.3 6.9 5.6 0 1.5-1 3.3-4.1 3.3-1.8 0-3.2-.8-4.1-1.8zM401.2 196.8v-11.5h7.3v.9h-6.3v4.3h6.2v.9h-6.2v4.6h6.3v.9h-7.3zM412.2 191c0-3.5 2.6-6 5.8-6 1.8 0 3.2.8 4.2 2l-.8.5c-.7-1-2-1.7-3.4-1.7-2.7 0-4.8 2.1-4.8 5.1 0 3 2.1 5.1 4.8 5.1 1.4 0 2.6-.7 3.4-1.7l.8.5c-1 1.3-2.4 2.1-4.2 2.1-3.3.1-5.8-2.3-5.8-5.9zM427.3 192.4v-7.1h1v7.1c0 2.3 1.2 3.7 3.5 3.7s3.5-1.4 3.5-3.7v-7.1h1v7.1c0 2.8-1.5 4.6-4.5 4.6-2.9 0-4.5-1.8-4.5-4.6zM447.6 196.8l-3.2-4.8h-2.5v4.8h-1v-11.5h4.3c2 0 3.5 1.3 3.5 3.4 0 2.1-1.5 3.2-3.2 3.3l3.3 4.8h-1.2zm0-8.2c0-1.5-1-2.5-2.5-2.5h-3.2v5h3.2c1.5 0 2.5-1 2.5-2.5zM453.5 196.8v-11.5h1v11.5h-1zM463.5 196.8v-10.6h-3.8v-.9h8.5v.9h-3.8v10.6h-.9zM476.1 196.8v-4.9l-4.6-6.6h1.2l3.9 5.7 3.9-5.7h1.2l-4.6 6.6v4.9h-1z" class="st1"/><path d="M195.6 167.4c0 1.8 0 3.2 0 4.8-2.2 0-4.3 0-6.3 0-.3 0-.7-.5-.8-.8-.1-.5-.1-1.1-.1-1.6 0-17.2 0-34.4 0-51.7 0-.7.1-1.4.1-2.2 2.3 0 4.5 0 6.9 0 0 6.7 0 13.4 0 20.1.1.1.3.1.4.2.5-.5 1.1-1 1.6-1.5 6.9-7.3 23.2-6.7 27.4 6.4 2.1 6.6 2.2 13.2.2 19.8-4.2 14.1-21.3 16.2-29.4 6.5zm-.1-16.4c0 1.7 0 2.9 0 4 .3 6.8 3.7 11.2 9.6 12.3 5.8 1.1 10.7-1.7 12.5-7.3 1.8-5.4 1.8-11 .1-16.4-1.3-4-3.8-6.9-8.2-7.5-4.7-.6-8.8.7-11.6 4.7-2.2 3.2-2.6 7-2.4 10.2zM288.6 146.2c.1-2.5.1-5.3-1.5-7.6-.7-1-1.8-1.8-2.9-2.3-3.5-1.4-7.2-1.3-10.6.2-1.5.7-2.5 2.6-3.8 3.9-.4.4-1 1-1.5 1-1.7-.1-3.3-.4-5.2-.7.8-4.2 2.8-7.4 6.7-9 5.6-2.4 11.4-2.4 17.1-.9 5.5 1.5 8.7 6 8.8 12.4.1 9.1 0 18.2.1 27.3 0 1.2-.5 1.6-1.6 1.5-1.6-.1-3.7.4-4.7-.4-.8-.6-.5-2.9-.7-4.7-.6.6-1.1 1-1.6 1.4-5.2 4.7-11.3 5.4-17.7 3.7-6.6-1.7-9.8-8.1-8.1-14.9 1.4-5.6 5.6-8.2 10.7-9.1 5.2-.8 10.7-1.1 16.5-1.8zm-12.3 20.9c3.3.1 6.4-.7 9-2.9 3.7-3.1 3.5-7.5 3.4-11.7 0-.3-.5-.7-.8-.7-5 .1-10.1 0-14.9 1.7-4 1.4-5.2 4.8-4.8 8.2.5 3.6 3 5.4 7.2 5.4.3 0 .6 0 .9 0zM323.5 131.2c2.2 0 4.1-.1 5.9.1.4 0 1 .7 1.1 1.2.1 1.3.1 2.7.1 4.6 2.9-3.4 6-5.8 9.9-6.5 5.5-.9 10.8-1 14.9 3.8 2.1 2.6 2.9 5.7 2.9 9 .1 9 0 18.1.1 27.1 0 1.3-.4 1.8-1.7 1.8-5.4 0-5.4.1-5.4-5.4 0-7.6.1-15.2-.1-22.8-.1-6.1-3.6-8.3-9.1-7.9-3.8.3-6.9 2.2-9.2 5.1-1.4 1.7-2.1 3.6-2.1 5.9 0 7.7 0 15.4 0 23.1 0 1.5-.5 2-2 1.9-1.6-.1-3.9.5-4.7-.4-.9-1-.5-3.2-.5-4.9 0-11.1 0-22.2 0-33.3-.1-.7-.1-1.4-.1-2.4zM235.5 131.2c2.1 0 4.1-.1 6 .1.3 0 .8.8.8 1.3.1 1.4 0 2.7.2 4.2 4-4.9 8.9-7.1 15.4-5.8-.3 2.1-.5 4.2-.8 6.2-1.9 0-3.7-.2-5.3 0-5.4.8-9.2 5.4-9.2 10.9 0 7.3 0 14.5 0 21.8 0 .7 0 1.3 0 2.2-2.2 0-4.1.1-6.1-.1-.3 0-.9-1-.9-1.6-.1-5.2 0-10.3 0-15.5 0-7.2 0-14.3 0-21.5-.1-.5-.1-1.2-.1-2.2zM306.1 131.3c2.2 0 4.4 0 6.9 0 0 .8 0 1.4 0 2.1 0 12.2 0 24.4 0 36.5 0 1.7-.4 2.4-2.2 2.2-1.5-.1-3 0-4.7 0 0-13.6 0-27.1 0-40.8zM305.7 123.6c0-2.6 0-5.1 0-7.8 2.5 0 4.9 0 7.4 0 0 2.6 0 5.1 0 7.8-2.4 0-4.8 0-7.4 0z" class="st2"/><linearGradient id="SVGID_1_" x1="26.002" x2="189.777" y1="75.909" y2="75.909" gradientUnits="userSpaceOnUse"><stop offset=".059" stop-color="#C6E585"/><stop offset=".459" stop-color="#6DBE93"/><stop offset=".948" stop-color="#1F476B"/></linearGradient><path d="M189.5 61c.2-.3.2-.6.2-1-.2-1.4-.3-3.5-.3-5.5-.1-2.1-.1-4.2-.3-5.8-.3-2.5-.8-5.5-2.6-7.9-1.4-1.8-3.3-3-4.9-4l-7.5-4.5c-1.7-1-3.4-2.1-4.6-3.6-.2-.2-.5-.4-.7-.5-5.7-6.9-13.8-11.7-22.7-13-2.1-.3-3.9-.3-5.4.1-.1 0-.1 0-.2 0L120 13.2c-7.3-.8-15.6-1.6-23.3 1.2-1.7.6-3.2 1.4-4.8 2.1-1.7.8-3.2 1.6-4.9 2.2-3.3 1.2-6.9 1.5-10.6 1.8-2 .2-4 .4-6 .7-4.8.8-9.5 2.4-14 3.9-4.6 1.6-9.9 3.4-13.9 7.2-2.4 2.3-4.1 5.2-5.7 7.9-4.5 7.5-9.5 16.1-10.6 25.6-.6 5.5.1 11.6 2.2 18.7 3.2 10.9 8.2 19.7 14.9 26.4 7.8 7.7 17.8 12 27.5 11.9 3.5-.1 7.1-.7 10.5-1.2 6.9-1.2 13.3-2.2 18.9.8.8.4 1.5.9 2.4 1.5.9.6 1.8 1.2 2.8 1.7 2.4 1.3 5.3 1.9 8.3 1.9 2.9 0 6-.6 9-1.8 1.4-.5 2.7-1.2 3.9-1.9.4 2.8 2.1 5.4 4.7 7.2 1.9 1.3 4 1.9 6 1.9 1.2 0 2.3-.2 3.3-.6 1.9-.7 3.4-2 4.7-3.4 3.4 2.8 7.8 4.5 12 6 .8.3 1.8 1.1 2.7 2 1.3 1.1 3.2 2.8 5.2 2.8 1.1 0 2.3-.5 3.4-1.7 1.9-2.1 1.4-6.5.8-12.6-.3-2.7-.6-5.6-.7-8.5 4.4-.8 8.9-3.8 11.4-9.3 1.7-3.7 2.3-8 1.8-13.1 4.4-5.1 6.2-11.4 7-16 1.1-6.1.9-11.9.6-17.5zM180 39.4c1.5.9 3.1 1.9 4.1 3.2.9 1.2 1.4 2.8 1.7 4.4-2.2-2.5-5.7-4.4-10.5-5.7-.3-.1-.6-.2-.9-.2 0-.1 0-.3 0-.4 0-1.8-.5-3.5-1.3-5.5l6.9 4.2zm-34.4-21.2c9.6 1.5 18.4 7.4 23.5 15.7 1.5 2.5 2.3 4.6 2.4 6.5-2.1-.5-4.3-.8-6.4-1.2-2.9-.5-5.9-1.1-8.8-1.8-7.3-1.9-12.5-4.8-15.9-8.9-1.6-2-2.6-4.6-2.3-6.7.1-1.2.6-2.1 1.4-2.8.9-.7 2.1-1.1 3.7-1.1.7.1 1.5.1 2.4.3zm20.4 95.7c-.4 0-.9-.1-1.3-.2-.6-.1-1.2-.3-1.8-.5-1.1-.4-2.1-.7-3.4-.8-4.2-.4-8.3 2.3-11.8 7.9-.3.4-.6.9-.8 1.3-.6.9-1.2 1.9-1.8 2.8-.7-.9-1.3-1.9-1.7-2.9-1.3-3.3-.8-6.8.4-10.3 1.6-1.2 3.3-2.5 5.1-3.2 2.5-1 5.2-1.2 8.2-1.3 1.1-.1 2.3-.1 3.4-.2 2.5-.2 4.9-.8 7.2-1.6-1.2 2.5-1.6 5.7-1.7 9zm-5.8-10.5c-1.1.1-2.2.2-3.3.2-3 .1-6.2.3-9.1 1.5-.6.3-1.3.6-1.8.9.1-.3.3-.6.4-.9l.4-.7c.7-1.4 1.4-2.8 2.1-4.3 7.8-1.2 15.8-1.5 23.7-1.6-.7.6-1.3 1.1-1.9 1.8-3.2 1.7-6.8 2.8-10.5 3.1zM75.5 83.5c-3.4-1.9-7.3-2.2-11-2.4-3.4-.3-6.7-.5-9.4-1.9-.4-1.5-.9-2.9-1.4-4.2-.4-1.1-.8-2.2-1.1-3.3-1.8-6.3 0-13.5 4.4-18.4 4.3-4.7 10.9-7.1 16.6-9.3l3.4-1.2c.7 1.3 1.7 2.5 2.5 3.4.9.9 1.8 1.8 2.7 2.7 1.4 1.3 2.7 2.5 3.8 4 3.5 4.8 3.9 11.5 3.8 16.8 0 1-.1 2-.1 3-.2 5.3-.3 10.7 1.3 15.9.1.2.1.4.2.6-2.2 1.7-4.4 3.5-6.7 4.9-2.3-4.2-4.8-8.3-9-10.6zm6.4 11.7c-4 1.9-8.1 2.4-11.5 1.5-3.3-.9-6.3-3.3-8.9-5.4-2-1.6-4.3-3.5-5.2-5.9-.3-.9-.5-1.9-.7-2.9 2.8 1 5.7 1.2 8.6 1.4 3.6.3 7 .5 9.8 2.1 3.6 1.9 5.7 5.5 7.9 9.2zm-3.5-58.3c.4-3.6 4.1-6.1 7.5-8.2 1.3-.8 2.8-1.7 4.3-1.8 1.4-.1 2.7.6 4.2 1.2l.5.2c.2.1.4.2.6.2-1 1.4-1.9 2.8-3.1 3.9-2.5 2.3-5.9 3.6-9.2 4.8l-4.7 1.7c-.1-.5-.2-1.3-.1-2zm5.8 3.2c3.4-1.2 7.2-2.7 10.1-5.4 1.6-1.5 2.8-3.2 3.9-4.9 1.1.4 2.2.7 3.4 1.1 4.3 4.7 9.2 8.8 14.6 12.2-.1.1-.1.2-.2.2-4.7 6.9-6.5 13.3-5.4 19.2.4 2.4 1.5 4.6 3 6.5-3.8 1.6-7.3 3.9-10.6 6.1l-1 .7c-3.6 2.4-7.3 4.9-9.2 8.4-.6-3.8-.5-7.7-.4-11.6 0-1 .1-2 .1-3 .1-5.8-.3-13.1-4.4-18.6-1.2-1.7-2.7-3-4.2-4.4-.9-.8-1.8-1.6-2.6-2.5-.6-.7-1.3-1.5-1.9-2.5l4.8-1.5zm35.9-14.3c-.4 1.3-1.2 2.6-2.5 3.1-.8.4-1.8.5-3.1.5-3.8.1-7.6-.3-11.2-1.2-.5-.5-1-1.1-1.4-1.6-.2-.3-.5-.4-.9-.5.3-.4.7-.7 1-1.1 2.3-2.2 5.6-3.4 9.1-3.2s6.7 1.5 8.8 3.9c0 0 .1.1.2.1zM116.7 68c-1.6-1.7-2.7-3.8-3.1-6-1.2-6.3 2-12.8 4.9-17 .1-.1.2-.2.2-.3 9.5 5.5 20.1 8.9 31.2 9.7 2 .1 3.9.2 5.9.3 1.8.1 3.5.1 5.2.2-10 6.5-22.3 9.1-35.1 11.3l-.3.1c-3 .3-6 .9-8.9 1.7zM92.4 91.8c1.9 3.7 4.7 7 8.3 9.3 1.6 1.1 3.4 1.9 5.1 2.6-4 2.7-9.6 2.8-13.6.1-2.6-1.8-4.5-4.4-6.2-7.4 2.2-1.4 4.3-3 6.4-4.6zm9.9 6.8c-3.2-2.1-5.9-5.2-7.5-8.7.4-.3.7-.6 1.1-.9 2.3-1.9 4.9-3.8 7.6-3.9 2.1-.1 4.2.6 6.5 1.5 2.8 1 5.7 2.1 8.8 1.4 3.2-.7 5.4-3 7.5-5.2 1.1-1.1 2.1-2.2 3.3-3 3.3-2.4 7.9-3 11.7-1.5 3.5 1.4 6.2 4.6 7.1 8.2-.2.2-.4.5-.4.8-.3 2.7-3.4 4.5-6.2 4.6-2.8.1-5.5-.8-8.4-1.9l-1.1-.4c-3.5-1.2-7.3-2.2-11.1-1.1-4.4 1.3-7 5-9.5 8.5-1.1 1.5-2.1 3-3.3 4.3-2.2-.6-4.3-1.5-6.1-2.7zm11.6.2c2.3-3.3 4.5-6.4 8-7.4 2.9-.9 6.2 0 9.3 1.1l1.1.4c3 1.1 6.2 2.2 9.5 2 2.3-.1 4.8-1.1 6.6-2.7-.3 1.8-.9 3.6-1.6 5.3-4.5.8-8.9 1.9-13.2 3.4-.6.2-1.2.5-1.9.7-2.1.8-4.1 1.5-6.2 1.9-3.9.7-7.9.1-11.3-.6-.9-.2-1.9-.4-2.9-.6 1-1.1 1.8-2.3 2.6-3.5zm37.4-11.7c-.8-5-4.4-9.5-9.1-11.4-1.8-.7-3.6-1.1-5.5-1.1-3.2 0-6.4 1-9 2.9-1.3 1-2.5 2.2-3.6 3.4-1.9 2-3.7 3.9-6.1 4.4-2.3.5-4.6-.4-7.2-1.3-2.4-.9-5-1.9-7.7-1.7-2.9.2-5.3 1.6-7.6 3.3 1.5-2.8 4.6-4.8 8.2-7.2l1-.7c3.3-2.2 6.7-4.5 10.3-6 .3-.1.6-.2.8-.3.4.4.9.7 1.4 1 2.8 1.8 6 2.4 8.9 1.7.6-.1 1.6-.2 2.6-.2 1.7 0 3.4 0 4.6-.6 6.2-3 9.9-4.4 16.3-5.3 1-.1 2.1-.4 3.2-.6 2.4-.5 5-1.1 6.9-.8 4.6.6 9.2 3.6 12.5 8 2.7 3.7 4.7 8.4 6 14.4.3 1.4.5 2.8.7 4.1 0 0-.1.1-.1.1-.2.2-.3.3-.5.5-.7.7-1.4 1.3-2.2 1.9 0 0-.1 0-.1 0-8.6.1-17.5.3-26.1 1.5 1.3-3.3 2-6.6 1.4-10zm30.5.7c-.1.4-.3.8-.5 1.2 0-.2-.1-.5-.1-.7-1.4-6.5-3.5-11.6-6.5-15.6-3.7-5.1-9-8.4-14.4-9.1-2.4-.3-5.3.3-7.9.8-1.1.2-2.1.4-3 .6-6.9 1-10.7 2.4-17.2 5.6-.7.3-2.2.3-3.4.4-1.2 0-2.3 0-3.2.3-2.4.6-4.5-.1-6-.9 2.1-.5 4.3-.9 6.4-1.3l.3-.1c13.7-2.4 28-5.4 39-13.7.9.1 1.7.3 2.6.5 6.4 1.5 11.3 5.1 13.2 9.7.6 1.6 1 3.4 1.2 5.1.8 5.4 1.4 11.6-.5 17.2zM165 51.9c-.2.1-.3.2-.5.4-2.9-.4-5.8-.5-8.7-.5-1.9-.1-3.8-.1-5.7-.3-10.5-.8-20.6-4-29.6-9.2 1.9-2.4 3.9-4.6 6.2-6.7l.4-.4c1.5-1.3 3.1-2.8 4-4.9 1.5-3.6.3-9.2-1.5-13.2l7.1.7c-.8 1-1.3 2.3-1.4 3.7-.3 2.9.9 6.3 3 8.9 3.8 4.6 9.5 7.8 17.4 9.8 3 .8 6 1.3 9 1.8 2.2.4 4.4.8 6.6 1.3-1 3.5-3.8 6.5-6.3 8.6zm-38.9-35.2c2.1 3.6 3.4 9.6 2.2 12.4-.6 1.5-1.9 2.6-3.2 3.8l-.5.4c-2.4 2.2-4.7 4.7-6.7 7.3-4-2.5-7.8-5.5-11.2-8.8 2.6.4 5.2.5 7.8.5 1.4 0 2.8-.2 4.2-.7 3.3-1.4 5.1-5.4 4.4-9.3-.5-2.4-2.6-4.6-4.8-6.4.5 0 1 .1 1.4.1l6.4.7zM57.3 27.9c4.4-1.5 8.9-3 13.6-3.8 1.9-.3 3.9-.5 5.8-.7 3.7-.3 7.6-.7 11.3-2 1.8-.6 3.6-1.5 5.2-2.3 1.5-.8 3-1.5 4.5-2 4.8-1.8 10.2-1.9 15.3-1.6.1.1.2.3.3.4.3.2.5.4.8.6 1.7 1.3 4.4 3.4 5.5 5.2-2.4-1.7-5.4-2.7-8.6-2.8-4.3-.1-8.3 1.3-11.2 4-1.1 1-2 2.2-2.8 3.3-.4-.1-.7-.3-1.1-.4l-.5-.2c-1.6-.7-3.5-1.6-5.6-1.5-2.2.1-4.1 1.3-5.7 2.2-2.9 1.8-8.2 5-8.9 10.3-.1 1.2 0 2.4.3 3.5l-3.2 1.2c-6.1 2.2-12.9 4.8-17.8 10-5.1 5.6-7.1 13.8-5.1 21.1.3 1.2.8 2.4 1.2 3.5.2.4.3.9.5 1.3-1.4-.7-3.3-1.5-3.8-2.2-9.6-12.2-9.5-29.7.4-42.7.1-.2.2-.4.3-.6 3.1-1.7 6.3-2.8 9.3-3.8zm23.5 90.7c-3.3.6-6.8 1.1-10.1 1.2-9 .1-18.2-3.9-25.4-11-1.2-1.1-2.3-2.4-3.3-3.7 6.3 4.6 13.8 7.4 21.6 7.8 2 .1 4.1.1 6 .1 1.6 0 3.2 0 4.7 0 6.3.2 12.5 1.7 18.2 4.4-3.8-.1-7.8.5-11.7 1.2zm40.7 4.1c-5.3 2.1-10.7 2.1-14.8 0-.8-.4-1.6-1-2.5-1.5-.5-.3-1-.7-1.6-1-.1-.2-.2-.3-.4-.5-8-5.9-17.9-9.3-27.8-9.7-1.6-.1-3.3 0-4.9 0-1.9 0-3.9.1-5.8-.1-11.1-.7-21.7-6.4-28.3-15.4-.1-.1-.2-.2-.3-.3-1.6-3.3-2.9-6.8-4-10.6-2-6.7-2.6-12.4-2.1-17.6 1-8.9 5.9-17.2 10.2-24.4.3-.5.6-1 .9-1.5-4.9 12.3-3.2 26.3 5 36.7 1 1.3 3.1 2.2 5.1 3.2.8.4 1.6.7 2.1 1 .1.4.1.8.2 1.3.2 1.4.4 2.8.9 4.2 1.2 3.1 3.9 5.3 6.1 7.1 2.8 2.3 6 4.8 9.9 5.9 4.1 1.2 9 .5 13.7-1.7 1.9 3.2 4 6.3 7.2 8.4 2.4 1.6 5.4 2.4 8.3 2.4 3.3 0 6.6-1 9.2-3 .4-.3.7-.6 1-.9 1.6.5 3.2.8 4.6 1.1 2.5.5 5.3 1 8.1 1 1.4 0 2.8-.1 4.2-.4 2.3-.4 4.5-1.3 6.7-2.1.6-.2 1.2-.5 1.8-.7 3.5-1.3 7.1-2.2 10.7-2.9-.4.8-.8 1.6-1.2 2.3l-.4.7c-.9 1.7-1.7 3.6-2.4 5.4l-6.2 4.8c-3.8 3.5-8.2 6.9-13.2 8.8zm18.1 6.6c-2.1.8-4.6.4-6.7-1-2.1-1.4-3.4-3.6-3.5-5.8 0-.2-.1-.4-.1-.6 2.7-1.7 5.2-3.7 7.7-5.6l3.1-2.4c-.5 2.8-.4 5.7.6 8.4.6 1.6 1.5 3 2.6 4.3-1.1 1.2-2.3 2.2-3.7 2.7zm27 6.4c-1.1 1.3-1.9 1.1-4.5-1.3-1.2-1-2.3-2.1-3.7-2.5-3.9-1.4-8.1-3-11.2-5.5.8-1.1 1.5-2.2 2.2-3.3.3-.4.5-.9.8-1.3 2-3.2 5.2-6.9 9.1-6.5.9.1 1.8.4 2.7.7.7.2 1.4.5 2.1.6.6.1 1.3.2 2 .3.1 2.9.4 5.9.7 8.6.3 4.2.8 9.1-.2 10.2zm2.3-22.1c.1-3.7.8-7.2 2.5-9.7.3-.5.7-.9 1-1.3 2.6-1.4 4.9-3.2 6.9-5.3 0 3.3-.5 6.2-1.7 8.7-1.5 3.5-4.9 6.7-8.7 7.6zm17.3-36c-.1.4-.1.8-.2 1.2 0-3-.4-5.9-.8-8.6-.3-1.9-.6-3.9-1.4-5.8-2.2-5.5-7.9-9.8-15.2-11.5-.1 0-.2 0-.3-.1 3.1-2.8 5-5.8 5.8-8.8.2 0 .4.1.5.1 5.2 1.4 8.5 3.5 10.2 6.4 1.4 2.4 1.5 5.5 1.7 8.3.3 6.2.7 12.6-.3 18.8z" class="st3"/></svg>