<svg width="51" height="55" viewBox="0 0 51 55" fill="none" xmlns="http://www.w3.org/2000/svg">
<path d="M0.0566406 18.3303V5.72177C0.0566406 4.3323 0.140235 4.25665 1.52082 3.95657C4.56063 3.28327 7.58271 2.5898 10.6124 1.90641C15.3773 0.829643 20.1928 0.0554777 25.0844 0C27.1679 0.00848423 29.249 0.143219 31.316 0.403468C37.3602 1.07424 43.2397 2.61753 49.1673 3.90361C49.37 3.94648 49.5802 3.97169 49.7854 4.01456C50.5225 4.17091 50.8291 4.5189 50.8291 5.27542C50.8291 13.7988 50.862 22.3222 50.8113 30.8456C50.8157 32.575 50.4721 34.2878 49.8008 35.8829C49.1295 37.4781 48.1441 38.9232 46.9026 40.1331C42.0668 44.9546 36.8282 49.3045 30.817 52.6382C29.406 53.4225 27.8988 54.0353 26.4549 54.764C25.7481 55.1196 25.1224 55.0465 24.4283 54.7237C20.6289 53.0014 17.0488 50.8352 13.7636 48.2706C10.5339 45.7161 7.34965 43.0885 4.32757 40.297C1.51575 37.6971 0.0845049 34.3457 0.0718391 30.4623C0.0718391 26.4099 0.0718391 22.3575 0.0718391 18.3051L0.0566406 18.3303ZM48.7367 18.5825C48.7367 14.5932 48.7367 10.6038 48.7367 6.61445C48.7367 6.1101 48.5644 5.92097 48.0882 5.82515C46.8216 5.57298 45.555 5.27794 44.2732 4.99551C39.1283 3.85318 33.9986 2.64779 28.7144 2.26449C24.4708 1.95269 20.2043 2.20711 16.0283 3.02101C11.6181 3.88091 7.24072 4.89464 2.8558 5.81002C2.27823 5.92854 2.13638 6.1681 2.13891 6.7254C2.15749 14.4956 2.15749 22.265 2.13891 30.0336C2.13891 33.4883 3.31684 36.4665 5.82215 38.8293C7.94495 40.8341 10.1615 42.7481 12.4084 44.6041C16.2664 47.7839 20.3854 50.578 24.9577 52.6559C25.2268 52.7875 25.5351 52.8163 25.8241 52.7366C28.4687 51.6371 30.9931 50.2708 33.3578 48.659C37.2789 45.9653 40.975 42.9605 44.41 39.6741C45.864 38.3073 47.0952 36.7842 47.8475 34.9106C48.5315 33.2059 48.7215 31.4256 48.7215 29.615C48.735 25.9249 48.74 22.2415 48.7367 18.5648V18.5825Z" fill="#00778B"/>
<path d="M25.4728 36.0504C21.7643 36.0504 18.0557 36.0504 14.3471 36.0504C12.3459 36.0504 10.8944 34.9005 10.4004 32.9865C10.3364 32.7232 10.3049 32.453 10.3067 32.1821C10.3067 27.7918 10.3067 23.404 10.3194 19.0137C10.3194 17.0821 12.0622 15.3774 14.0077 15.3421C15.4415 15.3169 16.8752 15.3244 18.3141 15.3421C18.4786 15.3608 18.6449 15.3269 18.7888 15.2453C18.9327 15.1637 19.0468 15.0386 19.1146 14.8882C19.6212 13.9501 20.1962 13.0423 20.7333 12.1143C20.8333 11.9186 20.9889 11.7567 21.1809 11.6486C21.3728 11.5405 21.5924 11.4911 21.8124 11.5066C24.2974 11.5343 26.785 11.5393 29.2701 11.5645C29.5239 11.5559 29.7749 11.6194 29.9938 11.7476C30.2127 11.8757 30.3905 12.0633 30.5063 12.2883C31.0129 13.181 31.5727 14.0383 32.0616 14.9361C32.1358 15.1064 32.263 15.2486 32.4244 15.3417C32.5858 15.4347 32.773 15.4738 32.9584 15.453C34.263 15.4303 35.5726 15.4833 36.8772 15.4379C38.8657 15.3698 40.7023 17.0947 40.7453 18.9683C40.7757 20.3073 40.8315 21.6489 40.8391 23.003C40.8543 25.9005 40.8391 28.803 40.8391 31.6979C40.8391 33.0773 40.454 34.2927 39.3065 35.188C38.5343 35.7796 37.5802 36.087 36.6061 36.0579C32.8942 36.0563 29.1831 36.0538 25.4728 36.0504ZM25.559 33.9649C29.2017 33.9649 32.8444 33.9649 36.4871 33.9649C37.8474 33.9649 38.6555 33.3673 38.6707 32.0711C38.7213 27.8145 38.7112 23.5561 38.6403 19.2961C38.62 18.0655 37.8955 17.5309 36.6467 17.5309C35.0862 17.5309 33.5283 17.5158 31.9704 17.5309C31.7301 17.5545 31.488 17.5065 31.2752 17.3929C31.0623 17.2793 30.8881 17.1053 30.7748 16.8929C30.2428 15.9675 29.6678 15.0672 29.1561 14.119C29.0905 13.9678 28.979 13.8408 28.8373 13.7558C28.6956 13.6707 28.5307 13.632 28.3657 13.645C26.514 13.645 24.6597 13.6248 22.8079 13.5895C22.6421 13.573 22.4752 13.6087 22.3307 13.6914C22.1862 13.7742 22.0714 13.8999 22.0024 14.051C21.5388 14.8957 21.0322 15.7178 20.5686 16.5727C20.4477 16.8399 20.2467 17.0634 19.9932 17.2124C19.7397 17.3614 19.446 17.4286 19.1526 17.4048C17.658 17.3695 16.1609 17.3922 14.6663 17.4048C13.0628 17.4048 12.3865 18.0706 12.3865 19.6492C12.3865 23.6385 12.3865 27.6262 12.3865 31.6122C12.3865 33.3244 13.0248 33.9649 14.7474 33.9649C18.3512 33.9649 21.9551 33.9649 25.559 33.9649Z" fill="#00778B"/>
<path d="M25.3881 32.5578C23.4514 32.5863 21.5817 31.8522 20.1859 30.5152C18.7902 29.1782 17.9814 27.3465 17.9355 25.4189C17.8443 21.5506 20.9753 17.9975 25.0006 17.8386C25.9744 17.7912 26.9479 17.9364 27.865 18.2657C28.7821 18.5951 29.6246 19.1021 30.3437 19.7575C31.0628 20.4128 31.6443 21.2036 32.0547 22.084C32.465 22.9644 32.696 23.917 32.7343 24.8868C32.7787 25.8758 32.6218 26.8635 32.2729 27.7906C31.9241 28.7177 31.3905 29.565 30.7043 30.2816C30.0181 30.9981 29.1934 31.5692 28.2798 31.9603C27.3662 32.3515 26.3826 32.5547 25.3881 32.5578ZM31.5691 25.2449C31.5761 24.4222 31.4199 23.6063 31.1095 22.8439C30.7992 22.0815 30.3407 21.3875 29.7603 20.8018C29.18 20.2162 28.4892 19.7503 27.7276 19.4309C26.9661 19.1115 26.1487 18.9449 25.3223 18.9406C21.9582 18.9154 19.1059 21.7523 19.0957 25.1415C19.0857 25.9647 19.2397 26.7818 19.5488 27.5454C19.858 28.309 20.3161 29.004 20.8968 29.5903C21.4775 30.1765 22.1691 30.6424 22.9318 30.9609C23.6944 31.2793 24.513 31.4442 25.34 31.4458C26.9876 31.4391 28.5658 30.7848 29.731 29.6253C30.8962 28.4658 31.5541 26.8951 31.5615 25.255L31.5691 25.2449Z" fill="#00778B"/>
<path d="M36.4405 20.32C36.4437 20.4354 36.423 20.5503 36.3797 20.6574C36.3363 20.7645 36.2712 20.8615 36.1885 20.9425C36.1058 21.0234 36.0072 21.0865 35.8988 21.1278C35.7905 21.1691 35.6748 21.1877 35.5589 21.1824C35.4436 21.1812 35.3297 21.1569 35.2241 21.111C35.1184 21.0651 35.023 20.9986 34.9436 20.9153C34.8642 20.8321 34.8025 20.7338 34.762 20.6263C34.7214 20.5189 34.703 20.4044 34.7078 20.2897C34.7032 20.1742 34.7232 20.059 34.7664 19.9517C34.8095 19.8443 34.875 19.7473 34.9584 19.6669C35.0419 19.5864 35.1414 19.5244 35.2505 19.4849C35.3597 19.4453 35.476 19.4291 35.5918 19.4374C35.7078 19.4327 35.8235 19.4526 35.9311 19.4958C36.0388 19.539 36.136 19.6046 36.2163 19.688C36.2965 19.7715 36.358 19.871 36.3967 19.98C36.4353 20.0889 36.4503 20.2049 36.4405 20.32Z" fill="#00778B"/>
<path d="M25.3257 28.6265C24.8729 28.6319 24.4237 28.5472 24.0042 28.3776C23.5848 28.2079 23.2036 27.9566 22.8829 27.6383C22.5623 27.3201 22.3087 26.9413 22.137 26.5243C21.9653 26.1072 21.879 25.6603 21.8831 25.2096C21.8774 24.7588 21.9615 24.3113 22.1306 23.8931C22.2996 23.4748 22.5503 23.0941 22.868 22.7728C23.1858 22.4516 23.5643 22.1962 23.9818 22.0215C24.3993 21.8467 24.8475 21.7561 25.3003 21.7548C25.7587 21.7522 26.2131 21.8397 26.6374 22.0123C27.0616 22.1849 27.4475 22.4392 27.7728 22.7607C28.0981 23.0822 28.3564 23.4644 28.5329 23.8855C28.7093 24.3067 28.8005 24.7583 28.8012 25.2146C28.7925 26.1251 28.422 26.9952 27.7707 27.6345C27.1194 28.2739 26.2404 28.6305 25.3257 28.6265Z" fill="#00778B"/>
</svg>
