<svg xmlns="http://www.w3.org/2000/svg" viewBox="0 0 413.3 101.9" enable-background="new 0 0 413.3 101.9"><style type="text/css">.st0{fill:#8DC63F;} .st1{fill:#007F3E;}</style><path d="M386.1 47.4h-2.4v-.9h5.8v.9h-2.4v6.3h-1zM397.1 47.2h-.1l-2.3 6.5h-.9l-2.3-6.5v6.5h-1v-7.2h1.8l2.1 5.9 2-5.9h1.6v7.2h-.9zM130.8 45.2c-.2-3.4-3.9-5.6-7.5-5.6-8.7 0-10.4 8-10.4 14.2 0 7.3 2.2 14.2 9.9 14.2 3.8 0 7.2-1.9 7.8-5.7h5.2c-.5 5.9-6.5 9.9-13.4 9.9-10.5 0-14.6-8.5-14.6-18.5 0-8.7 3.8-18.8 15.7-18.5 6.8.2 11.9 3.5 12.5 9.9h-5.2zM144.5 60.1c-.3 4.3 1.4 8.8 6.2 8.8 3.6 0 5.5-1.4 6-5h4.9c-.7 5.6-5.1 8.4-11 8.4-7.9 0-11.1-5.6-11.1-12.9 0-7.2 3.6-13.3 11.4-13.3 7.4.1 10.9 4.8 10.9 11.6V60h-17.3zm12.4-3.2c.1-4.1-1.8-7.3-6.3-7.3-3.9 0-6.2 3.3-6.2 7.3h12.5zM171.2 50.5c1.7-3.1 5.1-4.4 7.6-4.4 1.7 0 9.3.4 9.3 8.4v17h-4.7V56c0-4.1-1.7-6.3-5.7-6.3 0 0-2.5-.2-4.5 1.8-.7.7-2 1.8-2 6.6v13.4h-4.7V46.9h4.6v3.6zM195.5 46.9v-5.3l4.7-1.5v6.7h5.7v3.4h-5.7V66c0 1.8 1.4 2.6 3 2.6.7 0 1.7-.1 2.5-.3V72c-1.1.1-2.1.3-3.2.3s-2 0-3.1-.2c-.7-.1-2-.5-2.8-1.6-.8-1.2-1.1-1.3-1.1-4.6V50.3h-4.2v-3.4h4.2zM226.4 46.9h4.7v24.7h-4.6V68h-.1c-1.9 3.1-5 4.4-8.5 4.4-5.2 0-8.1-3.9-8.1-8.9V46.9h4.7v14.6c0 4.3 1 7.4 5.4 7.4 1.9 0 4.5-1 5.5-3.5.9-2.3.9-5.2.9-5.8V46.9zM241.9 71.5h-4.7V46.9h4.7v4.8h.1c.7-3.4 3.8-5.1 7.2-5.1.6 0 1.1.1 1.6.1V51c-.6-.2-1.4-.2-2-.2-5.9.2-6.9 3.3-6.9 8.5v12.2zM264.7 81h-4.8l3.7-9.6-10.2-24.5h5.2l7.7 19.4 7.9-19.4h5zM282.7 71.5V36.1h7.6v29.5h15.4v5.9zM317.9 42.4H310v-6.3h7.9v6.3zm-.3 29.1h-7.4V46.9h7.4v24.6zM332 49.7l.1.1c1.5-2.3 3.8-3.7 7.6-3.7 2.5 0 7.2 1.8 8.1 5.4.4 1.5.5 3.1.5 3.9v16.1h-7.4V56.7c0-2.7-.8-5.7-4.4-5.7-2.3 0-4.3 2.1-4.4 5.7v14.8h-7.4V46.9h7.3v2.8zM362.8 56.9l.1.1 7.3-10.4h8.2l-8.5 10.8 9 14.1h-8.6L362.9 58l-.1.1v13.4h-7.4V36.1h7.4z"/><path d="M16.4 76.1c2.6 3.6 5.7 6.8 9.3 9.3l12.8-22.1-22.1 12.8zM25.7 22.2c-3.6 2.6-6.8 5.7-9.3 9.3l22.1 12.8-12.8-22.1zM64.2 18.7c-3.9-1.8-8.2-3-12.8-3.4v25.5l12.8-22.1zM31.7 88.9c3.9 1.8 8.2 3 12.8 3.4V66.8L31.7 88.9zM79.6 31.5c-2.6-3.6-5.7-6.8-9.3-9.3L57.5 44.3l22.1-12.8zM70.2 85.4c3.6-2.6 6.8-5.7 9.3-9.3l-22-12.8 12.7 22.1z" class="st0"/><path d="M86.5 50.3c-.4-4.5-1.6-8.8-3.4-12.8L61 50.3h25.5zM9.5 57.3c.4 4.5 1.6 8.8 3.4 12.8L35 57.3H9.5zM12.9 37.6c-1.8 3.9-3 8.2-3.4 12.8H35L12.9 37.6zM61 57.3L83.1 70c1.8-3.9 3-8.2 3.4-12.8H61zM44.5 15.3c-4.5.4-8.8 1.6-12.8 3.4l12.8 22.1V15.3zM51.5 92.3c4.5-.4 8.8-1.6 12.8-3.4L51.5 66.8v25.5zM77.4 16.2H75v-.9h5.7v.9h-2.4v6.3h-.9zM88.3 16L86 22.5h-.9L82.8 16v6.5h-1v-7.2h1.7l2.1 5.9 2-5.9h1.7v7.2h-1z" class="st1"/></svg>