<svg width="27" height="24" xmlns="http://www.w3.org/2000/svg" fill="none">

 <g>
  <title>Layer 1</title>
  <path id="svg_1" fill="#005665" d="m1.08582,0.66477c0.37507,-0.37508 0.88378,-0.58579 1.41421,-0.58579l21.99997,0c0.5305,0 1.0392,0.21071 1.4142,0.58579c0.3751,0.37507 0.5858,0.88378 0.5858,1.41421l0,16.00002c0,0.5304 -0.2107,1.0391 -0.5858,1.4142c-0.375,0.3751 -0.8837,0.5858 -1.4142,0.5858l-16.6169,0l-0.12984,0.0456l-3.97818,3.3373c-0.29137,0.2411 -0.64515,0.3947 -1.02028,0.4429c-0.37512,0.0481 -0.75621,-0.011 -1.09906,-0.1707c-0.34285,-0.1596 -0.6334,-0.4132 -0.83796,-0.7313c-0.20455,-0.3181 -0.31472,-0.6877 -0.31772,-1.0659l-0.00006,-0.0079l0.00003,-19.85002c0,-0.53043 0.21072,-1.03914 0.58579,-1.41421zm23.41418,1.41421l-21.99997,0l0,19.84202l4.1073,-3.4456c0.09222,-0.0774 0.19765,-0.1375 0.31121,-0.1774l0.4625,-0.1625c0.10652,-0.0374 0.2186,-0.0565 0.33149,-0.0565l16.78747,0l0,-16.00002z" clip-rule="evenodd" fill-rule="evenodd"/>
  <path id="svg_2" fill="#005665" d="m8.5,8.07898c0,-0.55229 0.44772,-1 1,-1l8,0c0.5523,0 1,0.44771 1,1c0,0.55228 -0.4477,1 -1,1l-8,0c-0.55228,0 -1,-0.44772 -1,-1z" clip-rule="evenodd" fill-rule="evenodd"/>
  <path id="svg_3" fill="#005665" d="m8.5,12.079c0,-0.5523 0.44772,-1 1,-1l8,0c0.5523,0 1,0.4477 1,1c0,0.5523 -0.4477,1 -1,1l-8,0c-0.55228,0 -1,-0.4477 -1,-1z" clip-rule="evenodd" fill-rule="evenodd"/>
 </g>
</svg>