<svg width="27" height="24" viewBox="0 0 27 24" fill="currentColor" xmlns="http://www.w3.org/2000/svg">
<style>
	 *{
	  pointer-events: fill;
	 	}
    #logo path{
      color: #00778b;
    }
    #logo:hover path{
      color:#005665;
    }
</style>
<g id="logo">
<path fill-rule="evenodd" clip-rule="evenodd" d="M8.5 8.07898C8.5 7.52669 8.94772 7.07898 9.5 7.07898H17.5C18.0523 7.07898 18.5 7.52669 18.5 8.07898C18.5 8.63126 18.0523 9.07898 17.5 9.07898H9.5C8.94772 9.07898 8.5 8.63126 8.5 8.07898Z" fill="currentColor"/>
<path fill-rule="evenodd" clip-rule="evenodd" d="M1.08582 0.664766C1.46089 0.289694 1.9696 0.0789795 2.50003 0.0789795H24.5C25.0305 0.0789795 25.5392 0.289693 25.9142 0.664766C26.2893 1.03984 26.5 1.54855 26.5 2.07898V18.079C26.5 18.6094 26.2893 19.1181 25.9142 19.4932C25.5392 19.8683 25.0305 20.079 24.5 20.079H7.8831L7.75326 20.1246L3.77508 23.4619C3.48371 23.703 3.12993 23.8566 2.7548 23.9048C2.37968 23.9529 1.99859 23.8938 1.65574 23.7341C1.31289 23.5745 1.02234 23.3209 0.817781 23.0028C0.613227 22.6847 0.50306 22.3151 0.500063 21.9369L0.5 21.929L0.500031 2.07898C0.500031 1.54855 0.710746 1.03984 1.08582 0.664766ZM24.5 2.07898L2.50003 2.07898V21.921L6.60733 18.4754C6.69955 18.398 6.80498 18.3379 6.91854 18.298L7.38104 18.1355C7.48756 18.0981 7.59964 18.079 7.71253 18.079H24.5V2.07898Z" fill="currentColor"/>
<path fill-rule="evenodd" clip-rule="evenodd" d="M8.5 12.079C8.5 11.5267 8.94772 11.079 9.5 11.079H17.5C18.0523 11.079 18.5 11.5267 18.5 12.079C18.5 12.6313 18.0523 13.079 17.5 13.079H9.5C8.94772 13.079 8.5 12.6313 8.5 12.079Z" fill="currentColor"/>
</g>
</svg>
