<svg xmlns="http://www.w3.org/2000/svg" viewBox="0 0 500 200" enable-background="new 0 0 500 200"><style type="text/css">.st0{fill:#0B1A84;} .st1{fill:#4A4A4A;}</style><path d="M219.8 126.6c0-17.6 0-36.7 0-55.4 13.5 0 26.1-.7 38.8.7 12.5 1.4 20.2 12.7 20.5 26 .1 13.9-7.5 26.2-19.9 27.8-13 1.6-26.1.9-39.4.9zm9.4-8.8c8 0 15.8.1 23.6-.2 9.8-.3 16.8-7.9 17.2-18.1.3-9.6-6.1-18.3-15.5-19.1-8.4-.8-18.2-.3-25.4-.3.1 12.6.1 25.1.1 37.7z" class="st0"/><path d="M101.7 117.5V80.2h40.5v-9.1H92.6v55.4h49.8v-9zM109.7 93.9H140v9h-30.3zM84.7 71.4H37v55.3h9V80.4h38.7zM54.2 94h28v9h-28z" class="st1"/><path d="M396.8 71h-52.2v9.1h21.7v46.3h9V80.1h21.5zM351 126.6S320.8 77 319.5 74.8c-1.4-2.1-2.3-4.4-5.4-4.4-3.5.1-5.4 4.2-5.4 4.2l-1 1.6-30.7 50.4h10.6l26.5-43.4 13.3 21.8c-4.5 0-10.1 0-13.2 0-5.9 0-7.5 2.9-8.7 7.9 6 0 21.1 0 26.8 0l8.4 13.7H351z" class="st0"/><path d="M151.6 126.6c0-17.6 0-36.7 0-55.4 13.5 0 26.1-.7 38.8.7 12.5 1.4 20.2 12.7 20.5 26 .1 13.9-7.5 26.2-19.9 27.8-12.9 1.6-26 .9-39.4.9zm9.3-8.8c8 0 15.8.1 23.6-.2 9.8-.3 16.8-7.9 17.2-18.1.3-9.6-6.1-18.3-15.5-19.1-8.4-.8-18.2-.3-25.4-.3.1 12.6.1 25.1.1 37.7z" class="st1"/><path d="M461 126.6S430.8 77 429.5 74.8c-1.4-2.1-2.3-4.4-5.4-4.4-3.5.1-5.4 4.2-5.4 4.2l-1 1.6-30.7 50.4h10.6l26.5-43.4 13.3 21.8c-4.5 0-10.1 0-13.2 0-5.9 0-7.5 2.9-8.7 7.9 6 0 21.1 0 26.8 0l8.4 13.7H461z" class="st0"/></svg>