<svg xmlns="http://www.w3.org/2000/svg" id="Layer_1" x="0" y="0" version="1.1" viewBox="0 0 500 200" xml:space="preserve"><style>.st0{fill:#fed73d}</style><path d="M59.9 63h387.6v67.5H59.9z"/><path d="M94.8 103.6v-5.2H91v5.2h-4V90.2h4V95h3.7v-4.8h4v13.4h-3.9z" class="st0"/><path d="M99.1 103.9h-4.6v-5.2h-3.1v5.2h-4.6v-14h4.6v4.8h3.1v-4.8h4.6v14zm-4-.6h3.4V90.5h-3.4v4.8h-4.3v-4.8h-3.4v12.8h3.4v-5.2h4.3v5.2z"/><path d="M109.9 103.9c-3.9 0-6.5-2.8-6.5-7s2.6-7 6.5-7 6.5 2.8 6.5 7-2.6 7-6.5 7zm0-11c-1.6 0-2.6 1.5-2.6 4s.9 4 2.6 4 2.6-1.5 2.6-4-1-4-2.6-4z" class="st0"/><path d="M109.9 104.2c-4.1 0-6.8-2.9-6.8-7.3s2.8-7.3 6.8-7.3c4.1 0 6.8 2.9 6.8 7.3 0 4.3-2.7 7.3-6.8 7.3zm0-14c-3.7 0-6.2 2.7-6.2 6.7s2.5 6.7 6.2 6.7 6.2-2.7 6.2-6.7c0-4.1-2.4-6.7-6.2-6.7zm0 10.9c-1.8 0-2.9-1.6-2.9-4.3 0-2.7 1.1-4.3 2.9-4.3s2.9 1.6 2.9 4.3c0 2.7-1.1 4.3-2.9 4.3zm0-7.9c-1.4 0-2.3 1.4-2.3 3.7 0 2.3.8 3.7 2.3 3.7s2.3-1.4 2.3-3.7c0-2.3-.9-3.7-2.3-3.7z"/><path d="M133 103.1l-4.1.6-2.5-4.3h-.7v4.2h-4V90.2h5.1c3.5 0 5.5 1.5 5.5 4.4 0 1.8-.8 3.1-2.3 3.9l3 4.6zm-6.4-10h-.8v3.6h.8c1.3 0 2-.7 2-1.9 0-1.1-.8-1.7-2-1.7z" class="st0"/><path d="M128.8 104.1l-2.5-4.3h-.2v4.2h-4.6V90h5.4c3.7 0 5.8 1.7 5.8 4.7 0 1.8-.7 3.1-2.2 4l3 4.8-4.7.6zm-3.3-5h1.1l2.5 4.3 3.4-.5-2.8-4.5.3-.1c1.5-.7 2.2-1.9 2.2-3.6 0-2.7-1.8-4.1-5.2-4.1h-4.8v12.8h3.4v-4.3zm1.1-2.1h-1.1v-4.2h1.1c1.4 0 2.3.8 2.3 2.1s-.9 2.1-2.3 2.1zm-.5-.6h.5c1.1 0 1.7-.5 1.7-1.6 0-1.2-.9-1.5-1.7-1.5h-.5v3.1z"/><path d="M137.6 103.6V90.2h4v13.4h-4z" class="st0"/><path d="M141.9 103.9h-4.6v-14h4.6v14zm-4-.6h3.4V90.5h-3.4v12.8z"/><path d="M146.1 103.6v-2.9l5.7-7.5h-5l-.5-3.1h10.3V93l-5.7 7.5h5.4l.5 3.1h-10.7z" class="st0"/><path d="M157.1 103.9h-11.4v-3.3l.1-.1 5.3-7h-4.6l-.6-3.7h11v3.3l-5.4 7.1h5l.6 3.7zm-10.7-.6h10.1l-.4-2.5h-5.7l6-7.9v-2.5h-9.7l.3 2.6h5.3l-6 7.9v2.4z"/><path d="M166.7 103.9c-3.9 0-6.5-2.8-6.5-7s2.6-7 6.5-7 6.5 2.8 6.5 7-2.5 7-6.5 7zm0-11c-1.6 0-2.6 1.5-2.6 4s.9 4 2.6 4 2.6-1.5 2.6-4-.9-4-2.6-4z" class="st0"/><path d="M166.7 104.2c-4.1 0-6.8-2.9-6.8-7.3s2.8-7.3 6.8-7.3c4.1 0 6.8 2.9 6.8 7.3 0 4.3-2.7 7.3-6.8 7.3zm0-14c-3.7 0-6.2 2.7-6.2 6.7s2.5 6.7 6.2 6.7 6.2-2.7 6.2-6.7c0-4.1-2.4-6.7-6.2-6.7zm0 10.9c-1.8 0-2.9-1.6-2.9-4.3 0-2.7 1.1-4.3 2.9-4.3s2.9 1.6 2.9 4.3c0 2.7-1.1 4.3-2.9 4.3zm0-7.9c-1.4 0-2.3 1.4-2.3 3.7 0 2.3.8 3.7 2.3 3.7s2.3-1.4 2.3-3.7c0-2.3-.9-3.7-2.3-3.7z"/><path d="M187.1 103.6l-4.4-7v7H179V90.2h3.9l4 6.4v-6.4h3.7v13.4h-3.5z" class="st0"/><path d="M191 103.9h-4l-3.9-6.3v6.3h-4.3v-14h4.4l3.5 5.7v-5.7h4.3v14zm-3.7-.6h3.1V90.5h-3.1v7.2l-4.5-7.2h-3.5v12.8h3.1v-7.8l4.9 7.8z"/><path d="M211.3 103.9c-4.3 0-6.7-2.8-6.7-7s2.6-7 6.9-7c1.6 0 3 .4 4.1.9l-.5 3.4c-1-.6-2.2-1.1-3.5-1.1-2.1 0-3 1.6-3 3.8 0 2.2 1 3.9 3 3.9.5 0 1-.1 1.4-.3v-1.9h-2l-.4-2.8h5.8v6.6c-1.6 1-3.2 1.5-5.1 1.5z" class="st0"/><path d="M211.3 104.2c-4.3 0-7-2.8-7-7.3 0-4.4 2.8-7.3 7.2-7.3 1.5 0 3 .3 4.2 1l.2.1-.6 4-.4-.2c-1.2-.7-2.3-1-3.3-1-2.4 0-2.7 2.2-2.7 3.5 0 2.3 1 3.6 2.7 3.6.4 0 .7-.1 1.1-.2V99h-2l-.5-3.4h6.5v7.1l-.1.1c-1.7.9-3.4 1.4-5.3 1.4zm.2-14c-4 0-6.6 2.6-6.6 6.7s2.4 6.7 6.4 6.7c1.8 0 3.3-.4 4.8-1.3V96h-5.2l.4 2.2h2.1v2.4l-.2.1c-.5.3-1 .4-1.5.4-2 0-3.3-1.6-3.3-4.2s1.2-4.1 3.3-4.1c1.3 0 2.4.5 3.3.9l.4-2.7c-1.2-.5-2.6-.8-3.9-.8z"/><path d="M221.6 103.6V90.2h4v10.1h3.8l.5 3.4h-8.3z" class="st0"/><path d="M230.3 103.9h-9v-14h4.6V100h3.8l.6 3.9zm-8.4-.6h7.7l-.4-2.8h-3.8v-10H222v12.8z"/><path d="M241.1 103.9c-3.9 0-6.5-2.8-6.5-7s2.6-7 6.5-7 6.5 2.8 6.5 7-2.6 7-6.5 7zm0-11c-1.6 0-2.6 1.5-2.6 4s.9 4 2.6 4 2.6-1.5 2.6-4-1-4-2.6-4z" class="st0"/><path d="M241.1 104.2c-4.1 0-6.8-2.9-6.8-7.3s2.8-7.3 6.8-7.3c4.1 0 6.8 2.9 6.8 7.3 0 4.3-2.7 7.3-6.8 7.3zm0-14c-3.7 0-6.2 2.7-6.2 6.7s2.5 6.7 6.2 6.7 6.2-2.7 6.2-6.7c0-4.1-2.4-6.7-6.2-6.7zm0 10.9c-1.8 0-2.9-1.6-2.9-4.3 0-2.7 1.1-4.3 2.9-4.3s2.9 1.6 2.9 4.3c0 2.7-1.1 4.3-2.9 4.3zm0-7.9c-1.4 0-2.3 1.4-2.3 3.7 0 2.3.8 3.7 2.3 3.7s2.3-1.4 2.3-3.7c0-2.3-.9-3.7-2.3-3.7z"/><path d="M258.5 103.6h-5V90.2h5.1c3.1 0 4.7 1.2 4.7 3.5 0 1.5-.9 2.4-1.9 2.9 1.5.5 2.4 1.4 2.4 3.2-.1 2.5-2.1 3.8-5.3 3.8zm-.3-10.7h-1.1v2.6h1c1 0 1.6-.5 1.6-1.3s-.4-1.3-1.5-1.3zm0 5h-1.1v2.9h1.1c1.1 0 1.7-.5 1.7-1.4.1-1-.5-1.5-1.7-1.5z" class="st0"/><path d="M258.5 103.9h-5.3v-14h5.4c3.2 0 5 1.3 5 3.8 0 1.2-.5 2.2-1.5 2.8 1.4.6 2 1.7 2 3.3-.1 2.6-2.1 4.1-5.6 4.1zm-4.8-.6h4.7c1.8 0 4.9-.5 4.9-3.6 0-1.5-.7-2.4-2.2-2.9l-.7-.2.7-.3c.8-.4 1.8-1.1 1.8-2.6 0-2.1-1.5-3.2-4.4-3.2h-4.8v12.8zm4.5-2.1h-1.4v-3.5h1.4c1.8 0 2.1 1.1 2.1 1.8 0 1-.8 1.7-2.1 1.7zm-.7-.6h.8c1 0 1.4-.4 1.4-1.1 0-.5-.2-1.2-1.5-1.2h-.8v2.3zm.7-4.8h-1.3v-3.2h1.4c1.1 0 1.8.6 1.8 1.5-.1 1.1-.7 1.7-1.9 1.7zm-.7-.6h.7c.6 0 1.3-.2 1.3-1 0-.4-.1-.9-1.2-.9h-.8v1.9z"/><g><path d="M276.2 103.7l-.8-2.4h-4.2l-.7 2.3h-3.9l4.6-13.5h4.5l4.5 13-4 .6zm-2.8-9.6l-1.3 4.2h2.5l-1.2-4.2z" class="st0"/><path d="M276 104.1l-.8-2.4h-3.8l-.7 2.3h-4.5l4.8-14.1h4.9l.1.2 4.6 13.4-4.6.6zm-5-3.1h4.6l.8 2.4 3.4-.5-4.3-12.5h-4l-4.4 12.9h3.2l.7-2.3zm4-2.4h-3.3l1.7-5.6 1.6 5.6zm-2.5-.6h1.7l-.8-2.9-.9 2.9z"/></g><g><path d="M284.4 103.6V90.2h4v10.1h3.8l.5 3.4h-8.3z" class="st0"/><path d="M293.1 103.9h-9v-14h4.6V100h3.8l.6 3.9zm-8.4-.6h7.7l-.4-2.8h-3.8v-10h-3.4v12.8z"/></g><g><path d="M310.1 99.6h-.6v4h-4V90.2h4.7c3.5 0 5.6 1.5 5.6 4.6 0 3.1-2.3 4.8-5.7 4.8zm-.2-6.5h-.5v3.6h.4c1.3 0 2-.6 2-1.9.2-1.2-.5-1.7-1.9-1.7z" class="st0"/><path d="M309.8 103.9h-4.6v-14h5c3.8 0 5.9 1.7 5.9 4.9s-2.2 5.1-6 5.1h-.3v4zm-4-.6h3.4v-4h.9c3.4 0 5.4-1.6 5.4-4.5 0-3.6-2.9-4.3-5.3-4.3h-4.4v12.8zm4.1-6.3h-.7v-4.2h.8c1.5 0 2.3.7 2.3 2.1 0 .9-.5 2.1-2.4 2.1zm-.1-.6h.1c1.2 0 1.7-.5 1.7-1.6 0-.6-.2-1.5-1.7-1.5h-.2v3.1z"/></g><g><path d="M327.7 103.7l-.8-2.4h-4.2l-.7 2.3h-3.9l4.6-13.5h4.5l4.5 13-4 .6zm-2.9-9.6l-1.3 4.2h2.5l-1.2-4.2z" class="st0"/><path d="M327.5 104.1l-.8-2.4h-3.8l-.7 2.3h-4.5l4.8-14.1h4.9l.1.2 4.6 13.4-4.6.6zm-5.1-3.1h4.6l.8 2.4 3.4-.5-4.2-12.5h-4l-4.4 12.9h3.2l.6-2.3zm4-2.4h-3.3l1.7-5.6 1.6 5.6zm-2.5-.6h1.7l-.8-2.9-.9 2.9z"/></g><g><path d="M347.4 103.1l-4.1.6-2.5-4.3h-.7v4.2h-4V90.2h5.1c3.5 0 5.5 1.5 5.5 4.4 0 1.8-.8 3.1-2.3 3.9l3 4.6zm-6.4-10h-.8v3.6h.8c1.3 0 2-.7 2-1.9 0-1.1-.8-1.7-2-1.7z" class="st0"/><path d="M343.2 104.1l-2.5-4.3h-.2v4.2h-4.6V90h5.4c3.7 0 5.8 1.7 5.8 4.7 0 1.8-.7 3.1-2.2 4l3 4.8-4.7.6zm-3.3-5h1.1l2.5 4.3 3.4-.5-2.8-4.5.3-.1c1.5-.7 2.2-1.9 2.2-3.6 0-2.7-1.8-4.1-5.2-4.1h-4.8v12.8h3.4v-4.3zM341 97h-1.1v-4.2h1.1c1.4 0 2.3.8 2.3 2.1s-.9 2.1-2.3 2.1zm-.5-.6h.5c1.1 0 1.7-.5 1.7-1.6 0-1-.6-1.5-1.7-1.5h-.5v3.1z"/></g><g><path d="M358.5 93.5v10.1h-4V93.5H351v-3.3h10.8l.5 3.3h-3.8z" class="st0"/><path d="M358.8 103.9h-4.6V93.8h-3.5v-3.9h11.4l.6 3.9h-3.9v10.1zm-4-.6h3.4V93.2h3.8l-.4-2.7h-10.3v2.7h3.5v10.1z"/></g><g><path d="M374.7 103.6l-4.4-7v7h-3.7V90.2h3.9l4 6.4v-6.4h3.7v13.4h-3.5z" class="st0"/><path d="M378.5 103.9h-4l-3.9-6.3v6.3h-4.3v-14h4.4l3.5 5.7v-5.7h4.3v14zm-3.7-.6h3.1V90.5h-3.1v7.2l-4.5-7.2h-3.5v12.8h3.1v-7.8l4.9 7.8z"/></g><g><path d="M383.7 103.6V90.2h8.9v3.1h-5v1.8h3.8l.5 3.2h-4.3v2.2h5.1v3.1h-9z" class="st0"/><path d="M393 103.9h-9.6v-14h9.5v3.7h-5v1.2h3.7l.6 3.8h-4.3v1.6h5.1v3.7zm-9-.6h8.4v-2.5h-5.1V98h4.2l-.4-2.6h-3.8V93h5v-2.5H384v12.8z"/></g><g><path d="M408.9 103.1l-4.1.6-2.5-4.3h-.7v4.2h-4V90.2h5.1c3.5 0 5.5 1.5 5.5 4.4 0 1.8-.8 3.1-2.3 3.9l3 4.6zm-6.4-10h-.8v3.6h.8c1.3 0 2-.7 2-1.9 0-1.1-.7-1.7-2-1.7z" class="st0"/><path d="M404.7 104.1l-2.5-4.3h-.2v4.2h-4.6V90h5.4c3.7 0 5.8 1.7 5.8 4.7 0 1.8-.7 3.1-2.2 4l3 4.8-4.7.6zm-3.3-5h1.1l2.5 4.3 3.4-.5-2.8-4.5.3-.1c1.5-.7 2.2-1.9 2.2-3.6 0-2.7-1.8-4.1-5.2-4.1h-4.8v12.8h3.4v-4.3zm1.1-2.1h-1.1v-4.2h1.1c1.4 0 2.3.8 2.3 2.1s-.9 2.1-2.3 2.1zm-.5-.6h.5c1.1 0 1.7-.5 1.7-1.6 0-1-.6-1.5-1.7-1.5h-.5v3.1z"/></g><g><path d="M417.7 103.8c-2 0-3.6-.4-5.1-1.1l.6-3.3c1.6.8 3.2 1.3 4.6 1.3.8 0 1.3-.3 1.3-.9 0-.6-.3-.8-2.2-1.5-2.7-1-4-1.9-4-4.2 0-2.8 2.2-4.2 4.8-4.2 1.9 0 3.1.3 4.5 1l-.6 3.2c-1.4-.8-2.8-1.1-3.8-1.1-.8 0-1.2.3-1.2.7 0 .5.3.8 1.8 1.3 3.1 1 4.3 2.1 4.3 4.3 0 3.2-2.3 4.5-5 4.5z" class="st0"/><path d="M417.7 104.1c-1.8 0-3.5-.3-5.2-1.1l-.2-.1.7-3.9.4.2c1.6.8 3.2 1.3 4.4 1.3.7 0 1-.2 1-.6 0-.3-.1-.5-2-1.2-2.8-1-4.2-2-4.2-4.5 0-2.7 2-4.5 5.1-4.5 2.1 0 3.3.4 4.6 1l.2.1-.7 3.9-.4-.2c-1.3-.7-2.6-1.1-3.7-1.1-.6 0-.9.1-.9.4 0 .3.1.5 1.6 1 2.9 1 4.5 2 4.5 4.6.1 3-1.8 4.7-5.2 4.7zm-4.8-1.6c1.6.7 3.1 1 4.8 1 1.8 0 4.7-.5 4.7-4.1 0-2-1-3-4.1-4-1.4-.5-2-.8-2-1.6 0-.3.1-1 1.5-1 1 0 2.3.4 3.6 1l.5-2.6c-1.1-.5-2.3-.8-4.1-.8-2.2 0-4.5 1-4.5 3.9 0 2.2 1.2 3 3.8 3.9 1.8.6 2.4 1 2.4 1.8 0 .7-.6 1.2-1.6 1.2-1.2 0-2.8-.4-4.4-1.1l-.6 2.4z"/></g></svg>