<svg xmlns="http://www.w3.org/2000/svg" width="65" height="23"><title>icon_sso</title><desc>Created with Sketch.</desc><g fill="none"><g><g><g><g><g><path stroke="#fff" stroke-width="2.1" d="M1.4 1.7h61.7v19.4H1.4z"/><path fill="#fff" fill-rule="nonzero" d="M11.8 12.3l-3.1 2.2-.9-1.5 3.5-1.6-3.5-1.6.9-1.5 3.1 2.2-.4-3.7h1.8l-.4 3.7 3.1-2.2.9 1.5-3.5 1.6 3.5 1.6-.9 1.5-3.1-2.2.4 3.7h-1.8zM24.9 12.3l-3.1 2.2-.8-1.6 3.5-1.6L21 9.8l.9-1.5 3.1 2.2-.4-3.7h1.8l-.4 3.7 3.1-2.2.9 1.5-3.5 1.6L30 13l-1 1.4-3.1-2.2.4 3.7h-1.8zM38.1 12.3L35 14.4l-.9-1.5 3.5-1.6-3.5-1.6.9-1.5 3.1 2.2-.4-3.7h1.8l-.4 3.7 3.1-2.2.9 1.5-3.5 1.6 3.5 1.6-.9 1.5-3.1-2.2.4 3.7h-1.8zM51.2 12.3l-3.1 2.2-.9-1.5 3.5-1.6-3.5-1.6.9-1.5 3.1 2.2-.4-3.7h1.8l-.4 3.7 3.1-2.2.9 1.5-3.5 1.6 3.5 1.6-.9 1.5-3.1-2.2.4 3.7h-1.8z"/></g></g></g></g></g></g></svg>