<svg xmlns="http://www.w3.org/2000/svg" width="29" height="64"><title>icon_challenge_response</title><desc>Created with Sketch.</desc><g fill="none"><g fill="#fff"><g fill-rule="nonzero"><g><g><g transform="translate(0 .681)"><g><path d="M26.27.95v.27L26 1.08c-.13 0-.13 0-.27 0V.8s-.13 0-.13 0C21.94.4 18.3.28 14.63.28 10.97.27 7.33.4 3.66.8c-.13 0-.13 0-.13 0v.28c-.14 0-.14 0-.27 0L3 1.22V.95C1.5 1.35.27 2.85.27 4.47v54.3c0 1.9 1.5 3.5 3.38 3.8 3.66.4 7.6.66 10.97.66 3.4 0 7.3-.27 10.97-.67 1.9-.28 3.38-1.9 3.38-3.8V4.46c0-1.62-1.08-3.1-2.7-3.5zM3.8 2.98c0-.27.27-.54.54-.54 3.38-.27 6.9-.54 10.3-.54 3.38 0 6.9.13 10.28.54.27 0 .54.27.54.54v1.5c0 .26-.13.4-.4.4H4.34c-.27 0-.4-.14-.4-.4v-1.5H3.8zM14.9 20.3c4.6 0 8.4 3.8 8.4 8.4 0 4.6-3.8 8.4-8.4 8.4-4.6 0-8.4-3.8-8.4-8.4 0-4.6 3.8-8.4 8.4-8.4zM12.73 6.78c0-.54.4-.95.82-.95h1.9c.4 0 .8.4.8.8 0 .42-.4.83-.8.83h-1.9c-.4.13-.82-.14-.82-.68zM6.5 60.12c0 .13-.13.4-.4.4H4.07c-.14 0-.4-.13-.4-.4v-.14c0-.13.13-.4.4-.4H6.1c.27.13.4.27.4.54zm12.06.95c0 .27-.27.54-.54.54h-6.64c-.27 0-.54-.26-.54-.53v-1.5c0-.26.27-.53.54-.53h6.64c.27 0 .54.27.54.54v1.5zm6.9-.95c0 .13-.13.4-.4.4h-2.03c-.14 0-.4-.13-.4-.4v-.14c0-.13.12-.4.4-.4h2.03c.27.13.4.27.4.54zm1.63-5c0 1.2-.7 2.3-1.77 2.83H3.93c-1.08-.54-1.76-1.62-1.76-2.84V9.35v.14c.27.68.82 1.22 1.63 1.22v41.16h21.4V10.83s.13 0 .13 0c.67-.13 1.35-.54 1.62-1.22V9.5 55.1h.14zM14.9 35.75c3.93 0 7.04-3.12 7.04-7.04s-3.25-7.04-7.04-7.04c-3.8 0-7.04 3.12-7.04 7.05 0 3.93 3.1 7.05 7.04 7.05zm-3.65-6.77L13 30.74l5.15-5 .95.93-5.96 5.96-2.7-2.7.8-.95z"/></g><circle cx="14.63" cy="55.244" r="2.031"/></g></g></g></g></g></g></svg>