<svg xmlns="http://www.w3.org/2000/svg" width="53" height="51"><g fill="none" fill-rule="evenodd" stroke="#008599" stroke-linejoin="round" stroke-width="2.1"><path d="M51.05 1.05h-9.28l2.68 2.73-17.7 17.7-9.68-9.7a2.78 2.78 0 00-3.92 0L1.86 23.04a2.77 2.77 0 003.92 3.92l9.33-9.33 9.68 9.69a2.78 2.78 0 003.92 0L48.37 7.65l2.68 2.68V1.05z"/><path d="M13.93 26.13l-5.67 5.63v17.27h5.67zM24.55 34.3l-5.67-5.59v20.32h5.67zM35.16 28.13L29.5 33.8v15.23h5.66zM45.78 17.51l-5.66 5.65v25.87h5.66z"/></g></svg>