<?xml version="1.0" encoding="utf-8"?>
<!-- Generator: Adobe Illustrator 22.1.0, SVG Export Plug-In . SVG Version: 6.00 Build 0)  -->
<svg version="1.1" id="Layer_1" xmlns="http://www.w3.org/2000/svg" xmlns:xlink="http://www.w3.org/1999/xlink" x="0px" y="0px"
	 viewBox="0 0 144 144" style="enable-background:new 0 0 144 144;" xml:space="preserve">
<style type="text/css">
	.st0{fill-rule:evenodd;clip-rule:evenodd;fill:#B1B3B6;}
	.st1{fill:#FFFFFF;}
	.st2{fill:#4D4A4A;}
	.st3{fill:#4D4D4F;}
	.st4{fill-rule:evenodd;clip-rule:evenodd;fill:#A49B84;}
	.st5{fill-rule:evenodd;clip-rule:evenodd;fill:#231F20;}
	.st6{fill:#B1B3B6;}
</style>
<polygon class="st4" points="127.7,71.9 123.2,76.4 126.9,81.6 121.7,85.3 124.4,91.1 118.6,93.7 120.3,99.9 114.1,101.5 
	114.7,107.9 108.3,108.4 107.8,114.8 101.4,114.2 99.8,120.4 93.6,118.7 90.9,124.5 85.2,121.8 81.5,127 76.3,123.3 71.8,127.9 
	67.3,123.3 62.1,127 58.4,121.8 52.7,124.5 50,118.7 43.8,120.4 42.2,114.2 35.9,114.8 35.3,108.4 29,107.9 29.5,101.5 23.4,99.9 
	25,93.7 19.2,91.1 22,85.3 16.7,81.6 20.4,76.4 15.9,71.9 20.4,67.4 16.7,62.2 22,58.6 19.2,52.8 25,50.1 23.4,44 29.5,42.3 29,36 
	35.3,35.4 35.9,29.1 42.2,29.6 43.8,23.5 50,25.1 52.7,19.4 58.5,22.1 62.1,16.8 67.3,20.5 71.8,16 76.3,20.5 81.5,16.8 85.2,22.1 
	90.9,19.4 93.6,25.1 99.8,23.5 101.4,29.6 107.8,29.1 108.3,35.4 114.7,36 114.1,42.3 120.3,44 118.6,50.1 124.4,52.8 121.7,58.6 
	126.9,62.2 123.2,67.4 "/>
<path class="st1" d="M71.8,117.8C46.5,117.8,26,97.2,26,71.9c0-25.3,20.6-45.9,45.8-45.9c25.3,0,45.8,20.6,45.8,45.9
	C117.7,97.2,97.1,117.8,71.8,117.8z M71.8,27.1C47.1,27.1,27,47.2,27,71.9c0,24.7,20.1,44.9,44.8,44.9c24.7,0,44.8-20.1,44.8-44.9
	C116.7,47.2,96.5,27.1,71.8,27.1z"/>
<path class="st1" d="M38,84.9h67.6v0.5H38V84.9L38,84.9z M38,56.9h67.6v0.5H38V56.9z"/>
<g>
	<path class="st2" d="M35.9,70.5h2.3v1.6h-2.3v4.6h-1.8V65.6h4.6v1.6h-2.9V70.5z"/>
	<path class="st2" d="M41.4,68.3c0-1.8,0.9-2.8,2.7-2.8s2.7,1,2.7,2.8v5.8c0,1.8-0.9,2.8-2.7,2.8s-2.7-1-2.7-2.8V68.3z M43.1,74.2
		c0,0.8,0.4,1.1,0.9,1.1c0.6,0,0.9-0.3,0.9-1.1v-6c0-0.8-0.4-1.1-0.9-1.1c-0.6,0-0.9,0.3-0.9,1.1V74.2z"/>
	<path class="st2" d="M51.4,65.6v8.6c0,0.8,0.4,1.1,0.9,1.1c0.6,0,0.9-0.3,0.9-1.1v-8.6h1.7v8.5c0,1.8-0.9,2.8-2.6,2.8
		c-1.7,0-2.6-1-2.6-2.8v-8.5H51.4z"/>
	<path class="st2" d="M59.5,68.7v8.1h-1.6V65.6h2.2l1.8,6.7v-6.7h1.6v11.2h-1.8L59.5,68.7z"/>
	<path class="st2" d="M66.6,65.6h2.8c1.8,0,2.6,1,2.6,2.8V74c0,1.8-0.8,2.8-2.6,2.8h-2.8V65.6z M68.3,67.2v8h1
		c0.6,0,0.9-0.3,0.9-1.1v-5.8c0-0.8-0.3-1.1-0.9-1.1H68.3z"/>
	<path class="st2" d="M80.6,76.7h-1.8l-0.3-2h-2.2l-0.3,2h-1.6l1.8-11.2h2.6L80.6,76.7z M76.6,73.2h1.7l-0.8-5.6L76.6,73.2z"/>
	<path class="st2" d="M82.8,65.6h5.4v1.6h-1.8v9.6h-1.8v-9.6h-1.8V65.6z"/>
	<path class="st2" d="M90.9,65.6h1.8v11.2h-1.8V65.6z"/>
	<path class="st2" d="M95.6,68.3c0-1.8,0.9-2.8,2.7-2.8s2.7,1,2.7,2.8v5.8c0,1.8-0.9,2.8-2.7,2.8s-2.7-1-2.7-2.8V68.3z M97.4,74.2
		c0,0.8,0.4,1.1,0.9,1.1c0.6,0,0.9-0.3,0.9-1.1v-6c0-0.8-0.4-1.1-0.9-1.1c-0.6,0-0.9,0.3-0.9,1.1V74.2z"/>
	<path class="st2" d="M105.5,68.7v8.1h-1.6V65.6h2.2l1.8,6.7v-6.7h1.6v11.2h-1.8L105.5,68.7z"/>
</g>
<path class="st3" d="M79.9,40.1c0-0.2-0.1-0.4-0.2-0.5L72,33.7c-0.2-0.2-0.5-0.2-0.7,0L64,39.6c-0.1,0.1-0.2,0.3-0.2,0.5v10.6
	c0,0.2,0.1,0.3,0.2,0.4c0.1,0.1,0.2,0.2,0.4,0.2h4.4c0.2,0,0.3-0.1,0.4-0.2c0.1-0.1,0.2-0.3,0.2-0.4v-6.5h5v6.5
	c0,0.2,0.1,0.3,0.2,0.4c0.1,0.1,0.3,0.2,0.4,0.2h4.4c0.2,0,0.3-0.1,0.4-0.2c0.1-0.1,0.2-0.3,0.2-0.4V40.1z"/>
<g>
	<path class="st3" d="M55.9,97.9l1,0.6c0.6,0.3,0.8,0.9,0.5,1.4l0,0c-0.3,0.6-1,0.6-1.5,0.3l-0.4-0.3l-0.4,0.8l-0.5-0.3L55.9,97.9z
		 M56.2,99.7c0.3,0.2,0.6,0.1,0.7-0.1l0,0c0.1-0.3,0-0.5-0.2-0.7l-0.4-0.3l-0.5,0.8L56.2,99.7z"/>
	<path class="st3" d="M60.6,100.3l1.2,0.4c0.3,0.1,0.6,0.3,0.7,0.6c0.1,0.2,0.1,0.4,0,0.7l0,0c-0.2,0.4-0.5,0.6-0.9,0.6l0.3,1.2
		l-0.7-0.2l-0.3-1.1l-0.5-0.2l-0.3,0.9l-0.6-0.2L60.6,100.3z M61.4,102.1c0.3,0.1,0.5,0,0.6-0.2l0,0c0.1-0.3,0-0.5-0.3-0.6L61,101
		l-0.3,0.8L61.4,102.1z"/>
	<path class="st3" d="M66,101.9l0.6,0.1l-0.5,2.9l-0.6-0.1L66,101.9z"/>
	<path class="st3" d="M69.6,102.4l0.7,0l0.7,2.1l0.8-2.1l0.7,0l-1.3,2.9l-0.5,0L69.6,102.4z"/>
	<path class="st3" d="M75.3,103.8L75.3,103.8c-0.1-0.8,0.4-1.6,1.3-1.7c0.9-0.1,1.6,0.4,1.8,1.2l0,0c0.1,0.8-0.4,1.6-1.3,1.7
		C76.2,105.2,75.5,104.6,75.3,103.8z M77.8,103.4L77.8,103.4c-0.1-0.5-0.5-0.9-1-0.8c-0.5,0.1-0.8,0.6-0.7,1.1l0,0
		c0.1,0.5,0.5,0.9,1,0.8C77.5,104.4,77.8,103.9,77.8,103.4z"/>
	<path class="st3" d="M81.2,101.1l1.2-0.4c0.3-0.1,0.7-0.1,0.9,0c0.2,0.1,0.4,0.3,0.5,0.5l0,0c0.2,0.4,0,0.8-0.3,1.1l1,0.7l-0.7,0.2
		l-0.9-0.7l-0.5,0.2l0.3,0.9l-0.6,0.2L81.2,101.1z M82.8,102c0.3-0.1,0.4-0.3,0.3-0.6l0,0c-0.1-0.3-0.3-0.3-0.6-0.2l-0.6,0.2
		l0.3,0.8L82.8,102z"/>
	<path class="st3" d="M86.9,100.3L86.9,100.3c-0.4-0.7-0.2-1.6,0.6-2.1c0.8-0.5,1.7-0.2,2.1,0.5l0,0c0.4,0.7,0.2,1.6-0.6,2.1
		C88.2,101.3,87.3,101,86.9,100.3z M89,99.1L89,99.1c-0.3-0.4-0.8-0.6-1.3-0.4c-0.5,0.3-0.6,0.8-0.3,1.3l0,0
		c0.3,0.4,0.8,0.6,1.3,0.4C89.1,100.1,89.2,99.5,89,99.1z"/>
</g>
</svg>
