<svg id="CMYK_Icons" data-name="CMYK Icons" xmlns="http://www.w3.org/2000/svg" width="58" height="53"><defs><style>.cls-1{fill:none;stroke:#008599;stroke-linecap:round;stroke-linejoin:round;stroke-width:2.1px;}</style></defs><path class="cls-1" d="M52.3,38.4V18a6.487,6.487,0,0,1,6.5-6.5h0A6.487,6.487,0,0,1,65.3,18H53.1" transform="translate(-8.65 -10.45)"/><path class="cls-1" d="M45.1,62.3H16.2a6.487,6.487,0,0,1-6.5-6.5H39.3a6.487,6.487,0,0,0,6.5,6.5h0a6.487,6.487,0,0,0,6.5-6.5V35.5" transform="translate(-8.65 -10.45)"/><path class="cls-1" d="M22.4,55.4V18a6.487,6.487,0,0,1,6.5-6.5H58.7" transform="translate(-8.65 -10.45)"/><line class="cls-1" x1="19.85" y1="12.35" x2="37.55" y2="12.35"/><line class="cls-1" x1="19.85" y1="18.65" x2="37.55" y2="18.65"/><line class="cls-1" x1="19.85" y1="24.95" x2="37.55" y2="24.95"/><line class="cls-1" x1="19.85" y1="31.15" x2="37.55" y2="31.15"/><line class="cls-1" x1="19.85" y1="37.45" x2="37.55" y2="37.45"/></svg>