<svg xmlns="http://www.w3.org/2000/svg" width="48" height="51"><g fill="none" fill-rule="evenodd" stroke="#00778C" stroke-linejoin="round" stroke-width="2.1"><path d="M10.9 21h-4a5.6 5.6 0 00-5.6 5.6v3.2c0 3.1 2.5 5.6 5.6 5.6h4V21zM36.7 35.3h4c3.1 0 5.6-2.5 5.6-5.6v-3.2c0-3.1-2.5-5.6-5.6-5.6h-4v14.4zM26.9 49.6h-3.2c-1.7 0-3.1-1.4-3.1-3.1 0-1.7 1.4-3.1 3.1-3.1h3.2c1.7 0 3.1 1.4 3.1 3.1-.1 1.7-1.4 3.1-3.1 3.1zM39.6 20.6v-3.8c0-8.4-6.8-15.2-15.2-15.2H23c-8.4 0-15.2 6.8-15.2 15.2v3.8"/><path d="M30.7 46.2c4.9 0 8.9-4.2 8.9-9.4v-2.3"/></g></svg>