<svg xmlns="http://www.w3.org/2000/svg" xmlns:xlink="http://www.w3.org/1999/xlink" viewBox="0 0 93.02 100.95"><defs><style>.cls-1{fill:#fff;}.cls-2{mask:url(#mask);}.cls-3{fill:#efa348;}.cls-4{mask:url(#mask-2-2);}.cls-5{fill:#0a0a08;}</style><mask id="mask" x="0" y="0" width="93.02" height="100.95" maskUnits="userSpaceOnUse"><g id="mask-2"><polygon id="path-1" class="cls-1" points="93.02 0 0.07 0 0.07 100.88 93.02 100.88 93.02 0"/></g></mask><mask id="mask-2-2" x="0.07" y="0" width="92.95" height="100.88" maskUnits="userSpaceOnUse"><g id="mask-2-3" data-name="mask-2"><polygon id="path-1-2" data-name="path-1" class="cls-1" points="93.02 0 0.07 0 0.07 100.88 93.02 100.88 93.02 0"/></g></mask></defs><title>Asset 1</title><g id="Layer_2" data-name="Layer 2"><g id="Layer_1-2" data-name="Layer 1"><g id="Symbols"><g id="icon-location"><g id="icon_location" data-name="icon location"><g class="cls-2"><path id="Fill-1" class="cls-3" d="M46.47,101l-.72-.32C31.9,94.47,19.59,84.37,9.17,75.14,3.09,69.75,0,63.28,0,55.91V7.74l1.2-.26C16.06,4.27,31.23,0,46.26,0S76.62,4.27,91.82,7.48l1.2.26V56.23C93,63.46,90.19,69.6,84.36,75c-10.8,10-23.3,20.16-37.15,25.66l-.74.29"/></g><g class="cls-4"><path id="Fill-4" class="cls-5" d="M53,37.37a6.9,6.9,0,1,0-6.89,6.86A6.86,6.86,0,0,0,53,37.37ZM46.1,22.29A15.12,15.12,0,0,1,61.27,37.37c0,13-15.17,34.27-15.17,34.27S30.92,51.08,30.92,37.37A15.13,15.13,0,0,1,46.1,22.29Z"/></g></g></g></g></g></g></svg>