<?xml version="1.0" encoding="utf-8"?>
<!-- Generator: Adobe Illustrator 22.1.0, SVG Export Plug-In . SVG Version: 6.00 Build 0)  -->
<svg version="1.1" id="Layer_1" xmlns="http://www.w3.org/2000/svg" xmlns:xlink="http://www.w3.org/1999/xlink" x="0px" y="0px"
	 viewBox="0 0 144 144" style="enable-background:new 0 0 144 144;" xml:space="preserve">
<style type="text/css">
	.st0{fill-rule:evenodd;clip-rule:evenodd;fill:#B1B3B6;}
	.st1{fill:#FFFFFF;}
	.st2{fill:#4D4A4A;}
	.st3{fill:#4D4D4F;}
	.st4{fill-rule:evenodd;clip-rule:evenodd;fill:#A49B84;}
	.st5{fill-rule:evenodd;clip-rule:evenodd;fill:#231F20;}
	.st6{fill:#B1B3B6;}
</style>
<polygon class="st5" points="127.5,71.9 123,76.4 126.7,81.6 121.5,85.3 124.2,91.1 118.4,93.7 120.1,99.9 113.9,101.5 114.5,107.9 
	108.1,108.4 107.6,114.8 101.2,114.2 99.6,120.4 93.4,118.7 90.7,124.5 85,121.8 81.3,127 76.1,123.3 71.6,127.9 67.1,123.3 
	61.9,127 58.2,121.8 52.5,124.5 49.8,118.7 43.6,120.4 42,114.2 35.7,114.8 35.1,108.4 28.8,107.9 29.3,101.5 23.2,99.9 24.8,93.7 
	19,91.1 21.7,85.3 16.5,81.6 20.2,76.4 15.7,71.9 20.2,67.4 16.5,62.2 21.7,58.6 19,52.8 24.8,50.1 23.2,44 29.3,42.3 28.8,36 
	35.1,35.4 35.7,29.1 42,29.6 43.6,23.5 49.8,25.1 52.5,19.4 58.2,22.1 61.9,16.8 67.1,20.5 71.6,16 76.1,20.5 81.3,16.8 85,22.1 
	90.7,19.4 93.4,25.1 99.6,23.5 101.2,29.6 107.6,29.1 108.1,35.4 114.5,36 113.9,42.3 120.1,44 118.4,50.1 124.2,52.8 121.5,58.6 
	126.7,62.2 123,67.4 "/>
<path class="st3" d="M71.6,117.8c-25.3,0-45.8-20.6-45.8-45.9c0-25.3,20.6-45.9,45.8-45.9c25.3,0,45.8,20.6,45.8,45.9
	C117.5,97.2,96.9,117.8,71.6,117.8z M71.6,27.1c-24.7,0-44.8,20.1-44.8,44.9c0,24.7,20.1,44.9,44.8,44.9c24.7,0,44.8-20.1,44.8-44.9
	C116.4,47.2,96.3,27.1,71.6,27.1z"/>
<path class="st3" d="M37.8,84.9h67.6v0.5H37.8V84.9L37.8,84.9z M37.8,56.9h67.6v0.5H37.8V56.9z"/>
<g>
	<path class="st6" d="M48.1,65.6c1.8,0,2.6,1,2.6,2.8v1.5c0,1.8-0.8,2.8-2.6,2.8h-0.8v4.2h-1.8V65.6H48.1z M47.3,67.2v3.8h0.8
		c0.6,0,0.9-0.2,0.9-1.1v-1.7c0-0.8-0.3-1.1-0.9-1.1H47.3z"/>
	<path class="st6" d="M57.1,76.7c0-0.1,0-0.1-0.1-0.2c0-0.1-0.1-0.3-0.1-0.6c0-0.1,0-0.3,0-0.6v-1.8c0-1-0.3-1.4-1.1-1.4h-0.6v4.5
		h-1.8V65.6h2.6c1.8,0,2.6,0.8,2.6,2.6V69c0,1.1-0.4,1.9-1.1,2.3c0.9,0.4,1.2,1.2,1.2,2.4v1.7c0,0.6,0,0.9,0.2,1.4H57.1z M55.2,67.2
		v3.4h0.7c0.7,0,1.1-0.3,1.1-1.2v-1.1c0-0.8-0.3-1.1-0.9-1.1H55.2z"/>
	<path class="st6" d="M63.4,70.3h2.4v1.6h-2.4v3.3h3v1.6h-4.8V65.6h4.8v1.6h-3V70.3z"/>
	<path class="st6" d="M73.1,73.5l1.2-7.9h2.4v11.2h-1.7v-8l-1.2,8h-1.7l-1.3-7.9v7.9h-1.5V65.6h2.4L73.1,73.5z"/>
	<path class="st6" d="M79.9,65.6h1.8v11.2h-1.8V65.6z"/>
	<path class="st6" d="M86.6,70.3H89v1.6h-2.4v3.3h3v1.6h-4.8V65.6h4.8v1.6h-3V70.3z"/>
	<path class="st6" d="M96.2,76.7c0-0.1,0-0.1-0.1-0.2c0-0.1-0.1-0.3-0.1-0.6c0-0.1,0-0.3,0-0.6v-1.8c0-1-0.3-1.4-1.1-1.4h-0.6v4.5
		h-1.8V65.6h2.6c1.8,0,2.6,0.8,2.6,2.6V69c0,1.1-0.4,1.9-1.1,2.3c0.9,0.4,1.2,1.2,1.2,2.4v1.7c0,0.6,0,0.9,0.2,1.4H96.2z M94.3,67.2
		v3.4H95c0.7,0,1.1-0.3,1.1-1.2v-1.1c0-0.8-0.3-1.1-0.9-1.1H94.3z"/>
</g>
<g>
	<g>
		<path class="st0" d="M76.7,48.4h-5.7h-5.7c-0.3,0-0.5-0.2-0.6-0.4L61,41.1c-0.1-0.1-0.1-0.2-0.1-0.3c0-0.2,0.1-0.4,0.3-0.6
			c0.2-0.1,0.4-0.1,0.5,0l5.1,1.7l3.6-7.7c0.1-0.2,0.3-0.4,0.6-0.4c0.2,0,0.5,0.1,0.6,0.4l3.6,7.7l5.1-1.7c0.2-0.1,0.4-0.1,0.5,0
			c0.2,0.1,0.3,0.3,0.3,0.6c0,0.1,0,0.2-0.1,0.3L77.3,48C77.2,48.2,77,48.4,76.7,48.4z"/>
	</g>
	<g>
		<path class="st6" d="M77.5,52.2h-13c-0.7,0-1.3-0.6-1.3-1.3s0.6-1.3,1.3-1.3h13c0.7,0,1.3,0.6,1.3,1.3S78.2,52.2,77.5,52.2z"/>
	</g>
</g>
<g>
	<path class="st6" d="M55.9,97.9l1,0.6c0.6,0.3,0.8,0.9,0.5,1.4l0,0c-0.3,0.6-1,0.6-1.5,0.3l-0.4-0.3l-0.4,0.8l-0.5-0.3L55.9,97.9z
		 M56.2,99.7c0.3,0.2,0.6,0.1,0.7-0.1l0,0c0.1-0.3,0-0.5-0.2-0.7l-0.4-0.3l-0.5,0.8L56.2,99.7z"/>
	<path class="st6" d="M60.6,100.3l1.2,0.4c0.3,0.1,0.6,0.3,0.7,0.6c0.1,0.2,0.1,0.4,0,0.7l0,0c-0.2,0.4-0.5,0.6-0.9,0.6l0.3,1.2
		l-0.7-0.2l-0.3-1.1l-0.5-0.2l-0.3,0.9l-0.6-0.2L60.6,100.3z M61.4,102.1c0.3,0.1,0.5,0,0.6-0.2l0,0c0.1-0.3,0-0.5-0.3-0.6L61,101
		l-0.3,0.8L61.4,102.1z"/>
	<path class="st6" d="M66,101.9l0.6,0.1l-0.5,2.9l-0.6-0.1L66,101.9z"/>
	<path class="st6" d="M69.6,102.4l0.7,0l0.7,2.1l0.8-2.1l0.7,0l-1.3,2.9l-0.5,0L69.6,102.4z"/>
	<path class="st6" d="M75.3,103.8L75.3,103.8c-0.1-0.8,0.4-1.6,1.3-1.7c0.9-0.1,1.6,0.4,1.8,1.2l0,0c0.1,0.8-0.4,1.6-1.3,1.7
		C76.2,105.2,75.5,104.6,75.3,103.8z M77.8,103.4L77.8,103.4c-0.1-0.5-0.5-0.9-1-0.8c-0.5,0.1-0.8,0.6-0.7,1.1l0,0
		c0.1,0.5,0.5,0.9,1,0.8C77.5,104.4,77.8,103.9,77.8,103.4z"/>
	<path class="st6" d="M81.2,101.1l1.2-0.4c0.3-0.1,0.7-0.1,0.9,0c0.2,0.1,0.4,0.3,0.5,0.5l0,0c0.2,0.4,0,0.8-0.3,1.1l1,0.7l-0.7,0.2
		l-0.9-0.7l-0.5,0.2l0.3,0.9l-0.6,0.2L81.2,101.1z M82.8,102c0.3-0.1,0.4-0.3,0.3-0.6l0,0c-0.1-0.3-0.3-0.3-0.6-0.2l-0.6,0.2
		l0.3,0.8L82.8,102z"/>
	<path class="st6" d="M86.9,100.3L86.9,100.3c-0.4-0.7-0.2-1.6,0.6-2.1c0.8-0.5,1.7-0.2,2.1,0.5l0,0c0.4,0.7,0.2,1.6-0.6,2.1
		C88.2,101.3,87.3,101,86.9,100.3z M89,99.1L89,99.1c-0.3-0.4-0.8-0.6-1.3-0.4c-0.5,0.3-0.6,0.8-0.3,1.3l0,0
		c0.3,0.4,0.8,0.6,1.3,0.4C89.1,100.1,89.2,99.5,89,99.1z"/>
</g>
</svg>
