<?xml version="1.0" encoding="utf-8"?>
<!-- Generator: Adobe Illustrator 26.0.2, SVG Export Plug-In . SVG Version: 6.00 Build 0)  -->
<svg version="1.1" id="ICONS" xmlns="http://www.w3.org/2000/svg" xmlns:xlink="http://www.w3.org/1999/xlink" x="0px" y="0px"
	 viewBox="0 0 75 75" style="enable-background:new 0 0 75 75;" xml:space="preserve">
<style type="text/css">
	.st0{fill:#00778B;}
	.st1{fill:#FFFFFF;}
	.st2{fill:none;}
	.st3{fill:#FF0000;}
	.st4{font-family:'Helvetica';}
	.st5{font-size:20px;}
</style>
<path class="st0" d="M37.5,62.4l-0.4-0.2c-6.8-3-12.8-8-17.9-12.6c-3-2.7-4.5-5.9-4.5-9.5V16.4l0.6-0.1c7.3-1.6,14.7-3.7,22.1-3.7
	s14.9,2.1,22.3,3.7l0.6,0.1v23.9c0,3.6-1.4,6.6-4.3,9.3c-5.3,4.9-11.4,10-18.2,12.7L37.5,62.4z"/>
<g>
	<path class="st1" d="M34.1,24.2H42v2.4h-5.3v1.8h4.7v2.2h-4.7v3.6H34L34.1,24.2L34.1,24.2z"/>
</g>
<g>
	<path class="st1" d="M33.5,39h0.4l1.1,2.6h-0.5L34.2,41H33l-0.3,0.6h-0.4L33.5,39z M34.1,40.5l-0.5-1l-0.5,1H34.1z"/>
	<path class="st1" d="M35.6,39H36l1.4,1.8V39h0.4v2.5h-0.4L36,39.7v1.8h-0.4V39z"/>
	<path class="st1" d="M39.2,39.4h-0.8V39h2.1v0.4h-0.8v2.1h-0.4L39.2,39.4L39.2,39.4z"/>
	<path class="st1" d="M41.1,39h0.4v2.5h-0.4V39z"/>
	<path class="st1" d="M42.2,40.2h1.1v0.4h-1.1V40.2z"/>
	<path class="st1" d="M22.7,45.4l0.3-0.3c0.2,0.2,0.5,0.3,0.8,0.3s0.5-0.1,0.5-0.3l0,0c0-0.2-0.1-0.3-0.6-0.4
		c-0.5-0.1-0.8-0.3-0.8-0.8l0,0c0-0.4,0.4-0.7,0.9-0.7c0.4,0,0.7,0.1,0.9,0.3l-0.2,0.3c-0.2-0.2-0.5-0.3-0.7-0.3
		c-0.3,0-0.4,0.1-0.4,0.3l0,0c0,0.2,0.1,0.3,0.6,0.4c0.5,0.1,0.8,0.3,0.8,0.7l0,0c0,0.5-0.4,0.8-0.9,0.8
		C23.4,45.8,23,45.6,22.7,45.4z"/>
	<path class="st1" d="M25.3,44.7v-1.5h0.4v1.5c0,0.5,0.2,0.7,0.7,0.7c0.4,0,0.6-0.2,0.6-0.7v-1.5h0.4v1.4c0,0.8-0.4,1.1-1.1,1.1
		C25.7,45.8,25.3,45.4,25.3,44.7z"/>
	<path class="st1" d="M28.2,43.2h1.1c0.3,0,0.6,0.1,0.7,0.3c0.1,0.1,0.2,0.3,0.2,0.5l0,0c0,0.4-0.3,0.7-0.6,0.8l0.7,1h-0.5l-0.6-0.9
		h-0.6v0.9h-0.4C28.2,45.8,28.2,43.2,28.2,43.2z M29.3,44.5c0.3,0,0.5-0.2,0.5-0.4l0,0c0-0.3-0.2-0.4-0.5-0.4h-0.7v0.9L29.3,44.5
		L29.3,44.5z"/>
	<path class="st1" d="M30.7,43.2h0.5l0.8,2l0.8-2h0.5l-1.1,2.6h-0.4L30.7,43.2z"/>
	<path class="st1" d="M33.7,43.2h1.9v0.4h-1.5v0.7h1.3v0.4h-1.3v0.7h1.5v0.4h-1.9V43.2z"/>
	<path class="st1" d="M36.3,43.2h0.4v2.5h-0.4V43.2z"/>
	<path class="st1" d="M37.5,43.2H38v2.2h1.3v0.4h-1.8V43.2z"/>
	<path class="st1" d="M39.9,43.2h0.4v2.2h1.3v0.4h-1.8L39.9,43.2L39.9,43.2z"/>
	<path class="st1" d="M43.2,43.2h0.4l1.1,2.6h-0.5L44,45.1h-1.2l-0.3,0.6H42L43.2,43.2z M43.8,44.7l-0.5-1l-0.5,1H43.8z"/>
	<path class="st1" d="M45.2,43.2h0.4L47,45v-1.8h0.4v2.5H47l-1.4-1.8v1.8h-0.4C45.2,45.7,45.2,43.2,45.2,43.2z"/>
	<path class="st1" d="M48.1,44.5L48.1,44.5c0-0.7,0.5-1.3,1.3-1.3c0.5,0,0.8,0.2,1,0.4l-0.3,0.3c-0.2-0.2-0.4-0.3-0.7-0.3
		c-0.5,0-0.9,0.4-0.9,0.9l0,0c0,0.5,0.4,0.9,0.9,0.9c0.3,0,0.5-0.1,0.7-0.3l0.3,0.3c-0.3,0.3-0.6,0.4-1,0.4
		C48.7,45.8,48.1,45.2,48.1,44.5z"/>
	<path class="st1" d="M51,43.2h1.9v0.4h-1.5v0.7h1.3v0.4h-1.3v0.7h1.5v0.4H51V43.2z"/>
</g>
<g>
	<path class="st0" d="M54.1,55.5h-1V55h2.4v0.5h-1V58H54L54.1,55.5L54.1,55.5z"/>
	<path class="st0" d="M56.2,55h0.5l0.9,1.4l0.9-1.4H59v3h-0.5v-2.2l-1,1.4l0,0l-1-1.4V58H56v-3H56.2z"/>
</g>
<rect x="16.9" y="30.1" transform="matrix(0.9848 -0.1736 0.1736 0.9848 -5.9421 7.0815)" class="st2" width="41.2" height="14.8"/>
<text transform="matrix(0.9848 -0.1736 0.1736 0.9848 18.4675 47.9435)" class="st3 st4 st5">FPO</text>
</svg>
