<svg width="41" height="40" viewBox="0 0 41 40" fill="none" xmlns="http://www.w3.org/2000/svg">
<path fill-rule="evenodd" clip-rule="evenodd" d="M39.1389 19.9474C39.1389 30.4117 30.6559 38.8947 20.1915 38.8947C9.72717 38.8947 1.24414 30.4117 1.24414 19.9474C1.24414 9.48303 9.72717 1 20.1915 1C30.6559 1 39.1389 9.48303 39.1389 19.9474ZM15.2065 16.0925H11.6982V28.9988H15.2065V16.0925ZM13.3629 14.4781H13.3375C12.0675 14.4781 11.2441 13.4915 11.2441 12.2421C11.2441 10.9672 12.0919 10 13.3872 10C14.6816 10 15.4774 10.9647 15.5028 12.2384C15.5028 13.4878 14.6816 14.4781 13.3629 14.4781ZM25.2659 29H29.2441V21.8224C29.2441 17.826 27.2852 15.9684 24.7918 15.9684C22.782 15.9684 21.5226 17.2324 21.2898 18.118V16.0925H17.3486C17.3994 17.1679 17.3486 29 17.3486 29H21.2898V22.0158C21.2898 21.9693 21.2895 21.9227 21.2893 21.8764C21.2876 21.5353 21.286 21.2053 21.3755 20.9611C21.6464 20.1837 22.2285 19.3796 23.2752 19.3796C24.6436 19.3796 25.2659 20.5718 25.2659 22.32V29Z" fill="#1D3154"/>
</svg>
