<?xml version="1.0" encoding="utf-8"?>
<!-- Generator: Adobe Illustrator 26.0.2, SVG Export Plug-In . SVG Version: 6.00 Build 0)  -->
<svg version="1.1" id="ICONS" xmlns="http://www.w3.org/2000/svg" xmlns:xlink="http://www.w3.org/1999/xlink" x="0px" y="0px"
	 viewBox="0 0 75 75" style="enable-background:new 0 0 75 75;" xml:space="preserve">
<style type="text/css">
	.st0{fill:#FFFFFF;stroke:#00778B;stroke-linejoin:round;stroke-miterlimit:10;}
	.st1{fill:#00778B;}
	.st2{fill:none;stroke:#00778B;stroke-width:2.1;stroke-miterlimit:10;}
	.st3{fill:none;stroke:#00778B;stroke-width:2.1;stroke-linejoin:round;stroke-miterlimit:10;}
	.st4{fill:none;stroke:#00778B;stroke-width:2;stroke-linecap:round;}
	.st5{fill:none;stroke:#00778B;stroke-width:2;}
	.st6{fill:none;stroke:#00778B;stroke-width:2;stroke-linecap:round;stroke-linejoin:round;}
	.st7{fill:#00788C;}
	.st8{fill:none;stroke:#00778B;stroke-width:2;stroke-miterlimit:10;}
	.st9{fill:none;stroke:#00778B;stroke-width:2.1;stroke-linecap:round;stroke-linejoin:round;stroke-miterlimit:10;}
	.st10{fill:#FFFFFF;}
	.st11{fill:none;stroke:#00778B;stroke-width:2.1;stroke-linecap:round;stroke-miterlimit:10;}
	.st12{fill:none;stroke:#00778B;stroke-width:1.25;stroke-linecap:round;}
	.st13{fill:none;stroke:#00778B;stroke-width:1.25;}
	.st14{fill:none;stroke:#00778B;stroke-width:1.25;stroke-linecap:round;stroke-linejoin:round;}
	.st15{fill:none;stroke:#00778B;stroke-width:1.25;stroke-linejoin:round;stroke-miterlimit:10;}
	.st16{fill:none;stroke:#00778B;stroke-width:1.25;stroke-linecap:round;stroke-linejoin:round;stroke-miterlimit:10;}
	.st17{fill:#FFFFFF;stroke:#00778B;stroke-width:2.1;stroke-linejoin:round;stroke-miterlimit:10;}
	.st18{fill:none;stroke:#00778B;stroke-width:2;stroke-linecap:round;stroke-miterlimit:10;stroke-dasharray:3.5;}
	.st19{enable-background:new    ;}
	.st20{clip-path:url(#SVGID_00000147900564464360809210000011048158221520145300_);enable-background:new    ;}
	.st21{fill:#FFFFFF;stroke:#00778B;stroke-width:2.1;stroke-miterlimit:10;}
	.st22{clip-path:url(#SVGID_00000012445977407108674430000001372140198248119474_);enable-background:new    ;}
	.st23{clip-path:url(#SVGID_00000128453944259125957680000005184478187835120801_);enable-background:new    ;}
	.st24{fill:#008599;}
	.st25{fill:none;stroke:#00778B;stroke-width:1.5;stroke-linecap:round;stroke-linejoin:round;stroke-miterlimit:10;}
	.st26{fill:none;stroke:#00778B;stroke-width:1.25;stroke-linecap:round;stroke-miterlimit:10;}
</style>
<g>
	<path class="st21" d="M47.8,29.8h-19c0,0,1.8-8.4,9.5-8.4S47.8,29.8,47.8,29.8z"/>
	<line class="st3" x1="29.3" y1="32.6" x2="47.4" y2="32.6"/>
	<g>
		<line class="st3" x1="31.3" y1="34.6" x2="31.3" y2="41.3"/>
		<line class="st3" x1="34.8" y1="34.6" x2="34.8" y2="41.3"/>
		<line class="st3" x1="38.3" y1="34.6" x2="38.3" y2="41.3"/>
		<line class="st3" x1="41.9" y1="34.6" x2="41.9" y2="41.3"/>
		<line class="st3" x1="45.4" y1="34.6" x2="45.4" y2="41.3"/>
	</g>
	<line class="st3" x1="29.3" y1="43.1" x2="47.4" y2="43.1"/>
	<line class="st3" x1="27.1" y1="46" x2="49.6" y2="46"/>
</g>
<path class="st3" d="M37.5,62.4l-0.4-0.2c-6.8-3-12.8-8-17.9-12.6c-3-2.7-4.5-5.9-4.5-9.5V16.4l0.6-0.1c7.3-1.6,14.7-3.7,22.1-3.7
	c7.4,0,14.9,2.1,22.3,3.7l0.6,0.1v23.9c0,3.6-1.4,6.6-4.3,9.3c-5.3,4.9-11.4,10-18.2,12.7L37.5,62.4z"/>
</svg>
