<svg xmlns="http://www.w3.org/2000/svg" width="36" height="79"><g fill="none" fill-rule="nonzero"><circle cx="18.226" cy="68.713" r="2.557" fill="#00758D"/><path fill="#FFF" d="M32.71 1.1v.33l-.33-.13h-.26V1h-.24A128.05 128.05 0 004.56 1H4.3v.3h-.28l-.32.13V1.1A4.57 4.57 0 00.42 5.5v67.32c0 2.4 1.79 4.43 4.17 4.72 4.5.53 9.04.81 13.58.83 4.54-.02 9.07-.3 13.57-.83a4.75 4.75 0 004.19-4.72V5.51a4.6 4.6 0 00-3.22-4.41zM4.9 3.63a.66.66 0 01.62-.67 135.96 135.96 0 0125.52 0c.35.02.62.32.62.67v1.85c0 .3-.24.54-.54.54H5.4a.54.54 0 01-.54-.54l.04-1.85zm12.17 4.72a1.04 1.04 0 011.04-1.06h2.39a1.04 1.04 0 011.04 1.06 1.04 1.04 0 01-1.04 1.06h-2.37a1.04 1.04 0 01-1.04-1.06h-.02zM8.21 74.43c0 .24-.2.44-.44.44H5.22a.43.43 0 01-.44-.44c0-.24.2-.44.44-.45h2.5c.24.01.44.21.44.45h.05zm14.78 1.27a.7.7 0 01-.7.7h-8.17a.68.68 0 01-.68-.7v-1.9a.68.68 0 01.68-.69h8.18c.38 0 .7.31.7.7v1.9zm8.7-1.27c0 .24-.2.44-.44.44h-2.57a.43.43 0 01-.44-.44c0-.24.2-.44.44-.45h2.5c.25.01.44.21.44.45h.07zm1.98-6.24a4 4 0 01-2.16 3.48H5.03c-1.31-.67-2.14-2-2.16-3.48V11.6v.22a2.43 2.43 0 001.95 1.55v50.99h26.57V13.37h.18c.89-.11 1.64-.7 1.96-1.54v-.2l.14 56.56z"/></g></svg>