<svg version="1.1" id="ICONS" xmlns="http://www.w3.org/2000/svg" xmlns:xlink="http://www.w3.org/1999/xlink" x="0px" y="0px" style="enable-background:new 0 0 75 75;" xml:space="preserve" viewBox="11.55 12.75 52 49.4"> <style type="text/css"> 	.st0{fill:#FFFFFF;stroke:#00778B;stroke-linejoin:round;stroke-miterlimit:10;} 	.st1{fill:#00778B;} 	.st2{fill:none;stroke:#00778B;stroke-width:2.1;stroke-miterlimit:10;} 	.st3{fill:none;stroke:#00778B;stroke-width:2.1;stroke-linejoin:round;stroke-miterlimit:10;} 	.st4{fill:none;stroke:#00778B;stroke-width:2;stroke-linecap:round;} 	.st5{fill:none;stroke:#00778B;stroke-width:2;} 	.st6{fill:none;stroke:#00778B;stroke-width:2;stroke-linecap:round;stroke-linejoin:round;} 	.st7{fill:#00788C;} 	.st8{fill:none;stroke:#00778B;stroke-width:2;stroke-miterlimit:10;} 	.st9{fill:none;stroke:#00778B;stroke-width:2.1;stroke-linecap:round;stroke-linejoin:round;stroke-miterlimit:10;} 	.st10{fill:#FFFFFF;} 	.st11{fill:none;stroke:#00778B;stroke-width:2.1;stroke-linecap:round;stroke-miterlimit:10;} 	.st12{fill:none;stroke:#00778B;stroke-width:1.25;stroke-linecap:round;} 	.st13{fill:none;stroke:#00778B;stroke-width:1.25;} 	.st14{fill:none;stroke:#00778B;stroke-width:1.25;stroke-linecap:round;stroke-linejoin:round;} 	.st15{fill:none;stroke:#00778B;stroke-width:1.25;stroke-linejoin:round;stroke-miterlimit:10;} 	.st16{fill:none;stroke:#00778B;stroke-width:1.25;stroke-linecap:round;stroke-linejoin:round;stroke-miterlimit:10;} 	.st17{fill:#FFFFFF;stroke:#00778B;stroke-width:2.1;stroke-linejoin:round;stroke-miterlimit:10;} 	.st18{fill:none;stroke:#00778B;stroke-width:2;stroke-linecap:round;stroke-miterlimit:10;stroke-dasharray:3.5;} 	.st19{enable-background:new    ;} 	.st20{clip-path:url(#SVGID_00000088812051021113470440000017070091118688779931_);enable-background:new    ;} 	.st21{fill:#FFFFFF;stroke:#00778B;stroke-width:2.1;stroke-miterlimit:10;} 	.st22{clip-path:url(#SVGID_00000093868902555499392360000002964071343622572940_);enable-background:new    ;} 	.st23{clip-path:url(#SVGID_00000062897725840977159980000013159510460943922577_);enable-background:new    ;} 	.st24{fill:#008599;} 	.st25{fill:none;stroke:#00778B;stroke-width:1.5;stroke-linecap:round;stroke-linejoin:round;stroke-miterlimit:10;} 	.st26{fill:none;stroke:#00778B;stroke-width:1.25;stroke-linecap:round;stroke-miterlimit:10;} </style> <g> 	<g> 		<path class="st3" d="M59.1,13.8H15.9c-1.8,0-3.3,1.5-3.3,3.3v30.7c0,1.8,1.5,3.3,3.3,3.3h16.6c0,0,0.7,6.7-5,6.7v3.3h20.1v-3.3 			c-6,0-5-6.7-5-6.7h16.6c1.8,0,3.3-1.5,3.3-3.3V17.1C62.4,15.3,60.9,13.8,59.1,13.8L59.1,13.8z"></path> 	</g> </g> <g> 	<g> 		<g> 			<g> 				<line class="st3" x1="62.4" y1="43.5" x2="12.8" y2="43.5"></line> 			</g> 		</g> 	</g> </g> <g> 	<line class="st2" x1="50.5" y1="25.5" x2="50.5" y2="38.7"></line> 	<line class="st2" x1="46.4" y1="28.4" x2="46.4" y2="38.7"></line> 	<line class="st2" x1="42.4" y1="32.4" x2="42.4" y2="38.7"></line> 	<line class="st2" x1="38.4" y1="34.7" x2="38.4" y2="38.7"></line> </g> <g> 	<path class="st2" d="M27.5,33.2c-2.4-0.4-4.3-2.1-5-4.4"></path> 	<path class="st2" d="M25.7,21.6c0.8-0.4,1.8-0.7,2.8-0.7c3.4,0,6.2,2.8,6.2,6.2c0,3.1-2.3,5.7-5.3,6.1"></path> 	<path class="st2" d="M22.3,27.1c0-0.1,0-0.2,0-0.3c0.1-1.6,0.7-3,1.8-4.1"></path> </g> </svg>