<svg xmlns="http://www.w3.org/2000/svg" width="53" height="51"><title>icon_home_secure-management</title><desc>Created with Sketch.</desc><g fill="none"><g stroke="#00778C" stroke-width="2.1"><g><g><g><g><g><g><g><path d="M26.3 26.2l-.1-.1c-2.3-1-4.4-2.7-6.1-4.3-1-.9-1.5-2-1.5-3.2v-8.1h.2c2.5-.5 5-1.3 7.6-1.3 2.5 0 5.1.7 7.6 1.3h.2v8.2c0 1.2-.5 2.3-1.5 3.2-1.8 1.7-3.9 3.4-6.2 4.3h-.2zM48 1.7H4.7C2.9 1.7 1.4 3.2 1.4 5v30.7c0 1.8 1.5 3.4 3.3 3.4h16.6s.7 6.7-5 6.7v3.4h20.1v-3.4c-6 0-5-6.7-5-6.7H48c1.8 0 3.3-1.5 3.3-3.4V5c0-1.8-1.5-3.3-3.3-3.3zM51.3 31.5H1.6"/></g></g></g></g></g></g></g></g></g></svg>