<svg xmlns="http://www.w3.org/2000/svg" width="53" height="53"><title>icon_anti-surveillance_take_anywhere</title><desc>Created with Sketch.</desc><g fill="none"><g stroke="#00758D" stroke-width="2"><g><g><g><g><g id="Group" transform="translate(10 10)"><g id="Shape"><path d="M18 .5c4.4 4 7.1 9.7 7.1 16 0 6.4-2.8 12.2-7.2 16.1M15.3 33c-4.7-4-7.7-9.9-7.7-16.5S10.5 4 15.2 0"/></g><circle cx="16.4" cy="16.5" r="16.4"/><path id="Shape" d="M1.3 10.4h30.2M1.3 22.9h30.2M16.4.2v32.9"/></g><g id="Group"><path id="Shape" d="M49.6 18c1 2.7 1.5 5.5 1.5 8.5 0 13.7-11.1 24.8-24.8 24.8-7.6 0-14.5-3.5-19-8.9M6.8 47.3v-5.4h5.4"/></g><g><path d="M2.9 34.7c-1-2.7-1.5-5.5-1.5-8.5 0-13.7 11.1-24.8 24.8-24.8 7.6 0 14.5 3.5 19 8.9M45.8 5.4v5.4h-5.4"/></g></g></g></g></g></g></g></svg>