<svg xmlns="http://www.w3.org/2000/svg" xmlns:xlink="http://www.w3.org/1999/xlink" version="1.1" id="ICONS" x="0px" y="0px" style="enable-background:new 0 0 75 75;" xml:space="preserve" viewBox="13.65 11.55 47.7 51.9"><style type="text/css">	.st0{fill:#FFFFFF;stroke:#00778B;stroke-linejoin:round;stroke-miterlimit:10;}	.st1{fill:#00778B;}	.st2{fill:none;stroke:#00778B;stroke-width:2.1;stroke-miterlimit:10;}	.st3{fill:none;stroke:#00778B;stroke-width:2.1;stroke-linejoin:round;stroke-miterlimit:10;}	.st4{fill:none;stroke:#00778B;stroke-width:2;stroke-linecap:round;}	.st5{fill:none;stroke:#00778B;stroke-width:2;}	.st6{fill:none;stroke:#00778B;stroke-width:2;stroke-linecap:round;stroke-linejoin:round;}	.st7{fill:#00788C;}	.st8{fill:none;stroke:#00778B;stroke-width:2;stroke-miterlimit:10;}	.st9{fill:none;stroke:#00778B;stroke-width:2.1;stroke-linecap:round;stroke-linejoin:round;stroke-miterlimit:10;}	.st10{fill:#FFFFFF;}	.st11{fill:none;stroke:#00778B;stroke-width:2.1;stroke-linecap:round;stroke-miterlimit:10;}	.st12{fill:none;stroke:#00778B;stroke-width:1.25;stroke-linecap:round;}	.st13{fill:none;stroke:#00778B;stroke-width:1.25;}	.st14{fill:none;stroke:#00778B;stroke-width:1.25;stroke-linecap:round;stroke-linejoin:round;}	.st15{fill:none;stroke:#00778B;stroke-width:1.25;stroke-linejoin:round;stroke-miterlimit:10;}	.st16{fill:none;stroke:#00778B;stroke-width:1.25;stroke-linecap:round;stroke-linejoin:round;stroke-miterlimit:10;}	.st17{fill:#FFFFFF;stroke:#00778B;stroke-width:2.1;stroke-linejoin:round;stroke-miterlimit:10;}	.st18{fill:none;stroke:#00778B;stroke-width:2;stroke-linecap:round;stroke-miterlimit:10;stroke-dasharray:3.5;}	.st19{enable-background:new    ;}	.st20{clip-path:url(#SVGID_00000026139533733111605910000000858004500477019054_);enable-background:new    ;}	.st21{fill:#FFFFFF;stroke:#00778B;stroke-width:2.1;stroke-miterlimit:10;}	.st22{clip-path:url(#SVGID_00000063601448875052951410000014942466874155913133_);enable-background:new    ;}	.st23{clip-path:url(#SVGID_00000122720554730033936770000014559281054221864834_);enable-background:new    ;}	.st24{fill:#008599;}	.st25{fill:none;stroke:#00778B;stroke-width:1.5;stroke-linecap:round;stroke-linejoin:round;stroke-miterlimit:10;}	.st26{fill:none;stroke:#00778B;stroke-width:1.25;stroke-linecap:round;stroke-miterlimit:10;}</style><g>	<g>		<circle class="st16" cx="27" cy="32.2" r="2.3"></circle>		<circle class="st16" cx="37.5" cy="24.5" r="2.3"></circle>		<circle class="st16" cx="37.5" cy="39.5" r="2.3"></circle>		<path class="st16" d="M29,37.3c-0.5-0.5-1.2-0.9-1.9-0.9c-1.4,0-2.5,1.1-2.5,2.5v2.6h3.8"></path>		<circle class="st16" cx="47.8" cy="32.2" r="2.3"></circle>		<path class="st16" d="M45.9,37.3c0.5-0.5,1.2-0.9,1.9-0.9c1.4,0,2.5,1.1,2.5,2.5v2.6h-3.8"></path>		<path class="st26" d="M33.3,32.5v-2c0-0.6,0.3-1.2,0.7-1.7c0.4-0.4,1-0.7,1.7-0.7l1.8,1.8l1.8-1.8c0.6,0,1.2,0.3,1.7,0.7    c0.4,0.4,0.7,1,0.7,1.7v2"></path>		<path class="st16" d="M32.9,47.2v-1.5c0-1.3,1-2.3,2.3-2.3h4.5c1.3,0,2.3,1,2.3,2.3v1.5"></path>		<polyline class="st16" points="29.6,45.8 32.4,34.3 42.5,34.3 45.4,45.9   "></polyline>	</g>	<path class="st3" d="M37.5,62.4l-0.4-0.2c-6.8-3-12.8-8-17.9-12.6c-3-2.7-4.5-5.9-4.5-9.5V16.4l0.6-0.1c7.3-1.6,14.7-3.7,22.1-3.7   c7.4,0,14.9,2.1,22.3,3.7l0.6,0.1v23.9c0,3.6-1.4,6.6-4.3,9.3c-5.3,4.9-11.4,10-18.2,12.7L37.5,62.4z"></path></g></svg>