<svg xmlns="http://www.w3.org/2000/svg" width="49" height="53"><g fill="none" fill-rule="evenodd" stroke-linejoin="round" stroke-width="2.1"><path stroke="#00758D" d="M24.2 51.6l-.4-.2c-6.8-3-12.8-8-17.9-12.6-3-2.7-4.5-5.9-4.5-9.5V5.6l.6-.1c7.3-1.6 14.7-3.7 22.1-3.7 7.4 0 14.9 2.1 22.3 3.7l.6.1v23.9c0 3.6-1.4 6.6-4.3 9.3-5.3 4.9-11.4 10-18.2 12.7l-.3.1z"/><path stroke="#00758C" stroke-linecap="round" d="M13.2 16.1H17V21h-3.8zM23.9 16.1h3.8V21h-3.8zM31.2 16.1H35V21h-3.8zM9.8 16v5.1M20.6 16v5.1M38.5 16v5.1M16.6 25h3.8v4.9h-3.8zM27.3 25h3.8v4.9h-3.8zM34.8 25h3.8v4.9h-3.8zM23.9 24.9V30M13.4 24.9V30M10.1 24.9V30"/></g></svg>