<svg xmlns="http://www.w3.org/2000/svg" width="25" height="54"><title>icon_home_anti-surveillance</title><desc>Created with Sketch.</desc><g fill="none"><g><g><g><g><g><g><g><g transform="translate(1 1)"><g><g id="Shape"><g stroke="#00758D" stroke-width="2"><path d="M15.6 12.6c0 2.2-1.8 4.1-4.1 4.1s-4.1-1.8-4.1-4.1M11.5 19.3v-2.6"/></g><path fill="#00758D" fill-rule="nonzero" d="M11.5 7c.2 0 .4.2.4.4 0 0 0 0 0 .1V12s0 0 0 .1c0 .2-.2.3-.4.3s-.4-.2-.4-.3V7.4c.1-.3.2-.4.4-.4zm0-2c-1.3 0-2.4 1.1-2.4 2.4v4.7c0 1.3 1.1 2.4 2.4 2.4 1.3 0 2.4-1.1 2.4-2.4V7.4C13.9 6 12.8 5 11.5 5z"/></g><path id="Shape" stroke="#00758D" stroke-width="2.1" d="M11.5 23.7l-.2-.1c-3.2-1.4-6-3.8-8.4-5.9C1.5 16.5.8 14.9.8 13.2V2.1l.3-.1C4.5 1.3 8 .3 11.5.3s7 1 10.5 1.7l.3.1v11.2c0 1.7-.7 3.1-2 4.4-2.5 2.3-5.4 4.7-8.6 6h-.2z" stroke-linejoin="round"/></g><path id="Shape" fill="#00758D" fill-rule="nonzero" d="M13 34l.8 1.5h1.9c.6 0 1.1.5 1.1 1.1v4.9c0 .6-.5 1.1-1.1 1.1H7.2c-.6 0-1.1-.5-1.1-1.1v-4.9c0-.6.5-1.1 1.1-1.1h1.9l.8-1.5H13zm0-2.1h-2.9c-.7 0-1.4.4-1.8 1l-.2.4h-.7c-1.8 0-3.2 1.4-3.2 3.2v4.9c0 1.8 1.4 3.2 3.2 3.2h8.5c1.8 0 3.2-1.4 3.2-3.2v-4.9c0-1.8-1.4-3.2-3.2-3.2h-.7l-.2-.4c-.5-.6-1.2-1-2-1z"/><path stroke="#00758D" stroke-width="2.1" d="M11.5 51.5l-.2-.1c-3.2-1.4-6-3.8-8.4-5.9C1.5 44.3.8 42.8.8 41.1V30l.3-.1c3.4-.7 6.9-1.7 10.3-1.7 3.5 0 7 1 10.5 1.7l.3.1v11.2c0 1.7-.7 3.1-2 4.3-2.5 2.3-5.4 4.7-8.5 5.9l-.2.1z" stroke-linejoin="round"/><circle id="Oval" cx="15.4" cy="36.9" r="1" fill="#00758D" fill-rule="nonzero"/><circle cx="11.5" cy="38.7" r="2.7" fill="#00758D" fill-rule="nonzero"/></g></g></g></g></g></g></g></g></g></svg>