<svg xmlns="http://www.w3.org/2000/svg" width="49" height="53"><g fill="none" fill-rule="evenodd" stroke="#00758D" stroke-width="2.1"><path stroke-linejoin="round" d="M24.58 51.52l-.36-.15c-6.79-3-12.83-8-17.94-12.59a12.36 12.36 0 01-4.5-9.49V5.51l.59-.13C9.66 3.8 17.1 1.69 24.47 1.69c7.37 0 14.9 2.11 22.35 3.69l.59.13v23.94c0 3.56-1.55 6.94-4.25 9.26-5.29 4.94-11.43 10-18.22 12.67l-.36.14z"/><g transform="translate(11 11)"><circle cx="13.52" cy="13.52" r="13.03"/><path d="M6.6 15.16l3.44 3.43L20.53 8.03"/></g></g></svg>