<svg xmlns="http://www.w3.org/2000/svg" width="49" height="53"><g fill="none" fill-rule="evenodd" transform="translate(1 1)"><path stroke="#00758D" stroke-linejoin="round" stroke-width="2.1" d="M19.8 11.3L17.7 15h-4.8c-1.5 0-2.7 1.2-2.7 2.7v12.1c0 1.5 1.2 2.7 2.7 2.7h21.2c1.5 0 2.7-1.2 2.7-2.7V17.7c0-1.5-1.2-2.7-2.7-2.7h-4.8l-2.1-3.6-7.4-.1z"/><path stroke="#00758D" stroke-linejoin="round" stroke-width="2.1" d="M23.3 50.3l-.3-.1c-6.8-3-12.8-8-17.9-12.6-3-2.7-4.5-5.9-4.5-9.5V4.3l.6-.1C8.5 2.6 15.9.5 23.3.5c7.4 0 14.9 2.1 22.3 3.7l.6.1v23.9c0 3.6-1.4 6.6-4.3 9.3-5.3 4.9-11.4 10-18.2 12.7l-.4.1z"/><circle cx="32.9" cy="18.6" r="1" fill="#00758D" fill-rule="nonzero"/><g fill="#00758D" fill-rule="nonzero" transform="translate(16 16)"><path d="M7.3.2c3.8 0 7 3.1 7 7 0 3.8-3.1 7-7 7-3.8 0-7-3.1-7-7 0-3.8 3.2-7 7-7zm0 1.3a5.8 5.8 0 105.8 5.8 5.8 5.8 0 00-5.8-5.8z"/><circle cx="7.3" cy="7.2" r="3.3"/></g></g></svg>