<svg xmlns="http://www.w3.org/2000/svg" width="43" height="51"><title>icon_overreaching</title><desc>Created with Sketch.</desc><g fill="none"><g><g><g><g><g><g fill="#fff" fill-rule="nonzero"><g transform="translate(0 0)"><circle cx="11.6" cy="44.3" r="1.6"/><g id="Shape"><path d="M11.6 25.2c-.8 0-1.4.6-1.4 1.4 0 .4.2.8.6 1.1l-.2 1.9c0 .1 0 .2.1.3.1.1.2.1.3.1h1.4c.1 0 .2 0 .3-.1.1-.1.1-.2.1-.3l-.2-1.9c.4-.3.6-.7.6-1.1-.2-.8-.8-1.4-1.6-1.4zM20.9 1.1v.2l-.2-.1c-.1 0-.1 0-.2 0V1c-.1 0-.1 0-.2 0-2.9-.3-5.8-.5-8.7-.5-2.9 0-5.8.2-8.7.5-.1 0-.1 0-.2 0v.2c-.1 0-.1 0-.2 0l-.2.1v-.2C1.1 1.5.2 2.6.2 3.9V47c0 1.5 1.1 2.8 2.7 3 2.9.3 6 .5 8.7.5 2.7 0 5.8-.2 8.7-.5 1.5-.2 2.7-1.5 2.7-3V3.9c0-1.3-.9-2.5-2.1-2.8zM3.1 2.7c0-.2.2-.4.4-.4 2.7-.3 5.4-.4 8.2-.4 2.7 0 5.4.1 8.2.4.2 0 .4.2.4.4v1.2c0 .2-.2.3-.3.3H3.4c-.2 0-.3-.2-.3-.3V2.7zm8.5 13.6c2.6 0 4.8 2.1 4.8 4.8v1.4h1c.2 0 .3.2.3.3v8.6c0 .8-.6 1.4-1.4 1.4H6.7c-.8 0-1.4-.6-1.4-1.4v-8.6c0-.2.2-.3.3-.3h1v-1.4c.2-2.7 2.4-4.8 5-4.8zm-.7-10.6c0-.4.3-.7.7-.7h1.5c.4 0 .7.3.7.7 0 .4-.3.7-.7.7h-1.5c-.4 0-.7-.3-.7-.7zM5.2 48c0 .2-.1.3-.3.3H3.3c-.2 0-.3-.1-.3-.3 0-.2.1-.3.3-.3h1.6c.2 0 .3.1.3.3zm9.5.8c0 .2-.2.4-.4.4H9c-.2 0-.4-.2-.4-.4v-1.2c0-.2.2-.4.4-.4h5.2c.2 0 .4.2.4.4v1.2h.1zm5.5-.8c0 .2-.1.3-.3.3h-1.6c-.2 0-.3-.1-.3-.3 0-.2.1-.3.3-.3h1.6c.2 0 .3.1.3.3zm1.2-4c0 1-.6 1.8-1.4 2.3H3.2c-.8-.4-1.4-1.3-1.4-2.3V7.8v.1c.2.5.7.9 1.2 1v32.6h17V8.9s.1 0 .1 0c.6-.1 1.1-.5 1.3-1v-.1V44zM14.4 21.1c0-1.5-1.2-2.7-2.7-2.7-1.5 0-2.7 1.2-2.7 2.7v1.4h5.5v-1.4h-.1z"/></g></g></g><g stroke="#fff" stroke-width="2.1" stroke-linecap="round" stroke-linejoin="round"><path d="M41 21.5c-.8.9-1.4 2.2-1.4 3.5 0 1.4.5 2.6 1.4 3.5M33.8 14.3c-2.7 2.8-4.3 6.5-4.3 10.7 0 4.2 1.7 7.9 4.3 10.7M37.3 17.8c-1.8 1.9-2.9 4.4-2.9 7.2s1.1 5.3 2.9 7.2"/></g></g></g></g></g></g></g></svg>