<svg xmlns="http://www.w3.org/2000/svg" width="45" height="49"><title>icon_government_prevent_mobile_espionage</title><desc>Created with Sketch.</desc><g fill="none"><g><g><g><g transform="translate(1 1)"><path id="Shape" stroke="#00758D" stroke-width="2.1" d="M21.63 46.75l-.33-.15C15 43.78 9.38 39.14 4.63 34.9 2 32.75.47 29.5.45 26.1V4L1 3.88C7.77 2.4 14.68.45 21.53.45c6.85 0 13.84 2 20.76 3.43l.54.1v22.26c0 3.32-1.47 6.46-4 8.6C34 39.45 28.27 44.1 22 46.63l-.37.13z" stroke-linejoin="round"/><path id="Shape" fill="#00788C" fill-rule="nonzero" d="M21.65 33.63c-.43 0-.83.25-1 .65-.16.4-.08.86.23 1.17.3.3.77.4 1.17.24.4-.18.66-.57.66-1 0-.6-.46-1.06-1.05-1.07"/><rect width="14.68" height="29.79" x="14.31" y="7.57" stroke="#00758D" stroke-width="2.1" stroke-linejoin="round" rx="1.37"/><path stroke="#00758D" stroke-width="2.1" d="M14.7 10.77h13.9M14.7 32.17h13.9" stroke-linejoin="round"/></g></g></g></g></g></svg>