<?xml version="1.0" encoding="utf-8"?>
<!-- Generator: Adobe Illustrator 25.1.0, SVG Export Plug-In . SVG Version: 6.00 Build 0)  -->
<svg version="1.1" id="ICONS" xmlns="http://www.w3.org/2000/svg" xmlns:xlink="http://www.w3.org/1999/xlink" x="0px" y="0px"
	 viewBox="0 0 75 75" style="enable-background:new 0 0 75 75;" xml:space="preserve">
<style type="text/css">
	.st0{fill:#00778B;}
	.st1{fill:#FFFFFF;stroke:#00778B;stroke-width:2.1;stroke-linejoin:round;stroke-miterlimit:10;}
	.st2{fill:#00778B;stroke:#00778B;stroke-miterlimit:10;}
	.st3{fill:none;stroke:#00778B;stroke-width:2.1;stroke-linejoin:round;stroke-miterlimit:10;}
	.st4{enable-background:new    ;}
	.st5{clip-path:url(#SVGID_2_);}
</style>
<g>
	<path class="st0" d="M37.2,40.3h-2.6c-0.2,0-0.4-0.2-0.4-0.4v-6.1c0-0.2,0.2-0.4,0.4-0.4h2.6c0.2,0,0.4,0.2,0.4,0.4v6.1
		C37.7,40.1,37.5,40.3,37.2,40.3z"/>
	<path class="st0" d="M37.2,61.1h-2.6c-0.2,0-0.4-0.2-0.4-0.4v-6.1c0-0.2,0.2-0.4,0.4-0.4h2.6c0.2,0,0.4,0.2,0.4,0.4v6.1
		C37.7,60.9,37.5,61.1,37.2,61.1z"/>
	<path class="st0" d="M12,48.5v-2.6c0-0.2,0.2-0.4,0.4-0.4h6.1c0.2,0,0.4,0.2,0.4,0.4v2.6c0,0.2-0.2,0.4-0.4,0.4h-6.1
		C12.2,48.9,12,48.7,12,48.5z"/>
	<path class="st0" d="M51.8,48.5v-2.6c0-0.2,0.2-0.4,0.4-0.4h6.1c0.2,0,0.4,0.2,0.4,0.4v2.6c0,0.2-0.2,0.4-0.4,0.4h-6.1
		C52,48.9,51.8,48.7,51.8,48.5z"/>
</g>
<g>
	<g>
		<path class="st1" d="M16,40.4v13.6c0,1.6,1.3,3,3,3h32.7c1.6,0,3-1.3,3-3V40.4c0-1.6-1.3-3-3-3H18.9C17.3,37.4,16,38.7,16,40.4
			L16,40.4z"/>
		<path class="st1" d="M47.5,40.6"/>
	</g>
</g>
<path class="st2" d="M51.9,47.1L51.9,47.1c0,0.8-0.6,1.4-1.4,1.4c-0.8,0-1.4-0.6-1.4-1.4c0-0.8,0.6-1.4,1.4-1.4
	C51.3,45.7,51.9,46.4,51.9,47.1"/>
<line class="st3" x1="47.1" y1="56.7" x2="47.1" y2="37.6"/>
<line class="st3" x1="21.1" y1="56.7" x2="21.2" y2="37.6"/>
<path class="st3" d="M62.2,61H13.7c-1.2,0-2.1-0.9-2.1-2.1V35.5c0-1.2,0.9-2.1,2.1-2.1h48.5c1.2,0,2.1,0.9,2.1,2.1v23.4
	C64.3,60,63.3,61,62.2,61z"/>
<g>
	<path class="st0" d="M68.7,14.9c-0.7-0.4-1.5-0.5-2.1-0.5v0H36.1h-0.7H9.8v0c-0.6,0-1.3,0.2-2.1,0.5c-1.5,0.7-2.5,2-2.1,2.7
		c0.2,0.4,0.8,0.6,1.5,0.6v-1.8h2.7v0h25.6h0.7h30.5v0h2.7v1.8c0.7,0,1.3-0.2,1.5-0.6C71.1,16.8,70.2,15.6,68.7,14.9z"/>
	<g>
		<g class="st4">
			<defs>
				<polygon id="SVGID_1_" class="st4" points="11.4,33.1 4.8,15.5 71.6,15.5 65.1,33.1 				"/>
			</defs>
			<clipPath id="SVGID_2_">
				<use xlink:href="#SVGID_1_"  style="overflow:visible;"/>
			</clipPath>
			<g class="st5">
				<path class="st0" d="M33.3,17l0-0.5c0,0,0-0.1,0-0.1c0,0,0.1-0.1,0.1-0.1c0,0,0.1-0.1,0.1-0.1c0.1,0,0.1,0,0.2,0H37
					c0.1,0,0.1,0,0.2,0c0.1,0,0.1,0,0.2,0.1c0,0,0.1,0.1,0.1,0.1c0,0,0,0.1,0,0.1l0,0.5h24.2l0.1-0.5h2.3L64,17h3.6
					c0.2,0,0.3,0,0.4,0.1c0.1,0,0.2,0.1,0.3,0.2c0.1,0.1,0.1,0.1,0.2,0.2c0,0.1,0,0.2,0,0.3l-4.8,13.9c0,0.1-0.1,0.1-0.1,0.2
					c-0.1,0.1-0.2,0.1-0.3,0.2c-0.1,0-0.2,0.1-0.3,0.1c-0.1,0-0.3,0-0.4,0h-3l-0.2,0.6h-1.9l0.2-0.6h-20l0,0.3c0,0,0,0.1,0,0.1
					c0,0,0,0-0.1,0.1c0,0-0.1,0-0.1,0c0,0-0.1,0-0.2,0h-2.6c-0.1,0-0.1,0-0.2,0c0,0-0.1,0-0.1,0c0,0-0.1,0-0.1-0.1c0,0,0-0.1,0-0.1
					l0-0.3H13.9c-0.1,0-0.3,0-0.4,0c-0.1,0-0.2-0.1-0.3-0.1c-0.1,0-0.2-0.1-0.3-0.2c-0.1-0.1-0.1-0.1-0.1-0.2l-1.9-5.4h-0.5
					c-0.1,0-0.1,0-0.2,0c-0.1,0-0.1,0-0.2-0.1c0,0-0.1,0-0.1-0.1c0,0-0.1-0.1-0.1-0.1l-0.5-1.5c0,0,0-0.1,0-0.1c0,0,0-0.1,0.1-0.1
					c0,0,0.1,0,0.1-0.1c0,0,0.1,0,0.2,0h0.5L8,17.8c0-0.1,0-0.2,0-0.3c0-0.1,0.1-0.2,0.2-0.2c0.1-0.1,0.2-0.1,0.3-0.2
					c0.1,0,0.3-0.1,0.4-0.1H33.3 M68.1,15.5H8.4c-0.5,0-0.9,0.1-1.3,0.2c-0.4,0.1-0.7,0.3-0.9,0.5c-0.2,0.2-0.4,0.4-0.5,0.7
					c-0.1,0.3-0.1,0.6,0,0.8l5.2,13.9c0.1,0.2,0.2,0.4,0.4,0.6c0.2,0.2,0.5,0.3,0.8,0.5c0.3,0.1,0.7,0.2,1,0.3
					c0.4,0.1,0.8,0.1,1.1,0.1h48c0.4,0,0.8,0,1.1-0.1c0.4-0.1,0.7-0.2,1-0.3c0.3-0.1,0.6-0.3,0.8-0.5c0.2-0.2,0.4-0.4,0.4-0.6
					l5.2-13.9c0.1-0.3,0.1-0.6,0-0.8c-0.1-0.3-0.2-0.5-0.5-0.7c-0.2-0.2-0.6-0.4-0.9-0.5C69,15.6,68.6,15.5,68.1,15.5"/>
				<path class="st0" d="M37,16.2h-3.2c-0.1,0-0.1,0-0.2,0c-0.1,0-0.1,0-0.1,0.1c0,0-0.1,0.1-0.1,0.1c0,0,0,0.1,0,0.1l0,0.5l0.2,3.7
					c0,0,0,0.1,0,0.1c0,0,0.1,0.1,0.1,0.1c0,0,0.1,0,0.1,0.1c0.1,0,0.1,0,0.2,0h3.1c0.1,0,0.1,0,0.2,0c0.1,0,0.1,0,0.1-0.1
					c0,0,0.1-0.1,0.1-0.1c0,0,0-0.1,0-0.1l0-3.7l0-0.5c0,0,0-0.1,0-0.1c0,0-0.1-0.1-0.1-0.1c0,0-0.1-0.1-0.2-0.1
					C37.1,16.2,37.1,16.2,37,16.2"/>
				<path class="st0" d="M37.2,29.1h-2.8c-0.1,0-0.1,0-0.2,0c0,0-0.1,0-0.1,0c0,0-0.1,0-0.1,0.1c0,0,0,0.1,0,0.1l0.2,2.8l0,0.3
					c0,0,0,0.1,0,0.1c0,0,0.1,0,0.1,0.1c0,0,0.1,0,0.1,0c0,0,0.1,0,0.2,0h2.6c0.1,0,0.1,0,0.2,0c0,0,0.1,0,0.1,0c0,0,0.1,0,0.1-0.1
					c0,0,0-0.1,0-0.1l0-0.3l0-2.8c0,0,0-0.1,0-0.1c0,0-0.1-0.1-0.1-0.1c0,0-0.1,0-0.1,0C37.3,29.1,37.2,29.1,37.2,29.1"/>
				<path class="st0" d="M16.5,24.3h-6.3H9.7c-0.1,0-0.1,0-0.2,0c0,0-0.1,0-0.1,0.1c0,0-0.1,0.1-0.1,0.1c0,0,0,0.1,0,0.1L9.9,26
					c0,0,0,0.1,0.1,0.1c0,0,0.1,0.1,0.1,0.1c0,0,0.1,0,0.2,0.1c0.1,0,0.1,0,0.2,0h0.5H17c0.1,0,0.1,0,0.2,0c0,0,0.1,0,0.1-0.1
					c0,0,0.1,0,0.1-0.1c0,0,0-0.1,0-0.1L17,24.5c0,0,0-0.1-0.1-0.1c0,0-0.1-0.1-0.1-0.1c0,0-0.1,0-0.2-0.1
					C16.6,24.3,16.5,24.3,16.5,24.3"/>
				<path class="st0" d="M59.8,24.3h-6.2c-0.1,0-0.1,0-0.2,0c-0.1,0-0.1,0-0.1,0.1c0,0-0.1,0.1-0.1,0.1c0,0,0,0.1-0.1,0.1L52.8,26
					c0,0,0,0.1,0,0.1c0,0,0,0.1,0.1,0.1c0,0,0.1,0,0.1,0.1c0,0,0.1,0,0.2,0h6L59.8,24.3"/>
				<polyline class="st0" points="64.1,16.5 61.8,16.5 61.7,17 59.8,24.3 59.2,26.3 57.7,32.1 57.5,32.7 59.4,32.7 59.6,32.1 64,17 
					64.1,16.5 				"/>
			</g>
		</g>
	</g>
</g>
<line class="st3" x1="58.7" y1="33.5" x2="58.7" y2="61"/>
</svg>
