<svg xmlns="http://www.w3.org/2000/svg" width="46" height="50"><g fill="none" fill-rule="evenodd"><path stroke="#00758D" stroke-linejoin="round" stroke-width="2.1" d="M22.8 48.28l-.32-.14c-6.32-2.83-11.93-7.46-16.67-11.69a11.48 11.48 0 01-4.18-8.82V5.54l.54-.12C9 4 15.85 2 22.71 2c6.86 0 13.83 2 20.76 3.43l.55.12v22.22a11.3 11.3 0 01-4 8.61C35.15 41 29.45 45.63 23.14 48.15l-.34.13z"/><path stroke="#00758D" stroke-width="2.1" d="M7.26 15.76h31.2v9.79H7.26z"/><path fill="#00758D" fill-rule="nonzero" d="M12.51 21.11L11 22.2l-.46-.77 1.76-.79-1.76-.81.46-.77 1.56 1.11-.19-1.89h.89L13 20.17l1.57-1.11.45.77-1.76.81 1.76.79-.45.77L13 21.11l.21 1.89h-.89zM19.16 21.11L17.6 22.2l-.46-.77 1.76-.79-1.76-.81.46-.77 1.56 1.11-.16-1.89h.89l-.19 1.89 1.57-1.11.45.77-1.75.81 1.75.79-.45.77-1.57-1.09.16 1.89H19zM25.81 21.11l-1.56 1.09-.45-.77 1.75-.79-1.75-.81.45-.77 1.56 1.11-.19-1.89h.9l-.19 1.89 1.56-1.11.45.77-1.75.81 1.75.79-.45.77-1.56-1.09.19 1.89h-.9zM32.47 21.11L30.9 22.2l-.45-.77 1.75-.79-1.75-.81.45-.77 1.57 1.11-.19-1.89h.89L33 20.17l1.56-1.11.46.77-1.76.81 1.76.79-.46.77L33 21.11l.17 1.89h-.89z"/></g></svg>