<svg xmlns="http://www.w3.org/2000/svg" xmlns:xlink="http://www.w3.org/1999/xlink" version="1.1" id="ICONS" x="0px" y="0px" style="enable-background:new 0 0 75 75;" xml:space="preserve" viewBox="13.65 11.55 47.7 51.9"><style type="text/css">	.st0{fill:#FFFFFF;stroke:#00778B;stroke-linejoin:round;stroke-miterlimit:10;}	.st1{fill:#00778B;}	.st2{fill:none;stroke:#00778B;stroke-width:2.1;stroke-miterlimit:10;}	.st3{fill:none;stroke:#00778B;stroke-width:2.1;stroke-linejoin:round;stroke-miterlimit:10;}	.st4{fill:none;stroke:#00778B;stroke-width:2;stroke-linecap:round;}	.st5{fill:none;stroke:#00778B;stroke-width:2;}	.st6{fill:none;stroke:#00778B;stroke-width:2;stroke-linecap:round;stroke-linejoin:round;}	.st7{fill:#00788C;}	.st8{fill:none;stroke:#00778B;stroke-width:2;stroke-miterlimit:10;}	.st9{fill:none;stroke:#00778B;stroke-width:2.1;stroke-linecap:round;stroke-linejoin:round;stroke-miterlimit:10;}	.st10{fill:#FFFFFF;}	.st11{fill:none;stroke:#00778B;stroke-width:2.1;stroke-linecap:round;stroke-miterlimit:10;}	.st12{fill:none;stroke:#00778B;stroke-width:1.25;stroke-linecap:round;}	.st13{fill:none;stroke:#00778B;stroke-width:1.25;}	.st14{fill:none;stroke:#00778B;stroke-width:1.25;stroke-linecap:round;stroke-linejoin:round;}	.st15{fill:none;stroke:#00778B;stroke-width:1.25;stroke-linejoin:round;stroke-miterlimit:10;}	.st16{fill:none;stroke:#00778B;stroke-width:1.25;stroke-linecap:round;stroke-linejoin:round;stroke-miterlimit:10;}	.st17{fill:#FFFFFF;stroke:#00778B;stroke-width:2.1;stroke-linejoin:round;stroke-miterlimit:10;}	.st18{fill:none;stroke:#00778B;stroke-width:2;stroke-linecap:round;stroke-miterlimit:10;stroke-dasharray:3.5;}	.st19{enable-background:new    ;}	.st20{clip-path:url(#SVGID_00000118355484218372463510000015013087470387303850_);enable-background:new    ;}	.st21{fill:#FFFFFF;stroke:#00778B;stroke-width:2.1;stroke-miterlimit:10;}	.st22{clip-path:url(#SVGID_00000053536214820283810970000006844389496114256575_);enable-background:new    ;}	.st23{clip-path:url(#SVGID_00000022522632364923516500000012601611702946359991_);enable-background:new    ;}	.st24{fill:#008599;}	.st25{fill:none;stroke:#00778B;stroke-width:1.5;stroke-linecap:round;stroke-linejoin:round;stroke-miterlimit:10;}	.st26{fill:none;stroke:#00778B;stroke-width:1.25;stroke-linecap:round;stroke-miterlimit:10;}</style><g>	<path class="st16" d="M40.6,21.1c0,1.7-1.4,3.1-3.1,3.1c-1.7,0-3.1-1.4-3.1-3.1c0-1.7,1.4-3.1,3.1-3.1C39.2,18,40.6,19.4,40.6,21.1   L40.6,21.1z M40.6,21.1"></path>	<path class="st16" d="M38.5,25.8c-0.8-0.2-1.6-0.1-2.4,0c-5.2,0.6-6.9,6.6-6.4,11.3c0.2,2,3.3,2,3.1,0c-0.2-1.7-0.1-4.2,0.8-6v6.6   c0,0.1,0,0.1,0,0.2c0,0,0,0.1,0,0.1c0,5.2,0,10.4-0.2,15.6c-0.1,2.3,3.5,2.3,3.6,0c0.2-4.1,0.2-8.2,0.2-12.2c0.2,0,0.3,0,0.5,0   c0,4.1,0.1,8.2,0.2,12.2c0.1,2.3,3.7,2.3,3.6,0c-0.2-5.2-0.2-10.4-0.2-15.6c0-0.2,0-0.3-0.1-0.4c0-2.3-0.1-4.5-0.1-6.8   c1.1,1.8,1.2,4.6,1,6.4c-0.2,2,2.9,2,3.1,0C45.8,32.4,44,26.2,38.5,25.8L38.5,25.8z M38.5,25.8"></path>	<path class="st3" d="M37.5,62.4l-0.4-0.2c-6.8-3-12.8-8-17.9-12.6c-3-2.7-4.5-5.9-4.5-9.5V16.4l0.6-0.1c7.3-1.6,14.7-3.7,22.1-3.7   c7.4,0,14.9,2.1,22.3,3.7l0.6,0.1v23.9c0,3.6-1.4,6.6-4.3,9.3c-5.3,4.9-11.4,10-18.2,12.7L37.5,62.4z"></path></g></svg>