<?xml version="1.0" encoding="utf-8"?>
<!-- Generator: Adobe Illustrator 26.0.2, SVG Export Plug-In . SVG Version: 6.00 Build 0)  -->
<svg version="1.1" id="ICONS" xmlns="http://www.w3.org/2000/svg" xmlns:xlink="http://www.w3.org/1999/xlink" x="0px" y="0px"
	 viewBox="0 0 75 75" style="enable-background:new 0 0 75 75;" xml:space="preserve">
<style type="text/css">
	.st0{fill:#00778B;}
	.st1{fill:#FFFFFF;}
	.st2{fill:#FF0000;}
	.st3{font-family:'Helvetica';}
	.st4{font-size:20px;}
</style>
<path class="st0" d="M37.5,62.4l-0.4-0.2c-6.8-3-12.8-8-17.9-12.6c-3-2.7-4.5-5.9-4.5-9.5V16.4l0.6-0.1c7.3-1.6,14.7-3.7,22.1-3.7
	s14.9,2.1,22.3,3.7l0.6,0.1v23.9c0,3.6-1.4,6.6-4.3,9.3c-5.3,4.9-11.4,10-18.2,12.7L37.5,62.4z"/>
<g>
	<path class="st1" d="M34.1,24.2H42v2.4h-5.3v1.8h4.7v2.2h-4.7v3.6H34L34.1,24.2L34.1,24.2z"/>
</g>
<g>
	<path class="st1" d="M29.6,39.4h-0.8V39h2.1v0.4h-0.8v2.1h-0.4v-2.1H29.6z"/>
	<path class="st1" d="M31.5,39h1.1c0.3,0,0.6,0.1,0.7,0.3c0.1,0.1,0.2,0.3,0.2,0.5l0,0c0,0.4-0.3,0.7-0.6,0.8l0.7,1h-0.5l-0.6-0.9
		h-0.6v0.9h-0.4C31.5,41.6,31.5,39,31.5,39z M32.6,40.3c0.3,0,0.5-0.2,0.5-0.4l0,0c0-0.3-0.2-0.4-0.5-0.4h-0.7v0.9L32.6,40.3
		L32.6,40.3z"/>
	<path class="st1" d="M34.2,40.5V39h0.4v1.5c0,0.5,0.2,0.7,0.7,0.7c0.4,0,0.6-0.2,0.6-0.7V39h0.4v1.4c0,0.8-0.4,1.1-1.1,1.1
		C34.6,41.6,34.2,41.2,34.2,40.5z"/>
	<path class="st1" d="M36.9,41.2l0.3-0.3c0.2,0.2,0.5,0.3,0.8,0.3s0.5-0.1,0.5-0.3l0,0c0-0.2-0.1-0.3-0.6-0.4
		c-0.5-0.1-0.8-0.3-0.8-0.8l0,0c0-0.4,0.4-0.7,0.9-0.7c0.4,0,0.7,0.1,0.9,0.3l-0.2,0.3c-0.2-0.2-0.5-0.3-0.7-0.3
		c-0.3,0-0.4,0.1-0.4,0.3l0,0c0,0.2,0.1,0.3,0.6,0.4c0.5,0.1,0.8,0.3,0.8,0.7l0,0c0,0.5-0.4,0.8-0.9,0.8
		C37.6,41.6,37.2,41.4,36.9,41.2z"/>
	<path class="st1" d="M40.1,39.4h-0.8V39h2.1v0.4h-0.8v2.1h-0.4L40.1,39.4L40.1,39.4z"/>
	<path class="st1" d="M42,39h1.9v0.4h-1.5v0.7h1.3v0.4h-1.3v0.7h1.5v0.4H42V39z"/>
	<path class="st1" d="M44.5,39h0.9c0.8,0,1.4,0.5,1.4,1.3l0,0c0,0.7-0.6,1.3-1.4,1.3h-0.9V39z M44.9,39.4v1.8h0.5
		c0.5,0,0.9-0.4,0.9-0.9l0,0c0-0.5-0.4-0.9-0.9-0.9C45.4,39.4,44.9,39.4,44.9,39.4z"/>
	<path class="st1" d="M27.8,43.2h0.4v2.2h1.3v0.4h-1.8L27.8,43.2L27.8,43.2z"/>
	<path class="st1" d="M29.9,44.5L29.9,44.5c0-0.7,0.6-1.3,1.3-1.3c0.7,0,1.3,0.6,1.3,1.3l0,0c0,0.7-0.6,1.3-1.3,1.3
		S29.9,45.2,29.9,44.5z M32.1,44.5L32.1,44.5c0-0.5-0.4-0.9-0.9-0.9s-0.9,0.4-0.9,0.9l0,0c0,0.5,0.4,0.9,0.9,0.9S32.1,45,32.1,44.5z
		"/>
	<path class="st1" d="M33.1,44.5L33.1,44.5c0-0.7,0.5-1.3,1.3-1.3c0.5,0,0.8,0.2,1,0.4l-0.3,0.3c-0.2-0.2-0.4-0.3-0.7-0.3
		c-0.5,0-0.9,0.4-0.9,0.9l0,0c0,0.5,0.4,0.9,0.9,0.9c0.3,0,0.5-0.1,0.7-0.3l0.3,0.3c-0.3,0.3-0.6,0.4-1,0.4
		C33.7,45.8,33.1,45.2,33.1,44.5z"/>
	<path class="st1" d="M37,43.2h0.4l1.1,2.6H38l-0.3-0.6h-1.2l-0.3,0.6h-0.4L37,43.2z M37.6,44.7l-0.5-1l-0.5,1H37.6z"/>
	<path class="st1" d="M39.3,43.6h-0.8v-0.4h2.1v0.4h-0.8v2.1h-0.4L39.3,43.6L39.3,43.6z"/>
	<path class="st1" d="M41.2,43.2h0.4v2.5h-0.4V43.2z"/>
	<path class="st1" d="M42.3,44.5L42.3,44.5c0-0.7,0.6-1.3,1.3-1.3s1.3,0.6,1.3,1.3l0,0c0,0.7-0.6,1.3-1.3,1.3
		C42.9,45.8,42.3,45.2,42.3,44.5z M44.5,44.5L44.5,44.5c0-0.5-0.4-0.9-0.9-0.9s-0.9,0.4-0.9,0.9l0,0c0,0.5,0.4,0.9,0.9,0.9
		S44.5,45,44.5,44.5z"/>
	<path class="st1" d="M45.7,43.2H46l1.4,1.8v-1.8h0.4v2.5h-0.4L46,43.9v1.8h-0.4v-2.5H45.7z"/>
</g>
<g>
	<path class="st0" d="M53.6,55.5h-1V55H55v0.5h-1V58h-0.5L53.6,55.5L53.6,55.5z"/>
	<path class="st0" d="M55.8,55h0.5l0.9,1.4l0.9-1.4h0.5v3h-0.5v-2.2l-1,1.4l0,0l-1-1.4V58h-0.5v-3H55.8z"/>
</g>
<text transform="matrix(0.9848 -0.1736 0.1736 0.9848 17.9113 44.7884)" class="st2 st3 st4">FPO</text>
</svg>
