<svg xmlns="http://www.w3.org/2000/svg" width="53" height="51"><title>icon_secure_policy_enforcement</title><desc>Created with Sketch.</desc><g fill="none"><g><g><g><g><g><path id="Shape" stroke="#00778C" stroke-width="2.1" d="M48.1 1.9H4.8C3 1.9 1.5 3.4 1.5 5.2V36c0 1.8 1.5 3.4 3.3 3.4h16.6s.7 6.7-5 6.7v3.4h20.1v-3.4c-6 0-5-6.7-5-6.7h16.6c1.8 0 3.3-1.5 3.3-3.4V5.3c0-1.9-1.5-3.4-3.3-3.4zM51.4 31.7H1.8" stroke-linejoin="round"/><path fill="#00778C" fill-rule="nonzero" d="M23.8 7.7V7h5v.7l-1.3 12.9h-2.4L23.8 7.7zm.2 15.2h4.6v4.6H24v-4.6z"/></g></g></g></g></g></g></svg>