<?xml version="1.0" encoding="utf-8"?>
<!-- Generator: Adobe Illustrator 22.1.0, SVG Export Plug-In . SVG Version: 6.00 Build 0)  -->
<svg version="1.1" id="Layer_1" xmlns="http://www.w3.org/2000/svg" xmlns:xlink="http://www.w3.org/1999/xlink" x="0px" y="0px"
	 viewBox="0 0 144 144" style="enable-background:new 0 0 144 144;" xml:space="preserve">
<style type="text/css">
	.st0{fill-rule:evenodd;clip-rule:evenodd;fill:#B1B3B6;}
	.st1{fill:#FFFFFF;}
	.st2{fill:#4D4A4A;}
	.st3{fill:#4D4D4F;}
	.st4{fill-rule:evenodd;clip-rule:evenodd;fill:#A49B84;}
	.st5{fill-rule:evenodd;clip-rule:evenodd;fill:#231F20;}
	.st6{fill:#B1B3B6;}
</style>
<polygon class="st0" points="127.9,72 123.4,76.5 127.1,81.7 121.9,85.4 124.6,91.1 118.8,93.8 120.4,100 114.3,101.6 114.8,108 
	108.5,108.5 108,114.8 101.6,114.3 100,120.4 93.8,118.8 91.1,124.6 85.4,121.9 81.7,127.1 76.5,123.4 72,127.9 67.5,123.4 
	62.3,127.1 58.6,121.9 52.9,124.6 50.2,118.8 44,120.4 42.4,114.3 36,114.8 35.5,108.5 29.2,108 29.7,101.6 23.6,100 25.2,93.8 
	19.4,91.1 22.1,85.4 16.9,81.7 20.6,76.5 16.1,72 20.6,67.5 16.9,62.3 22.1,58.6 19.4,52.9 25.2,50.2 23.6,44 29.7,42.4 29.2,36 
	35.5,35.5 36,29.2 42.4,29.7 44,23.6 50.2,25.2 52.9,19.4 58.6,22.1 62.3,16.9 67.5,20.6 72,16.1 76.5,20.6 81.7,16.9 85.4,22.1 
	91.1,19.4 93.8,25.2 100,23.6 101.6,29.7 108,29.2 108.5,35.5 114.8,36 114.3,42.4 120.4,44 118.8,50.2 124.6,52.9 121.9,58.6 
	127.1,62.3 123.4,67.5 "/>
<path class="st1" d="M72,117.9c-25.3,0-45.8-20.6-45.8-45.9c0-25.3,20.6-45.9,45.8-45.9c25.3,0,45.8,20.6,45.8,45.9
	C117.8,97.3,97.3,117.9,72,117.9z M72,27.1c-24.7,0-44.8,20.1-44.8,44.9c0,24.7,20.1,44.9,44.8,44.9c24.7,0,44.8-20.1,44.8-44.9
	C116.8,47.3,96.7,27.1,72,27.1z"/>
<path class="st1" d="M38.2,85h67.6v0.5H38.2V85L38.2,85z M38.2,56.9h67.6v0.5H38.2V56.9z"/>
<g>
	<path class="st2" d="M40.4,76.8h-1.8l-0.3-2h-2.2l-0.3,2h-1.6L36,65.6h2.6L40.4,76.8z M36.4,73.3h1.7l-0.8-5.6L36.4,73.3z"/>
	<path class="st2" d="M44.7,65.6v8.6c0,0.8,0.4,1.1,0.9,1.1c0.6,0,0.9-0.3,0.9-1.1v-8.6h1.7v8.5c0,1.8-0.9,2.8-2.6,2.8
		c-1.7,0-2.6-1-2.6-2.8v-8.5H44.7z"/>
	<path class="st2" d="M50.8,65.6h5.4v1.6h-1.8v9.6h-1.8v-9.6h-1.8V65.6z"/>
	<path class="st2" d="M60.6,76.8h-1.8V65.6h1.8v4.8h2v-4.8h1.8v11.2h-1.8V72h-2V76.8z"/>
	<path class="st2" d="M67.4,68.3c0-1.8,0.9-2.8,2.7-2.8s2.7,1,2.7,2.8v5.8c0,1.8-0.9,2.8-2.7,2.8s-2.7-1-2.7-2.8V68.3z M69.1,74.2
		c0,0.8,0.4,1.1,0.9,1.1c0.6,0,0.9-0.3,0.9-1.1v-6c0-0.8-0.4-1.1-0.9-1.1c-0.6,0-0.9,0.3-0.9,1.1V74.2z"/>
	<path class="st2" d="M79.4,76.8c0-0.1,0-0.1-0.1-0.2c0-0.1-0.1-0.3-0.1-0.6c0-0.1,0-0.3,0-0.6v-1.8c0-1-0.3-1.4-1.1-1.4h-0.6v4.5
		h-1.8V65.6h2.6c1.8,0,2.6,0.8,2.6,2.6v0.9c0,1.1-0.4,1.9-1.1,2.3c0.9,0.4,1.2,1.2,1.2,2.4v1.7c0,0.6,0,0.9,0.2,1.4H79.4z
		 M77.4,67.2v3.4h0.7c0.7,0,1.1-0.3,1.1-1.2v-1.1c0-0.8-0.3-1.1-0.9-1.1H77.4z"/>
	<path class="st2" d="M84,65.6h1.8v11.2H84V65.6z"/>
	<path class="st2" d="M93.7,65.6v1.6l-3.3,8h3.3v1.6h-5.1v-1.6l3.3-8h-3.2v-1.6H93.7z"/>
	<path class="st2" d="M98.4,70.4h2.4v1.6h-2.4v3.3h3v1.6h-4.8V65.6h4.8v1.6h-3V70.4z"/>
	<path class="st2" d="M104.4,65.6h2.8c1.8,0,2.6,1,2.6,2.8v5.6c0,1.8-0.8,2.8-2.6,2.8h-2.8V65.6z M106.1,67.2v8h1
		c0.6,0,0.9-0.3,0.9-1.1v-5.8c0-0.8-0.3-1.1-0.9-1.1H106.1z"/>
</g>
<polygon class="st3" points="69.2,51.6 61.9,44.6 64.4,41.8 69.1,46.4 79.5,36.3 82.1,38.8 "/>
<g>
	<path class="st3" d="M55.9,97.9l1,0.6c0.6,0.3,0.8,0.9,0.5,1.4l0,0c-0.3,0.6-1,0.6-1.5,0.3l-0.4-0.3l-0.4,0.8l-0.5-0.3L55.9,97.9z
		 M56.2,99.7c0.3,0.2,0.6,0.1,0.7-0.1l0,0c0.1-0.3,0-0.5-0.2-0.7l-0.4-0.3l-0.5,0.8L56.2,99.7z"/>
	<path class="st3" d="M60.6,100.3l1.2,0.4c0.3,0.1,0.6,0.3,0.7,0.6c0.1,0.2,0.1,0.4,0,0.7l0,0c-0.2,0.4-0.5,0.6-0.9,0.6l0.3,1.2
		l-0.7-0.2l-0.3-1.1l-0.5-0.2l-0.3,0.9l-0.6-0.2L60.6,100.3z M61.4,102.1c0.3,0.1,0.5,0,0.6-0.2l0,0c0.1-0.3,0-0.5-0.3-0.6L61,101
		l-0.3,0.8L61.4,102.1z"/>
	<path class="st3" d="M66,101.9l0.6,0.1l-0.5,2.9l-0.6-0.1L66,101.9z"/>
	<path class="st3" d="M69.6,102.4l0.7,0l0.7,2.1l0.8-2.1l0.7,0l-1.3,2.9l-0.5,0L69.6,102.4z"/>
	<path class="st3" d="M75.3,103.8L75.3,103.8c-0.1-0.8,0.4-1.6,1.3-1.7c0.9-0.1,1.6,0.4,1.8,1.2l0,0c0.1,0.8-0.4,1.6-1.3,1.7
		C76.2,105.2,75.5,104.6,75.3,103.8z M77.8,103.4L77.8,103.4c-0.1-0.5-0.5-0.9-1-0.8c-0.5,0.1-0.8,0.6-0.7,1.1l0,0
		c0.1,0.5,0.5,0.9,1,0.8C77.5,104.4,77.8,103.9,77.8,103.4z"/>
	<path class="st3" d="M81.2,101.1l1.2-0.4c0.3-0.1,0.7-0.1,0.9,0c0.2,0.1,0.4,0.3,0.5,0.5l0,0c0.2,0.4,0,0.8-0.3,1.1l1,0.7l-0.7,0.2
		l-0.9-0.7l-0.5,0.2l0.3,0.9l-0.6,0.2L81.2,101.1z M82.8,102c0.3-0.1,0.4-0.3,0.3-0.6l0,0c-0.1-0.3-0.3-0.3-0.6-0.2l-0.6,0.2
		l0.3,0.8L82.8,102z"/>
	<path class="st3" d="M86.9,100.3L86.9,100.3c-0.4-0.7-0.2-1.6,0.6-2.1c0.8-0.5,1.7-0.2,2.1,0.5l0,0c0.4,0.7,0.2,1.6-0.6,2.1
		C88.2,101.3,87.3,101,86.9,100.3z M89,99.1L89,99.1c-0.3-0.4-0.8-0.6-1.3-0.4c-0.5,0.3-0.6,0.8-0.3,1.3l0,0
		c0.3,0.4,0.8,0.6,1.3,0.4C89.1,100.1,89.2,99.5,89,99.1z"/>
</g>
</svg>
