<svg xmlns="http://www.w3.org/2000/svg" width="55" height="52"><title>icon_government_monitor_policy_violations</title><desc>Created with Sketch.</desc><g fill="none"><g stroke="#00778C" stroke-width="2.1"><g><g><g transform="translate(1 1)"><path id="Shape" d="M17.7 25.82l5.57-5.58"/><circle cx="28.99" cy="14.38" r="7.63"/><path id="Shape" d="M24.72 14.38c0-1.13.45-2.22 1.25-3.02.8-.8 1.9-1.25 3.03-1.25"/><path d="M48.9.42h-45c-.92 0-1.8.37-2.46 1.02-.65.65-1 1.54-1 2.46v32c0 .92.35 1.8 1 2.46.65.65 1.54 1.02 2.46 1.02h17.28s.76 7-5.22 7v3.48h20.92V46.3c-6.22 0-5.24-7-5.24-7H48.9c.92 0 1.8-.36 2.45-1 .64-.67 1-1.55 1-2.47V3.9c0-.92-.36-1.8-1-2.46C50.7.8 49.82.42 48.9.42zM53.1 31.6H0"/></g></g></g></g></g></svg>