<svg width="41" height="40" viewBox="0 0 41 40" fill="none" xmlns="http://www.w3.org/2000/svg">
<path fill-rule="evenodd" clip-rule="evenodd" d="M39.1389 19.9474C39.1389 30.4117 30.6559 38.8947 20.1915 38.8947C9.72717 38.8947 1.24414 30.4117 1.24414 19.9474C1.24414 9.48303 9.72717 1 20.1915 1C30.6559 1 39.1389 9.48303 39.1389 19.9474ZM16.8483 29C14.4157 29 12.1507 28.2889 10.2441 27.0716C12.5302 27.3407 14.8112 26.7092 16.6227 25.2947C14.7368 25.2594 13.1454 24.0198 12.5982 22.3142C13.2726 22.4428 13.9369 22.4057 14.5434 22.2405C12.4714 21.8259 11.0412 19.9671 11.0876 17.9783C11.6683 18.2996 12.3336 18.4936 13.0397 18.5155C11.1207 17.2388 10.5781 14.7146 11.7065 12.7853C13.8313 15.3822 17.0059 17.0905 20.5866 17.2695C19.959 14.5855 22.0025 12 24.7829 12C26.0229 12 27.142 12.5212 27.9285 13.3555C28.9089 13.1623 29.8314 12.8054 30.6634 12.3135C30.3418 13.3161 29.6587 14.1577 28.7697 14.6876C29.6408 14.5842 30.4709 14.3535 31.2441 14.0121C30.6667 14.8734 29.9357 15.6294 29.0941 16.2334C29.3665 22.2698 24.8477 29 16.8483 29Z" fill="#1D3154"/>
</svg>
