<svg xmlns="http://www.w3.org/2000/svg" width="30" height="50"><g fill="none" fill-rule="evenodd"><path fill="#FFF" fill-rule="nonzero" d="M19.3 13.5h-.8v-1.1a3.7 3.7 0 10-7.4 0v1.1h-.8c-.1 0-.3.1-.3.3v6.6c0 .6.5 1.1 1.1 1.1h7.4c.6 0 1.1-.5 1.1-1.1v-6.6c0-.1-.1-.3-.3-.3zM15.6 19c0 .1 0 .1-.1.2 0 .1-.1.1-.2.1h-1.1c-.1 0-.1 0-.2-.1 0-.1-.1-.1-.1-.2l.2-1.5a.9.9 0 01-.4-.8c0-.6.5-1.1 1.1-1.1.6 0 1.1.5 1.1 1.1 0 .3-.2.6-.4.8l.1 1.5zm1.4-5.5h-4.2v-1.1c0-1.2.9-2.1 2.1-2.1 1.2 0 2.1.9 2.1 2.1v1.1z"/><g transform="translate(1 1)"><path stroke="#FFF" stroke-linecap="round" stroke-linejoin="round" stroke-width="2.1" d="M.6.6h26.6v46.9H.6z"/><path stroke="#FFF" stroke-linecap="round" stroke-linejoin="round" stroke-width="2.1" d="M4.4 4.8h18.8v18.7H4.4z"/><ellipse cx="5.2" cy="30.2" fill="#FFF" fill-rule="nonzero" rx="1.9" ry="2"/></g></g></svg>