<svg xmlns="http://www.w3.org/2000/svg" width="52" height="50"><title>icon_support_portal</title><desc>Created with Sketch.</desc><g fill="none"><g><g><g><g><g><g><g id="Group" stroke="#00778C" stroke-width="2.1"><path id="Shape" d="M15.2 20.7c-1.8-.3-3.3-1.6-3.8-3.4M13.8 11.8c.7-.3 1.4-.5 2.2-.5 2.6 0 4.8 2.1 4.8 4.8 0 2.4-1.8 4.4-4.1 4.7M11.2 16c0-.1 0-.1 0-.2.1-1.2.6-2.3 1.4-3.1"/></g><g id="Group" stroke="#00778C" stroke-width="2.1"><path id="Shape" d="M27.2 6.7v9.7M27.2 18.4V26M33.3 6.7v3.7M33.3 13.9V26M39.3 6.7v12.1M39.3 20.5V26"/></g><g fill="#00778C" fill-rule="nonzero"><path d="M24.8 17.6h4.8v3.7h-4.8zM30.9 11.5h4.8v3.7h-4.8zM36.9 19.9h4.8v3.7h-4.8z"/></g><path stroke="#00778C" stroke-width="2.1" d="M46.9 1.6H4.5c-1.8 0-3.3 1.5-3.3 3.3V35c0 1.8 1.5 3.3 3.3 3.3h16.2s.7 6.6-4.9 6.6v3.3h19.7v-3.3c-5.9 0-4.9-6.6-4.9-6.6h16.3c1.8 0 3.3-1.5 3.3-3.3V4.9c0-1.8-1.5-3.3-3.3-3.3zM50.8 31H.8" stroke-linejoin="round"/></g></g></g></g></g></g></g></svg>