<svg xmlns="http://www.w3.org/2000/svg" width="24" height="53"><g fill="none" fill-rule="evenodd"><g fill="#00758D" fill-rule="nonzero"><path d="M21.7 1v.2l-.2-.1c-.1 0-.1 0-.2 0V.9c-.1 0-.1 0-.2 0-3-.3-6.1-.5-9.1-.5S5.9.6 2.9.9c-.1 0-.1 0-.2 0v.2c-.1 0-.1 0-.2 0l-.2.1V1C1 1.4.1 2.6.1 4v45c0 1.6 1.2 3 2.8 3.2 3 .4 6.3.6 9.1.6s6-.2 9.1-.6c1.6-.2 2.8-1.5 2.8-3.2V4c0-1.4-.9-2.6-2.2-3zM3.1 2.7c0-.2.2-.4.4-.5 2.8-.3 5.7-.4 8.5-.4s5.7.1 8.5.4c.2 0 .4.2.4.5v1.2c0 .2-.2.4-.4.4h-17c-.2 0-.4-.2-.4-.4V2.7zm8.2 3.1c0-.4.3-.7.7-.7h1.6c.4 0 .7.3.7.7 0 .4-.3.7-.7.7H12c-.4 0-.7-.3-.7-.7zM5.4 50.1c0 .2-.1.3-.3.3H3.4c-.2 0-.3-.1-.3-.3V50c0-.2.1-.3.3-.3h1.7c.1 0 .3.1.3.4zm9.9.8c0 .3-.2.5-.5.5H9.3c-.3 0-.5-.2-.5-.5v-1.3c0-.3.2-.5.5-.5h5.5c.3 0 .5.2.5.5v1.3zm5.7-.8c0 .2-.1.3-.3.3H19c-.2 0-.3-.1-.3-.3V50c0-.2.1-.3.3-.3h1.7c.2 0 .3.1.3.4zm1.3-4.2c0 1-.6 1.9-1.4 2.4H3.2c-.9-.4-1.4-1.3-1.4-2.4V8l.1.1c.2.5.7 1 1.3 1v34.1h17.7v-34s.1 0 .1 0c.6-.1 1.1-.5 1.3-1v-.1 37.8z"/><circle cx="12.1" cy="46.2" r="1.7"/></g><path stroke="#FFF" stroke-linejoin="round" stroke-width="1.1" d="M12.1 31.8c-1.8-.8-3.3-2-4.6-3.2-.7-.7-1.1-1.5-1.1-2.4v-5.9h.1c1.8-.4 3.7-.9 5.5-.9 1.8 0 3.7.5 5.6.9h.1v6c0 .9-.3 1.6-1.1 2.3a14.7 14.7 0 01-4.5 3.2z"/></g></svg>