<svg xmlns="http://www.w3.org/2000/svg" width="49" height="53"><title>icon_trusted_hardware_isolated_components</title><desc>Created with Sketch.</desc><g fill="none"><g><g><g><g><g><path id="Shape" stroke="#00758D" d="M24.2 51.6l-.4-.2c-6.8-3-12.8-8-17.9-12.6-3-2.7-4.5-5.9-4.5-9.5V5.6l.6-.1c7.3-1.6 14.7-3.7 22.1-3.7 7.4 0 14.9 2.1 22.3 3.7l.6.1v23.9c0 3.6-1.4 6.6-4.3 9.3-5.3 4.9-11.4 10-18.2 12.7l-.3.1z"/><g stroke="#00758C" stroke-linecap="round"><g id="Shape"><path d="M39.2 17.6h-5.7M39.2 21h-5.7M39.2 24.4h-5.7M39.2 27.8h-5.7M39.2 31.3h-5.7M15.3 17.6H9.6M15.3 21H9.6M15.3 24.4H9.6M15.3 27.8H9.6M15.3 31.3H9.6"/></g><path d="M17.5 9.6v5.7M21 9.6v5.7M24.4 9.6v5.7M27.8 9.6v5.7M31.2 9.6v5.7M17.5 33.5v5.7M21 33.5v5.7M24.4 33.5v5.7M27.8 33.5v5.7M31.2 33.5v5.7"/><path d="M13.9 13.9h21v21h-21z"/></g></g></g></g></g></g></g></svg>