<?xml version="1.0" encoding="UTF-8" standalone="no" ?>
<!DOCTYPE svg PUBLIC "-//W3C//DTD SVG 1.1//EN" "http://www.w3.org/Graphics/SVG/1.1/DTD/svg11.dtd">
<svg xmlns="http://www.w3.org/2000/svg" xmlns:xlink="http://www.w3.org/1999/xlink" version="1.1" width="174" height="165" viewBox="0 0 58 55" xml:space="preserve">
<desc>Created with Fabric.js 3.6.3</desc>
<defs>
</defs>
<g transform="matrix(1 0 0 1 -23.42 -25.12)"  >
<path style="stroke: rgb(0,119,139); stroke-width: 3.1; stroke-dasharray: none; stroke-linecap: butt; stroke-dashoffset: 0; stroke-linejoin: round; stroke-miterlimit: 10; fill: none; fill-rule: nonzero; opacity: 1;"  transform=" translate(-37.4, -37.4)" d="M 55 30.2 c -0.6 -3.6 -2.4 -6.8 -5 -9.3 c -3 -2.7 -6.9 -4.2 -10.9 -4.2 c -3.1 0 -6.2 0.9 -8.8 2.6 c -2.2 1.4 -4 3.3 -5.3 5.5 c -0.6 -0.1 -1.1 -0.2 -1.7 -0.2 c -4.9 0 -8.9 4 -8.9 8.9 c 0 0.6 0.1 1.2 0.2 1.8 c -3.2 2.3 -5.1 6 -5.1 9.9 c 0 3.2 1.2 6.3 3.3 8.7 c 2.2 2.5 5.2 4 8.3 4.2 h 10 c 0 0 0.1 0 0.1 0 h 21.2 c 3.5 -0.3 6.8 -1.9 9.2 -4.6 c 2.4 -2.7 3.7 -6.1 3.7 -9.7 C 65.4 37.6 61 31.8 55 30.2 z" stroke-linecap="round" />
</g>
<g transform="matrix(0.96 0 0 1 29 28.75)"  >
<path style="stroke: rgb(0,119,139); stroke-width: 3.0999999999999996; stroke-dasharray: none; stroke-linecap: butt; stroke-dashoffset: 0; stroke-linejoin: round; stroke-miterlimit: 10; fill: none; fill-rule: nonzero; opacity: 1;" vector-effect="non-scaling-stroke"  transform=" translate(-37.4, -37.4)" d="M 55 30.2 c -0.6 -3.6 -2.4 -6.8 -5 -9.3 c -3 -2.7 -6.9 -4.2 -10.9 -4.2 c -3.1 0 -6.2 0.9 -8.8 2.6 c -2.2 1.4 -4 3.3 -5.3 5.5 c -0.6 -0.1 -1.1 -0.2 -1.7 -0.2 c -4.9 0 -8.9 4 -8.9 8.9 c 0 0.6 0.1 1.2 0.2 1.8 c -3.2 2.3 -5.1 6 -5.1 9.9 c 0 3.2 1.2 6.3 3.3 8.7 c 2.2 2.5 5.2 4 8.3 4.2 h 10 c 0 0 0.1 0 0.1 0 h 21.2 c 3.5 -0.3 6.8 -1.9 9.2 -4.6 c 2.4 -2.7 3.7 -6.1 3.7 -9.7 C 65.4 37.6 61 31.8 55 30.2 z" stroke-linecap="round" />
</g>
</svg>