<svg xmlns="http://www.w3.org/2000/svg" width="58" height="44"><g fill="none" fill-rule="evenodd" stroke-linejoin="round" stroke-width="2.1"><path stroke="#00758D" d="M46.6 14.6c-.6-3.6-2.4-6.8-5-9.3a16.17 16.17 0 00-19.7-1.6c-2.2 1.4-4 3.3-5.3 5.5-.6-.1-1.1-.2-1.7-.2C10 9 6 13 6 17.9c0 .6.1 1.2.2 1.8-3.2 2.3-5.1 6-5.1 9.9 0 3.2 1.2 6.3 3.3 8.7 2.2 2.5 5.2 4 8.3 4.2h10s.1 0 .1 0H44c3.5-.3 6.8-1.9 9.2-4.6 2.4-2.7 3.7-6.1 3.7-9.7.1-6.3-4.3-12-10.3-13.6z"/><path stroke="#00778C" d="M29.6 33.4l-.1-.1c-2.3-1-4.4-2.7-6.1-4.3-1-.9-1.5-2-1.5-3.2v-8.1h.2c2.5-.5 5-1.3 7.6-1.3 2.5 0 5.1.7 7.6 1.3h.2v8.2c0 1.2-.5 2.3-1.5 3.2-1.8 1.7-3.9 3.4-6.2 4.3h-.2z"/></g></svg>