<svg xmlns="http://www.w3.org/2000/svg" width="49" height="53"><title>icon_anti-surveillance_audio_masking</title><desc>Created with Sketch.</desc><g fill="none"><g stroke="#00758D"><g><g><g><g><g><g id="Shape"><path d="M33.1 27.8c0 4.8-3.9 8.6-8.6 8.6-4.7 0-8.6-3.9-8.6-8.6M24.4 42.1v-5.7"/></g><path id="Shape" d="M29.5 16.6c0-2.8-2.3-5-5-5-2.8 0-5 2.3-5 5v10c0 2.8 2.3 5 5 5s5-2.3 5-5v-10z"/></g><path d="M24.4 51.3l-.4-.2c-6.8-3-12.8-8-17.9-12.6-3-2.7-4.5-5.9-4.5-9.5V5.3l.6-.1c7.3-1.6 14.7-3.7 22.1-3.7 7.4 0 14.9 2.1 22.3 3.7l.6.1v23.9c0 3.6-1.4 6.6-4.3 9.3-5.3 4.9-11.4 10-18.2 12.7l-.3.1z"/></g></g></g></g></g></g></svg>