<svg xmlns="http://www.w3.org/2000/svg" width="25" height="53"><title>icon_support_safecase</title><desc>Created with Sketch.</desc><g fill="none"><g fill="#00758D" fill-rule="nonzero"><g><g><g><g><g><g transform="translate(0 0)"><path d="M22.1 1.3v.2l-.2-.1c-.1 0-.1 0-.2 0v-.2c-.1 0-.1 0-.2 0-3-.3-6-.5-9.1-.5-3 0-6.1.2-9.1.5-.1 0-.1 0-.2 0v.2c-.1 0-.1 0-.2 0l-.2.1v-.2C1.4 1.7.5 2.9.5 4.2V49c0 1.6 1.2 2.9 2.8 3.1 3 .4 6.2.6 9 .6s6-.2 9-.6c1.6-.2 2.8-1.5 2.8-3.1V4.3c.2-1.4-.7-2.6-2-3zM3.6 3c0-.2.2-.4.4-.5 2.8-.3 5.6-.4 8.5-.4 2.8 0 5.7.1 8.5.4.2 0 .4.2.4.5v1.2c0 .2-.2.4-.4.4H4c-.2 0-.4-.2-.4-.4V3zm8.1 3.1c0-.4.3-.7.7-.7H14c.4 0 .7.3.7.7 0 .4-.3.7-.7.7h-1.6c-.4 0-.7-.3-.7-.7zm-5.9 44c0 .2-.1.3-.3.3H3.8c-.2 0-.3-.1-.3-.3V50c0-.2.1-.3.3-.3h1.7c.2 0 .3.2.3.4zm9.9.8c0 .3-.2.5-.5.5H9.8c-.3 0-.5-.2-.5-.5v-1.3c0-.3.2-.5.5-.5h5.4c.3 0 .5.2.5.5v1.3zm5.7-.8c0 .2-.1.3-.3.3h-1.7c-.2 0-.3-.1-.3-.3V50c0-.2.1-.3.3-.3h1.7c.2 0 .3.2.3.4zm1.3-4.2c0 1-.6 1.9-1.4 2.4H3.7c-.9-.4-1.4-1.3-1.4-2.4V8.3v.1c.2.5.7 1 1.3 1v33.9h17.6V9.5s.1 0 .1 0c.6-.1 1.1-.5 1.3-1v-.1 37.5h.1z"/><circle cx="12.5" cy="46.3" r="1.7"/></g></g></g></g></g></g></g></g></svg>