<svg version="1.1" id="ICONS" xmlns="http://www.w3.org/2000/svg" xmlns:xlink="http://www.w3.org/1999/xlink" x="0px" y="0px" style="enable-background:new 0 0 75 75;" xml:space="preserve" viewBox="13.45 11.43 48.1 52.12"> <style type="text/css"> 	.st0{fill:#FFFFFF;stroke:#00778B;stroke-linejoin:round;stroke-miterlimit:10;} 	.st1{fill:#00778B;} 	.st2{fill:none;stroke:#00778B;stroke-width:2.1;stroke-miterlimit:10;} 	.st3{fill:none;stroke:#00778B;stroke-width:2.1;stroke-linejoin:round;stroke-miterlimit:10;} 	.st4{fill:none;stroke:#00778B;stroke-width:2;stroke-linecap:round;} 	.st5{fill:none;stroke:#00778B;stroke-width:2;} 	.st6{fill:none;stroke:#00778B;stroke-width:2;stroke-linecap:round;stroke-linejoin:round;} 	.st7{fill:#00788C;} 	.st8{fill:none;stroke:#00778B;stroke-width:2;stroke-miterlimit:10;} 	.st9{fill:none;stroke:#00778B;stroke-width:2.1;stroke-linecap:round;stroke-linejoin:round;stroke-miterlimit:10;} 	.st10{fill:#FFFFFF;} 	.st11{fill:none;stroke:#00778B;stroke-width:2.1;stroke-linecap:round;stroke-miterlimit:10;} 	.st12{fill:none;stroke:#00778B;stroke-width:1.25;stroke-linecap:round;} 	.st13{fill:none;stroke:#00778B;stroke-width:1.25;} 	.st14{fill:none;stroke:#00778B;stroke-width:1.25;stroke-linecap:round;stroke-linejoin:round;} 	.st15{fill:none;stroke:#00778B;stroke-width:1.25;stroke-linejoin:round;stroke-miterlimit:10;} 	.st16{fill:none;stroke:#00778B;stroke-width:1.25;stroke-linecap:round;stroke-linejoin:round;stroke-miterlimit:10;} 	.st17{fill:#FFFFFF;stroke:#00778B;stroke-width:2.1;stroke-linejoin:round;stroke-miterlimit:10;} 	.st18{fill:none;stroke:#00778B;stroke-width:2;stroke-linecap:round;stroke-miterlimit:10;stroke-dasharray:3.5;} 	.st19{enable-background:new    ;} 	.st20{clip-path:url(#SVGID_00000167397531971689809900000008118392913962374529_);enable-background:new    ;} 	.st21{fill:#FFFFFF;stroke:#00778B;stroke-width:2.1;stroke-miterlimit:10;} 	.st22{clip-path:url(#SVGID_00000040563561260176533790000009260189399964707490_);enable-background:new    ;} 	.st23{clip-path:url(#SVGID_00000085955630183051650960000010553404937300279704_);enable-background:new    ;} 	.st24{fill:#008599;} 	.st25{fill:none;stroke:#00778B;stroke-width:1.5;stroke-linecap:round;stroke-linejoin:round;stroke-miterlimit:10;} 	.st26{fill:none;stroke:#00778B;stroke-width:1.25;stroke-linecap:round;stroke-miterlimit:10;} </style> <g> 	<g class="st19"> 		<g> 			<polygon class="st3" points="60.5,27.8 37.6,41.1 14.6,27.8 37.5,14.5 			"></polygon> 		</g> 		<g> 			<polygon class="st3" points="60.5,27.8 60.4,49.2 37.5,62.5 37.6,41.1 			"></polygon> 		</g> 		<g> 			<polygon class="st3" points="37.6,41.1 37.5,62.5 14.5,49.2 14.6,27.8 			"></polygon> 		</g> 	</g> </g> <g> 	<g class="st19"> 		<g class="st19"> 			<defs> 				<path id="SVGID_1_" class="st19" d="M42.2,15.2l0,4.7c0,0.7-0.4,1.4-1.3,1.9c-1.8,1-4.7,1-6.6,0c-0.9-0.5-1.4-1.2-1.4-1.9l0-4.7 					c0,0.7,0.5,1.4,1.4,1.9c1.8,1,4.8,1.1,6.6,0C41.8,16.5,42.2,15.9,42.2,15.2z"></path> 			</defs> 			<use xlink:href="#SVGID_1_" style="overflow:visible;fill:#FFFFFF;"></use> 			<clipPath id="SVGID_00000010280076351883372930000009593379203571861891_"> 				<use xlink:href="#SVGID_1_" style="overflow:visible;"></use> 			</clipPath> 			<g style="clip-path:url(#SVGID_00000010280076351883372930000009593379203571861891_);enable-background:new    ;"> 				<path class="st21" d="M42.2,15.2l0,4.7c0,0,0,0,0,0L42.2,15.2C42.2,15.2,42.2,15.2,42.2,15.2"></path> 			</g> 			<use xlink:href="#SVGID_1_" style="overflow:visible;fill:none;stroke:#00778B;stroke-width:2.1;stroke-miterlimit:10;"></use> 		</g> 		<g> 			<path class="st21" d="M40.8,13.3c1.8,1,1.8,2.7,0,3.8c-1.8,1-4.7,1-6.6,0c-1.8-1-1.8-2.7,0-3.8C36.1,12.2,39,12.2,40.8,13.3z"></path> 		</g> 	</g> 	<g class="st19"> 		<g class="st19"> 			<defs> 				<path id="SVGID_00000003785505309255321290000013741580390445791915_" class="st19" d="M53.5,21.7l0,4.7c0,0.7-0.5,1.4-1.3,1.9 					c-1.8,1-4.7,1-6.5,0c-0.9-0.5-1.4-1.2-1.4-1.9l0-4.7c0,0.7,0.5,1.4,1.4,1.9c1.8,1,4.7,1,6.5,0C53.1,23.1,53.5,22.4,53.5,21.7z"></path> 			</defs> 			<use xlink:href="#SVGID_00000003785505309255321290000013741580390445791915_" style="overflow:visible;fill:#FFFFFF;"></use> 			<clipPath id="SVGID_00000024690749065288883770000006745666629753481619_"> 				<use xlink:href="#SVGID_00000003785505309255321290000013741580390445791915_" style="overflow:visible;"></use> 			</clipPath> 			 				<use xlink:href="#SVGID_00000003785505309255321290000013741580390445791915_" style="overflow:visible;fill:none;stroke:#00778B;stroke-width:2.1;stroke-miterlimit:10;"></use> 		</g> 		<g> 			 				<ellipse transform="matrix(2.837932e-03 -1 1 2.837932e-03 27.0578 70.5391)" class="st21" cx="48.9" cy="21.7" rx="2.7" ry="4.6"></ellipse> 		</g> 	</g> 	<g class="st19"> 		<g class="st19"> 			<defs> 				<path id="SVGID_00000029039155070764636200000009115119652086010788_" class="st19" d="M31,21.7l0,4.7c0,0.7-0.4,1.4-1.3,1.9 					c-1.8,1-4.7,1-6.6,0c-0.9-0.5-1.4-1.2-1.4-1.9l0-4.7c0,0.7,0.5,1.4,1.4,1.9c1.8,1,4.8,1,6.6,0C30.5,23.1,30.9,22.4,31,21.7z"></path> 			</defs> 			<use xlink:href="#SVGID_00000029039155070764636200000009115119652086010788_" style="overflow:visible;fill:#FFFFFF;"></use> 			<clipPath id="SVGID_00000007415798521822251490000009518323888584981143_"> 				<use xlink:href="#SVGID_00000029039155070764636200000009115119652086010788_" style="overflow:visible;"></use> 			</clipPath> 			<g style="clip-path:url(#SVGID_00000007415798521822251490000009518323888584981143_);enable-background:new    ;"> 				<path class="st21" d="M31,21.7l0,4.7c0,0,0,0,0,0L31,21.7C31,21.7,31,21.7,31,21.7"></path> 			</g> 			 				<use xlink:href="#SVGID_00000029039155070764636200000009115119652086010788_" style="overflow:visible;fill:none;stroke:#00778B;stroke-width:2.1;stroke-miterlimit:10;"></use> 		</g> 		<g> 			<path class="st21" d="M29.6,19.8c1.8,1,1.8,2.8,0,3.8c-1.8,1-4.7,1-6.6,0c-1.8-1-1.8-2.7,0-3.8C24.8,18.8,27.8,18.8,29.6,19.8z"></path> 		</g> 	</g> 	<g class="st19"> 		<g class="st19"> 			<defs> 				<path id="SVGID_00000177455278534864188840000009740762115002568870_" class="st19" d="M42.3,28.3l0,4.7c0,0.7-0.5,1.4-1.3,1.9 					c-1.8,1-4.7,1.1-6.6,0c-0.9-0.5-1.4-1.2-1.4-1.9l0-4.7c0,0.7,0.5,1.4,1.4,1.9c1.8,1,4.8,1,6.6,0C41.8,29.6,42.3,28.9,42.3,28.3z 					"></path> 			</defs> 			<use xlink:href="#SVGID_00000177455278534864188840000009740762115002568870_" style="overflow:visible;fill:#FFFFFF;"></use> 			<clipPath id="SVGID_00000137833511663182301420000000625838015442002069_"> 				<use xlink:href="#SVGID_00000177455278534864188840000009740762115002568870_" style="overflow:visible;"></use> 			</clipPath> 			<g style="clip-path:url(#SVGID_00000137833511663182301420000000625838015442002069_);enable-background:new    ;"> 				<path class="st21" d="M42.3,28.3l0,4.7c0,0,0,0,0,0L42.3,28.3C42.3,28.3,42.3,28.3,42.3,28.3"></path> 			</g> 			 				<use xlink:href="#SVGID_00000177455278534864188840000009740762115002568870_" style="overflow:visible;fill:none;stroke:#00778B;stroke-width:2.1;stroke-miterlimit:10;"></use> 		</g> 		<g> 			<path class="st21" d="M40.9,26.3c1.8,1,1.8,2.7,0,3.8c-1.8,1-4.7,1.1-6.6,0s-1.8-2.7,0-3.8C36.2,25.3,39.1,25.3,40.9,26.3z"></path> 		</g> 	</g> </g> </svg>