<svg xmlns="http://www.w3.org/2000/svg" width="58" height="44"><title>icon_cloud-integrated</title><desc>Created with Sketch.</desc><g fill="none"><g stroke="#00758D" stroke-width="2.1"><g><g><g><g><path d="M46.1 14.9c-.6-3.5-2.3-6.7-5-9.2-3-2.7-6.8-4.2-10.8-4.2-3.1 0-6.1.9-8.7 2.6-2.2 1.4-3.9 3.3-5.2 5.5-.5-.1-1.1-.2-1.7-.2-4.8 0-8.8 3.9-8.8 8.8 0 .6.1 1.2.2 1.8-3.1 2.3-5 6-5 9.9 0 3.2 1.2 6.2 3.3 8.7 2.2 2.5 5.1 4 8.2 4.1h9.9s.1 0 .1 0h21.1c3.5-.3 6.7-1.8 9.2-4.5 2.4-2.6 3.7-6 3.7-9.6-.1-6.5-4.5-12.2-10.5-13.7z"/></g></g></g></g></g></g></svg>