<?xml version="1.0" encoding="utf-8"?>
<!-- Generator: Adobe Illustrator 26.0.2, SVG Export Plug-In . SVG Version: 6.00 Build 0)  -->
<svg version="1.1" id="ICONS" xmlns="http://www.w3.org/2000/svg" xmlns:xlink="http://www.w3.org/1999/xlink" x="0px" y="0px"
	 viewBox="0 0 75 75" style="enable-background:new 0 0 75 75;" xml:space="preserve">
<style type="text/css">
	.st0{fill:#FFFFFF;stroke:#00778B;stroke-linejoin:round;stroke-miterlimit:10;}
	.st1{fill:#00778B;}
	.st2{fill:none;stroke:#00778B;stroke-width:2.1;stroke-miterlimit:10;}
	.st3{fill:none;stroke:#00778B;stroke-width:2.1;stroke-linejoin:round;stroke-miterlimit:10;}
	.st4{fill:none;stroke:#00778B;stroke-width:2;stroke-linecap:round;}
	.st5{fill:none;stroke:#00778B;stroke-width:2;}
	.st6{fill:none;stroke:#00778B;stroke-width:2;stroke-linecap:round;stroke-linejoin:round;}
	.st7{fill:#00788C;}
	.st8{fill:none;stroke:#00778B;stroke-width:2;stroke-miterlimit:10;}
	.st9{fill:none;stroke:#00778B;stroke-width:2.1;stroke-linecap:round;stroke-linejoin:round;stroke-miterlimit:10;}
	.st10{fill:#FFFFFF;}
	.st11{fill:none;stroke:#00778B;stroke-width:2.1;stroke-linecap:round;stroke-miterlimit:10;}
	.st12{fill:none;stroke:#00778B;stroke-width:1.25;stroke-linecap:round;}
	.st13{fill:none;stroke:#00778B;stroke-width:1.25;}
	.st14{fill:none;stroke:#00778B;stroke-width:1.25;stroke-linecap:round;stroke-linejoin:round;}
	.st15{fill:none;stroke:#00778B;stroke-width:1.25;stroke-linejoin:round;stroke-miterlimit:10;}
	.st16{fill:none;stroke:#00778B;stroke-width:1.25;stroke-linecap:round;stroke-linejoin:round;stroke-miterlimit:10;}
	.st17{fill:#FFFFFF;stroke:#00778B;stroke-width:2.1;stroke-linejoin:round;stroke-miterlimit:10;}
	.st18{fill:none;stroke:#00778B;stroke-width:2;stroke-linecap:round;stroke-miterlimit:10;stroke-dasharray:3.5;}
	.st19{enable-background:new    ;}
	.st20{clip-path:url(#SVGID_00000011033292404061224440000013139562550851246504_);enable-background:new    ;}
	.st21{fill:#FFFFFF;stroke:#00778B;stroke-width:2.1;stroke-miterlimit:10;}
	.st22{clip-path:url(#SVGID_00000091715981935640666220000013481133252508506799_);enable-background:new    ;}
	.st23{clip-path:url(#SVGID_00000163774714411038463090000016648482349271006620_);enable-background:new    ;}
	.st24{fill:#008599;}
	.st25{fill:none;stroke:#00778B;stroke-width:1.5;stroke-linecap:round;stroke-linejoin:round;stroke-miterlimit:10;}
	.st26{fill:none;stroke:#00778B;stroke-width:1.25;stroke-linecap:round;stroke-miterlimit:10;}
</style>
<g>
	<path class="st3" d="M37.5,62.5l-0.4-0.2c-6.8-3.1-12.9-8.1-18-12.6c-3-2.7-4.5-5.9-4.5-9.5V16.3l0.6-0.1
		c7.3-1.6,14.8-3.7,22.2-3.7c7.4,0,14.9,2.1,22.4,3.7l0.6,0.1v24c0,3.6-1.4,6.6-4.3,9.3c-5.3,5-11.5,10-18.3,12.7L37.5,62.5z"/>
	<g>
		<path class="st7" d="M37.5,47.6c-0.6,0-1.2,0.5-1.2,1.2c0,0.6,0.5,1.2,1.2,1.2s1.2-0.5,1.2-1.2C38.6,48.1,38.1,47.6,37.5,47.6"/>
		<path class="st3" d="M44,51.6H30.9c-0.8,0-1.4-0.6-1.4-1.4V20.8c0-0.8,0.6-1.4,1.4-1.4H44c0.8,0,1.4,0.6,1.4,1.4v29.4
			C45.4,51,44.8,51.6,44,51.6z"/>
		<line class="st3" x1="30" y1="22.9" x2="45" y2="22.9"/>
		<line class="st3" x1="30" y1="46" x2="45" y2="46"/>
	</g>
</g>
</svg>
