<svg version="1.1" id="ICONS" xmlns="http://www.w3.org/2000/svg" xmlns:xlink="http://www.w3.org/1999/xlink" x="0px" y="0px" style="enable-background:new 0 0 75 75;" xml:space="preserve" viewBox="13.65 11.55 47.7 51.9"> <style type="text/css"> 	.st0{fill:none;stroke:#00778B;stroke-width:2.1;stroke-linejoin:round;stroke-miterlimit:10;} </style> <path class="st0" d="M37.5,62.4l-0.4-0.2c-6.8-3-12.8-8-17.9-12.6c-3-2.7-4.5-5.9-4.5-9.5V16.4l0.6-0.1c7.3-1.6,14.7-3.7,22.1-3.7 	c7.4,0,14.9,2.1,22.3,3.7l0.6,0.1v23.9c0,3.6-1.4,6.6-4.3,9.3c-5.3,4.9-11.4,10-18.2,12.7L37.5,62.4z"></path> <path class="st0" d="M49.5,30.4c0-0.3-0.1-0.5-0.3-0.7L37.8,21c-0.3-0.3-0.7-0.3-1.1,0l-10.9,8.7c-0.2,0.2-0.3,0.4-0.3,0.7v15.8 	c0,0.3,0.1,0.5,0.2,0.6c0.2,0.2,0.4,0.2,0.6,0.2h6.5c0.3,0,0.5-0.1,0.6-0.2c0.2-0.2,0.2-0.4,0.2-0.6v-9.7h7.5v9.7 	c0,0.3,0.1,0.5,0.2,0.6c0.2,0.2,0.4,0.2,0.6,0.2h6.5c0.3,0,0.5-0.1,0.6-0.2c0.2-0.2,0.2-0.4,0.2-0.6V30.4z"></path> </svg>