<?xml version="1.0" encoding="utf-8"?>
<!-- Generator: Adobe Illustrator 26.0.2, SVG Export Plug-In . SVG Version: 6.00 Build 0)  -->
<svg version="1.1" id="ICONS" xmlns="http://www.w3.org/2000/svg" xmlns:xlink="http://www.w3.org/1999/xlink" x="0px" y="0px"
	 viewBox="0 0 75 75" style="enable-background:new 0 0 75 75;" xml:space="preserve">
<style type="text/css">
	.st0{fill:#FFFFFF;stroke:#00778B;stroke-linejoin:round;stroke-miterlimit:10;}
	.st1{fill:#00778B;}
	.st2{fill:#FF0000;}
	.st3{font-family:'Helvetica';}
	.st4{font-size:20px;}
</style>
<path class="st0" d="M37.5,62.4l-0.4-0.2c-6.8-3-12.8-8-17.9-12.6c-3-2.7-4.5-5.9-4.5-9.5V16.4l0.6-0.1c7.3-1.6,14.7-3.7,22.1-3.7
	s14.9,2.1,22.3,3.7l0.6,0.1v23.9c0,3.6-1.4,6.6-4.3,9.3c-5.3,4.9-11.4,10-18.2,12.7L37.5,62.4z"/>
<g>
	<path class="st1" d="M29.2,24H47v5.3H35.1v4h10.7v5.1H35.1v8.2h-6V24H29.2z"/>
</g>
<g>
	<path class="st1" d="M53.7,55.5h-1V55h2.4v0.5h-1V58h-0.5L53.7,55.5L53.7,55.5z"/>
	<path class="st1" d="M55.9,55h0.5l0.9,1.4l0.9-1.4h0.5v3h-0.5v-2.2l-1,1.4l0,0l-1-1.4V58h-0.5v-3H55.9z"/>
</g>
<text transform="matrix(0.9848 -0.1736 0.1736 0.9848 17.9108 44.7885)" class="st2 st3 st4">FPO</text>
</svg>
