<svg xmlns="http://www.w3.org/2000/svg" width="60" height="80"><g fill="none" fill-rule="evenodd"><path fill="#FFF" fill-rule="nonzero" d="M29.8 59.6A29.82 29.82 0 010 29.8c0-8.54 3.64-16.65 10.07-22.25l1.82 2.1A27.17 27.17 0 002.8 29.8c0 14.83 12.04 27 27 27 14.98 0 27-12.03 27-27s-12.02-27-27-27V0a29.91 29.91 0 0129.8 29.8c0 16.5-13.28 29.8-29.8 29.8z"/><g stroke="#FFF" stroke-linecap="round" stroke-width="2.1"><path d="M22.45 73.6c-12.06-.98-20.93-4.44-20.93-8.74 0-2.35 2.78-4.43 7.35-5.96"/><path stroke-linejoin="round" d="M40.2 68.33l-4.16 5.26c12.33-.97 21.34-4.43 21.34-8.73 0-2.21-2.5-4.15-6.52-5.68"/><path d="M39.92 78.03l-3.88-4.44"/></g><g fill="#FFF" fill-rule="nonzero"><path d="M11.36 22.6c0-2.36 1.8-4.17 4.16-4.17 2.36 0 4.16 1.8 4.16 4.16v13.86c0 2.22-1.8 4.16-4.16 4.16a4.08 4.08 0 01-4.16-4.16v-1.8l1.67-.14v1.94c0 1.39 1.1 2.5 2.5 2.5 1.38 0 2.49-1.11 2.49-2.5v-5.54c-.7.55-1.53.83-2.5.83a4.08 4.08 0 01-4.16-4.16V22.6zm1.67 4.98c0 1.39 1.1 2.5 2.5 2.5 1.38 0 2.49-1.11 2.49-2.5V22.6c0-1.38-1.11-2.5-2.5-2.5-1.38 0-2.5 1.12-2.5 2.5v5z"/><path d="M15.52 40.89a4.38 4.38 0 01-4.43-4.44v-2.08l2.35-.28v2.36c0 1.25.97 2.08 2.08 2.08s2.08-.97 2.08-2.08V31.6c-.7.28-1.38.55-2.08.55a4.38 4.38 0 01-4.43-4.43v-4.99c0-2.5 1.94-4.44 4.43-4.44 2.5 0 4.44 1.95 4.44 4.44v13.86c0 2.36-1.94 4.3-4.44 4.3zm-3.74-5.96v1.52a3.73 3.73 0 003.74 3.74 3.73 3.73 0 003.74-3.74V22.6a3.73 3.73 0 00-3.74-3.74 3.73 3.73 0 00-3.74 3.74v5a3.73 3.73 0 003.74 3.73c.83 0 1.67-.27 2.22-.69l.55-.42v6.1a2.78 2.78 0 01-2.77 2.77 2.78 2.78 0 01-2.77-2.77V34.8l-.97.14zm3.74-4.44a2.78 2.78 0 01-2.77-2.77v-4.99a2.78 2.78 0 012.77-2.77 2.78 2.78 0 012.77 2.77v4.99a2.78 2.78 0 01-2.77 2.77zm0-9.98c-1.24 0-2.08.97-2.08 2.08v5c0 1.24.97 2.07 2.08 2.07s2.08-.97 2.08-2.08V22.6c0-1.1-.97-2.08-2.08-2.08zM22.31 22.6c0-2.36 1.8-4.17 4.16-4.17 2.36 0 4.16 1.8 4.16 4.16v3.33c0 1.38-.97 2.9-1.94 3.32.97.42 1.94 1.94 1.94 3.33v3.88c0 2.22-1.8 4.16-4.16 4.16a4.08 4.08 0 01-4.16-4.16v-3.88c0-1.39.97-2.91 1.94-3.33-.97-.41-1.94-1.94-1.94-3.32v-3.33zm1.67 3.32c0 1.38 1.1 2.5 2.5 2.5 1.38 0 2.49-1.12 2.49-2.5v-3.33c0-1.38-1.11-2.5-2.5-2.5-1.38 0-2.5 1.12-2.5 2.5v3.33zm0 10.53c0 1.39 1.1 2.5 2.5 2.5 1.38 0 2.49-1.11 2.49-2.5v-3.88c0-1.39-1.11-2.5-2.5-2.5-1.38 0-2.5 1.11-2.5 2.5v3.88z"/><path d="M26.47 40.89a4.38 4.38 0 01-4.43-4.44v-3.88c0-1.25.69-2.63 1.66-3.33a4.34 4.34 0 01-1.66-3.32v-3.33c0-2.5 1.94-4.43 4.43-4.43 2.5 0 4.44 1.94 4.44 4.43v3.33c0 1.24-.7 2.63-1.67 3.32.97.7 1.67 2.08 1.67 3.33v3.88c.14 2.5-1.94 4.44-4.44 4.44zm0-22.04a3.73 3.73 0 00-3.74 3.74v3.33c0 1.24.83 2.63 1.8 3.05l.7.27-.7.28c-.97.42-1.8 1.8-1.8 3.05v3.88a3.73 3.73 0 003.74 3.74 3.73 3.73 0 003.74-3.74v-3.88c0-1.1-.83-2.63-1.8-3.05l-.7-.28.7-.27c.97-.42 1.8-1.8 1.8-3.05v-3.33c.14-2.08-1.66-3.74-3.74-3.74zm0 20.37a2.78 2.78 0 01-2.77-2.77v-3.88a2.78 2.78 0 012.77-2.77 2.78 2.78 0 012.77 2.77v3.88c.14 1.53-1.24 2.77-2.77 2.77zm0-8.87c-1.25 0-2.08.97-2.08 2.08v3.88c0 1.25.97 2.08 2.08 2.08s2.08-.97 2.08-2.08v-3.88c.14-1.1-.83-2.08-2.08-2.08zm0-1.66a2.78 2.78 0 01-2.77-2.77v-3.33a2.78 2.78 0 012.77-2.77 2.78 2.78 0 012.77 2.77v3.33c.14 1.52-1.24 2.77-2.77 2.77zm0-8.18c-1.25 0-2.08.97-2.08 2.08v3.33c0 1.24.97 2.08 2.08 2.08s2.08-.97 2.08-2.08v-3.33c.14-1.1-.83-2.08-2.08-2.08z"/><g><path d="M32.85 21.34a2.63 2.63 0 115.26 0v5.69a2.63 2.63 0 11-5.26 0v-5.69zm12.89-2.5l1.24.7L35.06 40.2l-1.24-.69 11.92-20.65zm-9.15 2.5c0-.69-.55-1.1-1.1-1.1-.56 0-1.12.55-1.12 1.1v5.69c0 .69.56 1.1 1.11 1.1.56 0 1.1-.55 1.1-1.1v-5.69zm6.1 10.81a2.63 2.63 0 115.26 0v5.69a2.63 2.63 0 11-5.26 0v-5.69zm3.74 0c0-.69-.55-1.1-1.1-1.1-.7 0-1.12.55-1.12 1.1v5.69c0 .69.56 1.1 1.11 1.1.7 0 1.11-.55 1.11-1.1v-5.69z"/><path d="M45.18 40.75a2.93 2.93 0 01-2.9-2.91v-5.69a2.93 2.93 0 012.9-2.9 2.93 2.93 0 012.91 2.9v5.69c.14 1.66-1.24 2.9-2.9 2.9zm0-10.81c-1.24 0-2.22.97-2.22 2.21v5.69c0 1.24.98 2.21 2.22 2.21 1.25 0 2.22-.97 2.22-2.21v-5.69c.14-1.24-.83-2.21-2.22-2.21zm-10.12 10.8l-1.8-1.1L45.6 18.29l1.8 1.11-12.34 21.35zm-.83-1.38l.7.42 11.64-20.1-.7-.42-11.64 20.1zm10.95 0c-.83 0-1.52-.7-1.52-1.52v-5.69c0-.83.7-1.52 1.52-1.52.83 0 1.53.7 1.53 1.52v5.69c0 .83-.7 1.52-1.53 1.52zm0-8.04a.9.9 0 00-.83.83v5.69c0 .41.42.83.83.83a.9.9 0 00.83-.83v-5.69c.14-.41-.27-.83-.83-.83zm-9.7-1.52a2.93 2.93 0 01-2.91-2.91V21.2a2.93 2.93 0 012.91-2.92 3.02 3.02 0 012.91 2.92v5.68a2.93 2.93 0 01-2.9 2.9zm0-10.81c-1.25 0-2.22.97-2.22 2.22v5.68c0 1.25.97 2.22 2.22 2.22 1.25 0 2.22-.97 2.22-2.22V21.2c0-1.11-.97-2.22-2.22-2.22zm0 9.42c-.83 0-1.52-.7-1.52-1.52V21.2c0-.84.69-1.53 1.52-1.53.83 0 1.53.7 1.53 1.53v5.68c0 .83-.7 1.52-1.53 1.52zm0-7.9a.9.9 0 00-.83.83v5.69c0 .41.41.83.83.83a.9.9 0 00.83-.83v-5.69c0-.55-.41-.83-.83-.83z"/></g></g></g></svg>