<svg xmlns="http://www.w3.org/2000/svg" viewBox="0 0 90.99 98.93"><defs><style>.cls-1{fill:#efa348;}.cls-2,.cls-3{fill:none;stroke:#000;}.cls-2{stroke-linecap:round;stroke-width:8px;}.cls-3{stroke-width:7px;}</style></defs><title>Asset 2</title><g id="Layer_2" data-name="Layer 2"><g id="Layer_1-2" data-name="Layer 1"><g id="Pages"><g id="Home_Privacy-Guard" data-name="Home/Privacy-Guard"><g id="Protection-Badges"><g id="Group-2"><g id="icon_microphone" data-name="icon microphone"><path id="Fill-1" class="cls-1" d="M45.46,98.93l-.71-.32c-13.55-6-25.59-15.94-35.78-25C3,68.35,0,62,0,54.78V7.58l1.17-.25C15.71,4.19,30.54,0,45.25,0S75,4.19,89.81,7.33L91,7.58V55.09c0,7.1-2.77,13.11-8.47,18.41C72,83.29,59.73,93.25,46.17,98.64l-.71.29"/><path id="Stroke-4" class="cls-2" d="M59,43.85a13.86,13.86,0,0,1-27.72,0"/><path id="Fill-6" d="M53.25,27.73h0a8.08,8.08,0,0,0-16.16,0v16.1a8.08,8.08,0,0,0,16.16,0v0h0V27.73"/><path id="Stroke-5" class="cls-3" d="M44.55,66.77V57.62"/></g></g></g></g></g></g></g></svg>