<svg version="1.1" id="ICONS" xmlns="http://www.w3.org/2000/svg" xmlns:xlink="http://www.w3.org/1999/xlink" x="0px" y="0px" style="enable-background:new 0 0 75 75;" xml:space="preserve" viewBox="11.55 12.65 52 49.6"> <style type="text/css"> 	.st0{fill:#FFFFFF;stroke:#00778B;stroke-linejoin:round;stroke-miterlimit:10;} 	.st1{fill:#00778B;} 	.st2{fill:none;stroke:#00778B;stroke-width:2.1;stroke-miterlimit:10;} 	.st3{fill:none;stroke:#00778B;stroke-width:2.1;stroke-linejoin:round;stroke-miterlimit:10;} 	.st4{fill:none;stroke:#00778B;stroke-width:2;stroke-linecap:round;} 	.st5{fill:none;stroke:#00778B;stroke-width:2;} 	.st6{fill:none;stroke:#00778B;stroke-width:2;stroke-linecap:round;stroke-linejoin:round;} 	.st7{fill:#00788C;} 	.st8{fill:none;stroke:#00778B;stroke-width:2;stroke-miterlimit:10;} 	.st9{fill:none;stroke:#00778B;stroke-width:2.1;stroke-linecap:round;stroke-linejoin:round;stroke-miterlimit:10;} 	.st10{fill:#FFFFFF;} 	.st11{fill:none;stroke:#00778B;stroke-width:2.1;stroke-linecap:round;stroke-miterlimit:10;} 	.st12{fill:none;stroke:#00778B;stroke-width:1.25;stroke-linecap:round;} 	.st13{fill:none;stroke:#00778B;stroke-width:1.25;} 	.st14{fill:none;stroke:#00778B;stroke-width:1.25;stroke-linecap:round;stroke-linejoin:round;} 	.st15{fill:none;stroke:#00778B;stroke-width:1.25;stroke-linejoin:round;stroke-miterlimit:10;} 	.st16{fill:none;stroke:#00778B;stroke-width:1.25;stroke-linecap:round;stroke-linejoin:round;stroke-miterlimit:10;} 	.st17{fill:#FFFFFF;stroke:#00778B;stroke-width:2.1;stroke-linejoin:round;stroke-miterlimit:10;} 	.st18{fill:none;stroke:#00778B;stroke-width:2;stroke-linecap:round;stroke-miterlimit:10;stroke-dasharray:3.5;} 	.st19{enable-background:new    ;} 	.st20{clip-path:url(#SVGID_00000036940663846480325900000013520728184289012395_);enable-background:new    ;} 	.st21{fill:#FFFFFF;stroke:#00778B;stroke-width:2.1;stroke-miterlimit:10;} 	.st22{clip-path:url(#SVGID_00000016771971260725334770000017330055707718408590_);enable-background:new    ;} 	.st23{clip-path:url(#SVGID_00000119814224636310350720000003703625573061577397_);enable-background:new    ;} 	.st24{fill:#008599;} 	.st25{fill:none;stroke:#00778B;stroke-width:1.5;stroke-linecap:round;stroke-linejoin:round;stroke-miterlimit:10;} 	.st26{fill:none;stroke:#00778B;stroke-width:1.25;stroke-linecap:round;stroke-miterlimit:10;} </style> <g> 	<g> 		<path class="st3" d="M59.1,13.7H15.9c-1.8,0-3.3,1.5-3.3,3.3v30.7c0,1.8,1.5,3.4,3.3,3.4h16.6c0,0,0.7,6.7-5,6.7v3.4h20.1v-3.4 			c-6,0-5-6.7-5-6.7h16.6c1.8,0,3.3-1.5,3.3-3.4V17.1C62.5,15.2,61,13.7,59.1,13.7L59.1,13.7z"></path> 	</g> </g> <g> 	<g> 		<g> 			<g> 				<line class="st3" x1="62.5" y1="43.6" x2="12.8" y2="43.6"></line> 			</g> 		</g> 	</g> </g> <g> 	<line class="st2" x1="52.3" y1="25.4" x2="52.3" y2="38.6"></line> 	<line class="st2" x1="48.3" y1="28.3" x2="48.3" y2="38.6"></line> 	<line class="st2" x1="44.2" y1="32.3" x2="44.2" y2="38.6"></line> 	<line class="st2" x1="40.2" y1="34.6" x2="40.2" y2="38.6"></line> </g> <g> 	<line class="st2" x1="32.4" y1="33.2" x2="20.1" y2="33.2"></line> 	<line class="st2" x1="33.9" y1="29.2" x2="20.1" y2="29.2"></line> 	<line class="st2" x1="32" y1="25.1" x2="20.1" y2="25.1"></line> 	<line class="st2" x1="30" y1="21.1" x2="20.1" y2="21.1"></line> </g> </svg>