<svg version="1.1" id="ICONS" xmlns="http://www.w3.org/2000/svg" xmlns:xlink="http://www.w3.org/1999/xlink" x="0px" y="0px" style="enable-background:new 0 0 75 75;" xml:space="preserve" viewBox="25.25 14.35 24.4 46.2"> <style type="text/css"> 	.st0{fill:#FFFFFF;stroke:#00778B;stroke-linejoin:round;stroke-miterlimit:10;} 	.st1{fill:#00778B;} 	.st2{fill:none;stroke:#00778B;stroke-width:2.1;stroke-miterlimit:10;} 	.st3{fill:none;stroke:#00778B;stroke-width:2.1;stroke-linejoin:round;stroke-miterlimit:10;} 	.st4{fill:none;stroke:#00778B;stroke-width:2;stroke-linecap:round;} 	.st5{fill:none;stroke:#00778B;stroke-width:2;} 	.st6{fill:none;stroke:#00778B;stroke-width:2;stroke-linecap:round;stroke-linejoin:round;} 	.st7{fill:#00788C;} 	.st8{fill:none;stroke:#00778B;stroke-width:2;stroke-miterlimit:10;} 	.st9{fill:none;stroke:#00778B;stroke-width:2.1;stroke-linecap:round;stroke-linejoin:round;stroke-miterlimit:10;} 	.st10{fill:#FFFFFF;} 	.st11{fill:none;stroke:#00778B;stroke-width:2.1;stroke-linecap:round;stroke-miterlimit:10;} 	.st12{fill:none;stroke:#00778B;stroke-width:1.25;stroke-linecap:round;} 	.st13{fill:none;stroke:#00778B;stroke-width:1.25;} 	.st14{fill:none;stroke:#00778B;stroke-width:1.25;stroke-linecap:round;stroke-linejoin:round;} 	.st15{fill:none;stroke:#00778B;stroke-width:1.25;stroke-linejoin:round;stroke-miterlimit:10;} 	.st16{fill:none;stroke:#00778B;stroke-width:1.25;stroke-linecap:round;stroke-linejoin:round;stroke-miterlimit:10;} 	.st17{fill:#FFFFFF;stroke:#00778B;stroke-width:2.1;stroke-linejoin:round;stroke-miterlimit:10;} 	.st18{fill:none;stroke:#00778B;stroke-width:2;stroke-linecap:round;stroke-miterlimit:10;stroke-dasharray:3.5;} 	.st19{enable-background:new    ;} 	.st20{clip-path:url(#SVGID_00000090290534264899564590000005372202478050866084_);enable-background:new    ;} 	.st21{fill:#FFFFFF;stroke:#00778B;stroke-width:2.1;stroke-miterlimit:10;} 	.st22{clip-path:url(#SVGID_00000047754224522832681250000010952979757879429310_);enable-background:new    ;} 	.st23{clip-path:url(#SVGID_00000031899693797480144120000002528294304955215021_);enable-background:new    ;} 	.st24{fill:#008599;} 	.st25{fill:none;stroke:#00778B;stroke-width:1.5;stroke-linecap:round;stroke-linejoin:round;stroke-miterlimit:10;} 	.st26{fill:none;stroke:#00778B;stroke-width:1.25;stroke-linecap:round;stroke-miterlimit:10;} </style> <g> 	<path class="st24" d="M37.5,56.5L37.5,56.5c-0.9,0-1.6-0.7-1.6-1.6c0-0.9,0.7-1.6,1.6-1.6c0.9,0,1.6,0.7,1.6,1.6 		C39.1,55.8,38.4,56.5,37.5,56.5"></path> 	<g> 		<g> 			<path class="st3" d="M45.3,15.4H29.7c-1.9,0-3.4,1.5-3.4,3.4v37.3c0,1.9,1.5,3.4,3.4,3.4h15.5c1.9,0,3.4-1.5,3.4-3.4V18.8 				C48.6,16.9,47.1,15.4,45.3,15.4L45.3,15.4z"></path> 		</g> 	</g> 	<line class="st3" x1="26.5" y1="51" x2="48.4" y2="51"></line> 	<line class="st3" x1="26.5" y1="21.3" x2="48.4" y2="21.4"></line> 	<g> 		<path class="st25" d="M44.3,32.9c0,0.6-0.5,1-1,1H40c-0.6,0-1-0.4-1-1v-3.3c0-0.5,0.4-1,1-1h3.3c0.5,0,1,0.5,1,1V32.9z"></path> 	</g> 	<g> 		<path class="st25" d="M36.1,32.9c0,0.6-0.5,1-1,1h-3.3c-0.6,0-1-0.4-1-1v-3.3c0-0.5,0.4-1,1-1h3.3c0.5,0,1,0.5,1,1V32.9z"></path> 	</g> 	<g> 		<path class="st25" d="M44.3,40.9c0,0.5-0.5,1-1,1H40c-0.6,0-1-0.5-1-1v-3.3c0-0.5,0.4-1,1-1h3.3c0.5,0,1,0.5,1,1V40.9z"></path> 	</g> 	<g> 		<path class="st25" d="M36.1,40.9c0,0.5-0.5,1-1,1h-3.3c-0.6,0-1-0.5-1-1v-3.3c0-0.5,0.4-1,1-1h3.3c0.5,0,1,0.5,1,1V40.9z"></path> 	</g> </g> </svg>