<svg xmlns="http://www.w3.org/2000/svg" width="63" height="47"><g fill="none" fill-rule="evenodd" stroke="#FFF" stroke-width="2.1"><path stroke-linecap="round" d="M34 30.8s-3.3-2.4-3.3-7.5 3.3-7.5 3.3-7.5M37.8 27.1s-1.7-1.2-1.7-3.9c0-2.6 1.7-3.8 1.7-3.8M29.9 33.8s-4.7-3.4-4.7-10.7c0-7.3 4.7-10.6 4.7-10.6"/><path d="M18.8 1.8H3.9C2.5 1.8 1.3 3 1.3 4.4v38.4c0 1.4 1.2 2.6 2.6 2.6h14.9c1.4 0 2.6-1.2 2.6-2.6V4.4c0-1.4-1.2-2.6-2.6-2.6zm-7.4 41c-.9 0-1.6-.7-1.6-1.6 0-.9.7-1.6 1.6-1.6.9 0 1.6.7 1.6 1.6 0 .9-.7 1.6-1.6 1.6zM1.3 6.2l20.1-.1M1.4 37.3l20-.1M59.2 1.8H44.3c-1.4 0-2.6 1.2-2.6 2.6v38.4c0 1.4 1.2 2.6 2.6 2.6h14.9c1.4 0 2.6-1.2 2.6-2.6V4.4c0-1.4-1.2-2.6-2.6-2.6zm-7.4 41c-.9 0-1.6-.7-1.6-1.6 0-.9.7-1.6 1.6-1.6.9 0 1.6.7 1.6 1.6 0 .9-.7 1.6-1.6 1.6zM41.7 6.2l20-.1M41.7 37.3l20.1-.1"/></g></svg>