<svg xmlns="http://www.w3.org/2000/svg" width="53" height="51"><g fill="none" fill-rule="evenodd" stroke="#FFF" stroke-linecap="round" stroke-linejoin="round" stroke-width="2.1" transform="translate(1 1)"><circle cx="5.7" cy="19.9" r="4.3"/><circle cx="25.5" cy="5.1" r="4.3"/><circle cx="25.5" cy="33.7" r="4.3"/><path d="M9.3 29.5c-.9-1-2.2-1.7-3.7-1.7a4.8 4.8 0 00-4.8 4.8v5H8"/><circle cx="45.2" cy="19.9" r="4.3"/><path d="M41.5 29.5c.9-1 2.2-1.7 3.7-1.7 2.7 0 4.8 2.2 4.8 4.8v5h-7.2M17.6 20.4v-3.8c0-1.2.5-2.3 1.3-3.2.8-.8 1.9-1.3 3.2-1.3l3.4 3.3 3.4-3.3c1.2 0 2.3.5 3.2 1.3.8.8 1.3 1.9 1.3 3.2v3.8M16.8 48.5v-2.8c0-2.4 1.9-4.3 4.3-4.3h8.6c2.4 0 4.3 1.9 4.3 4.3v2.8"/><path d="M10.5 45.7l5.4-21.8h19.2l5.4 21.9"/></g></svg>