<svg xmlns="http://www.w3.org/2000/svg" width="61" height="53"><title>icon_ad</title><desc>Created with Sketch.</desc><g fill="none"><g><g><g><g><g fill="#fff" fill-rule="nonzero"><path id="Shape" d="M4.64 22.35c.22-.88.55-1.73 1-2.52v2.55h11.6c0-.82 0-1.64 0-2.46.44.78.78 1.6 1 2.46h4.86c-1.17-5.27-4.23-9.9-9.88-10.3-1.2-.27-2.47-.25-3.67.04-5.32.65-8.23 5.16-9.37 10.26l4.46-.03zM16.53 5c0 2.76-2.24 5-5 5s-5-2.24-5-5 2.24-5 5-5 5 2.24 5 5zM23.4 52.73c.2-.88.54-1.73 1-2.52v2.55H36c0-.82 0-1.64 0-2.46.43.77.77 1.6 1 2.45h4.85c-1.2-5.26-4.25-9.9-9.85-10.3-1.2-.26-2.46-.24-3.67.04-5.32.64-8.23 5.15-9.37 10.25l4.43-.02zM35.28 35.4c0 2.76-2.24 5-5 5s-5-2.24-5-5 2.24-5 5-5c1.33 0 2.6.53 3.54 1.46.93.94 1.46 2.2 1.46 3.54zM41.9 22.35c.2-.88.54-1.73 1-2.52v2.55h11.6c0-.82 0-1.64 0-2.46.43.78.77 1.6 1 2.46h4.85c-1.17-5.27-4.23-9.9-9.88-10.3-1.2-.27-2.47-.25-3.67.04-5.32.65-8.23 5.16-9.37 10.26l4.46-.03zM53.78 5c0 2.76-2.24 5-5 5s-5-2.24-5-5 2.24-5 5-5 5 2.24 5 5z"/></g><g stroke="#fff" stroke-width="2.1" stroke-linecap="round" stroke-linejoin="round"><path d="M12.48 26.53l7.5 12M47.3 26.7l-7.5 12M39.48 10.16l-18.1.03"/></g></g></g></g></g></g></svg>