<svg xmlns="http://www.w3.org/2000/svg" xmlns:xlink="http://www.w3.org/1999/xlink" version="1.1" id="ICONS" x="0px" y="0px" style="enable-background:new 0 0 75 75;" xml:space="preserve" viewBox="13.65 11.55 47.7 51.9"><style type="text/css">	.st0{fill:#FFFFFF;stroke:#00778B;stroke-linejoin:round;stroke-miterlimit:10;}	.st1{fill:#00778B;}	.st2{fill:none;stroke:#00778B;stroke-width:2.1;stroke-miterlimit:10;}	.st3{fill:none;stroke:#00778B;stroke-width:2.1;stroke-linejoin:round;stroke-miterlimit:10;}	.st4{fill:none;stroke:#00778B;stroke-width:2;stroke-linecap:round;}	.st5{fill:none;stroke:#00778B;stroke-width:2;}	.st6{fill:none;stroke:#00778B;stroke-width:2;stroke-linecap:round;stroke-linejoin:round;}	.st7{fill:#00788C;}	.st8{fill:none;stroke:#00778B;stroke-width:2;stroke-miterlimit:10;}	.st9{fill:none;stroke:#00778B;stroke-width:2.1;stroke-linecap:round;stroke-linejoin:round;stroke-miterlimit:10;}	.st10{fill:#FFFFFF;}	.st11{fill:none;stroke:#00778B;stroke-width:2.1;stroke-linecap:round;stroke-miterlimit:10;}	.st12{fill:none;stroke:#00778B;stroke-width:1.25;stroke-linecap:round;}	.st13{fill:none;stroke:#00778B;stroke-width:1.25;}	.st14{fill:none;stroke:#00778B;stroke-width:1.25;stroke-linecap:round;stroke-linejoin:round;}	.st15{fill:none;stroke:#00778B;stroke-width:1.25;stroke-linejoin:round;stroke-miterlimit:10;}	.st16{fill:none;stroke:#00778B;stroke-width:1.25;stroke-linecap:round;stroke-linejoin:round;stroke-miterlimit:10;}	.st17{fill:#FFFFFF;stroke:#00778B;stroke-width:2.1;stroke-linejoin:round;stroke-miterlimit:10;}	.st18{fill:none;stroke:#00778B;stroke-width:2;stroke-linecap:round;stroke-miterlimit:10;stroke-dasharray:3.5;}	.st19{enable-background:new    ;}	.st20{clip-path:url(#SVGID_00000127046080043955257510000000919532013297577910_);enable-background:new    ;}	.st21{fill:#FFFFFF;stroke:#00778B;stroke-width:2.1;stroke-miterlimit:10;}	.st22{clip-path:url(#SVGID_00000160167702523935915780000010838699439806350245_);enable-background:new    ;}	.st23{clip-path:url(#SVGID_00000010284665165449749340000013589594079396033922_);enable-background:new    ;}	.st24{fill:#008599;}	.st25{fill:none;stroke:#00778B;stroke-width:1.5;stroke-linecap:round;stroke-linejoin:round;stroke-miterlimit:10;}	.st26{fill:none;stroke:#00778B;stroke-width:1.25;stroke-linecap:round;stroke-miterlimit:10;}</style><g>	<path class="st3" d="M37.5,62.4l-0.4-0.2c-6.8-3-12.8-8-17.9-12.6c-3-2.7-4.5-5.9-4.5-9.5V16.4l0.6-0.1c7.3-1.6,14.7-3.7,22.1-3.7   c7.4,0,14.9,2.1,22.3,3.7l0.6,0.1v23.9c0,3.6-1.4,6.6-4.3,9.3c-5.3,4.9-11.4,10-18.2,12.7L37.5,62.4z"></path>	<g>		<path class="st9" d="M42.7,38.3c1.2-1.3,1.9-2.9,1.9-4.8c0-1.9-0.8-3.6-2-4.9"></path>		<path class="st9" d="M32.4,28.6c-1.2,1.3-2,3-2,4.9c0,1.9,0.7,3.5,1.9,4.8"></path>		<path class="st9" d="M45.8,41.4c2-2.1,3.2-4.8,3.2-7.9c0-3.1-1.2-5.9-3.3-8"></path>		<path class="st9" d="M29.3,25.5c-2,2.1-3.3,4.9-3.3,8c0,3.1,1.2,5.9,3.2,7.9"></path>		<path class="st9" d="M49,44.6c2.8-2.9,4.5-6.8,4.5-11.1c0-4.4-1.8-8.3-4.6-11.2"></path>		<path class="st9" d="M26.1,22.3c-2.8,2.9-4.6,6.8-4.6,11.2c0,4.3,1.7,8.2,4.5,11.1"></path>	</g></g></svg>