<svg xmlns="http://www.w3.org/2000/svg" width="64" height="61"><title>icon_privileged</title><desc>Created with Sketch.</desc><g fill="none"><g><g><g><g><path id="Shape" stroke="#fff" stroke-width="2.1" d="M58.2 1.2H5.6C3.4 1.2 1.5 3 1.5 5.3v37.4c0 2.3 1.8 4.1 4.1 4.1h20.2s.9 8.2-6.1 8.2v4h24.5v-4.1c-7.3 0-6.1-8.2-6.1-8.2h20.2c2.2 0 4.1-1.8 4.1-4.1V5.2c-.1-2.2-1.9-4-4.2-4zM62.3 37.5H1.8" stroke-linejoin="round"/><path fill="#fff" fill-rule="nonzero" d="M40.8 16.5h-1.5v-2c0-3.9-3.2-7.1-7.1-7.1-3.9 0-7.2 3.1-7.2 7.1v2h-1.5c-.3 0-.5.2-.5.5v12.7c0 1.1.9 2 2 2h14.3c1.1 0 2-.9 2-2V17c0-.3-.2-.5-.5-.5zm-7.1 10.6c0 .1 0 .3-.1.4-.1.1-.2.2-.4.2h-2c-.1 0-.3-.1-.4-.2-.1-.1-.1-.3-.1-.4l.3-2.9c-.5-.4-.8-1-.8-1.6 0-1.1.9-2 2-2s2 .9 2 2c0 .7-.3 1.3-.8 1.6l.3 2.9zm2.5-10.6H28v-2c0-2.2 1.8-4.1 4.1-4.1 2.2 0 4.1 1.8 4.1 4.1v2z"/></g></g></g></g></g></svg>