<svg version="1.1" id="ICONS" xmlns="http://www.w3.org/2000/svg" xmlns:xlink="http://www.w3.org/1999/xlink" x="0px" y="0px" style="enable-background:new 0 0 75 75;" xml:space="preserve" viewBox="12.8 11.6 49.4 51.8"> <style type="text/css"> 	.st0{fill:#FFFFFF;stroke:#00778B;stroke-linejoin:round;stroke-miterlimit:10;} 	.st1{fill:#00778B;} 	.st2{fill:none;stroke:#00778B;stroke-width:2.1;stroke-miterlimit:10;} 	.st3{fill:none;stroke:#00778B;stroke-width:2.1;stroke-linejoin:round;stroke-miterlimit:10;} 	.st4{fill:none;stroke:#00778B;stroke-width:2;stroke-linecap:round;} 	.st5{fill:none;stroke:#00778B;stroke-width:2;} 	.st6{fill:none;stroke:#00778B;stroke-width:2;stroke-linecap:round;stroke-linejoin:round;} 	.st7{fill:#00788C;} 	.st8{fill:none;stroke:#00778B;stroke-width:2;stroke-miterlimit:10;} 	.st9{fill:none;stroke:#00778B;stroke-width:2.1;stroke-linecap:round;stroke-linejoin:round;stroke-miterlimit:10;} 	.st10{fill:#FFFFFF;} 	.st11{fill:none;stroke:#00778B;stroke-width:2.1;stroke-linecap:round;stroke-miterlimit:10;} 	.st12{fill:none;stroke:#00778B;stroke-width:1.25;stroke-linecap:round;} 	.st13{fill:none;stroke:#00778B;stroke-width:1.25;} 	.st14{fill:none;stroke:#00778B;stroke-width:1.25;stroke-linecap:round;stroke-linejoin:round;} 	.st15{fill:none;stroke:#00778B;stroke-width:1.25;stroke-linejoin:round;stroke-miterlimit:10;} 	.st16{fill:none;stroke:#00778B;stroke-width:1.25;stroke-linecap:round;stroke-linejoin:round;stroke-miterlimit:10;} 	.st17{fill:#FFFFFF;stroke:#00778B;stroke-width:2.1;stroke-linejoin:round;stroke-miterlimit:10;} 	.st18{fill:none;stroke:#00778B;stroke-width:2;stroke-linecap:round;stroke-miterlimit:10;stroke-dasharray:3.5;} 	.st19{enable-background:new    ;} 	.st20{clip-path:url(#SVGID_00000167379971493982218520000009044918899043860920_);enable-background:new    ;} 	.st21{fill:#FFFFFF;stroke:#00778B;stroke-width:2.1;stroke-miterlimit:10;} 	.st22{clip-path:url(#SVGID_00000068655778203749198040000012023214168842878629_);enable-background:new    ;} 	.st23{clip-path:url(#SVGID_00000149382400101160743970000016458512891920189060_);enable-background:new    ;} 	.st24{fill:#008599;} 	.st25{fill:none;stroke:#00778B;stroke-width:1.5;stroke-linecap:round;stroke-linejoin:round;stroke-miterlimit:10;} 	.st26{fill:none;stroke:#00778B;stroke-width:1.25;stroke-linecap:round;stroke-miterlimit:10;} </style> <g> 	<g> 		<path class="st8" d="M37.5,12.6c6.9,0,12.6,5.6,12.6,12.6c0,10.9-12.6,28.6-12.6,28.6S24.9,36.6,24.9,25.1 			C24.9,18.2,30.6,12.6,37.5,12.6z M43.2,25.1c0-3.2-2.6-5.7-5.7-5.7c-3.2,0-5.7,2.6-5.7,5.7s2.6,5.7,5.7,5.7 			C40.7,30.8,43.2,28.3,43.2,25.1z"></path> 	</g> 	<path class="st18" d="M29.4,50c-9.1,0.9-15.6,3.3-15.6,6c0,3.5,10.6,6.4,23.7,6.4c13.1,0,23.7-2.9,23.7-6.4c0-2.8-6.6-5.2-15.9-6"></path> </g> </svg>