<svg xmlns="http://www.w3.org/2000/svg" width="55" height="55"><title>icon_enterprise_boost_productivity</title><desc>Created with Sketch.</desc><g fill="none"><g><g><g><g transform="translate(0 0)"><circle id="Oval" cx="27.4" cy="27.63" r="4.24" fill="#00778C" fill-rule="nonzero"/><path id="Shape" stroke="#00778C" stroke-width="4" d="M27.47 27.68l9.45-13.97" stroke-linecap="round"/><path id="Shape" stroke="#00778C" stroke-width="2.1" d="M27.35 11.82V9.5" stroke-linecap="round"/><ellipse cx="27.43" cy="27.63" stroke="#00758D" stroke-width="2.1" stroke-linecap="round" stroke-linejoin="round" rx="23.84" ry="23.82"/><path id="Shape" stroke="#00778C" stroke-width="2.1" d="M27.35 3.85V.6M27.35 54.7v-3.24M51.15 27.65h3.23M.3 27.65h3.24M44.18 10.82l2.28-2.3M8.23 46.77l2.28-2.3M44.18 44.48l2.28 2.3M8.23 8.53l2.28 2.3M36.36 5.62l1.22-3M17.1 52.68l1.23-3M49.38 36.66l3 1.23M2.32 17.42l3 1.22M49.3 18.44l2.98-1.25M2.4 38.1l3-1.24M36.55 49.6l1.25 3M16.9 2.72l1.24 2.98M32.13 4.33l.65-3.16M21.9 54.14l.66-3.17M50.66 32.44l3.17.65M.86 22.2l3.17.66M47.22 14.55l2.7-1.78M4.77 42.54l2.7-1.8M40.45 47.52l1.78 2.7M12.46 5.08l1.78 2.7M40.6 7.88l1.8-2.68M12.3 50.1l1.8-2.68M47.12 40.9l2.68 1.8M4.9 12.6l2.68 1.8M50.7 23.05l3.17-.63M.82 32.88L4 32.26M31.95 51l.63 3.18M22.12 1.12l.62 3.18"/><path stroke="#00778C" stroke-width="2.1" d="M27.35 45.74v-2.32M11.32 27.78H9M45.6 27.78h-2.32M15.27 39.86l-.77.76M39.04 39.8l.76.77M14.02 15l.76.78" stroke-linecap="round"/></g></g></g></g></g></svg>