<svg xmlns="http://www.w3.org/2000/svg" width="52" height="35"><g fill="none" fill-rule="evenodd" transform="translate(1 1)"><circle cx="9.37" cy="7.58" r="3.03" stroke="#00778C" stroke-linejoin="round" stroke-width="2.1"/><circle cx="27.81" cy="6.04" r="1.21" fill="#00778C" fill-rule="nonzero"/><circle cx="31.23" cy="6.04" r="1.21" fill="#00778C" fill-rule="nonzero"/><circle cx="34.64" cy="6.04" r="1.21" fill="#00778C" fill-rule="nonzero"/><circle cx="38.05" cy="6.04" r="1.21" fill="#00778C" fill-rule="nonzero"/><circle cx="41.47" cy="6.04" r="1.21" fill="#00778C" fill-rule="nonzero"/><circle cx="29.5" cy="9.12" r="1.21" fill="#00778C" fill-rule="nonzero"/><circle cx="32.92" cy="9.12" r="1.21" fill="#00778C" fill-rule="nonzero"/><circle cx="36.33" cy="9.12" r="1.21" fill="#00778C" fill-rule="nonzero"/><circle cx="39.74" cy="9.12" r="1.21" fill="#00778C" fill-rule="nonzero"/><circle cx="43.16" cy="9.12" r="1.21" fill="#00778C" fill-rule="nonzero"/><path stroke="#00778C" stroke-linejoin="round" stroke-width="2.1" d="M49.25 18v10.2A4.26 4.26 0 0145 32.5H5.2a4.26 4.26 0 01-4.26-4.26V18h48.31z"/><circle cx="9.37" cy="25.27" r="3.03" stroke="#00778C" stroke-linejoin="round" stroke-width="2.1"/><circle cx="27.81" cy="23.73" r="1.21" fill="#00778C" fill-rule="nonzero"/><circle cx="31.23" cy="23.73" r="1.21" fill="#00778C" fill-rule="nonzero"/><circle cx="34.64" cy="23.73" r="1.21" fill="#00778C" fill-rule="nonzero"/><circle cx="38.05" cy="23.73" r="1.21" fill="#00778C" fill-rule="nonzero"/><circle cx="41.47" cy="23.73" r="1.21" fill="#00778C" fill-rule="nonzero"/><circle cx="29.5" cy="26.81" r="1.21" fill="#00778C" fill-rule="nonzero"/><circle cx="32.92" cy="26.81" r="1.21" fill="#00778C" fill-rule="nonzero"/><circle cx="36.33" cy="26.81" r="1.21" fill="#00778C" fill-rule="nonzero"/><circle cx="39.74" cy="26.81" r="1.21" fill="#00778C" fill-rule="nonzero"/><circle cx="43.16" cy="26.81" r="1.21" fill="#00778C" fill-rule="nonzero"/><path stroke="#00778C" stroke-linejoin="round" stroke-width="2.1" d="M.94 14.81V4.61A4.25 4.25 0 015.2.35H45c2.35 0 4.26 1.9 4.26 4.26v10.2H.94z"/></g></svg>