<svg version="1.1" id="ICONS" xmlns="http://www.w3.org/2000/svg" xmlns:xlink="http://www.w3.org/1999/xlink" x="0px" y="0px" style="enable-background:new 0 0 75 75;" xml:space="preserve" viewBox="13.65 11.55 47.7 51.9"> <style type="text/css"> 	.st0{fill:none;stroke:#00778B;stroke-width:2.1;stroke-linejoin:round;stroke-miterlimit:10;} 	.st1{fill:none;stroke:#00778B;stroke-width:2.1;stroke-linecap:round;stroke-linejoin:round;stroke-miterlimit:10;} </style> <path class="st0" d="M37.5,62.4l-0.4-0.2c-6.8-3-12.8-8-17.9-12.6c-3-2.7-4.5-5.9-4.5-9.5V16.4l0.6-0.1c7.3-1.6,14.7-3.7,22.1-3.7 	c7.4,0,14.9,2.1,22.3,3.7l0.6,0.1v23.9c0,3.6-1.4,6.6-4.3,9.3c-5.3,4.9-11.4,10-18.2,12.7L37.5,62.4z"></path> <g> 	<g> 		<g> 			<path class="st0" d="M43.2,19.2H31.8c-1.4,0-2.5,1.1-2.5,2.5v27.5c0,1.4,1.1,2.5,2.5,2.5h11.4c1.4,0,2.5-1.1,2.5-2.5V21.7 				C45.7,20.3,44.6,19.2,43.2,19.2L43.2,19.2z"></path> 			<path class="st0" d="M43,45.8"></path> 		</g> 	</g> 	<line class="st1" x1="36.2" y1="23" x2="38.8" y2="23"></line> 	<line class="st1" x1="35.2" y1="47.8" x2="39.8" y2="47.8"></line> </g> </svg>