<svg xmlns="http://www.w3.org/2000/svg" width="53" height="51"><title>icon_secure_granular_visibility</title><desc>Created with Sketch.</desc><g fill="none"><g stroke="#00778C" stroke-width="2.1"><g><g><g><g><path id="Shape" d="M48.6 1.7H5.3C3.5 1.7 2 3.2 2 5v30.7c0 1.8 1.5 3.4 3.3 3.4h16.6s.7 6.7-5 6.7v3.4H37v-3.4c-6 0-5-6.7-5-6.7h16.6c1.8 0 3.3-1.5 3.3-3.4V5c0-1.8-1.5-3.3-3.3-3.3zM51.9 31.5H2.2"/><g id="Group"><path id="Shape" d="M42.2 12.8v14.6M37.8 16v11.4M33.4 20.4v7M28.9 23v4.4"/></g><g><path d="M16.9 21.3c-2.6-.4-4.7-2.4-5.5-4.9M14.9 8.5c.9-.5 2-.8 3.1-.8 3.7 0 6.8 3 6.8 6.8 0 3.4-2.5 6.3-5.9 6.7M11.2 14.6c0-.1 0-.2 0-.3.1-1.7.8-3.3 2-4.5"/></g></g></g></g></g></g></g></svg>