<svg version="1.1" id="ICONS" xmlns="http://www.w3.org/2000/svg" xmlns:xlink="http://www.w3.org/1999/xlink" x="0px" y="0px" style="enable-background:new 0 0 75 75;" xml:space="preserve" viewBox="13.55 11.45 48 52.1"> <style type="text/css"> 	.st0{fill:#FFFFFF;stroke:#00778B;stroke-linejoin:round;stroke-miterlimit:10;} 	.st1{fill:#00778B;} 	.st2{fill:none;stroke:#00778B;stroke-width:2.1;stroke-miterlimit:10;} 	.st3{fill:none;stroke:#00778B;stroke-width:2.1;stroke-linejoin:round;stroke-miterlimit:10;} 	.st4{fill:none;stroke:#00778B;stroke-width:2;stroke-linecap:round;} 	.st5{fill:none;stroke:#00778B;stroke-width:2;} 	.st6{fill:none;stroke:#00778B;stroke-width:2;stroke-linecap:round;stroke-linejoin:round;} 	.st7{fill:#00788C;} 	.st8{fill:none;stroke:#00778B;stroke-width:2;stroke-miterlimit:10;} 	.st9{fill:none;stroke:#00778B;stroke-width:2.1;stroke-linecap:round;stroke-linejoin:round;stroke-miterlimit:10;} 	.st10{fill:#FFFFFF;} 	.st11{fill:none;stroke:#00778B;stroke-width:2.1;stroke-linecap:round;stroke-miterlimit:10;} 	.st12{fill:none;stroke:#00778B;stroke-width:1.25;stroke-linecap:round;} 	.st13{fill:none;stroke:#00778B;stroke-width:1.25;} 	.st14{fill:none;stroke:#00778B;stroke-width:1.25;stroke-linecap:round;stroke-linejoin:round;} 	.st15{fill:none;stroke:#00778B;stroke-width:1.25;stroke-linejoin:round;stroke-miterlimit:10;} 	.st16{fill:none;stroke:#00778B;stroke-width:1.25;stroke-linecap:round;stroke-linejoin:round;stroke-miterlimit:10;} 	.st17{fill:#FFFFFF;stroke:#00778B;stroke-width:2.1;stroke-linejoin:round;stroke-miterlimit:10;} 	.st18{fill:none;stroke:#00778B;stroke-width:2;stroke-linecap:round;stroke-miterlimit:10;stroke-dasharray:3.5;} 	.st19{enable-background:new    ;} 	.st20{clip-path:url(#SVGID_00000093141923054889467110000013313179452816977546_);enable-background:new    ;} 	.st21{fill:#FFFFFF;stroke:#00778B;stroke-width:2.1;stroke-miterlimit:10;} 	.st22{clip-path:url(#SVGID_00000129190061741652588930000014383211332950999936_);enable-background:new    ;} 	.st23{clip-path:url(#SVGID_00000013904521541216415700000018027876309489139607_);enable-background:new    ;} 	.st24{fill:#008599;} 	.st25{fill:none;stroke:#00778B;stroke-width:1.5;stroke-linecap:round;stroke-linejoin:round;stroke-miterlimit:10;} 	.st26{fill:none;stroke:#00778B;stroke-width:1.25;stroke-linecap:round;stroke-miterlimit:10;} </style> <path class="st3" d="M37.5,62.5l-0.4-0.2c-6.8-3.1-12.9-8.1-18-12.7c-3-2.7-4.5-5.9-4.5-9.5V16.3l0.6-0.1c7.3-1.6,14.8-3.7,22.2-3.7 	c7.4,0,15,2.1,22.5,3.7l0.6,0.1v24.1c0,3.6-1.4,6.6-4.3,9.3c-5.3,5-11.5,10-18.3,12.7L37.5,62.5z"></path> <g> 	<path class="st1" d="M28.1,30l-3.2,0.9l-0.7-2.4l4.7-1.5h2.1v17.9h-3V30z"></path> 	<path class="st1" d="M33.4,35.2l1.1-1.3c1,0.9,2,1.4,3.3,1.4c1.2,0,1.9-0.5,1.9-1.4v0c0-0.8-0.4-1.2-2.4-1.6 		c-2.2-0.5-3.5-1.2-3.5-3.1v0c0-1.8,1.5-3,3.5-3c1.5,0,2.7,0.4,3.8,1.3l-1,1.3c-0.9-0.7-1.9-1.1-2.8-1.1c-1.1,0-1.8,0.6-1.8,1.3v0 		c0,0.8,0.5,1.2,2.5,1.7c2.2,0.5,3.3,1.3,3.3,3v0c0,1.9-1.5,3.1-3.7,3.1C36.1,36.9,34.6,36.3,33.4,35.2z"></path> 	<path class="st1" d="M46,27.9h-3.3v-1.6h8.4v1.6h-3.3v8.8H46V27.9z"></path> </g> </svg>