<svg id="CMYK_Icons" data-name="CMYK Icons" xmlns="http://www.w3.org/2000/svg" width="25" height="51"><defs><style>.cls-1{fill:#008599;}.cls-2,.cls-3{fill:none;stroke:#008599;stroke-linejoin:round;}.cls-2{stroke-width:2.1px;}.cls-3{stroke-linecap:round;stroke-width:1.5px;}</style></defs><path class="cls-1" d="M37.5,56.5h0a1.6,1.6,0,1,1,1.6-1.6,1.58,1.58,0,0,1-1.6,1.6" transform="translate(-25.35 -14.35)"/><path class="cls-2" d="M45.3,15.4H29.8a3.372,3.372,0,0,0-3.4,3.4V56.1a3.372,3.372,0,0,0,3.4,3.4H45.3a3.372,3.372,0,0,0,3.4-3.4V18.8a3.578,3.578,0,0,0-3.4-3.4Z" transform="translate(-25.35 -14.35)"/><line class="cls-2" x1="1.15" y1="36.65" x2="23.05" y2="36.75"/><line class="cls-2" x1="1.15" y1="6.95" x2="23.05" y2="7.05"/><path class="cls-3" d="M44.3,33a1.075,1.075,0,0,1-1,1H40a1.075,1.075,0,0,1-1-1V29.7a1.075,1.075,0,0,1,1-1h3.3a1.075,1.075,0,0,1,1,1Z" transform="translate(-25.35 -14.35)"/><path class="cls-3" d="M36.1,33a1.075,1.075,0,0,1-1,1H31.8a1.075,1.075,0,0,1-1-1V29.7a1.075,1.075,0,0,1,1-1h3.3a1.075,1.075,0,0,1,1,1Z" transform="translate(-25.35 -14.35)"/><path class="cls-3" d="M44.3,40.9a1.075,1.075,0,0,1-1,1H40a1.075,1.075,0,0,1-1-1V37.6a1.075,1.075,0,0,1,1-1h3.3a1.075,1.075,0,0,1,1,1Z" transform="translate(-25.35 -14.35)"/><path class="cls-3" d="M36.1,40.9a1.075,1.075,0,0,1-1,1H31.8a1.075,1.075,0,0,1-1-1V37.6a1.075,1.075,0,0,1,1-1h3.3a1.075,1.075,0,0,1,1,1Z" transform="translate(-25.35 -14.35)"/></svg>