<svg version="1.1" id="ICONS" xmlns="http://www.w3.org/2000/svg" xmlns:xlink="http://www.w3.org/1999/xlink" x="0px" y="0px" style="enable-background:new 0 0 75 75;" xml:space="preserve" viewBox="11.75 14.25 51.4 46.3"> <style type="text/css"> 	.st0{fill:#FFFFFF;stroke:#00778B;stroke-linejoin:round;stroke-miterlimit:10;} 	.st1{fill:#00778B;} 	.st2{fill:none;stroke:#00778B;stroke-width:2.1;stroke-miterlimit:10;} 	.st3{fill:none;stroke:#00778B;stroke-width:2.1;stroke-linejoin:round;stroke-miterlimit:10;} 	.st4{fill:none;stroke:#00778B;stroke-width:2;stroke-linecap:round;} 	.st5{fill:none;stroke:#00778B;stroke-width:2;} 	.st6{fill:none;stroke:#00778B;stroke-width:2;stroke-linecap:round;stroke-linejoin:round;} 	.st7{fill:#00788C;} 	.st8{fill:none;stroke:#00778B;stroke-width:2;stroke-miterlimit:10;} 	.st9{fill:none;stroke:#00778B;stroke-width:2.1;stroke-linecap:round;stroke-linejoin:round;stroke-miterlimit:10;} 	.st10{fill:#FFFFFF;} 	.st11{fill:none;stroke:#00778B;stroke-width:2.1;stroke-linecap:round;stroke-miterlimit:10;} 	.st12{fill:none;stroke:#00778B;stroke-width:1.25;stroke-linecap:round;} 	.st13{fill:none;stroke:#00778B;stroke-width:1.25;} 	.st14{fill:none;stroke:#00778B;stroke-width:1.25;stroke-linecap:round;stroke-linejoin:round;} 	.st15{fill:none;stroke:#00778B;stroke-width:1.25;stroke-linejoin:round;stroke-miterlimit:10;} 	.st16{fill:none;stroke:#00778B;stroke-width:1.25;stroke-linecap:round;stroke-linejoin:round;stroke-miterlimit:10;} 	.st17{fill:#FFFFFF;stroke:#00778B;stroke-width:2.1;stroke-linejoin:round;stroke-miterlimit:10;} 	.st18{fill:none;stroke:#00778B;stroke-width:2;stroke-linecap:round;stroke-miterlimit:10;stroke-dasharray:3.5;} 	.st19{enable-background:new    ;} 	.st20{clip-path:url(#SVGID_00000104686063008598055980000009305214695726710964_);enable-background:new    ;} 	.st21{fill:#FFFFFF;stroke:#00778B;stroke-width:2.1;stroke-miterlimit:10;} 	.st22{clip-path:url(#SVGID_00000111888848020878302570000004448323215146720437_);enable-background:new    ;} 	.st23{clip-path:url(#SVGID_00000125592814472375821930000014481310640344724877_);enable-background:new    ;} 	.st24{fill:#008599;} 	.st25{fill:none;stroke:#00778B;stroke-width:1.5;stroke-linecap:round;stroke-linejoin:round;stroke-miterlimit:10;} 	.st26{fill:none;stroke:#00778B;stroke-width:1.25;stroke-linecap:round;stroke-miterlimit:10;} </style> <g> 	<path class="st1" d="M52.1,54.5L52.1,54.5c-0.8,0-1.4-0.6-1.4-1.4c0-0.8,0.6-1.4,1.4-1.4c0.8,0,1.4,0.6,1.4,1.4 		C53.6,53.9,52.9,54.5,52.1,54.5"></path> 	<g> 		<g> 			<g> 				<path class="st3" d="M59.1,17.8H45.2c-1.7,0-3,1.4-3,3v33.4c0,1.7,1.4,3,3,3h13.9c1.7,0,3-1.4,3-3V20.9 					C62.1,19.2,60.7,17.8,59.1,17.8L59.1,17.8z"></path> 			</g> 		</g> 		<line class="st3" x1="42.3" y1="49.6" x2="61.9" y2="49.7"></line> 		<line class="st3" x1="42.3" y1="23.1" x2="61.9" y2="23.2"></line> 	</g> </g> <g> 	<g> 		<path class="st1" d="M30.8,19.2l-0.1,0c-2.3-0.2-4.7-0.4-7-0.4c-2.3,0-4.7,0.1-7,0.4l-0.2,0c-0.2,0.1-0.3,0.3-0.3,0.5v1h15v-1 			C31.2,19.5,31.1,19.3,30.8,19.2z"></path> 		<path class="st1" d="M21.5,56.4h4.3c0.2,0,0.4-0.2,0.4-0.4v-1c0-0.2-0.2-0.4-0.4-0.4h-4.3c-0.2,0-0.4,0.2-0.4,0.4v1 			C21.2,56.3,21.3,56.4,21.5,56.4z"></path> 	</g> 	<line class="st2" x1="12.8" y1="23.6" x2="34.6" y2="23.6"></line> 	<line class="st2" x1="12.8" y1="51.9" x2="34.6" y2="51.9"></line> 	<path class="st2" d="M24.1,15.3c4,0,4.9,0.1,6.3,0.3c1.4,0.2,2.2,0.5,2.9,1.2c0.8,0.8,1.2,2,1.2,3.1v17.9v17.3c0,1.6-0.6,2.3-1.4,3 		c-0.9,0.8-2,1-3.1,1.1c-1.1,0.1-2.2,0.3-6.1,0.3h0c-3.9,0-5.4-0.2-6.5-0.3c-1.1-0.1-2.3-0.3-3.1-1.1c-0.8-0.8-1.4-1.4-1.4-3V37.9 		V20c0-1.2,0.4-2.4,1.2-3.1c0.8-0.8,1.5-1,2.9-1.2c1.4-0.2,2.7-0.3,6.7-0.3H24.1z"></path> </g> </svg>