<svg xmlns="http://www.w3.org/2000/svg" width="49" height="53"><title>icon_trusted_hardware_root_of_trust</title><desc>Created with Sketch.</desc><g fill="none"><g stroke="#00758D" stroke-width="2.1"><g><g><g><g><path d="M29.2 29.9L21 34.7l-.6.3-5-2.9-1.4-.8-3.7 2.2.6.3 4.5 2.6 5 2.9.6-.3 8.2-4.8 8.7-5.1-3.7-2.1zM29.2 25.6L21 30.4l-.6.3-5-2.9L14 27l-3.7 2.2.6.3 4.5 2.6 5 2.9.6-.3 8.2-4.8 8.7-5.1-3.7-2.1zM24.2 51.6l-.4-.2c-6.8-3-12.8-8-17.9-12.6-3-2.7-4.5-5.9-4.5-9.5V5.6l.6-.1c7.3-1.6 14.7-3.7 22.1-3.7 7.4 0 14.9 2.1 22.3 3.7l.6.1v23.9c0 3.6-1.4 6.6-4.3 9.3-5.3 4.9-11.4 10-18.2 12.7l-.3.1zM29.2 21.3l8.7-5.1-10.1-5.8-.5.4-8.2 4.7-8.8 5.1.6.3 4.5 2.6 5 2.9.6-.3zM29.2 21.3L21 26.1l-.6.3-5-2.9-1.4-.7-3.7 2.1.6.3 4.5 2.6 5 2.9.6-.3 8.2-4.8 8.7-5.1-3.7-2.1z"/></g></g></g></g></g></g></svg>