<svg width="41" height="40" viewBox="0 0 41 40" fill="none" xmlns="http://www.w3.org/2000/svg">
<path fill-rule="evenodd" clip-rule="evenodd" d="M39.1916 20C39.1916 30.4643 30.7086 38.9474 20.2442 38.9474C9.7799 38.9474 1.29688 30.4643 1.29688 20C1.29688 9.53565 9.7799 1.05263 20.2442 1.05263C30.7086 1.05263 39.1916 9.53565 39.1916 20ZM17.8414 15.4583V23.3819L24.1532 19.4188L17.8414 15.4583ZM29.7943 10.9773C31.2813 11.2601 32.1995 12.2269 32.4554 13.7641C32.9265 16.5936 32.9549 19.4445 32.7691 22.2992C32.7099 23.208 32.6041 24.1167 32.4614 25.0159C32.2032 26.6429 31.0349 27.8184 29.4198 27.9342C27.185 28.0945 24.9471 28.2101 22.995 28.3109C22.2531 28.3492 21.5526 28.3854 20.9091 28.421C19.9618 28.3884 19.078 28.3593 18.2396 28.3316C16.1822 28.2638 14.3972 28.205 12.6132 28.1252C11.912 28.0938 11.2041 27.9929 10.52 27.8318C9.13992 27.5069 8.14449 26.3343 7.93662 24.8587C7.52996 21.9714 7.56415 19.0704 7.72515 16.1693C7.7531 15.6643 7.81999 15.1618 7.88691 14.6592C7.92768 14.3529 7.96846 14.0465 8.00045 13.7395C8.15841 12.2214 9.61002 10.9971 11.0763 10.9006C11.3068 10.8855 11.5373 10.8702 11.7679 10.8549C14.0595 10.7028 16.3537 10.5506 18.6479 10.53C21.0946 10.5082 23.5426 10.5859 25.9898 10.6637C26.5269 10.6807 27.064 10.6978 27.6009 10.7138C28.3344 10.7356 29.0717 10.8398 29.7943 10.9773Z" fill="#1D3154"/>
</svg>
