<?xml version="1.0" encoding="utf-8"?>
<!-- Generator: Adobe Illustrator 25.1.0, SVG Export Plug-In . SVG Version: 6.00 Build 0)  -->
<svg version="1.1" id="Layer_1" xmlns="http://www.w3.org/2000/svg" xmlns:xlink="http://www.w3.org/1999/xlink" x="0px" y="0px"
	 viewBox="0 0 268.5 74.8" style="enable-background:new 0 0 268.5 74.8;" xml:space="preserve">
<style type="text/css">
	.st0{fill:#77787B;}
	.st1{font-family:'GothamSSm-LightItalic';}
	.st2{font-size:3.018px;}
	.st3{fill:#FDB71A;}
	.st4{fill:#D59D2D;}
	.st5{font-family:'GothamSSm-Medium';}
	.st6{font-size:3.8847px;}
	.st7{fill:#959B9D;}
	.st8{font-family:'GothamSSm-Book';}
	.st9{font-size:2.296px;}
	.st10{fill:#FFFFFF;}
	.st11{font-size:2.132px;}
	.st12{fill:#F2F2F3;}
	.st13{fill:#FCB617;}
	.st14{fill:#B9C6CC;}
	.st15{fill:none;stroke:#231F20;stroke-width:0.1;}
	.st16{fill:none;stroke:#231F20;stroke-width:0.1;stroke-dasharray:0.9988,0.9988;}
	.st17{fill:none;stroke:#231F20;stroke-width:0.1;stroke-dasharray:1.0065,1.0065;}
</style>
<text transform="matrix(1 0 0 1 3.8086 66.9186)"><tspan x="0" y="0" class="st0 st1 st2">T</tspan><tspan x="1.8" y="0" class="st0 st1 st2">e</tspan><tspan x="3.8" y="0" class="st0 st1 st2">s</tspan><tspan x="5.4" y="0" class="st0 st1 st2">t</tspan><tspan x="6.7" y="0" class="st0 st1 st2">e</tspan><tspan x="8.7" y="0" class="st0 st1 st2">d </tspan><tspan x="11.8" y="0" class="st0 st1 st2">o</tspan><tspan x="13.9" y="0" class="st0 st1 st2">n</tspan><tspan x="15.9" y="0" class="st0 st1 st2">e </tspan><tspan x="18.8" y="0" class="st0 st1 st2">m</tspan><tspan x="21.9" y="0" class="st0 st1 st2">e</tspan><tspan x="23.8" y="0" class="st0 st1 st2">t</tspan><tspan x="25.1" y="0" class="st0 st1 st2">e</tspan><tspan x="27.1" y="0" class="st0 st1 st2">r </tspan><tspan x="29.4" y="0" class="st0 st1 st2">f</tspan><tspan x="30.6" y="0" class="st0 st1 st2">r</tspan><tspan x="32" y="0" class="st0 st1 st2">o</tspan><tspan x="34.1" y="0" class="st0 st1 st2">m </tspan><tspan x="38.1" y="0" class="st0 st1 st2">a</tspan><tspan x="40" y="0" class="st0 st1 st2">ud</tspan><tspan x="44.2" y="0" class="st0 st1 st2">i</tspan><tspan x="45.1" y="0" class="st0 st1 st2">o </tspan><tspan x="48.1" y="0" class="st0 st1 st2">s</tspan><tspan x="49.8" y="0" class="st0 st1 st2">o</tspan><tspan x="51.9" y="0" class="st0 st1 st2">u</tspan><tspan x="53.9" y="0" class="st0 st1 st2">r</tspan><tspan x="55.2" y="0" class="st0 st1 st2">c</tspan><tspan x="57.1" y="0" class="st0 st1 st2">e</tspan><tspan x="59.1" y="0" class="st0 st1 st2">.</tspan></text>
<rect x="20.7" y="6.2" class="st3" width="172.2" height="36.4"/>
<rect x="20.7" y="17" class="st4" width="144.5" height="25.6"/>
<rect x="53.1" y="27.6" width="0.2" height="11.9"/>
<rect x="36.8" y="27.6" width="0.2" height="11.9"/>
<rect x="67.1" y="27.6" width="0.2" height="11.9"/>
<rect x="81" y="27.6" width="0.2" height="11.9"/>
<rect x="95" y="27.6" width="0.2" height="11.9"/>
<rect x="109" y="27.6" width="0.2" height="11.9"/>
<rect x="123" y="27.6" width="0.2" height="11.9"/>
<rect x="137" y="27.6" width="0.2" height="11.9"/>
<rect x="150.9" y="27.6" width="0.2" height="11.9"/>
<rect x="165" y="27.6" width="0.2" height="11.9"/>
<rect x="178.6" y="27.6" width="0.2" height="11.9"/>
<rect x="192.8" y="27.6" width="0.2" height="11.9"/>
<rect x="206.9" y="27.6" width="0.2" height="11.9"/>
<rect x="220.9" y="27.6" width="0.2" height="11.9"/>
<rect x="234.9" y="27.6" width="0.2" height="11.9"/>
<rect x="20.6" y="27.6" width="0.2" height="11.9"/>
<text transform="matrix(1 0 0 1 24.585 13.0153)"><tspan x="0" y="0" class="st5 st6">Intelligibility</tspan><tspan x="24.4" y="0" class="st5 st6"> of speech protected by Vault</tspan></text>
<text transform="matrix(1 0 0 1 24.585 23.3141)"><tspan x="0" y="0" class="st5 st6">P</tspan><tspan x="2.6" y="0" class="st5 st6">resence of speech protected by Vault</tspan></text>
<text transform="matrix(1 0 0 1 37.5801 58.3102)"><tspan x="0" y="0" class="st7 st8 st9">W</tspan><tspan x="2.5" y="0" class="st7 st8 st9">a</tspan></text>
<text transform="matrix(1 0 0 1 41.4737 58.3102)" class="st7 st8 st9">t</text>
<text transform="matrix(1 0 0 1 42.4248 58.3102)" class="st7 st8 st9">ch T</text>
<text transform="matrix(1 0 0 1 47.5264 58.3102)" class="st7 st8 st9">icking</text>
<text transform="matrix(1 0 0 1 212.7139 58.3102)" class="st7 st8 st9">Rock Conc</text>
<text transform="matrix(1 0 0 1 225.6846 58.3102)" class="st7 st8 st9">ert</text>
<text transform="matrix(1 0 0 1 59.1006 58.3102)"><tspan x="0" y="0" class="st7 st8 st9">A</tspan><tspan x="1.8" y="0" class="st7 st8 st9">v</tspan></text>
<text transform="matrix(1 0 0 1 62.2071 58.3102)" class="st7 st8 st9">er</text>
<path class="st7" d="M64.7,58L64.7,58c0-0.3,0.2-0.4,0.5-0.4c0.2,0,0.3,0,0.4,0.1v0c0-0.2-0.1-0.3-0.4-0.3c-0.1,0-0.3,0-0.4,0.1
	l-0.1-0.2c0.1-0.1,0.3-0.1,0.5-0.1c0.2,0,0.3,0,0.4,0.1c0.1,0.1,0.1,0.2,0.1,0.4v0.8h-0.2v-0.2c-0.1,0.1-0.2,0.2-0.4,0.2
	C64.9,58.3,64.7,58.2,64.7,58z M65.6,57.9v-0.1c-0.1,0-0.2-0.1-0.3-0.1c-0.2,0-0.3,0.1-0.3,0.2v0c0,0.1,0.1,0.2,0.3,0.2
	C65.4,58.2,65.6,58,65.6,57.9z M66.2,58.5l0.1-0.2c0.1,0.1,0.3,0.1,0.5,0.1c0.3,0,0.4-0.1,0.4-0.4V58c-0.1,0.1-0.2,0.3-0.5,0.3
	c-0.3,0-0.6-0.2-0.6-0.6v0c0-0.4,0.3-0.6,0.6-0.6c0.2,0,0.4,0.1,0.5,0.2v-0.2h0.2v1c0,0.2-0.1,0.3-0.2,0.4c-0.1,0.1-0.3,0.2-0.5,0.2
	C66.5,58.7,66.3,58.6,66.2,58.5z M67.2,57.6L67.2,57.6c0-0.2-0.2-0.4-0.4-0.4s-0.4,0.2-0.4,0.4v0c0,0.2,0.2,0.4,0.4,0.4
	C67,58,67.2,57.9,67.2,57.6z M67.7,57.7L67.7,57.7c0-0.4,0.3-0.7,0.6-0.7c0.4,0,0.6,0.3,0.6,0.7c0,0,0,0,0,0.1h-1
	c0,0.2,0.2,0.4,0.4,0.4c0.2,0,0.3-0.1,0.4-0.2l0.1,0.1c-0.1,0.1-0.3,0.2-0.5,0.2C68,58.3,67.7,58.1,67.7,57.7z M68.7,57.6
	c0-0.2-0.1-0.4-0.4-0.4c-0.2,0-0.4,0.2-0.4,0.4H68.7z M69.9,57.5L69.9,57.5c0-0.5,0.4-0.9,0.9-0.9s0.9,0.4,0.9,0.9v0
	c0,0.5-0.4,0.9-0.9,0.9S69.9,57.9,69.9,57.5z M71.4,57.5L71.4,57.5c0-0.4-0.3-0.7-0.6-0.7c-0.4,0-0.6,0.3-0.6,0.7v0
	c0,0.4,0.3,0.7,0.6,0.7C71.2,58.1,71.4,57.8,71.4,57.5z M72.1,57.3h-0.2v-0.2h0.2V57c0-0.1,0-0.2,0.1-0.3c0.1-0.1,0.2-0.1,0.3-0.1
	c0.1,0,0.2,0,0.2,0v0.2c-0.1,0-0.1,0-0.2,0c-0.1,0-0.2,0.1-0.2,0.2v0.1h0.4v0.2h-0.4v1.1h-0.2V57.3z M73,57.3h-0.2v-0.2H73V57
	c0-0.1,0-0.2,0.1-0.3c0.1-0.1,0.2-0.1,0.3-0.1c0.1,0,0.2,0,0.2,0v0.2c-0.1,0-0.1,0-0.2,0c-0.1,0-0.2,0.1-0.2,0.2v0.1h0.4v0.2h-0.4
	v1.1H73V57.3z M73.8,56.6H74v0.2h-0.2V56.6z M73.8,57.1H74v1.2h-0.2V57.1z M74.4,57.7L74.4,57.7c0-0.4,0.3-0.7,0.6-0.7
	c0.2,0,0.4,0.1,0.5,0.2l-0.1,0.1c-0.1-0.1-0.2-0.2-0.4-0.2c-0.2,0-0.4,0.2-0.4,0.5v0c0,0.3,0.2,0.5,0.4,0.5c0.2,0,0.3-0.1,0.4-0.2
	l0.1,0.1c-0.1,0.1-0.3,0.2-0.5,0.2C74.6,58.3,74.4,58,74.4,57.7z"/>
<text transform="matrix(1 0 0 1 75.5899 58.3102)" class="st7 st8 st9">e</text>
<text transform="matrix(1 0 0 1 126.4766 58.3102)" class="st7 st8 st9">Nois</text>
<text transform="matrix(1 0 0 1 131.7891 58.3102)" class="st7 st8 st9">y Restaur</text>
<text transform="matrix(1 0 0 1 143.1221 58.3102)" class="st7 st8 st9">ant</text>
<text transform="matrix(1 0 0 1 240.9024 58.3102)" class="st7 st8 st9">Jet Engine</text>
<text transform="matrix(1 0 0 1 184.0118 58.3102)" class="st7 st8 st9">T</text>
<text transform="matrix(1 0 0 1 185.3711 58.3102)" class="st7 st8 st9">ruck at 5</text>
<text transform="matrix(1 0 0 1 196.2364 58.3102)" class="st7 st8 st9">mp</text>
<text transform="matrix(1 0 0 1 200.1348 58.3102)" class="st7 st8 st9">h</text>
<rect x="4.5" y="33.6" width="250.1" height="0.2"/>
<rect x="48" y="30.9" class="st10" width="10.4" height="5.6"/>
<polygon class="st3" points="58.4,36.5 58.4,36.4 48.1,36.4 48.1,31 58.3,31 58.3,36.5 58.4,36.5 58.4,36.4 58.4,36.5 58.5,36.5 
	58.5,30.8 47.9,30.8 47.9,36.5 58.5,36.5 58.5,36.5 "/>
<g>
	<text transform="matrix(1 0 0 1 48.7647 34.4587)" class="st8 st9">40 </text>
	<text transform="matrix(1 0 0 1 52.585 34.4587)"><tspan x="0" y="0" class="st8 st11">dB</tspan><tspan x="3.1" y="0" class="st8 st11">A</tspan></text>
</g>
<rect x="31.7" y="30.9" class="st10" width="10.4" height="5.6"/>
<polygon class="st3" points="42.1,36.5 42.1,36.4 31.8,36.4 31.8,31 42,31 42,36.5 42.1,36.5 42.1,36.4 42.1,36.5 42.1,36.5 
	42.1,30.8 31.6,30.8 31.6,36.5 42.1,36.5 42.1,36.5 "/>
<g>
	<text transform="matrix(1 0 0 1 32.5108 34.4587)" class="st8 st9">30 </text>
	<text transform="matrix(1 0 0 1 36.1885 34.4587)"><tspan x="0" y="0" class="st8 st11">dB</tspan><tspan x="3.1" y="0" class="st8 st11">A</tspan></text>
</g>
<rect x="62" y="30.9" class="st10" width="10.4" height="5.6"/>
<polygon class="st3" points="72.4,36.5 72.4,36.4 62.1,36.4 62.1,31 72.3,31 72.3,36.5 72.4,36.5 72.4,36.4 72.4,36.5 72.4,36.5 
	72.4,30.8 61.9,30.8 61.9,36.5 72.4,36.5 72.4,36.5 "/>
<g>
	<text transform="matrix(1 0 0 1 62.8741 34.4587)" class="st8 st9">45 </text>
	<text transform="matrix(1 0 0 1 66.4493 34.4587)"><tspan x="0" y="0" class="st8 st11">dB</tspan><tspan x="3.1" y="0" class="st8 st11">A</tspan></text>
</g>
<rect x="76" y="30.9" class="st10" width="10.4" height="5.6"/>
<polygon class="st3" points="86.4,36.5 86.4,36.4 76.1,36.4 76.1,31 86.3,31 86.3,36.5 86.4,36.5 86.4,36.4 86.4,36.5 86.4,36.5 
	86.4,30.8 75.9,30.8 75.9,36.5 86.4,36.5 86.4,36.5 "/>
<text transform="matrix(1 0 0 1 80.0303 34.4587)" class="st8 st9"> </text>
<g>
	<text transform="matrix(1 0 0 1 76.8086 34.4587)" class="st8 st9">50</text>
	<text transform="matrix(1 0 0 1 80.4893 34.4587)"><tspan x="0" y="0" class="st8 st11">dB</tspan><tspan x="3.1" y="0" class="st8 st11">A</tspan></text>
</g>
<rect x="90" y="30.9" class="st10" width="10.4" height="5.6"/>
<polygon class="st3" points="100.3,36.5 100.3,36.4 90.1,36.4 90.1,31 100.3,31 100.3,36.5 100.3,36.5 100.3,36.4 100.3,36.5 
	100.4,36.5 100.4,30.8 89.9,30.8 89.9,36.5 100.4,36.5 100.4,36.5 "/>
<g>
	<text transform="matrix(1 0 0 1 90.919 34.4587)" class="st8 st9">55 </text>
	<text transform="matrix(1 0 0 1 94.3536 34.4587)"><tspan x="0" y="0" class="st8 st11">dB</tspan><tspan x="3.1" y="0" class="st8 st11">A</tspan></text>
</g>
<rect x="104" y="30.9" class="st10" width="10.4" height="5.6"/>
<polygon class="st3" points="114.3,36.5 114.3,36.4 104,36.4 104,31 114.2,31 114.2,36.5 114.3,36.5 114.3,36.4 114.3,36.5 
	114.4,36.5 114.4,30.8 103.9,30.8 103.9,36.5 114.4,36.5 114.4,36.5 "/>
<g>
	<text transform="matrix(1 0 0 1 104.7422 34.4587)" class="st8 st9">60 </text>
	<text transform="matrix(1 0 0 1 108.5049 34.4587)"><tspan x="0" y="0" class="st8 st11">dB</tspan><tspan x="3.1" y="0" class="st8 st11">A</tspan></text>
</g>
<rect x="117.9" y="30.9" class="st10" width="10.4" height="5.6"/>
<polygon class="st3" points="128.3,36.5 128.3,36.4 118,36.4 118,31 128.2,31 128.2,36.5 128.3,36.5 128.3,36.4 128.3,36.5 
	128.4,36.5 128.4,30.8 117.9,30.8 117.9,36.5 128.4,36.5 128.4,36.5 "/>
<g>
	<text transform="matrix(1 0 0 1 118.8516 34.4587)" class="st8 st9">65 </text>
	<text transform="matrix(1 0 0 1 122.3692 34.4587)"><tspan x="0" y="0" class="st8 st11">dB</tspan><tspan x="3.1" y="0" class="st8 st11">A</tspan></text>
</g>
<rect x="131.9" y="30.9" class="st10" width="10.4" height="5.6"/>
<polygon class="st3" points="142.3,36.5 142.3,36.4 132,36.4 132,31 142.2,31 142.2,36.5 142.3,36.5 142.3,36.4 142.3,36.5 
	142.4,36.5 142.4,30.8 131.9,30.8 131.9,36.5 142.4,36.5 142.4,36.5 "/>
<text transform="matrix(1 0 0 1 135.9356 34.4587)" class="st8 st9"> </text>
<g>
	<text transform="matrix(1 0 0 1 132.7999 34.4587)"><tspan x="0" y="0" class="st8 st9">7</tspan><tspan x="1.4" y="0" class="st8 st9">0</tspan></text>
	<text transform="matrix(1 0 0 1 136.3956 34.4587)"><tspan x="0" y="0" class="st8 st11">dB</tspan><tspan x="3.1" y="0" class="st8 st11">A</tspan></text>
</g>
<rect x="145.9" y="30.9" class="st10" width="10.4" height="5.6"/>
<polygon class="st3" points="156.3,36.5 156.3,36.4 146,36.4 146,31 156.2,31 156.2,36.5 156.3,36.5 156.3,36.4 156.3,36.5 
	156.4,36.5 156.4,30.8 145.8,30.8 145.8,36.5 156.4,36.5 156.4,36.5 "/>
<text transform="matrix(1 0 0 1 149.795 34.4587)" class="st8 st9"> </text>
<g>
	<text transform="matrix(1 0 0 1 146.9161 34.4587)"><tspan x="0" y="0" class="st8 st9">7</tspan><tspan x="1.4" y="0" class="st8 st9">5</tspan></text>
	<text transform="matrix(1 0 0 1 150.254 34.4587)"><tspan x="0" y="0" class="st8 st11">dB</tspan><tspan x="3.1" y="0" class="st8 st11">A</tspan></text>
</g>
<rect x="159.9" y="30.9" class="st10" width="10.4" height="5.6"/>
<polygon class="st3" points="170.3,36.5 170.3,36.4 160,36.4 160,31 170.2,31 170.2,36.5 170.3,36.5 170.3,36.4 170.3,36.5 
	170.4,36.5 170.4,30.8 159.8,30.8 159.8,36.5 170.4,36.5 170.4,36.5 "/>
<g>
	<text transform="matrix(1 0 0 1 160.7149 34.4587)" class="st8 st9">80 </text>
	<text transform="matrix(1 0 0 1 164.4297 34.4587)"><tspan x="0" y="0" class="st8 st11">dB</tspan><tspan x="3.1" y="0" class="st8 st11">A</tspan></text>
</g>
<rect x="173.9" y="30.9" class="st10" width="10.4" height="5.6"/>
<polygon class="st3" points="184.3,36.5 184.3,36.4 174,36.4 174,31 184.2,31 184.2,36.5 184.3,36.5 184.3,36.4 184.3,36.5 
	184.3,36.5 184.3,30.8 173.8,30.8 173.8,36.5 184.3,36.5 184.3,36.5 "/>
<text transform="matrix(1 0 0 1 177.834 34.4587)" class="st8 st9"> </text>
<g>
	<text transform="matrix(1 0 0 1 174.8243 34.4587)" class="st8 st9">85</text>
	<text transform="matrix(1 0 0 1 178.293 34.4587)"><tspan x="0" y="0" class="st8 st11">dB</tspan><tspan x="3.1" y="0" class="st8 st11">A</tspan></text>
</g>
<rect x="187.9" y="30.9" class="st10" width="10.4" height="5.6"/>
<polygon class="st3" points="198.3,36.5 198.3,36.4 188,36.4 188,31 198.2,31 198.2,36.5 198.3,36.5 198.3,36.4 198.3,36.5 
	198.3,36.5 198.3,30.8 187.8,30.8 187.8,36.5 198.3,36.5 198.3,36.5 "/>
<text transform="matrix(1 0 0 1 191.9688 34.4587)" class="st8 st9"> </text>
<g>
	<text transform="matrix(1 0 0 1 188.6651 34.4587)" class="st8 st9">90</text>
	<text transform="matrix(1 0 0 1 192.4278 34.4587)"><tspan x="0" y="0" class="st8 st11">dB</tspan><tspan x="3.1" y="0" class="st8 st11">A</tspan></text>
</g>
<rect x="201.9" y="30.9" class="st10" width="10.4" height="5.6"/>
<polygon class="st3" points="212.2,36.5 212.2,36.4 201.9,36.4 201.9,31 212.2,31 212.2,36.5 212.2,36.5 212.2,36.4 212.2,36.5 
	212.3,36.5 212.3,30.8 201.8,30.8 201.8,36.5 212.3,36.5 212.3,36.5 "/>
<text transform="matrix(1 0 0 1 205.8272 34.4587)" class="st8 st9"> </text>
<g>
	<text transform="matrix(1 0 0 1 202.7803 34.4587)"><tspan x="0" y="0" class="st8 st9">9</tspan><tspan x="1.6" y="0" class="st8 st9">5</tspan></text>
	<text transform="matrix(1 0 0 1 206.2872 34.4587)"><tspan x="0" y="0" class="st8 st11">dB</tspan><tspan x="3.1" y="0" class="st8 st11">A</tspan></text>
</g>
<rect x="215.9" y="30.9" class="st10" width="10.4" height="5.6"/>
<polygon class="st3" points="226.2,36.5 226.2,36.4 215.9,36.4 215.9,31 226.1,31 226.1,36.5 226.2,36.5 226.2,36.4 226.2,36.5 
	226.3,36.5 226.3,30.8 215.8,30.8 215.8,36.5 226.3,36.5 226.3,36.5 "/>
<g>
	<text transform="matrix(1 0 0 1 216.2676 34.4587)"><tspan x="0" y="0" class="st8 st9">1</tspan><tspan x="0.8" y="0" class="st8 st9">0</tspan><tspan x="2.5" y="0" class="st8 st9">0</tspan></text>
	<text transform="matrix(1 0 0 1 220.7754 34.4587)"><tspan x="0" y="0" class="st8 st11">dB</tspan><tspan x="3.1" y="0" class="st8 st11">A</tspan></text>
</g>
<rect x="229.8" y="30.9" class="st10" width="10.4" height="5.6"/>
<polygon class="st3" points="240.2,36.5 240.2,36.4 229.9,36.4 229.9,31 240.1,31 240.1,36.5 240.2,36.5 240.2,36.4 240.2,36.5 
	240.3,36.5 240.3,30.8 229.8,30.8 229.8,36.5 240.3,36.5 240.3,36.5 "/>
<text transform="matrix(1 0 0 1 230.2862 34.4587)" class="st8 st9">10</text>
<text transform="matrix(1 0 0 1 232.8272 34.4587)" class="st8 st9">5 </text>
<text transform="matrix(1 0 0 1 234.7295 34.4587)"><tspan x="0" y="0" class="st8 st11">dB</tspan><tspan x="3.1" y="0" class="st8 st11">A</tspan></text>
<rect x="15.5" y="30.9" class="st10" width="10.4" height="5.6"/>
<polygon class="st3" points="25.8,36.5 25.8,36.4 15.6,36.4 15.6,31 25.8,31 25.8,36.5 25.8,36.5 25.8,36.4 25.8,36.5 25.9,36.5 
	25.9,30.8 15.4,30.8 15.4,36.5 25.9,36.5 25.9,36.5 "/>
<g>
	<text transform="matrix(1 0 0 1 17.0401 34.4587)" class="st8 st9">0 </text>
	<text transform="matrix(1 0 0 1 19.2325 34.4587)"><tspan x="0" y="0" class="st8 st11">dB</tspan><tspan x="3.1" y="0" class="st8 st11">A</tspan></text>
</g>
<path class="st7" d="M244.8,47.9l1.1,0.8l2.8-1.1l-2.8-0.5c-0.1,0-0.1,0-0.2,0l-0.8,0.3c-0.1,0-0.2,0.1-0.2,0.2
	C244.6,47.7,244.7,47.8,244.8,47.9 M252.8,47.1c-0.1-0.3-0.4-0.5-0.8-0.5c-0.1,0-0.2,0-0.3,0.1l-2.5,1l-3,1.2l-3.1,1.2l-0.7-0.4
	c-0.3-0.1-0.6-0.2-0.9,0c-0.1,0-0.2,0.1-0.2,0.2c0,0.1,0,0.2,0.1,0.3l1.1,1.3l-0.2,0.9c0,0.1,0,0.2,0.1,0.3c0.1,0.1,0.2,0.1,0.3,0.1
	l0.4-0.2c0,0,0.1-0.1,0.1-0.1l0.6-0.8l3-1.2l0.1,3c0,0.1,0.1,0.2,0.1,0.2c0,0,0.1,0,0.2,0c0,0,0.1,0,0.1,0l0.9-0.3
	c0.1,0,0.1-0.1,0.2-0.2l1.6-4l2.4-1c0.2-0.1,0.4-0.3,0.5-0.5C252.9,47.5,252.9,47.3,252.8,47.1"/>
<path class="st7" d="M188.4,46.4c-0.1,0.1-0.1,0.2-0.1,0.2v5.6c0,0.1,0,0.1,0,0.1c0,0,0,0.1,0.1,0.1s0.1,0,0.1,0.1c0,0,0.1,0,0.1,0
	c0.1,0,0.1,0,0.1,0c0,0,0.1,0,0.1,0c0.1,0,0.1,0,0.1,0c0,0.4,0.1,0.7,0.4,1c0.3,0.3,0.6,0.4,1,0.4c0.4,0,0.7-0.1,1-0.4
	c0.3-0.3,0.4-0.6,0.4-1h2.1c0,0.4,0.1,0.7,0.4,1c0.3,0.3,0.6,0.4,1,0.4c0.4,0,0.7-0.1,1-0.4c0.3-0.3,0.4-0.6,0.4-1h0.4
	c0,0,0.1,0,0.1,0c0.1,0,0.1,0,0.1,0c0,0,0.1,0,0.1,0c0.1,0,0.1,0,0.1,0c0,0,0.1,0,0.1-0.1c0,0,0.1-0.1,0.1-0.1c0,0,0-0.1,0-0.1
	c0-0.1,0-0.2-0.1-0.2s-0.2-0.1-0.2-0.1v-1.7c0,0,0-0.1,0-0.2c0-0.1,0-0.2,0-0.2c0,0,0-0.1,0-0.2c0-0.1,0-0.2,0-0.2
	c0,0,0-0.1-0.1-0.2c0-0.1-0.1-0.1-0.1-0.2l-1.1-1.1c-0.1-0.1-0.2-0.1-0.3-0.2c-0.1,0-0.2-0.1-0.3-0.1h-0.9v-1c0-0.1,0-0.2-0.1-0.2
	c-0.1-0.1-0.2-0.1-0.2-0.1h-5.6C188.5,46.3,188.5,46.4,188.4,46.4 M194.8,53.1c-0.1-0.1-0.2-0.3-0.2-0.5s0.1-0.4,0.2-0.5
	c0.1-0.1,0.3-0.2,0.5-0.2c0.2,0,0.4,0.1,0.5,0.2c0.1,0.1,0.2,0.3,0.2,0.5s-0.1,0.4-0.2,0.5c-0.1,0.1-0.3,0.2-0.5,0.2
	C195.1,53.3,194.9,53.2,194.8,53.1 M194.6,48.4h0.9c0,0,0.1,0,0.1,0l1.1,1.1c0,0,0,0.1,0,0.1v0.2h-2.1V48.4z M189.9,53.1
	c-0.1-0.1-0.2-0.3-0.2-0.5s0.1-0.4,0.2-0.5c0.1-0.1,0.3-0.2,0.5-0.2c0.2,0,0.4,0.1,0.5,0.2c0.1,0.1,0.2,0.3,0.2,0.5
	s-0.1,0.4-0.2,0.5c-0.1,0.1-0.3,0.2-0.5,0.2C190.2,53.3,190,53.2,189.9,53.1"/>
<path class="st7" d="M141.2,47.1c-0.1-0.1-0.1-0.1-0.2,0l-1.7,1.7l-0.2-0.2l1.7-1.7c0.1-0.1,0.1-0.1,0-0.2c-0.1-0.1-0.1-0.1-0.2,0
	l-1.7,1.7l-0.2-0.2l1.7-1.7c0.1-0.1,0.1-0.1,0-0.2s-0.1-0.1-0.2,0l-1.7,1.7l-0.2-0.2l1.7-1.7c0.1-0.1,0.1-0.1,0-0.2s-0.1-0.1-0.2,0
	l-2.1,2.1c-0.3,0.3-0.4,0.8-0.2,1.2l-4.2,3.8l0,0c-0.3,0.3-0.3,0.7,0,1c0.3,0.3,0.7,0.3,1,0l0,0l3.8-4.2c0.4,0.2,0.8,0.1,1.2-0.2
	l2.1-2.1C141.2,47.3,141.2,47.2,141.2,47.1"/>
<path class="st7" d="M135.6,47.3c-1-1-2.2-1.3-2.8-0.7c-0.6,0.6-0.3,1.8,0.7,2.8c0.5,0.5,1.2,0.6,1.8,0.2l3.8,4.2l0,0
	c0.3,0.3,0.7,0.3,1,0c0.3-0.3,0.3-0.7,0-1l0,0l-4.2-3.8C136.1,48.6,136.1,47.8,135.6,47.3"/>
<path class="st7" d="M25,54h10.8c0.2,0,0.4-0.2,0.4-0.4v-6.9c0-0.2-0.2-0.4-0.4-0.4h-2.7v-2.5c0-0.2-0.1-0.3-0.2-0.4
	c0,0-0.1,0-0.1,0c-0.1,0-0.2,0-0.3,0.1l-2.8,2.7H25c-0.2,0-0.4,0.2-0.4,0.4v6.9C24.6,53.9,24.8,54,25,54"/>
<path class="st7" d="M83.6,54h10.8c0.2,0,0.4-0.2,0.4-0.4v-6.9c0-0.2-0.2-0.4-0.4-0.4h-2.7v-2.5c0-0.2-0.1-0.3-0.2-0.4
	c0,0-0.1,0-0.1,0c-0.1,0-0.2,0-0.3,0.1l-2.8,2.7h-4.7c-0.2,0-0.4,0.2-0.4,0.4v6.9C83.3,53.9,83.4,54,83.6,54"/>
<path class="st7" d="M109.8,54h10.8c0.2,0,0.4-0.2,0.4-0.4v-6.9c0-0.2-0.2-0.4-0.4-0.4h-2.7v-2.5c0-0.2-0.1-0.3-0.2-0.4
	c0,0-0.1,0-0.1,0c-0.1,0-0.2,0-0.3,0.1l-2.8,2.7h-4.7c-0.2,0-0.4,0.2-0.4,0.4v6.9C109.4,53.9,109.6,54,109.8,54"/>
<path class="st7" d="M145.5,54h10.8c0.2,0,0.4-0.2,0.4-0.4v-6.9c0-0.2-0.2-0.4-0.4-0.4h-2.7v-2.5c0-0.2-0.1-0.3-0.2-0.4
	c0,0-0.1,0-0.1,0c-0.1,0-0.2,0-0.3,0.1l-2.8,2.7h-4.7c-0.2,0-0.4,0.2-0.4,0.4v6.9C145.1,53.9,145.3,54,145.5,54"/>
<path class="st7" d="M165.8,54h10.8c0.2,0,0.4-0.2,0.4-0.4v-6.9c0-0.2-0.2-0.4-0.4-0.4h-2.7v-2.5c0-0.2-0.1-0.3-0.2-0.4
	c0,0-0.1,0-0.1,0c-0.1,0-0.2,0-0.3,0.1l-2.8,2.7h-4.7c-0.2,0-0.4,0.2-0.4,0.4v6.9C165.4,53.9,165.6,54,165.8,54"/>
<path class="st7" d="M71.3,46.3h-7c-0.4,0-0.7,0.3-0.7,0.7v4.9c0,0.4,0.3,0.7,0.7,0.7h2.4c0,0.3-0.1,0.7-0.3,0.9
	c-0.1,0.1-0.2,0.1-0.3,0.1c-0.1,0-0.2,0.1-0.2,0.2c0,0.1,0.1,0.2,0.2,0.2h3.1c0.1,0,0.2-0.1,0.2-0.2c0-0.1-0.1-0.2-0.2-0.2
	c-0.1,0-0.2,0-0.3-0.1c-0.2-0.2-0.3-0.7-0.3-0.9h2.5c0.4,0,0.7-0.3,0.7-0.7V47C72,46.6,71.7,46.3,71.3,46.3 M67.8,52.3
	c-0.2,0-0.4-0.2-0.4-0.4c0-0.2,0.2-0.4,0.4-0.4c0.2,0,0.4,0.2,0.4,0.4C68.2,52.1,68,52.3,67.8,52.3 M64.3,51.2V47h7v4.2H64.3z"/>
<path class="st7" d="M46.8,49.9h-0.7v-0.7c0-0.1-0.1-0.2-0.2-0.2c-0.1,0-0.2,0.1-0.2,0.2v1c0,0.1,0.1,0.2,0.2,0.2h1
	c0.1,0,0.2-0.1,0.2-0.2S47,49.9,46.8,49.9"/>
<path class="st7" d="M48.5,50.2c0-0.9-0.5-1.7-1.2-2.2l0,0v-1.6h-2.9v1.6c-0.7,0.5-1.2,1.3-1.2,2.2c0,0.9,0.5,1.7,1.2,2.2V54h2.9
	v-1.6C48,51.9,48.5,51.1,48.5,50.2 M45.9,52.2c-1.1,0-2-0.9-2-2c0-1.1,0.9-2,2-2c1.1,0,2,0.9,2,2C47.9,51.3,47,52.2,45.9,52.2"/>
<path class="st7" d="M225.3,47.2l-0.1-0.1l0.1-0.1c0.1-0.1,0.1-0.3-0.1-0.4c-0.1-0.1-0.2-0.1-0.3-0.1c-0.1,0-0.1,0-0.2,0l-0.1,0.1
	l-0.1-0.1c0,0-0.1,0-0.2,0c0,0.1,0,0.1,0,0.2l0.1,0.1l-0.1,0.1l-0.1-0.1c0-0.1-0.1-0.1-0.2,0c0,0,0,0.1,0,0.2l0.1,0.1l-0.1,0.1
	l-0.1-0.1c0,0-0.1,0-0.2,0c-0.1,0-0.1,0.1,0,0.2l0.1,0.1l0,0c-0.1,0.1-0.1,0.3,0,0.5l-1.8,1.7c-0.1,0-0.2,0-0.3,0.1l-4,1.7
	c-0.1,0-0.1,0.1-0.1,0.1c-0.2,0.2-0.2,0.5,0,0.6c0.1,0.1,0.2,0.1,0.3,0.1l0,0v0c0,0,0,0,0.1,0l0.9-0.1l1-0.1c0.1,0,0.1,0,0.2,0.1
	c0,0,0.1,0.1,0.1,0.2l-0.2,2c0,0.1,0,0.3,0.1,0.4c0.1,0.1,0.2,0.1,0.3,0.1c0.1,0,0.2,0,0.3-0.1c0,0,0.1-0.1,0.1-0.1l1.7-4
	c0-0.1,0.1-0.2,0-0.3l1.7-1.8c0.1,0,0.1,0.1,0.2,0.1c0.1,0,0.2,0,0.3-0.1l0,0l0.1,0.1c0,0,0.1,0,0.1,0c0,0,0.1,0,0.1,0
	c0-0.1,0-0.1,0-0.2l-0.1-0.1l0.1-0.1l0.1,0.1c0,0,0.1,0,0.1,0c0,0,0.1,0,0.1,0c0.1-0.1,0.1-0.1,0-0.2l-0.1-0.1l0.1-0.1l0.1,0.1
	c0,0,0.1,0,0.1,0c0,0,0.1,0,0.1,0C225.4,47.3,225.4,47.2,225.3,47.2 M220.9,52.2c0,0.1-0.1,0.1-0.1,0.1c-0.1,0-0.1-0.1-0.1-0.1
	s0.1-0.1,0.1-0.1C220.9,52.1,220.9,52.1,220.9,52.2 M220.8,52.7c0,0.1-0.1,0.1-0.1,0.1c-0.1,0-0.1-0.1-0.1-0.1
	c0-0.1,0.1-0.1,0.1-0.1C220.7,52.5,220.8,52.6,220.8,52.7 M221.2,50.9C221.1,50.9,221.1,50.9,221.2,50.9l-0.3-0.3c0-0.1,0-0.1,0-0.2
	c0.1-0.1,0.1-0.1,0.2,0l0.2,0.3C221.3,50.7,221.3,50.8,221.2,50.9C221.2,50.9,221.2,50.9,221.2,50.9 M220.8,51.5
	C220.8,51.5,220.8,51.5,220.8,51.5l-0.6-0.5c-0.1-0.1-0.1-0.1,0-0.2c0.1-0.1,0.1-0.1,0.2,0l0.5,0.5C221,51.3,221,51.4,220.8,51.5
	C220.9,51.5,220.9,51.5,220.8,51.5"/>
<text transform="matrix(1 0 0 1 25.3819 49.6813)" class="st10 st8 st9">Huma</text>
<text transform="matrix(1 0 0 1 32.4014 49.6813)" class="st10 st8 st9">n</text>
<text transform="matrix(1 0 0 1 25.3819 52.4362)" class="st10 st8 st9">Whisper</text>
<text transform="matrix(1 0 0 1 146.4249 49.5827)" class="st10 st8 st9">Loud</text>
<text transform="matrix(1 0 0 1 152.5713 49.5827)" class="st10 st8 st9"> </text>
<text transform="matrix(1 0 0 1 146.4249 52.3376)" class="st10 st8 st9">Speech</text>
<text transform="matrix(1 0 0 1 166.0508 49.5827)" class="st10 st8 st9">Shouted</text>
<text transform="matrix(1 0 0 1 176.1534 49.5827)" class="st10 st8 st9"> </text>
<text transform="matrix(1 0 0 1 166.0508 52.3376)" class="st10 st8 st9">Speech</text>
<text transform="matrix(1 0 0 1 110.6924 49.5827)" class="st10 st8 st9">Raised</text>
<text transform="matrix(1 0 0 1 118.7657 49.5827)" class="st10 st8 st9"> </text>
<text transform="matrix(1 0 0 1 110.6924 52.3376)" class="st10 st8 st9">Speech</text>
<text transform="matrix(1 0 0 1 84.5225 49.6813)" class="st10 st8 st9">Normal </text>
<text transform="matrix(1 0 0 1 84.5225 52.4362)" class="st10 st8 st9">Speech</text>
<g>
	<g>
		<path d="M10.3,33.4c0,2.4-1.9,4.3-4.3,4.3c-2.4,0-4.3-1.9-4.3-4.3c0-2.4,1.9-4.3,4.3-4.3C8.4,29.1,10.3,31,10.3,33.4"/>
	</g>
	<g>
		<path class="st12" d="M7.2,33.4c0,0.5-0.2,0.9-0.6,1.3L7,35c0.4-0.5,0.7-1,0.7-1.6c0-0.5-0.2-1-0.6-1.5l-0.3,0.3
			C7.1,32.6,7.2,33,7.2,33.4z"/>
		<polygon class="st12" points="4.9,32.5 4.9,32.5 4.1,32.5 4.1,34.6 4.9,34.6 4.9,34.6 6.1,35.5 6.1,31.5 		"/>
	</g>
</g>
<g>
	<path d="M263.2,33.4c0,2.4-1.9,4.3-4.3,4.3c-2.4,0-4.3-1.9-4.3-4.3c0-2.4,1.9-4.3,4.3-4.3C261.3,29.1,263.2,31,263.2,33.4"/>
	<g>
		<g>
			<path class="st10" d="M256.1,33.3c0,0.8,0.4,1.6,1.1,2.3l0.4-0.4l0.1-0.1c-0.6-0.6-0.9-1.2-0.9-1.9c0-0.6,0.3-1.2,0.8-1.7
				l-0.1-0.1l-0.4-0.4C256.4,31.8,256.1,32.5,256.1,33.3z"/>
			<path class="st10" d="M257.8,33.3c0-0.4,0.2-0.8,0.5-1.2l-0.3-0.3c-0.4,0.5-0.6,1-0.6,1.5c0,0.6,0.2,1.1,0.7,1.6l0.3-0.3
				C258,34.3,257.8,33.8,257.8,33.3z"/>
			<path class="st10" d="M258.7,33.4c0-0.2,0.1-0.4,0.2-0.6l-0.3-0.2c-0.2,0.2-0.3,0.5-0.3,0.9c0,0.4,0.2,0.7,0.4,1l0.3-0.2
				C258.8,33.9,258.7,33.6,258.7,33.4z"/>
		</g>
		<polygon class="st12" points="261.6,32.4 260.8,32.4 259.6,31.5 259.6,35.5 260.8,34.5 260.8,34.5 261.6,34.5 		"/>
	</g>
</g>
<polygon points="247.4,36.6 251.1,33.7 247.4,30.8 "/>
</svg>
