<svg xmlns="http://www.w3.org/2000/svg" width="300" height="74"><g fill="none" fill-rule="nonzero"><path fill="#AE2186" d="M37.07 56.5V26.02h7.62V56.5h-7.62zm8.38-51.42c0-2.54-2-4.67-4.6-4.67a4.67 4.67 0 00-4.67 4.67c0 2.54 2.06 4.6 4.67 4.6 2.6 0 4.6-2 4.6-4.6z"/><path fill="#D31D58" d="M20.73 2.06v30.48h-7.62V2.06h7.62zM12.3 53.4c0 2.54 1.99 4.67 4.6 4.67a4.67 4.67 0 004.67-4.67c0-2.54-2.06-4.6-4.67-4.6a4.6 4.6 0 00-4.6 4.6z"/><path fill="#D01789" d="M56.09 21.08H25.6v-7.62h30.48v7.62zM4.74 12.7c-2.54 0-4.67 2-4.67 4.6a4.67 4.67 0 004.67 4.67c2.54 0 4.6-2.06 4.6-4.67a4.6 4.6 0 00-4.6-4.6z"/><path fill="#EB1F46" d="M1.65 37.41h30.48v7.62H1.65v-7.62zm51.42 8.45c2.54 0 4.66-2 4.66-4.6a4.67 4.67 0 00-4.66-4.67 4.62 4.62 0 00-4.6 4.67c0 2.6 2.06 4.6 4.6 4.6z"/><g fill="#564941"><path d="M76.13 56.64V2.4H85v54.24h-8.86zm99.75-49.7c0-2.82-2.2-5.09-5.01-5.09a5.07 5.07 0 00-5.08 5.08 5.01 5.01 0 005.08 5.02c2.81 0 5.01-2.2 5.01-5.02zm-.69 49.7V18.4h-8.65v38.24h8.65zm-48.94-23.07c0-10.5-6.73-16.27-17.85-16.27-7.7 0-13.87 3.5-14.62 3.84v35.5h8.65V26.09c.96-.41 3.5-1.44 6.38-1.44 5.84 0 8.79 3.3 8.79 8.78v23.14h8.65v-23zm131.8 0c0-10.02-7-16.27-16-16.27-5.2 0-7.54 1.51-7.75 1.65V.4h-8.65v56.23h8.65V26.09c.28-.14 2.89-1.44 6.18-1.44 5.84 0 9.06 3.15 9.06 8.78v23.14h8.65l-.14-23zm-98.03 12.22c0-6.38-4.6-9.27-9.26-11.26-.83-.34-3.3-1.37-3.71-1.58-3.23-1.37-5.5-2.33-5.5-4.94 0-1.92 1.52-3.78 6.12-3.78 4.39 0 8.23 2.27 8.65 2.47l3.22-5.97c-.2-.14-4.46-3.43-12.35-3.43-8.38 0-14.22 4.53-14.22 11.46 0 6.18 4.4 8.93 8.52 10.65.55.2 4.19 1.78 5 2.05 3.3 1.3 4.88 2.68 4.88 4.81 0 2.33-2.2 4.46-6.8 4.46-4.87 0-8.99-2.68-9.67-3.09l-3.23 5.98c.48.4 5.77 4.05 13.94 4.05 8.3 0 14.41-4.33 14.41-11.88zm57.12-24.65V53.9c0 11.74-5.36 20.05-19.15 20.05a37 37 0 01-9.96-1.24v-7.07c.9.27 4.88 1.3 8.93 1.3 8.58 0 11.6-4.25 11.6-10.16v-.68c-.55.27-3.23 1.5-7.42 1.5-12.35 0-19.15-9.2-19.15-20.1 0-11.54 7.14-20.26 20.05-20.26 7.69.07 14.14 3.43 15.1 3.91zm-8.58 4.95c-.55-.2-3.16-1.44-6.66-1.44-6.45 0-11.2 4.8-11.2 12.83 0 8.65 5.43 12.77 11.2 12.77 3.36 0 6.32-1.17 6.66-1.44V26.09zm65.83-.62h9.82V18.4h-9.82V6.93h-8.5V41.4c0 10.43 4.66 15.24 14.96 15.24.34 0 3.43 0 3.43 0v-7.21c-6.93 0-9.75-2-9.75-9.13l-.14-14.83zM295.47 51.35c-2 0-3.64 1.65-3.64 3.64 0 1.99 1.58 3.57 3.57 3.57 2 0 3.64-1.65 3.64-3.64 0-2-1.58-3.57-3.57-3.57zm3.02 3.57a3 3 0 01-3.02 3.02 3 3 0 01-3.02-3.02 3 3 0 013.02-3.02c1.72 0 3.02 1.3 3.02 3.02zm-2.2.41c.48-.14.76-.55.76-1.1 0-.34-.14-.61-.28-.82a1.45 1.45 0 00-1.1-.41h-1.64v3.64h.82v-1.17h.62l.75 1.17h.97l-.9-1.3zm0-1.1c0 .28-.2.55-.61.55h-.83v-1.1h.76c.4 0 .68.21.68.55z"/></g></g></svg>