<svg xmlns="http://www.w3.org/2000/svg" xmlns:xlink="http://www.w3.org/1999/xlink" viewBox="0 0 166.13 137.6"><defs><clipPath id="clip-path-4"><path d="M70.19.5s-20 22.52-2.9 41.89c0 0-10.12-.09-22.57 5.92C40 27.87 70.19.5 70.19.5z" class="cls-1"/></clipPath><clipPath id="clip-path-2"><path d="M151.59 48.44s-40.43-6.68-42-11.86C105.92 24.41 97.83 19.7 74 18.89c-3.87-.14-8.2-12.2-3.62-18.89C57 10.47 25.6 36.65 17.27 72.81c28.53-18.45 134.67 2.42 134.32-24.37z" class="cls-1"/></clipPath><clipPath id="clip-path-3"><path d="M70.19.5s-20 22.52-2.9 41.89c0 0-29.73-.27-50 30.42C27.87 26.41 70.19.5 70.19.5z" class="cls-1"/></clipPath><clipPath id="clip-path"><path d="M0 0h166.13v137.6H0z" class="cls-1"/></clipPath><clipPath id="clip-path-5"><path d="M41.45 96.53c0-51.77 108.36 13.38 110.2-48.09 0 0-10 10-40.57 6.51-21.79-2.51-45.5-3.49-57.79-.1-25.12 6.94-26.69 32.94-11.84 41.68z" class="cls-1"/></clipPath><clipPath id="clip-path-6"><path d="M41.45 96.53c0-51.77 108.36 13.38 110.2-48.09 0 0-8.06 24.49-35.22 21.35-21.79-2.51-36.24-2.92-49.14-2.32-24.63 1.15-30.56 18.37-25.84 29.06z" class="cls-1"/></clipPath><linearGradient id="linear-gradient" x1="-220.98" x2="-219.98" y1="469.65" y2="469.65" gradientTransform="matrix(-67.25 79.7 79.7 67.25 -52163.85 -13971.4)" gradientUnits="userSpaceOnUse"><stop offset="0" stop-color="#d3d2d2"/><stop offset=".49" stop-color="#7b7979"/><stop offset="1" stop-color="#7b7979"/></linearGradient><linearGradient id="linear-gradient-3" x1="-215.76" x2="-214.76" y1="473.17" y2="473.17" gradientTransform="scale(-41.5 41.5) rotate(75.27 197.963 375.716)" xlink:href="#linear-gradient-2"/><linearGradient id="linear-gradient-5" x1="-219.49" x2="-218.49" y1="463.97" y2="463.97" gradientTransform="matrix(116.73 35.06 35.06 -116.73 9397.42 61908.91)" gradientUnits="userSpaceOnUse"><stop offset="0" stop-color="#d3d2d2"/><stop offset="1" stop-color="#656263"/></linearGradient><linearGradient id="linear-gradient-4" x1="-219.73" x2="-218.73" y1="464.17" y2="464.17" gradientTransform="matrix(129.51 38.9 38.9 -129.51 10435.09 68713.47)" gradientUnits="userSpaceOnUse"><stop offset="0" stop-color="#b7b4b2"/><stop offset=".47" stop-color="#eae8e7"/><stop offset=".72" stop-color="#8c8b8b"/><stop offset="1" stop-color="#868686"/></linearGradient><linearGradient id="linear-gradient-2" x1="-218.06" x2="-217.06" y1="470.54" y2="470.54" gradientTransform="scale(-65.64 65.64) rotate(75.27 195.474 376.349)" gradientUnits="userSpaceOnUse"><stop offset="0" stop-color="#e9e9e9"/><stop offset="1" stop-color="#918f90"/></linearGradient><style>.cls-1{fill:none}.cls-2{fill:#7f7c7d}</style></defs><g id="Layer_2" data-name="Layer 2"><g id="svg2"><path id="path14" d="M1.66 128.15h8.63a7.16 7.16 0 003.56-.6 3 3 0 001.49-2.72 4.11 4.11 0 00-.24-1.39c-.58-1.39-1.83-1.85-3.77-1.85H1.66zm-1.66-8h11.16c1.56 0 3.36 0 4.71 1.44a4.58 4.58 0 011.23 3.2 4.39 4.39 0 01-2.19 3.94 7.94 7.94 0 01-4 .8H1.66v7.6H0v-17" class="cls-2"/><path id="path16" d="M26 128.13h9.11c1.73 0 3.27 0 4.26-1.11a3.39 3.39 0 00.82-2.28 3.1 3.1 0 00-1.16-2.5 4.48 4.48 0 00-2.88-.67H26zm10.1-8a7.64 7.64 0 013.73.65 4.56 4.56 0 012.14 4 4.46 4.46 0 01-1.64 3.61 7.59 7.59 0 01-4.4 1.15l6.83 7.58h-2.31l-6.71-7.58H26v7.58h-1.67v-17h11.74" class="cls-2"/><path id="path18" d="M50.16 120.17h1.61v17h-1.61v-17" class="cls-2"/><path id="path20" d="M74.16 120.17H76l-7.86 17h-1.63l-8-17h1.83l7 15.2 6.81-15.2" class="cls-2"/><path id="path22" d="M83.12 128.71c0 4.66 3.61 7.45 8.28 7.45 4.49 0 8.15-2.72 8.15-7.65a7.13 7.13 0 00-3-6 9.82 9.82 0 00-5.67-1.44c-5.43.28-7.76 4.1-7.76 7.64zm18.28-.1c0 4.91-3.92 9-10.15 9-5.94 0-9.91-3.82-9.91-9 0-5 3.9-9 10.08-9 6.73 0 10 4.62 10 9" class="cls-2"/><path id="path24" d="M110.82 128.13h9.12c1.73 0 3.27 0 4.25-1.11a3.39 3.39 0 00.82-2.28 3.1 3.1 0 00-1.15-2.5 4.51 4.51 0 00-2.89-.67h-10.15zm10.1-8a7.62 7.62 0 013.73.65 4.54 4.54 0 012.14 4 4.44 4.44 0 01-1.63 3.61 7.62 7.62 0 01-4.41 1.15l6.83 7.58h-2.28l-6.71-7.58h-7.77v7.58h-1.63v-17h11.73" class="cls-2"/><path id="path26" d="M135.83 128.71c0 4.66 3.61 7.45 8.27 7.45 4.5 0 8.15-2.72 8.15-7.65a7.15 7.15 0 00-3-6 9.82 9.82 0 00-5.67-1.44c-5.42.28-7.75 4.1-7.75 7.64zm18.27-.1c0 4.91-3.92 9-10.14 9-5.94 0-9.91-3.82-9.91-9 0-5 3.9-9 10.08-9 6.73 0 10 4.62 10 9" class="cls-2"/><g id="g10"><g id="g12" clip-path="url(#clip-path)"><g id="g28"><g id="g30" clip-path="url(#clip-path-2)"><g id="g36"><path id="path50" fill="url(#linear-gradient)" d="M17.2 72.94v-.54h.13v-.53h.14v-.53h.13v-.54h.13v-.53h.14v-.4H18v-.53h.13v-.4h.14v-.4h.13V68h.13v-.4h.14v-.53h.13v-.4h.13v-.53h.14v-.4h.13v-.4h.13v-.27h.14v-.4h.13v-.4h.13v-.4h.14v-.27H20v-.4h.13v-.4h.14v-.4h.13V62h.13v-.26h.14v-.4h.13v-.4h.13v-.4h.14v-.4h.13v-.27h.13v-.4h.14v-.27h.13v-.26h.13v-.4h.14v-.27H22V58h.13v-.26h.14v-.4h.13v-.27h.13v-.27h.14v-.4h.13v-.26h.13v-.27h.14v-.27h.13v-.4h.13v-.26h.14v-.27h.13v-.27h.13V54h.14v-.26H24v-.27h.13v-.27h.14v-.26h.13v-.27h.13v-.27h.14v-.26h.13v-.27h.13v-.27h.14v-.13h.13v-.27h.13v-.26h.14v-.27h.13v-.27h.13v-.26h.14v-.27H26v-.27h.13v-.26h.14v-.27h.13v-.27h.13v-.26h.14v-.14h.13v-.26h.13v-.27h.14v-.27h.13v-.26h.13v-.27h.14v-.13h.13v-.27h.13v-.27h.14v-.13H28V46h.13v-.26h.14v-.14h.13v-.26h.13v-.27h.14v-.13h.13v-.27h.13v-.27h.14v-.13h.13V44h.13v-.26h.14v-.14h.13v-.26h.13v-.27h.14v-.13H30v-.27h.13v-.27h.14v-.13h.13V42h.13v-.13h.14v-.27h.13v-.13h.13v-.27h.14v-.13h.13v-.27h.13v-.13h.14v-.27h.13v-.13h.13V40h.14v-.13H32v-.27h.13v-.13h.14v-.27h.13v-.13h.13v-.27h.14v-.13h.13v-.27h.13v-.13h.14V38h.13v-.13h.13v-.27h.14v-.13h.13v-.27h.13v-.13h.14v-.27H34v-.13h.13v-.13h.14v-.27h.13v-.13h.13V36h.14v-.26h.13v-.14h.13v-.13h.14v-.27h.13v-.13h.13v-.13h.14v-.27h.13v-.13h.13v-.14h.14v-.26H36V34h.13v-.13h.14v-.27h.13v-.13h.13v-.13h.14v-.27h.13v-.13h.13v-.14h.14v-.26h.13v-.14h.13v-.26h.14V32h.13v-.13h.13v-.27h.14v-.13H38v-.13h.13v-.14h.14v-.26h.13v-.14h.13v-.13h.14v-.13h.13v-.14h.13v-.26h.14V30h.13v-.13h.13v-.13h.14v-.27h.13v-.13h.13v-.14h.14v-.13H40v-.13h.13v-.27h.14v-.13h.13v-.14h.13v-.13h.14V28h.13v-.13h.13v-.13h.14v-.14h.13v-.13h.13v-.27h.14v-.13h.13v-.13h.13v-.14h.14v-.13H42v-.27h.13v-.13h.14v-.13h.13V26h.13v-.13h.14v-.13h.13v-.14h.13v-.13h.14v-.27h.13v-.13h.13v-.13h.14v-.14h.13v-.13h.13v-.13h.14v-.14H44v-.13h.13V24h.14v-.13h.13v-.13h.13v-.14h.14v-.13h.13v-.13h.13v-.14h.14v-.26h.13v-.14h.13v-.13h.14v-.13h.13v-.14h.13v-.13h.14v-.13H46V22h.13v-.13h.14v-.13h.13v-.14h.13v-.13h.14v-.27h.13v-.13h.13v-.13h.14v-.14h.13v-.13h.13v-.13h.14v-.14h.13v-.13h.13v-.13h.14V20H48v-.13h.13v-.13h.14v-.14h.13v-.13h.13v-.13h.14v-.14h.13v-.13h.13v-.13h.14v-.14h.13v-.13h.13v-.27h.14v-.13h.13v-.13h.13V18h.14v-.13H50v-.13h.13v-.14h.14v-.13h.13v-.13h.13v-.14h.14v-.13h.13v-.13h.13v-.14h.14v-.13h.13v-.13h.13v-.14h.27v-.13h.13v-.13h.14V16H52v-.13h.13v-.13h.14v-.14h.13v-.13h.13v-.13h.14v-.14h.13v-.13h.13v-.13h.14v-.14h.13v-.13h.13v-.13h.14v-.14h.13v-.13h.13v-.13h.14V14H54v-.13h.13v-.13h.14v-.14h.13v-.13h.13v-.13h.14v-.14h.13v-.13h.13v-.13h.14v-.14h.26v-.13h.14v-.13h.13v-.14h.13v-.13h.14v-.13H56V12h.13v-.13h.14v-.13h.13v-.14h.13v-.13h.14v-.13h.13v-.14h.13v-.13h.27v-.13h.13v-.14h.14v-.13h.13v-.13h.13v-.14h.14v-.13H58v-.13h.13V10h.14v-.13h.26v-.13h.14V9.6h.13v-.13h.13v-.13h.14V9.2h.13v-.13h.13v-.13h.14V8.8h.26v-.13h.14v-.13H60V8.4h.13v-.13h.14v-.13h.13V8h.13v-.13h.27v-.13h.13V7.6h.14v-.13h.13v-.13h.13V7.2h.14v-.13h.13v-.13h.27V6.8H62v-.13h.13v-.13h.14V6.4h.13v-.13h.27v-.13h.13V6h.13v-.13h.14v-.13h.13V5.6h.13v-.13h.27v-.13h.13V5.2h.14v-.13H64v-.13h.13V4.8h.27v-.13h.13v-.13h.14V4.4h.13v-.13h.13v-.13h.27V4h.13v-.13h.14v-.13h.13V3.6h.27v-.13H66v-.13h.13V3.2h.14v-.13h.13v-.13h.27V2.8h.13v-.13h.13v-.13h.14V2.4h.26v-.13h.14v-.13h.13V2h.13v-.13H68v-.13h.13V1.6h.14v-.13h.13v-.13h.27V1.2h.13v-.13h.13V.94h.14V.8h.26V.67h.14V.54h.13V.4h.13V.27H70V.14h.13V0h.27v.27h-.13V.4h-.14v.27H70v.27h-.13v.26h-.14v.27h-.13v.27h-.13v.4h-.14v.26h-.13v.4h-.13v.54h-.14v.53h-.13v.53h-.13v.94h-.14v3.73h.14v1.07h.13v.66h.13v.67h.14V12h.13v.4h.13v.4h.14v.54h.13v.26h.13v.4h.14v.27H70v.4h.13v.27h.14v.26h.13v.27h.13v.27h.14V16h.13v.14h.13v.26h.14v.14h.13v.26h.13v.14h.14v.13h.13v.27h.13v.13h.14v.13H72v.14h.13v.13h.14V18h.13v.14h.13v.13h.27v.13h.27v.14h.26v.13h.27v.13h1.87v.14h2.66v.13H80v.13h1.73v.14h1.47v.13h1.2v.13h1.2v.14h.93v.13h.8V20h.94v.14h.8v.13h.66v.13h.67v.14h.67v.13h.66v.13h.54v.14h.53v.13h.53v.13h.4v.14h.54v.13h.53v.13h.4v.14h.27v.13h.4V22h.4v.14h.4v.13h.4v.13h.26v.14h.27v.13h.4v.13h.27v.14h.26v.13h.27v.13h.27v.14h.4v.13h.13v.13h.27v.14h.26v.13h.27V24h.13v.14h.27v.13h.27v.13h.13v.14h.27v.13h.13v.13h.27v.14h.13v.13h.13v.13h.27v.14h.13v.13h.27v.13h.13v.14h.14v.13h.13V26h.13v.14h.14v.13h.26v.13h.14v.14h.13v.13h.13v.13h.14v.14h.13v.13h.13v.13h.14v.14h.13v.13h.13v.27h.14v.13h.13V28h.13v.14h.14v.13h.13v.13h.13v.27h.14v.13h.13v.14h.13v.26h.14v.14h.13v.26h.13v.14h.14V30h.13v.14h.13v.26h.14v.14h.13v.26h.13v.27h.14v.27h.13v.26h.13v.27h.14V32h.13v.27h.13v.4h.14v.27h.13v.26h.13v.4h.14v.27h.13v.27h.13v.4h.14v.4h.13v.4h.13v.4h.14v.4h.13v.4h.13v.26h.14v.27h.13v.13h.13v.14h.14v.13h.13v.13h.27v.14h.13v.13h.13V38h.27v.14h.27v.13h.13v.13h.27v.14h.26v.13h.27v.13h.27v.14h.26v.13h.27v.13h.27v.14h.4v.13h.26v.13h.4v.14h.27v.13h.4V40h.27v.14h.4v.13h.4v.13h.4v.14h.4v.13h.4v.13h.4v.14h.4v.13h.4v.13h.53v.14h.4v.13h.4v.13h.53v.14h.4v.13h.54V42h.4v.14h.53v.13h.53v.13h.4v.14h.54v.13h.53v.13h.53v.14h.54v.13h.53v.13h.53v.14h.54v.13h.53v.13h.53v.14h.54v.13h.66V44h.54v.14h.53v.13h.67v.13h.53v.14h.67v.13h.53v.13h.67v.14h.66v.13h.54v.13h.66v.14h.67v.13h.67v.13h.53v.14h.67v.13h.66V46h.67v.14h.67v.13h.66v.13h.67v.14h.67v.13h.8v.13h.66v.14h.67v.13h.8v.13h.67v.14h.66v.13h.8v.13h.67v.14h.8v.13h.8V48h.67v.14h.8v.13h.8v.13h.13V50h-.13v.8h-.14v.4h-.13v.27h-.13v.4h-.14v.27h-.13v.26h-.13v.4h-.14v.27h-.13v.13h-.13v.27h-.14v.13H150v.14h-.13v.13h-.14v.27h-.13v.13h-.13v.13h-.14v.27h-.13v.13h-.13v.14h-.14v.13h-.13v.13h-.13v.14h-.27v.13h-.13v.13h-.14v.14H148v.13h-.13V56h-.27v.14h-.13v.13h-.14v.13h-.13v.14h-.27v.13h-.26v.13h-.14v.14h-.26v.13H146v.13h-.13v.14h-.27v.13h-.27v.13h-.26v.14h-.14v.13h-.26V58h-.4v.14H144v.13h-.27v.13h-.4v.14h-.26v.13h-.27v.13h-.4v.14h-.27v.13h-.4v.13h-.4v.14h-.4v.13h-.4v.13h-.4v.14h-.53v.13h-.4V60h-.4v.14h-.53v.13h-.54v.13h-.53v.14h-.53v.13H136v.13h-.53v.14h-.54v.13h-.8v.13h-.66v.14h-.8v.13h-.8v.13h-.67v.14h-.93v.13h-1.07V62h-.93v.14h-1.07v.13h-1.07v.13h-1.33v.14h-1.33v.13h-1.34v.13h-1.73v.14h-1.87v.13h-1.86v.13H114v.14h-2.67v.13h-3.6v.13h-4.66v.14h-6.8v.13H85.6V64h-10v.14h-6.67v.13H64.4v.13h-3.73v.14h-2.8v.13H55.2v.13h-2v.14h-2v.13h-1.73v.13h-1.6v.14H46.4v.13h-1.47v.13h-1.06v.14h-1.2v.13h-1.2V66H40.4v.14h-.93v.13h-.94v.13h-.8v.14h-.93v.13H36v.13h-.8v.14h-.67v.13h-.66v.13h-.67v.14h-.8v.13h-.67v.13h-.53v.14h-.53v.13h-.54V68h-.53v.14h-.53v.13h-.54v.13H28v.14h-.53v.13h-.54v.13h-.4v.14h-.4v.13h-.4v.13h-.4v.14h-.4v.13h-.4v.13h-.4v.14h-.4v.13h-.4V70h-.26v.14h-.4v.13h-.27v.13h-.27v.14h-.4v.13h-.26v.13h-.27v.14h-.4v.13h-.27v.13h-.26v.14H20v.13h-.27v.13h-.26v.14h-.27v.13h-.27V72h-.26v.14h-.27v.13h-.27v.13H18v.14h-.27v.13h-.13v.13h-.27v.14"/></g></g></g><g id="g52" clip-path="url(#clip-path-3)"><g id="g54"><path id="path66" fill="url(#linear-gradient-2)" d="M70.19.5s-20 22.52-2.9 41.89c0 0-29.73-.27-50 30.42C27.87 26.41 70.19.5 70.19.5"/></g></g><g id="g68" clip-path="url(#clip-path-4)"><g id="g70"><path id="path82" fill="url(#linear-gradient-3)" d="M70.19.5s-20 22.52-2.9 41.89c0 0-10.12-.09-22.57 5.92C40 27.87 70.19.5 70.19.5"/></g></g><g id="g84" clip-path="url(#clip-path-5)"><g id="g86"><path id="path104" fill="url(#linear-gradient-4)" d="M41.45 96.53c0-51.77 108.36 13.38 110.2-48.09 0 0-10 10-40.57 6.51-21.79-2.51-45.5-3.49-57.79-.1-25.12 6.94-26.69 32.94-11.84 41.68"/></g></g><g id="g106" clip-path="url(#clip-path-6)"><g id="g108"><path id="path120" fill="url(#linear-gradient-5)" d="M41.45 96.53c0-51.77 108.36 13.38 110.2-48.09 0 0-8.06 24.49-35.22 21.35-21.79-2.51-36.24-2.92-49.14-2.32-24.63 1.15-30.56 18.37-25.84 29.06"/></g></g><path id="path122" d="M162.52 122c.53 0 .83-.27.83-.68 0-.4-.32-.65-.83-.63h-1V122zm-1.69-2h1.76c.82 0 1.45.42 1.45 1.22a1.19 1.19 0 01-.93 1.16l1.08 1.48h-.86l-.93-1.37h-.87v1.37h-.7zm4.86 2a3.39 3.39 0 10-6.78 0 3.39 3.39 0 106.78 0zm-7.2 0a3.82 3.82 0 117.64 0 3.87 3.87 0 01-3.82 3.85 3.83 3.83 0 01-3.82-3.82" class="cls-2"/></g></g></g></g></svg>