<?xml version="1.0" encoding="utf-8"?>
<!-- Generator: Adobe Illustrator 25.2.0, SVG Export Plug-In . SVG Version: 6.00 Build 0)  -->
<svg version="1.1" id="Layer_1" xmlns="http://www.w3.org/2000/svg" xmlns:xlink="http://www.w3.org/1999/xlink" x="0px" y="0px"
	 viewBox="0 0 147.3 100.8" style="enable-background:new 0 0 147.3 100.8;" xml:space="preserve">
<style type="text/css">
	.st0{fill:#FCB617;}
	.st1{fill:none;stroke:#231F20;stroke-width:0.1;}
	.st2{fill:none;stroke:#231F20;stroke-width:0.1;stroke-dasharray:0.9992,0.9992;}
	.st3{fill:none;stroke:#231F20;stroke-width:0.1;stroke-dasharray:1.0065,1.0065;}
	.st4{fill:#231F20;}
	.st5{font-family:'GothamSSm-Book';}
	.st6{font-size:2.1px;}
	.st7{fill:none;}
	.st8{font-family:'GothamSSm-Bold';}
	.st9{font-size:3.0615px;}
	.st10{font-family:'GothamSSm-Medium';}
	.st11{font-size:3.8847px;}
	.st12{fill:#77787B;}
	.st13{font-family:'GothamSSm-LightItalic';}
	.st14{font-size:3.018px;}
</style>
<polygon class="st0" points="134.7,28 122.3,28 109.9,27.2 97.5,24.8 85.1,26.8 72.6,24.8 60,24.3 47.7,15.3 35.2,18.2 22.9,18.6 
	22.9,76.8 134.6,76.8 "/>
<g>
	<g>
		<line class="st1" x1="22.9" y1="6.8" x2="22.9" y2="7.3"/>
		<line class="st2" x1="22.9" y1="8.3" x2="22.9" y2="75.8"/>
		<line class="st1" x1="22.9" y1="76.3" x2="22.9" y2="76.8"/>
	</g>
</g>
<g>
	<g>
		<line class="st1" x1="35.3" y1="6.8" x2="35.3" y2="7.3"/>
		<line class="st2" x1="35.3" y1="8.3" x2="35.3" y2="75.8"/>
		<line class="st1" x1="35.3" y1="76.3" x2="35.3" y2="76.8"/>
	</g>
</g>
<g>
	<g>
		<line class="st1" x1="47.8" y1="6.8" x2="47.8" y2="7.3"/>
		<line class="st2" x1="47.8" y1="8.3" x2="47.8" y2="75.8"/>
		<line class="st1" x1="47.8" y1="76.3" x2="47.8" y2="76.8"/>
	</g>
</g>
<g>
	<g>
		<line class="st1" x1="60.2" y1="6.8" x2="60.2" y2="7.3"/>
		<line class="st2" x1="60.2" y1="8.3" x2="60.2" y2="75.8"/>
		<line class="st1" x1="60.2" y1="76.3" x2="60.2" y2="76.8"/>
	</g>
</g>
<g>
	<g>
		<line class="st1" x1="72.6" y1="6.8" x2="72.6" y2="7.3"/>
		<line class="st2" x1="72.6" y1="8.3" x2="72.6" y2="75.8"/>
		<line class="st1" x1="72.6" y1="76.3" x2="72.6" y2="76.8"/>
	</g>
</g>
<g>
	<g>
		<line class="st1" x1="85" y1="6.8" x2="85" y2="7.3"/>
		<line class="st2" x1="85" y1="8.3" x2="85" y2="75.8"/>
		<line class="st1" x1="85" y1="76.3" x2="85" y2="76.8"/>
	</g>
</g>
<g>
	<g>
		<line class="st1" x1="97.5" y1="6.8" x2="97.5" y2="7.3"/>
		<line class="st2" x1="97.5" y1="8.3" x2="97.5" y2="75.8"/>
		<line class="st1" x1="97.5" y1="76.3" x2="97.5" y2="76.8"/>
	</g>
</g>
<g>
	<g>
		<line class="st1" x1="109.9" y1="6.8" x2="109.9" y2="7.3"/>
		<line class="st2" x1="109.9" y1="8.3" x2="109.9" y2="75.8"/>
		<line class="st1" x1="109.9" y1="76.3" x2="109.9" y2="76.8"/>
	</g>
</g>
<g>
	<g>
		<line class="st1" x1="122.3" y1="6.8" x2="122.3" y2="7.3"/>
		<line class="st2" x1="122.3" y1="8.3" x2="122.3" y2="75.8"/>
		<line class="st1" x1="122.3" y1="76.3" x2="122.3" y2="76.8"/>
	</g>
</g>
<g>
	<g>
		<line class="st1" x1="134.7" y1="6.8" x2="134.7" y2="7.3"/>
		<line class="st2" x1="134.7" y1="8.3" x2="134.7" y2="75.8"/>
		<line class="st1" x1="134.7" y1="76.3" x2="134.7" y2="76.8"/>
	</g>
</g>
<g>
	<g>
		<line class="st1" x1="17.8" y1="12.5" x2="18.3" y2="12.5"/>
		<line class="st3" x1="19.3" y1="12.5" x2="139.6" y2="12.5"/>
		<line class="st1" x1="140.1" y1="12.5" x2="140.6" y2="12.5"/>
	</g>
</g>
<g>
	<g>
		<line class="st1" x1="17.8" y1="24.4" x2="18.3" y2="24.4"/>
		<line class="st3" x1="19.3" y1="24.4" x2="139.6" y2="24.4"/>
		<line class="st1" x1="140.1" y1="24.4" x2="140.6" y2="24.4"/>
	</g>
</g>
<g>
	<g>
		<line class="st1" x1="17.8" y1="36" x2="18.3" y2="36"/>
		<line class="st3" x1="19.3" y1="36" x2="139.6" y2="36"/>
		<line class="st1" x1="140.1" y1="36" x2="140.6" y2="36"/>
	</g>
</g>
<g>
	<g>
		<line class="st1" x1="17.8" y1="47.8" x2="18.3" y2="47.8"/>
		<line class="st3" x1="19.3" y1="47.8" x2="139.6" y2="47.8"/>
		<line class="st1" x1="140.1" y1="47.8" x2="140.6" y2="47.8"/>
	</g>
</g>
<g>
	<g>
		<line class="st1" x1="17.8" y1="59.3" x2="18.3" y2="59.3"/>
		<line class="st3" x1="19.3" y1="59.3" x2="139.6" y2="59.3"/>
		<line class="st1" x1="140.1" y1="59.3" x2="140.6" y2="59.3"/>
	</g>
</g>
<g>
	<g>
		<line class="st1" x1="17.8" y1="71.1" x2="18.3" y2="71.1"/>
		<line class="st3" x1="19.3" y1="71.1" x2="139.6" y2="71.1"/>
		<line class="st1" x1="140.1" y1="71.1" x2="140.6" y2="71.1"/>
	</g>
</g>
<text transform="matrix(1 0 0 1 12.5401 13.4809)"><tspan x="0" y="0" class="st4 st5 st6">1</tspan><tspan x="0.9" y="0" class="st4 st5 st6">60</tspan></text>
<text transform="matrix(1 0 0 1 12.5235 25.1528)"><tspan x="0" y="0" class="st4 st5 st6">1</tspan><tspan x="0.8" y="0" class="st4 st5 st6">4</tspan><tspan x="2.3" y="0" class="st4 st5 st6">0</tspan></text>
<text transform="matrix(1 0 0 1 12.6915 36.8246)" class="st4 st5 st6">120</text>
<text transform="matrix(1 0 0 1 12.3809 48.4965)"><tspan x="0" y="0" class="st4 st5 st6">1</tspan><tspan x="0.8" y="0" class="st4 st5 st6">0</tspan><tspan x="2.5" y="0" class="st4 st5 st6">0</tspan></text>
<text transform="matrix(1 0 0 1 13.4181 60.1684)"><tspan x="0" y="0" class="st4 st5 st6">8</tspan><tspan x="1.4" y="0" class="st4 st5 st6">0</tspan></text>
<text transform="matrix(1 0 0 1 13.3927 71.8403)" class="st4 st5 st6">60</text>
<g>
	<text transform="matrix(1 0 0 1 22.3399 80.1069)" class="st4 st5 st6">1</text>
	<text transform="matrix(1 0 0 1 33.7267 80.1069)"><tspan x="0" y="0" class="st4 st5 st6">1</tspan><tspan x="0.9" y="0" class="st4 st5 st6">.</tspan><tspan x="1.5" y="0" class="st4 st5 st6">5</tspan></text>
	<text transform="matrix(1 0 0 1 47.2872 80.1069)" class="st4 st5 st6">2</text>
	<text transform="matrix(1 0 0 1 58.2774 80.1069)"><tspan x="0" y="0" class="st4 st5 st6">2.</tspan><tspan x="2" y="0" class="st4 st5 st6">5</tspan></text>
	<text transform="matrix(1 0 0 1 72.0645 80.1069)" class="st4 st5 st6">3</text>
	<text transform="matrix(1 0 0 1 83.3263 80.1069)"><tspan x="0" y="0" class="st4 st5 st6">3</tspan><tspan x="1.4" y="0" class="st4 st5 st6">.</tspan><tspan x="2" y="0" class="st4 st5 st6">5</tspan></text>
	<text transform="matrix(1 0 0 1 96.714 80.1069)" class="st4 st5 st6">4</text>
	<text transform="matrix(1 0 0 1 107.9923 80.1069)"><tspan x="0" y="0" class="st4 st5 st6">4</tspan><tspan x="1.5" y="0" class="st4 st5 st6">.</tspan><tspan x="2.1" y="0" class="st4 st5 st6">5</tspan></text>
	<text transform="matrix(1 0 0 1 121.6788 80.1069)" class="st4 st5 st6">5</text>
	<text transform="matrix(1 0 0 1 133.0655 80.1069)"><tspan x="0" y="0" class="st4 st5 st6">5</tspan><tspan x="1.4" y="0" class="st4 st5 st6">.</tspan><tspan x="2" y="0" class="st4 st5 st6">5</tspan></text>
</g>
<rect x="22.7" y="83.2" class="st7" width="112.2" height="6"/>
<text transform="matrix(1 0 0 1 62.9581 85.5206)" class="st4 st8 st9">FREQUENCY (GHz)</text>
<text transform="matrix(0 -1 1 0 8.9617 61.6211)" class="st4 st8 st9">ATTENUATION (dBA)</text>
<text transform="matrix(1 0 0 1 55.7856 20.1101)" class="st10 st11">Vault</text>
<text transform="matrix(1 0 0 1 7.009 95.039)" class="st12 st13 st14">Internal Privoro testing, December 2020. </text>
</svg>
