<?xml version="1.0" encoding="UTF-8"?>
<svg width="300px" height="74px" viewBox="0 0 300 74" version="1.1" xmlns="http://www.w3.org/2000/svg" xmlns:xlink="http://www.w3.org/1999/xlink">
    <!-- Generator: Sketch 53.2 (72643) - https://sketchapp.com -->
    <title>Insight_Logo</title>
    <desc>Created with Sketch.</desc>
    <g id="Partners-/-How-To-Buy" stroke="none" stroke-width="1" fill="none" fill-rule="evenodd">
        <g id="How-to-Buy" transform="translate(-570.000000, -806.000000)" fill-rule="nonzero">
            <g id="Group-2" transform="translate(0.000000, 507.000000)">
                <g id="Group" transform="translate(293.000000, 127.000000)">
                    <g id="Insight_Logo" transform="translate(277.000000, 172.000000)">
                        <path d="M37.0709382,56.4988558 L37.0709382,26.0183066 L44.6910755,26.0183066 L44.6910755,56.4988558 L37.0709382,56.4988558 Z M45.4462243,5.08009153 C45.4462243,2.54004577 43.4553776,0.411899314 40.8466819,0.411899314 C38.3066362,0.411899314 36.1784897,2.47139588 36.1784897,5.08009153 C36.1784897,7.6201373 38.2379863,9.67963387 40.8466819,9.67963387 C43.4553776,9.67963387 45.4462243,7.68878719 45.4462243,5.08009153 Z" id="Shape" fill="#AE2186"></path>
                        <path d="M20.7322654,2.05949657 L20.7322654,32.5400458 L13.1121281,32.5400458 L13.1121281,2.05949657 L20.7322654,2.05949657 Z M12.2883295,53.409611 C12.2883295,55.9496568 14.2791762,58.0778032 16.8878719,58.0778032 C19.4279176,58.0778032 21.5560641,56.0183066 21.5560641,53.409611 C21.5560641,50.8695652 19.4965675,48.8100686 16.8878719,48.8100686 C14.2791762,48.8787185 12.2883295,50.8695652 12.2883295,53.409611 Z" id="Shape" fill="#D31D58"></path>
                        <path d="M56.0869565,21.0755149 L25.6064073,21.0755149 L25.6064073,13.4553776 L56.0869565,13.4553776 L56.0869565,21.0755149 Z M4.73684211,12.7002288 C2.19679634,12.7002288 0.0686498856,14.6910755 0.0686498856,17.2997712 C0.0686498856,19.8398169 2.12814645,21.9679634 4.73684211,21.9679634 C7.27688787,21.9679634 9.33638444,19.9084668 9.33638444,17.2997712 C9.26773455,14.6910755 7.27688787,12.7002288 4.73684211,12.7002288 Z" id="Shape" fill="#D01789"></path>
                        <path d="M1.64759725,37.4141876 L32.1281465,37.4141876 L32.1281465,45.0343249 L1.64759725,45.0343249 L1.64759725,37.4141876 Z M53.0663616,45.8581236 C55.6064073,45.8581236 57.7345538,43.8672769 57.7345538,41.2585812 C57.7345538,38.7185355 55.6750572,36.590389 53.0663616,36.590389 C50.5263158,36.590389 48.4668192,38.6498856 48.4668192,41.2585812 C48.4668192,43.8672769 50.5263158,45.8581236 53.0663616,45.8581236 Z" id="Shape" fill="#EB1F46"></path>
                        <g id="Wordmark_1_" transform="translate(75.514874, 0.000000)" fill="#564941">
                            <path d="M0.61784897,56.6361556 L0.61784897,2.402746 L9.47368421,2.402746 L9.47368421,56.6361556 L0.61784897,56.6361556 Z M100.366133,6.93363844 C100.366133,4.11899314 98.1693364,1.85354691 95.3546911,1.85354691 C92.5400458,1.85354691 90.2745995,4.11899314 90.2745995,6.93363844 C90.2745995,9.74828375 92.5400458,11.9450801 95.3546911,11.9450801 C98.1693364,11.9450801 100.366133,9.74828375 100.366133,6.93363844 Z M99.6796339,56.6361556 L99.6796339,18.3981693 L91.0297483,18.3981693 L91.0297483,56.6361556 L99.6796339,56.6361556 Z M50.7322654,33.5697941 L50.7322654,33.5697941 C50.7322654,23.0663616 44.0045767,17.2997712 32.8832952,17.2997712 C25.194508,17.2997712 19.0160183,20.8009153 18.2608696,21.1441648 L18.2608696,56.6361556 L26.9107551,56.6361556 L26.9107551,26.0869565 C27.8718535,25.6750572 30.4118993,24.6453089 33.2951945,24.6453089 C39.1304348,24.6453089 42.0823799,27.9405034 42.0823799,33.4324943 L42.0823799,56.5675057 L50.7322654,56.5675057 L50.7322654,33.5697941 Z M182.540046,33.5697941 C182.540046,23.5469108 175.537757,17.2997712 166.544622,17.2997712 C161.327231,17.2997712 158.993135,18.8100686 158.787185,18.9473684 L158.787185,0.411899314 L150.1373,0.411899314 L150.1373,56.6361556 L158.787185,56.6361556 L158.787185,26.0869565 C159.061785,25.9496568 161.670481,24.6453089 164.965675,24.6453089 C170.800915,24.6453089 174.02746,27.8032037 174.02746,33.4324943 L174.02746,56.5675057 L182.677346,56.5675057 L182.540046,33.5697941 L182.540046,33.5697941 Z M84.5080092,45.7894737 C84.5080092,39.4050343 79.9084668,36.5217391 75.2402746,34.5308924 C74.416476,34.187643 71.9450801,33.1578947 71.5331808,32.9519451 C68.3066362,31.5789474 66.0411899,30.617849 66.0411899,28.0091533 C66.0411899,26.0869565 67.5514874,24.2334096 72.1510297,24.2334096 C76.5446224,24.2334096 80.389016,26.4988558 80.8009153,26.7048055 L84.02746,20.7322654 C83.8215103,20.5949657 79.5652174,17.2997712 71.6704805,17.2997712 C63.2951945,17.2997712 57.4599542,21.8306636 57.4599542,28.7643021 C57.4599542,34.9427918 61.8535469,37.6887872 65.97254,39.4050343 C66.5217391,39.610984 70.1601831,41.1899314 70.9839817,41.4645309 C74.2791762,42.7688787 75.8581236,44.1418764 75.8581236,46.2700229 C75.8581236,48.604119 73.6613272,50.7322654 69.0617849,50.7322654 C64.187643,50.7322654 60.0686499,48.0549199 59.382151,47.6430206 L56.1556064,53.6155606 C56.6361556,54.02746 61.9221968,57.6659039 70.0915332,57.6659039 C78.3981693,57.6659039 84.5080092,53.3409611 84.5080092,45.7894737 Z M141.624714,21.1441648 L141.624714,53.8901602 C141.624714,65.6292906 136.270023,73.9359268 122.471396,73.9359268 C117.048055,73.9359268 113.135011,72.9061785 112.517162,72.7002288 L112.517162,65.6292906 C113.409611,65.9038902 117.391304,66.9336384 121.441648,66.9336384 C130.022883,66.9336384 133.043478,62.6773455 133.043478,56.7734554 L133.043478,56.0869565 C132.494279,56.3615561 129.816934,57.597254 125.629291,57.597254 C113.272311,57.597254 106.475973,48.3981693 106.475973,37.4828375 C106.475973,25.9496568 113.615561,17.2311213 126.521739,17.2311213 C134.210526,17.2997712 140.663616,20.6636156 141.624714,21.1441648 Z M133.043478,26.0869565 C132.494279,25.8810069 129.885584,24.6453089 126.384439,24.6453089 C119.93135,24.6453089 115.194508,29.4508009 115.194508,37.4828375 C115.194508,46.1327231 120.617849,50.2517162 126.384439,50.2517162 C129.748284,50.2517162 132.700229,49.0846682 133.043478,48.8100686 L133.043478,26.0869565 Z M198.878719,25.4691076 L208.695652,25.4691076 L208.695652,18.3981693 L198.878719,18.3981693 L198.878719,6.93363844 L190.366133,6.93363844 L190.366133,41.395881 C190.366133,51.8306636 195.034325,56.6361556 205.331808,56.6361556 C205.675057,56.6361556 208.764302,56.6361556 208.764302,56.6361556 L208.764302,49.4279176 C201.830664,49.4279176 199.016018,47.4370709 199.016018,40.2974828 L198.878719,25.4691076 Z" id="Insight_1_"></path>
                            <path d="M219.954233,51.3501144 C217.963387,51.3501144 216.315789,52.9977117 216.315789,54.9885584 L216.315789,54.9885584 C216.315789,56.979405 217.894737,58.5583524 219.885584,58.5583524 C221.87643,58.5583524 223.524027,56.9107551 223.524027,54.9199085 L223.524027,54.9199085 C223.524027,52.9290618 221.94508,51.3501144 219.954233,51.3501144 Z M222.974828,54.9199085 C222.974828,56.5675057 221.670481,57.9405034 219.954233,57.9405034 C218.237986,57.9405034 216.933638,56.5675057 216.933638,54.9199085 L216.933638,54.9199085 C216.933638,53.2723112 218.237986,51.8993135 219.954233,51.8993135 C221.670481,51.8993135 222.974828,53.2036613 222.974828,54.9199085 L222.974828,54.9199085 Z M220.778032,55.3318078 C221.258581,55.194508 221.533181,54.7826087 221.533181,54.2334096 L221.533181,54.2334096 C221.533181,53.8901602 221.395881,53.6155606 221.258581,53.409611 C220.983982,53.1350114 220.640732,52.9977117 220.160183,52.9977117 L218.512586,52.9977117 L218.512586,56.6361556 L219.336384,56.6361556 L219.336384,55.4691076 L219.954233,55.4691076 L219.954233,55.4691076 L220.709382,56.6361556 L221.670481,56.6361556 L220.778032,55.3318078 Z M220.778032,54.2334096 C220.778032,54.5080092 220.572082,54.7826087 220.160183,54.7826087 L219.336384,54.7826087 L219.336384,53.6842105 L220.091533,53.6842105 C220.503432,53.6842105 220.778032,53.8901602 220.778032,54.2334096 L220.778032,54.2334096 Z" id="R_1_"></path>
                        </g>
                    </g>
                </g>
            </g>
        </g>
    </g>
</svg>