<svg xmlns="http://www.w3.org/2000/svg" id="图层_1" x="0" y="0" version="1.1" viewBox="0 0 595.3 209.8" xml:space="preserve"><style>.st0{fill:#007dad}</style><path d="M13.4 72h7.3v50.8h-7.3zM151.4 70.6c21.3 0 28.6 14.6 28.6 26.7s-7.2 26.7-28.6 26.7c-21.3 0-28.6-14.6-28.6-26.7 0-12 7.3-26.7 28.6-26.7m0 47.7c12.3 0 20.8-8.4 20.8-21 0-12.5-8.5-21-20.8-21s-20.8 8.4-20.8 21 8.5 21 20.8 21M247.5 72h7.3v50.8h-10l-31.1-43.4h-.1v43.4h-7.3V72h10l31.1 43.3h.1zM324.9 72h24c13.9 0 19.2 4.1 19.2 12.8 0 6.5-3.6 10-10.1 11.3v.2c8.2 1 12 6.3 12 12.4 0 7.6-5.6 14.1-19.3 14.1h-25.8V72zm7.3 21.4h18.7c6.1 0 9.9-2.3 9.9-7.7 0-4.7-2.3-7.9-12.3-7.9h-16.3v15.6zm0 23.6h17.5c9.9 0 12.5-3.9 12.5-8.8 0-5.8-4-9.1-12.9-9.1h-17.1V117zM423.3 70.6c21.3 0 28.6 14.6 28.6 26.7s-7.2 26.7-28.6 26.7c-21.3 0-28.6-14.6-28.6-26.7 0-12 7.3-26.7 28.6-26.7m0 47.7c12.3 0 20.8-8.4 20.8-21 0-12.5-8.5-21-20.8-21s-20.8 8.4-20.8 21 8.5 21 20.8 21M551.1 72h7.8l-17.7 50.8h-10.1l-15.6-44.6h-.1l-15.6 44.6h-10.1L472 72h7.8l15 44.6h.1L510.5 72h9.9l15.6 44.6h.1z"/><path d="M218.9 11.8s91.7 49.8 86.9 182.5c0-.2 30.3-118-86.9-182.5" class="st0"/><path d="M62 122.8h-7.3V72h25c15.7 0 19.2 5.3 19.2 13.4 0 6.2-4.5 10.8-11.6 11.8v.1c6.8.9 8.7 3.6 10 12.2.8 5.4 1.5 9.9 2.9 13.2h-7.7c-1.3-3.6-2.1-10.7-3.4-16.4-.8-3.7-3.2-6.3-12.8-6.3H62v22.8zm0-28.5h16.7c7.7 0 12.5-1.8 12.5-8.3 0-6.2-3.4-8.3-12.3-8.3H62v16.6z"/><path d="M330.1 141.2h-4.9v-1.9h12v1.9h-4.9v9.2h-2.2zM345.1 139.3h9.9v1.9h-7.7v2.6h6.7v1.8h-6.7v3h7.9v1.8h-10.1zM374.9 146.5c-.2 1.2-1.1 4.2-6.2 4.2-3.5 0-6.3-2-6.3-6 0-3.2 2-5.6 6.4-5.6 5 0 5.7 3.2 5.9 3.8h-2.2c-.1-.4-1-1.9-3.6-1.9-3.1 0-4.3 1.7-4.3 4 0 2.5 1.8 3.9 4.2 3.9 2.5 0 3.6-1.5 3.9-2.4h2.2zM383 139.3h2.2v4.4h7.4v-4.4h2.2v11.1h-2.2v-4.7h-7.4v4.7H383zM403.7 139.3h2.2l7.4 8v-8h2.1v11.1h-2l-7.7-8.3v8.3h-2zM430.2 139.1c4.9 0 6.6 2.9 6.6 5.9 0 2.3-1.4 5.7-6.6 5.7-5.2 0-6.6-3.4-6.6-5.7 0-3.1 1.7-5.9 6.6-5.9m4.4 5.7c0-2.7-1.9-3.9-4.4-3.9-2.5 0-4.4 1.3-4.4 3.9 0 3.1 2.4 4 4.4 4s4.4-.8 4.4-4M444.9 139.3h2.2v9.2h8v1.9h-10.2zM468.9 139.1c4.9 0 6.6 2.9 6.6 5.9 0 2.3-1.4 5.7-6.6 5.7-5.2 0-6.6-3.4-6.6-5.7 0-3.1 1.7-5.9 6.6-5.9m4.5 5.7c0-2.7-1.9-3.9-4.4-3.9-2.5 0-4.4 1.3-4.4 3.9 0 3.1 2.4 4 4.4 4 2 0 4.4-.8 4.4-4M495.1 144.7v5.8h-1.3l-.4-1.1c-.8.5-2 1.3-4.1 1.3-2.8 0-6.3-1.4-6.3-5.8 0-3 1.8-5.8 6.2-5.8 2.5 0 5.3.9 5.9 3.7h-2.2c-.3-.6-.9-1.9-3.4-1.9-3.5 0-4.3 2.3-4.3 3.9 0 2.6 1.8 4 4.1 4 2.1 0 3.3-.7 3.8-2.3h-3.9v-1.7h5.9zM503.6 139.3h2.2v11.1h-2.2zM514.8 139.3h9.9v1.9H517v2.6h6.7v1.8H517v3h7.9v1.8h-10.1zM541.5 142.7c-.3-1-1.3-1.8-3.9-1.8-1.5 0-2.9.4-2.9 1.4 0 .5.3 1 2.5 1.3l2.6.4c2.5.4 4 1.3 4 3.2 0 2.6-2.5 3.6-5.5 3.6-4.8 0-5.9-2.3-6.2-3.2l2.1-.7c.4.8 1.2 2 4.1 2 1.8 0 3.2-.6 3.2-1.5 0-.7-.8-1.2-2.4-1.4l-2.7-.4c-2.6-.4-4-1.5-4-3.2 0-3.3 4.3-3.3 5.2-3.3 4.8 0 5.6 2.2 5.9 3l-2 .6z" class="st0"/><path d="M570.8 84.6c-3.9 0-6.7-2.9-6.7-6.8 0-4.1 3.1-6.8 6.7-6.8s6.6 2.7 6.6 6.8-3 6.8-6.6 6.8m0-12.4c-2.9 0-5.2 2.3-5.2 5.6 0 3.1 2 5.6 5.2 5.6 2.9 0 5.2-2.3 5.2-5.6s-2.3-5.6-5.2-5.6m-1.3 9.5h-1.2v-7.5h2.8c1.8 0 2.7.6 2.7 2.2 0 1.4-.8 1.9-2 2l2.1 3.3h-1.4l-1.9-3.2h-1.2v3.2zm1.4-4.2c.9 0 1.7-.1 1.7-1.2 0-.9-.9-1-1.6-1h-1.5v2.2h1.4z"/></svg>