<svg xmlns="http://www.w3.org/2000/svg" viewBox="0 0 500 200" enable-background="new 0 0 500 200"><style type="text/css">.st0{fill:#777A7C;} .st1{fill:#A4A7A9;} .st2{fill:#0C3B5E;} .st3{fill:none;}</style><path d="M91.7 47.9l-8.5 21v-21H72v46.5h11.2V71.7l9.4 22.7h11.8L93.8 69.9l9.4-22zM108.1 47.9v34.9c0 1.9.2 3.6.7 5.1.4 1.5 1.2 2.8 2.4 3.9 1.1 1.1 2.7 1.9 4.6 2.5 1.9.6 4.4.9 7.3.9 3.1 0 5.6-.3 7.5-1 1.9-.7 3.3-1.6 4.3-2.9 1-1.2 1.7-2.7 2-4.3.3-1.7.5-3.5.5-5.5V47.9h-11.3V83c0 1.3-.2 2.3-.7 3-.4.7-1.3 1.1-2.7 1.1-1.3 0-2.3-.4-2.8-1.1-.5-.7-.8-1.8-.8-3V47.9h-11zM173.4 83.2v-24c0-4-1-6.9-3-8.7-2-1.8-4.9-2.6-8.8-2.6h-18.1v46.5H161c2 0 3.7-.1 5.3-.4 1.5-.3 2.8-.8 3.9-1.7 1.1-.8 1.9-2 2.4-3.4.5-1.5.8-3.4.8-5.7m-11.3-.8c0 1.6-.3 2.6-.9 3.2-.6.5-1.7.8-3.2.8h-3.5V55.9h3.4c1.5 0 2.6.3 3.3 1 .6.6 1 1.7 1 3.3v22.2zM203.2 94.4v-8.3h-12.8V74.9h12.1v-8.1h-12.1V56h12.8v-8.1h-24v46.5zM232 94.4v-8.3h-11.6V47.9h-11.3v46.5zM261.5 62.2v-2.4c0-1.8-.1-3.5-.3-5.1-.2-1.6-.7-2.9-1.6-4-.9-1.1-2.2-2-3.9-2.6-1.7-.6-4.2-1-7.3-1-2.8 0-5.1.2-6.9.7-1.8.5-3.3 1.3-4.4 2.3-1.1 1.1-1.9 2.4-2.4 4.2-.5 1.7-.7 3.8-.7 6.3 0 1.9.2 3.5.5 4.7.3 1.2.8 2.2 1.4 3 .6.8 1.3 1.4 2.1 2 .8.5 1.6 1.1 2.5 1.8l6.7 4.9c1 .7 1.8 1.3 2.4 1.7.6.5 1 .9 1.3 1.4.3.5.4 1 .5 1.5.1.6.1 1.3.1 2.2 0 .4 0 .7-.1 1.1-.1.4-.2.7-.5 1.1-.3.3-.6.6-1.1.8-.5.2-1.1.3-1.9.3-.8 0-1.5-.1-1.9-.4-.4-.3-.8-.6-1-1-.2-.4-.3-.8-.4-1.2 0-.4-.1-.8-.1-1v-3.7h-11.1v2.8c0 1 .1 2.2.2 3.7s.5 2.7 1.1 3.9c.9 1.7 2.5 3 4.7 3.9 2.2.9 5.1 1.4 8.6 1.4 3.4 0 6.1-.4 8.1-1.2 2-.8 3.4-1.8 4.4-3.1 1-1.3 1.6-2.7 1.8-4.2.2-1.6.4-3.1.4-4.5 0-1.7-.1-3-.3-4.1-.2-1.1-.5-2-.9-2.9-.5-.8-1.1-1.6-1.8-2.3-.8-.7-1.7-1.4-2.9-2.2l-9.5-6.7c-.7-.5-1.3-1-1.6-1.6-.3-.6-.5-1.3-.5-2.2v-1.7c0-1 .2-1.8.5-2.5s1.1-1 2.2-1c1.4 0 2.3.4 2.6 1.1.3.7.5 1.7.5 2.9v3.3h10.5zM299.1 94.4l-10.6-24.5 9.4-22h-11.5l-8.5 21v-21h-11.2v46.5h11.2V71.6l9.4 22.8zM302.3 47.9h11.3v46.5h-11.3z" class="st0"/><path d="M378.8 146.9c-11.9 0-23.4-4.2-32.5-11.7l-.1-.1c-1.1-1.1-1.7-2.5-1.7-4 0-2.1 1-4.3 2.8-6.1l25.6-25.4c1.6-1.5 3.6-2.4 5.8-2.4 2.2 0 4.3.8 5.8 2.4l25.6 25.4c3.4 3.3 3.8 7.2 1.2 10l-.1.1c-9.1 7.6-20.6 11.8-32.4 11.8" class="st1"/><path d="M419.6 120c-2.1 0-4.1-1-5.8-2.9l-22.9-22.7c-3.2-3.2-7.5-5-12.1-5-4.6.1-8.9 1.8-12.1 5l-23 22.7c-2 1.9-4.1 2.9-6 2.9-2.2 0-4.1-1.2-5.3-3.5l-.1-.1c-2.5-6.1-3.6-11.9-3.6-18.3 0-27.3 22.5-49.5 50.1-49.5s50.1 22.2 50.1 49.5c0 6.4-1.2 12.3-3.6 18.3v.1c-1.3 2.2-3.4 3.5-5.7 3.5" class="st2"/><path d="M313.6 101.4h-10.3l-5.1 20-4.9-20h-10.1l9.4 30.2v16.3h11v-16.3l10-30.2zm-40.9 8.1h9.3v-8.1h-29.9v8.1h9.2v38.4h11.4v-38.4zm-35.1 38.4h11.3v-46.5h-11.3v46.5zm-15.4 0h10.3c-.5-.6-.9-1.2-1.2-1.9-.3-.6-.4-1.7-.4-3.2v-9.9c0-1.8-.1-3.3-.2-4.3s-.5-1.9-1.1-2.6c-.4-.5-.8-.9-1.3-1.2-.5-.3-1-.5-1.4-.7-.5-.2-.9-.3-1.2-.4-.4-.1-.6-.2-.7-.2 1-.6 1.9-1.1 2.6-1.6.7-.5 1.4-1.2 1.8-1.9.5-.7.8-1.6 1.1-2.7.2-1.1.3-2.4.3-4 0-.9 0-1.8-.1-2.6 0-.9-.2-1.7-.4-2.6-.2-.9-.5-1.7-1-2.4s-1-1.5-1.7-2.1c-1.3-1.1-2.7-1.7-4.3-1.9-1.6-.2-3.1-.3-4.6-.3h-15.9v46.5h10.5V128h2c1.2 0 2.2.1 2.9.2.7.1 1.2.4 1.6.8.4.4.6.9.7 1.7.1.7.1 1.6.1 2.8v7.5c0 1.4.1 2.7.2 3.8.3 1 .7 2.1 1.4 3.1m-1.4-33.7c0 1.1 0 2-.1 2.8-.1.7-.2 1.4-.5 1.8-.2.5-.6.8-1.1 1-.5.2-1.2.3-2.1.3h-3.5v-10.7h3.4c.7 0 1.4 0 1.9.1s.9.3 1.2.6c.3.3.5.8.6 1.5.1.6.2 1.5.2 2.6m-24 26.2c.3-1.7.5-3.5.5-5.5v-33.5H186v35.1c0 1.3-.2 2.3-.7 3-.4.7-1.3 1.1-2.7 1.1-1.3 0-2.3-.4-2.8-1.1-.5-.7-.8-1.8-.8-3v-35.1h-11v34.9c0 1.9.2 3.6.7 5.1.4 1.5 1.2 2.8 2.4 3.9 1.1 1.1 2.7 1.9 4.6 2.5 1.9.6 4.4.9 7.3.9 3.1 0 5.6-.3 7.5-1 1.9-.7 3.3-1.6 4.3-2.9 1-1.3 1.7-2.8 2-4.4m-34.1.5c.5-1.8.7-4 .7-6.6v-4.2h-11.3v5.8c0 1.6-.2 2.7-.7 3.5-.4.7-1.4 1.1-3 1.1-1.7 0-2.7-.4-3.2-1.2-.4-.8-.6-1.9-.6-3.4v-23.1c0-1.3.2-2.3.7-3.1.4-.8 1.4-1.2 2.8-1.2s2.4.3 3 .9c.6.6.9 1.6.9 3v6.1h11.1V113c0-1.9-.3-3.7-.8-5.2s-1.3-2.8-2.5-3.9c-1.1-1.1-2.7-1.9-4.6-2.5-1.9-.6-4.3-.9-7.1-.9-2.7 0-5 .3-6.9.9-1.9.6-3.4 1.4-4.6 2.5-1.2 1.1-2 2.3-2.5 3.8s-.8 3.1-.8 4.9V137c0 1.8.2 3.3.6 4.7.4 1.4 1.2 2.6 2.3 3.6 1.1 1 2.6 1.8 4.4 2.3 1.8.5 4.2.8 7.1.8 3 0 5.5-.3 7.5-.8s3.6-1.3 4.8-2.4c1.4-1 2.2-2.5 2.7-4.3m-57.4 7h24.1v-8.2h-12.8v-11.2h12.1v-8.2h-12.1v-10.7h12.8v-8.2h-24.1v46.5zm-5.2-7.9c.2-1.6.4-3.1.4-4.5 0-1.7-.1-3-.3-4.1-.2-1.1-.5-2-1-2.9-.5-.8-1.1-1.6-1.8-2.3-.8-.7-1.7-1.4-2.9-2.2l-9.5-6.7c-.7-.5-1.3-1-1.6-1.6-.3-.6-.5-1.3-.5-2.2v-1.7c0-1 .2-1.8.5-2.5s1.1-1 2.2-1c1.4 0 2.3.4 2.6 1.1.3.7.5 1.7.5 2.9v3.3h10.6v-2.4c0-1.8-.1-3.5-.3-5.1-.2-1.6-.7-2.9-1.6-4-.9-1.1-2.2-2-3.9-2.6-1.7-.6-4.2-1-7.3-1-2.8 0-5.1.2-6.9.7-1.8.5-3.3 1.3-4.4 2.3-1.1 1.1-1.9 2.4-2.4 4.2-.5 1.7-.7 3.8-.7 6.3 0 1.9.2 3.5.5 4.7.4 1.2.8 2.2 1.4 3 .6.8 1.3 1.4 2.1 2 .8.5 1.6 1.1 2.5 1.8l6.7 4.9c1 .7 1.8 1.3 2.4 1.7.6.5 1 .9 1.3 1.4.3.5.4 1 .5 1.5.1.6.1 1.3.1 2.2 0 .4 0 .7-.1 1.1-.1.4-.2.7-.5 1.1-.3.3-.6.6-1.1.8-.5.2-1.1.3-1.9.3-.8 0-1.5-.1-1.9-.4-.4-.3-.8-.6-1-1-.2-.4-.3-.8-.4-1.2 0-.4-.1-.8-.1-1V133H71.2v2.8c0 1 .1 2.2.2 3.7s.5 2.7 1.1 3.9c.9 1.7 2.5 3 4.7 3.9 2.2.9 5.1 1.4 8.6 1.4 3.4 0 6.1-.4 8.1-1.2 2-.8 3.4-1.8 4.4-3.1.9-1.4 1.5-2.8 1.8-4.4" class="st0"/><path d="M71.2 47h357.6v105.3H71.2z" class="st3"/></svg>