<svg xmlns="http://www.w3.org/2000/svg" id="Layer_1" x="0" y="0" version="1.1" viewBox="0 0 216 126" xml:space="preserve"><style>.st0,.st1{fill-rule:evenodd;clip-rule:evenodd;fill:#222}.st1{fill:#4375a2}</style><path d="M65.3 33.4l-1.1 5.8s6.6 4.4 10.1 12.3c4.2 9.5 5 18.8 5 18.8l1.7-4.7s-.4-7.8-4.1-16.7c-4.7-11.7-11.6-15.5-11.6-15.5z" class="st0"/><path d="M63.6 42.7l-.9 5s6 3.5 10.1 12.4c3.5 7.9 4.4 16.4 4.4 16.4l1.5-4.1s-.9-8.3-4.5-16.4c-4.7-10.3-10.6-13.3-10.6-13.3z" class="st1"/><path d="M73.3 37.8s2.8-8.5 9.8-8.3c6.9.1 9.7 6.1 16.2 5.5 9.3-.9 15.7-13 15.7-13l-.9-4.5s-5.8 10.6-14.9 10.9c-6.1.2-8.2-4.7-14.7-5.2-8.8-.6-12 9.3-12 9.3l.8 5.3zM81.8 59.2s3.7-7.4 10.4-7.4c6.1.1 9.3 6.1 15.8 5.5 7.6-.6 12.3-11.3 12.3-11.3l-.9-3.9s-4 9.1-11.7 9.4c-6.1.2-8-4.8-14.4-5.3-7.4-.6-11.3 7.1-11.3 7.1l-.2 5.9z" class="st0"/><path d="M33.7 81l-.1 4.5c-.2-.1-3.9-.1-6.4-.1-.4 4.8-.6 12.1-.7 16h-6.6c.5-4.9.9-9.9.9-16-2 0-4.2.1-6.4.1l.2-4.5h19.1z" class="st1"/><path d="M35.2 91.7c.1-1.3 1.1-2.7 2.8-2.7 1.5 0 2.3.9 2.3 2.7h-5.1zm10.5 2.8c.2-.8.2-1.5.2-2.3 0-4.3-2.8-6.7-7.9-6.7-8.2 0-8.9 7-8.9 8.6 0 6.1 4.3 7.7 9.3 7.7 1.8 0 3.6-.2 5.4-.6l.7-4.4c-1.8.5-3.6 1-5.4 1-2.1 0-4.1-.9-4.1-3.3h10.7zM60.3 90.6c-1.3-.4-2.6-.7-4-.7-2.3 0-3.9 1.4-3.9 3.8 0 2.3 1.2 3.6 3.6 3.6 1.3 0 2.6-.3 3.9-.7l-.8 4.6c-1.5.4-3.1.6-4.6.6-5.1 0-8-2.8-8-7.9 0-1.7.4-8.4 8.2-8.4 2 0 3.6.1 5.3.6l.3 4.5zM68.2 80.6c-.1 1.2-.4 5.2-.6 7.4l.1.1c1.4-2 3-2.6 6-2.6 3.1 0 5.7 1.2 5.7 5 0 .8-.4 7-.4 10.9h-6.1c.2-2.7.4-5.5.4-8.2 0-1.5-.4-2.9-2.3-2.9-1.5 0-2.6 1.1-3.1 2.6-.5 1.7-.7 5.2-.8 8.5H61c.4-3.9 1-13.3 1-20.8h6.2z" class="st1"/><path d="M87.6 84.9c-.3 5.5-.4 10.9-.5 16.4h-6.5c.7-6.5 1-12.5 1-20.8h11c1.5 0 7.4.1 7.4 5.5 0 3.3-1.9 5-4.9 6.1 1.2 3.1 2.8 6.1 4.1 9.2h-6.9c-1.1-3.9-2.6-7.8-4-11.7.5.1 1 .1 1.5.1 1.8 0 3.9-.7 3.9-2.8 0-2.1-2-2.1-3.5-2.1h-2.6v.1z" class="st0"/><path d="M105 91.7c.1-1.3 1.1-2.7 2.8-2.7 1.5 0 2.2.9 2.2 2.7h-5zm10.6 2.8c.1-.8.2-1.5.2-2.3 0-4.3-2.8-6.7-7.9-6.7-8.3 0-9 7-9 8.6 0 6.1 4.3 7.7 9.3 7.7 1.8 0 3.6-.2 5.4-.6l.8-4.4c-1.8.5-3.6 1-5.5 1-2 0-4.1-.9-4.1-3.3h10.8zM122.6 90c.8-.1 1.5-.3 2.3-.3 2.3 0 3.5 1.4 3.5 3.6 0 1.8-.9 4.2-3.1 4.2-2.1 0-3-2-3-3.9 0-1.2.1-2.4.3-3.6zm-.8 18.4c0-2.8.1-5.8.3-8.7 1.5 1.3 3.4 2 5.5 2 4.5 0 6.7-4.2 6.7-8.2 0-4.2-2.1-8.1-8.5-8.1-3.5 0-6.3.3-9.1.8 0 7.4-.4 14.8-1.1 22.2h6.2zM146.4 99.3c-1.4 1.8-3.3 2.4-5.5 2.4-4.3 0-5.5-2.1-5.5-4.7 0-1 .6-8.1.6-11.2h6.1c-.1 2.8-.6 5.5-.6 8.2 0 1.5.5 2.8 2.3 2.8 1.5 0 2.4-1.2 2.8-2.6.4-1.8.4-5.3.5-8.4h6.1c-.5 5.2-.7 10.4-.9 15.5h-5.7v-2h-.2zM160.2 90c.7-.1 1.5-.3 2.3-.3 2.3 0 3.4 1.4 3.4 3.6 0 1.8-.9 4.2-3.1 4.2-2.1 0-3-2-3-3.9 0-1.2.1-2.4.4-3.6zm-.8 9.4c1.3 1.6 2.9 2.3 5 2.3 5 0 7.4-4.2 7.4-8.8 0-4.9-2.8-7.5-7.7-7.5-.6 0-1.2 0-1.8.1-.7.1-1.2.1-1.8.3.1-2.2.2-3.7.4-5.3h-6.2c-.1 6.9-.5 13.9-1 20.8h5.7v-1.9zM179.6 80.6c-.4 3.5-1 15.3-1.2 20.8h-6.2c.7-6.9.9-13.9 1.2-20.8h6.2zM179.9 101.4c.5-4.7.7-9.3.8-15.5h6.3c-.6 5.2-.6 10.4-.6 15.5h-6.5zm1-17.6l.1-3.6h6.1l-.1 3.6h-6.1zM201.5 90.6c-1.3-.4-2.6-.7-3.9-.7-2.4 0-3.9 1.4-3.9 3.8 0 2.3 1.2 3.6 3.6 3.6 1.3 0 2.6-.3 3.9-.7l-.8 4.6c-1.5.4-3.1.6-4.6.6-5.1 0-8-2.8-8-7.9 0-1.7.4-8.4 8.2-8.4 2 0 3.6.1 5.3.6l.2 4.5z" class="st0"/></svg>