<svg xmlns="http://www.w3.org/2000/svg" width="329" height="50"><title>logo_fast_company</title><desc>Created with Sketch.</desc><g fill="none"><g fill="#000" fill-rule="nonzero"><g><g><g><g><g><path d="M155.95 13.24c0 6.73-.66 27.58-.66 27.58 0 4.04 1.3 5.83 5.05 5.83v1.8h-14.72v-1.8c3.73 0 5.7-1.8 5.7-5.84l1.33-34.07c-1.1-2.68-2.2-3.6-5.06-3.8V1.35h11.2L170.7 33.2l12.1-31.84h10.1v1.56c-2.86 0-4.4 1.35-4.4 4.5l1.32 32.95c0 4.93.87 6.28 4.83 6.28v1.8H177.7v-1.8c3.3 0 4.84-1.12 4.62-6.28 0 0-.66-23.1-.88-27.13l-8.13 22.88c-1.2 3.22-2.24 6.5-3.07 9.86l-2.64.22c-.67-2.46-2.43-6.95-2.43-6.95s-6.8-19.5-9.22-26zM142.1 48.67c-.88-.22-1.75-.22-2.64-.22-1.75 0-4.83.9-8.57.9-14.3 0-24.84-8.75-24.84-24.9 0-13.68 9.9-24.22 25.05-24.22 3.53 0 7.48.68 10.78 2.02.66-.67.88-1.12 1.54-1.8h1.32c-.22 2.47-1.1 10.55-1.1 10.55h-1.32c-.88-4.7-3.3-7.85-11-7.85-9.22 0-17.57 7.4-17.57 21.1 0 15.46 8.57 22.18 18.02 22.18 6.16 0 9.9-3.58 12.3-8.07l1.55.67-3.52 9.64zM100.57 10.1h-1.54c-.2-4.27-1.53-5.6-4.83-5.6h-6.38v35.2c0 5.83 1.1 6.95 4.84 6.95v1.8H76.18v-1.8c3.73 0 4.84-1.12 4.84-7.18V4.5h-6.38c-4.18 0-4.84 1.1-5.94 5.6h-1.54L68.26 0l1.1.23c.43 1.12 1.32 1.12 3.95 1.12h21.32c3.96 0 4.84 0 5.72-1.35h1.32l-1.1 10.1zM54.02 49.33c-3.1 0-5.5-.44-7.28-1.1-1.32-.3-2.6-.84-3.74-1.56-.6.6-1.1 1.28-1.55 2l-1.33-.44 1.1-10.45 1.55.22c.88 4.9 4.2 8.44 11.02 8.44 5.28 0 8.8-4.44 8.8-9.32 0-4-1.53-6-6.83-10-1.75-1.12-3.3-2-4.62-3.1-4.85-3.13-7.94-6.68-7.94-12.47C43.2 4.88 48.73.45 56 .45c4.2 0 6.83 1.32 7.72 1.76L65.27.45l1.1.22-1.1 9.56-1.55-.22c0-4.45-2.65-6.45-7.06-6.45-4.18 0-7.27 2.23-7.27 6.45 0 3.77 2.85 6.22 6.16 8.44 1.76 1.1 3.1 2 4.4 2.9 7.73 5.55 9.5 9.1 9.5 14.44 0 7.77-5.96 13.55-15.44 13.55zm-25.14-39.1h-1.76c0-4-1.77-5.57-5.3-5.57H11.9v17.56h6.4c3.3 0 3.97-1.78 4.4-4.67h1.55V30H22.7c-.43-3.33-1.1-4.66-4.62-4.66H11.9v14.9c0 5.54 1.33 6.2 4.86 6.2v1.8H0v-1.8c4.2 0 4.84-1.1 4.84-6.2V7.53c0-3.1-1.32-4.43-4.84-4.43V1.56h22.93c3.96 0 4.84-.2 5.5-1.55H30l-1.1 10.22zm237.9 2.66v26.66c0 5.78 1.33 6.88 4.85 6.88v1.8h-26v-1.8c1.97 0 3.73-.66 3.73-2 0-.9-.22-2.44-.66-4l-2-6.44h-14.54c-.22.88-2.87 8.22-2.87 10.22 0 1.77 1.98 2.22 3.3 2.22v1.78h-12.13v-1.78c2.2 0 3.97-.2 5.5-4.88l11.26-36.22c-.65-1.57-1.53-2-3.08-2.23V1.56h9.92l11.9 38c1.1 4 2.2 6 3.98 6.9 2.64-.9 3.3-1.78 3.3-6.9v-32c-2-2.67-2.2-4.44-5.95-4.44V1.56h11.24l18.52 31.78V9.1c0-4.87-1.1-6-4.85-6V1.56h24.7V3.1c-1.54 0-2.86.67-2.86 2.24 0 1.1.44 2.2.87 3.55l7.07 15.33 6.83-14.9c1.1-2 1.33-3.1 1.33-4.22 0-1.33-.9-2-2.87-2V1.56h11.7V3.1c-2.88 0-4.64 2.68-5.96 5.8l-9.04 18.66V39.8c0 5.32 1.32 6.65 4.84 6.65v1.78h-16.75v-1.8c3.53 0 4.85-1.32 4.85-6.65V29.34l-9.7-20.67c-1.77-4-2.43-4.9-3.53-5.55-2.2.9-2.87 2.44-2.87 6v34.22s.22 2.67.44 5.78l-2.87.22-21.6-36.45zm-27.56-2.24l-6.17 20.23h12.8l-6.63-20.24zM211.63 31.52h-3.32v9.83c0 5.02 1.34 6.16 5.1 6.16v1.84h-17.05V47.5c3.55 0 4.87-1.37 4.87-6.4V8.9c0-5-1.32-5.93-4.87-5.93v-1.6h12.84c12.4 0 19.7 3.9 19.7 14.4 0 10.96-8.85 15.75-17.27 15.75zm-2.2-26.95h-1.12V28.1h2c7.3 0 11.08-3.43 11.08-12.12 0-8.68-3.33-11.4-11.96-11.4zM134.37 40.2c-8.4 0-14.16-6.17-14.16-15.07 0-8.46 5.97-15.07 14.16-15.07 7.97 0 13.94 6.4 13.94 15.07 0 8.44-6.2 15.07-13.94 15.07zm0-27.4c-5.76 0-7.75 5.7-7.75 12.33 0 6.16 1.77 12.34 7.75 12.34 5.76 0 7.52-6.18 7.52-12.57 0-6.17-2.2-12.1-7.52-12.1zm-97.4 24.66v-1.6c2.22 0 2.66-.7 2.66-1.37-.02-.8-.17-1.57-.44-2.3 0 0-.45-1.82-.9-3.2H29.7L28.8 32c-.28.72-.43 1.5-.44 2.28 0 .9.88 1.6 2.2 1.6v1.6h-8.63v-1.6c2.2 0 3.1-.7 3.98-3.2l6.66-20.55c-.23-.9-.9-1.6-2.2-1.6V8.9h7.07c5.76 17.37 7.3 21.94 7.3 21.94 1.1 3.88 2.22 5 4 5v1.62H36.98zM33.9 15.3l-3.3 11.2h6.85l-3.55-11.2z"/></g></g></g></g></g></g></g></svg>