<svg xmlns="http://www.w3.org/2000/svg" width="2500" height="933" viewBox="-53.92 -98.979 1503 561"><path fill="#33629a" d="M345.6 362.9c-24.25-3.52-45.46-13.8-61.65-29.83-13.5-13.38-22.27-28.1-28.73-48.26-10.08-31.47-10.08-71.94 0-102.78 9.76-29.9 31.74-55.9 58.65-69.4 37.26-18.7 89.7-17.53 124.2 2.78 31.07 18.28 49.88 50.76 55.1 95.14 1.6 13.55.57 42.17-1.94 53.98-10.3 48.35-40.3 82.13-84.26 94.86-4.74 1.37-12.1 2.98-16.33 3.57-8.97 1.25-36.36 1.22-45.04-.05zm52.48-3.73c17.74-4.14 31.9-10.46 44.53-19.9 30.77-22.98 47.62-58.2 49.17-102.75 1.54-43.92-11.7-81.37-37.32-105.5-20.8-19.6-47-29-80.87-29-35.9 0-64.82 11.13-87.07 33.52-23.82 23.98-36.42 57.44-36.42 96.7 0 40.73 11.4 73.62 33.47 96.65 12.18 12.7 24.03 20.3 41.03 26.36 6 2.14 10.43 3.16 26.5 6.15 1.37.27 10.6.3 20.5.1 13.4-.25 20.17-.85 26.5-2.33zm-37.94-14.2c-16.43-7.46-28.08-30.1-33.9-65.95-3.72-22.72-4.07-73.24-.7-98 4.74-34.77 14.75-55.3 30.32-62.24 10.68-4.76 25.47-1.95 35 6.65 21.12 19.1 31.78 73.37 27.18 138.4-3.3 46.67-13.43 71.98-32.32 80.78-6.85 3.2-18.96 3.36-25.58.36zm21.74-1.48c7.08-2.12 15.82-10.3 20.48-19.22 9.6-18.38 13.9-45.58 14-88.76.15-54.12-8.34-88.55-26.24-106.58-7.52-7.57-12.85-9.93-22.47-9.9-21.33.02-34.88 22.3-40.23 66.16-2.46 20.16-2.47 68.2-.02 85.82 7.58 54.55 27.15 80.58 54.48 72.47zm393.2 19.4c-9.92-1-40.24-6.06-50.83-8.47l-7.32-1.66.57-39.13c1.37-94.2 1.55-145.6.66-195.62-.88-49-1.13-54.17-3.02-61.4-2.4-9.2-5.85-15.6-10-18.56-1.62-1.15-6-2.78-9.75-3.62-12.46-2.8-11.78-2.35-12.12-8.03-.2-3.26.17-5.42 1-6.1C685.4 19.43 787.53-.05 790.78 0c.94.02 1.07 13.07.6 58.02-.35 31.9-.4 58-.1 58 .28 0 4.02-1.62 8.3-3.6 12.88-5.94 24.75-8.53 42-9.13 11.48-.4 16.8-.16 22.7 1.06 38.52 7.97 67.03 39.5 77 85.16 2.6 11.9 3.55 41.5 1.83 56.34-1.46 12.63-5.66 29.66-10.02 40.7-16.48 41.7-51.83 68.9-98.73 75.98-10.8 1.62-44.72 1.83-59.27.35zm56.5-2.4c30.38-4.55 52.66-14.98 71.53-33.48 27.3-26.74 40.42-64.48 38.65-111-.92-23.95-4.83-39.6-14.75-59-13.45-26.3-36.45-44.74-62.56-50.17-19.6-4.07-44.8-.88-63.95 8.1-4.8 2.24-9.36 4.07-10.17 4.07-1.3 0-1.43-7.4-1.1-58.33l.37-58.34-4 .8c-2.22.45-24.72 4.64-50.02 9.33-25.3 4.67-47 8.73-48.2 9-1.83.44-2.15 1.14-1.95 4.27.22 3.5.5 3.8 4.2 4.62 12.67 2.78 14.93 3.77 19.64 8.64 5.77 5.97 8.38 13.58 10.1 29.48 1.36 12.67 1.66 230.9.36 263.1l-.78 19.1 10.32 2.2c39.04 8.35 77.97 11.24 102.3 7.6zm-35.67-15.2c-2-.22-4.18-1-4.8-1.75-1.7-2.07-3.57-137.82-2.43-177.53l.9-31.5 8-2.3c11.8-3.4 24.52-2.88 33.53 1.4 18.1 8.56 29.97 29.74 36.14 64.4 2 11.3 1.72 50.5-.48 64.46-4.6 29.14-12.97 51.62-24.6 66.15-5.66 7.04-15.03 13.7-22.36 15.88-4.73 1.42-14.87 1.75-23.9.8zm19.26-2.3c7.26-1.37 12.9-4.26 18.97-9.7 15.18-13.67 26.6-41.86 31.1-76.78 1.82-14.23 1.57-46.64-.45-58.5-5.48-32.12-17.27-53.23-34.46-61.73-7.13-3.53-8.23-3.78-16.7-3.78-6.03 0-11.24.65-15.66 1.95l-6.63 1.95-.48 36.55c-.63 46.82.9 164.03 2.17 167.4.82 2.14 1.7 2.6 5.76 2.9 9.53.76 11.1.73 16.38-.26zm247.42 19.4c-49.6-8.95-85.1-44.13-96.68-95.87-1.5-6.66-2.15-14.1-2.53-28.5-.6-22.8 1.26-36.95 7.15-54.53 11.3-33.75 31.53-57.66 60.93-72 31.03-15.12 73.46-16.12 100.93-2.35 30.92 15.5 49.1 46.43 53.73 91.37.63 6.05 1 13.25.8 16l-.32 5-74 .26-74 .25.28 8.75c.66 20.25 5 38.17 13.06 53.74 3.67 7.08 6.58 10.94 13.66 18.1 16 16.13 31.9 22.38 57 22.38 18.2 0 31.28-3.63 44.97-12.47 3.83-2.48 7.72-4.5 8.63-4.5 2.1 0 6.9 6.18 6.9 8.87 0 4.4-14.35 18.62-28.34 28.07-11.46 7.74-29.64 14.75-45.4 17.5-11.04 1.94-35.84 1.9-46.76-.07zm44.47-1.92c23.17-3.76 46-14.88 62.4-30.4 8.97-8.52 11.95-12.62 10.7-14.77-3.33-5.73-3.2-5.73-11.7-.5-13.55 8.33-20.35 10.62-36.27 12.26-18.6 1.9-35.75-1.2-51.6-9.35-10.52-5.4-23.12-17.84-29.42-29.02-8.6-15.27-13.26-33.1-14.65-56-.57-9.64-.44-12.03.7-12.75.76-.5 34.1-.9 74.63-.9h73.25v-2.9c0-6.58-2.16-24.26-4.1-33.53-7.78-37.27-28.32-63.84-57.6-74.53-11.67-4.26-22.7-6.05-37.24-6.05-34.44 0-62.57 11.3-84.33 33.87-17.34 18-27.63 38.2-33.9 66.62-1.9 8.56-2.22 13.02-2.22 31 0 17.85.32 22.46 2.16 30.7 11.66 52.46 46.16 87 95.74 95.85 12.56 2.24 31.08 2.42 43.47.4zm-70.32-158.22c-.76-1.22 1.1-19.02 2.96-28.24 4.44-22.22 11.56-38.27 21.37-48.15 5.28-5.32 7.7-6.97 12-8.25 2.95-.88 6.3-1.6 7.44-1.6 4.6.02 10 2.36 14.04 6.07 10.82 9.96 17 31.37 18.23 63.06l.6 15.65-10.4.6c-20.87 1.15-65.7 1.74-66.24.86zm57.25-2.86l17.4-.6-.63-12.37c-2.2-43.57-12.87-67.4-30.17-67.37-18.8.02-33.82 24.2-40.07 64.46-.76 4.95-1.4 10.82-1.4 13.05l-.02 4.04 18.75-.3c10.3-.16 26.58-.57 36.15-.9zm168.6 163.97c-17.82-1.9-46.17-8.12-55.6-12.18l-4.62-2-.63-22.83c-.35-12.57-.75-29.37-.9-37.34l-.25-14.48 2.77-1.33c1.52-.73 4.6-1.4 6.82-1.5l4.05-.2 3.45 8.5c13.47 33.16 29.28 51.04 49.9 56.48 7.9 2.07 22.65 2.1 28.48.03 16.32-5.76 25.28-18.12 25.35-35 .1-20-10.9-29.62-52.43-45.84-25.73-10.06-34.7-15.24-45.4-26.17-11.52-11.8-17.05-25.24-18.1-43.95-1.25-22.6 5.83-41.66 21.5-57.9 15.78-16.34 36.26-25.2 64.17-27.75 24.57-2.24 62.28 2.97 82.04 11.34l3.6 1.53.65 20.36c.35 11.2.72 26.2.8 33.36l.18 13-4.83 1.8c-7.65 2.84-8.16 2.48-12.4-8.8-11.95-31.62-25.82-46.6-47.42-51.16-13.17-2.78-24.17.2-32.17 8.76-6.24 6.67-8.67 12.6-9.26 22.53-.64 10.78 1.3 16.6 7.87 23.8 8.1 8.88 21.4 16.55 47.88 27.6 32.43 13.56 47.9 25.07 56.32 41.9 5.46 10.9 7 19.63 6.46 36.42-.4 12.6-.82 15.2-3.68 23.65-9.35 27.58-30.44 45.74-63.04 54.25-11.04 2.9-12.6 3.03-34.56 3.28-12.65.13-24.8.05-27-.18zm47.5-2.8c42.5-6.46 69.92-29.24 77.1-64.05 3.5-16.8 1.87-35.5-4.15-48-8.42-17.5-22.67-28.06-57.95-42.98-26.2-11.08-41.9-20.47-48.34-28.9-5.32-6.97-7.05-12.33-6.98-21.62.1-14.02 5.42-24.75 15.57-31.44 8.5-5.6 19.13-6.97 31.52-4.05 14.97 3.53 26.23 12.72 36.4 29.7 3.23 5.4 9.88 20.6 13.12 29.95.5 1.46 1.08 1.52 4.58.5 2.2-.66 4.3-1.5 4.68-1.88.38-.38.35-14.7-.05-31.83l-.75-31.15-3.62-1.54c-6.12-2.6-22.1-6.94-32.62-8.88-7.92-1.45-14.9-1.83-33.5-1.8-22.22.02-24.03.16-33.2 2.65-26.66 7.23-46.42 22.27-56.75 43.2-5.5 11.1-7.38 19.67-7.32 33.07.1 19.02 5.28 33.07 16.75 45.34 9.86 10.55 22.7 18.08 44.53 26.15 17.2 6.36 34.93 15.22 41.66 20.82 3.95 3.3 7.05 7.03 9.37 11.3 3.3 6.1 3.47 6.9 3.48 16.4 0 9.16-.27 10.56-3.18 16.7-7.6 16.04-22.8 24-42.7 22.38-27.06-2.22-46.1-20.1-61.6-57.87-4.06-9.86-4.34-10.06-10.5-7.72l-2.8 1.08.7 35.22c.62 31.26.9 35.37 2.38 36.5 4.45 3.42 33.23 10.25 53.2 12.63 15.5 1.85 39.28 1.92 51 .13zM1.33 357.36C.5 357 .08 354.52.08 349.9c0-8.3-.53-7.92 15.5-10.9 12.3-2.27 16.7-4.6 22.12-11.72 10.52-13.8 12.8-40.37 12.82-149.78.02-102.74-1.96-124.36-12.84-140.24-4.83-7.04-12.97-10.87-26.6-12.5L.58 23.52l-.3-8.2L0 7.12l3.3-.58c1.8-.32 65.37-.46 141.25-.3l137.97.28.65 4c.36 2.2.94 24.77 1.3 50.15l.65 46.14-7.1 2.17c-10.72 3.26-10.66 3.3-15.48-9.45-11.83-31.3-25.4-49.35-43.96-58.46-12.8-6.28-18.73-7.04-54.9-7.04h-31.46l-.54 5.25c-1.02 9.85-2.62 73.18-2.6 103v29.75l9.25-.05c5.1-.03 15.12-.4 22.3-.83 10.78-.65 13.98-1.22 18.5-3.3 11.08-5.14 18.62-16.44 23.24-34.83l2.38-9.48 8.17-.3 8.16-.28V243.1l-8.17-.3-8.15-.28-2.32-9.5c-4.35-17.85-12.73-30.63-23.1-35.2-4.77-2.13-16.6-3.33-39.5-4.02l-10.75-.33v22.57c0 24.6 1.35 57.87 3.08 75.93 2.42 25.17 8.85 39.08 20.4 44.12 2.2.95 9.2 2.5 15.52 3.46 6.32.95 12.3 2.13 13.25 2.63 2.44 1.25 2.58 14.28.17 15.2-1.9.74-178.37.68-180.17-.04zm179.75-7.85c0-3.02-.27-5.5-.6-5.5-4.77 0-26.97-4.8-30.54-6.58-12.7-6.4-18.57-21.6-20.85-53.97-1.62-23.02-3.24-90.64-2.2-91.68.96-.96 43.24.72 48.18 1.9 13.66 3.28 24.2 16.72 29.46 37.6l2.33 9.22 6.1.3 6.1.3v-116.1h-6.5c-6.07 0-6.5.15-6.5 2.25 0 3.8-3.8 15.78-7.38 23.34-5.63 11.86-13.55 19-23.62 21.33-2.48.57-14.16 1.48-25.97 2.03-16.63.77-21.63.72-22.26-.22-1.16-1.75 1.5-133.4 2.8-139.53l.5-2.3 36.72.32 36.72.3 8.54 3.06c19.8 7.1 34.03 21.56 45.93 46.68 2.68 5.65 6.1 13.86 7.62 18.26 1.5 4.4 2.85 8.14 2.97 8.3.13.2 3.4-.64 7.3-1.82l7.08-2.15-.5-32.66c-.27-17.98-.76-39.54-1.07-47.93l-.58-15.25H1.97l.3 6.25.3 6.25 9 1.12c12.02 1.5 16.42 2.8 21.25 6.3 7.33 5.32 11.84 13.12 14.68 25.4 4.4 19.1 6 62.12 5.26 142.68-.78 85.13-1.85 102.83-7.28 120-4.46 14.13-12.77 21.6-26.5 23.88-3.77.63-9.12 1.62-11.88 2.2l-5.02 1.1V355h179v-5.5zm313.2 7.65c-.9-.58-1.2-2.9-1-7.74l.3-6.9 3.5-.75c1.93-.4 6.06-1.23 9.2-1.8 9.67-1.82 15.23-7.08 18.37-17.37 2.55-8.38 3.67-35.2 3.73-89.08.07-65.9-1.3-81.45-7.96-90.27-3.6-4.78-6.22-6.14-14.98-7.82-4.32-.83-8.87-1.72-10.1-1.98-2-.42-2.26-1.07-2.26-5.97 0-4.77.3-5.63 2.25-6.43 3-1.23 102.06-21.03 105.22-21.03h2.47l-.48 14.75c-.27 8.1-.7 19.92-.95 26.25l-.47 11.5 3.6-6.47c11.48-20.72 24.36-33.58 41.5-41.43 9.4-4.32 15.68-5.6 27.3-5.6 13.77 0 27.55 4.5 27.55 9 0 3.02-24.28 67.17-25.62 67.68-.65.25-5.4-1.56-10.53-4.03-10.72-5.14-20.78-7.66-30.55-7.64-12.16.03-25.74 4.5-31.1 10.26-2.3 2.45-2.3 2.6-2.88 39.34-.56 36.38.65 80.77 2.7 98.62 1.74 15.2 5.78 22.7 14.13 26.18 2.78 1.16 20.4 3.57 26.14 3.58.44 0 .66 3.5.5 7.75l-.3 7.75-74 .24c-40.7.13-74.58-.14-75.3-.6zm147.8-7.56v-5.4l-7.75-.66c-17.88-1.5-22.77-3.3-27.47-10.07-6.8-9.8-8.28-27.87-8.28-101.12v-57.17l2.48-2.64c3.13-3.33 12.9-7.97 19.82-9.4 14.04-2.94 32-.4 46.02 6.47 4.03 2 7.5 3.44 7.7 3.23.42-.4 23.47-61.34 24.2-63.9.3-1.18-1-2.2-4.9-3.75-8.3-3.32-15.5-4.46-24.78-3.92-24.83 1.44-46.87 17.94-62.75 46.98-2.63 4.82-5.36 8.77-6.06 8.77-1 .02-1.13-5.52-.58-27.54l.68-27.56-2.4.57c-1.34.3-21.32 4.36-44.42 9-49.54 9.94-56.43 11.4-57.6 12.12-.5.3-.9 2.08-.9 3.96 0 3.78-.44 3.56 10.82 5.37 15.47 2.5 20.94 10.03 23.24 32.1 3 28.75 1.8 140.87-1.67 156.18-1.78 7.83-6.38 15.37-11 18.05-1.73 1-7.13 2.58-12 3.54l-8.9 1.72-.3 5.25-.3 5.25h147.1v-5.4z"/></svg>