<svg xmlns="http://www.w3.org/2000/svg" xmlns:xlink="http://www.w3.org/1999/xlink" viewBox="0 0 524.74 136.12"><defs><style>.cls-1{fill:#fff;}.cls-2{fill:url(#linear-gradient);}.cls-3{fill:url(#linear-gradient-2);}.cls-4{fill:url(#linear-gradient-3);}.cls-5{fill:url(#linear-gradient-4);}.cls-6{fill:url(#linear-gradient-5);}</style><linearGradient id="linear-gradient" x1="164.12" x2="74.17" y1="14.28" y2="120.89" gradientUnits="userSpaceOnUse"><stop offset="0" stop-color="#d1d3d4"/><stop offset=".14" stop-color="#bbbdbe"/><stop offset=".38" stop-color="#999b9d"/><stop offset=".61" stop-color="#818285"/><stop offset=".83" stop-color="#727376"/><stop offset="1" stop-color="#6d6e71"/></linearGradient><linearGradient id="linear-gradient-2" x1="65.93" x2="26.46" y1="17.73" y2="96.14" gradientTransform="translate(-9.97 43.21) rotate(-11.99)" gradientUnits="userSpaceOnUse"><stop offset="0" stop-color="#e6e7e8"/><stop offset="1" stop-color="#939598"/></linearGradient><linearGradient id="linear-gradient-3" x1="82.65" x2="57.69" y1="11.07" y2="60.65" xlink:href="#linear-gradient-2"/><linearGradient id="linear-gradient-4" x1="34.65" x2="193.27" y1="51.77" y2="138.64" gradientTransform="translate(-9.97 43.21) rotate(-11.99)" gradientUnits="userSpaceOnUse"><stop offset="0" stop-color="#b7b5b5"/><stop offset=".47" stop-color="#e6e4e4"/><stop offset=".72" stop-color="#908f8f"/><stop offset="1" stop-color="#8b8a8a"/><stop offset="1" stop-color="#f7f6f6"/></linearGradient><linearGradient id="linear-gradient-5" x1="47.73" x2="190.71" y1="58.94" y2="137.23" gradientTransform="translate(-9.97 43.21) rotate(-11.99)" gradientUnits="userSpaceOnUse"><stop offset="0" stop-color="#d1d3d4"/><stop offset="1" stop-color="#6d6e71"/></linearGradient></defs><title>9_Privoro_logo_horizontal_reverse</title><g id="Layer_1"><path d="M195.77 101.6h22.1c3.1 0 6.66.1 9.33 2.86a9.07 9.07 0 0 1 2.43 6.33 8.74 8.74 0 0 1-4.33 7.8c-2.62 1.52-5.72 1.57-8 1.57h-18.24v15h-3.3zm3.3 15.8h17.07c2.34 0 5 0 7.05-1.18a5.9 5.9 0 0 0 2.94-5.38 8.35 8.35 0 0 0-.47-2.77c-1.15-2.76-3.62-3.66-7.48-3.66h-19.14zM267.2 101.6c2.28 0 5.04 0 7.37 1.28a9 9 0 0 1 4.24 7.9 8.78 8.78 0 0 1-3.23 7.15c-2.57 2-6.14 2.2-8.7 2.3l13.5 15h-4.5l-13.3-15H247.2v15h-3.24V101.6zm-20 15.76h18c3.42 0 6.47-.1 8.42-2.2a6.8 6.8 0 0 0 1.62-4.5 6.18 6.18 0 0 0-2.3-5c-1.7-1.34-3.84-1.34-5.7-1.34H247.2zM295.14 101.6h3.2v33.62h-3.2zM342.6 101.6h3.54l-15.57 33.62h-3.14l-15.86-33.62h3.62l13.94 30.1zM396.56 118.3c0 9.73-7.77 17.82-20.1 17.82-11.76 0-19.62-7.57-19.62-17.76 0-9.9 7.72-17.8 19.95-17.8 13.34.1 19.76 9.13 19.76 17.75zm-36.2.2c0 9.24 7.15 14.76 16.4 14.76 8.9 0 16.13-5.38 16.13-15.14a14.14 14.14 0 0 0-5.9-11.8 19.53 19.53 0 0 0-11.25-2.87c-10.77.48-15.38 8.05-15.38 15.05zM435.22 101.6c2.28 0 5 0 7.38 1.28a9 9 0 0 1 4.23 7.9 8.8 8.8 0 0 1-3.23 7.15c-2.57 2-6.15 2.2-8.72 2.3l13.53 15h-4.52l-13.28-15h-15.38v15h-3.24V101.6zm-20 15.76h18c3.43 0 6.48-.1 8.43-2.2a6.75 6.75 0 0 0 1.62-4.5 6.2 6.2 0 0 0-2.28-5c-1.73-1.34-3.87-1.34-5.73-1.34h-20.05zM500.92 118.3c0 9.73-7.76 17.82-20.1 17.82-11.75 0-19.6-7.57-19.6-17.76 0-9.9 7.7-17.8 19.94-17.8 13.33.1 19.76 9.13 19.76 17.75zm-36.18.2c0 9.24 7.14 14.76 16.37 14.76 8.92 0 16.16-5.38 16.16-15.14a14.13 14.13 0 0 0-5.9-11.8 19.5 19.5 0 0 0-11.22-2.87c-10.8.48-15.4 8.05-15.4 15.05zM509.6 105.37a7.57 7.57 0 1 1 15.14 0 7.65 7.65 0 0 1-7.6 7.62 7.57 7.57 0 0 1-7.54-7.63zm14.26 0a6.68 6.68 0 0 0-6.7-6.78 6.75 6.75 0 0 0-6.72 6.8 6.7 6.7 0 1 0 13.42 0zm-9.6-4h3.46c1.63 0 2.88.84 2.88 2.43a2.37 2.37 0 0 1-1.84 2.3l2.14 2.93h-1.76l-1.84-2.72h-1.7v2.7h-1.4zm3.33 3.85c1 0 1.62-.54 1.62-1.34s-.62-1.3-1.63-1.25h-2v2.63z" class="cls-1"/><path d="M179.66 64.8s-54.07-8.95-56.17-15.87c-4.93-16.28-15.74-22.58-47.56-23.67C70.7 25.08 64.92 9 71.04 0 53.14 14 11.14 49 0 97.37c38.14-24.67 180.14 3.25 179.66-32.6z" class="cls-2"/><path d="M70.8.67s-26.72 30.12-3.9 56c0 0-39.76-.36-66.8 40.68C14.2 35.33 70.8.67 70.8.67z" class="cls-3"/><path d="M70.8.67s-26.72 30.12-3.9 56c0 0-13.52-.12-30.18 7.92C30.46 37.26 70.8.66 70.8.66z" class="cls-4"/><path d="M32.34 129.1c0-69.23 144.94 17.9 147.4-64.3 0 0-13.43 13.4-54.27 8.7-29.14-3.35-60.84-4.66-77.28-.13-33.6 9.27-35.7 44.05-15.86 55.74z" class="cls-5"/><path d="M32.34 129.1c0-69.23 144.94 17.9 147.4-64.3 0 0-10.78 32.74-47.1 28.55-29.15-3.36-48.48-3.9-65.73-3.1-32.93 1.53-40.87 24.57-34.56 38.86z" class="cls-6"/></g></svg>