<svg xmlns="http://www.w3.org/2000/svg" id="Layer_1" x="0" y="0" version="1.1" viewBox="0 0 360 144" xml:space="preserve"><style>.st0{fill:#c61a3c}</style><path d="M79 15.1c-3.4-4.9-9.4-7.5-17.3-7.4-17.3.1-29.4 9.6-33.4 26.3-1.8 7.5-1 14.8 2.1 20 3 5 5.9 6.6 9.7 8.7 1.4.8 2.9 1.6 4.6 2.7.6.4 1.2.8 1.8 1.2 4.4 2.9 8.5 5.7 6.2 14-1.1 4-6.3 6.3-8.7 6.2-2.1-.1-5.2-.4-6.8-2.6-1-1.3-1.3-3.1-.8-5.3.1-.2 1.2-4 2.4-7.6H20.3c-2.8 6.6-3.7 12.1-3.7 12.2-1.1 4.8.3 10.1 3.8 14.4 4.5 5.5 11.5 8.6 19.4 8.6 19-.1 32-10.3 35.8-28 2.2-10.3 1.3-18-2.7-23.6-4.8-6.7-9.4-8.4-13.6-9.9-1.7-.6-3.4-1.2-4.8-2.1l-.5-.3c-3.9-2.4-6.5-4-4.4-10.6 1.5-4.5 4.5-6.7 9-6.7.7 0 1.8.4 2.7 1.5 1.4 1.8 1.6 4.8.7 8.9l17.9.1c3-8.3 2.6-15.6-.9-20.7z" class="st0"/><path d="M53.5 43.5s0-.1 0 0zM53.6 43.5c.1.1-.2-.1 0 0z"/><path d="M95.3 9l-19.1 95.6h22.5L118.1 9H95.3zM172.5 15.5c-3.6-4.5-10.4-6.8-20.6-7.1-4-.1-16.2-.4-26 16.2-1.8 3-5.1 9.5-7.8 20 0 0-4.7 17.9-4.7 17.9-4.1 17.6-3.1 31.3 2.8 38.7 3.3 4.1 8 6.2 14 6.2 8.9 0 13.1-2.3 17.6-5.4l2.3-1.5-.3 2.7-.2 2.3h11.8l9.6-47.6h-26.5l-2.7 13.3h7.6l-.3 1.5s-1.2 5.5-1.2 5.4c-1.3 7.9-3.6 10.3-9.6 10.1-1.4-.1-2.5-.6-3.3-1.6-1.9-2.4-1.3-6.9-.3-12 0 0 5.9-31.3 5.9-31.3 1.5-7.8 4.6-17.1 11-17.1 1.3 0 2.1.6 2.6 1.1 1.5 1.6 1.1 4.6.9 7.2-.1.6-.1 1.2-.2 1.7v.2l-1.7 9.4H173c.6-3.1 2.4-12.2 2.4-12.2 1.2-8.1.4-14-2.9-18.1z" class="st0"/><path d="M139.3 43.3zM139.3 43.1z"/><path d="M215.4 51.7l-1.2-6.3-7.3-36.5h-20l-18.5 95.6h18l7.8-39.8 1.3-6.3 1.2 6.3 7.9 39.8h18.3l19-95.6h-18l-7.2 36.5-1.3 6.3zM321.4 84.2h-1.6l.3-1.6 14.7-73.7H313l-18.9 95.7h45.6l4-20.4h-22.3zM263.6 8.9l-35.3 95.7h19.1l6.1-17.6.3-.8H267l-.1 1.3-.9 17.1h23.8V8.9h-26.2zm7 31.3l-.5 9.2-1 19.4-.1 1.2-.1 1.2H257.4l.6-1.7.6-1.7 6.5-19.4 2.9-8.7 2.9-8.7-.3 9.2z" class="st0"/><g><path d="M15.6 132.1l3.4-15.9h5.3l.2 10.8 4.9-10.8h5.2l-3.4 15.9H28l2.6-12.3-5.6 12.3h-3.2l-.3-12.3-2.6 12.3h-3.3zM34.8 126.4c.6-3 1.6-5.6 5.7-5.6s4 2.6 3.3 5.6c-.7 3.5-1.8 5.9-5.8 5.9-3.9 0-4-2.4-3.2-5.9zm6-.2c.5-2.3.6-3.5-.7-3.5-1.3 0-1.7 1.2-2.2 3.5-.7 3.4-.6 4.1.5 4.1 1.2 0 1.7-.7 2.4-4.1zM50.1 121l-.3 1.4c.8-1.3 2-1.7 3.2-1.7l-.6 2.8c-2.7-.2-3.1 1.4-3.3 2.5l-1.3 6.1h-3.1l2.4-11.1h3zM56.1 127c-.3 1.3-.7 3.3.7 3.3 1.1 0 1.5-1.1 1.7-2h3.1c-.3 1.2-.9 2.2-1.8 2.9-.9.7-2 1.1-3.5 1.1-4 0-4-2.4-3.3-5.9.6-3 1.6-5.6 5.7-5.6 4.2 0 4.1 2.7 3.2 6.3h-5.8zm3.2-1.7c.2-1.1.6-2.6-.9-2.6-1.4 0-1.8 1.7-2 2.6h2.9zM69.2 121h1.3l.4-1.8 3.4-1.4-.7 3.1h1.6l-.4 1.9h-1.6l-1.3 5.9c-.2.8-.3 1.4.7 1.4.2 0 .4 0 .5 0l-.4 1.9c-.4 0-.9.1-1.6.1-2.7 0-2.7-1.8-2.5-2.5l1.5-6.8h-1.3l.4-1.8zM79.6 132.1l1.6-7.7c.2-1 .2-1.8-.8-1.8s-1.3.8-1.5 1.8l-1.6 7.7h-3.1l3.4-15.9h3.1l-1.3 5.9c.4-.5.9-.8 1.3-1 .5-.2 1-.3 1.6-.3 1.5 0 2.6.9 2.3 2.4l-1.9 8.9h-3.1zM94 130c-.2.7-.2 1.4-.3 2.1h-2.9l.2-1.5c-.9 1.1-1.9 1.7-3.3 1.7-2.2 0-2.6-1.6-2.2-3.5.8-3.7 3.7-3.8 6.5-3.8l.2-.9c.2-.9.2-1.6-.9-1.6s-1.3.8-1.5 1.7h-3c.3-1.3.9-2.2 1.7-2.7.8-.5 1.9-.7 3.1-.7 3.9 0 4.1 1.7 3.7 3.7L94 130zm-5.4-1.4c-.2.8-.2 1.8.8 1.8 1.8 0 2.1-2.5 2.3-3.7-1.6.1-2.7 0-3.1 1.9zM101.4 122.1c.5-.5.9-.8 1.4-1 .5-.2 1-.3 1.6-.3 1.5 0 2.6.9 2.3 2.4l-1.9 8.9h-3.1l1.6-7.7c.2-1 .2-1.8-.8-1.8s-1.3.8-1.5 1.8l-1.6 7.7h-3.1l2.4-11.1h3.1l-.4 1.1zM120.9 130c-.2.7-.2 1.4-.3 2.1h-2.9l.2-1.5c-.9 1.1-1.9 1.7-3.3 1.7-2.2 0-2.6-1.6-2.2-3.5.8-3.7 3.7-3.8 6.5-3.8l.2-.9c.2-.9.2-1.6-.9-1.6s-1.3.8-1.5 1.7h-3c.3-1.3.9-2.2 1.7-2.7.8-.5 1.9-.7 3.1-.7 3.9 0 4.1 1.7 3.7 3.7l-1.3 5.5zm-5.4-1.4c-.2.8-.2 1.8.8 1.8 1.8 0 2.1-2.5 2.3-3.7-1.6.1-2.7 0-3.1 1.9zM132.9 122.1c.9-1 1.8-1.3 2.9-1.3 1.1 0 1.9.5 2.2 1.4.9-1 1.9-1.4 3.2-1.4 1.5 0 2.6.9 2.3 2.4l-1.9 8.9h-3.1l1.6-7.7c.2-1 .2-1.8-.8-1.8s-1.3.8-1.5 1.8l-1.6 7.7h-3l1.6-7.7c.2-1 .2-1.8-.8-1.8s-1.3.8-1.5 1.8l-1.6 7.7h-3.1l2.4-11.1h3.1l-.4 1.1zM152.7 130c-.2.7-.2 1.4-.3 2.1h-2.9l.2-1.5c-.9 1.1-1.9 1.7-3.3 1.7-2.2 0-2.6-1.6-2.2-3.5.8-3.7 3.7-3.8 6.5-3.8l.2-.9c.2-.9.2-1.6-.9-1.6s-1.3.8-1.5 1.7h-3c.3-1.3.9-2.2 1.7-2.7.8-.5 1.9-.7 3.1-.7 3.9 0 4.1 1.7 3.7 3.7l-1.3 5.5zm-5.4-1.4c-.2.8-.2 1.8.8 1.8 1.8 0 2.1-2.5 2.3-3.7-1.6.1-2.7 0-3.1 1.9zM165.7 121l-2.4 11.6c-.2.8-.8 3.8-5 3.8-2.3 0-4.2-.6-3.7-3.3h3c-.1.5-.1.9 0 1.1.1.3.5.4.9.4.8 0 1.3-.7 1.5-1.8l.5-2.1c-.6.9-1.6 1.3-2.6 1.3-3.4 0-2.6-3.1-2-5.6.5-2.4 1.2-5.5 4.4-5.5 1.1 0 2 .5 2.2 1.5l.3-1.3h2.9zm-6.3 9c1.1 0 1.5-1.2 2-3.5.5-2.4.7-3.8-.4-3.8-1.2 0-1.5.8-2.3 4.2-.2 1-.8 3.1.7 3.1zM174.7 130c-.2.7-.2 1.4-.3 2.1h-2.9l.2-1.5c-.9 1.1-1.9 1.7-3.3 1.7-2.2 0-2.6-1.6-2.2-3.5.8-3.7 3.7-3.8 6.5-3.8l.2-.9c.2-.9.2-1.6-.9-1.6s-1.3.8-1.5 1.7h-3c.3-1.3.9-2.2 1.7-2.7.8-.5 1.9-.7 3.1-.7 3.9 0 4.1 1.7 3.7 3.7l-1.3 5.5zm-5.4-1.4c-.2.8-.2 1.8.8 1.8 1.8 0 2.1-2.5 2.3-3.7-1.6.1-2.7 0-3.1 1.9zM185.5 123.2l-5.9 6.9h4.5l-.4 2h-7.5l.5-2.2 5.8-6.9h-4.2l.4-2h7.3l-.5 2.2zM188.7 132.1h-3.1L188 121h3.1l-2.4 11.1zm3.4-15.9l-.5 2.4h-3.1l.5-2.4h3.1zM196.7 122.1c.5-.5.9-.8 1.4-1 .5-.2 1-.3 1.6-.3 1.5 0 2.6.9 2.3 2.4l-1.9 8.9H197l1.6-7.7c.2-1 .2-1.8-.8-1.8s-1.3.8-1.5 1.8l-1.6 7.7h-3.1L194 121h3.1l-.4 1.1zM206.4 127c-.3 1.3-.7 3.3.7 3.3 1.1 0 1.5-1.1 1.7-2h3.1c-.3 1.2-.9 2.2-1.8 2.9-.9.7-2 1.1-3.5 1.1-4 0-4-2.4-3.3-5.9.6-3 1.6-5.6 5.7-5.6 4.2 0 4.1 2.7 3.2 6.3h-5.8zm3.2-1.7c.2-1.1.6-2.6-.9-2.6-1.4 0-1.8 1.7-2 2.6h2.9zM216 132.1h-2.6l.6-2.9h2.6l-.6 2.9zm2.4-11.1l-.6 2.9h-2.6l.6-2.9h2.6zM225.4 116.2h3.4l-.3 11.2 4.9-11.2h3.9v11.2l4.3-11.2h3.3l-6.9 15.9h-3.7v-11.6l-5.2 11.6h-3.6l-.1-15.9zM246.2 127c-.3 1.3-.7 3.3.7 3.3 1.1 0 1.5-1.1 1.7-2h3.1c-.3 1.2-.9 2.2-1.8 2.9-.9.7-2 1.1-3.5 1.1-4 0-4-2.4-3.3-5.9.6-3 1.6-5.6 5.7-5.6 4.2 0 4.1 2.7 3.2 6.3h-5.8zm3.2-1.7c.2-1.1.6-2.6-.9-2.6-1.4 0-1.8 1.7-2 2.6h2.9zM256.7 116.2h2.9l-2.5 4.3H255l1.7-4.3zM263.5 121l-.3 1.4c.8-1.3 2-1.7 3.2-1.7l-.6 2.8c-2.7-.2-3.1 1.4-3.3 2.5l-1.3 6.1h-3.1l2.4-11.1h3zM269.4 127c-.3 1.3-.7 3.3.7 3.3 1.1 0 1.5-1.1 1.7-2h3.1c-.3 1.2-.9 2.2-1.8 2.9-.9.7-2 1.1-3.5 1.1-4 0-4-2.4-3.3-5.9.6-3 1.6-5.6 5.7-5.6 4.2 0 4.1 2.7 3.2 6.3h-5.8zm3.2-1.7c.2-1.1.6-2.6-.9-2.6-1.4 0-1.8 1.7-2 2.6h2.9zM280.3 132.1l7.8-15.9h4.4l.9 15.9h-3.5l-.1-3.5h-4.5l-1.7 3.5h-3.3zm9.1-12.8l-3 6.9h3.2l-.2-6.9zM294.9 132.1l3.4-15.9h8.3l-.5 2.4h-4.9l-.9 4.1h4.7l-.5 2.4h-4.7l-1.5 6.9h-3.4zM306.3 124.2c.9-4.2 1.7-8.2 7.2-8.2 3.4 0 4.4 1.9 3.5 5.3h-3.3c.4-2.1.2-2.9-.7-2.9-1.9 0-2.5 1.8-3.3 5.8-.9 4.1-1 5.8.9 5.8 1.5 0 1.9-2 2.2-3.2h3.3c-.9 4.2-2.9 5.6-6 5.6-5.6 0-4.7-4.1-3.8-8.2zM317 132.1l3.4-15.9h8.7l-.5 2.4h-5.3l-.8 3.9h4.9l-.5 2.4H322l-1 4.6h5.5l-.5 2.4h-9zM326.7 132.1l7.8-15.9h4.4l.9 15.9h-3.5l-.1-3.5h-4.5l-1.7 3.5h-3.3zm9.2-12.8l-3 6.9h3.2l-.2-6.9zM344.4 129.2l-.6 2.9h-2.6l.6-2.9h2.6z"/></g></svg>