<svg xmlns="http://www.w3.org/2000/svg" viewBox="0 0 504 72" enable-background="new 0 0 504 72"><style type="text/css">.st0{fill:#1E6597;}</style><path d="M10.2 5.1h26.7c17.6 0 23.8 15 23.8 30.3 0 18.6-8.6 30.5-27 30.5H10.2V5.1zm16.3 45.2h6.4c10.1 0 11.6-9.4 11.6-15.1 0-3.8-1-14.5-12.8-14.5h-5.2v29.6zM76.1 47.5c.4 5 2.9 8.6 7.5 8.6 2.4 0 5-1 6.1-3.1h13.7c-3 9.5-11 14-19.8 14-12.3 0-21.5-8.3-21.5-23.1 0-12.9 8.1-23.3 20.3-23.3 15.2 0 21.8 9.8 21.8 27H76.1zm14.1-8.7c0-4.1-2.7-7.4-6.4-7.4-4.4 0-6.9 2.6-7.5 7.4h13.9zM109.1 32h-6V21.7h6c-.1-4.3.2-9.2 3-12.4 3.2-3.7 6.9-4.2 12.8-4.2 2.2 0 4.4.3 6.6.3V17c-1.2-.2-2.4-.6-3.6-.6-3.6 0-4.7 1.2-4.5 5.3h7.7V32h-7.4v33.8H109V32zM144.1 47.5c.4 5 2.9 8.6 7.5 8.6 2.4 0 5-1 6.1-3.1h13.7c-3 9.5-11 14-19.8 14-12.3 0-21.5-8.3-21.5-23.1 0-12.9 8.1-23.3 20.3-23.3 15.2 0 21.8 9.8 21.8 27h-28.1zm14.1-8.7c0-4.1-2.7-7.4-6.4-7.4-4.4 0-6.9 2.6-7.5 7.4h13.9zM174.8 21.7h14.1v5.6h.1c2.7-4.4 6.7-6.7 12.5-6.7 6.9 0 13.2 4.9 13.2 15v30.3H200V42.7c0-5.1-.5-8.7-4.8-8.7-2.5 0-5.8 1.4-5.8 8.5v23.3h-14.7V21.7zM241.6 34.5c-.1-1.4-.7-2.6-1.7-3.3-.9-.9-2.1-1.3-3.3-1.3-2.1 0-4.4.5-4.4 3.4 0 1.3.9 1.9 1.7 2.3 2.4 1.2 8 1.5 12.9 3.4 4.9 1.8 9.2 5.1 9.2 12.3 0 12.3-10.2 15.6-19.5 15.6-9 0-18.9-4.2-19.2-15.6h14c.1 1.5.7 2.8 1.8 3.9.7.8 2.1 1.3 3.9 1.3 1.9 0 5-.9 5-3.4s-1.3-3.3-8.1-4.7c-11.2-2.2-15.7-6.3-15.7-13.9 0-11.1 10.4-14 18.1-14 8.3 0 18.3 2.6 18.6 14h-13.3zM270.5 47.5c.4 5 2.9 8.6 7.5 8.6 2.4 0 5-1 6.1-3.1h13.7c-3 9.5-11 14-19.8 14-12.3 0-21.5-8.3-21.5-23.1 0-12.9 8.1-23.3 20.3-23.3 15.2 0 21.8 9.8 21.8 27h-28.1zm14-8.7c0-4.1-2.7-7.4-6.4-7.4-4.4 0-6.9 2.6-7.5 7.4h13.9z" class="st0"/><path d="M301.8 5.1h16.7l15.4 32.5h.1V5.1h15.4v60.8h-15.8l-16.2-33.2h-.1v33.2h-15.4V5.1zM366.7 47.5c.4 5 2.9 8.6 7.5 8.6 2.4 0 5-1 6.1-3.1H394c-3 9.5-11 14-19.8 14-12.3 0-21.5-8.3-21.5-23.1 0-12.9 8.1-23.3 20.3-23.3 15.2 0 21.8 9.8 21.8 27h-28.1zm14.1-8.7c0-4.1-2.7-7.4-6.4-7.4-4.4 0-6.9 2.6-7.5 7.4h13.9zM445.3 65.8h-15l-5.5-27.1h-.1L419 65.8h-15l-12-44.2h15.2l5.7 27.3h.1l4.9-27.3h13.7l5.1 27.3h.3l5.3-27.3h15.2l-12.2 44.2zM479.4 34.5c-.1-1.4-.7-2.6-1.7-3.3-.9-.9-2.1-1.3-3.3-1.3-2.1 0-4.4.5-4.4 3.4 0 1.3.9 1.9 1.7 2.3 2.4 1.2 8 1.5 12.9 3.4 4.9 1.8 9.2 5.1 9.2 12.3 0 12.3-10.2 15.6-19.5 15.6-9 0-18.9-4.2-19.2-15.6h14c.1 1.5.7 2.8 1.8 3.9.7.8 2.1 1.3 3.9 1.3 1.9 0 5-.9 5-3.4s-1.3-3.3-8.1-4.7c-11.2-2.2-15.7-6.3-15.7-13.9 0-11.1 10.4-14 18.1-14 8.3 0 18.3 2.6 18.6 14h-13.3z"/></svg>