<svg width="52" height="55" viewBox="0 0 52 55" fill="none" xmlns="http://www.w3.org/2000/svg">
<g clip-path="url(#clip0_969_1483)">
<path d="M26.2476 30.3067C26.8686 28.4283 27.5792 26.5667 28.0771 24.6604C28.4408 23.2795 29.129 22.7093 30.5446 22.8771C31.5069 22.9889 32.514 22.8211 33.4596 23.0056C36.2123 23.5367 38.1986 26.1195 38.2098 29.0936C38.2098 35.0027 38.2098 40.9174 38.2098 46.8265C38.2098 48.6881 37.5664 49.3478 35.6976 49.3478C29.2372 49.3478 22.7768 49.3478 16.3163 49.3478C14.4028 49.3478 13.7986 48.7552 13.793 46.8656C13.793 40.9956 13.793 35.1257 13.793 29.2669C13.8209 25.2642 16.2716 22.877 20.2776 22.8994C23.5675 22.8994 23.1255 22.4186 24.1942 25.6946C24.681 27.2376 25.2405 28.7582 25.7664 30.2844L26.2476 30.3067ZM25.9231 47.078C28.7598 47.078 31.5909 47.078 34.422 47.078C35.3787 47.078 35.8766 46.8041 35.8711 45.7307C35.8375 40.1403 35.8711 34.5499 35.8375 28.9874C35.8375 26.7512 34.159 25.2083 31.9209 25.1132C30.9082 25.0685 30.2928 25.3536 29.9739 26.4214C29.1738 29.088 28.2953 31.7267 27.3945 34.371C27.1539 35.1033 27.0253 36.1543 25.9902 35.9084C25.4587 35.7854 24.9104 35.0083 24.6922 34.4101C23.7242 31.7491 22.8402 29.0545 22.0065 26.3487C21.9353 25.9621 21.7175 25.6178 21.3986 25.3877C21.0797 25.1575 20.6841 25.0592 20.2944 25.1132C17.6928 25.1132 16.1205 26.7903 16.0926 29.7645C16.0478 35.0195 16.0926 40.2801 16.059 45.5351C16.059 46.6532 16.445 47.106 17.592 47.0836C20.3504 47.0333 23.1367 47.0725 25.9231 47.0725V47.078Z" fill="#00778B"/>
<path d="M33.9064 14.4132C33.844 16.4801 32.9764 18.4409 31.4883 19.8781C30.0003 21.3152 28.0094 22.1149 25.9398 22.1069C23.8703 22.0989 21.8857 21.2837 20.4088 19.8351C18.932 18.3865 18.0796 16.419 18.0332 14.3517C18.0095 13.2927 18.1983 12.2396 18.5885 11.2547C18.9786 10.2697 19.5623 9.37282 20.3049 8.61689C21.0476 7.86096 21.9343 7.26132 22.9127 6.85331C23.891 6.44531 24.9413 6.23722 26.0014 6.24133C27.0616 6.24544 28.1102 6.46166 29.0853 6.87723C30.0605 7.2928 30.9425 7.8993 31.6793 8.66096C32.4161 9.42262 32.9927 10.324 33.3752 11.3119C33.7577 12.2999 33.9383 13.3544 33.9064 14.4132ZM20.372 14.2846C20.3525 15.7871 20.931 17.2358 21.9801 18.3124C23.0293 19.389 24.4633 20.0053 25.967 20.026C27.4723 19.9898 28.9048 19.3709 29.9622 18.2998C31.0196 17.2286 31.6193 15.789 31.6348 14.2846C31.6162 12.8035 31.0222 11.3877 29.9781 10.3361C28.9341 9.28461 27.5219 8.67978 26.0398 8.64943C25.2932 8.63967 24.5523 8.7793 23.8606 9.06009C23.1689 9.34089 22.5405 9.75717 22.0123 10.2844C21.4841 10.8116 21.0668 11.4391 20.7851 12.13C20.5034 12.8208 20.3629 13.561 20.372 14.3069V14.2846Z" fill="#00778B"/>
<path d="M40.123 26.9134C42.3611 26.9134 44.4369 26.7736 46.507 26.9469C49.2038 27.1705 50.7593 29.0042 50.776 31.7156C50.7984 35.4835 50.7984 39.2533 50.776 43.025C50.776 44.7021 50.2725 45.155 48.594 45.1661C46.093 45.1661 43.592 45.1661 41.1302 45.1661C40.5371 43.148 40.6826 42.93 42.6129 42.93C44.1459 42.93 45.679 42.93 47.212 42.93C48.096 42.93 48.4653 42.5722 48.4541 41.6777C48.4541 38.3234 48.4541 34.9692 48.4541 31.6149C48.4541 30.1111 47.682 29.3787 46.0874 29.2669C45.0187 29.1943 43.9501 29.239 42.8814 29.2334C40.7106 29.2613 40.7105 29.2613 40.123 26.9134Z" fill="#00778B"/>
<path d="M11.0665 45.1606C8.17384 45.1606 5.35394 45.2276 2.53963 45.0935C2.08083 45.0935 1.29753 44.1599 1.28634 43.6455C1.18563 39.3241 1.19122 35.0027 1.28634 30.6813C1.3245 29.8071 1.6733 28.9751 2.27012 28.3347C2.86693 27.6944 3.67267 27.2875 4.54266 27.1873C6.95413 26.9413 9.41036 27.1258 11.8162 27.1258C11.5253 29.2781 11.5253 29.2781 9.43273 29.2781C8.27456 29.2781 7.1108 29.239 5.95263 29.3117C4.14543 29.4179 3.45162 30.1558 3.44602 31.9503C3.44602 35.1089 3.474 38.2675 3.44602 41.4541C3.44602 42.5722 3.82648 43.053 4.97906 43.0027C6.46175 42.9356 7.95003 43.0027 9.4551 43.0027C11.3238 42.9244 11.3518 42.9691 11.0665 45.1606Z" fill="#00778B"/>
<path d="M46.6474 18.7289C46.6336 19.5208 46.4631 20.3021 46.1459 21.0279C45.8286 21.7537 45.3707 22.4096 44.7986 22.9578C44.2266 23.506 43.5516 23.9357 42.8126 24.2221C42.0736 24.5086 41.2852 24.6461 40.4928 24.6268C39.6941 24.6114 38.9063 24.439 38.1743 24.1194C37.4424 23.7997 36.7806 23.3392 36.2267 22.764C35.6729 22.1888 35.2379 21.5102 34.9465 20.7671C34.6551 20.0239 34.513 19.2307 34.5285 18.4326C34.5439 17.6346 34.7165 16.8475 35.0364 16.1161C35.3563 15.3847 35.8172 14.7235 36.3929 14.1701C36.9686 13.6167 37.6477 13.182 38.3915 12.8909C39.1353 12.5997 39.9291 12.4578 40.7278 12.4732C41.5329 12.4783 42.3286 12.6461 43.067 12.9667C43.8054 13.2872 44.4712 13.7538 45.0243 14.3383C45.5774 14.9228 46.0064 15.6131 46.2853 16.3677C46.5643 17.1223 46.6874 17.9255 46.6474 18.7289ZM44.2751 18.5668C44.2978 17.5803 43.9305 16.6247 43.253 15.9068C42.5754 15.189 41.642 14.7668 40.6551 14.7318C39.6452 14.7447 38.6781 15.1415 37.9506 15.8414C37.2231 16.5413 36.7897 17.4919 36.7385 18.4997C36.7854 19.5036 37.2074 20.4534 37.9212 21.1614C38.6349 21.8694 39.5885 22.2841 40.5935 22.3236C41.5799 22.3118 42.5213 21.9097 43.2114 21.2055C43.9015 20.5013 44.284 19.5524 44.2751 18.5668Z" fill="#00778B"/>
<path d="M17.6475 18.5836C17.6611 19.3849 17.5131 20.1807 17.2122 20.9235C16.9112 21.6663 16.4636 22.3409 15.8959 22.9071C15.3283 23.4732 14.6523 23.9193 13.9083 24.2186C13.1643 24.5179 12.3676 24.6644 11.5657 24.6492C9.94667 24.6345 8.39961 23.9788 7.26371 22.826C6.12781 21.6733 5.49577 20.1175 5.50621 18.4998C5.49749 17.6958 5.65172 16.8983 5.95958 16.1554C6.26743 15.4125 6.72258 14.7395 7.29759 14.177C7.87259 13.6145 8.55556 13.1741 9.30541 12.8822C10.0553 12.5904 10.8564 12.4532 11.6608 12.4789C12.4618 12.463 13.2576 12.611 13.9993 12.9137C14.741 13.2165 15.4129 13.6676 15.9736 14.2394C16.5343 14.8112 16.9721 15.4916 17.2599 16.2387C17.5478 16.9857 17.6797 17.7837 17.6475 18.5836V18.5836ZM15.4095 18.5836C15.3889 17.5789 14.9856 16.6199 14.2818 15.902C13.5779 15.1842 12.6265 14.7617 11.6216 14.7206C10.6147 14.7366 9.65364 15.1445 8.94308 15.8576C8.23253 16.5707 7.8285 17.5327 7.81697 18.5389C7.82507 19.5209 8.21263 20.4618 8.89869 21.165C9.58474 21.8682 10.5162 22.2793 11.4985 22.3125C12.5061 22.3166 13.4766 21.9325 14.2081 21.2402C14.9396 20.5478 15.3759 19.6003 15.4263 18.5948L15.4095 18.5836Z" fill="#00778B"/>
</g>
<defs>
<clipPath id="clip0_969_1483">
<rect width="49.5833" height="43.0128" fill="white" transform="translate(1.20898 6.34613)"/>
</clipPath>
</defs>
</svg>
