<svg width="50" height="50" viewBox="0 0 50 50" fill="none" xmlns="http://www.w3.org/2000/svg">
<g clip-path="url(#clip0_2151_3373)">
<path d="M25.0541 1.23094C29.751 1.21278 34.3476 2.58263 38.2618 5.16698C42.1761 7.75134 45.2318 11.4339 47.0421 15.7484C48.8524 20.0629 49.3357 24.8151 48.4308 29.4032C47.526 33.9912 45.2737 38.2088 41.9592 41.5217C38.6448 44.8346 34.4172 47.0938 29.812 48.0132C25.2067 48.9326 20.431 48.4707 16.0897 46.6862C11.7483 44.9016 8.03658 41.8747 5.42462 37.9887C2.81265 34.1026 1.41793 29.5324 1.4171 24.8567C1.40762 21.7595 2.01182 18.6909 3.19515 15.8265C4.37848 12.962 6.11769 10.3581 8.31321 8.16357C10.5087 5.96908 13.1175 4.22719 15.9901 3.0376C18.8627 1.848 21.9428 1.23407 25.0541 1.23094ZM25.0541 2.85012C12.9511 2.88203 2.97553 12.8205 3.05565 24.9006C3.13578 36.9807 12.7709 46.8713 25.1462 46.8354C37.4374 46.7995 47.0685 37.1043 47.1526 24.8049C47.2167 12.7607 37.1169 2.82221 25.038 2.85012H25.0541Z" fill="#00778B" stroke="#00778B"/>
<path d="M21.887 30.4819C23.2642 28.5637 24.5669 26.7852 25.8572 24.9696C28.3386 21.4919 30.82 18.0142 33.3013 14.5365C34.1037 13.4151 35.0342 12.4047 36.5727 12.6265C38.9258 12.9633 39.9846 15.3826 38.6405 17.3748C36.9159 19.9215 35.0879 22.4229 33.2972 24.8875C30.5401 28.7486 27.761 32.6055 24.9598 36.4584C23.6405 38.2945 21.734 38.4834 20.0383 36.939C17.3336 34.4745 14.6165 32.01 11.9366 29.5167C11.4375 29.0853 11.0965 28.5018 10.967 27.8573C10.8375 27.2129 10.9269 26.544 11.2212 25.9554C11.4636 25.4209 11.8716 24.9773 12.3856 24.6891C12.8996 24.401 13.4929 24.2834 14.0789 24.3535C14.782 24.4693 15.443 24.7636 15.9978 25.2079C17.619 26.5716 19.1533 28.0462 20.7249 29.4715C21.0475 29.7837 21.3907 30.0589 21.887 30.4819ZM22.1475 33.1724C21.8001 32.8643 21.5478 32.6466 21.2997 32.4207C19.145 30.4573 16.9987 28.4898 14.8357 26.5387C14.2485 26.0006 13.5661 25.9308 13.0078 26.5387C12.4494 27.1466 12.6438 27.734 13.1773 28.2639C13.3965 28.4816 13.6157 28.6993 13.8432 28.9088C16.2473 31.0994 18.6529 33.2901 21.0599 35.4808C22.2509 36.5693 22.7141 36.5118 23.6736 35.2015C27.1779 30.3382 30.6835 25.4776 34.1905 20.6197C35.2079 19.2026 36.2583 17.802 37.1847 16.3274C37.287 16.0945 37.3335 15.8412 37.3206 15.5875C37.3077 15.3338 37.2357 15.0865 37.1103 14.8651C36.9366 14.5899 36.2377 14.4543 35.8448 14.557C35.4519 14.6597 35.15 15.0869 34.8977 15.4401C32.9664 18.0977 31.064 20.7799 29.145 23.4498L22.1475 33.1724Z" fill="#00778B"/>
</g>
<defs>
<clipPath id="clip0_2151_3373">
<rect width="48.875" height="48.6538" fill="white" transform="translate(0.708496 0.525635)"/>
</clipPath>
</defs>
</svg>
