<svg xmlns="http://www.w3.org/2000/svg" viewBox="0 0 301.5 156.5" enable-background="new 0 0 301.5 156.5"><style type="text/css">.st0{fill:#E6E7E8;} .st1{fill:url(#SVGID_1_);} .st2{fill:url(#SVGID_2_);} .st3{fill:url(#SVGID_3_);} .st4{fill:url(#SVGID_4_);} .st5{fill:#ED1A3B;} .st6{fill:#808285;} .st7{fill:#2D2B74;} .st8{fill:#FFFFFF;}</style><path d="M175.9 17.9c-10.2-1.7-10.6-1.3-10.6 3.8 0 12.7 6.8 16.9 13.1 16.5 36.3-6.5 40.7-33.9 40.7-33.9h79.2s-5.5 17.4-8.5 19.1-39.4 0-39.4 0l-.4 1.7s24.2 3.9 35.2 5.9c-3.8 6.9-5.9 8.5-8 11-14 .8-34.7 0-34.7 0l-.3 1.8 29 4.6s-9.3 8.4-16.1 14c-6.4.1-23.3 0-23.3 0v2.1s8.4 1 17 1.4c-4.5 6.6-45.5 27-55.9 30.3-29.8 10.7-20.4 26.3-16.7 32.9 2.3 4.2 16.9 23.8 16.9 23.8h-14.6s-8.8-16.6-11.1-16.4c-1.7.2 4.7 16.4 4.7 16.4h-18.2s-.2-16.8-2.5-17.4c-2.5-.6-3 17.4-3 17.4h-17.8s8.3-17.6 4.6-16.9c-1.3.2-11 16.9-11 16.9h-15.7s14.4-17.4 17.8-23.7c8.9-14 1.7-28-16.1-33-11.4-3-56.8-30.1-56.8-30.1l18.3-2.5.2-2-25.6.4-14.4-14 28.4-3.8.7-2.3-35.8.2-8.9-11.9 36-4.7.3-2.1-41.4-.4L4 4.4s68.2-.8 78.8 0c5.5 10.2 17.8 25.8 24.1 28.4 17.7 9.3 28.6 5 30.9-6.8-1.3-14.8 2.8-22 13.3-21.6 24.6-1.6 25.3 8.9 24.8 13.5z" class="st0"/><linearGradient id="SVGID_1_" x1="164.398" x2="218.02" y1="124.246" y2="124.246" gradientUnits="userSpaceOnUse" gradientTransform="matrix(1 0 0 -1 0 158)"><stop offset="0" stop-color="#E6E7E8"/><stop offset="1" stop-color="#D1D3D4"/></linearGradient><path d="M168.4 59.4C213.2 47.9 217.9 19.2 218 8c-2.3 7.3-11 25.6-39.8 30.8-4.9.3-10-2.1-12.1-9-1.6 9.2-3.7 26.5 2.3 29.6z" class="st1"/><linearGradient id="SVGID_2_" x1="150.38" x2="85.361" y1="124.761" y2="124.761" gradientUnits="userSpaceOnUse" gradientTransform="matrix(1 0 0 -1 0 158)"><stop offset="0" stop-color="#E6E7E8"/><stop offset="1" stop-color="#D1D3D4"/></linearGradient><path d="M148.5 28.7c-.7-.3-4.9-2.2-10.8-4.9 0 .7 0 1.4.1 2.1-2.3 11.8-13.2 16.1-30.9 6.8-5.5-2.2-15.4-14.2-21.6-24 2.8 16.7 13.8 50.8 55.9 48.9 6.1.7 12.4-24.4 7.3-28.9z" class="st2"/><linearGradient id="SVGID_3_" x1="67.721" x2="67.721" y1="153.996" y2="40.938" gradientUnits="userSpaceOnUse" gradientTransform="matrix(1 0 0 -1 0 158)"><stop offset="0" stop-color="#E6E7E8"/><stop offset="1" stop-color="#D1D3D4"/></linearGradient><path d="M53.5 66.2s45.3 27.1 56.8 30.1c12.5 3.6 19.7 11.5 19.9 20.8C141.9 99.9 68.5 50.6 52.5 4 30.1 4.1 4 4.4 4 4.4L11.2 23l41.4.5-.3 2.1-36 4.7 8.9 11.9 35.8-.3-.7 2.3L32 48l14.4 14 25.6-.3-.2 2-18.3 2.5z" class="st3"/><linearGradient id="SVGID_4_" x1="230.178" x2="240.512" y1="152.454" y2="54.125" gradientUnits="userSpaceOnUse" gradientTransform="matrix(1 0 0 -1 0 158)"><stop offset="0" stop-color="#E6E7E8"/><stop offset="1" stop-color="#D1D3D4"/></linearGradient><path d="M277.2 42.1c2.1-2.5 4.3-4.1 8-11-10.9-2-35.2-5.9-35.2-5.9l.4-1.7s36.4 1.7 39.4 0 8.5-19.1 8.5-19.1h-57C234.6 58.6 173.1 87.8 173 111c2.1-5.1 7.7-10.3 19.9-14.7 10.4-3.4 51.4-23.8 55.9-30.3-8.5-.5-17-1.4-17-1.4v-2.1s16.9.1 23.3 0c6.8-5.6 16.1-14 16.1-14l-29-4.6.3-1.8c-.1 0 20.7.8 34.7 0z" class="st4"/><path d="M4 126.6h93.6v26.5H4z" class="st5"/><path d="M96 126.6h91.4v26.5H96z" class="st6"/><path d="M187.5 126.6h110.9v26.5H187.5z" class="st7"/><path d="M26.7 149h-2.8l-1.1-4.1h-5.1l-1.1 4.1h-2.7l5-18.3h2.7l5.1 18.3zm-4.8-7.2l-1.8-6.8-1.7 6.8h3.5zM27.4 143.1l2.5-.4c.2 1.2.5 2.1.9 2.7.5.6 1.1.8 1.9.8.8 0 1.5-.3 1.9-.8.4-.5.6-1.1.6-1.8 0-.4-.1-.8-.3-1.1-.2-.3-.5-.6-.9-.8-.3-.1-1-.4-2.1-.8-1.4-.5-2.4-1.1-2.9-1.8-.8-1-1.2-2.2-1.2-3.7 0-.9.2-1.8.6-2.6s.9-1.4 1.6-1.9c.7-.4 1.5-.6 2.5-.6 1.6 0 2.8.5 3.6 1.5s1.2 2.3 1.3 4l-2.6.2c-.1-.9-.3-1.6-.7-2-.4-.4-.9-.6-1.6-.6-.8 0-1.3.2-1.8.7-.3.3-.4.7-.4 1.1 0 .4.1.8.4 1.1.3.4 1.1.8 2.4 1.2 1.3.4 2.2.9 2.8 1.3.6.5 1.1 1.1 1.4 1.9.3.8.5 1.8.5 2.9 0 1-.2 2-.6 2.9-.4.9-1 1.6-1.7 2s-1.7.7-2.8.7c-1.6 0-2.9-.5-3.7-1.6-.9-.9-1.4-2.5-1.6-4.5zM39.3 143.1l2.5-.4c.2 1.2.5 2.1.9 2.7.5.6 1.1.8 1.9.8.8 0 1.5-.3 1.9-.8.4-.5.6-1.1.6-1.8 0-.4-.1-.8-.3-1.1-.2-.3-.5-.6-.9-.8-.3-.1-1-.4-2.1-.8-1.4-.5-2.4-1.1-2.9-1.8-.8-1-1.2-2.2-1.2-3.7 0-.9.2-1.8.6-2.6s.9-1.4 1.6-1.9c.7-.4 1.5-.6 2.5-.6 1.6 0 2.8.5 3.6 1.5s1.2 2.3 1.3 4l-2.6.2c-.1-.9-.3-1.6-.7-2-.4-.4-.9-.6-1.6-.6-.8 0-1.3.2-1.8.7-.3.3-.4.7-.4 1.1 0 .4.1.8.4 1.1.3.4 1.1.8 2.4 1.2 1.3.4 2.2.9 2.8 1.3.6.5 1.1 1.1 1.4 1.9s.5 1.8.5 2.9c0 1-.2 2-.6 2.9-.4.9-1 1.6-1.7 2s-1.7.7-2.8.7c-1.6 0-2.9-.5-3.7-1.6-.9-.9-1.4-2.5-1.6-4.5zM51.9 149v-18.3h9.5v3.1h-6.9v4h6.4v3.1h-6.4v5h7.1v3.1h-9.7zM63.1 143.1l2.5-.4c.2 1.2.5 2.1.9 2.7.5.6 1.1.8 1.9.8.8 0 1.5-.3 1.9-.8.4-.5.6-1.1.6-1.8 0-.4-.1-.8-.3-1.1-.2-.3-.5-.6-.9-.8-.3-.1-1-.4-2.1-.8-1.4-.5-2.4-1.1-2.9-1.8-.8-1-1.2-2.2-1.2-3.7 0-.9.2-1.8.6-2.6.4-.8.9-1.4 1.6-1.9.7-.4 1.5-.6 2.5-.6 1.6 0 2.8.5 3.6 1.5s1.2 2.3 1.3 4l-2.6.2c-.1-.9-.3-1.6-.7-2-.4-.4-.9-.6-1.6-.6-.8 0-1.3.2-1.8.7-.3.3-.4.7-.4 1.1 0 .4.1.8.4 1.1.3.4 1.1.8 2.4 1.2 1.3.4 2.2.9 2.8 1.3.6.5 1.1 1.1 1.4 1.9.3.8.5 1.8.5 2.9 0 1-.2 2-.6 2.9-.4.9-1 1.6-1.7 2s-1.7.7-2.8.7c-1.6 0-2.9-.5-3.7-1.6-.9-.9-1.4-2.5-1.6-4.5zM75 143.1l2.5-.4c.2 1.2.5 2.1.9 2.7.5.6 1.1.8 1.9.8.8 0 1.5-.3 1.9-.8.4-.5.6-1.1.6-1.8 0-.4-.1-.8-.3-1.1-.2-.3-.5-.6-.9-.8-.3-.1-1-.4-2.1-.8-1.4-.5-2.4-1.1-2.9-1.8-.8-1-1.2-2.2-1.2-3.7 0-.9.2-1.8.6-2.6s.9-1.4 1.6-1.9c.7-.4 1.5-.6 2.5-.6 1.6 0 2.8.5 3.6 1.5s1.2 2.3 1.3 4l-2.6.2c-.1-.9-.3-1.6-.7-2-.4-.4-.9-.6-1.6-.6-.8 0-1.3.2-1.8.7-.3.3-.4.7-.4 1.1 0 .4.1.8.4 1.1.3.4 1.1.8 2.4 1.2 1.3.4 2.2.9 2.8 1.3.6.5 1.1 1.1 1.4 1.9.3.8.5 1.8.5 2.9 0 1-.2 2-.6 2.9-.4.9-1 1.6-1.7 2s-1.7.7-2.8.7c-1.6 0-2.9-.5-3.7-1.6-.9-.9-1.4-2.5-1.6-4.5zM115.4 142.3l2.5 1.1c-.4 2-1 3.5-1.9 4.4-.9 1-2 1.5-3.4 1.5-1.7 0-3.1-.8-4.2-2.5s-1.6-3.9-1.6-6.8c0-3 .5-5.4 1.6-7.1s2.5-2.5 4.3-2.5c1.6 0 2.8.7 3.8 2 .6.8 1 1.9 1.3 3.4l-2.6.9c-.2-.9-.5-1.7-.9-2.2-.5-.5-1.1-.8-1.7-.8-.9 0-1.7.5-2.3 1.5-.6 1-.9 2.5-.9 4.7 0 2.3.3 4 .9 4.9.6 1 1.3 1.5 2.3 1.5.7 0 1.3-.3 1.8-.9s.8-1.8 1-3.1zM119.6 140c0-1.9.2-3.4.6-4.7.3-.9.7-1.8 1.2-2.5s1.1-1.3 1.7-1.6c.8-.5 1.7-.7 2.8-.7 1.9 0 3.4.8 4.5 2.5s1.7 4 1.7 7c0 2.9-.6 5.3-1.7 6.9-1.1 1.7-2.6 2.5-4.5 2.5s-3.4-.8-4.5-2.5c-1.3-1.7-1.8-4-1.8-6.9zm2.6-.1c0 2.1.3 3.6 1 4.7s1.5 1.6 2.5 1.6 1.9-.5 2.5-1.6c.7-1.1 1-2.6 1-4.8 0-2.1-.3-3.7-1-4.7-.6-1-1.5-1.5-2.6-1.5s-1.9.5-2.6 1.6c-.5 1-.8 2.6-.8 4.7zM133.9 149v-18.3h3.9l2.3 12.5 2.3-12.5h3.9V149h-2.4v-14.4l-2.5 14.4h-2.5l-2.5-14.4V149h-2.5zM148.8 149v-18.3h3.9l2.3 12.5 2.3-12.5h3.9V149h-2.4v-14.4l-2.5 14.4h-2.5l-2.5-14.4V149h-2.5zM163.6 149v-18.3h2.6V149h-2.6zM171.6 149v-15.2h-3.8v-3.1H178v3.1h-3.8V149h-2.6zM200.9 143.1l2.5-.4c.2 1.2.5 2.1.9 2.7.5.6 1.1.8 1.9.8.8 0 1.5-.3 1.9-.8.4-.5.6-1.1.6-1.8 0-.4-.1-.8-.3-1.1-.2-.3-.5-.6-.9-.8-.3-.1-1-.4-2.1-.8-1.4-.5-2.4-1.1-2.9-1.8-.8-1-1.2-2.2-1.2-3.7 0-.9.2-1.8.6-2.6s.9-1.4 1.6-1.9 1.5-.6 2.5-.6c1.6 0 2.8.5 3.6 1.5s1.2 2.3 1.3 4l-2.6.2c-.1-.9-.3-1.6-.7-2s-.9-.6-1.6-.6c-.8 0-1.3.2-1.8.7-.3.3-.4.7-.4 1.1 0 .4.1.8.4 1.1.3.4 1.1.8 2.4 1.2 1.3.4 2.2.9 2.8 1.3.6.5 1.1 1.1 1.4 1.9.3.8.5 1.8.5 2.9 0 1-.2 2-.6 2.9-.4.9-1 1.6-1.7 2s-1.7.7-2.8.7c-1.6 0-2.9-.5-3.7-1.6-.9-.9-1.5-2.5-1.6-4.5zM213.4 130.8h2.6v9.9c0 1.6 0 2.6.1 3.1.1.7.4 1.3.8 1.8s1 .7 1.7.7 1.3-.2 1.7-.6.6-1 .7-1.6c.1-.6.1-1.7.1-3.1v-10.1h2.6v9.6c0 2.2-.1 3.7-.2 4.6s-.4 1.7-.8 2.3-.9 1.1-1.5 1.5c-.6.4-1.4.6-2.5.6-1.2 0-2.1-.2-2.8-.6-.6-.4-1.1-.9-1.5-1.6s-.6-1.3-.7-2c-.2-1-.3-2.6-.3-4.6v-9.9zM226.3 149v-18.3h4.1c1.6 0 2.6.1 3.1.3.7.3 1.3.9 1.8 1.8s.7 2.1.7 3.6c0 1.1-.1 2.1-.4 2.8-.3.8-.6 1.4-1.1 1.8-.4.4-.9.7-1.3.9-.6.2-1.5.3-2.7.3h-1.7v6.9l-2.5-.1zm2.6-15.2v5.2h1.4c1 0 1.7-.1 2-.3.3-.2.6-.5.8-.9.2-.4.3-.9.3-1.4 0-.7-.1-1.2-.4-1.6-.3-.4-.6-.7-1-.8-.3-.1-.9-.1-1.9-.1l-1.2-.1zM238.3 149v-18.3h4.1c1.6 0 2.6.1 3.1.3.7.3 1.3.9 1.8 1.8s.7 2.1.7 3.6c0 1.1-.1 2.1-.4 2.8-.3.8-.6 1.4-1.1 1.8-.4.4-.9.7-1.3.9-.6.2-1.5.3-2.7.3h-1.7v6.9l-2.5-.1zm2.5-15.2v5.2h1.4c1 0 1.7-.1 2-.3.3-.2.6-.5.8-.9.2-.4.3-.9.3-1.4 0-.7-.1-1.2-.4-1.6-.3-.4-.6-.7-1-.8-.3-.1-.9-.1-1.9-.1l-1.2-.1zM249.6 140c0-1.9.2-3.4.6-4.7.3-.9.7-1.8 1.2-2.5s1.1-1.3 1.7-1.6c.8-.5 1.7-.7 2.8-.7 1.9 0 3.4.8 4.5 2.5s1.7 4 1.7 7c0 2.9-.6 5.3-1.7 6.9-1.1 1.7-2.6 2.5-4.5 2.5s-3.4-.8-4.5-2.5c-1.2-1.7-1.8-4-1.8-6.9zm2.7-.1c0 2.1.3 3.6 1 4.7s1.5 1.6 2.5 1.6 1.9-.5 2.5-1.6c.7-1.1 1-2.6 1-4.8 0-2.1-.3-3.7-1-4.7-.6-1-1.5-1.5-2.6-1.5s-1.9.5-2.6 1.6c-.5 1-.8 2.6-.8 4.7zM264.1 149v-18.3h5.4c1.4 0 2.4.2 3 .5s1.1.9 1.5 1.8.6 1.8.6 2.9c0 1.4-.3 2.5-.8 3.4s-1.4 1.5-2.5 1.7c.6.5 1 1 1.4 1.5s.9 1.5 1.5 3l1.6 3.6h-3.1l-1.9-4c-.7-1.4-1.1-2.3-1.4-2.7-.2-.4-.5-.6-.8-.8-.3-.1-.7-.2-1.3-.2h-.5v7.6h-2.7zm2.5-10.5h1.9c1.2 0 2-.1 2.3-.2.3-.1.5-.4.7-.8.2-.4.3-.8.3-1.4 0-.6-.1-1.1-.3-1.5s-.6-.6-1-.7c-.2 0-.8-.1-1.9-.1h-2v4.7zM279.8 149v-15.2H276v-3.1h10.2v3.1h-3.8V149h-2.6z" class="st8"/><path d="M216.6 69.8c-.3 0-.7-.1-1-.1-26.9 0-54-.6-56.8-.7-1-1.2-2-3.5-.3-6.7-12.3 5.2-11.1 13.6-9.1 18.4.4 1.4 1.1 2.7 2.1 3.7 0 0 .1.1.1.1 1.6 1.8 4 2.9 6.5 2.9.3 0 28.7.7 57 .7 5.3.7 5.9 3.9 5.9 5.8-.1 1.2-.6 4.9-5.4 5-6.2-.2-32 0-76.8.6L121.6 45c-1.1-3.5-4-6-7.6-6.4-3.6-.5-7.1 1.2-9 4.2L72.1 93.2 41.4 43.1c-1.9-3.1-5.5-4.8-9-4.4-3.6.4-6.6 3-7.7 6.4L5.3 105.6c-1.5 4.9 1.2 10.1 6.1 11.6.9.3 1.9.4 2.8.4 3.9 0 7.6-2.5 8.8-6.5l13-41.5 28 43.6c1.7 2.7 4.6 4.4 7.8 4.4 0 0 .1 0 .1 0 3.2 0 6.1-1.6 7.8-4.3l30-44.5 13.3 42.9c1.2 3.9 4.4 5.9 8.7 5.9 31.3 0 83.5 0 84 0 14.9-.2 23.2-11.5 23.7-22.6.5-11.3-7.1-23.5-22.8-25.2z" class="st7"/><path d="M288.8 99.4h-12.2V57.2h12.2c5.1 0 9.3-4.1 9.3-9.2s-4.1-9.2-9.3-9.2h-43.7c-5.1 0-9.3 4.1-9.3 9.2s4.1 9.2 9.3 9.2h13v42.2h-14.6c-.2 4.6-4.5 15.5-11.8 17.8-.5.2-1.1.4-1.6.5.3 0 .5 0 1.2 0h57.6c5.1 0 9.3-4.1 9.3-9.2-.1-5-4.3-9.1-9.4-9.1zM230.8 47.8c0-4.1 2.5-7.6 6-9.2h-69c-.8 0-1.5.1-2.2.3-44.6 3.9-33.3 41.4-18.6 46 5.6 4.9-18.8-26.8 22.4-27.8l67.5-.2c-3.6-1.4-6.1-5-6.1-9.1z" class="st5"/></svg>