<svg xmlns="http://www.w3.org/2000/svg" id="Layer_1" x="0" y="0" version="1.1" viewBox="0 0 500 200" xml:space="preserve"><style>.st0{fill:#2f6da1}.st2{fill:#4e4a8b}</style><path d="M120.2 76.9v25.9h-5.9V85.3l-2.3 17.5h-4.2l-2.5-17.1v17.1h-5.9V76.9h8.7c.3 1.6.5 3.4.8 5.5l1 6.6 1.5-12.1h8.8zM137.8 81.6v21.2h-6.6l.1-1.8c-.4.7-1 1.3-1.7 1.6-.7.4-1.4.5-2.3.5-1 0-1.8-.2-2.4-.5s-1.1-.8-1.4-1.4c-.3-.6-.5-1.2-.6-1.8-.1-.6-.1-1.8-.1-3.6V81.6h6.5V96c0 1.7.1 2.6.2 2.9.1.3.4.5.8.5.5 0 .8-.2.9-.5s.1-1.3.1-3.1V81.6h6.5zM153.6 88.3h-5.7v-1.1c0-1-.1-1.6-.2-1.9-.1-.3-.4-.4-.8-.4s-.6.1-.8.4c-.2.2-.3.6-.3 1.1 0 .6 0 1.1.1 1.4.1.3.4.6.8 1 .5.4 1.4.9 2.8 1.6 1.9.9 3.1 1.8 3.7 2.6.6.8.9 2 .9 3.5 0 1.7-.2 3-.7 3.9-.4.9-1.2 1.6-2.2 2-1 .5-2.3.7-3.8.7-1.6 0-3-.3-4.2-.8-1.2-.5-2-1.2-2.4-2.1-.4-.9-.7-2.2-.7-4v-1h5.7v1.3c0 1.1.1 1.9.2 2.2.1.3.4.5.9.5s.8-.1 1-.3c.2-.2.3-.7.3-1.4 0-1-.1-1.6-.4-1.9-.2-.3-1.5-1-3.8-2.3-1.9-1.1-3.1-2-3.5-2.9-.4-.9-.6-1.9-.6-3.1 0-1.7.2-2.9.7-3.7.4-.8 1.2-1.4 2.3-1.9 1.1-.4 2.3-.7 3.7-.7 1.4 0 2.6.2 3.6.5 1 .4 1.7.8 2.3 1.4.5.6.8 1.1 1 1.6.1.5.2 1.3.2 2.3v1.5zM170.4 89.6h-6.1v-2.4c0-.9-.1-1.4-.2-1.7-.1-.3-.4-.5-.8-.5s-.6.1-.8.4c-.1.3-.2.9-.2 1.8v10c0 .8.1 1.3.3 1.7.2.4.5.6.8.6.4 0 .7-.2.9-.6.2-.4.2-1.1.2-2.2V94h5.7c0 1.7-.1 3-.2 3.8-.1.8-.5 1.7-1.1 2.6-.6.9-1.4 1.6-2.4 2-1 .5-2.2.7-3.6.7-1.8 0-3.3-.3-4.3-.9a5.3 5.3 0 01-2.3-2.6c-.4-1.1-.7-2.7-.7-4.8v-6c0-1.8.2-3.2.5-4.1.4-.9 1.1-1.7 2.3-2.5 1.2-.7 2.6-1.1 4.3-1.1 1.7 0 3.1.4 4.3 1.1 1.2.7 2 1.6 2.4 2.7.9 1.1 1 2.7 1 4.7zM187.3 89v5.2c0 1.9-.1 3.3-.3 4.2-.2.9-.6 1.7-1.2 2.5s-1.4 1.3-2.4 1.7c-1 .4-2.1.6-3.4.6-1.4 0-2.6-.2-3.6-.5s-1.8-.8-2.3-1.4c-.5-.6-.9-1.4-1.2-2.3-.2-.9-.4-2.2-.4-4v-5.4c0-2 .2-3.5.6-4.6.4-1.1 1.2-2 2.3-2.7 1.1-.7 2.5-1 4.2-1 1.4 0 2.7.2 3.7.6a6.14 6.14 0 013.6 3.8c.3.7.4 1.8.4 3.3zm-6.5-1.6c0-1.1-.1-1.8-.2-2.1-.1-.3-.4-.4-.8-.4s-.6.1-.8.4c-.1.3-.2 1-.2 2.1V97c0 1 .1 1.7.2 2 .1.3.4.5.8.5s.6-.1.8-.4c.1-.3.2-.9.2-1.8v-9.9zM204.4 81.6v16.3a34 34 0 01-.2 4.3 5.25 5.25 0 01-3.7 3.6c-1.1.4-2.5.6-4.2.6-2.1 0-3.7-.3-5-1-1.2-.7-1.9-2.1-1.9-4.1h6.3c0 .9.3 1.4 1 1.4.5 0 .8-.1 1-.4.2-.3.2-.9.2-1.8v-1.6a5.45 5.45 0 01-3.6 1.5c-1.2 0-2.1-.2-2.9-.7a3.2 3.2 0 01-1.5-1.8c-.3-.8-.4-1.8-.4-3.3v-7.7c0-2 .4-3.5 1.1-4.3.7-.9 1.8-1.3 3.3-1.3.8 0 1.5.2 2.2.5.7.3 1.3.8 1.8 1.5l.5-1.6h6zm-6.5 5.6c0-1-.1-1.6-.2-1.9-.1-.3-.4-.4-.7-.4-.4 0-.6.2-.8.5-.2.3-.2.9-.2 1.8v7.1c0 .9.1 1.6.2 1.8.1.3.4.4.7.4.4 0 .7-.2.8-.5.1-.3.2-1.1.2-2.3v-6.5zM221.6 92.5h-8.4v4.6c0 1 .1 1.6.2 1.9.1.3.4.4.8.4.5 0 .8-.2 1-.6.2-.4.2-1.1.2-2.1v-2.8h6.1v1.6c0 1.3-.1 2.3-.2 3-.2.7-.6 1.5-1.2 2.3-.6.8-1.4 1.4-2.3 1.8-.9.4-2.1.6-3.5.6s-2.6-.2-3.6-.6c-1-.4-1.9-.9-2.4-1.6-.6-.7-1-1.4-1.2-2.3-.2-.8-.3-2-.3-3.6v-6.2c0-1.9.3-3.3.8-4.4.5-1.1 1.3-1.9 2.5-2.5 1.1-.6 2.4-.9 3.9-.9 1.8 0 3.3.3 4.5 1 1.2.7 2 1.6 2.5 2.7s.7 2.7.7 4.8v2.9zm-6.4-3.4v-1.5c0-1.1-.1-1.8-.2-2.1-.1-.3-.4-.5-.7-.5-.4 0-.7.1-.8.4-.1.3-.2 1-.2 2.2v1.5h1.9zM238.7 92.5h-8.4v4.6c0 1 .1 1.6.2 1.9.1.3.4.4.8.4.5 0 .8-.2 1-.6.2-.4.2-1.1.2-2.1v-2.8h6.1v1.6c0 1.3-.1 2.3-.2 3-.2.7-.6 1.5-1.2 2.3-.6.8-1.4 1.4-2.3 1.8-.9.4-2.1.6-3.5.6s-2.6-.2-3.6-.6c-1-.4-1.9-.9-2.4-1.6-.6-.7-1-1.4-1.2-2.3-.2-.8-.3-2-.3-3.6v-6.2c0-1.9.3-3.3.8-4.4.5-1.1 1.3-1.9 2.5-2.5 1.1-.6 2.4-.9 3.9-.9 1.8 0 3.3.3 4.5 1 1.2.7 2 1.6 2.5 2.7s.7 2.7.7 4.8v2.9zm-6.5-3.4v-1.5c0-1.1-.1-1.8-.2-2.1s-.4-.5-.7-.5c-.4 0-.7.1-.8.4-.1.3-.2 1-.2 2.2v1.5h1.9zM254.1 76.9v25.9h-6.7V76.9h6.7zM263.5 81.6l-.1 2c.5-.8 1-1.4 1.7-1.8.7-.4 1.5-.6 2.3-.6 1.1 0 2 .3 2.7.8.7.5 1.2 1.2 1.4 2 .2.8.3 2.1.3 4v14.9h-6.5V88.1c0-1.5 0-2.3-.1-2.7-.1-.3-.4-.5-.8-.5-.5 0-.7.2-.9.6-.1.4-.2 1.3-.2 2.9v14.3H257V81.6h6.5zM281.2 78.7V82h1.7v3.4h-1.7v11.3c0 1.4.1 2.2.2 2.3.1.2.7.2 1.8.2v3.4h-2.6c-1.5 0-2.5-.1-3.1-.2-.6-.1-1.2-.4-1.7-.8s-.8-.9-.9-1.5c-.1-.6-.2-1.9-.2-4V85.4h-1.4V82h1.4v-3.3h6.5zM299.3 92.5h-8.4v4.6c0 1 .1 1.6.2 1.9.1.3.4.4.8.4.5 0 .8-.2 1-.6.2-.4.2-1.1.2-2.1v-2.8h6.1v1.6c0 1.3-.1 2.3-.2 3-.2.7-.6 1.5-1.2 2.3-.6.8-1.4 1.4-2.3 1.8-.9.4-2.1.6-3.5.6s-2.6-.2-3.6-.6c-1-.4-1.9-.9-2.4-1.6-.6-.7-1-1.4-1.2-2.3-.2-.8-.3-2-.3-3.6v-6.2c0-1.9.3-3.3.8-4.4.5-1.1 1.3-1.9 2.5-2.5 1.1-.6 2.4-.9 3.9-.9 1.8 0 3.3.3 4.5 1 1.2.7 2 1.6 2.5 2.7s.7 2.7.7 4.8v2.9zm-6.5-3.4v-1.5c0-1.1-.1-1.8-.2-2.1-.1-.3-.4-.5-.7-.5-.4 0-.7.1-.8.4-.1.3-.2 1-.2 2.2v1.5h1.9zM308.2 81.6l-.3 2.8c.9-2 2.3-3.1 4.1-3.2v7.5c-1.2 0-2.1.2-2.6.5-.6.3-.9.8-1 1.3-.1.6-.2 1.9-.2 3.9v8.4h-6.5V81.6h6.5zM320.3 81.6l-.1 2c.5-.8 1-1.4 1.7-1.8.7-.4 1.5-.6 2.3-.6 1.1 0 2 .3 2.7.8.7.5 1.2 1.2 1.4 2 .2.8.3 2.1.3 4v14.9h-6.5V88.1c0-1.5 0-2.3-.1-2.7-.1-.3-.4-.5-.8-.5-.5 0-.7.2-.9.6-.1.4-.2 1.3-.2 2.9v14.3h-6.5V81.6h6.7zM337 89.8h-6.1v-1.4c0-1.6.2-2.9.6-3.8.4-.9 1.1-1.7 2.3-2.4 1.1-.7 2.6-1 4.4-1 2.2 0 3.8.4 4.9 1.2 1.1.8 1.8 1.7 2 2.8.2 1.1.3 3.4.3 6.9v10.6h-6.3v-1.9c-.4.8-.9 1.3-1.5 1.7-.6.4-1.4.6-2.2.6a5 5 0 01-3.1-1c-.9-.6-1.4-2-1.4-4.2v-1.7c0-1.6.3-2.7.8-3.2.5-.6 1.7-1.2 3.7-2 2.1-.8 3.3-1.4 3.4-1.7.1-.3.2-.9.2-1.8 0-1.1-.1-1.8-.2-2.2-.2-.3-.4-.5-.8-.5s-.7.1-.8.4c-.1.3-.2 1-.2 2.2v2.4zm2 2.9c-1 .8-1.6 1.4-1.8 1.9-.2.5-.2 1.2-.2 2.2 0 1.1.1 1.8.2 2.1.1.3.4.5.9.5.4 0 .7-.1.8-.4.1-.3.2-.9.2-2v-4.3zM354.8 78.7V82h1.7v3.4h-1.7v11.3c0 1.4.1 2.2.2 2.3.1.2.7.2 1.8.2v3.4h-2.6c-1.5 0-2.5-.1-3.1-.2-.6-.1-1.2-.4-1.7-.8s-.8-.9-.9-1.5c-.1-.6-.2-1.9-.2-4V85.4H347V82h1.4v-3.3h6.4zM364.9 76.9v3.4h-6.6v-3.4h6.6zm0 4.7v21.2h-6.6V81.6h6.6zM382.2 89v5.2c0 1.9-.1 3.3-.3 4.2-.2.9-.6 1.7-1.2 2.5s-1.4 1.3-2.4 1.7c-1 .4-2.1.6-3.4.6-1.4 0-2.6-.2-3.6-.5s-1.8-.8-2.3-1.4c-.5-.6-.9-1.4-1.2-2.3-.2-.9-.4-2.2-.4-4v-5.4c0-2 .2-3.5.6-4.6.4-1.1 1.2-2 2.3-2.7 1.1-.7 2.5-1 4.2-1 1.4 0 2.7.2 3.7.6a6.14 6.14 0 013.6 3.8c.3.7.4 1.8.4 3.3zm-6.5-1.6c0-1.1-.1-1.8-.2-2.1-.1-.3-.4-.4-.8-.4s-.6.1-.8.4c-.1.3-.2 1-.2 2.1V97c0 1 .1 1.7.2 2 .1.3.4.5.8.5s.6-.1.8-.4c.1-.3.2-.9.2-1.8v-9.9zM391.2 81.6l-.1 2c.5-.8 1-1.4 1.7-1.8.7-.4 1.5-.6 2.3-.6 1.1 0 2 .3 2.7.8.7.5 1.2 1.2 1.4 2 .2.8.3 2.1.3 4v14.9H393V88.1c0-1.5 0-2.3-.1-2.7-.1-.3-.4-.5-.8-.5-.5 0-.7.2-.9.6-.1.4-.2 1.3-.2 2.9v14.3h-6.5V81.6h6.7zM407.8 89.8h-6.1v-1.4c0-1.6.2-2.9.6-3.8.4-.9 1.1-1.7 2.3-2.4 1.1-.7 2.6-1 4.4-1 2.2 0 3.8.4 4.9 1.2 1.1.8 1.8 1.7 2 2.8.2 1.1.3 3.4.3 6.9v10.6H410v-1.9c-.4.8-.9 1.3-1.5 1.7-.6.4-1.4.6-2.2.6a5 5 0 01-3.1-1c-.9-.6-1.4-2-1.4-4.2v-1.7c0-1.6.3-2.7.8-3.2.5-.6 1.7-1.2 3.7-2 2.1-.8 3.3-1.4 3.4-1.7.1-.3.2-.9.2-1.8 0-1.1-.1-1.8-.2-2.2-.2-.3-.4-.5-.8-.5s-.7.1-.8.4c-.1.3-.2 1-.2 2.2v2.4zm2.1 2.9c-1 .8-1.6 1.4-1.8 1.9-.2.5-.2 1.2-.2 2.2 0 1.1.1 1.8.2 2.1.1.3.4.5.9.5.4 0 .7-.1.8-.4.1-.3.2-.9.2-2v-4.3zM425.5 76.9v25.9h-6.6V76.9h6.6zM431.9 97.7v2.3c0 1.2-.1 2.2-.4 3-.3.8-.8 1.4-1.5 2-.7.5-1.5.9-2.4 1.1v-1.9c.6-.4 1-.8 1.1-1.5h-1.1v-5.1h4.3zM447 76.9v20.7h4.1v5.2h-10.8V76.9h6.7zM459.8 76.9v20.7h4.1v5.2H453V76.9h6.8zM481 88.1h-6.7v-4.5c0-1.3-.1-2.1-.2-2.4-.1-.3-.5-.5-1-.5-.6 0-.9.2-1.1.6-.1.4-.2 1.2-.2 2.6v12c0 1.3.1 2.1.2 2.5.1.4.5.6 1 .6s.8-.2 1-.6c.2-.4.2-1.3.2-2.7v-3.2h6.7v1c0 2.7-.2 4.6-.6 5.7a5.7 5.7 0 01-2.5 2.9c-1.3.8-2.9 1.3-4.8 1.3-2 0-3.6-.4-4.9-1.1s-2.1-1.7-2.5-3c-.4-1.3-.6-3.2-.6-5.7V86c0-1.9.1-3.3.2-4.2s.5-1.8 1.1-2.7c.6-.9 1.5-1.5 2.6-2s2.4-.7 3.9-.7c2 0 3.6.4 4.9 1.1 1.3.8 2.1 1.7 2.5 2.9.4 1.1.6 2.9.6 5.3v2.4z" class="st0"/><g><path d="M105.9 122.9h-3v8.2h-1.5v-8.2h-3v-1.3h7.5v1.3zM112.2 127.9h-4.6c0 1.1.1 1.7.2 1.8.1.1.3.1.6.1h1.9c.2 0 .4 0 .5-.1.1-.1.1-.4.1-.9h1.4c0 .6 0 1-.1 1.2-.1.3-.2.5-.4.7-.2.2-.6.4-1.2.4h-2.4c-.7 0-1.2-.1-1.5-.4-.2-.2-.4-.6-.5-1s-.1-1.2-.1-2.2c0-1.1 0-1.8.1-2.2.1-.4.2-.8.5-1 .3-.3.8-.4 1.5-.4h2c.7 0 1.2.1 1.5.4.2.2.4.6.5 1 .1.4.1 1.1.1 2.2v.4c.1 0 0 0-.1 0zm-4.4-2.7c-.1.1-.2.7-.2 1.6h3.3c0-.9-.1-1.5-.2-1.6-.1-.1-.3-.1-.6-.1h-1.7c-.2-.1-.5 0-.6.1zM118.7 128.4h1.4c0 .7 0 1.3-.1 1.6-.1.3-.2.6-.4.7-.2.2-.6.4-1.2.4h-2.2c-.7 0-1.2-.1-1.5-.4-.2-.2-.4-.6-.5-1-.1-.4-.1-1.2-.1-2.2 0-1.1 0-1.8.1-2.2.1-.4.2-.8.5-1 .3-.3.8-.4 1.5-.4h2.2c.6 0 .9.1 1.2.4.2.2.3.4.4.7.1.3.1.8.1 1.5h-1.4c0-.7-.1-1.1-.2-1.2-.1-.1-.2-.1-.5-.1h-1.7c-.3 0-.5 0-.6.1-.1.1-.1.2-.2.5 0 .3 0 .9 0 1.7s0 1.5 0 1.7.1.5.2.5c.1.1.3.1.6.1h1.7c.3 0 .4 0 .5-.1.2-.1.2-.5.2-1.3zM123.3 131.1h-1.4v-9.8h1.4v3.3c.5-.4.8-.6 1-.7.2-.1.5-.2.8-.2h1.2c.6 0 1 .1 1.3.4.2.2.3.3.3.6.1.2.1.6.1 1.1v5.3h-1.4V126c0-.3-.1-.6-.2-.7-.1-.1-.4-.2-.8-.2h-.9c-.4 0-.8.1-1.4.4v5.6zM131.5 131.1h-1.4v-7.3h1.4v.9c.5-.4.8-.6 1-.7.2-.1.5-.2.8-.2h1.2c.6 0 1 .1 1.3.4.2.2.3.3.3.6.1.2.1.6.1 1.1v5.3h-1.4V126c0-.3-.1-.6-.2-.7-.1-.1-.4-.2-.8-.2h-.9c-.4 0-.8.1-1.4.4v5.6zM140.2 131.1c-.7 0-1.2-.1-1.5-.4-.2-.2-.4-.6-.5-1s-.1-1.2-.1-2.2c0-1.1 0-1.8.1-2.2.1-.4.2-.8.5-1 .3-.3.8-.4 1.5-.4h2.2c.7 0 1.2.1 1.5.4.2.2.4.6.5 1 .1.4.1 1.2.1 2.2 0 1.1 0 1.8-.1 2.2-.1.4-.2.8-.5 1-.3.3-.8.4-1.5.4h-2.2zm-.6-5.4c0 .3 0 .9 0 1.7s0 1.5 0 1.7c0 .3.1.5.2.5.1.1.3.1.6.1h1.8c.3 0 .5 0 .6-.1.1-.1.1-.2.2-.5 0-.3 0-.9 0-1.7s0-1.5 0-1.7c0-.3-.1-.5-.2-.5-.1-.1-.3-.1-.6-.1h-1.8c-.3 0-.5 0-.6.1-.1.1-.2.2-.2.5zM147.8 131.1h-1.4v-9.8h1.4v9.8zM151.8 131.1c-.7 0-1.2-.1-1.5-.4-.2-.2-.4-.6-.5-1s-.1-1.2-.1-2.2c0-1.1 0-1.8.1-2.2.1-.4.2-.8.5-1 .3-.3.8-.4 1.5-.4h2.2c.7 0 1.2.1 1.5.4.2.2.4.6.5 1 .1.4.1 1.2.1 2.2 0 1.1 0 1.8-.1 2.2-.1.4-.2.8-.5 1-.3.3-.8.4-1.5.4h-2.2zm-.6-5.4c0 .3 0 .9 0 1.7s0 1.5 0 1.7c0 .3.1.5.2.5.1.1.3.1.6.1h1.8c.3 0 .5 0 .6-.1.1-.1.1-.2.2-.5 0-.3 0-.9 0-1.7s0-1.5 0-1.7c0-.3-.1-.5-.2-.5-.1-.1-.3-.1-.6-.1H152c-.3 0-.5 0-.6.1-.1.1-.1.2-.2.5zM162.2 133.2h-2.6c-.5 0-.9-.1-1.2-.4-.3-.3-.4-.7-.4-1.4h1.4c0 .3.1.5.1.5.1.1.3.1.6.1h1.8c.3 0 .6 0 .6-.1.1-.1.1-.4.1-.9v-1.5c-.5.4-.8.6-1 .7-.2.1-.5.2-.8.2h-1c-.7 0-1.2-.1-1.5-.4-.2-.2-.4-.5-.5-.9-.1-.4-.1-1-.1-2 0-.9 0-1.6.1-2 .1-.4.2-.7.5-.9.3-.3.8-.4 1.5-.4h1c.3 0 .6.1.8.2s.6.4 1 .7v-.9h1.4v7c0 .6 0 1.1-.1 1.3-.1.3-.2.5-.4.7-.1.2-.6.4-1.3.4zm-.8-4.1c.4 0 .9-.1 1.4-.4v-3.2c-.6-.3-1-.4-1.4-.4h-1c-.4 0-.6.1-.7.2-.1.1-.2.3-.2.5s0 .7 0 1.4 0 1.2 0 1.4c0 .2.1.4.2.5.1.1.4.2.7.2h1zM165.5 123.8h1.6l1.9 5.3h.1l1.7-5.3h1.5l-3 8.5c-.1.3-.3.6-.5.7-.2.1-.5.2-.8.2-.4 0-.9 0-1.5-.1v-1.2h1.3c.1 0 .2-.1.3-.2l.2-.5-2.8-7.4zM183.2 128.4c0 .7 0 1.2-.1 1.5-.1.3-.2.6-.4.8-.3.3-.8.4-1.5.4H178c-.7 0-1.2-.1-1.5-.4-.2-.2-.3-.5-.4-.8-.1-.3-.1-.9-.1-1.8h1.5c0 .9.1 1.4.2 1.5.1.1.3.1.6.1h2.7c.3 0 .5 0 .6-.1.1-.1.1-.5.1-1.3 0-.6-.1-.9-.2-1.1-.1-.1-.3-.1-.6-.2l-3-.3c-.7-.1-1.1-.2-1.4-.5-.2-.2-.3-.4-.4-.7-.1-.3-.1-.7-.1-1.4 0-.6 0-1.1.1-1.4.1-.3.2-.6.4-.8.3-.3.8-.4 1.4-.4h2.9c.7 0 1.2.1 1.5.4.2.2.3.5.4.8.1.3.1.9.1 1.7h-1.5c0-.9-.1-1.4-.2-1.5-.1-.1-.3-.1-.6-.1h-2.4c-.3 0-.5 0-.6.1-.1.1-.1.5-.1 1.2 0 .6.1.9.2 1 .1.1.3.1.6.2l3 .3c.6.1 1.1.2 1.4.5.2.2.3.4.4.7.2.5.2.9.2 1.6zM187 131.1c-.7 0-1.2-.1-1.5-.4-.2-.2-.4-.6-.5-1s-.1-1.2-.1-2.2c0-1.1 0-1.8.1-2.2.1-.4.2-.8.5-1 .3-.3.8-.4 1.5-.4h2.2c.7 0 1.2.1 1.5.4.2.2.4.6.5 1 .1.4.1 1.2.1 2.2 0 1.1 0 1.8-.1 2.2s-.2.8-.5 1c-.3.3-.8.4-1.5.4H187zm-.6-5.4c0 .3 0 .9 0 1.7s0 1.5 0 1.7c0 .3.1.5.2.5.1.1.3.1.6.1h1.8c.3 0 .5 0 .6-.1.1-.1.1-.2.2-.5 0-.3 0-.9 0-1.7s0-1.5 0-1.7c0-.3-.1-.5-.2-.5-.1-.1-.3-.1-.6-.1h-1.8c-.3 0-.5 0-.6.1-.1.1-.2.2-.2.5zM194.6 131.1h-1.4v-9.8h1.4v9.8zM201.4 123.8h1.4v7.3h-1.4v-.9c-.5.4-.8.6-1 .7s-.5.2-.8.2h-1.2c-.6 0-1-.1-1.3-.4-.2-.2-.3-.3-.3-.6-.1-.2-.1-.6-.1-1.1v-5.3h1.4v5.2c0 .3.1.6.2.7.1.1.4.2.8.2h.9c.4 0 .8-.1 1.4-.4v-5.6zM208.6 129.9v.9l-.8.2c-.3.1-.6.1-.9.1-.5 0-.9-.1-1.1-.3-.2-.2-.3-.6-.3-1.1V125h-1.3v-1.2h1.3V122h1.4v1.8h1.7v1.2h-1.7v4.3c0 .3 0 .4.1.5 0 0 .2.1.5.1h1.1zM211.8 121.2v1.5h-1.6v-1.5h1.6zm-.1 2.6v7.3h-1.4v-7.3h1.4zM215.7 131.1c-.7 0-1.2-.1-1.5-.4-.2-.2-.4-.6-.5-1s-.1-1.2-.1-2.2c0-1.1 0-1.8.1-2.2.1-.4.2-.8.5-1 .3-.3.8-.4 1.5-.4h2.2c.7 0 1.2.1 1.5.4.2.2.4.6.5 1 .1.4.1 1.2.1 2.2 0 1.1 0 1.8-.1 2.2s-.2.8-.5 1c-.3.3-.8.4-1.5.4h-2.2zm-.6-5.4c0 .3 0 .9 0 1.7s0 1.5 0 1.7c0 .3.1.5.2.5.1.1.3.1.6.1h1.8c.3 0 .5 0 .6-.1.1-.1.1-.2.2-.5 0-.3 0-.9 0-1.7s0-1.5 0-1.7c0-.3-.1-.5-.2-.5-.1-.1-.3-.1-.6-.1h-1.8c-.3 0-.5 0-.6.1-.1.1-.2.2-.2.5zM223.3 131.1h-1.4v-7.3h1.4v.9c.5-.4.8-.6 1-.7.2-.1.5-.2.8-.2h1.2c.6 0 1 .1 1.3.4.2.2.3.3.3.6.1.2.1.6.1 1.1v5.3h-1.4V126c0-.3-.1-.6-.2-.7-.1-.1-.4-.2-.8-.2h-.9c-.4 0-.8.1-1.4.4v5.6zM235.8 129c0 .9-.1 1.5-.4 1.8-.2.2-.6.3-1.1.3h-2.8c-.6 0-1-.1-1.2-.3-.2-.2-.3-.4-.3-.6-.1-.3-.1-.7-.1-1.4h1.3c0 .6.1 1 .1 1 .1.1.2.1.5.1h2.1c.2 0 .4 0 .5-.1.1-.1.1-.3.1-.8 0-.4 0-.7-.1-.7-.1-.1-.2-.1-.5-.1l-2.5-.3c-.5-.1-.9-.2-1.1-.4-.1-.1-.2-.3-.3-.6-.1-.2-.1-.6-.1-1.1 0-.9.1-1.4.4-1.7.2-.2.6-.3 1.1-.3h2.7c.5 0 .9.1 1.1.3.2.2.3.4.3.6s.1.7.1 1.3h-1.3c0-.6-.1-.9-.1-1-.1-.1-.2-.1-.4-.1h-1.9c-.2 0-.4 0-.4.1-.1.1-.1.3-.1.7 0 .4 0 .6.1.7.1.1.2.1.5.2l2.5.3c.5 0 .9.2 1.1.4.1.2.2.8.2 1.7zM242.8 131.1h-1.4V125h-1.2v-1.2h1.2v-.4c0-.8.1-1.4.4-1.6.3-.3.7-.4 1.2-.4h1.3v1.2h-1c-.2 0-.3 0-.4.1-.1.1-.1.3-.1.7v.4h1.6v1.2h-1.6v6.1zM247.7 131.1c-.7 0-1.2-.1-1.5-.4-.2-.2-.4-.6-.5-1-.1-.4-.1-1.2-.1-2.2 0-1.1 0-1.8.1-2.2.1-.4.2-.8.5-1 .3-.3.8-.4 1.5-.4h2.2c.7 0 1.2.1 1.5.4.2.2.4.6.5 1 .1.4.1 1.2.1 2.2 0 1.1 0 1.8-.1 2.2-.1.4-.2.8-.5 1-.3.3-.8.4-1.5.4h-2.2zm-.6-5.4c0 .3 0 .9 0 1.7s0 1.5 0 1.7c0 .3.1.5.2.5.1.1.3.1.6.1h1.8c.3 0 .5 0 .6-.1.1-.1.1-.2.2-.5 0-.3 0-.9 0-1.7s0-1.5 0-1.7c0-.3-.1-.5-.2-.5-.1-.1-.3-.1-.6-.1h-1.8c-.3 0-.5 0-.6.1-.1.1-.2.2-.2.5zM255.3 131.1h-1.4v-7.3h1.4v1.1c.4-.4.7-.7.9-.8s.5-.2.8-.2h1.7v1.5h-1.8c-.6 0-1.1.1-1.5.3v5.4zM269.7 121.6l-3.3 5.7v3.8h-1.5v-3.8l-3.3-5.7h1.7l2.4 4.2h.1l2.3-4.2h1.6zM272.1 131.1c-.7 0-1.2-.1-1.5-.4-.2-.2-.4-.6-.5-1s-.1-1.2-.1-2.2c0-1.1 0-1.8.1-2.2.1-.4.2-.8.5-1 .3-.3.8-.4 1.5-.4h2.2c.7 0 1.2.1 1.5.4.2.2.4.6.5 1 .1.4.1 1.2.1 2.2 0 1.1 0 1.8-.1 2.2-.1.4-.2.8-.5 1-.3.3-.8.4-1.5.4h-2.2zm-.6-5.4c0 .3 0 .9 0 1.7s0 1.5 0 1.7c0 .3.1.5.2.5.1.1.3.1.6.1h1.8c.3 0 .5 0 .6-.1.1-.1.1-.2.2-.5 0-.3 0-.9 0-1.7s0-1.5 0-1.7c0-.3-.1-.5-.2-.5-.1-.1-.3-.1-.6-.1h-1.8c-.3 0-.5 0-.6.1-.2.1-.2.2-.2.5zM282.9 123.8h1.4v7.3h-1.4v-.9c-.5.4-.8.6-1 .7s-.5.2-.8.2h-1.2c-.6 0-1-.1-1.3-.4-.2-.2-.3-.3-.3-.6-.1-.2-.1-.6-.1-1.1v-5.3h1.4v5.2c0 .3.1.6.2.7.1.1.4.2.8.2h.9c.4 0 .8-.1 1.4-.4v-5.6zM287.9 131.1h-1.4v-7.3h1.4v1.1c.4-.4.7-.7.9-.8s.5-.2.8-.2h1.7v1.5h-1.8c-.6 0-1.1.1-1.5.3v5.4zM307.3 121.6l-2 9.2c0 .1-.1.2-.1.3s-.2.1-.4.1h-1.1c-.2 0-.3 0-.4-.1-.1 0-.1-.1-.1-.3l-1.7-7.1h-.2l-1.7 7.1c0 .1-.1.2-.2.3-.1 0-.2.1-.4.1h-1.1c-.2 0-.3 0-.4-.1s-.1-.1-.1-.3l-2-9.2h1.6l1.5 7.6h.2l1.7-7.1c0-.2.1-.3.2-.4.1-.1.2-.1.4-.1h1c.2 0 .3 0 .4.1.1.1.1.2.2.4l1.7 7.1h.2l1.5-7.6h1.3zM310.6 131.1c-.7 0-1.2-.1-1.5-.4-.2-.2-.4-.6-.5-1-.1-.4-.1-1.2-.1-2.2 0-1.1 0-1.8.1-2.2.1-.4.2-.8.5-1 .3-.3.8-.4 1.5-.4h2.2c.7 0 1.2.1 1.5.4.2.2.4.6.5 1 .1.4.1 1.2.1 2.2 0 1.1 0 1.8-.1 2.2-.1.4-.2.8-.5 1-.3.3-.8.4-1.5.4h-2.2zm-.6-5.4c0 .3 0 .9 0 1.7s0 1.5 0 1.7c0 .3.1.5.2.5.1.1.3.1.6.1h1.8c.3 0 .5 0 .6-.1.1-.1.1-.2.2-.5 0-.3 0-.9 0-1.7s0-1.5 0-1.7c0-.3-.1-.5-.2-.5-.1-.1-.3-.1-.6-.1h-1.8c-.3 0-.5 0-.6.1-.1.1-.2.2-.2.5zM318.2 131.1h-1.4v-7.3h1.4v1.1c.4-.4.7-.7.9-.8s.5-.2.8-.2h.9v1.5h-1c-.6 0-1.1.1-1.5.3v5.4zM323.7 131.1h-1.4v-9.8h1.4v9.8zM331.9 131.1h-1.4v-.9c-.5.4-.8.6-1 .7s-.5.2-.8.2h-1c-.7 0-1.2-.1-1.5-.4-.2-.2-.4-.5-.5-1-.1-.4-.1-1.2-.1-2.3 0-1.1 0-1.8.1-2.3.1-.4.2-.8.5-1 .3-.3.8-.4 1.5-.4h1c.3 0 .6.1.8.2s.6.4 1 .7v-3.3h1.4v9.8zm-2.8-1.2c.4 0 .9-.1 1.4-.4v-4c-.5-.3-1-.4-1.4-.4H328c-.4 0-.6.1-.7.2-.1.1-.2.3-.2.6s-.1.8-.1 1.7c0 .8 0 1.4.1 1.7 0 .3.1.5.2.6.1.1.4.2.7.2h1.1z"/></g><path d="M49.8 106.9c-.7-.9-1.3-1.7-2-2.6-.9-1.2-2-2.3-2.6-3.7-1.1-2.5.6-4.8 3.9-5.2.6-.1 1.2-.1 1.8.1 1.8.4 3.4.2 5.1-.7 1.8-.9 3.7-1 5.5.2.2.2.5.4.7.3 4.8-1.1 6.1 3.5 9.3 5.5 2-1 4.2-2.1 4.8-4.9 0-.1 0-.2.1-.2 3.4-3.2 2.1-7.7 3.3-11.6.5-1.6 1.4-3.1 2.4-4.5.4-.6 1.7-1.1 2.2-.9.7.4 1.5 1.5 1.4 2.2-.2 2-.5 4.1-1.4 5.9-1.9 3.5-4.4 6.7-6.2 10.2-1.1 2-2 4.2-1.7 6.8.3 3.2-.4 6.5-.7 9.7-.2 2-.6 4-.3 5.9.7 5.7-1.7 10.2-5.6 13.9-3 2.9-8.1 2.8-11.6.5-.6-.4-1.7-.8-2.3-.5-8.4 3.6-12.7-.6-16.3-6.2-.7-1.1-1.4-2.4-1.9-3.6-2.6-6.3-7-10.8-13.2-13.6-1.8-.8-3.3-2.5-4.8-3.9-.9-.8-1.5-1.7-2.4-2.6-2-2-1.5-4.2 1.3-4.8 3-.7 5.9-.2 8.3 1.9 2.4 2.1 3.9 4.8 4.5 7.9.5 2.4 1.6 4.1 4.1 4.8.9.3 2 1.2 2.3 2.1.5 1.7 1.3 1.3 2.4.9 2.6-1 3.8-3.2 4.8-5.6.3-.8.7-1.5 1.1-2.2.8-1.8 1.3-2 3.7-1.5zm-4.4 11.3c0 7.6 6.4 13.9 14.3 14 7.7.1 14.2-6.2 14.3-13.7.1-7.9-6.3-14.1-14.5-14.1-7.6 0-14 6.4-14.1 13.8z"/><path d="M55.4 64.5c-1.6 3.9 1 7.6 1.4 11.6.4 4.6 1.2 9.2 1.7 13.8.1.6-.5 1.5-1 1.7-.6.3-1.6.4-2.3.2-.2-.1-.2-1.2-.3-1.8-.2-1-.3-2.2-.9-3-1.5-2.2-1.8-4.6-2.2-7.2-.6-5.1.2-10.6-3.1-15.2-1.5-2-.6-5.8 1.2-7.6 1.1-1.1 2-.8 3 .1 1.8 2.1 2.3 4.6 2.5 7.4zM31.2 68.6c.1-.5.2-1.2.5-1.8.8-2 2.1-2.4 3.8-1 2.3 2 3.5 4.7 4.3 7.5.4 1.3 1 2.5 1.5 3.7.6 1.7 1.2 3.4 1.8 5.2.1.2 0 .5.1.6 2.4 1.7 2 4.6 2.9 7 .2.4.4.9.6 1.3.9 1.5.3 2.9-1.5 3.2-.3.1-.9-.2-1.1-.5-.9-1.1-1.9-2.3-2.7-3.6-.7-1.1-1.2-2.2-1.7-3.4-.5-1.1-.9-2.2-1.4-3.4-.8-1.9-1.6-3.7-2.5-5.6-.3-.7-.8-1.4-1.4-1.9-2.1-2-2.9-4.4-3.2-7.3zM72 66.6c-.6 1.9-1.2 3.9-1.8 5.8-.1.4-.4.8-.4 1.1-.1 3.2-.5 6.5-.2 9.7.2 2.6-.1 4.8-1.5 6.9-.4.7-.4 1.7-.7 2.5-.2.5-.6 1.3-1 1.3-.7.1-1.5-.2-2-.5-.3-.2 0-1.1 0-1.6.1-1.4.2-2.8.4-4.2.3-1.5.7-2.9 1-4.4.1-.4.3-.8.3-1.1.2-5.3.6-10.6-.8-15.9-.8-2.9 1-4.7 3.8-4.4 1.8.3 2.7 1.9 2.9 4.8z"/><path fill="#fff" d="M45.4 118.2c0-7.5 6.5-13.8 14-13.8 8.3 0 14.6 6.2 14.5 14.1-.1 7.6-6.6 13.8-14.3 13.7-7.8-.1-14.2-6.3-14.2-14zm26.4 4.2c-.2 0-.4 0-.6-.1-.3-.9-1.1-2.2-.7-2.8 1.4-2.4.7-4.8.5-7.2-.2-1.8-2.1-3.1-3.4-2.3-1.6 1-1.9.4-1.9-1.1 0-1.6-1.1-2.1-2.2-2.4.2 1.3.3 2.5.4 3.7-.2 0-.4 0-.5 0 .6.9 1.2 1.8 1.5 2.3-1.6 1.3-3 2.1-4.1 3.3-1 1.1-1.8 2.2-3.5 2-.4 0-.9.5-1.3.8.3.4.7.9 1 1.3.5.5 1.2.9 1.7 1.4-3.2-.2-4.7-1.6-6.1-3.7-1.3-2-.2-3.8-.3-5.7 0-.8-.4-1.5-.6-2.2-.6.2-1.3.4-1.8.8-.7.6-1.5 1.3-1.9 2.1-4 8.1 1.3 17.2 10.5 18 2 .2 3.1-1 2.6-2.9-.2-.7-.8-1.2-1.4-1.7-1.3-1.3-.4-2.5.2-3.5.3-.5 1.8-.8 2.5-.6 1.7.7 3.3 1.7 5.5 2.8-2 2-3.8 3.8-5.6 5.6 4.3-.3 8-3.4 9.5-7.9zM58.5 110c1.1.6 1.8 1.1 2.6 1.6.7-1.3 1.2-2.3 1.7-3.3-.2-.1-.4-.2-.5-.3-1.2.6-2.3 1.2-3.8 2z"/><path d="M71.8 122.4c-1.5 4.5-5.2 7.6-9.6 7.9 1.8-1.8 3.6-3.6 5.6-5.6-2.1-1.1-3.7-2.2-5.5-2.8-.7-.3-2.2 0-2.5.6-.6 1-1.5 2.3-.2 3.5.5.5 1.2 1.1 1.4 1.7.6 1.9-.6 3.1-2.6 2.9-9.2-.7-14.5-9.9-10.5-18 .4-.8 1.2-1.5 1.9-2.1.5-.4 1.2-.5 1.8-.8.2.7.6 1.5.6 2.2.1 1.9-1 3.7.3 5.7 1.4 2.1 2.9 3.5 6.1 3.7-.6-.5-1.2-.9-1.7-1.4-.4-.4-.7-.8-1-1.3.4-.3.9-.8 1.3-.8 1.7.2 2.5-.9 3.5-2 1.1-1.2 2.5-2 4.1-3.3-.4-.5-1-1.4-1.5-2.3.2 0 .4 0 .5 0-.1-1.2-.3-2.4-.4-3.7 1.2.2 2.2.8 2.2 2.4 0 1.5.3 2.1 1.9 1.1 1.3-.8 3.2.5 3.4 2.3.2 2.4.9 4.8-.5 7.2-.3.6.5 1.8.7 2.8.3.1.5.1.7.1z" class="st2"/><path d="M58.5 110c1.5-.8 2.6-1.4 3.8-2 .2.1.4.2.5.3-.5 1-1 2-1.7 3.3-.9-.5-1.6-.9-2.6-1.6z" class="st2"/></svg>