<svg xmlns="http://www.w3.org/2000/svg" viewBox="0 0 500 200" enable-background="new 0 0 500 200"><style type="text/css">.st0{fill:#9FA1A2;} .st1{fill:#6E6F5A;} .st2{fill:none;stroke:#BAAA80;stroke-miterlimit:10;}</style><path d="M86.1 128.5c-.8 0-1.5-.2-2.1-.5l.2-1c.5.3 1.2.6 2 .6s1.3-.4 1.3-1.1c0-.7-.3-1-1.4-1.5-1.4-.6-1.9-1.1-1.9-2.2 0-1.2.9-2 2.3-2 .7 0 1.3.2 1.7.4l-.2 1c-.4-.3-1-.6-1.6-.6-.9 0-1.2.5-1.2 1 0 .6.3.8 1.4 1.4 1.4.7 1.9 1.2 1.9 2.3-.1 1.4-1.1 2.2-2.4 2.2zM103.8 121.9v6.5h-1v-6.5h-2.4v-.9h5.7l.2.9h-2.5zM122.9 128.5l-.9-2.3h-3l-.8 2.2h-1l2.9-7.5h1l2.9 7.3-1.1.3zm-2.4-6.4l-1.2 3.1h2.4l-1.2-3.1zM137.3 121.9v2.3h2.2l.2.9h-2.4v3.3h-1V121h3.9v.9h-2.9zM153.7 121.9v2.3h2.2l.2.9h-2.4v3.3h-1V121h3.9v.9h-2.9zM169.8 128.4V121h1v7.4h-1zM189.6 128.4l-4.1-5.8v5.8h-.9V121h.9l3.9 5.6V121h.9v7.4h-.7zM206.3 128.5c-2.4 0-3.6-1.6-3.6-3.8 0-2.3 1.3-3.9 3.5-3.9 1 0 1.7.2 2.3.6l-.2 1c-.6-.4-1.2-.7-2.1-.7-1.6 0-2.5 1.1-2.5 2.9 0 1.8.9 2.9 2.6 2.9.6 0 1.1-.1 1.5-.4v-2h-1.7l-.1-.9h2.9v3.5c-.7.5-1.6.8-2.6.8zM240.6 128.5l-.9-2.3h-3.1l-.8 2.2h-1l2.9-7.5h1l2.9 7.3-1 .3zm-2.4-6.4l-1.2 3.1h2.4l-1.2-3.1zM259.5 128.4l-4.1-5.8v5.8h-.9V121h.9l3.9 5.6V121h.9v7.4h-.7zM275 128.4h-2.1V121h2.2c2.6 0 3.9 1.5 3.9 3.7-.1 2.2-1.5 3.7-4 3.7zm.1-6.5h-1.2v5.6h1.1c1.8 0 2.9-.9 2.9-2.8s-1.1-2.8-2.8-2.8zM308.5 128.5c-2.1 0-3.4-1.6-3.4-3.8 0-2.3 1.4-3.9 3.5-3.9.9 0 1.5.2 2.1.6l-.2 1c-.5-.4-1.2-.7-2-.7-1.5 0-2.4 1.1-2.4 2.9 0 1.8.9 2.9 2.4 2.9.8 0 1.5-.3 2.1-.7l.1 1c-.6.4-1.4.7-2.2.7zM326.7 128.5c-2.1 0-3.4-1.6-3.4-3.8 0-2.3 1.3-3.9 3.4-3.9 2.1 0 3.4 1.6 3.4 3.8 0 2.4-1.3 3.9-3.4 3.9zm0-6.8c-1.5 0-2.4 1.1-2.4 2.9 0 1.8.9 2.9 2.4 2.9s2.4-1.1 2.4-2.9c0-1.7-.9-2.9-2.4-2.9zM347.5 128.4l-4.1-5.8v5.8h-.9V121h.9l3.9 5.6V121h.9v7.4h-.7zM364.1 121.9v6.5h-1v-6.5h-2.4v-.9h5.7l.2.9h-2.5zM384.1 128.3l-1 .2-2.3-3.2h-.8v3.1h-1V121h2c1.5 0 2.5.8 2.5 2.1 0 1.1-.7 1.8-1.6 2.1l2.2 3.1zm-3.1-6.4h-1v2.6h.9c1 0 1.6-.4 1.6-1.3s-.6-1.3-1.5-1.3zM401.6 128.5l-.9-2.3h-3.1l-.8 2.2h-1l2.9-7.5h1l2.9 7.3-1 .3zm-2.4-6.4l-1.2 3.1h2.4l-1.2-3.1zM418.3 128.5c-2.1 0-3.4-1.6-3.4-3.8 0-2.3 1.4-3.9 3.5-3.9.9 0 1.5.2 2.1.6l-.2 1c-.5-.4-1.2-.7-2-.7-1.5 0-2.4 1.1-2.4 2.9 0 1.8.9 2.9 2.4 2.9.8 0 1.5-.3 2.1-.7l.1 1c-.5.4-1.3.7-2.2.7zM436.1 121.9v6.5h-1v-6.5h-2.4v-.9h5.7l.2.9h-2.5zM450.4 128.4V121h1v7.4h-1zM468.9 128.4l-4.1-5.8v5.8h-.9V121h.9l3.9 5.6V121h.9v7.4h-.7zM485.8 128.5c-2.4 0-3.6-1.6-3.6-3.8 0-2.3 1.3-3.9 3.5-3.9 1 0 1.7.2 2.3.6l-.2 1c-.6-.4-1.2-.7-2.1-.7-1.6 0-2.5 1.1-2.5 2.9 0 1.8.9 2.9 2.6 2.9.6 0 1.1-.1 1.5-.4v-2h-1.7l-.1-.9h2.9v3.5c-.7.5-1.6.8-2.6.8z" class="st0"/><path d="M30 69.8c0 6.6 0 12.7 0 20.1 3.1-3.2 5.3-5.7 7.8-8.1 3.5-3.3 2.4-7.4 1.6-11.1-.2-.9-4.4-1-6.7-1.3-.8 0-1.5.3-2.7.4zM30.4 110.8c3.8-5.6 11.8-8 8.8-17.3-3.9 5.6-11.5 7.9-8.8 17.3zM39.3 85.6c-3.2 4-9.3 5.6-9 12 3.3-3.8 8.8-5.8 9-12zM12.3 69.2c.5.1.9.2 1.4.2 9.6.4 9.6.4 9.6 10.4 0 3 0 5.9 0 9.6-4.1-3.6-7.6-6.7-11-9.7 0-3.5 0-7 0-10.5zM12.3 93.1c3.2 3 6.8 5.8 9.5 9.2 1.4 1.8 1.3 4.8 1.9 7.3-.4.2-.8.4-1.2.6-3.4-3.1-6.8-6.3-10.3-9.4.1-2.6.1-5.2.1-7.7zM12.3 83.5c3.6 4.6 9.7 7.3 11.2 13.4-.3.3-.7.6-1 .9-3.4-3.2-6.8-6.4-10.2-9.5 0-1.6 0-3.2 0-4.8zM30 69.8c1.2-.2 1.9-.4 2.7-.3 2.4.3 6.5.4 6.7 1.3.8 3.6 1.9 7.8-1.6 11.1-2.5 2.3-4.7 4.9-7.8 8.1 0-7.4 0-13.6 0-20.2zM30.4 110.8c-2.8-9.4 4.9-11.8 8.8-17.3 3 9.4-5 11.7-8.8 17.3zM39.3 85.6c-.2 6.2-5.7 8.2-9 12-.3-6.4 5.9-8 9-12z" class="st1"/><path d="M60.7 65.7v47.1" class="st2"/><path d="M107.8 90.2c-1 .8-2.4 1-4.7 1h-15v10h-3.5V76H103c2.3 0 3.7.2 4.7 1 1.3 1 2.2 2.4 2.2 6.7.1 4.1-.8 5.5-2.1 6.5zm-5.5-1.5c1.7 0 2.4-.1 2.9-.5.6-.4 1.2-1.3 1.2-4.6s-.7-4.2-1.2-4.6c-.5-.4-1.3-.5-2.9-.5H88.1v10.3h14.2zM181.6 101.2h-3.5V89.4h-22.7v11.9H152V76h3.5v10.9h22.7V76h3.5v25.2zM244 93.5h-16.7l-3 7.7h-3.5l10-24.4c.3-.8.5-.9 1.7-.9h6.6c1.1 0 1.4.2 1.7.9l10 24.4H247l-3-7.7zm-15.7-2.4H243l-5-12.7h-4.7l-5 12.7zM312 100.1c-.9.7-2.2 1.1-4.5 1.1h-14.3c-2.3 0-3.6-.3-4.5-1-1.2-1-1.6-2-1.7-6.6h3.4c.1 3.5.3 4.2.8 4.6.4.4 1 .5 2.5.5H307c1.4 0 2.1-.1 2.5-.6.6-.5.8-1.5.8-3.9 0-2.3-.1-3-.8-3.5-.5-.4-1.1-.5-2.7-.6l-13.4-.7c-2.4-.2-3.7-.6-4.5-1.3-1.1-.9-1.4-2.1-1.4-5.3 0-3.1.4-4.6 1.8-5.7.8-.7 2.2-1.1 4.4-1.1H307c2.3 0 3.6.3 4.5 1 1.2 1 1.6 2.1 1.7 6.4h-3.4c0-3.2-.3-4-.8-4.4-.5-.4-1.1-.5-2.5-.5h-12.3c-1.4 0-2 .1-2.5.6-.6.5-.8 1.6-.8 3.8 0 2.3.2 2.9.8 3.4.5.4 1.1.5 2.7.6l13.4.7c2.3.2 3.6.6 4.5 1.3 1.1.9 1.5 2.1 1.5 5.5s-.5 4.7-1.8 5.7zM384.7 101.2h-24.1V76h24.2v2.5H364V87h18.4v2.4H364v9.4h20.6v2.4zM429.1 101.2V76h3.5v25.2h-3.5zM482.6 101.2V76h3.5v25.2h-3.5z" class="st1"/></svg>