<svg xmlns="http://www.w3.org/2000/svg" viewBox="0 0 74.991 75.012"><style>.st0,.st2{fill:#fff}</style><g id="ICONS"><path d="M37.5 56.5a1.6 1.6 0 01-1.6-1.6c0-.89.72-1.6 1.6-1.6a1.6 1.6 0 010 3.2" class="st2"/><path d="M45.25 60.63h-15.5c-2.45 0-4.44-2-4.44-4.46V18.83c0-2.45 1.99-4.45 4.44-4.45h15.5c2.45 0 4.43 2 4.43 4.45v37.34a4.45 4.45 0 01-4.43 4.46zm-15.5-44.15a2.35 2.35 0 00-2.34 2.35v37.34c0 1.3 1.05 2.37 2.34 2.37h15.5a2.35 2.35 0 002.33-2.37V18.83c0-1.3-1.04-2.35-2.33-2.35h-15.5z" class="st0"/><path d="M36.43 40.07h2.1v21.91h-2.1z" class="st0" transform="rotate(-89.765 37.477 51.027)"/><path d="M36.43 10.43h2.1v21.92h-2.1z" class="st0" transform="rotate(-89.765 37.478 21.39)"/><path d="M43.3 34.72h-3.34c-.96 0-1.75-.78-1.75-1.75v-3.33c0-.96.79-1.75 1.75-1.75h3.33c.97 0 1.75.79 1.75 1.75v3.33c0 .97-.78 1.75-1.75 1.75zm-3.34-5.33a.25.25 0 00-.25.25v3.33c0 .14.11.25.25.25h3.33c.14 0 .25-.11.25-.25v-3.33a.25.25 0 00-.25-.25h-3.33zM35.11 34.72h-3.33c-.96 0-1.75-.78-1.75-1.75v-3.33c0-.96.79-1.75 1.75-1.75h3.33c.97 0 1.75.79 1.75 1.75v3.33c0 .97-.78 1.75-1.75 1.75zm-3.33-5.33a.25.25 0 00-.25.25v3.33c0 .14.11.25.25.25h3.33c.14 0 .25-.11.25-.25v-3.33a.25.25 0 00-.25-.25h-3.33zM43.3 42.68h-3.34c-.96 0-1.75-.78-1.75-1.75V37.6c0-.97.79-1.75 1.75-1.75h3.33c.97 0 1.75.78 1.75 1.75v3.33c0 .97-.78 1.75-1.75 1.75zm-3.34-5.33a.25.25 0 00-.25.25v3.33c0 .14.11.25.25.25h3.33c.14 0 .25-.11.25-.25V37.6a.25.25 0 00-.25-.25h-3.33zM35.11 42.68h-3.33c-.96 0-1.75-.78-1.75-1.75V37.6c0-.97.79-1.75 1.75-1.75h3.33c.97 0 1.75.78 1.75 1.75v3.33c0 .97-.78 1.75-1.75 1.75zm-3.33-5.33a.25.25 0 00-.25.25v3.33c0 .14.11.25.25.25h3.33c.14 0 .25-.11.25-.25V37.6a.25.25 0 00-.25-.25h-3.33z" class="st2"/></g></svg>