<svg xmlns="http://www.w3.org/2000/svg" viewBox="0 0 74.991 75.012" enable-background="new 0 0 74.991 75.012"><style type="text/css">.st0{fill:#FFFFFF;} .st1{fill:#FFFFFF;} .st2{fill:#FFFFFF;} .st3{fill:none;stroke:#00778B;stroke-width:2.1;stroke-linejoin:round;stroke-miterlimit:10;} .st4{display:none;} .st5{display:inline;fill:none;stroke:#231F20;stroke-width:3;stroke-miterlimit:10;}</style><g id="ICONS"><path d="M45.8 16.18l-.18-.04c-2.7-.3-5.44-.44-8.15-.44-2.7 0-5.45.15-8.15.44l-.2.04c-.23.1-.38.34-.38.6v1.17H46.2v-1.17c0-.26-.15-.5-.4-.6zM34.96 59.57H40c.22 0 .4-.2.4-.42v-1.2c0-.24-.18-.43-.4-.43h-5.04c-.24 0-.43.2-.43.42v1.2c0 .24.2.43.43.43zM24.84 20.27h25.3v2.1h-25.3zM24.84 53.23h25.3v2.1h-25.3zM37.78 64.4s-.02 0-.02 0c-4.58 0-6.4-.2-7.73-.37-1.25-.15-2.95-.37-4.22-1.56-1.05-1-1.94-2-1.94-4.27V17.15c0-1.74.6-3.34 1.66-4.4 1.15-1.15 2.3-1.5 4.02-1.74 1.64-.22 3.16-.38 8-.38H38c4.74 0 5.83.15 7.48.38 1.77.25 2.92.6 4.07 1.75 1.05 1.06 1.65 2.66 1.65 4.4V58.2c0 2.27-.88 3.28-1.95 4.27-1.27 1.2-2.97 1.4-4.2 1.56l-.12.02c-1.24.16-2.65.34-7.15.34zm-.24-51.68c-4.7 0-6.1.15-7.7.37-1.54.2-2.15.46-2.84 1.14-.66.66-1.04 1.72-1.04 2.92V58.2c0 1.47.46 1.97 1.28 2.74.72.67 1.77.85 3.06 1 1.27.18 3 .35 7.47.35 4.37 0 5.65-.17 6.9-.33l.1-.02c1.3-.16 2.33-.34 3.05-1 .82-.78 1.28-1.28 1.28-2.75V17.15c0-1.2-.38-2.25-1.04-2.9-.68-.7-1.3-.94-2.83-1.16-1.67-.24-2.64-.38-7.23-.38h-.46z" class="st0"/></g></svg>