<svg xmlns="http://www.w3.org/2000/svg" viewBox="0 0 74.991 75.012" enable-background="new 0 0 74.991 75.012"><style type="text/css">.st0{fill:#FFFFFF;} .st1{fill:#FFFFFF;} .st2{fill:#FFFFFF;} .st3{fill:none;stroke:#00778B;stroke-width:2.1;stroke-linejoin:round;stroke-miterlimit:10;} .st4{display:none;} .st5{display:inline;fill:none;stroke:#231F20;stroke-width:3;stroke-miterlimit:10;}</style><path id="ICONS" d="M31.14 59.3h-9.98c-3.45-.18-6.65-1.8-9.06-4.5-2.33-2.65-3.6-6-3.6-9.43 0-4.03 1.84-7.87 4.98-10.4-.06-.47-.1-.93-.1-1.4 0-5.84 5.14-10.53 11.08-9.84 1.33-2.1 3.12-3.9 5.23-5.27 2.77-1.8 6-2.75 9.34-2.75 4.32 0 8.45 1.6 11.63 4.52 2.7 2.48 4.52 5.65 5.25 9.2 6.16 1.95 10.57 7.98 10.58 14.6 0 3.84-1.42 7.53-4.02 10.38-2.6 2.88-6.13 4.62-9.92 4.9H31.32c-.06 0-.12 0-.18 0zM23.3 25.77c-4.3 0-7.82 3.5-7.82 7.82 0 .53.06 1.06.17 1.64.08.4-.08.8-.4 1.05-2.93 2.12-4.66 5.52-4.66 9.1 0 2.92 1.08 5.78 3.07 8.03 2.04 2.3 4.72 3.65 7.55 3.8H52.5c3.15-.24 6.18-1.73 8.43-4.2 2.24-2.48 3.48-5.66 3.48-8.97 0-5.92-4.07-11.3-9.65-12.76-.4-.1-.7-.43-.77-.84-.57-3.35-2.2-6.35-4.72-8.66-2.8-2.55-6.42-3.96-10.22-3.96-2.93 0-5.77.84-8.2 2.42-2.04 1.3-3.74 3.1-4.93 5.18-.2.38-.65.6-1.1.5-.5-.1-1-.14-1.5-.14z" class="st0"/></svg>