<svg xmlns="http://www.w3.org/2000/svg" viewBox="0 0 74.991 75.012"><style>.st0{fill:#fff}</style><g id="ICONS"><path d="M45.83 27.98c0-2.02-1.62-2.73-2.66-2.73-.92 0-2.68.59-2.68 2.75v2.29c0 2.04 1.66 2.73 2.7 2.73a2.6 2.6 0 002.64-2.73v-2.3zm-1.5 2.35c0 .57-.34 1.36-1.17 1.36-.81 0-1.17-.69-1.17-1.36v-2.38c0-.66.33-1.37 1.16-1.37 1.02 0 1.18.94 1.18 1.36v2.39zM40.2 36.71c0-2.02-1.62-2.73-2.67-2.73-.92 0-2.67.59-2.67 2.75v2.29c0 2.04 1.65 2.73 2.7 2.73a2.6 2.6 0 002.63-2.73V36.7zm-1.5 2.34c0 .58-.34 1.37-1.18 1.37-.8 0-1.17-.69-1.17-1.36v-2.38c0-.66.33-1.38 1.16-1.38 1.03 0 1.19.95 1.19 1.37v2.38zM32.75 50.38V42.9h-2.82v1.27h1.33v6.21zM45.83 45.49c0-2.02-1.62-2.73-2.66-2.73-.92 0-2.68.59-2.68 2.75v2.29c0 2.04 1.66 2.72 2.7 2.72a2.6 2.6 0 002.64-2.73v-2.3zm-1.5 2.34c0 .58-.34 1.37-1.17 1.37-.81 0-1.17-.69-1.17-1.37v-2.37c0-.66.33-1.38 1.16-1.38 1.02 0 1.18.94 1.18 1.37v2.38zM35.57 44.17h1.32v6.21h1.5V42.9h-2.82zM38.39 32.87V25.4h-2.82v1.28h1.32v6.2zM45.83 36.71c0-2.02-1.62-2.73-2.66-2.73-.92 0-2.68.59-2.68 2.75v2.29c0 2.04 1.66 2.73 2.7 2.73a2.6 2.6 0 002.64-2.73V36.7zm-1.5 2.34c0 .58-.34 1.37-1.17 1.37-.81 0-1.17-.69-1.17-1.36v-2.38c0-.66.33-1.38 1.16-1.38 1.02 0 1.18.95 1.18 1.37v2.38zM34.56 36.71c0-2.02-1.62-2.73-2.66-2.73-.92 0-2.68.59-2.68 2.75v2.29c0 2.04 1.66 2.73 2.7 2.73a2.6 2.6 0 002.64-2.73V36.7zm-1.5 2.34c0 .58-.34 1.37-1.17 1.37-.81 0-1.17-.69-1.17-1.36v-2.38c0-.66.33-1.38 1.16-1.38 1.02 0 1.18.95 1.18 1.37v2.38zM34.56 27.98c0-2.02-1.62-2.73-2.66-2.73-.92 0-2.68.59-2.68 2.75v2.29c0 2.04 1.66 2.73 2.7 2.73a2.6 2.6 0 002.64-2.73v-2.3zm-1.5 2.35c0 .57-.34 1.36-1.17 1.36-.81 0-1.17-.69-1.17-1.36v-2.38c0-.66.33-1.37 1.16-1.37 1.02 0 1.18.94 1.18 1.36v2.39z" class="st0"/><g><path d="M45.79 16.18l-.17-.04a76.47 76.47 0 00-16.3 0l-.19.04c-.24.1-.4.34-.4.6v1.17h17.48v-1.17c0-.26-.16-.5-.42-.6zM34.96 59.57h5.03c.23 0 .42-.19.42-.42v-1.2c0-.24-.19-.43-.42-.43h-5.03c-.24 0-.43.19-.43.42v1.2c0 .24.2.43.43.43z" class="st0"/></g><path d="M24.84 20.27h25.3v2.1h-25.3zM24.84 53.23h25.3v2.1h-25.3z" class="st0"/><path d="M37.78 64.4s-.02 0-.02 0c-4.58 0-6.4-.2-7.73-.37-1.24-.15-2.95-.37-4.22-1.56-1.06-1-1.95-2-1.95-4.27V17.15c0-1.74.6-3.34 1.66-4.4 1.15-1.15 2.3-1.5 4.02-1.74 1.64-.23 3.16-.39 8-.39H38c4.74 0 5.83.15 7.48.38 1.77.25 2.92.6 4.07 1.75a6.22 6.22 0 011.65 4.4V58.2c0 2.27-.88 3.28-1.95 4.27-1.27 1.19-2.97 1.4-4.21 1.56l-.11.02c-1.24.16-2.65.34-7.15.34zm-.24-51.68c-4.71 0-6.1.15-7.7.37-1.54.22-2.15.47-2.84 1.15a4.12 4.12 0 00-1.04 2.92V58.2c0 1.47.46 1.97 1.28 2.74.72.67 1.77.85 3.06 1.01 1.27.17 3 .34 7.47.34 4.37 0 5.65-.16 6.89-.32l.11-.02c1.29-.16 2.33-.34 3.05-1.01.82-.77 1.28-1.27 1.28-2.74V17.15c0-1.19-.38-2.25-1.04-2.91-.68-.69-1.29-.93-2.83-1.15-1.67-.23-2.64-.37-7.23-.37h-.46z" class="st0"/></g></svg>