<svg xmlns="http://www.w3.org/2000/svg" viewBox="0 0 700 700"><style>.st0{fill:#fff}.st1{fill:#00778b}.st2{fill:#e6e7e8}.st3{fill:#b9b9b9}.st5{fill:none;stroke:#00778c;stroke-width:2.1;stroke-linejoin:round;stroke-miterlimit:10}.st7,.st8{fill:none;stroke:#fff;stroke-width:3}.st8{stroke:#00778b;stroke-width:16;stroke-miterlimit:10}</style><switch><g><g id="Monitor"><path d="M329 544.48c-4.64 0-95.6-2.69-99.32-2.93-3.07-.2-6.4-1.6-6.5-3.75-.02-.31.02-1.9 2.26-2.3.69-.2 1.67-.4 3.16-.65 5.9-1 13.17-1.58 20.2-2.13 8.89-.7 18.08-1.41 24.56-3.02 16.76-4.14 18.87-9.97 17.08-20.68-1.2-7.2-2.92-13.9-4-17.77l-144.96-5.56a9.6 9.6 0 01-6.86-3.24 9.6 9.6 0 01-2.41-7.2l2.46-30.41.13-1.62 17.25-212.64a14.84 14.84 0 013.76-8.77 14.83 14.83 0 018.3-4.7l382.57-59.34a8.74 8.74 0 015.3.7c2.37.76 5.97 2.53 9.78 6.56a18.47 18.47 0 015.2 13.27L544.6 484.15a17.12 17.12 0 01-17.1 15.93c-.22 0-.43 0-.65-.01l-6.44-.25a17.26 17.26 0 01-3.6.25l-144.34-5.53c2.3 6.64 4.95 14.49 5.98 18.1 1.66 5.81 5.55 19.4-12.33 25.07-8.56 2.72-19.44 4.81-22.91 5.39-6.9 1.14-10.67 1.38-14.22 1.38z" class="st0"/><path d="M548.25 159.12c1.09 0 2.17.25 3.17.74 2.69.85 5.97 2.73 9.25 6.2 4.38 4.64 4.94 10 4.8 12.14L543.1 484.04a15.58 15.58 0 01-5.16 10.54 15.6 15.6 0 01-11.03 4l-6.6-.26a15.78 15.78 0 01-3.45.25l-146.52-5.61a549.4 549.4 0 016.67 20.1c1.89 6.59 4.82 18.1-11.35 23.23-8.89 2.82-20.1 4.9-22.7 5.33-6.59 1.1-10.35 1.36-13.96 1.36-3.61 0-94.52-2.62-99.23-2.93-4.06-.27-6.71-2.64-4.01-3.09.74-.2 1.83-.42 3.08-.63 13.27-2.27 33.08-2.26 44.87-5.17 17.78-4.39 20.08-11.09 18.2-22.39-1.33-8-3.3-15.36-4.33-18.98l-146.05-5.6a8.17 8.17 0 01-7.84-8.82l2.6-32.03h-.01l17.25-212.64a13.41 13.41 0 0110.86-12.12l382.5-59.32c.45-.1.9-.14 1.36-.14m0-3c-.63 0-1.25.06-1.86.18L163.94 215.6l-.06.01-.05.01a16.3 16.3 0 00-9.14 5.18 16.34 16.34 0 00-4.14 9.65L133.3 443.1l-.26 3.19-2.33 28.84a11.1 11.1 0 002.78 8.31 11.1 11.1 0 007.93 3.75l143.87 5.51a175.1 175.1 0 013.67 16.57c1.5 8.98 1.17 14.75-15.96 18.98-6.37 1.57-15.5 2.28-24.32 2.98-7.06.55-14.36 1.12-20.33 2.14-1.5.26-2.5.46-3.25.66-2.63.51-3.5 2.38-3.42 3.84.15 3.2 4.2 4.92 7.9 5.17 3.73.25 94.79 2.93 99.43 2.93 3.62 0 7.47-.23 14.45-1.4 3.5-.58 14.49-2.69 23.12-5.43 19.27-6.11 14.95-21.22 13.33-26.9-.94-3.29-3.18-9.97-5.3-16.12l142.15 5.45a17.7 17.7 0 003.76-.25l6.28.25c.24 0 .47 0 .7 0a18.62 18.62 0 0018.6-17.32l22.35-305.84c.26-3.64-1.06-9.6-5.6-14.4-3.98-4.22-7.78-6.1-10.33-6.95-1.33-.61-2.8-.94-4.26-.94z" class="st1"/><path d="M367.76 485.55s7.38 20.92 9.26 27.51 4.82 18.1-11.35 23.23c-8.9 2.82-20.1 4.9-22.7 5.33-6.6 1.1-10.36 1.36-13.97 1.36-3.6 0-94.51-2.62-99.22-2.93-4.7-.31-7.53-3.45-2.3-3.14 4.55.28 71.5-.31 88.3-9.25 16.78-8.95 49.47-25.64 51.98-42.11z" class="st0"/><path d="M329 543.35c-4.62 0-95.52-2.68-99.24-2.93-2.94-.2-5.55-1.52-5.47-2.77.04-.6.63-1.27 3.21-1.12 3.83.24 71.45-.34 88.1-9.2l2.21-1.18c17.66-9.38 47.2-25.07 49.58-40.66l.23-1.48.5 1.41c.07.21 7.4 21 9.26 27.54 1.7 5.95 5.25 18.34-11.6 23.68-8.48 2.7-19.3 4.77-22.75 5.35-6.8 1.13-10.53 1.36-14.02 1.36zm-102.22-6.09c-1.38 0-1.73.3-1.74.43-.03.5 1.79 1.79 4.77 1.99 3.72.24 94.57 2.92 99.2 2.92 3.45 0 7.14-.23 13.9-1.35 3.44-.57 14.2-2.64 22.65-5.32 16.14-5.12 12.86-16.6 11.1-22.77-1.59-5.56-7.16-21.54-8.8-26.2-3.84 15.5-32.42 30.68-49.7 39.85l-2.21 1.18c-17.13 9.12-84.5 9.53-88.5 9.3a12.1 12.1 0 00-.67-.03z" class="st1"/><path d="M365.57 487.22s3.02 8.2 7.53 22.6c4.55 14.54 1.28 21.6-15.07 25.52-9.1 2.2-21.23 3.61-21.23 3.61l-106.6-.56s-2.78.01-4.68-.5c-1.91-.53.23-1.03 3.33-1.56 13.26-2.27 33.08-2.26 44.86-5.17 17.8-4.39 20.1-11.09 18.2-22.38-1.88-11.3-5.01-21.34-5.01-21.34l78.67-.22z" class="st0"/><path d="M336.84 539.33l-106.65-.56c-.15-.01-2.84 0-4.77-.53-.33-.09-1.02-.28-1-.8.03-.54.7-.85 4.37-1.48 5.85-1 13.1-1.57 20.1-2.12 8.93-.7 18.16-1.42 24.74-3.04 17.52-4.33 19.78-10.8 17.92-21.96a180.95 180.95 0 00-5.01-21.3l-.15-.48 79.44-.21.09.25c.03.08 3.08 8.37 7.54 22.61 2.44 7.8 2.52 13.06.25 17.06-2.32 4.1-7.27 6.94-15.59 8.94-9.02 2.17-21.16 3.6-21.28 3.62zm-106.65-1.31l106.6.56c.08-.01 12.18-1.44 21.16-3.6 8.1-1.95 12.9-4.68 15.1-8.58 2.16-3.8 2.07-8.88-.31-16.47a551.72 551.72 0 00-7.44-22.33l-77.9.2c.65 2.15 3.25 11.11 4.89 20.91 1.9 11.37-.5 18.37-18.48 22.82-6.64 1.63-15.9 2.36-24.87 3.06-6.98.55-14.2 1.11-20.02 2.1-1.8.32-2.97.57-3.5.77.05.02.12.04.2.06 1.83.5 4.57.49 4.57.5z" class="st1"/><g><path d="M153.54 230.7a13.41 13.41 0 0110.86-12.12l382.5-59.33a7.15 7.15 0 018.52 7.54l-22.35 317.25a15.6 15.6 0 01-16.2 14.53L141.55 484.2a8.16 8.16 0 01-7.84-8.83l19.84-244.67z" class="st0"/><path d="M517.47 498.96c-.2 0-.4 0-.61-.01l-375.34-14.38a8.5 8.5 0 01-6.07-2.87 8.5 8.5 0 01-2.12-6.36l19.84-244.67a13.72 13.72 0 013.48-8.1 13.7 13.7 0 017.68-4.36l382.52-59.33c2.3-.45 4.65.2 6.42 1.76a7.49 7.49 0 012.52 6.18l-22.35 317.25c-.29 4.17-2.17 8-5.28 10.79a15.93 15.93 0 01-10.7 4.1zm30.82-339.46c-.44 0-.87.04-1.31.12l-382.53 59.33a12.95 12.95 0 00-7.24 4.11 12.97 12.97 0 00-3.3 7.67L134.08 475.4a7.76 7.76 0 007.48 8.42L516.9 498.2a15.27 15.27 0 0015.8-14.19l22.35-317.25a6.75 6.75 0 00-6.75-7.26z" class="st1"/></g><g><path d="M136.29 443.34l17.25-212.64a13.41 13.41 0 0110.86-12.12l382.5-59.33a7.15 7.15 0 018.52 7.54l-19.52 279.4-399.61-2.85z" class="st0"/><path d="M536.25 446.57h-.35l-400.02-2.86.03-.4 17.26-212.64a13.72 13.72 0 013.48-8.1 13.7 13.7 0 017.67-4.36l382.53-59.33c2.3-.45 4.65.2 6.42 1.76a7.49 7.49 0 012.52 6.18l-19.54 279.75zm-399.56-3.6l398.86 2.84 19.5-279.05a6.75 6.75 0 00-2.28-5.56 6.75 6.75 0 00-5.8-1.58l-382.52 59.33a12.95 12.95 0 00-7.24 4.11 12.97 12.97 0 00-3.3 7.67L136.7 442.97z" class="st1"/></g></g><g id="Screen"><path d="M210.97 226.07l-43.03 6.36-1.34 14.58 43-5.32zM203.15 314.84l1.35-15.4-43.04 3.9-.97 10.67-.4 4.34zM209.34 244.62l-43 5.25-1.36 14.9L208 259.9zM161.73 300.44l43.04-3.97 1.35-15.35-43.03 4.35zM207.73 262.84l-43.01 4.8-1.36 14.94 43.02-4.42zM201.52 333.25l1.36-15.44-43.05 3.44-1.36 15.05zM538.9 177.57l-150.52 22.26-17.16 228.14 148.86-.17zM385.84 200.2l-172.78 25.56-17.8 202.4 173.42-.19zM198.26 370.23l1.37-15.53-43.04 2.51-1.37 15.15zM199.9 351.71l1.36-15.48-43.05 2.98-1.36 15.1zM193.16 428.17l4.84-54.95-43.05 2.05-4.78 52.95z" class="st2"/><path d="M225.21 313.78l-6.69 77.37 14.26-.53 6.67-78-14.24 1.16M247.63 297.87l-7.87 92.5 14.62-.54 7.83-93.26-14.58 1.3M267.13 322.53l-5.6 67.04 14.99-.55 5.57-67.6-14.96 1.1M294.07 263.9l-10.2 124.85 15.36-.56 10.15-125.9-15.3 1.61M315.64 277.06l-8.88 110.85 15.76-.58 8.82-111.8-15.7 1.53M336.7 304.73l-6.46 82.32 16.18-.6 6.41-83.03-16.13 1.3M480.8 313.18a49.7 49.7 0 01-12.7 20.2 44.42 44.42 0 01-9.2 6.8 38.06 38.06 0 01-10.33 3.91l.59 18.03c5-1.04 9.87-2.9 14.5-5.44a62.1 62.1 0 0013.02-9.67c4-3.86 7.61-8.3 10.69-13.2a73 73 0 007.5-15.93l-14.07-4.7M448.6 246.2a51.04 51.04 0 00-17.55 6.03 63.23 63.23 0 00-15.2 11.94 72.8 72.8 0 00-19.3 43.28 67.32 67.32 0 00.26 13.55c.27 2.2.66 4.38 1.17 6.49l13.47-7.45a40.62 40.62 0 01-1.14-8.88 43.66 43.66 0 01.78-9.25 49.38 49.38 0 0113.12-25.4 44.71 44.71 0 0110.9-8.28 37.12 37.12 0 0114.08-4.3 34.11 34.11 0 014.52-.08 29.56 29.56 0 0121.84 11.29 34.58 34.58 0 016.02 11.65 41.03 41.03 0 011.58 14.32l15.23-1.36c.45-7.45-.36-14.51-2.23-20.92a50.45 50.45 0 00-8.56-16.95 42.36 42.36 0 00-13.57-11.47 40.4 40.4 0 00-19.33-4.66 44.6 44.6 0 00-6.08.45M415.82 330.53l-11.59 12.22a45.7 45.7 0 005.64 7.39 41.9 41.9 0 006.83 5.86 40.23 40.23 0 0017.13 6.64c.17.03.35.05.53.07a88.06 88.06 0 001.07.13l3.05-18.12c-.13-.01-.26-.03-.4-.04s-.26-.03-.4-.05a17.21 17.21 0 01-.79-.1 29.73 29.73 0 01-12.04-4.6 29.76 29.76 0 01-4.95-4.15 31.97 31.97 0 01-4.08-5.25" class="st1"/><path d="M179.78 235.17l-.36 4.08 22.45-2.86.36-4.14-22.45 2.92M222.17 396l-.63 7.34 5.77-.17.63-7.37-5.77.2M243.53 395.28l-.63 7.43 5.91-.18.63-7.45-5.91.2M265.42 394.54l-.62 7.52 6.06-.18.63-7.55-6.07.2M287.86 393.79l-.62 7.6 6.23-.18.61-7.64-6.22.22M310.9 393.01l-.62 7.7 6.37-.18.62-7.73-6.38.21M334.5 392.21l-.6 7.8 6.54-.19.61-7.83-6.54.22M383.66 369.6l-.6 8 46-1.88.57-8.17-45.97 2.06M449.22 233.75l-.57 8.07 37.95-4.13.56-8.21-37.94 4.27M450.15 220.55l-.57 8.04 29.93-3.45.55-8.17-29.91 3.58M475.05 358.57l-.57 8.36 31.18-1.38.56-8.49-31.17 1.51M178.17 253.08l-.38 4.09 22.46-2.63.37-4.14-22.45 2.68M176.54 271.04l-.37 4.1 22.46-2.4.38-4.15-22.47 2.45M174.92 289.04l-.38 4.11 22.48-2.15.36-4.16-22.46 2.2M173.28 307.1l-.37 4.12 22.48-1.92.38-4.18-22.49 1.97M171.65 325.2l-.38 4.13 22.5-1.67.36-4.2-22.48 1.74M170 343.34l-.37 4.15 22.5-1.44.38-4.2-22.5 1.49M168.36 361.54l-.37 4.16 22.5-1.2.38-4.2-22.5 1.24" class="st3"/><path fill="none" d="M538.9 177.57L520.09 427.8l-369.91.42 17.69-195.78z"/><g><path d="M203.64-120.24v-5.2h1.92v5.14c0 1.52.76 2.32 2.02 2.32s2.03-.76 2.03-2.24v-5.22h1.91v5.13c0 2.74-1.53 4.09-3.97 4.09-2.41 0-3.91-1.36-3.91-4.02zM213.63-125.44h1.76l4.37 5.73v-5.73h1.9v9.08h-1.64l-4.51-5.91v5.91h-1.88v-9.08zM223.91-125.44h4.13c1.15 0 2.05.33 2.64.92.5.5.77 1.21.77 2.05v.03a2.8 2.8 0 01-1.99 2.8l2.27 3.28h-2.24l-2.01-2.95h-1.66v2.95h-1.9v-9.08zm4 4.43c1 0 1.6-.54 1.6-1.33v-.03c0-.87-.62-1.33-1.63-1.33h-2.06v2.7h2.1zM233.33-125.44h6.82v1.71h-4.93v1.95h4.34v1.7h-4.34v2.01h5v1.71h-6.9v-9.08zM241.43-117.68l1.13-1.36a4.18 4.18 0 002.75 1.12c.85 0 1.37-.36 1.37-.92v-.03c0-.53-.32-.8-1.87-1.2-1.86-.45-3.02-.98-3.02-2.76v-.03c0-1.62 1.32-2.7 3.17-2.7 1.32 0 2.43.4 3.35 1.14l-1 1.45c-.8-.57-1.6-.9-2.39-.9-.8 0-1.22.38-1.22.84v.02c0 .63.4.84 2 1.25 1.85.48 2.89 1.15 2.89 2.7v.03c0 1.79-1.37 2.8-3.32 2.8a5.72 5.72 0 01-3.84-1.45zM252.53-123.67h-2.8v-1.77h7.5v1.77h-2.78v7.31h-1.92v-7.3zM258.82-125.44h4.13c1.15 0 2.05.33 2.64.92.5.5.77 1.21.77 2.05v.03a2.8 2.8 0 01-1.99 2.8l2.27 3.28h-2.24l-2.01-2.95h-1.66v2.95h-1.9v-9.08zm4 4.43c1 0 1.6-.54 1.6-1.33v-.03c0-.87-.62-1.33-1.63-1.33h-2.06v2.7h2.1zM268.32-125.44h1.93v9.08h-1.93v-9.08zM272.18-120.87v-.03a4.6 4.6 0 014.72-4.69c1.71 0 2.73.56 3.58 1.4l-1.22 1.4a3.4 3.4 0 00-2.37-1.04c-1.57 0-2.7 1.31-2.7 2.9v.03c0 1.6 1.1 2.93 2.7 2.93 1.06 0 1.7-.42 2.43-1.08l1.22 1.23a4.67 4.67 0 01-3.71 1.61 4.58 4.58 0 01-4.65-4.66zM284.33-123.67h-2.8v-1.77h7.5v1.77h-2.78v7.31h-1.92v-7.3zM290.63-125.44h6.82v1.71h-4.92v1.95h4.34v1.7h-4.34v2.01h4.98v1.71h-6.88v-9.08zM299.36-125.44h3.5c2.86 0 4.83 1.96 4.83 4.52v.02c0 2.56-1.97 4.54-4.83 4.54h-3.5v-9.08zm1.9 1.74v5.6h1.6c1.68 0 2.82-1.13 2.82-2.77v-.03c0-1.64-1.14-2.8-2.82-2.8h-1.6zM207.82-103.5l1.14-1.35a4.18 4.18 0 002.74 1.12c.85 0 1.37-.36 1.37-.92v-.03c0-.53-.32-.8-1.87-1.2-1.85-.46-3.01-.98-3.01-2.76v-.03c0-1.62 1.32-2.7 3.16-2.7 1.33 0 2.44.4 3.36 1.14l-1.01 1.45c-.8-.58-1.6-.91-2.38-.91-.8 0-1.23.39-1.23.85v.02c0 .63.4.84 2 1.25 1.86.47 2.9 1.15 2.9 2.7v.03c0 1.78-1.38 2.8-3.32 2.8a5.72 5.72 0 01-3.85-1.45zM216.79-111.25h2.06l2.45 3.93 2.47-3.93h2.06v9.08h-1.9v-6.05l-2.63 3.97h-.05l-2.6-3.93v6h-1.86v-9.07zM231.21-111.31h1.77l3.9 9.14h-2l-.85-2.07h-3.93l-.85 2.07h-1.95l3.91-9.14zm2.14 5.37l-1.28-3.08-1.28 3.08h2.56zM238.37-111.25h4.13c1.14 0 2.04.32 2.64.92.5.5.76 1.21.76 2.05v.02a2.8 2.8 0 01-1.98 2.8l2.27 3.29h-2.25l-2-2.96h-1.66v2.96h-1.91v-9.08zm4 4.43c1 0 1.6-.54 1.6-1.34v-.02c0-.87-.62-1.34-1.64-1.34h-2.05v2.7h2.1zM249.92-109.48h-2.8v-1.77h7.5v1.77h-2.78v7.3h-1.92v-7.3zM256.21-111.25h3.68c2.16 0 3.47 1.27 3.47 3.12v.02c0 2.1-1.64 3.17-3.66 3.17h-1.58v2.77h-1.9v-9.08zm3.56 4.6c1.03 0 1.65-.6 1.65-1.42v-.03c0-.92-.66-1.42-1.7-1.42h-1.6v2.87h1.65zM264.91-111.25h1.91v3.63h3.82v-3.63h1.92v9.08h-1.92v-3.68h-3.82v3.68h-1.9v-9.08zM274.39-106.69v-.02a4.7 4.7 0 014.83-4.69c2.79 0 4.8 2.08 4.8 4.67v.02a4.7 4.7 0 01-4.83 4.69c-2.8 0-4.8-2.08-4.8-4.67zm7.62 0v-.02c0-1.6-1.17-2.93-2.82-2.93s-2.8 1.3-2.8 2.9v.03c0 1.6 1.18 2.93 2.83 2.93s2.79-1.3 2.79-2.9zM285.86-111.25h1.76l4.38 5.72v-5.72h1.9v9.08h-1.64l-4.52-5.91v5.9h-1.88v-9.07zM296.15-111.25h6.82v1.7h-4.93v1.95h4.34v1.71h-4.34v2.01h5v1.71h-6.9v-9.08zM232.81-91.86v-5.2h1.92v5.14c0 1.52.77 2.32 2.02 2.32s2.04-.77 2.04-2.25v-5.21h1.9v5.12c0 2.75-1.53 4.1-3.96 4.1-2.42 0-3.91-1.36-3.91-4.02zM242.18-89.3l1.13-1.36a4.18 4.18 0 002.75 1.12c.84 0 1.37-.36 1.37-.92v-.03c0-.54-.33-.81-1.87-1.2-1.86-.46-3.02-.98-3.02-2.77v-.02c0-1.62 1.32-2.7 3.17-2.7 1.32 0 2.43.4 3.35 1.14l-1 1.45c-.8-.58-1.6-.91-2.39-.91-.8 0-1.22.38-1.22.84v.03c0 .62.4.84 2 1.25 1.85.47 2.89 1.14 2.89 2.7v.03c0 1.78-1.37 2.8-3.32 2.8a5.72 5.72 0 01-3.84-1.46zM254.27-97.12h1.77l3.9 9.14h-2l-.85-2.07h-3.93l-.85 2.07h-1.95l3.91-9.14zm2.13 5.37l-1.27-3.08-1.28 3.08h2.55zM261.02-92.5v-.02c0-2.57 2-4.7 4.75-4.7a5 5 0 013.55 1.24l-1.2 1.46a3.43 3.43 0 00-2.41-.93c-1.5 0-2.69 1.32-2.69 2.9v.03c0 1.7 1.16 2.95 2.82 2.95.75 0 1.43-.2 1.95-.57v-1.38h-2.07v-1.66h3.93v3.91a5.85 5.85 0 01-3.87 1.44c-2.83 0-4.76-1.99-4.76-4.67zM271.63-97.06h6.82v1.7h-4.93v1.95h4.34v1.71h-4.34v2h5v1.72h-6.9v-9.08z" class="st1"/><g><path d="M258.37-147.66l-1.68-1.87a25.86 25.86 0 008.6-19.23c0-7.27-3.1-14.25-8.5-19.13l1.7-1.86a28.4 28.4 0 019.3 21c0 8.03-3.44 15.72-9.42 21.1zM253.47-147.1a28.31 28.31 0 01-.13-43.21l1.63 1.91a25.8 25.8 0 00.12 39.39l-1.62 1.91z" class="st1"/><path d="M255.6-147.02c-11.99 0-21.74-9.75-21.74-21.74s9.75-21.74 21.74-21.74c11.98 0 21.74 9.75 21.74 21.74s-9.75 21.74-21.74 21.74zm0-40.97a19.25 19.25 0 00-19.23 19.23c0 10.6 8.62 19.23 19.23 19.23 10.6 0 19.23-8.62 19.23-19.23 0-10.6-8.63-19.23-19.23-19.23z" class="st1"/><path d="M274.49-175.12h-37.78a1.26 1.26 0 010-2.5h37.78a1.26 1.26 0 010 2.5zM274.49-159.54h-37.78a1.26 1.26 0 010-2.5h37.78a1.26 1.26 0 010 2.5z" class="st1"/><g><path d="M254.34-189.14h2.51V-148h-2.5z" class="st1"/></g><g><path d="M255.6-136.5c-9.6 0-18.63-4.23-24.78-11.6a1.25 1.25 0 111.93-1.6c5.67 6.8 14 10.7 22.85 10.7a29.78 29.78 0 0027.94-39.98 1.25 1.25 0 012.36-.86 32.3 32.3 0 01-30.3 43.34z" class="st1"/><path d="M231.13-141.47c-.7 0-1.26-.56-1.26-1.25v-6.77c0-.7.56-1.26 1.26-1.26h6.77a1.26 1.26 0 010 2.51h-5.52v5.52c0 .69-.56 1.25-1.25 1.25z" class="st1"/></g><g><path d="M226.29-157.2c-.51 0-1-.32-1.18-.83a32.3 32.3 0 0130.3-43.34c9.6 0 18.62 4.22 24.78 11.6a1.25 1.25 0 11-1.93 1.6c-5.68-6.8-14-10.7-22.85-10.7a29.78 29.78 0 00-27.94 39.97 1.25 1.25 0 01-1.18 1.7z" class="st1"/><path d="M279.88-187.13h-6.77a1.26 1.26 0 010-2.5h5.51v-5.52a1.25 1.25 0 112.5 0v6.77c.01.7-.55 1.25-1.25 1.25z" class="st1"/></g></g></g><g><path d="M94.43-147.27h-43.3c-1.8 0-3.3 1.5-3.3 3.3v30.8c0 1.8 1.5 3.4 3.3 3.4h16.6s.7 6.7-5 6.7v3.4h20.1v-3.4c-6 0-5-6.7-5-6.7h16.6c1.8 0 3.3-1.5 3.3-3.4v-30.7c0-1.9-1.5-3.4-3.3-3.4z" class="st5"/></g><g><path d="M-63.93-92.47h-49.6" class="st5"/></g><g><path fill="#e2e2e2" d="M1503.57-73.97h489.6v277.88h-489.6z"/><path d="M1604.01 38.4h20.94v89.14H1604zM1635.08 22.14H1656v105.4h-20.93zM1666.14 52.22h20.94v75.32h-20.94zM1697.2-11.57h20.94v139.11h-20.93zM1728.27 5.7h20.94v121.84h-20.94zM1759.34 38.4h20.93v89.14h-20.93z" class="st1"/><path d="M1572.36-77.99v285.62M1814.09-77.99v285.62M1572.38-47.05h-72.68M1572.38-25.47h-72.68M1572.38-3.88h-72.68M1572.38 17.7h-72.68M1572.38 39.28h-72.68M1572.38 60.86h-72.68M1572.38 82.45h-72.68M1572.38 104.03h-72.68" class="st7"/><g><path d="M1943.92 61.7a50.9 50.9 0 01-41.48 35.72M1847.39 64.3a50.83 50.83 0 1198.67-17.6M1888.61 97.5a50.66 50.66 0 01-33.6-19.32" class="st8"/></g><path d="M1523.06-61.27h35v4.94h-35z" class="st3"/><g><path d="M1610.04 133.27h8.47v8.37h-8.47zM1641.12 133.27h8.47v8.37h-8.47zM1672.2 133.27h8.47v8.37h-8.47zM1703.28 133.27h8.47v8.37h-8.47zM1734.36 133.27h8.47v8.37h-8.47zM1765.44 133.27h8.47v8.37h-8.47z" class="st3"/></g><path d="M1825.68 111.28h55.45v8.37h-55.45zM1893.05-25.95h43.58v8.37h-43.58zM1893.05-39.7h34.52v8.38h-34.52zM1932.85 104.3h34.51v8.37h-34.51zM1523.06-39.63h35v4.93h-35zM1523.06-18h35v4.94h-35zM1523.06 3.64h35v4.93h-35zM1523.06 25.27h35v4.93h-35zM1523.06 46.9h35v4.94h-35zM1523.06 68.54h35v4.93h-35zM1523.06 90.17h35v4.94h-35z" class="st3"/></g><path fill="none" stroke="#00778b" stroke-miterlimit="10" stroke-width=".75" d="M538.9 177.57L520.09 427.8l-369.91.42 17.69-195.78z"/></g></g></switch></svg>