<svg xmlns="http://www.w3.org/2000/svg" viewBox="0 0 624.2 1665.6"><style>.st0{fill:#fff}.st1{fill:#00778b}.st2,.st3{fill:none;stroke:#068599}.st2{stroke-miterlimit:10}.st3{stroke-linecap:round;stroke-linejoin:round}.st8{fill:#ed1c24}.st9{fill:#e51b23}</style><g id="Layer_1"><path d="M590.7 591.5v819.7l-7 38.1v81.8c0 6.9-1.8 13.8-5.1 19.8l-5 9-.4.8s-6.4 32.9-38.5 47.7c-7.1 4-49.7 9.8-63.9 10.4-53.2 2.2-109.2-5.2-146.3-10.7l-9-5.1c-2.8-.5-5.6-.9-8.5-1.4-13.6-2.3-27.2-5-40.8-8l-6 2.6c-87.4-19.5-74.1-18.8-106.8-29.2-17.2-5.4-31.7-15.2-41.2-28.9-3.8-5.5-6.9-11.6-9-18.3-7.6-24.1-5.8-53.2 8.4-74l8.6-12.6s0-.1.1-.1c.2-.3.4-.6.5-.8 1.6-2.4 2.8-4.1 3.6-5.3 1.8-2.7 2-3 2-3 0-.3-.1-.6-.1-.9v-.1a332 332 0 00-.3-3.9c-.4-6.4-.4-10.2-.4-14.1V568.6l-32.3-50.3c-4-6.2-6.1-13.3-6.1-20.6V433c0-22.3 8.6-43.6 22.1-57.7v-75.7l11.1-19.2c45.7-17 98.4-33.6 157.5-47.3 64.3-14.9 123.5-23.3 175.4-27.9l38.1 5.9 16.9 6 3.5 8.2 18.5 25.1v66.2c17.1 11.5 28.2 31.9 28.2 60.5v52.4c0 24.6 4.2 49.1 12.3 72.4l8.8 25c7.4 20.7 11.1 42.6 11.1 64.6z" class="st0"/><path d="M453.4 205.2l38.1 5.9 17 6 3.5 8.2 18.5 25.1v66.2c17.1 11.5 28.2 31.9 28.2 60.5v52.4c0 24.6 4.1 49.1 12.3 72.4l8.8 25c7.3 20.8 11 42.6 11 64.6v819.7l-7 38.1v81.8c0 6.9-1.8 13.8-5.1 19.8l-5 9-.4.8s-6.4 32.9-38.5 47.7c-7.1 4-49.7 9.8-63.9 10.4-6.6.3-13.3.4-19.9.4-46.9 0-93.9-6.3-126.4-11.1l-9-5.1c-2.8-.5-5.6-.9-8.5-1.4-13.6-2.3-27.2-5-40.8-8l-6 2.6c-87.4-19.5-74.1-18.8-106.8-29.2-17.2-5.4-31.7-15.2-41.3-28.9-3.8-5.5-6.9-11.6-9-18.3-7.6-24.1-5.8-53.2 8.4-74l8.6-12.6s0-.1.1-.1c.2-.3.4-.5.5-.8 1.6-2.4 2.8-4.1 3.6-5.3 1.8-2.7 2-3 2-3 0-.3 0-.6-.1-.9v-.1a332 332 0 00-.3-3.9c-.4-6.4-.4-10.2-.4-14.1V568.6l-32.3-50.3c-3.9-6.2-6.1-13.3-6.1-20.7v-64.7c0-22.3 8.6-43.6 22.1-57.7v-75.7l11.1-19.2c45.7-17 98.4-33.6 157.5-47.3 64.4-14.8 123.6-23.2 175.5-27.8m0-3c-.1 0-.2 0-.3 0a1291.4 1291.4 0 00-175.8 27.9c-53.4 12.4-106.5 28.3-157.9 47.4-.7.3-1.2.7-1.6 1.4-.3.6-7.3 12.8-11 19.2-.3.5-.4 1-.4 1.5v74.5c-13.9 15.1-22.1 37-22.1 58.9v64.6a42 42 0 006.5 22.3l31.8 49.5v835.5c0 3.8 0 7.8.4 14.2 0 0 0 0 0 .1.1.9.1 1.9.2 2.9l.1 1c-.3.4-.8 1.1-1.4 2.1l-.6.9c-.8 1.1-1.8 2.6-3 4.4-.2.3-.4.6-.6.9l-.1.1-8.6 12.6c-13.9 20.3-17.2 49.7-8.8 76.6 2.2 6.8 5.3 13.3 9.4 19.1 9.7 13.8 24.5 24.2 42.8 30 8.2 2.6 13.6 4.5 18.3 6.2 14.1 5.1 23.4 8.4 88.7 23 .2 0 .4.1.7.1.4 0 .8-.1 1.2-.2l5.1-2.2c13.7 3 27.2 5.6 40 7.8 2.7.4 5.3.9 8 1.3l8.5 4.8c.3.2.7.3 1.1.4 37.4 5.5 81.7 11.1 126.8 11.1 6.9 0 13.6-.1 20-.4 13.6-.6 57-6.3 65.2-10.7 9.5-4.4 22.9-13.3 32.5-30.6 5.1-9.1 7-16.7 7.4-18.7l.2-.4 5-9c3.6-6.5 5.5-13.8 5.5-21.3v-81.5l7-37.8c0-.2 0-.4 0-.5V591.5c0-22.4-3.7-44.5-11.1-65.6l-8.8-25c-8-23-12.1-47-12.1-71.4v-52.4c0-27.1-10-49.1-28.2-62v-64.8a3 3 0 00-.6-1.8l-18.3-24.8-3.4-7.9c-.3-.8-1-1.4-1.8-1.6l-17-6c-.2-.1-.4-.1-.5-.1l-38.1-5.9s-.1 0-.3 0z" class="st1"/><path d="M516.2 1614.5c-.2 0-.4-.2-.5-.4 0-.3.1-.5.4-.6 6.5-1.1 12.6-3 18.3-5.7.3-.1.5 0 .7.2.1.3 0 .5-.2.7-5.8 2.7-12.1 4.6-18.7 5.8zM530.6 316.7c-.1 0-.2 0-.3-.1a60.1 60.1 0 00-27.5-9.7s-3.8-.4-9.7-1c-.5-.1-1-.1-1.5-.2l-5.2-.5c-.6-.1-1.2-.1-1.8-.2-9-.8-17.5-1.4-25-1.8-.3 0-.5-.3-.5-.5 0-.3.2-.5.5-.5 7.6.4 16 1 25.1 1.8.6 0 1.2.1 1.8.2l5.1.5c.6.1 1.1.1 1.6.2 5.9.6 9.7 1 9.7 1 10.2 1 19.8 4.4 27.9 9.9.2.2.3.5.1.7 0 .1-.2.2-.3.2zM298.1 1490.6c-.9 0-1.8-.1-2.7-.2-16.8-2-30.4-22.7-30.4-46.1 0-13.7 4.7-26.1 12.7-33.3 5.2-4.7 11.4-6.9 17.8-6.3 17.1 1.6 30.9 22.4 30.9 46.2 0 13.9-4.8 26.4-12.9 33.6-4.5 4-9.8 6.1-15.4 6.1zm-4.7-85.3c-5.5 0-10.7 2.1-15.1 6.2-7.8 7.1-12.4 19.3-12.4 32.8 0 23 13.3 43.4 29.7 45.4 6.3.8 12.4-1.2 17.5-5.8 7.9-7 12.7-19.4 12.7-33 0-23.5-13.6-43.8-30.2-45.4-.9-.2-1.6-.2-2.2-.2zM518.8 961.5c-.1 0-.1 0-.2 0-4-.1-7.2-5.1-7.2-11V840.1c0-3.6 1.2-6.8 3.2-8.7 1.2-1.1 2.6-1.6 4-1.5 3.9.3 7.1 5.3 7.1 11.2v110c0 3.6-1.2 6.8-3.2 8.8-1 1.1-2.3 1.6-3.7 1.6zm-.1-1c1.2 0 2.3-.4 3.3-1.4 1.8-1.7 2.9-4.7 2.9-8v-110c0-5.4-2.8-9.9-6.2-10.2-1.1-.1-2.3.3-3.3 1.3-1.8 1.7-2.9 4.6-2.9 7.9v110.5c0 5.3 2.8 9.8 6.2 9.9z" class="st1"/><path d="M519.1 957.1s-.1 0 0 0c-1.8-.1-3.2-2.1-3.2-4.6 0-1.5.5-2.9 1.4-3.7.5-.5 1.2-.8 1.8-.7 1.7.1 3.1 2.1 3.1 4.6 0 1.5-.5 2.9-1.3 3.7-.6.4-1.2.7-1.8.7zm-.1-8.1c-.5 0-.8.2-1 .5-.7.6-1 1.7-1 3 0 1.9 1 3.6 2.2 3.6.5 0 .8-.2 1.1-.5.7-.6 1-1.7 1-3-.1-1.9-1.1-3.6-2.3-3.6zM519.7 727.1c-2.2 0-4.5-1.2-6.2-3.2-2.1-2.5-3.5-5.3-3.5-11.4v-69.4c0-6.2 2-10.6 5.5-12.3 1.1-.5 2.3-.8 3.5-.8 1.7 0 3.3.6 4.3 1.5 2.3 2.1 3.5 6.7 3.5 13.3v69.4c0 6.4-1.2 10.2-3.8 11.9-1 .7-2.1 1-3.3 1zm-.7-96c-1 0-2.1.2-3 .7-3.2 1.5-5 5.6-5 11.4v69.4c0 5.7 1.3 8.4 3.3 10.7 1.5 1.8 3.5 2.8 5.4 2.8 1 0 1.9-.3 2.7-.8 2.2-1.5 3.3-5.1 3.3-11.1v-69.4c0-6.2-1.1-10.6-3.2-12.5-.7-.8-2-1.2-3.5-1.2z" class="st1"/><path d="M517.1 727.1c-2.2 0-4.5-1.2-6.2-3.2-2.1-2.5-3.5-5.3-3.5-11.4v-69.4c0-6.2 2-10.6 5.5-12.3 1.1-.5 2.3-.8 3.5-.8v1c-1 0-2.1.2-3 .7-3.2 1.5-5 5.6-5 11.4v69.5c0 5.7 1.3 8.4 3.3 10.7 1.5 1.8 3.5 2.8 5.4 2.8v1zM524.8 721.9h1v119.2h-1z" class="st1"/><path d="M524.8 532h1v419.3h-1z" class="st1"/><path d="M523.8 531h3v421.3h-3zM474.8 1516.7l-.4-.3c17.3-21.5 17.2-48 17.2-63.9 0-1.4 0-2.7 0-3.9V488.7h.5v959.9c0 1.2 0 2.5 0 3.9 0 15.9.1 42.6-17.3 64.2zM532.5 1471.3h-1v-461.5c0-20.1 1.1-27.4 3.3-34.7l6.8-22.2c2.8-9.2 4.2-18.8 4.2-28.4v-344h1v344c0 9.7-1.4 19.4-4.3 28.7l-6.8 22.2c-2.2 7.1-3.3 14.4-3.3 34.4l.1 461.5z" class="st1"/><path d="M496 1616.3h13.2v1H496z" class="st1" transform="rotate(-6.066 502.301 1616.913)"/><path d="M534.9 1608.7l-.5-.9a62.9 62.9 0 0031.7-54.7v-85.8h1v85.8c0 23-12.4 44.3-32.2 55.6z" class="st1"/><path d="M516.4 1614.4l-.4-.9c23.1-8.8 38.6-33.4 38.6-61.2v-21.8c0-15.1 2.1-30.2 6.3-44.8l.8-2.9 12.2-42.8c3.7-13.1 5.6-26.6 5.6-40.3V581.5c0-12.8-2.2-25.4-6.5-37.4L547.5 473c-1.3-3.5-2.5-6.9-3.7-10.3l-.5-1.4a98.4 98.4 0 01-5.8-33.5v-55.4c0-18.7-5.1-35-14.7-47.1a53.1 53.1 0 00-36.4-20c-.6-.1-1.2-.1-1.8-.2l.1-1c.6.1 1.2.1 1.8.2a54 54 0 0137.1 20.3c9.8 12.2 14.9 28.7 14.9 47.7v55.4c0 11.3 1.9 22.5 5.8 33.2l.5 1.4c1.2 3.4 2.4 6.8 3.7 10.3l25.5 71.1a111 111 0 016.6 37.8v818.2c0 13.7-1.9 27.4-5.7 40.5l-13 45.7c-4.1 14.5-6.2 29.4-6.2 44.5v21.8c-.1 28.3-15.9 53.3-39.3 62.2zM496.1 1618.4l-.1-1 7.2-.8c2-.2 4-.5 5.9-1l.2 1c-1.9.4-4 .8-6 1l-7.2.8z" class="st1"/><path d="M533.3 1488c-.1 0-.2 0-.2-.1-.2-.1-.3-.4-.2-.7l12.6-25.5c9.6-19.5 14.7-41.2 14.7-62.9 0-188.3 0-819.8 0-819.8 0-17.7-4.9-35-14.1-50.1l-41.9-68.3c-4.3-7-6.9-14.7-6.9-31.4v-62.6c0-32-15.5-58.1-37.7-63.4-.3-.1-.4-.3-.4-.6.1-.3.3-.4.6-.4 22.6 5.4 38.4 31.9 38.4 64.4v62.7c0 16.5 2.6 24 6.8 30.9l41.9 68.3a96.33 96.33 0 0114.3 50.6s0 631.5 0 819.8c0 21.9-5.1 43.8-14.8 63.4l-12.6 25.5c-.2.1-.3.2-.5.2zM454.1 1620.6c-2.3 0-4.7 0-7.2-.1-2.5 0-5.1-.1-7.8-.1v-1c2.6 0 5.2 0 7.8.1 10.3.2 20.1.3 27.8-2.6 14.4-5.4 21.5-17.5 24.1-22.1.2-.3.4-.6.5-.9 4.6-7.6 7.3-16.4 7.8-25.4l1.3-18.8c.8-7.1 2.2-14.1 4.3-20.9 1-3.4 2.4-7.2 4-11.1 3.8-9.3 8.8-18.7 14.6-27.8l.8.5c-5.8 9-10.7 18.3-14.5 27.6-1.6 3.9-3 7.7-4 11-2.1 6.7-3.5 13.7-4.3 20.7l-1.3 18.8c-.6 9.1-3.3 18.1-8 25.8-.1.2-.3.5-.5.8-2.7 4.6-9.9 16.9-24.6 22.5-5.8 2.5-13 3-20.8 3zM548.5 472.8h-1v-101c0-18.2-5.6-34.2-16.2-46.2-10-11.4-24.2-18.4-39.8-19.9l.1-1c15.9 1.4 30.2 8.6 40.4 20.2 10.8 12.2 16.4 28.4 16.4 46.9l.1 101z" class="st1"/><path d="M531.6 1471.6c-2.1 0-4.1-1.1-5.1-3l-6.3-10.8.9-.5 6.3 10.8c.9 1.6 2.6 2.5 4.5 2.5 1.9-.1 3.5-1.1 4.3-2.8l4.3-8.6c9.2-18.7 14.1-39.6 14.1-60.4 0-185.3 0-798.2 0-817.7-1.9-.1-8.5-.3-8.5-.3-1.6-.1-3.3 0-4.9.1l-7.5.5-.1-1 7.5-.5c1.7-.1 3.4-.2 5-.1 0 0 8.8.4 8.9.4h.5v.5s0 629.9 0 818.2c0 21-4.9 42-14.2 60.8l-4.3 8.6c-1 2-2.9 3.2-5.1 3.3-.1 0-.2 0-.3 0zm2.2-892.5v-.6c0-.6.5-14 2.6-20.4 1.3-4.1 2.9-7.9 4.7-11.9.8-1.7 2.4-2.7 4.3-2.6 1.9.1 3.4 1.2 4.1 2.9 3.9 10.1 5.9 20.8 6 31.6v.5l-9.5-.4c-1.6-.1-3.3 0-4.9.1l-7.3.8zm11.4-34.4c-1.4 0-2.6.8-3.2 2-1.8 3.9-3.3 7.7-4.6 11.7-1.8 5.5-2.4 16.9-2.5 19.5l6.2-.5c1.7-.1 3.4-.2 5-.1l8.4.3c-.2-10.6-2.1-20.9-5.9-30.8-.5-1.4-1.7-2.2-3.2-2.3-.1.2-.1.2-.2.2z" class="st1"/><path d="M525.1 621.9c-.4-.1-.5-.3-.5-.6l6.7-32c4.9-23.4 6.2-34.2-11.5-66.7l-32-52.1c-11.2-18.2-17-39.1-17-60.4v-30c0-32.1-5.5-41.9-10.9-47.3-3.5-3.5-7.6-6.2-12.2-8.1-.3-.1-.4-.4-.3-.7.1-.3.4-.4.7-.3 4.7 1.9 9 4.7 12.6 8.3 8 7.9 11.2 21.9 11.2 48v30c0 21.1 5.8 41.9 16.9 59.9l32 52.2c17.9 32.9 16.6 43.8 11.7 67.4l-6.7 32c-.2.2-.4.4-.7.4zM446.1 1602.2c-.1 0-.2 0-.3 0-119.3-1.4-263.8-33.6-334.5-64-.3-.1-.4-.4-.3-.7.1-.3.4-.4.7-.3 70.7 30.4 215 62.6 334.2 63.9.1 0 .2 0 .3 0 17 0 33.3-15.7 35.7-34.5l3.6-28c2.5-19.7 10.1-38.5 21.8-54.5l13-17.8V992.5c0-1.4.1-2.7.3-4.1.2-1.2.4-2.8.7-4.6 1.4-8.4 3.6-22.4 3.6-32.7 0-.3.2-.5.5-.5s.5.2.5.5c0 10.4-2.3 24.5-3.6 32.9-.3 1.8-.5 3.4-.7 4.6-.2 1.3-.3 2.6-.3 3.9v474.1l-13.2 18.1a117.48 117.48 0 00-21.6 54l-3.6 28c-2.6 19.4-19.3 35.5-36.8 35.5z" class="st1"/><path d="M446.1 1603.2h-.3c-119.6-1.4-264.2-33.7-334.9-64.1-.3-.1-.6-.4-.8-.7-.2-.4-.2-.8-.1-1.2.3-.8 1.1-1.2 2-.9 70.7 30.4 214.8 62.6 333.9 63.8h.3c16.5 0 32.4-15.4 34.7-33.6l3.6-28c2.5-19.7 10.1-38.7 22-55l12.8-17.5V992.5c0-1.4.1-2.8.3-4.2.1-.6.2-1.2.3-1.9.1-.8.3-1.8.4-2.8 1.5-9.2 3.6-22.7 3.6-32.5 0-.9.6-1.5 1.5-1.5s1.5.6 1.5 1.5c0 9.8-2 22.8-3.4 31.4l-.3 1.6c-.2 1-.3 1.9-.4 2.7-.1.7-.2 1.3-.3 1.9-.2 1.2-.3 2.5-.3 3.7v474.4l-13.4 18.4a116.86 116.86 0 00-21.4 53.5l-3.6 28c-2.6 20.2-19.6 36.5-37.7 36.5zm-334.5-65.9s.1 0 0 0c.1 0 0 0 0 0z" class="st1"/><path d="M217.5 1555.5c-.2 0-.3 0-.5-.1-27.1-6.7-54.3-14.7-80.7-23.8-4.1-1.4-7.1-6.8-7.1-12.7v-3.1c0-3.8 1.3-7.1 3.5-9 1.4-1.2 3.1-1.7 4.8-1.4l79.9 13.1c1.5.2 2.6 2 2.6 3.9v29.7c0 1-.3 1.8-.8 2.4-.6.7-1.1 1-1.7 1zm-81-49c-1.1 0-2.2.4-3.2 1.2-1.9 1.7-3.1 4.7-3.1 8.2v3.1c0 5.4 2.8 10.5 6.4 11.7 26.4 9.1 53.5 17.1 80.6 23.8.4.1.8 0 1.1-.4.4-.4.6-1.1.6-1.8v-29.7c0-1.4-.8-2.8-1.8-3l-79.9-13.1c-.2 0-.5 0-.7 0zM440.8 1584.7c-31.2-.3-62.4-2.1-92.8-5.2-.8-.1-1.6-.6-2.1-1.4s-.8-1.8-.8-2.8v-31.9c0-1.2.4-2.3 1.2-2.9.5-.4 1.2-.6 1.8-.5l91.7 15c5.4.9 9.7 7.5 9.7 14.7v3.5c0 3.8-1.2 7.2-3.4 9.4a8.04 8.04 0 01-5.3 2.1zm-93.1-43.8c-.3 0-.6.1-.8.3-.5.4-.8 1.2-.8 2.1v31.9c0 .8.2 1.6.7 2.3.4.6.9.9 1.4 1 30.4 3.2 61.6 4.9 92.7 5.2 0 0 0 0 .1 0 1.7 0 3.3-.7 4.5-2 2-2 3.1-5.1 3.1-8.7v-3.5c0-6.7-4-12.9-8.9-13.7l-91.7-15c-.2.1-.3.1-.3.1zM158.2 542.4c-13.7 0-27.2-.4-40.6-1.1-11.3-.6-19.8-13.6-19.8-30.3 0-.2.1-20.7-1.2-37.7 0-.3.2-.5.5-.5s.5.2.5.5c1.4 17.1 1.2 37.6 1.2 37.8 0 16.1 8.1 28.7 18.9 29.3 49.1 2.6 100.3.4 152-6.5 54.1-7.2 109.9-19.7 166-37.2 13.1-4.1 23-20.7 23-38.6v-42.3c0-.3.2-.5.5-.5s.5.2.5.5 2.6 26.9 9.3 40.6c2.2 4.5 4.3 8.7 6.2 12.4 3.7 7.2 6.7 13 7.5 16.6.1.3-.1.5-.4.6s-.5-.1-.6-.4c-.8-3.6-3.7-9.2-7.4-16.4-1.9-3.7-4-7.9-6.2-12.4-4.4-9.1-7.1-23.9-8.4-33v34.3c0 18.3-10.2 35.3-23.7 39.6-56.2 17.5-112.1 30-166.2 37.2-37.7 5-75.1 7.5-111.6 7.5z" class="st1"/><path d="M166.1 1531.7c-.2 0-.4 0-.7-.1l-27.2-4.6c-2.9-.5-5.1-4.1-5.1-8.2v-1.6c0-2.4.8-4.6 2.2-5.7.9-.8 2-1.1 3.1-.9l27.2 4.5c2.9.5 5.2 4.2 5.2 8.3v1.6c0 2.4-.8 4.6-2.2 5.8-.8.5-1.6.9-2.5.9zm-28.4-20.2c-.6 0-1.3.2-1.8.7-1.2 1-1.9 2.8-1.9 5v1.6c0 3.6 1.9 6.8 4.3 7.2l27.2 4.6c.8.1 1.6-.1 2.3-.7 1.2-1 1.9-2.9 1.9-5v-1.6c0-3.6-2-6.9-4.4-7.3l-27.2-4.5c-.1 0-.2 0-.4 0z" class="st1"/><path d="M168.5 1527.8l-22.8-3.9-4.6-.8c-.4-.1-.7-.3-1.1-.7a7 7 0 01-1.5-4.5v-1.6c0-2.2.9-3.6 1.6-3.6l17.3 2.9 10 1.6c.3 0 .6.2 1 .6.8.8 1.6 2.4 1.6 4.6v1.6c.1 2.4-.8 3.8-1.5 3.8zm-28.4-14.5c-.1 0-1 .9-1 3.1v1.6c0 1.9.7 3.4 1.4 4.1.3.3.5.5.8.5l.6.1 26.7 4.5c.2 0 1.2-1 1.2-3.1v-1.6c0-2-.8-3.6-1.5-4.3-.3-.3-.5-.4-.7-.5l-27.5-4.4z" class="st1"/><path d="M143.8 1520.2h-.1c-.6-.1-1.2-.9-1.2-1.8 0-.5.2-1 .5-1.3.2-.2.5-.3.7-.2.6.1 1.2.9 1.2 1.8 0 .5-.2 1-.5 1.3-.2.1-.4.2-.6.2zm-.2-2.8c-.1 0-.2 0-.3.1-.2.2-.3.5-.3.9 0 .7.4 1.2.7 1.3.1 0 .2 0 .3-.1.2-.2.3-.5.3-.9.1-.6-.2-1.2-.7-1.3.1 0 0 0 0 0zM149.1 1521.1h-.1c-.6-.1-1.2-.9-1.2-1.8 0-.5.2-1 .5-1.3.2-.2.5-.3.7-.2.6.1 1.2.9 1.2 1.8 0 .5-.2 1-.5 1.3-.2.1-.4.2-.6.2zm-.2-2.8c-.1 0-.2 0-.3.1-.2.2-.3.5-.3.9 0 .6.3 1.2.7 1.3.1 0 .2 0 .3-.1.2-.2.3-.5.3-.9.1-.6-.3-1.2-.7-1.3zM154.3 1522h-.1c-.6-.1-1.2-.9-1.2-1.8 0-.5.2-1 .5-1.3.2-.2.5-.3.7-.2.6.1 1.2.9 1.2 1.8 0 .5-.2 1-.5 1.3-.1.1-.3.2-.6.2zm-.2-2.8c-.1 0-.2 0-.3.1-.2.2-.3.5-.3.9 0 .6.3 1.2.7 1.3.1 0 .2 0 .3-.1.2-.2.3-.5.3-.9.1-.7-.2-1.3-.7-1.3.1 0 .1 0 0 0zM159.6 1522.8h-.1c-.7-.1-1.2-.9-1.2-1.8 0-.5.2-1 .5-1.3.2-.2.5-.3.7-.2.7.1 1.2.9 1.2 1.8 0 .5-.2 1-.5 1.3-.2.2-.4.2-.6.2zm-.2-2.8c-.1 0-.2 0-.3.1-.2.2-.3.5-.3.9 0 .7.4 1.2.7 1.3.1 0 .2 0 .3-.1.2-.2.3-.5.3-.9.1-.6-.2-1.2-.7-1.3.1.1 0 0 0 0zM164.9 1523.7h-.1c-.7-.1-1.2-.9-1.2-1.8 0-.5.2-1 .5-1.3.2-.2.5-.3.7-.2.7.1 1.2.9 1.2 1.8 0 .5-.2 1-.5 1.3-.2.2-.4.2-.6.2zm-.2-2.8c-.1 0-.2 0-.3.1-.2.2-.3.5-.3.9 0 .6.3 1.2.7 1.3.1 0 .2 0 .3-.1.2-.2.3-.5.3-.9.1-.7-.3-1.2-.7-1.3.1 0 0 0 0 0zM141.2 1516h-.1c-.6-.1-1.2-.9-1.2-1.8 0-.5.2-.9.4-1.2l.1-.1 1.4.2.1.1c.3.3.4.8.4 1.3s-.2 1-.5 1.3c-.2.1-.4.2-.6.2zm-.6-2.6c-.1.2-.2.4-.2.7 0 .6.3 1.2.7 1.3.1 0 .2 0 .3-.1.2-.2.3-.5.3-.9 0-.3-.1-.7-.3-.9l-.8-.1zM146.5 1516.8s-.1 0-.2 0c-.6-.1-1.1-.9-1.1-1.8 0-.5.2-.9.4-1.2l.1-.1 1.4.2v.1c.3.3.4.8.4 1.3s-.2 1-.5 1.3c-.1.2-.3.2-.5.2zm-.6-2.5c-.1.2-.2.5-.2.7 0 .6.3 1.2.7 1.3.1 0 .2 0 .3-.1.2-.2.3-.5.3-.9 0-.3-.1-.7-.2-.9l-.9-.1zM151.7 1517.7h-.1c-.7-.1-1.2-.9-1.2-1.8 0-.5.2-.9.4-1.2l.1-.1 1.4.2.1.1c.3.3.4.8.4 1.3s-.2 1-.5 1.3c-.2.1-.4.2-.6.2zm-.6-2.5c-.1.2-.2.5-.2.8 0 .6.3 1.2.7 1.3.1 0 .2 0 .3-.1.2-.2.3-.5.3-.9 0-.3-.1-.7-.3-.9l-.8-.2zM157 1518.6c-.1 0-.1 0-.2 0-.6-.1-1.2-.9-1.2-1.8 0-.5.2-1 .5-1.2l.1-.1 1.4.2.1.1c.3.3.4.8.4 1.3s-.2 1-.5 1.3c-.2.1-.4.2-.6.2zm-.6-2.6c-.1.2-.2.5-.2.8 0 .7.4 1.2.7 1.3.1 0 .2 0 .3-.1.2-.2.3-.5.3-.9 0-.3-.1-.7-.3-.9l-.8-.2zM162.3 1519.5h-.1c-.7-.1-1.2-.9-1.2-1.8 0-.5.2-1 .5-1.2l.1-.1 1.4.2.1.1c.3.3.4.8.4 1.3s-.2 1-.5 1.3c-.3.1-.5.2-.7.2zm-.6-2.6c-.1.2-.2.5-.2.8 0 .7.4 1.2.7 1.3.1 0 .2 0 .3-.1.2-.2.3-.5.3-.9 0-.3-.1-.7-.3-.9l-.8-.2zM167.6 1520.4c-.1 0-.1 0-.2 0-.7-.1-1.2-.9-1.2-1.8 0-.5.2-1 .5-1.2l.1-.1.7.1c.3 0 .6.2.9.5h.1v.2c.1.3.1.5.1.8 0 .5-.2 1-.5 1.3-.1.1-.3.2-.5.2zm-.6-2.6c-.1.2-.2.5-.2.8 0 .6.3 1.2.8 1.3.1 0 .2 0 .3-.1.2-.2.3-.5.3-.9 0-.2 0-.4-.1-.6-.3-.3-.5-.4-.7-.4l-.4-.1zM141.8 1523.3l-.7-.1c-.4-.1-.7-.3-1.1-.7l-.1-.1c-.1-.2-.1-.4-.1-.6 0-.5.2-1 .5-1.3.2-.2.5-.3.7-.2.6.1 1.1.9 1.1 1.8 0 .5-.1.9-.4 1.1l.1.1zm-1.3-1.1c.2.3.5.5.7.5l.4.1c.1-.2.2-.4.2-.7 0-.7-.4-1.2-.7-1.3-.1 0-.2 0-.3.1-.2.2-.3.5-.3.9-.1.1-.1.3 0 .4zM147.1 1524.2h-.1l-1.4-.2-.1-.1c-.2-.3-.4-.8-.4-1.2 0-.5.2-1 .5-1.3.2-.2.5-.3.7-.2.6.1 1.1.9 1.1 1.8.1.4 0 .8-.3 1.2zm-1.2-.7l1 .2c.1-.2.2-.4.2-.7 0-.6-.3-1.2-.7-1.3-.1 0-.2 0-.3.1-.2.2-.3.5-.3.9-.1.3-.1.6.1.8zM152.3 1525.1l-1.5-.3-.1-.1c-.2-.3-.4-.8-.4-1.2 0-.5.2-1 .5-1.3.2-.2.5-.3.7-.2.6.1 1.2.9 1.2 1.8 0 .5-.1.9-.4 1.3zm-1.2-.7l1 .2c.1-.2.2-.4.2-.7 0-.7-.4-1.2-.7-1.3-.1 0-.2 0-.3.1-.2.2-.3.5-.3.9-.1.2 0 .5.1.8zM157.6 1526l-1.5-.2-.1-.1c-.2-.3-.4-.8-.4-1.3s.2-1 .5-1.3c.2-.2.5-.3.7-.2.6.1 1.2.9 1.2 1.8.1.5-.1.9-.4 1.3zm-1.2-.7l1 .2c.1-.2.2-.4.2-.7 0-.7-.4-1.2-.7-1.3-.1 0-.2 0-.3.1-.2.2-.3.5-.3.9-.1.2 0 .5.1.8zM162.9 1526.9l-1.4-.2-.1-.1c-.3-.3-.4-.8-.4-1.3s.2-1 .5-1.3c.2-.2.5-.3.7-.2.6.1 1.2.9 1.2 1.8 0 .5-.2.9-.5 1.3zm-1.2-.7l1 .2c.1-.2.2-.4.2-.7 0-.6-.3-1.2-.7-1.3-.1 0-.2 0-.3.1-.2.2-.3.5-.3.9-.1.2 0 .5.1.8zM168.2 1527.8l-1.4-.2-.1-.1c-.3-.3-.4-.8-.4-1.3s.2-1 .5-1.3c.2-.2.5-.3.8-.2.7.1 1.2.9 1.2 1.8-.1.5-.3.9-.6 1.3zm-1.2-.7l1 .2c.1-.2.2-.4.2-.7 0-.6-.3-1.2-.8-1.3-.1 0-.2 0-.3.1-.2.2-.3.5-.3.9 0 .2.1.5.2.8zM442 1579.2c-.3 0-.5 0-.8-.1l-31.5-5.4c-3.2-.5-5.9-4.5-5.9-8.8v-1.7c0-2.5.9-4.7 2.4-5.9a4.2 4.2 0 013.7-1l31.5 5.2c3.3.5 6 4.5 6 8.9v1.7c0 2.5-.9 4.7-2.4 6-.9.8-1.9 1.1-3 1.1zm-32.8-21.9c-.8 0-1.6.3-2.3.9-1.3 1.1-2 3-2 5.2v1.7c0 3.8 2.3 7.3 5 7.8l31.5 5.4c1.1.2 2.1-.1 2.9-.8 1.3-1.1 2-3 2-5.2v-1.7c0-3.9-2.3-7.4-5.1-7.9l-31.5-5.2c-.1-.2-.3-.2-.5-.2z" class="st1"/><path d="M444.5 1574.9c-.1 0-.2 0-.3 0l-1.4-.2-30.1-5.1c-.3 0-.5-.1-.8-.3-1.3-.7-2.5-2.8-2.5-5.5v-1.7c0-2.4 1.1-4 2.2-4 .1 0 .2 0 .2 0l31.5 5.2c.2 0 .4.1.6.2 1.4.7 2.8 2.9 2.8 5.6v1.7c0 1.3-.3 2.4-.9 3.2-.3.6-.7.9-1.3.9zm-32.8-16.3c-.8 0-1.7 1.4-1.7 3.5v1.7c0 2.4 1.2 4.4 2.3 5 .2.1.4.2.6.2l.5.1 31 5.3c.4.1.8-.1 1.2-.6.5-.7.8-1.7.8-2.9v-1.7c0-2.5-1.3-4.6-2.5-5.2-.2-.1-.3-.1-.5-.2l-31.5-5.2c-.1 0-.2 0-.2 0z" class="st1"/><path d="M440.4 1570.3c-.1 0-.1 0-.2 0-.7-.1-1.3-1-1.3-1.9 0-.5.2-1 .5-1.3.2-.2.6-.3.9-.2.7.1 1.3 1 1.3 1.9 0 .5-.2 1-.5 1.3-.2.1-.4.2-.7.2zm-.3-3c-.1 0-.3 0-.4.1-.2.2-.4.5-.4.9 0 .7.4 1.3.9 1.4.2 0 .3 0 .5-.1.2-.2.4-.5.4-.9 0-.7-.4-1.3-1-1.4.1 0 .1 0 0 0zM434.3 1569.3c-.1 0-.1 0-.2 0-.7-.1-1.3-1-1.3-1.9 0-.5.2-1 .5-1.3.2-.2.6-.3.9-.2.7.1 1.3 1 1.3 1.9 0 .5-.2 1-.5 1.3-.2.1-.5.2-.7.2zm-.3-3c-.1 0-.3 0-.4.1-.2.2-.4.5-.4.9 0 .7.4 1.3.9 1.4.2 0 .3 0 .5-.1.2-.2.4-.5.4-.9 0-.7-.4-1.4-1-1.4.1 0 0 0 0 0zM428.2 1568.2c-.1 0-.1 0-.2 0-.7-.1-1.3-1-1.3-1.9 0-.5.2-1 .5-1.3.2-.2.6-.3.9-.2.7.1 1.3 1 1.3 1.9 0 .5-.2 1-.5 1.3-.3.1-.5.2-.7.2zm-.3-3c-.1 0-.3 0-.4.1-.2.2-.3.5-.3.9 0 .7.4 1.3.9 1.4.2 0 .4-.1.5-.1.2-.2.4-.5.4-.9-.1-.6-.5-1.3-1.1-1.4.1 0 0 0 0 0zM422.1 1567.2c-.1 0-.1 0-.2 0-.7-.1-1.3-1-1.3-1.9 0-.5.2-1 .5-1.3.2-.2.6-.3.9-.2.7.1 1.3 1 1.3 1.9 0 .5-.2 1-.5 1.3-.3.1-.5.2-.7.2zm-.3-3c-.1 0-.3 0-.4.1-.2.2-.3.5-.3.9 0 .7.4 1.3.9 1.4.2 0 .4-.1.4-.1.2-.2.4-.5.4-.9 0-.6-.4-1.3-1-1.4.1 0 0 0 0 0zM416 1566.2c-.1 0-.1 0-.2 0-.7-.1-1.3-1-1.3-1.9 0-.5.2-1 .5-1.3.2-.2.5-.3.8-.2.7.1 1.3 1 1.3 1.9 0 .5-.2 1-.5 1.3-.1.1-.4.2-.6.2zm-.3-3c-.1 0-.2 0-.4.1-.2.2-.3.5-.3.9 0 .7.4 1.3.9 1.4.2 0 .3 0 .4-.1.2-.2.4-.5.4-.9 0-.7-.4-1.3-1-1.4.1 0 .1 0 0 0zM443.5 1566.7c-.1 0-.1 0-.2 0-.7-.1-1.3-1-1.3-1.9 0-.6.3-1.2.7-1.4l.3-.1.1.1.4.1c.2 0 .3.1.5.2l.2.1v.1c.3.4.6.9.6 1.5 0 .5-.2 1-.5 1.3-.3-.1-.6 0-.8 0zm-.5-2.9c-.3.1-.5.5-.5 1 0 .7.4 1.3.9 1.4.2 0 .4-.1.5-.1.2-.2.4-.5.4-.9s-.2-.9-.4-1.2c-.2-.1-.3-.1-.4-.2h-.5zM437.3 1565.7c-.1 0-.1 0-.2 0-.7-.1-1.3-1-1.3-1.9 0-.7.3-1.3.8-1.5h.1l1 .2c.5.3.8 1 .8 1.7 0 .5-.2 1-.5 1.3-.2.1-.4.2-.7.2zm-.5-2.9c-.3.1-.5.5-.5 1 0 .7.4 1.3.9 1.4.2 0 .3 0 .5-.1.2-.2.3-.5.3-.9 0-.5-.2-1-.5-1.2l-.7-.2zM431.2 1564.7c-.1 0-.1 0-.2 0-.7-.1-1.3-1-1.3-1.9 0-.7.3-1.3.8-1.5h.1l1 .2c.5.3.8 1 .8 1.7 0 .5-.2 1-.5 1.3-.2.1-.4.2-.7.2zm-.5-2.9c-.3.1-.5.5-.5 1 0 .7.4 1.3.9 1.4.2 0 .3 0 .5-.1.2-.2.3-.5.3-.9 0-.5-.2-1-.5-1.2l-.7-.2zM425.1 1563.6c-.1 0-.1 0-.2 0-.7-.1-1.3-1-1.3-1.9 0-.7.3-1.3.8-1.5h.1l1 .2c.5.3.8 1 .8 1.7 0 .5-.2 1-.5 1.3-.2.2-.4.2-.7.2zm-.5-2.9c-.3.1-.5.5-.5 1 0 .7.4 1.3.9 1.4.2 0 .4-.1.4-.1.2-.2.4-.5.4-.9 0-.5-.2-1-.5-1.2l-.7-.2zM419 1562.6c-.1 0-.1 0-.2 0-.7-.1-1.3-1-1.3-1.9 0-.7.3-1.3.8-1.5h.1l1 .2v.1c.5.4.7 1 .7 1.6 0 .5-.2 1-.5 1.3-.1.1-.3.2-.6.2zm-.5-2.9c-.3.1-.4.5-.4 1 0 .7.4 1.3.9 1.4.2 0 .3 0 .5-.1.2-.2.3-.5.3-.9 0-.5-.2-1-.5-1.2l-.8-.2zM413 1561.6c-.1 0-.1 0-.2 0-.7-.1-1.3-1-1.3-1.9 0-.7.3-1.2.8-1.5h.1l1.1.2h.1c.4.4.7 1 .7 1.6 0 .5-.2 1-.5 1.3-.4.2-.6.3-.8.3zm-.6-2.9c-.3.2-.4.5-.4 1 0 .7.4 1.3.9 1.4.2 0 .4-.1.5-.1.2-.2.3-.5.3-.9 0-.5-.2-.9-.5-1.2l-.8-.2zM443.9 1574.8l-.9-.2h-.1l-.1-.1c-.4-.3-.7-1-.7-1.6 0-.5.2-1 .5-1.3.2-.2.6-.3.9-.2.7.1 1.3 1 1.3 1.9-.1.7-.4 1.3-.9 1.5zm-.9-.6l.8.1c.3-.2.4-.5.4-1 0-.7-.4-1.3-.9-1.4-.2 0-.3 0-.5.1-.2.2-.4.5-.4.9.1.5.3 1 .6 1.3zM437.8 1573.8l-1-.2-.3-.1v-.1c-.4-.4-.6-.9-.6-1.5 0-.5.2-1 .5-1.3.2-.2.6-.3.9-.2.7.1 1.3 1 1.3 1.9 0 .6-.3 1.2-.8 1.5zm-1-.7l.8.1c.2-.2.4-.5.4-1 0-.7-.4-1.3-.9-1.4-.2 0-.3 0-.5.1-.2.2-.3.5-.3.9.1.6.2 1 .5 1.3zM431.6 1572.7l-1.2-.2h-.1c-.4-.4-.7-1-.7-1.6 0-.5.2-1 .5-1.3.2-.2.6-.3.9-.2.7.1 1.3 1 1.3 1.9.1.6-.2 1.2-.7 1.4zm-.9-.6l.8.1c.2-.2.4-.5.4-1 0-.7-.4-1.3-.9-1.4-.2 0-.3 0-.5.1-.2.2-.3.5-.3.9 0 .5.2 1 .5 1.3zM425.5 1571.7l-1.1-.2h-.1c-.4-.4-.7-1-.7-1.6 0-.5.2-1 .5-1.3.2-.2.6-.3.9-.2.7.1 1.3 1 1.3 1.9 0 .6-.3 1.1-.8 1.4zm-.9-.7l.8.1c.2-.2.4-.5.4-.9 0-.7-.4-1.3-.9-1.4-.2 0-.4.1-.5.1-.2.2-.4.5-.4.9.1.5.3.9.6 1.2zM419.5 1570.6l-1.2-.2v-.1c-.4-.4-.7-1-.7-1.6 0-.5.2-1 .5-1.3.2-.2.6-.3.9-.2.7.1 1.3 1 1.3 1.9-.1.7-.3 1.3-.8 1.5zm-1-.6l.8.1c.2-.2.4-.5.4-.9 0-.7-.4-1.3-.9-1.4-.2 0-.4.1-.5.1-.2.2-.3.5-.3.9 0 .5.2.9.5 1.2zM413.4 1569.6l-.6-.1c-.3 0-.5-.1-.8-.3l-.1-.1c-.3-.4-.5-.9-.5-1.4s.2-1 .5-1.3c.2-.2.6-.3.9-.2.7.1 1.3 1 1.3 1.9.1.7-.2 1.2-.7 1.5zm-1.1-.8c.2.1.4.2.6.2l.4.1c.2-.2.4-.5.4-.9 0-.7-.4-1.3-.9-1.4-.2 0-.3 0-.4.1-.2.2-.4.5-.4.9s.1.7.3 1zM452.1 1524.2c-2 0-4-.2-6-.5-58.1-9-135.6-21-203.5-31.5l-92.8-14.3c-.6-.1-1.1-.2-1.7-.3l-8.7-1.3c-9.6-1.5-17.8-7.7-21.9-16.7-4-8.8-3.4-18.9 1.7-26.9l.8.5c-4.9 7.8-5.5 17.5-1.6 26 3.9 8.6 11.8 14.7 21.1 16.1l8.7 1.3c.5.1 1.1.2 1.6.3l92.8 14.4c68 10.5 145.4 22.5 203.5 31.5 9.6 1.5 18.8-.7 28-6.6 5.6-3.6 11.2-8.5 17-15.1 4.6-5.2 14.7-17.3 28.2-33.9l.6-.7s.1-.1.1-.2l.7.7-.1.1-.6.7c-13.8 16.9-23.5 28.7-28.2 34-5.9 6.6-11.5 11.6-17.2 15.2-7.3 4.8-14.8 7.2-22.5 7.2z" class="st1"/><path d="M452.1 1525.2c-1.9 0-3.9-.2-6.1-.5-58.1-9-135.6-21-203.5-31.5l-92.8-14.3c-.3-.1-.6-.1-.9-.2-.3 0-.5-.1-.8-.1l-8.7-1.3c-10-1.6-18.4-8-22.7-17.3a29.1 29.1 0 011.8-27.9l.5-.8 2.5 1.6-.5.8c-4.7 7.5-5.3 16.9-1.5 25.1 3.8 8.4 11.4 14.2 20.3 15.5l8.7 1.3c.3.1.6.1.8.2.3.1.6.1.8.2l92.8 14.4c55.6 8.6 117.6 18.2 170.1 26.3l33.4 5.2c9.3 1.5 18.3-.7 27.3-6.5 5.7-3.7 11.2-8.5 16.8-14.9 4.9-5.5 15.4-18.2 28.2-33.9l.5-.6v-2.1l3.1 3.1-.8.8-.5.6c-14.4 17.6-23.6 28.8-28.2 34-6.1 6.8-11.8 11.8-17.4 15.4-7.6 4.9-15.3 7.4-23.2 7.4zm67-59.4c0 .1 0 .1 0 0zM188.1 557c-20.9 0-41.9-.8-62.8-2.3-1.1-.1-2.2-.6-2.9-1.4l-19-21.1.7-.7 19 21.1c.6.6 1.4 1 2.2 1.1 93.5 6.9 186.9-1.6 277.6-25.5l47.2-12.4c9.9-2.6 18.2-8.9 23.4-17.6l6.8-11.4a4.4 4.4 0 015.6-1.7c2.8 1.3 5.6 2.9 8.3 4.8 2.4 1.7 5.3 4.1 8.7 7.3 3.8 3.5 7.1 7.6 9.9 12.1l5.5 8.9-.9.5-5.4-8.9c-2.7-4.4-6-8.4-9.7-11.9-3.4-3.1-6.3-5.6-8.6-7.2-2.6-1.9-5.3-3.4-8.1-4.7-1.6-.7-3.4-.1-4.3 1.3l-6.8 11.4a39.8 39.8 0 01-24 18.1l-47.2 12.4A852.2 852.2 0 01188.1 557z" class="st1"/><path d="M188.1 558c-20.4 0-41.6-.8-62.9-2.3-1.4-.1-2.7-.8-3.6-1.7L102 532.2l2.1-2.1 19.7 21.9c.4.4 1 .7 1.6.8 93.6 6.9 186.9-1.7 277.2-25.5l47.2-12.4a37.5 37.5 0 0022.8-17.1l6.8-11.4c1.3-2.3 4.3-3.2 6.9-2.1 3 1.4 5.8 3 8.5 4.9 2.6 1.8 5.5 4.3 8.8 7.4 3.7 3.4 7.1 7.6 10.1 12.3l6.1 9.8-2.7 1.5-5.9-9.7a58.7 58.7 0 00-9.5-11.7c-3.8-3.5-6.5-5.7-8.5-7.1-2.3-1.7-4.9-3.2-8-4.6-1.1-.5-2.4-.1-3 .9l-6.8 11.4a41.13 41.13 0 01-24.6 18.6l-47.2 12.4C332.7 548.6 260.2 558 188.1 558zM145.2 1474.6c-7.1-1.6-13-6.3-16.3-12.7a24.6 24.6 0 01-.8-20.7l.9.4a23.5 23.5 0 00.7 19.9 23.2 23.2 0 0015.6 12.2l-.1.9zM86.8 435.7c-.3 0-.5-.2-.5-.5 0-18 7.1-35.5 20.1-49.1.2-.2.5-.2.7 0 .2.2.2.5 0 .7-12.8 13.5-19.8 30.7-19.8 48.4 0 .3-.2.5-.5.5zM133.7 526.1h-.5c-10.7-.6-18.8-12.9-18.8-28.6v-66h1v66c0 15.2 7.7 27.1 17.8 27.6h.5v1zM533.3 1488c-.2 0-.3-.1-.4-.2l-12.6-21c-.1-.2-.1-.5.2-.7.2-.1.5-.1.7.2l12.4 20.7 28.5-4.5c.3 0 .5.1.6.4 0 .3-.1.5-.4.6l-29 4.5z" class="st1"/><path d="M531.9 1490.8c-.2 0-.3-.1-.4-.2l-12.8-21.6c-.1-.2-.1-.5.2-.7.2-.1.5-.1.7.2l12.7 21.3 29.2-4.8c.3 0 .5.1.6.4 0 .3-.1.5-.4.6l-29.8 4.8zM574 1562.6h-1v-55c0-2.7.2-5.3.7-7.9l10.8-54.6 1 .2-10.8 54.6c-.5 2.5-.7 5.1-.7 7.7v55zM108.9 300.2l-.6-.8c2.5-1.9 5.3-3.5 7.6-4.4 48.9-18.6 99.9-33.9 151.4-45.5 57.4-13 104.7-20.3 158-24.4 0 0 .3 0 .6 0 .2 0 .3 0 .4 0l.1 1c-.1 0-.3 0-.4 0-.3 0-.6.1-.6.1-53.2 4.1-100.5 11.4-157.8 24.4-51.5 11.6-102.4 26.9-151.3 45.5-2.3.7-5 2.2-7.4 4.1z" class="st1"/><path d="M442.3 226.8l-.1-.1c-3.3-.8-6.6-1.1-10-.9l-6.8.3-.1-1s.3 0 .6 0h.4c.2 0 .3 0 .3 0l5.5-.2c3.4-.2 6.9.2 10.2 1h.1l.1.1-.3.3.1.5zM260.3 378.1c-2.1 0-4-.7-5.7-2.2-3.3-2.7-5.3-7.8-5.3-13.6v-1.1c0-9.8 5.6-18.9 12.6-20.2l28.3-5.5c2.7-.5 5.4.1 7.6 2 3.4 2.8 5.4 7.9 5.4 13.7v1.1c0 10-5.8 19.2-12.9 20.5L262 378c-.6 0-1.2.1-1.7.1zm31.6-42.3c-.6 0-1.1.1-1.7.2l-28.3 5.5c-6.7 1.3-12.2 10.2-12.2 19.8v1.1c0 5.6 1.9 10.5 5.1 13.2 2 1.7 4.5 2.4 7 1.9l28.3-5.2c6.9-1.3 12.5-10.2 12.5-20v-1.1c0-5.7-1.9-10.6-5.2-13.3a8.23 8.23 0 00-5.5-2.1z" class="st1"/><path d="M261.4 379.9c-2.8 0-5.3-1.1-7.4-3.1-3.3-3.2-5.2-8.3-5.2-14.2v-1.1c0-10.8 6.1-20.4 13.9-21.9L291 334c.6-.1 1.2-.2 1.7-.2 3-.1 5.7 1 7.9 3.2 3.3 3.2 5.2 8.4 5.2 14.3v1.1c0 10.8-6.4 20.7-14.3 22.2l-28.3 5.2c-.5.1-1.1.2-1.6.2 0-.1-.1-.1-.2-.1zm31.8-45.1c-.1 0-.2 0-.3 0-.5 0-1.1.1-1.6.2l-28.3 5.6c-7.4 1.4-13.1 10.6-13.1 20.9v1.1c0 5.6 1.8 10.5 4.8 13.5 2 1.9 4.5 2.9 7.1 2.8.5 0 1-.1 1.4-.2l28.3-5.2c7.4-1.4 13.4-10.9 13.4-21.2v-1.1c0-5.6-1.8-10.6-4.9-13.6a9.88 9.88 0 00-6.8-2.8z" class="st1"/><path d="M259.9 384.2c-3.9 0-7.5-1.5-10.5-4.3-4.2-4-6.6-10.4-6.6-17.6v-1.1c0-13.1 7.9-24.9 17.9-26.9l29.1-5.7c.8-.2 1.6-.3 2.5-.3 4.2-.2 8 1.4 11.1 4.4 4.2 4.1 6.6 10.5 6.6 17.7v1.1c0 13.3-8 25.3-18.3 27.2l-29.1 5.3c-.8.1-1.5.2-2.3.2 0 0-.2 0-.4 0zm33.1-55c-.2 0-.3 0-.5 0-.8 0-1.5.1-2.3.3l-29.1 5.7c-9.6 1.9-17.1 13.3-17.1 25.9v1.1c0 6.9 2.3 13 6.3 16.9 2.9 2.8 6.4 4.2 10.3 4.1.7 0 1.4-.1 2.1-.2l29.1-5.3c9.8-1.8 17.5-13.3 17.5-26.2v-1.1c0-6.9-2.3-13.1-6.3-17a14.1 14.1 0 00-10-4.2zM378.3 312.1c-1 0-1.9-.3-2.6-1-1.5-1.2-2.3-3.3-2.3-5.7v-7.1h1v7.1c0 2.1.7 4 1.9 5 .8.6 1.7.9 2.7.7 2.6-.5 4.8-4 4.8-7.7v-7.2h1v7.2c0 4.2-2.5 8.1-5.6 8.7-.3 0-.6 0-.9 0z" class="st1"/><path d="M382.5 309c-1.4-1.2-2.1-3.2-2.1-5.5v-6.6h.5v6.6c0 2.2.7 4 2 5.1l-.4.4z" class="st1"/><path d="M383.2 307.6c-.6-.8-1-1.9-1-3.2 0-1.8.7-3.6 1.9-4.7l.3.4a5.8 5.8 0 00-1.7 4.3c0 1.2.3 2.2.9 2.9l-.4.3zM118.9 350.3c-1 0-2-.4-2.8-1-1.7-1.4-2.7-3.9-2.7-6.9v-29.2c0-5.8 3-11.3 7-12.7 46.4-16.5 94.5-30.4 143-41.2 50.8-11.3 103.4-19.6 156.2-24.5 1.9-.2 3.7.4 5.2 1.8 2.1 1.9 3.3 5.2 3.3 8.9v32.4c0 5.4-3.3 10.5-7.3 11.3l-301.1 61c-.2 0-.5.1-.8.1zm301.4-114.6c-.2 0-.4 0-.5 0-52.8 4.9-105.3 13.1-156.1 24.5-48.5 10.8-96.6 24.6-142.9 41.2-3.6 1.3-6.3 6.3-6.3 11.7v29.2c0 2.6.9 4.9 2.3 6.1.8.7 1.8.9 2.8.7l301.1-61c3.6-.7 6.5-5.4 6.5-10.3v-32.4c0-3.5-1.1-6.4-3-8.2a6.1 6.1 0 00-3.9-1.5z" class="st1"/><path d="M119.4 345.1c-.5 0-.9-.2-1.3-.5-.7-.6-1.2-1.7-1.2-3v-29.2c0-3.2 1.7-6.1 3.8-6.9 46.3-16.4 94.3-30.2 142.7-40.9 50.7-11.2 103.1-19.3 155.8-24.1 1.1-.1 2.1.2 2.9 1 1.2 1.1 1.8 2.8 1.8 4.9v32.4c0 2.3-1.4 4.4-3.1 4.8l-301.1 61.5s-.2 0-.3 0zm300.3-103.6c-.1 0-.2 0-.3 0-52.7 4.8-105 12.9-155.7 24.1a1206.2 1206.2 0 00-142.6 40.8c-1.8.6-3.2 3.2-3.2 6v29.2c0 1 .3 1.8.8 2.2.3.2.6.3.9.2l301.1-61.5c1.3-.3 2.3-2 2.3-3.8v-32.3c0-1.8-.5-3.3-1.5-4.1-.5-.6-1.1-.8-1.8-.8z" class="st1"/><path d="M121.5 344.3c-.2-.5-.3-1-.3-1.6v-29.2c0-3.2 1.7-6.1 3.8-6.9 46.3-16.4 94.3-30.2 142.7-40.9 44.5-9.9 95.2-17.4 155-23l.1 1c-59.7 5.6-110.4 13.1-154.9 23a1206.2 1206.2 0 00-142.6 40.8c-1.8.6-3.2 3.2-3.2 6v29.2c0 .5.1.9.2 1.3l-.8.3zM140.6 415.9c-4.5 0-9.1 0-13.6-.1-4.2-.1-7.4-4.7-7.4-10.8v-55.4h1V405c0 5.5 2.7 9.8 6.4 9.8 44.2.9 90.1-2.7 136.5-10.8 48.5-8.5 98.4-22 148.5-40.2 4.5-1.6 7.8-7.5 7.8-13.8v-61.1h1V350c0 6.6-3.6 12.9-8.5 14.7-50.1 18.3-100.1 31.8-148.6 40.3-41.7 7.3-83.1 10.9-123.1 10.9z" class="st1"/><path d="M267.5 425.7c-.2 0-.5-.2-.5-.4 0-.3.1-.5.4-.6 51-8.5 103.6-22.2 156.3-40.6 10.3-3.6 18.1-17.1 18.1-31.4V226.2c0-.1 0-.2.1-.2l11.1-21c.1-.2.4-.3.7-.2.2.1.3.4.2.7l-11 20.9v126.3c0 14.7-8.1 28.6-18.8 32.3-52.9 18.4-105.5 32.1-156.6 40.7z" class="st1"/><path d="M138.3 436.7c-4.7 0-9.4 0-14.1-.1-3.6-.1-6.9-1.7-9.6-4.7-3.9-4.3-6.2-11.2-6.2-18.8v-37.8c0-.3.2-.5.5-.5s.5.2.5.5v37.8c0 7.4 2.2 14 5.9 18.1 2.5 2.8 5.6 4.3 8.9 4.4 46.4.9 94.5-2.7 143.1-10.9.3 0 .5.1.6.4s-.1.5-.4.6c-43.7 7.3-87.1 11-129.2 11zM424.3 290.3c-.1 0-.2 0-.3 0l-7.1-.3v-1l7.1.3c2.9.1 5.7-2.4 7.1-4.9.9-1.6 1.4-5 1.4-7.4v-32.7c0-4.3-3.2-7.9-7.5-8.2l-5.4-.4.1-1 5.4.4c4.8.4 8.4 4.3 8.4 9.2V277c0 2.1-.4 5.9-1.5 7.9-1.4 2.7-4.5 5.4-7.7 5.4z" class="st1"/><path d="M140.6 418c-3 0-5.9 0-8.9-.1-1.9 0-3.7-.6-5.3-1.5l-2.5-1.5.5-.9 2.5 1.5c1.4.9 3.1 1.4 4.8 1.4 43.4.6 88.5-3.1 134-10.9 46.3-8 95.6-21.5 150.8-41.3 4.5-1.6 7.9-7.5 7.9-13.8v-61.1h1v61.1c0 6.6-3.7 12.9-8.6 14.7-55.2 19.8-104.6 33.4-151 41.4-42.3 7.3-84.4 11-125.2 11zM333 1590.6c-.4 0-.7 0-1.1-.1-17-2.1-34-4.8-50.7-7.7-16.5-3-33.1-6.4-49.3-10.1-5.9-1.4-10.5-8.9-10.5-17.2v-33.1c0-5 1.7-9.4 4.6-11.9a7.8 7.8 0 016.5-1.9l99.2 15.9c6.4 1 11.6 9 11.6 17.8v34.3c0 5-1.7 9.3-4.6 11.9a9.54 9.54 0 01-5.7 2.1zm-101.8-81.1c-1.6 0-3.2.6-4.6 1.8-2.7 2.3-4.2 6.4-4.2 11.1v33.1c0 7.8 4.3 15 9.7 16.2 16.2 3.8 32.8 7.2 49.2 10.1 16.7 3 33.8 5.6 50.7 7.7 2.2.3 4.2-.4 6-1.9 2.7-2.4 4.2-6.4 4.2-11.1v-34.3c0-8.3-4.8-15.8-10.8-16.8l-99.2-15.9c-.3 0-.7 0-1 0z" class="st1"/><path d="M333 1586.1c-.2 0-.3 0-.5 0-16.9-2.1-33.9-4.7-50.5-7.7a908.8 908.8 0 01-49.1-10.1c-3.3-.8-7-6.2-7-12.8v-33.1c0-5.8 2.7-9.3 5.3-9.3.2 0 .4 0 .5 0l99.2 15.9c3.7.6 7.8 6.2 7.8 13.3v34.3c0 5.3-2.5 9.5-5.7 9.5zM231.2 1514c-2 0-4.3 3.4-4.3 8.3v33.1c0 5.9 3.3 11.2 6.2 11.8 16.1 3.7 32.6 7.1 49 10.1 16.6 3 33.6 5.6 50.5 7.7.1 0 .3 0 .4 0 2.6 0 4.7-3.9 4.7-8.6v-34.3c0-6.6-3.7-11.8-6.9-12.3l-99.2-15.9c-.2.1-.3.1-.4.1z" class="st1"/><path d="M332.3 1583.6c-.2 0-.4 0-.6 0-16.9-2.1-33.9-4.7-50.6-7.6-16.4-2.9-32.9-6.3-49.1-10-3.3-.8-5.9-5-5.9-9.7v-33.1c0-3.7 1.7-6.8 4.2-7.6.7-.2 1.4-.3 2.1-.2l99.2 16.1c3.6.6 6.6 5.1 6.6 10v34.2c0 3.8-1.7 6.8-4.3 7.7-.5.1-1.1.2-1.6.2zm-51-8.6c16.7 2.9 33.6 5.5 50.5 7.6.6.1 1.2 0 1.7-.2 2.2-.7 3.6-3.5 3.6-6.8v-34.2c0-4.5-2.6-8.5-5.7-9l-99.2-16.1c-.6-.1-1.1 0-1.7.1-2.1.7-3.5 3.4-3.5 6.7v33.1c0 4.2 2.3 8 5.2 8.7 16.2 3.8 32.8 7.2 49.1 10.1z" class="st1"/><path d="M333.7 1583.4c-.2 0-.4-.1-.5-.3-.1-.3.1-.5.3-.6l3.6-1.2c.3-.1.5.1.6.3.1.3-.1.5-.3.6l-3.6 1.2s-.1 0-.1 0zM230.5 1516.5c-.2 0-.4-.1-.5-.3-.1-.3.1-.5.3-.6l5-1.7c.3-.1.5.1.6.3.1.3-.1.5-.3.6l-5 1.7h-.1zM517.1 726.1h2.6v1h-2.6zM516.4 630.1h2.6v1h-2.6zM147.9 1477.5l-.4-.4c-13-12.9-20.3-30.5-22.2-54l1-.1c1.9 23.2 9.1 40.7 21.9 53.3l.3.3-.6.9zM124.6 554.2h1v14.4h-1z" class="st1"/><path d="M149.7 1477.5c-15.5-15.5-23.1-40.2-23.1-75.3v-848h.5v848c0 35 7.5 59.5 22.9 75l-.3.3zM228.8 510.3c-1.4 0-2.7-.5-3.9-1.5-2.3-2-3.7-5.6-3.7-9.8 0-6.8 3.8-13 8.4-13.8l.2 1c-4.2.7-7.5 6.4-7.5 12.8 0 3.9 1.3 7.2 3.3 9 1.2 1 2.6 1.4 4 1.2.2 0 .4-.1.7-.1l.3 1c-.3.1-.5.1-.8.2-.4 0-.7 0-1 0z" class="st1"/><path d="M230.2 508.1c-1.6-2.1-2.4-5-2.4-8.3 0-3.2.8-6.4 2.4-9l.4.3c-1.5 2.5-2.3 5.6-2.3 8.7 0 3.2.8 6 2.3 8l-.4.3zM244.1 496.6c-.6 0-1.2-.2-1.7-.7-1-.8-1.5-2.3-1.5-4 0-2.8 1.6-5.3 3.5-5.6l14.3-2.3c1-.2 1.9.2 2.6 1l-.7.7c-.3-.4-.9-.8-1.7-.7l-14.3 2.3c-1.5.2-2.7 2.4-2.7 4.7 0 1.4.4 2.6 1.2 3.2.4.3.9.5 1.3.4l.3-.1.1 1h-.3c-.1.1-.2.1-.4.1z" class="st1"/><path d="M244.9 496.6l-.1-1 14-2.1c1.5-.2 2.8-2.4 2.8-4.8 0-1.2-.4-2.3-1-3l.7-.7c.8.9 1.2 2.2 1.2 3.7 0 2.8-1.6 5.4-3.7 5.7l-13.9 2.2z" class="st1"/><path d="M244.6 496.3c-.7-.8-1.1-2.1-1.1-3.4 0-2.7 1.5-5.1 3.3-5.4l14.1-2.3.1.5-14.1 2.3c-1.6.3-2.9 2.5-2.9 4.9 0 1.2.3 2.4 1 3.1l-.4.3zM394.9 403c-.7 0-1.3-.2-1.8-.6-.8-.6-1.2-1.7-1.2-2.8 0-.5.1-1 .2-1.5l1 .3c-.1.4-.2.8-.2 1.2 0 .9.3 1.6.8 2 .4.3.9.5 1.5.4 1.4-.3 2.5-1.8 2.5-3.5 0-.6-.1-1.1-.4-1.6l.8-.5c.4.6.6 1.3.6 2.1 0 2.1-1.5 4.1-3.3 4.5-.2 0-.3 0-.5 0z" class="st1"/><path d="M396.5 402.1c-1.4-.2-2.4-1.5-2.4-3.2 0-.5.1-1 .2-1.4l.5.2c-.1.4-.2.8-.2 1.3 0 1.5.8 2.6 2 2.7l-.1.4z" class="st1"/><path d="M156.5 437.5c-10.9 0-21.4-.3-31.6-1h-.5l.1-1h.5c51.5 3.3 111.1-1.8 177-15.2 61.2-12.4 110.2-28.6 128.4-34.9 7.8-2.7 14.4-11.3 17-22l.1-.5 1 .2-.1.5c-2.6 11-9.5 19.9-17.6 22.7-18.2 6.4-67.2 22.5-128.5 35-53.1 10.8-101.9 16.2-145.8 16.2z" class="st1"/><path d="M163.4 526.7c-12.9 0-25.7-.3-38.3-1-10.7-.6-18.8-12.9-18.8-28.6V386.4c0-.1 0-.2.1-.3l2.1-3.5c.1-.2.5-.3.7-.2s.3.5.2.7l-2 3.3v110.5c0 15.2 7.7 27.1 17.8 27.6 46.4 2.4 94.7.4 143.6-6.1 51.1-6.8 103.8-18.6 156.9-35.1 12.4-3.9 21.7-19.5 21.7-36.4V324.2c0-.1 0-.2.1-.2l11.8-21.5c.1-.2.4-.3.7-.2.2.1.3.4.2.7l-11.7 21.4V447c0 17.3-9.6 33.4-22.4 37.4-53.1 16.5-105.9 28.3-157 35.2a813.6 813.6 0 01-105.7 7.1z" class="st1"/><path d="M149.4 523.6c-5.7 0-11.2-.1-16.4-.2-8.3-.2-17.1-5.9-17.1-21.6v-42.9c0-3.3 2-6.1 4.7-6.6l4.1-.7c3.7-.6 6.5-3.8 6.5-7.6v-7.7c0-.3.2-.5.5-.5s.5.2.5.5v7.7c0 4.3-3.1 7.9-7.3 8.6l-4.1.7c-2.2.4-3.9 2.8-3.9 5.6v42.9c0 12.5 6.2 20.4 16.1 20.6 17.8.4 38.2.1 59.1-.8 3-.1 5.3-3.2 5.3-7.2v-13.2c0-16.3 6.2-27.5 16.2-29.1l.5-.1c3.5-.6 7 .4 9.9 2.9 4.4 3.7 6.9 10.1 6.9 17.6v18.2c0 2.9.8 5.3 2.4 6.8 1.1 1 2.5 1.5 4.1 1.4 12.7-1.1 24.4-2.3 34.5-3.6 37.6-4.9 103-17.9 163.7-38 .3-.1.5.1.6.3s-.1.5-.3.6c-60.8 20.2-126.3 33.1-163.9 38a708.8 708.8 0 01-34.6 3.6c-1.8.2-3.5-.4-4.8-1.6-1.8-1.6-2.7-4.3-2.7-7.5v-18.2c0-7.2-2.4-13.3-6.5-16.8-2.7-2.3-5.8-3.2-9.1-2.7l-.5.1c-9.5 1.6-15.4 12.4-15.4 28.2v13.2c0 4.5-2.7 8-6.3 8.2-14.7.6-29.2.9-42.7.9z" class="st1"/><path d="M190.5 522.7c-.1 0-.2-.1-.2-.2s.1-.3.2-.3c0 0 2.2-.1 4.3-.2 3.2-.2 5.5-3.3 5.5-7.4v-13.2c0-16.2 6.1-27.3 16-28.9l.5-.1c.1 0 .3.1.3.2s-.1.3-.2.3l-.5.1c-9.6 1.6-15.6 12.5-15.6 28.4v13.2c0 4.4-2.5 7.7-6 7.9-2.1.1-4.3.2-4.3.2zM436.1 400.7c-1.2 0-2.3-.4-3.3-1.2-1.5-1.3-2.3-3.4-2.3-6.1 0-7.2 0-7.5 0-7.5 0-.3.2-.5.5-.5s.5.2.5.5c0 0 0 .3 0 7.5 0 2.4.7 4.2 2 5.3.9.8 2.1 1.1 3.4.9l10.9-1.8c.3 0 .5.1.6.4 0 .3-.1.5-.4.6l-10.9 1.8c-.4.1-.7.1-1 .1z" class="st1"/><path d="M438.5 400.1c-1.2 0-2.2-.4-3.1-1.1-1.4-1.2-2.2-3.3-2.2-5.9v-8.5c0-.1.1-.2.2-.2s.2.1.2.2v8.5c0 2.4.7 4.4 2 5.5 1 .8 2.2 1.2 3.6.9.1 0 .3.1.3.2s-.1.3-.2.3c-.2.1-.5.1-.8.1zM273 470.5c-.6 0-1.2 0-1.7-.1-3.8-.7-6.9-3.4-8.9-7.7-1.9-4.2-2.5-9.5-1.6-14.8 1.6-9.3 7.4-16.6 14.1-17.6l.2 1c-6.2 1-11.8 8-13.3 16.8-.9 5.1-.4 10.2 1.5 14.2 1.8 4 4.7 6.5 8.2 7.1 1 .2 2 .2 3 0l.2 1c-.6 0-1.2.1-1.7.1z" class="st1"/><path d="M274.4 467.4h26.2v1h-26.2z" class="st1" transform="rotate(-8.773 287.44 467.968)"/><path d="M274.8 428.3H301v1h-26.2z" class="st1" transform="rotate(-8.773 287.845 428.869)"/><path d="M271 470c-6-3-9.3-11.9-7.6-21.3 1.6-9.2 7.3-16.4 13.9-17.4l28.4-4.3.1.5-28.4 4.3c-6.4 1-11.9 8-13.5 17-1.6 9.2 1.5 17.9 7.4 20.7l-.3.5z" class="st1"/><path d="M300.5 466.4l-.2-1c6.2-1 11.8-8 13.3-16.8.9-5.1.4-10.2-1.5-14.2-1.8-4-4.7-6.5-8.2-7.1-1-.2-2-.2-3 0l-.2-1c1.1-.2 2.2-.2 3.3 0 3.8.7 6.9 3.4 8.9 7.7 1.9 4.2 2.5 9.5 1.6 14.8-1.5 9.3-7.3 16.5-14 17.6z" class="st1"/><path fill="#008599" d="M-197 463.6h1v2h-1z"/><g><path fill="none" d="M518 518.5l7.5 13.8"/><path d="M520.3 517.5h3v15.7h-3z" class="st1" transform="rotate(-28.523 521.795 525.4)"/></g><g><path d="M453.7 202.2l38.1 5.9c.1 0 .3 0 .5.1l17 6c.8.2 1.5.8 1.8 1.6l3.4 7.9 18.3 24.8c.4.5.6 1.2.6 1.8v64.8c18.2 12.9 28.2 34.9 28.2 62v52.4c0 24.4 4.1 48.4 12.1 71.4l8.8 25a197.8 197.8 0 0111.1 65.6v819.7c0 .1 0 .3 0 .5l-7 37.8v81.5c0 7.5-1.9 14.8-5.5 21.3l-5 9-.2.4c-.4 2-2.3 9.6-7.4 18.7-9.6 17.3-23 26.2-32.5 30.6-8.2 4.4-51.6 10.1-65.2 10.7-6.4.3-13.1.4-20 .4-45.1 0-89.4-5.6-126.8-11.1-.4-.1-.8-.2-1.1-.4l-8.5-4.8c-2.7-.4-5.3-.9-8-1.3-12.8-2.2-26.3-4.8-40-7.8l-5.1 2.2c-.4.1-.8.2-1.2.2-.3 0-.5-.1-.7-.1-65.3-14.6-74.6-17.9-88.7-23-4.7-1.7-10.1-3.6-18.3-6.2-18.3-5.8-33.1-16.2-42.8-30-4.1-5.8-7.2-12.3-9.4-19.1-8.4-26.9-5.1-56.3 8.8-76.6l8.6-12.6.1-.1c.2-.3.4-.6.6-.9 1.2-1.8 2.2-3.3 3-4.4l.6-.9c.6-1 1.1-1.7 1.4-2.1l-.1-1c-.1-1-.1-2-.2-2.9 0-.1 0-.1 0-.1-.4-6.4-.4-10.4-.4-14.2V569.4l-31.8-49.5a42 42 0 01-6.5-22.3V433c0-21.9 8.2-43.8 22.1-58.9v-74.5c0-.5.1-1 .4-1.5 3.7-6.4 10.7-18.6 11-19.2.4-.7.9-1.1 1.6-1.4 51.4-19.1 104.5-35 157.9-47.4a1291.4 1291.4 0 01175.8-27.9c.1 0 .2 0 .3 0 .2 0 .3 0 .3 0m.4-5h-1.4c-59.1 5.2-118.5 14.6-176.5 28-53.9 12.5-107.2 28.5-158.5 47.6h-.2c-1.7.7-3 1.9-4 3.5l-.1.1v.1c-.6 1-6.9 12.1-10.9 19-.7 1.2-1.1 2.6-1.1 4v72.6c-13.9 15.9-22.1 38.4-22.1 60.8v64.7c0 8.7 2.5 17.4 7.3 25l31 48.3v834c0 3.9 0 7.9.4 14.4v.5c0 .3.1.7.1 1.2 0 .3 0 .5 0 .8-.2.2-.3.5-.5.8l-.5.7c-.8 1.2-1.9 2.7-3.1 4.5l-.3.5-.1.1-.3.4-8.6 12.6c-14.7 21.5-18.3 52.5-9.4 80.9 2.5 7.6 5.8 14.5 10.1 20.4 10.4 14.7 26 25.8 45.4 31.9 8.2 2.6 13.5 4.5 18.1 6.1 14 5.1 23.2 8.4 89.3 23.2l.5.1h.1c.3.1.7.1 1.1.1 1 0 1.9-.2 2.4-.3l.4-.1.4-.2 3.6-1.6c12.6 2.7 25.6 5.3 38.6 7.5h.2c1.3.2 2.6.4 3.9.6 1 .2 2.1.4 3.2.5l7.6 4.3c1 .6 1.9.8 2.5 1l.2.1h.2c37.5 5.5 82 11.2 127.5 11.2 7.9 0 14.3-.1 20.2-.4 11.7-.5 57.2-6 67.2-11.2 10.2-4.7 24.4-14.3 34.7-32.7 5.1-9.2 7.2-16.9 7.8-19.4l4.8-8.7c4-7.2 6.1-15.4 6.1-23.7v-81l6.9-37.3.1-.5V591.5c0-23.1-3.8-45.7-11.4-67.3l-8.8-25c-7.8-22.5-11.8-46-11.8-69.7v-52.4c0-27.7-10-50.5-28.2-64.5v-62.3c0-1.7-.6-3.5-1.6-4.8l-17.9-24.3-3.1-7.3a7.8 7.8 0 00-4.9-4.5l-16.7-5.9c-.6-.2-1.2-.4-1.8-.4l-37.8-5.9h-.3z" class="st1"/></g></g><g id="Layer_3_1_"><path fill="red" d="M126 1363.6V556l9.1-1.2s55.1 5.1 111.3-.1c56.3-5.2 101.6-12.9 139.1-20.7 37.5-7.8 77.6-23.4 77.6-23.4l29-3.9v906.2L126 1363.6z"/><path d="M262.1 1198.3v-104.8l74.5 3.2V1204l-74.5-5.7M279.8 1040.9l-21.2-298v-15.5l81.8-6v15.9l-22 304.6-38.6-1" class="st8"/><path d="M491.7 662.8l-.1-174.1s-4.3-3.8-8.4-3c-2.3.5-4.4 3.7-5.9 6.7-4 8.3-11.1 16.9-16.2 19.8-2.5 1.4-20.6 7.1-48.9 14.6-29.1 7.7-69.2 17.2-115.4 23-91.2 11.5-169.7 4.5-169.7 4.5s0 147.9-.1 319.1l364.7-210.6zM127 1003.3l364.7-210.6V686.9L127 897.5c0 35.5 0 71.1 0 105.8z" class="st9"/><path d="M336.6 1096.7l-74.5-3.2v104.8l74.5 5.7v-107.3m3.8-375.3l-81.8 6.1V743l21.3 297.9 38.6 1 22-304.6v-15.9" class="st0"/></g></svg>