<svg width="51" height="55" viewBox="0 0 51 55" fill="none" xmlns="http://www.w3.org/2000/svg">
<g clip-path="url(#clip0_969_323)">
<g clip-path="url(#clip1_969_323)">
<path d="M19.5982 45.252H18.6477C13.9436 45.252 9.24204 45.2342 4.53794 45.252C2.66761 45.252 1.24687 44.5346 0.427315 42.8735C0.139784 42.2175 -0.00130401 41.5077 0.0136869 40.7927C-0.0248502 36.8777 -0.00428326 32.9602 -0.00428326 29.0452C-0.00428326 23.1639 -0.00428326 17.2809 -0.00428326 11.3961C-0.00428326 9.32798 1.1364 7.78133 3.06068 7.20388C3.42967 7.09796 3.81208 7.04486 4.19626 7.04617C18.3454 7.04617 32.4953 7.04617 46.6462 7.04617C49.0791 7.04617 50.9803 8.98712 50.9829 11.4546C50.9931 17.0409 50.9931 22.628 50.9829 28.2159C50.9829 32.4489 50.9829 36.6818 50.9829 40.9122C50.9829 43.0033 49.837 44.5448 47.8382 45.1019C47.3185 45.2183 46.7853 45.2645 46.2531 45.2393C41.5721 45.2495 36.8911 45.2495 32.2101 45.2393C31.3264 45.2393 31.2904 45.2825 31.3983 46.1347C31.6732 48.2741 32.5056 49.312 34.3194 49.7495C34.5734 49.7991 34.8313 49.8263 35.0902 49.8309C35.9534 49.8869 36.3439 50.2532 36.3619 51.1028C36.3824 52.011 36.385 52.9217 36.3619 53.8323C36.3388 54.654 35.9945 54.9847 35.1646 54.9873C28.711 54.9873 22.2556 54.9873 15.7985 54.9873C14.9841 54.9873 14.6501 54.6311 14.6398 53.8044C14.6398 52.8937 14.6398 51.9855 14.6398 51.0748C14.6398 50.3117 14.9892 49.8843 15.7368 49.8563C18.4447 49.7571 19.2617 47.9434 19.5109 46.0177C19.5417 45.8142 19.5597 45.6081 19.5982 45.252ZM25.4327 35.9823C33.0425 35.9823 40.6506 35.9823 48.257 35.9823C48.8068 35.9823 49.0278 35.8831 49.0278 35.2573C49.0046 27.3231 49.0277 19.3889 49.0072 11.4546C49.014 11.1601 48.9732 10.8664 48.8864 10.5846C48.5165 9.4628 47.6019 8.92859 46.0912 8.92859C32.3292 8.92859 18.5655 8.92859 4.8 8.92859C4.37384 8.9236 3.94885 8.97406 3.53597 9.07869C2.43895 9.37886 1.91743 10.2743 1.91743 11.7904C1.91743 19.5542 1.91743 27.3197 1.91743 35.0868C1.91743 35.967 1.91741 35.9696 2.79348 35.9696L25.4327 35.9823ZM25.5124 37.8596H3.01189C2.8192 37.8596 2.62651 37.8596 2.43383 37.8596C2.07929 37.8393 1.92 38.0021 1.92 38.3455C1.93798 39.3401 1.90459 40.3373 1.98423 41.3243C2.08443 42.5301 3.03244 43.3441 4.26563 43.3594C5.29328 43.3747 6.32094 43.3594 7.3486 43.3594C11.6442 43.3594 15.9389 43.3594 20.2328 43.3594C21.114 43.3594 21.4994 43.7155 21.4917 44.5779C21.5079 45.2738 21.4658 45.9697 21.3658 46.6587C20.9162 49.1568 19.6856 51.024 17.024 51.6421C16.2995 51.81 16.6849 52.3518 16.6283 52.7258C16.559 53.1989 16.9649 53.1175 17.2449 53.1175C20.8417 53.1175 24.4317 53.1175 28.0147 53.1175C29.9185 53.1175 31.8196 53.1175 33.7208 53.1175C33.934 53.1175 34.2346 53.0794 34.34 52.942C34.6688 52.4689 34.34 51.7261 33.7696 51.6039C33.0967 51.4762 32.4578 51.2115 31.8935 50.8266C31.3293 50.4417 30.8518 49.945 30.4914 49.3679C29.5511 47.8925 29.3327 46.2644 29.4869 44.5677C29.5768 43.5858 29.8466 43.3645 30.8254 43.3619H41.0814C42.962 43.3619 44.8426 43.3619 46.7335 43.3619C48.0823 43.3492 49.0123 42.3978 49.0252 41.0725C49.0252 40.2915 49.0252 39.508 49.0252 38.7245C49.0252 37.8749 49.0252 37.8723 48.1465 37.8723L25.5124 37.8596Z" fill="#00778B"/>
<path d="M17.6728 27.7937C19.1183 27.5931 20.463 26.9463 21.5156 25.9451C22.5683 24.944 23.2751 23.6396 23.5356 22.2176C24.1419 18.6562 22.3487 16.1124 19.7795 14.6955C17.8398 13.6271 14.6952 13.8077 13.516 14.8252C13.7061 15.2017 13.927 15.568 14.0838 15.9598C14.2405 16.3515 14.4614 16.4049 14.8545 16.232C16.1673 15.6596 17.493 15.7791 18.7544 16.3719C19.7084 16.8132 20.5012 17.5359 21.0241 18.4408C21.5471 19.3457 21.7746 20.3886 21.6756 21.4266C21.5765 22.4645 21.1558 23.4468 20.4709 24.2387C19.7861 25.0306 18.8707 25.5935 17.8501 25.8502C17.6985 25.8883 17.4724 26.1046 17.4776 26.219C17.5058 26.7354 17.6009 27.2493 17.6728 27.7937ZM39.1663 19.4932H38.0872C37.2394 19.4932 37.2394 19.4932 37.2394 20.3097C37.2394 23.838 37.2394 27.3663 37.2394 30.8946C37.2394 32.3446 37.0082 32.1411 38.524 32.1869C39.0532 32.2022 39.2099 32.0393 39.2074 31.5077C39.1868 27.725 39.2074 23.9423 39.2074 20.1596C39.1945 19.9612 39.1791 19.773 39.1663 19.4932ZM33.2341 22.2914V23.1563C33.2341 25.7764 33.2341 28.3966 33.2341 31.0142C33.2341 32.2861 32.9926 32.1207 34.3774 32.1767C35.0197 32.2021 35.1635 31.9579 35.1481 31.3703C35.1199 28.9206 35.1481 26.4709 35.1481 24.0212C35.1657 23.5777 35.1589 23.1335 35.1276 22.6908C35.105 22.6031 35.0608 22.5223 34.9989 22.4557C34.937 22.3891 34.8594 22.3388 34.7731 22.3092C34.2926 22.2634 33.8045 22.2914 33.2341 22.2914ZM15.3812 27.8293C15.4891 27.1603 15.5867 26.5701 15.6561 26.1326C14.7492 25.6238 13.8577 25.2676 13.1717 24.6724C12.4857 24.0771 12.0413 23.2402 11.4478 22.4491L9.7907 22.9579C10.7824 25.6136 12.5628 27.2111 15.3812 27.8293ZM29.2699 26.2369V30.8158C29.2699 32.2098 29.2699 32.1869 30.6573 32.1792C31.1531 32.1792 31.2584 31.9935 31.2507 31.5433C31.2276 29.961 31.2507 28.3762 31.2507 26.7914C31.2507 26.6133 31.2199 26.4327 31.2045 26.2419L29.2699 26.2369ZM9.53125 20.8592C10.1042 20.8592 10.6488 20.8592 11.1909 20.8592C11.256 20.8441 11.316 20.8128 11.3655 20.7683C11.4149 20.7238 11.4521 20.6675 11.4735 20.6048C11.5761 19.4492 12.0476 18.356 12.8197 17.4835L11.5352 16.1099C10.2069 17.3919 9.65714 18.9844 9.53125 20.8592ZM27.2763 28.3966C26.7111 28.3966 26.264 28.4118 25.8196 28.3966C25.4727 28.3813 25.3803 28.5517 25.3828 28.857C25.3828 29.8059 25.3828 30.7547 25.3828 31.7036C25.3828 31.846 25.4959 32.1029 25.5704 32.108C26.0777 32.1386 26.5865 32.1386 27.0939 32.108C27.1555 32.108 27.2557 31.9198 27.2583 31.818C27.2789 30.7038 27.2763 29.5922 27.2763 28.3966Z" fill="white"/>
<path d="M17.6726 27.7937C17.6007 27.2493 17.5056 26.7354 17.4851 26.219C17.4851 26.0969 17.706 25.8883 17.8576 25.8502C18.8781 25.5935 19.7936 25.0306 20.4784 24.2387C21.1632 23.4468 21.584 22.4645 21.6831 21.4266C21.7821 20.3886 21.5545 19.3457 21.0316 18.4408C20.5086 17.5359 19.7159 16.8132 18.7619 16.3719C17.5005 15.7791 16.1748 15.6596 14.862 16.232C14.4612 16.4049 14.2505 16.382 14.0912 15.9598C13.932 15.5375 13.7136 15.1966 13.5234 14.8252C14.7027 13.8077 17.8473 13.6271 19.787 14.6955C22.3561 16.1124 24.1545 18.6639 23.5431 22.2176C23.2821 23.6407 22.5742 24.9459 21.52 25.9471C20.4659 26.9484 19.1194 27.5946 17.6726 27.7937Z" fill="#00778B"/>
<path d="M39.1669 19.4932C39.1669 19.7857 39.1951 19.9739 39.1951 20.1596C39.1951 23.9423 39.1951 27.725 39.1951 31.5077C39.1951 32.0393 39.041 32.2022 38.5117 32.1869C36.9985 32.1411 37.2272 32.3446 37.2272 30.8946C37.2272 27.3663 37.2272 23.838 37.2272 20.3097C37.2272 19.4932 37.2272 19.4932 38.075 19.4932H39.1669Z" fill="#00778B"/>
<path d="M33.234 22.2914C33.8044 22.2914 34.2925 22.2634 34.7755 22.3092C34.8619 22.3388 34.9395 22.3891 35.0014 22.4557C35.0633 22.5223 35.1075 22.6031 35.1301 22.6907C35.1613 23.1335 35.1682 23.5777 35.1506 24.0212C35.1506 26.4709 35.1352 28.9206 35.1506 31.3703C35.1506 31.9579 35.0145 32.2021 34.3799 32.1767C32.9951 32.1207 33.2418 32.2784 33.2366 31.0142C33.2212 28.3966 33.2366 25.7764 33.2366 23.1563L33.234 22.2914Z" fill="#00778B"/>
<path d="M15.3815 27.8293C12.5554 27.2112 10.7827 25.6136 9.79102 22.9706L11.4481 22.4618C12.0416 23.253 12.4963 24.0924 13.172 24.6851C13.8477 25.2778 14.7495 25.6289 15.6564 26.1453C15.587 26.5701 15.4894 27.1603 15.3815 27.8293Z" fill="#00778B"/>
<path d="M29.2701 26.2369H31.1943C31.2098 26.4277 31.238 26.6083 31.2406 26.7863C31.2406 28.3711 31.2406 29.956 31.2406 31.5382C31.2406 31.9885 31.143 32.1716 30.6471 32.1742C29.2598 32.1742 29.2598 32.2047 29.2598 30.8107L29.2701 26.2369Z" fill="#00778B"/>
<path d="M9.53125 20.8592C9.65714 18.9768 10.2069 17.3919 11.5326 16.0997L12.8172 17.4733C12.045 18.3458 11.5735 19.439 11.4709 20.5946C11.4496 20.6573 11.4124 20.7136 11.3629 20.7581C11.3135 20.8026 11.2534 20.8339 11.1883 20.849C10.6488 20.8719 10.1042 20.8592 9.53125 20.8592Z" fill="#00778B"/>
<path d="M27.2769 28.3966C27.2769 29.5922 27.2769 30.7038 27.2769 31.818C27.2769 31.9198 27.1741 32.1055 27.1124 32.108C26.6051 32.1386 26.0963 32.1386 25.589 32.108C25.5145 32.108 25.404 31.8536 25.4014 31.7036C25.386 30.7547 25.4014 29.8059 25.4014 28.857C25.4014 28.5517 25.4913 28.3813 25.8382 28.3966C26.2646 28.4118 26.7117 28.3966 27.2769 28.3966Z" fill="#00778B"/>
</g>
</g>
<defs>
<clipPath id="clip0_969_323">
<rect width="51" height="55" fill="white"/>
</clipPath>
<clipPath id="clip1_969_323">
<rect width="51" height="47.9487" fill="white" transform="translate(0 7.05127)"/>
</clipPath>
</defs>
</svg>
