<svg width="51" height="55" viewBox="0 0 51 55" fill="none" xmlns="http://www.w3.org/2000/svg">
<g clip-path="url(#clip0_969_1706)">
<g clip-path="url(#clip1_969_1706)">
<path d="M19.5797 45.0935C19.2532 45.0755 18.9628 45.0472 18.6698 45.0472C13.9481 45.0472 9.22391 45.0472 4.50226 45.0472C2.153 45.0472 0.562002 43.7777 0.0916365 41.5754C0.022486 41.1975 -0.00682714 40.8134 0.00422355 40.4293C0.00422355 30.6024 0.00422355 20.7755 0.00422355 10.9487C0.00422355 8.12189 1.7726 6.35645 4.60765 6.35645C18.501 6.35645 32.3927 6.35645 46.2826 6.35645C49.2179 6.35645 50.9991 8.1553 50.9991 11.0643C50.9991 20.8706 50.9991 30.6769 50.9991 40.4833C50.9991 42.6959 49.8656 44.338 47.9147 44.893C47.3748 45.0173 46.8207 45.0683 46.2672 45.0446C41.5867 45.0446 36.9061 45.0446 32.2256 45.0446C31.3543 45.0446 31.3131 45.0935 31.4262 45.9569C31.7064 48.1181 32.5391 49.164 34.3512 49.6009C34.6238 49.649 34.8996 49.6765 35.1763 49.6831C35.9602 49.7525 36.3535 50.12 36.3766 50.8986C36.4049 51.8803 36.4049 52.8645 36.3766 53.8462C36.3509 54.6608 35.9757 54.9949 35.1583 54.9949H15.8605C15.02 54.9949 14.6678 54.6325 14.6575 53.7717C14.6473 52.8328 14.6473 51.8906 14.6575 50.9449C14.6575 50.138 15.0148 49.7217 15.7936 49.6857C18.4616 49.5572 19.2327 47.82 19.5231 45.903C19.5437 45.6665 19.5514 45.4121 19.5797 45.0935ZM49.0148 35.724V35.0584C49.0148 27.0021 48.9891 18.9459 49.0379 10.9024C49.0505 10.5582 48.992 10.215 48.8663 9.89436C48.7405 9.57368 48.55 9.28232 48.3067 9.03838C48.0635 8.79445 47.7726 8.60317 47.4522 8.47644C47.1319 8.34972 46.7888 8.29027 46.4445 8.30178C32.4449 8.32919 18.4436 8.33605 4.44057 8.32234C4.16375 8.31509 3.8872 8.34446 3.61809 8.40971C2.46145 8.72322 1.92169 9.60209 1.92169 11.1542C1.92169 19.0606 1.92169 26.967 1.92169 34.8734C1.92169 35.7754 1.92169 35.778 2.85214 35.778H48.1281C48.398 35.7754 48.6704 35.7446 49.0148 35.724ZM34.305 53.0444C34.562 51.7595 34.508 51.7235 33.3822 51.3818C32.305 51.0757 31.3595 50.4215 30.6937 49.5212C29.645 48.1053 29.3777 46.4709 29.4394 44.7928C29.4985 43.2509 29.6964 43.143 31.2823 43.143C36.3903 43.143 41.4975 43.143 46.6039 43.143C48.0587 43.143 48.9994 42.187 49.0122 40.7325C49.0122 40.0258 49.0122 39.3217 49.0122 38.6176C49.0122 37.6976 49.0122 37.6976 48.0741 37.6976H2.88556C2.73648 37.6976 2.5874 37.6976 2.43833 37.6976C2.09134 37.6694 1.92427 37.8081 1.92427 38.1705C1.94483 39.1084 1.90627 40.0515 1.98852 40.9844C2.10162 42.2693 3.04749 43.1147 4.33779 43.1456C5.21169 43.1661 6.08816 43.1456 6.96463 43.1456H20.2274C21.109 43.1456 21.474 43.5079 21.492 44.3765C21.492 44.7825 21.5177 45.1886 21.492 45.592C21.2607 48.3263 20.0038 50.8498 17.03 51.5257C16.94 51.5531 16.8576 51.601 16.7894 51.6656C16.7211 51.7303 16.6689 51.81 16.6367 51.8983C16.6021 52.2802 16.5961 52.6642 16.6187 53.047L34.305 53.0444Z" fill="#00778B"/>
<path d="M27.7944 12.4468C27.3472 16.8951 26.9103 21.2304 26.463 25.6427C25.7999 25.6427 25.1625 25.6787 24.5379 25.617C24.3914 25.6016 24.1857 25.2727 24.1626 25.0722C24.0007 23.7411 23.8824 22.4048 23.7488 21.0711C23.4917 18.6143 23.2681 16.1576 22.9931 13.7035C22.8569 12.4802 22.8569 12.4468 24.0881 12.4468H27.7944Z" fill="#00778B"/>
<path d="M23.1562 28.0481H27.4667V32.391H23.1562V28.0481Z" fill="#00778B"/>
</g>
</g>
<defs>
<clipPath id="clip0_969_1706">
<rect width="51" height="55" fill="white"/>
</clipPath>
<clipPath id="clip1_969_1706">
<rect width="51" height="48.6538" fill="white" transform="translate(0 6.34616)"/>
</clipPath>
</defs>
</svg>
