<svg width="51" height="55" viewBox="0 0 51 55" fill="none" xmlns="http://www.w3.org/2000/svg">
<path d="M12.7509 27.157C12.7509 20.4429 12.7509 13.7319 12.7509 7.024C12.7509 4.07363 13.8804 2.84894 16.7245 2.84894C22.336 2.82575 27.9475 2.89533 33.5591 2.82111C36.4931 2.784 37.5417 4.51433 37.5417 6.99616C37.5177 20.4553 37.5177 33.9082 37.5417 47.355C37.5417 50.2265 36.3536 51.4697 33.6176 51.4744H16.5625C13.9345 51.4744 12.7644 50.2404 12.7644 47.4942C12.7524 40.7244 12.7479 33.9454 12.7509 27.157ZM15.5995 10.7027C15.5725 11.0321 15.5319 11.2918 15.5319 11.5516C15.5319 20.9548 15.5319 30.3579 15.5094 39.761C15.5094 40.6888 15.8964 40.8373 16.6525 40.8326C22.3 40.8326 27.9431 40.8048 33.5861 40.8326C34.5446 40.8326 34.7696 40.4894 34.7696 39.5616C34.7381 30.3115 34.7696 21.0614 34.7471 11.8114C34.7471 11.4449 34.7111 11.0738 34.6931 10.6934L15.5995 10.7027ZM25.1395 43.5464C22.3765 43.5464 19.6135 43.5975 16.8504 43.5186C15.7389 43.4861 15.4059 43.8758 15.5004 44.9613C15.5679 45.8057 15.5679 46.6544 15.5004 47.4988C15.4374 48.4266 15.7704 48.7977 16.711 48.7791C19.0645 48.7281 21.418 48.7791 23.7715 48.7791C27.0205 48.7791 30.2696 48.756 33.5186 48.7791C34.4186 48.7791 34.8146 48.4683 34.7426 47.5034C34.6841 46.7009 34.7426 45.8891 34.7426 45.0819C34.7426 43.5557 34.7426 43.5511 33.3116 43.5511L25.1395 43.5464ZM15.6894 7.71522H34.6256C34.9766 5.78078 34.8326 5.58593 33.1181 5.58129H17.215C15.4689 5.58129 15.3564 5.76687 15.6669 7.71522H15.6894Z" fill="#00778B"/>
<path d="M25.1483 47.2418C25.011 47.2524 24.8738 47.2167 24.745 47.1368C24.6163 47.0569 24.4986 46.9344 24.3992 46.7768C24.2998 46.6192 24.2207 46.4297 24.1667 46.2199C24.1127 46.0101 24.0849 45.7842 24.0851 45.5561C24.0786 45.3167 24.1016 45.0777 24.1528 44.8537C24.204 44.6297 24.2822 44.4253 24.3826 44.2532C24.4831 44.0811 24.6037 43.9449 24.737 43.8529C24.8703 43.7609 25.0135 43.715 25.1578 43.7181C25.8255 43.7864 26.1072 44.5793 26.199 45.5298C26.2907 46.4803 25.7369 47.226 25.1483 47.2418Z" fill="#00778B"/>
</svg>
