<svg xmlns="http://www.w3.org/2000/svg" width="201" height="133"><title>softact_solutions_logo</title><desc>Created with Sketch.</desc><g fill="none"><g><g><g><g><g><path id="Rectangle" fill="#4B5320" d="M.67 1h199.7v131.2H.66z"/><path stroke="#aaa" d="M.67 1h199.7v131.2H.66z"/><path id="Path" fill="#000" d="M17.53 62.5L8.35 48.52V22.95l9.3-14.22H44.5l9.18 14.22v11.48H41.88l.02-6.78-4.2-6.42H24.1l-4.1 6.43.1 15.72 4 6.27 20.36-.07 9.18 13.98v25.57l-9.38 14.23H17.53L8.35 89.13V77.65h11.78v6.78l4.2 6.42h13.56l4.08-6.43-.1-15.72-4-6.27-20.35.07M110.5 18.87V8.72H46.77l6.55 10.15H68.8v84.5L81.47 88.1V18.9h29.02"/><path id="Path" fill="#000" d="M8.38 117.83h4v4.66c0 .46.26.7.82.7.55 0 .82-.24.8-.7v-2.42c0-.74-.5-1.6-1.45-2.6-1.88-1.84-3.04-3.1-3.5-3.73-.43-.6-.67-1.32-.67-2.07v-2.3c0-2.62 1.7-3.94 5.08-3.94 3.03 0 4.55 1.2 4.55 3.6v3.52h-4v-3.74c0-.4-.2-.6-.65-.6-.52 0-.78.4-.78 1.17l.08 1.3c0 .77.5 1.65 1.48 2.65 1.83 1.8 3 3.04 3.5 3.74.5.7.75 1.54.74 2.4v2.6c0 2.7-1.7 4.06-5.1 4.06-3.25 0-4.9-1.24-4.9-3.7v-4.63z"/><path id="Shape" fill="#000" fill-rule="nonzero" d="M20.14 122.5v-13.1c0-2.64 1.68-3.96 5.04-3.96 3.3 0 4.96 1.3 4.96 3.93v13.1c.05 1.08-.47 2.1-1.38 2.72-.92.63-2.13.95-3.6.95-3.35 0-5.02-1.22-5.02-3.66zm5.73.2v-13.86c0-.4-.24-.6-.7-.6-.5 0-.73.2-.75.6v13.86c0 .4.25.6.74.6.5 0 .73-.2.7-.6z"/><path id="Path" fill="#000" d="M40.2 108.23h-3.83v5.5h3.43v2.47h-3.43v9.77h-4.4v-20.34h8.23zM50.93 108.27h-2.45v17.7h-4.4v-17.7h-2.44v-2.65h9.3z"/><path id="Shape" fill="#000" fill-rule="nonzero" d="M64.58 125.97h-4.36l-.74-5.46h-1.94l-.75 5.47h-4.35l3.27-20.35h5.57l3.28 20.35zm-5.44-8.28l-.63-6.1-.6 6.08h1.24z"/><path id="Path" fill="#000" d="M75.83 112.73h-3.98v-4.03c0-.33-.2-.5-.6-.5-.42 0-.65.17-.65.5v14.1c0 .35.2.5.64.5.43 0 .6-.15.6-.5v-5h4v5.16c0 .96-.48 1.73-1.4 2.32-.95.58-2.04.9-3.15.87-3.4 0-5.08-1.22-5.08-3.66v-13.1c0-2.64 1.7-3.96 5.07-3.96 3 0 4.53 1.2 4.53 3.6v3.7zM86.9 108.27h-2.46v17.7h-4.38v-17.7H77.6v-2.65h9.3zM94.48 117.83h3.98v4.66c0 .46.28.7.83.7.54 0 .8-.24.8-.7v-2.42c0-.74-.5-1.6-1.46-2.6-1.86-1.84-3.03-3.1-3.48-3.73-.44-.6-.68-1.33-.68-2.08v-2.28c0-2.64 1.7-3.96 5.08-3.96 3.03 0 4.54 1.2 4.54 3.6v3.52h-3.98v-3.74c0-.4-.22-.6-.67-.6-.52 0-.78.4-.78 1.17l.1 1.3c0 .77.48 1.65 1.47 2.65 1.83 1.8 3 3.04 3.5 3.74.5.7.75 1.54.74 2.4v2.6c0 2.7-1.7 4.06-5.1 4.06-3.26 0-4.9-1.23-4.9-3.7v-4.63z"/><path id="Shape" fill="#000" fill-rule="nonzero" d="M106.25 122.5v-13.1c0-2.64 1.68-3.96 5.03-3.96 3.3 0 4.97 1.3 4.97 3.93v13.1c0 1.17-.46 2.08-1.4 2.72-.9.63-2.1.95-3.6.95-3.33 0-5-1.22-5-3.66zm5.72.2v-13.86c0-.4-.24-.6-.7-.6-.48 0-.73.2-.75.6v13.86c0 .4.25.6.74.6.5 0 .73-.2.7-.6z"/><path id="Path" fill="#000" d="M126.36 125.97h-8.23v-20.34h4.4v17.73h3.83zM127.86 105.62h4.4v17.08c0 .4.23.6.72.6.5 0 .74-.2.73-.6v-17.08h4.4v16.84c.03 1.1-.5 2.14-1.44 2.72-.96.65-2.18.97-3.68.97-1.25.03-2.5-.26-3.6-.86-1-.58-1.52-1.5-1.52-2.8v-16.88zM149.12 108.27h-2.45v17.7h-4.4v-17.7h-2.44v-2.65h9.3zM155.23 125.97h-4.4v-20.34h4.4z"/><path fill="#000" fill-rule="nonzero" d="M156.68 122.5v-13.1c0-2.64 1.67-3.96 5.03-3.96 3.32 0 4.98 1.3 4.98 3.93v13.1c.04 1.08-.48 2.1-1.4 2.72-.9.63-2.12.95-3.6.95-3.34 0-5-1.22-5-3.66zm5.72.2v-13.86c0-.4-.24-.6-.7-.6-.5 0-.73.2-.75.6v13.86c0 .4.25.6.74.6.48 0 .72-.2.7-.6z"/><path id="Path" fill="#000" d="M179.67 125.97h-4.5l-3-10.84v10.84h-3.66v-20.34h5l2.5 9.28v-9.28h3.67zM181.44 117.83h3.98v4.66c0 .46.28.7.83.7.55 0 .82-.24.8-.7v-2.42c0-.74-.48-1.6-1.45-2.6-1.86-1.84-3.02-3.08-3.48-3.72-.44-.6-.68-1.33-.68-2.08v-2.3c0-2.62 1.7-3.94 5.08-3.94 3.03 0 4.54 1.2 4.54 3.6v3.52h-3.98v-3.74c0-.4-.22-.6-.67-.6-.5 0-.77.4-.77 1.17l.08 1.3c0 .77.5 1.65 1.5 2.65 1.83 1.8 3 3.04 3.5 3.74.5.7.75 1.54.74 2.4v2.6c0 2.7-1.7 4.06-5.1 4.06-3.27 0-4.9-1.23-4.9-3.7v-4.63z"/><path id="Path" fill="#aaa" d="M192.18 50.93h-79.75v10.2h79.75v-10.2M192.18 29.8h-79.75V40h79.75V29.8M192.18 8.72h-79.75v10.1h79.75V8.73M192.18 72.05H83.4v10.2H192.2v-10.2M192.18 93.17H79.78l-8.5 10.2h120.9v-10.2M103.33 10.48l.65 2h2.1l-1.7 1.23.66 2-1.7-1.22-1.7 1.23.65-2-1.72-1.22h2.1l.65-2"/><path id="Path" stroke="#aaa" d="M103.33 10.48l.65 2h2.1l-1.7 1.23.66 2-1.7-1.22-1.7 1.23.65-2-1.72-1.22h2.1z"/><path id="Path" fill="#aaa" d="M103.33 23.37l.65 2h2.1l-1.7 1.23.66 2-1.7-1.24-1.7 1.24.65-2-1.72-1.23h2.1l.65-2"/><path id="Path" stroke="#aaa" d="M103.33 23.37l.65 2h2.1l-1.7 1.23.66 2-1.7-1.24-1.7 1.24.65-2-1.72-1.23h2.1z"/><path id="Path" fill="#aaa" d="M103.33 36.2l.65 2h2.1l-1.7 1.24.66 2-1.7-1.24-1.7 1.24.65-2-1.72-1.24h2.1l.65-2"/><path id="Path" stroke="#aaa" d="M103.33 36.2l.65 2h2.1l-1.7 1.24.66 2-1.7-1.24-1.7 1.24.65-2-1.72-1.24h2.1z"/><path id="Path" fill="#aaa" d="M103.33 49.06l.65 2h2.1l-1.7 1.24.66 2-1.7-1.24-1.7 1.24.65-2-1.72-1.24h2.1l.65-2"/><path id="Path" stroke="#aaa" d="M103.33 49.06l.65 2h2.1l-1.7 1.24.66 2-1.7-1.24-1.7 1.24.65-2-1.72-1.24h2.1z"/><path id="Path" fill="#aaa" d="M103.33 61.9l.65 2h2.1l-1.7 1.24.66 2-1.7-1.24-1.7 1.24.65-2-1.72-1.24h2.1l.65-2"/><path id="Path" stroke="#aaa" d="M103.33 61.9l.65 2h2.1l-1.7 1.24.66 2-1.7-1.24-1.7 1.24.65-2-1.72-1.24h2.1z"/><path id="Path" fill="#aaa" d="M88.8 10.48l.64 2h2.1l-1.7 1.23.65 2-1.7-1.22-1.7 1.23.64-2-1.7-1.22h2.1l.65-2"/><path id="Path" stroke="#aaa" d="M88.8 10.48l.64 2h2.1l-1.7 1.23.65 2-1.7-1.22-1.7 1.23.64-2-1.7-1.22h2.1z"/><path id="Path" fill="#aaa" d="M88.8 23.37l.64 2h2.1l-1.7 1.23.65 2-1.7-1.24-1.7 1.24.64-2-1.7-1.23h2.1l.65-2"/><path id="Path" stroke="#aaa" d="M88.8 23.37l.64 2h2.1l-1.7 1.23.65 2-1.7-1.24-1.7 1.24.64-2-1.7-1.23h2.1z"/><path id="Path" fill="#aaa" d="M88.8 36.2l.64 2h2.1l-1.7 1.24.65 2-1.7-1.24-1.7 1.24.64-2-1.7-1.24h2.1l.65-2"/><path id="Path" stroke="#aaa" d="M88.8 36.2l.64 2h2.1l-1.7 1.24.65 2-1.7-1.24-1.7 1.24.64-2-1.7-1.24h2.1z"/><path id="Path" fill="#aaa" d="M88.8 49.06l.64 2h2.1l-1.7 1.24.65 2-1.7-1.24-1.7 1.24.64-2-1.7-1.24h2.1l.65-2"/><path id="Path" stroke="#aaa" d="M88.8 49.06l.64 2h2.1l-1.7 1.24.65 2-1.7-1.24-1.7 1.24.64-2-1.7-1.24h2.1z"/><path id="Path" fill="#aaa" d="M88.8 61.9l.64 2h2.1l-1.7 1.24.65 2-1.7-1.24-1.7 1.24.64-2-1.7-1.24h2.1l.65-2"/><path id="Path" stroke="#aaa" d="M88.8 61.9l.64 2h2.1l-1.7 1.24.65 2-1.7-1.24-1.7 1.24.64-2-1.7-1.24h2.1z"/><path id="Path" fill="#aaa" d="M96.05 16.88l.65 2h2.1l-1.7 1.24.65 2-1.7-1.24-1.7 1.24.65-2-1.7-1.24h2.1l.65-2"/><path id="Path" stroke="#aaa" d="M96.05 16.88l.65 2h2.1l-1.7 1.24.65 2-1.7-1.24-1.7 1.24.65-2-1.7-1.24h2.1z"/><path id="Path" fill="#aaa" d="M96.05 29.93l.65 2h2.1l-1.7 1.24.65 2-1.7-1.24-1.7 1.24.65-2-1.7-1.24h2.1l.65-2"/><path id="Path" stroke="#aaa" d="M96.05 29.93l.65 2h2.1l-1.7 1.24.65 2-1.7-1.24-1.7 1.24.65-2-1.7-1.24h2.1z"/><path id="Path" fill="#aaa" d="M96.05 42.95l.65 2h2.1l-1.7 1.24.65 2-1.7-1.25-1.7 1.24.65-2-1.7-1.25h2.1l.65-2"/><path id="Path" stroke="#aaa" d="M96.05 42.95l.65 2h2.1l-1.7 1.24.65 2-1.7-1.25-1.7 1.24.65-2-1.7-1.25h2.1z"/><path id="Path" fill="#aaa" d="M96.05 55.95l.65 2h2.1l-1.7 1.24.65 2-1.7-1.25-1.7 1.24.65-2-1.7-1.25h2.1l.65-2"/><path id="Path" stroke="#aaa" d="M96.05 55.95l.65 2h2.1l-1.7 1.24.65 2-1.7-1.25-1.7 1.24.65-2-1.7-1.25h2.1z"/><path id="Path" fill="#aaa" d="M81.48 16.88l.65 2h2.1l-1.7 1.24.65 2-1.7-1.24-1.7 1.24.65-2-1.7-1.24h2.1l.65-2"/><path id="Path" stroke="#aaa" d="M81.48 16.88l.65 2h2.1l-1.7 1.24.65 2-1.7-1.24-1.7 1.24.65-2-1.7-1.24h2.1z"/><path id="Path" fill="#aaa" d="M81.48 29.93l.65 2h2.1l-1.7 1.24.65 2-1.7-1.24-1.7 1.24.65-2-1.7-1.24h2.1l.65-2"/><path id="Path" stroke="#aaa" d="M81.48 29.93l.65 2h2.1l-1.7 1.24.65 2-1.7-1.24-1.7 1.24.65-2-1.7-1.24h2.1z"/><path id="Path" fill="#aaa" d="M81.48 42.95l.65 2h2.1l-1.7 1.24.65 2-1.7-1.25-1.7 1.24.65-2-1.7-1.25h2.1l.65-2"/><path id="Path" stroke="#aaa" d="M81.48 42.95l.65 2h2.1l-1.7 1.24.65 2-1.7-1.25-1.7 1.24.65-2-1.7-1.25h2.1z"/><path id="Path" fill="#aaa" d="M81.48 55.95l.65 2h2.1l-1.7 1.24.65 2-1.7-1.25-1.7 1.24.65-2-1.7-1.25h2.1l.65-2"/><path stroke="#aaa" d="M81.48 55.95l.65 2h2.1l-1.7 1.24.65 2-1.7-1.25-1.7 1.24.65-2-1.7-1.25h2.1z"/></g></g></g></g></g></g></svg>