<svg xmlns="http://www.w3.org/2000/svg" width="201" height="74"><title>star_communications_logo</title><desc>Created with Sketch.</desc><g fill="none"><g><g><g><g><g><path id="Path" fill="#022D6B" d="M64.73 0c.47 0 .7.3.65.7 0 3.55 0 7.03 0 10.57 0 .77 0 .82.83.82 3.96 0 12.33.05 12.56.05 0 1.9 0 3.78 0 5.67-.23 0-8.66 0-12.73 0-.53 0-.7.12-.7.7 0 5.08-.07 10.2-.07 15.3 0 2.23 0 4.53.6 6.77.93 3.7 3.76 6.18 7.6 6.6.88.06 1.7.12 2.6.12.82 0 1.64-.12 2.53-.24 0 1.83 0 3.66 0 5.66-1.78 0-3.43.06-5.14 0-2.07-.06-4.07-.53-5.9-1.4-4.13-2.02-6.84-5.15-7.6-9.75-.3-1.78-.42-3.66-.42-5.5-.06-3.36 0-6.66 0-10.02 0-8.38.06-25.6.06-25.9C60.72 0 64.08 0 64.73 0zM34.02 17c-.18 0-.3 0-.42 0-3.7-1.07-7.37 1.05-8.6 4.6-.95 2.65-1.36 5.42-1.6 8.2-.3 3.83-.6 7.66-1.6 11.38-.87 3.42-2.3 6.55-5 8.9-2.6 2.3-5.66 3.08-9.08 2.72-.24 0-.47 0-.65-.06-.17 0-.4-.06-.53-.1 0-1.84 0-3.67 0-5.56.36.06.6.06.83.12 3.12.6 6.2-1.06 7.72-4 1.1-2.26 1.58-4.67 1.88-7.15.35-3.25.6-6.5 1-9.74.47-3.6 1.4-7 3.54-10.02 2.7-3.7 6.48-5.37 11.08-4.95 1.42.12 1.42.17 1.42 1.6 0 1.35 0 2.65 0 4.06zM183.1 52.45c-1.34 0-5.76 0-6.06 0 0-1.65-.06-16.4-.06-20.18 0-2.95.06-5.9.83-8.73 1.2-4.42 3.9-7.73 7.8-10.1 3.3-2 6.83-2.64 10.6-2.47.36 0 .47.18.47.48 0 1.65.06 3.24.12 4.9 0 .46-.24.52-.6.52-1.47 0-2.9 0-4.36.42-4.48 1.05-8.02 5.12-8.55 9.6-.48 3.48-.3 6.85-.24 10.33.05 4.78.05 10.38.05 15.22z"/><path id="Path" fill="#5D9732" d="M57.6 68.55c0 .9 0 1.83 0 2.72 0 .47-.24.53-.65.53-.4 0-.47-.18-.47-.53.06-1.42.06-2.83.06-4.25 0-.53-.12-1.06-.24-1.53-.18-.84-.7-1.3-1.53-1.43-.95-.12-1.77.12-2.24.94-.24.5-.42 1.02-.42 1.5-.1 1.52-.1 3.06-.1 4.65 0 .47-.12.7-.65.77-.6 0-.53-.36-.53-.7 0-1.54.06-3.08.06-4.6 0-.72-.12-1.5-.7-2.02-1.25-1.18-3.2-.6-3.55 1.18-.18.95-.18 1.95-.23 2.95-.06.83-.06 1.7 0 2.54 0 .53-.24.65-.7.65-.48 0-.48-.3-.48-.65.06-1.7.06-3.48.17-5.2.1-1.4.82-2.47 2.12-2.94 1.3-.48 2.6-.36 3.6.7.35.36.58.3.94 0 1.06-1.12 2.35-1.23 3.7-.7 1.37.53 1.96 1.65 1.96 3.12 0 .77 0 1.54 0 2.3-.06 0-.12 0-.12 0zM34.07 71.86c0-1.54 0-3.07 0-4.54 0-.54 0-1.07-.1-1.6-.2-.88-.96-1.53-1.9-1.6-.77-.05-1.65.42-2 1.2-.18.46-.36 1-.36 1.46-.05 1.48-.1 3-.1 4.55 0 .53-.18.65-.66.65-.53 0-.53-.3-.53-.7.07-1.6.13-3.2.2-4.85.05-1.42.64-2.54 1.94-3.13 1.4-.6 2.7-.4 3.83.7.35.37.6.3.88-.05 1-1.06 2.3-1.3 3.6-.76 1.36.52 2.06 1.58 2.06 3.05 0 1.7-.05 3.43-.05 5.14 0 .4-.17.52-.6.52-.4 0-.52-.18-.52-.53 0-1.37.06-2.73.06-4.03 0-.53-.07-1.06-.13-1.53-.17-.94-.88-1.6-1.76-1.7-.82-.13-1.76.4-2.12 1.17-.17.42-.3.9-.35 1.37-.06 1.4-.12 2.9-.12 4.3-.1 1-.1 1-1.23.9zM108.36 69.5c.06.12.06.12.06.12.12 1.4-.3 1.88-1.9 2.12-2.4.4-4.76-1.12-5.24-3.42-.53-2.54.83-4.84 3.3-5.55 2.6-.7 5.37 1.24 5.55 3.96.12 1.4.06 2.9.12 4.3 0 .53-.24.53-.65.53-.42 0-.6-.1-.6-.6 0-1.46 0-2.88-.1-4.3-.25-2-2.07-3.3-3.9-2.83-1.9.48-3 2.54-2.36 4.5.7 2.05 3.18 3.23 5.36 1.46.12-.07.24-.18.36-.3z"/><path fill="#5D9732" fill-rule="nonzero" d="M136.72 67.43c.1 2.48-2 4.55-4.37 4.6-2.65 0-4.7-1.94-4.77-4.6-.06-2.53 1.88-4.6 4.36-4.6 2.6-.06 4.84 2.07 4.78 4.6zm-4.48 3.43c1.82 0 3.3-1.48 3.3-3.3 0-1.96-1.6-3.67-3.48-3.6-1.7 0-3.3 1.17-3.3 3.47 0 2.13 1.88 3.54 3.48 3.43zM15.62 67.67c0-2.6 1.95-4.6 4.42-4.72 2.36-.06 4.54 1.95 4.54 4.42 0 2.6-2.06 4.72-4.54 4.72-2.36.05-4.54-1.95-4.42-4.43zm7.72-.12c0-1.95-1.4-3.48-3.18-3.48-1.9 0-3.42 1.53-3.42 3.48s1.42 3.42 3.18 3.48c1.9 0 3.42-1.53 3.42-3.48z"/><path id="Path" fill="#5D9732" d="M184 70.1c0 .46 0 .93 0 1.46.06.48-.24.6-.65.6-.4 0-.7-.07-.7-.6 0-1.47-.07-2.95-.07-4.42 0-1.3-.64-2.3-1.76-2.72-1.54-.53-3.2.3-3.36 2.07-.18 1.64-.06 3.35-.12 5.06 0 .18-.24.53-.36.53-.3 0-.88.3-.94-.3 0-1.9-.12-3.78.12-5.6.17-1.6 1.53-2.78 3-3 1.9-.25 3.42.52 4.25 2.05.25.4.36.94.42 1.42.12 1.12.12 2.3.18 3.42zM141.9 71.92c-.3 0-.53.06-.76 0-.18-.06-.4-.24-.4-.36-.07-1.7-.07-3.36-.07-5.07.06-1.72 1-2.84 2.53-3.37 1.65-.53 3.07-.12 4.25 1.18.6.66.94 1.48.94 2.37.05 1.6.05 3.18.1 4.78 0 .4-.1.6-.58.6-.47 0-.65-.13-.65-.66 0-1.25 0-2.5-.06-3.73 0-.47-.05-1-.23-1.48-.35-1.36-1.47-2.13-2.88-2.07-1.2.06-2.2 1-2.3 2.3-.13 1.6-.07 3.2-.13 4.84.23.18.23.35.23.65zM81.53 68.67c0 .83 0 1.6 0 2.42 0 .46-.17.58-.6.58-.4 0-.52-.18-.52-.6 0-1.46.07-2.94-.05-4.4-.05-.6-.23-1.3-.6-1.78-.63-1-1.7-1.3-2.76-.95-1.07.36-1.83 1.3-1.9 2.54-.05 1.52-.1 3.06-.1 4.6 0 .4-.13.58-.6.58-.4 0-.65-.12-.6-.6.07-1.64.07-3.35.2-5 .1-1.7 1.58-3.43 4-3.37 1.88.07 3.42 1.55 3.53 3.44.06.88 0 1.7 0 2.53zM61.96 63c.47 0 .83 0 1.18 0 0 .95 0 1.9 0 2.78.06 1.12 0 2.24.24 3.36.23 1.07 1.3 1.66 2.3 1.66 1.06 0 2.23-.7 2.47-1.7.24-1.02.3-2.08.35-3.08.06-.9 0-1.77 0-2.66 0-.35.18-.47.48-.47.23 0 .64-.13.64.3-.05 1.87.06 3.82-.23 5.7-.3 2-2.07 3.14-4.26 2.96-1.7-.12-3.18-1.65-3.24-3.54 0-1.7.06-3.48.06-5.3zM193.84 70.68c.83.94.7 1.18-.47 1.47-3.12.77-5.83-1.83-5.66-4.6.2-3.13 3.2-5.3 6.14-4.13.42.18.54.36.36.77-.18.34-.24.64-.77.4-1.88-.88-4.18.53-4.36 2.77-.18 2 .94 3.5 2.9 3.78.58.12 1.3-.18 1.87-.3 0-.1 0-.17 0-.17zM118.5 70.62c.23 1.12.18 1.18-.9 1.18-1.8 0-3.1-1.24-3.17-3-.06-2.66-.06-5.32-.12-8.03 0-.48.25-.53.66-.6.4 0 .6.18.53.6 0 .47 0 .94 0 1.47 0 .47.17.65.64.65.6 0 1.18.05 1.77 0 .54-.07.6.17.6.64s-.18.53-.6.53c-.64 0-1.23-.06-1.88 0-.17 0-.47.24-.47.35 0 1.36-.06 2.78.06 4.13.13 1.54.9 2.07 2.43 2.07.17 0 .3 0 .47 0zM97.4 70.27c.64 1 .64 1.06-.42 1.4-2.77.84-5.66-1.4-5.66-4.4 0-3.02 2.83-5.2 5.66-4.44 1 .3 1.06.47.4 1.36-2-.66-3.23-.37-4.23 1-.83 1.17-.83 2.88.06 4.06.95 1.42 2.2 1.7 4.2 1zM12.32 63.54c-.3.94-.3.94-1.18.7-1.24-.3-2.36-.05-3.24.95-1 1.1-1.24 2.35-.7 3.77.52 1.24 1.46 1.94 2.82 2 .53 0 1.12-.23 1.7-.35 0 0 .07 0 .07.06.46.94.4 1-.6 1.3-2.6.76-5.2-1.36-5.42-3.72-.24-2.3 1.12-4.54 3.3-5.07 1.12-.37 2.24-.3 3.24.34zM158.18 64.2c-.83-.07-1.54.17-1.83.93-.18.47-.3 1-.35 1.54-.12 1.06-.18 2.12-.36 3.18-.23 1.24-1.24 2.13-2.3 2.24-1 .1-1.12 0-.94-1.13 1.3.06 1.9-.76 2.06-1.94.12-.6.12-1.18.18-1.77.12-.77.18-1.54.35-2.3.3-1 .94-1.72 2-1.95 1-.17 1.24.07 1.18 1.2zM171.68 72.1c-.3 0-.47 0-.65.05-.47.06-.7-.1-.7-.65 0-2.53-.07-5.13-.07-7.67 0-.35.06-.6.47-.6.48 0 .77.13.77.6 0 1.36 0 2.78 0 4.13 0 1.13.06 2.3.12 3.43.06.16.06.4.06.7zM122.2 67.32c0-1.24 0-2.54 0-3.78 0-.4.07-.65.54-.65.48 0 .65.17.65.64 0 2.54.05 5.07.1 7.6 0 .42-.05.72-.58.66-.47 0-.7-.12-.65-.65.06-1.3 0-2.54-.06-3.83.07 0 .07 0 0 0zM87.2 67.2c0 1.3 0 2.6 0 3.83 0 .42-.18.6-.6.6-.47 0-.6-.18-.6-.6 0-2.6.07-5.13.07-7.73 0-.4.18-.53.6-.53.4 0 .58.12.52.53 0 1.3 0 2.6 0 3.9zM159.7 73.45c.48-.6.66-1 .07-1.47-.4-.36-.18-1 .23-1.3.36-.24.95-.12 1.24.23.47.66-.12 2.32-.82 2.55-.18 0-.36 0-.7 0zM200.2 71.33c0 .47-.34.82-.87.82s-.9-.35-.9-.82.43-.9.9-.95c.4 0 .88.42.88.95zM170.85 59.76c.47 0 .83.42.83.83 0 .46-.36.76-.83.76-.4 0-.82-.42-.76-.83 0-.4.34-.77.75-.77zM86.72 59.4c.47.07.7.3.77.78.05.4-.37.82-.78.82-.47 0-.82-.35-.76-.88 0-.47.3-.7.76-.7zM122.74 59.53c.48 0 .77.3.77.76 0 .47-.23.76-.7.76-.53 0-.82-.23-.82-.7.06-.54.3-.83.76-.83z"/><path id="Path" fill="#022D6B" d="M145.62 51.56c-.06-3.12-.06-6.3-.12-9.44-.06-4.24.12-8.5-.53-12.74-.6-3.83-1.77-7.43-4.36-10.32-5.65-6.5-12.84-8.85-21.28-7.02-3.77.82-6.95 2.83-9.66 5.48-5.37 5.3-7.2 11.8-5.72 19.06 1.47 7.37 6 12.45 13.03 15.22 3.7 1.47 7.54 1.6 11.43.88 3.2-.53 6.08-1.88 8.67-3.83v-7.32c-.06.06-.12.12-.24.24-1.7 1.6-3.47 3-5.6 4.07-3.83 1.9-7.78 2.42-11.8.9-5.53-2.2-9-6.2-9.83-12.23-.36-2.7-.18-5.36.82-7.9 2.48-6.25 9.26-11.2 17.22-9.25 5.36 1.3 9.14 4.48 10.9 9.85.83 2.53.95 5.2 1 7.84.12 5.5.12 11.04.12 16.52 0 .24 0 .48 0 .77 1.83 0 3.54 0 5.25 0 .72 0 .72 0 .72-.77z"/><path fill="#5D9732" d="M5.95 4.6l1.42 3.48 3.7.24-2.88 2.42.94 3.7-3.2-2-3.23 2 .95-3.7-2.9-2.42 3.8-.24z"/></g></g></g></g></g></g></svg>