<svg xmlns="http://www.w3.org/2000/svg" viewBox="0 0 500 200" enable-background="new 0 0 500 200"><style type="text/css">.st0{fill:#022D6B;} .st1{fill:#5D9732;}</style><path d="M190 36c.8 0 1.2.5 1.1 1.2 0 6 0 11.9 0 17.9 0 1.3 0 1.4 1.4 1.4 6.7 0 20.9.1 21.3.1 0 3.2 0 6.4 0 9.6-.4 0-14.7 0-21.6 0-.9 0-1.2.2-1.2 1.2 0 8.6-.1 17.3-.1 25.9 0 3.8 0 7.7 1 11.5 1.6 6.3 6.4 10.5 12.9 11.2 1.5.1 2.9.2 4.4.2 1.4 0 2.8-.2 4.3-.4 0 3.1 0 6.2 0 9.6-3 0-5.8.1-8.7 0-3.5-.1-6.9-.9-10-2.4-7-3.4-11.6-8.7-12.9-16.5-.5-3-.7-6.2-.7-9.3-.1-5.7 0-11.3 0-17 0-14.2.1-43.4.1-43.9 1.9-.3 7.6-.3 8.7-.3zM137.9 64.8c-.3 0-.5 0-.7 0-6.3-1.8-12.5 1.8-14.6 7.8-1.6 4.5-2.3 9.2-2.7 13.9-.5 6.5-1 13-2.7 19.3-1.5 5.8-3.9 11.1-8.5 15.1-4.4 3.9-9.6 5.2-15.4 4.6-.4 0-.8 0-1.1-.1-.3 0-.7-.1-.9-.2 0-3.1 0-6.2 0-9.4.6.1 1 .1 1.4.2 5.3 1 10.5-1.8 13.1-6.8 1.9-3.8 2.7-7.9 3.2-12.1.6-5.5 1-11 1.7-16.5.8-6.1 2.4-11.9 6-17 4.6-6.3 11-9.1 18.8-8.4 2.4.2 2.4.3 2.4 2.7 0 2.3 0 4.5 0 6.9zM390.8 124.9c-2.3 0-9.8 0-10.3 0 0-2.8-.1-27.8-.1-34.2 0-5 .1-10 1.4-14.8 2-7.5 6.6-13.1 13.2-17.1 5.6-3.4 11.6-4.5 18-4.2.6 0 .8.3.8.8 0 2.8.1 5.5.2 8.3 0 .8-.4.9-1 .9-2.5 0-4.9 0-7.4.7-7.6 1.8-13.6 8.7-14.5 16.3-.8 5.9-.5 11.6-.4 17.5.1 8.1.1 17.6.1 25.8z" class="st0"/><path d="M177.9 152.2c0 1.5 0 3.1 0 4.6 0 .8-.4.9-1.1.9-.7 0-.8-.3-.8-.9.1-2.4.1-4.8.1-7.2 0-.9-.2-1.8-.4-2.6-.3-1.4-1.2-2.2-2.6-2.4-1.6-.2-3 .2-3.8 1.6-.4.8-.7 1.7-.7 2.5-.2 2.6-.2 5.2-.2 7.9 0 .8-.2 1.2-1.1 1.3-1 0-.9-.6-.9-1.2 0-2.6.1-5.2.1-7.8 0-1.2-.2-2.5-1.2-3.4-2.1-2-5.4-1-6 2-.3 1.6-.3 3.3-.4 5-.1 1.4-.1 2.9 0 4.3 0 .9-.4 1.1-1.2 1.1-.8 0-.8-.5-.8-1.1.1-2.9.1-5.9.3-8.8.2-2.4 1.4-4.2 3.6-5 2.2-.8 4.4-.6 6.1 1.2.6.6 1 .5 1.6 0 1.8-1.9 4-2.1 6.3-1.2 2.3.9 3.3 2.8 3.3 5.3 0 1.3 0 2.6 0 3.9-.1 0-.2 0-.2 0zM138 157.8c0-2.6 0-5.2 0-7.7 0-.9 0-1.8-.2-2.7-.3-1.5-1.6-2.6-3.2-2.7-1.3-.1-2.8.7-3.4 2-.3.8-.6 1.7-.6 2.5-.1 2.5-.2 5.1-.2 7.7 0 .9-.3 1.1-1.1 1.1-.9 0-.9-.5-.9-1.2.1-2.7.2-5.4.3-8.2.1-2.4 1.1-4.3 3.3-5.3 2.4-1 4.6-.7 6.5 1.2.6.6 1 .5 1.5-.1 1.7-1.8 3.9-2.2 6.1-1.3 2.3.9 3.5 2.7 3.5 5.2 0 2.9-.1 5.8-.1 8.7 0 .7-.3.9-1 .9s-.9-.3-.9-.9c0-2.3.1-4.6.1-6.8 0-.9-.1-1.8-.2-2.6-.3-1.6-1.5-2.7-3-2.9-1.4-.2-3 .7-3.6 2-.3.7-.5 1.5-.6 2.3-.1 2.4-.2 4.9-.2 7.3-.2 1.7-.2 1.7-2.1 1.5zM264 153.8c.1.2.1.2.1.2.2 2.4-.5 3.2-3.2 3.6-4.1.7-8.1-1.9-8.9-5.8-.9-4.3 1.4-8.2 5.6-9.4 4.4-1.2 9.1 2.1 9.4 6.7.2 2.4.1 4.9.2 7.3 0 .9-.4.9-1.1.9-.7 0-1-.2-1-1 0-2.5 0-4.9-.2-7.3-.4-3.4-3.5-5.6-6.6-4.8-3.2.8-5.1 4.3-4 7.6 1.2 3.5 5.4 5.5 9.1 2.5.2-.1.4-.3.6-.5zM312.1 150.3c.2 4.2-3.4 7.7-7.4 7.8-4.5 0-8-3.3-8.1-7.8-.1-4.3 3.2-7.8 7.4-7.8 4.4-.1 8.2 3.5 8.1 7.8zm-7.6 5.8c3.1 0 5.6-2.5 5.6-5.6 0-3.3-2.7-6.2-5.9-6.1-2.9 0-5.6 2-5.6 5.9 0 3.6 3.2 6 5.9 5.8zM106.7 150.7c0-4.4 3.3-7.8 7.5-8 4-.1 7.7 3.3 7.7 7.5 0 4.4-3.5 8-7.7 8-4 .1-7.7-3.3-7.5-7.5zm13.1-.2c0-3.3-2.4-5.9-5.4-5.9-3.2 0-5.8 2.6-5.8 5.9 0 3.3 2.4 5.8 5.4 5.9 3.2 0 5.8-2.6 5.8-5.9zM392.3 154.8c0 .8 0 1.6 0 2.5.1.8-.4 1-1.1 1-.7 0-1.2-.1-1.2-1 0-2.5-.1-5-.1-7.5 0-2.2-1.1-3.9-3-4.6-2.6-.9-5.4.5-5.7 3.5-.3 2.8-.1 5.7-.2 8.6 0 .3-.4.9-.6.9-.5 0-1.5.5-1.6-.5 0-3.2-.2-6.4.2-9.5.3-2.7 2.6-4.7 5.1-5.1 3.2-.4 5.8.9 7.2 3.5.4.7.6 1.6.7 2.4.2 1.9.2 3.9.3 5.8zM320.9 157.9c-.5 0-.9.1-1.3 0-.3-.1-.7-.4-.7-.6-.1-2.9-.1-5.7-.1-8.6.1-2.9 1.7-4.8 4.3-5.7 2.8-.9 5.2-.2 7.2 2 1 1.1 1.6 2.5 1.6 4 .1 2.7.1 5.4.2 8.1 0 .7-.2 1-1 1s-1.1-.2-1.1-1.1c0-2.1 0-4.2-.1-6.3 0-.8-.1-1.7-.4-2.5-.6-2.3-2.5-3.6-4.9-3.5-2 .1-3.7 1.7-3.9 3.9-.2 2.7-.1 5.4-.2 8.2.4.3.4.6.4 1.1zM218.5 152.4c0 1.4 0 2.7 0 4.1 0 .8-.3 1-1 1s-.9-.3-.9-1c0-2.5.1-5-.1-7.5-.1-1-.4-2.2-1-3-1.1-1.7-2.9-2.2-4.7-1.6-1.8.6-3.1 2.2-3.2 4.3-.1 2.6-.2 5.2-.2 7.8 0 .7-.2 1-1 1-.7 0-1.1-.2-1-1 .1-2.8.1-5.7.3-8.5.2-2.9 2.7-5.8 6.8-5.7 3.2.1 5.8 2.6 6 5.8.1 1.5 0 2.9 0 4.3zM185.3 142.8c.8 0 1.4 0 2 0 0 1.6 0 3.2 0 4.7.1 1.9 0 3.8.4 5.7.4 1.8 2.2 2.8 3.9 2.8 1.8 0 3.8-1.2 4.2-2.9.4-1.7.5-3.5.6-5.2.1-1.5 0-3 0-4.5 0-.6.3-.8.8-.8.4 0 1.1-.2 1.1.5-.1 3.2.1 6.5-.4 9.7-.5 3.4-3.5 5.3-7.2 5-2.9-.2-5.4-2.8-5.5-6 0-2.9.1-5.9.1-9zM409 155.8c1.4 1.6 1.2 2-.8 2.5-5.3 1.3-9.9-3.1-9.6-7.8.3-5.3 5.4-9 10.4-7 .7.3.9.6.6 1.3-.3.6-.4 1.1-1.3.7-3.2-1.5-7.1.9-7.4 4.7-.3 3.4 1.6 5.9 4.9 6.4 1 .2 2.2-.3 3.2-.5 0-.2 0-.3 0-.3zM281.2 155.7c.4 1.9.3 2-1.5 2-3.1 0-5.3-2.1-5.4-5.1-.1-4.5-.1-9-.2-13.6 0-.8.4-.9 1.1-1 .7 0 1 .3.9 1 0 .8 0 1.6 0 2.5 0 .8.3 1.1 1.1 1.1 1 0 2 .1 3 0 .9-.1 1 .3 1 1.1s-.3.9-1 .9c-1.1 0-2.1-.1-3.2 0-.3 0-.8.4-.8.6 0 2.3-.1 4.7.1 7 .2 2.6 1.5 3.5 4.1 3.5.3 0 .5 0 .8 0zM245.4 155.1c1.1 1.7 1.1 1.8-.7 2.4-4.7 1.4-9.6-2.4-9.6-7.5s4.8-8.8 9.6-7.5c1.7.5 1.8.8.7 2.3-3.4-1.1-5.5-.6-7.2 1.7-1.4 2-1.4 4.9.1 6.9 1.6 2.4 3.7 2.9 7.1 1.7zM101.1 143.7c-.5 1.6-.5 1.6-2 1.2-2.1-.5-4-.1-5.5 1.6-1.7 1.9-2.1 4-1.2 6.4.9 2.1 2.5 3.3 4.8 3.4.9 0 1.9-.4 2.9-.6 0 0 .1 0 .1.1.8 1.6.7 1.7-1 2.2-4.4 1.3-8.8-2.3-9.2-6.3-.4-3.9 1.9-7.7 5.6-8.6 1.9-.6 3.8-.5 5.5.6zM348.5 144.8c-1.4-.1-2.6.3-3.1 1.6-.3.8-.5 1.7-.6 2.6-.2 1.8-.3 3.6-.6 5.4-.4 2.1-2.1 3.6-3.9 3.8-1.7.2-1.9 0-1.6-1.9 2.2.1 3.2-1.3 3.5-3.3.2-1 .2-2 .3-3 .2-1.3.3-2.6.6-3.9.5-1.7 1.6-2.9 3.4-3.3 1.7-.3 2.1.1 2 2zM371.4 158.2c-.5 0-.8 0-1.1.1-.8.1-1.2-.2-1.2-1.1 0-4.3-.1-8.7-.1-13 0-.6.1-1 .8-1 .8 0 1.3.2 1.3 1 0 2.3 0 4.7 0 7 0 1.9.1 3.9.2 5.8.1.3.1.7.1 1.2zM287.5 150.1c0-2.1 0-4.3 0-6.4 0-.7.1-1.1.9-1.1s1.1.3 1.1 1.1c0 4.3.1 8.6.2 12.9 0 .7-.1 1.2-1 1.1-.8 0-1.2-.2-1.1-1.1.1-2.2 0-4.3-.1-6.5.1 0 .1 0 0 0zM228.1 149.9c0 2.2 0 4.4 0 6.5 0 .7-.3 1-1 1-.8 0-1-.3-1-1 0-4.4.1-8.7.1-13.1 0-.7.3-.9 1-.9s1 .2.9.9c0 2.2 0 4.4 0 6.6zM351.1 160.5c.8-1 1.1-1.7.1-2.5-.7-.6-.3-1.7.4-2.2.6-.4 1.6-.2 2.1.4.8 1.1-.2 3.9-1.4 4.3-.3 0-.6 0-1.2 0zM419.8 156.9c0 .8-.6 1.4-1.5 1.4s-1.5-.6-1.5-1.4c0-.8.7-1.5 1.5-1.6.7 0 1.5.7 1.5 1.6zM370 137.3c.8 0 1.4.7 1.4 1.4 0 .8-.6 1.3-1.4 1.3-.7 0-1.4-.7-1.3-1.4 0-.7.6-1.3 1.3-1.3zM227.3 136.7c.8.1 1.2.5 1.3 1.3.1.7-.6 1.4-1.3 1.4-.8 0-1.4-.6-1.3-1.5 0-.8.5-1.2 1.3-1.2zM288.4 136.9c.8 0 1.3.5 1.3 1.3s-.4 1.3-1.2 1.3c-.9 0-1.4-.4-1.4-1.2.1-.9.5-1.4 1.3-1.4z" class="st1"/><path d="M327.2 123.4c-.1-5.3-.1-10.7-.2-16-.1-7.2.2-14.4-.9-21.6-1-6.5-3-12.6-7.4-17.5-9.6-11-21.8-15-36.1-11.9-6.4 1.4-11.8 4.8-16.4 9.3-9.1 9-12.2 20-9.7 32.3 2.5 12.5 10.2 21.1 22.1 25.8 6.3 2.5 12.8 2.7 19.4 1.5 5.4-.9 10.3-3.2 14.7-6.5v-12.4c-.1.1-.2.2-.4.4-2.9 2.7-5.9 5.1-9.5 6.9-6.5 3.2-13.2 4.1-20 1.5-9.4-3.7-15.3-10.5-16.7-20.7-.6-4.6-.3-9.1 1.4-13.4 4.2-10.6 15.7-19 29.2-15.7 9.1 2.2 15.5 7.6 18.5 16.7 1.4 4.3 1.6 8.8 1.7 13.3.2 9.3.2 18.7.2 28 0 .4 0 .8 0 1.3 3.1 0 6 0 8.9 0 1.2 0 1.2 0 1.2-1.3z" class="st0"/><path d="M90.3 43.8l2.4 5.9 6.3.4-4.9 4.1 1.6 6.3-5.4-3.4-5.5 3.4 1.6-6.3-4.9-4.1 6.4-.4z" class="st1"/></svg>