<svg xmlns="http://www.w3.org/2000/svg" viewBox="0 0 500 200" enable-background="new 0 0 500 200"><style type="text/css">.st0{fill:#D63631;} .st1{fill:#FFCA25;} .st2{fill:#979797;}</style><path d="M82.5 63h30v30h-30z" class="st0"/><path d="M120.5 63h30v30h-30z"/><path d="M82.5 101h30v30h-30z" class="st1"/><path d="M120.5 101h30v30h-30zM372.2 126.7c-3.2 3-7.7 4.3-13.2 4.3-11.2 0-20.9-9-20.9-21.5S347.4 88 358.7 88c5.5 0 10.5 1.8 13.1 4.6l-.1 7.3c-4.2-4.2-9-5.3-12.9-5.3-8.2 0-15 5.8-15 14.9 0 9.1 6.8 15.1 15 15.1 3.9 0 9.5-2.2 13.3-5.6l.1 7.7zM375.7 109.4c0-12.7 9.5-20.8 21-20.8 11.4 0 21 8.1 21 20.8 0 12.7-9.5 21-21 21-11.4 0-21-8.3-21-21zm36.3 0c0-9.3-7-15.1-15.3-15.1s-15.3 5.8-15.3 15.1 7 15.4 15.3 15.4 15.3-6.2 15.3-15.4z" class="st2"/><path d="M198.3 63.3v6.4h-16.7v60.7h-6.2V69.7h-16v-6.4h38.9zM215.1 94.3c-.8-.2-1.6-.2-2.2-.2-8 0-11.3 10.1-11.3 20.6v15.7h-5.7V89.2h5.7v9c1.9-6.8 5.6-9.8 11.3-9.8 1.6 0 3.3.3 4.6.7-1.1 2.1-1.7 3.7-2.4 5.2zM224.7 69.1c2.4 0 4.3 1.7 4.3 4.1 0 2.4-1.9 4.1-4.3 4.1s-4.3-1.7-4.3-4.1c0-2.4 1.9-4.1 4.3-4.1zm2.7 20.1h-5.6v41.2h5.6V89.2zM234.5 63.5h6.3v32.1c3-5 8.9-7.3 14.7-7.3 11.2 0 20.4 8.7 20.4 21.2s-9 21.5-20.3 21.5c-5.8 0-11.9-3.4-14.8-8.4v7.8h-6.3V63.5zm21.2 31.2c-7.1 0-14.6 4.9-14.6 14.6s6.6 15.2 14.6 15.2c8.2 0 14-5.9 14-14.7 0-9-5.8-15.1-14-15.1zM320.5 130.4h-6.3v-7.8c-3 5-9 8.5-14.7 8.5-11.2 0-19.8-9-19.8-21.5s7.9-21.8 19.2-21.8c5.8 0 12.4 3.6 15.4 8.6v-7.5h6.3v41.5zm-21.2-5.8c8 0 14.9-5.3 14.9-15s-7.8-14.8-14.9-14.8c-8.2 0-14 5.9-14 14.9 0 8.8 5.8 14.9 14 14.9zM333.9 130.7h-6.4V63.9h6.4v66.8z" class="st0"/></svg>