<?xml version="1.0" encoding="utf-8"?>
<!-- Generator: Adobe Illustrator 23.1.1, SVG Export Plug-In . SVG Version: 6.00 Build 0)  -->
<svg version="1.1" xmlns="http://www.w3.org/2000/svg" xmlns:xlink="http://www.w3.org/1999/xlink" x="0px" y="0px"
	 viewBox="0 0 74.991 75.012" style="enable-background:new 0 0 74.991 75.012;" xml:space="preserve">
<style type="text/css">
	.st0{fill:#00778B;}
	.st1{fill:#FFFFFF;}
	.st2{fill:#008599;}
	.st3{fill:none;stroke:#00778B;stroke-width:2.1;stroke-linejoin:round;stroke-miterlimit:10;}
	.st4{display:none;}
	.st5{display:inline;fill:none;stroke:#231F20;stroke-width:3;stroke-miterlimit:10;}
</style>
<g id="ICONS">
	<g>
		<g>
			<path class="st0" d="M45.787,16.178l-0.167-0.037c-2.695-0.29-5.437-0.437-8.148-0.437c-2.713,0-5.456,0.147-8.154,0.438
				l-0.183,0.042c-0.241,0.097-0.398,0.331-0.398,0.595v1.173h17.47v-1.173C46.208,16.517,46.052,16.284,45.787,16.178z"/>
			<path class="st0" d="M34.959,59.573h5.026c0.235,0,0.426-0.191,0.426-0.427v-1.201c0-0.235-0.191-0.427-0.426-0.427h-5.026
				c-0.235,0-0.426,0.192-0.426,0.427v1.201C34.533,59.381,34.724,59.573,34.959,59.573z"/>
		</g>
		<rect x="24.837" y="20.271" class="st0" width="25.302" height="2.1"/>
		<rect x="24.837" y="53.225" class="st0" width="25.302" height="2.1"/>
		<path class="st0" d="M37.781,64.391c-0.007,0-0.016,0-0.021,0c-4.582,0-6.394-0.184-7.732-0.356
			c-1.243-0.159-2.944-0.378-4.214-1.561c-1.068-0.996-1.953-2.006-1.953-4.273V17.154c0-1.744,0.604-3.348,1.657-4.401
			c1.151-1.15,2.303-1.499,4.025-1.741c1.632-0.229,3.161-0.391,7.996-0.391h0.463c4.733,0,5.823,0.153,7.474,0.384
			c1.769,0.248,2.921,0.597,4.071,1.747c1.053,1.054,1.657,2.658,1.657,4.401V58.2c0,2.269-0.884,3.277-1.953,4.273
			c-1.27,1.183-2.971,1.401-4.213,1.561l-0.11,0.015C43.687,64.209,42.28,64.391,37.781,64.391L37.781,64.391z M37.539,12.722
			c-4.709,0-6.108,0.147-7.704,0.371c-1.539,0.216-2.148,0.462-2.833,1.146c-0.662,0.662-1.042,1.725-1.042,2.916V58.2
			c0,1.468,0.464,1.972,1.285,2.737c0.718,0.669,1.761,0.849,3.05,1.015c1.275,0.163,3.009,0.339,7.475,0.339
			c4.373,0,5.652-0.165,6.889-0.325l0.111-0.014c1.288-0.166,2.331-0.346,3.049-1.016c0.821-0.765,1.285-1.269,1.285-2.736V17.154
			c0-1.19-0.38-2.253-1.043-2.916c-0.684-0.684-1.292-0.93-2.832-1.146c-1.665-0.234-2.642-0.371-7.228-0.371H37.539z"/>
	</g>
</g>
<g id="Layer_2" class="st4">
</g>
</svg>
