<?xml version="1.0" encoding="utf-8"?>
<!-- Generator: Adobe Illustrator 23.1.1, SVG Export Plug-In . SVG Version: 6.00 Build 0)  -->
<svg version="1.1" xmlns="http://www.w3.org/2000/svg" xmlns:xlink="http://www.w3.org/1999/xlink" x="0px" y="0px"
	 viewBox="0 0 74.991 75.012" style="enable-background:new 0 0 74.991 75.012;" xml:space="preserve">
<style type="text/css">
	.st0{fill:#00778B;}
	.st1{fill:#FFFFFF;}
	.st2{fill:#008599;}
	.st3{fill:none;stroke:#00778B;stroke-width:2.1;stroke-linejoin:round;stroke-miterlimit:10;}
	.st4{display:none;}
	.st5{display:inline;fill:none;stroke:#231F20;stroke-width:3;stroke-miterlimit:10;}
</style>
<g id="ICONS">
	<g>
		<path class="st2" d="M37.503,56.496L37.503,56.496c-0.884,0-1.608-0.717-1.608-1.6c0-0.884,0.724-1.601,1.608-1.601
			c0.876,0,1.594,0.718,1.594,1.601C39.096,55.779,38.379,56.496,37.503,56.496"/>
		<g>
			<g>
				<path class="st0" d="M45.252,60.635H29.746c-2.448,0-4.439-2.001-4.439-4.461V18.833c0-2.457,1.991-4.455,4.439-4.455h15.506
					c2.444,0,4.432,1.999,4.432,4.455v37.341C49.684,58.634,47.696,60.635,45.252,60.635z M29.746,16.478
					c-1.29,0-2.34,1.057-2.34,2.355v37.341c0,1.302,1.05,2.361,2.34,2.361h15.506c1.286,0,2.333-1.06,2.333-2.361V18.833
					c0-1.299-1.046-2.355-2.333-2.355H29.746z"/>
			</g>
		</g>
		<rect x="36.429" y="40.07" transform="matrix(0.0041 -1 1 0.0041 -13.7037 88.2951)" class="st0" width="2.1" height="21.915"/>
		<rect x="36.429" y="10.433" transform="matrix(0.0041 -1 1 0.0041 15.9338 58.7802)" class="st0" width="2.1" height="21.915"/>
		<path class="st2" d="M43.293,34.723H39.96c-0.965,0-1.75-0.785-1.75-1.75V29.64c0-0.965,0.785-1.75,1.75-1.75h3.333
			c0.965,0,1.75,0.785,1.75,1.75v3.333C45.043,33.938,44.258,34.723,43.293,34.723z M39.96,29.39c-0.136,0-0.25,0.114-0.25,0.25
			v3.333c0,0.136,0.114,0.25,0.25,0.25h3.333c0.136,0,0.25-0.114,0.25-0.25V29.64c0-0.136-0.114-0.25-0.25-0.25H39.96z"/>
		<path class="st2" d="M35.113,34.723h-3.333c-0.965,0-1.75-0.785-1.75-1.75V29.64c0-0.965,0.785-1.75,1.75-1.75h3.333
			c0.965,0,1.75,0.785,1.75,1.75v3.333C36.863,33.938,36.077,34.723,35.113,34.723z M31.779,29.39c-0.136,0-0.25,0.114-0.25,0.25
			v3.333c0,0.136,0.114,0.25,0.25,0.25h3.333c0.136,0,0.25-0.114,0.25-0.25V29.64c0-0.136-0.114-0.25-0.25-0.25H31.779z"/>
		<path class="st2" d="M43.293,42.682H39.96c-0.965,0-1.75-0.785-1.75-1.75v-3.333c0-0.965,0.785-1.75,1.75-1.75h3.333
			c0.965,0,1.75,0.785,1.75,1.75v3.333C45.043,41.896,44.258,42.682,43.293,42.682z M39.96,37.348c-0.136,0-0.25,0.114-0.25,0.25
			v3.333c0,0.136,0.114,0.25,0.25,0.25h3.333c0.136,0,0.25-0.114,0.25-0.25v-3.333c0-0.136-0.114-0.25-0.25-0.25H39.96z"/>
		<path class="st2" d="M35.113,42.682h-3.333c-0.965,0-1.75-0.785-1.75-1.75v-3.333c0-0.965,0.785-1.75,1.75-1.75h3.333
			c0.965,0,1.75,0.785,1.75,1.75v3.333C36.863,41.896,36.077,42.682,35.113,42.682z M31.779,37.348c-0.136,0-0.25,0.114-0.25,0.25
			v3.333c0,0.136,0.114,0.25,0.25,0.25h3.333c0.136,0,0.25-0.114,0.25-0.25v-3.333c0-0.136-0.114-0.25-0.25-0.25H31.779z"/>
	</g>
</g>
<g id="Layer_2" class="st4">
</g>
</svg>
