<?xml version="1.0" encoding="utf-8"?>
<!-- Generator: Adobe Illustrator 23.1.1, SVG Export Plug-In . SVG Version: 6.00 Build 0)  -->
<svg version="1.1" xmlns="http://www.w3.org/2000/svg" xmlns:xlink="http://www.w3.org/1999/xlink" x="0px" y="0px"
	 viewBox="0 0 74.991 75.012" style="enable-background:new 0 0 74.991 75.012;" xml:space="preserve">
<style type="text/css">
	.st0{fill:#00778B;}
	.st1{fill:#FFFFFF;}
	.st2{fill:#008599;}
	.st3{fill:none;stroke:#00778B;stroke-width:2.1;stroke-linejoin:round;stroke-miterlimit:10;}
	.st4{display:none;}
	.st5{display:inline;fill:none;stroke:#231F20;stroke-width:3;stroke-miterlimit:10;}
</style>
<g id="ICONS">
	<g>
		<path class="st0" d="M31.142,59.306h-9.981c-3.456-0.189-6.655-1.793-9.065-4.516c-2.329-2.638-3.61-5.983-3.61-9.424
			c0-4.03,1.855-7.87,4.994-10.398c-0.064-0.473-0.096-0.932-0.096-1.389c0-5.852,5.132-10.539,11.08-9.848
			c1.325-2.1,3.119-3.912,5.223-5.271c2.783-1.802,6.019-2.754,9.354-2.754c4.318,0,8.45,1.604,11.633,4.518
			c2.708,2.477,4.514,5.647,5.251,9.203c6.157,1.939,10.567,7.972,10.579,14.603c0,3.835-1.428,7.516-4.021,10.367
			c-2.613,2.884-6.137,4.622-9.924,4.894l-21.238,0.003C31.259,59.302,31.202,59.306,31.142,59.306z M23.3,25.763
			c-4.31,0-7.816,3.506-7.816,7.816c0,0.527,0.054,1.064,0.166,1.641c0.077,0.4-0.084,0.809-0.414,1.048
			c-2.912,2.118-4.65,5.519-4.65,9.098c0,2.928,1.095,5.78,3.084,8.032c2.035,2.3,4.716,3.652,7.55,3.809l31.265-0.013
			c3.169-0.23,6.195-1.726,8.444-4.208c2.242-2.466,3.477-5.646,3.477-8.954c-0.011-5.922-4.073-11.29-9.659-12.76
			c-0.399-0.105-0.7-0.435-0.769-0.841c-0.564-3.354-2.196-6.348-4.72-8.657c-2.796-2.559-6.423-3.968-10.216-3.968
			c-2.93,0-5.771,0.836-8.214,2.418c-2.029,1.31-3.728,3.098-4.915,5.171c-0.222,0.389-0.666,0.592-1.105,0.511
			C24.302,25.812,23.795,25.763,23.3,25.763z"/>
	</g>
</g>
<g id="Layer_2" class="st4">
</g>
</svg>
