<svg width="25" height="24" viewBox="0 0 25 24" fill="none" xmlns="http://www.w3.org/2000/svg">
<path fill-rule="evenodd" clip-rule="evenodd" d="M14.7044 3.16574L12.2442 5.62594C11.8533 6.01684 11.2195 6.01684 10.8286 5.62594C10.4377 5.23503 10.4377 4.60125 10.8286 4.21035L13.306 1.73294C13.3169 1.72202 13.3281 1.71135 13.3395 1.70095C14.5787 0.571494 16.2054 -0.0370583 17.8816 0.00174813C19.5579 0.0405546 21.1547 0.723736 22.3403 1.90932C23.5258 3.09491 24.209 4.69173 24.2478 6.36796C24.2866 8.04418 23.6781 9.67091 22.5486 10.9101C22.5378 10.9219 22.5267 10.9335 22.5154 10.9449L18.977 14.4707C18.9766 14.4711 18.9762 14.4716 18.9757 14.472C18.3727 15.077 17.6562 15.557 16.8673 15.8847C16.0779 16.2125 15.2315 16.3813 14.3766 16.3813C13.5218 16.3813 12.6754 16.2125 11.8859 15.8847C11.0965 15.5568 10.3796 15.0763 9.77623 14.4707C9.38606 14.0791 9.38724 13.4453 9.77888 13.0551C10.1705 12.665 10.8043 12.6661 11.1945 13.0578C11.6118 13.4767 12.1077 13.809 12.6538 14.0358C13.1999 14.2626 13.7853 14.3794 14.3766 14.3794C14.9679 14.3794 15.5534 14.2626 16.0995 14.0358C16.6455 13.809 17.1415 13.4767 17.5588 13.0578L17.5614 13.0552L21.0844 9.54459C21.8572 8.68811 22.2731 7.56812 22.2464 6.41429C22.2195 5.25284 21.7462 4.1464 20.9247 3.32491C20.1032 2.50342 18.9967 2.03005 17.8353 2.00316C16.6812 1.97644 15.5609 2.39262 14.7044 3.16574Z" fill="#00778B"/>
<path fill-rule="evenodd" clip-rule="evenodd" d="M10.123 9.62066C9.53166 9.62066 8.94619 9.7374 8.40011 9.96419C7.85404 10.191 7.35812 10.5234 6.94079 10.9422L6.93822 10.9448L6.93822 10.9448L3.41517 14.4554C2.64242 15.3119 2.22644 16.4319 2.25316 17.5857C2.28005 18.7472 2.75342 19.8536 3.57491 20.6751C4.3964 21.4966 5.50284 21.97 6.66429 21.9969C7.81841 22.0236 8.93865 21.6074 9.79522 20.8343L12.2554 18.3741C12.6463 17.9832 13.2801 17.9832 13.671 18.3741C14.0619 18.765 14.0619 19.3988 13.671 19.7897L11.1936 22.2671C11.1827 22.278 11.1715 22.2887 11.1601 22.2991C9.92091 23.4285 8.29418 24.0371 6.61796 23.9983C4.94173 23.9595 3.34491 23.2763 2.15932 22.0907C0.973736 20.9051 0.290555 19.3083 0.251748 17.6321C0.212942 15.9558 0.821494 14.3291 1.95095 13.0899C1.96175 13.0781 1.97284 13.0665 1.9842 13.0552L5.52256 9.5293C5.52301 9.52885 5.52346 9.5284 5.52391 9.52794C6.12695 8.923 6.84342 8.44297 7.63227 8.11535C8.42172 7.78749 9.26813 7.61871 10.123 7.61871C10.9778 7.61871 11.8242 7.78749 12.6136 8.11535C13.4031 8.44322 14.12 8.92372 14.7234 9.5293C15.1135 9.92094 15.1123 10.5547 14.7207 10.9449C14.3291 11.3351 13.6953 11.3339 13.3051 10.9422C12.8878 10.5234 12.3919 10.191 11.8458 9.96419C11.2997 9.7374 10.7143 9.62066 10.123 9.62066Z" fill="#00778B"/>
</svg>
