<svg width="25" height="24" xmlns="http://www.w3.org/2000/svg" fill="none">
 <g>
  <title>Layer 1</title>
  <path fill-rule="evenodd" clip-rule="evenodd" d="m14.7044,3.16574l-2.4602,2.4602c-0.3909,0.3909 -1.0247,0.3909 -1.4156,0c-0.3909,-0.39091 -0.3909,-1.02469 0,-1.41559l2.4774,-2.47741c0.0109,-0.01092 0.0221,-0.02159 0.0335,-0.03199c1.2392,-1.12946 2.8659,-1.73801 4.5421,-1.6992c1.6763,0.0388 3.2731,0.72199 4.4587,1.90757c1.1855,1.18559 1.8687,2.78241 1.9075,4.45864c0.0388,1.67622 -0.5697,3.30295 -1.6992,4.54214c-0.0108,0.0118 -0.0219,0.0234 -0.0332,0.0348l-3.5384,3.5258c-0.0004,0.0004 -0.0008,0.0009 -0.0013,0.0013c-0.603,0.605 -1.3195,1.085 -2.1084,1.4127c-0.7894,0.3278 -1.6358,0.4966 -2.4907,0.4966c-0.8548,0 -1.7012,-0.1688 -2.4907,-0.4966c-0.7894,-0.3279 -1.5063,-0.8084 -2.10967,-1.414c-0.39017,-0.3916 -0.38899,-1.0254 0.00265,-1.4156c0.39162,-0.3901 1.02542,-0.389 1.41562,0.0027c0.4173,0.4189 0.9132,0.7512 1.4593,0.978c0.5461,0.2268 1.1315,0.3436 1.7228,0.3436c0.5913,0 1.1768,-0.1168 1.7229,-0.3436c0.546,-0.2268 1.042,-0.5591 1.4593,-0.978l0.0026,-0.0026l3.523,-3.51061c0.7728,-0.85648 1.1887,-1.97647 1.162,-3.1303c-0.0269,-1.16145 -0.5002,-2.26789 -1.3217,-3.08938c-0.8215,-0.82149 -1.928,-1.29486 -3.0894,-1.32175c-1.1541,-0.02672 -2.2744,0.38946 -3.1309,1.16258z" fill="#005665" id="svg_1"/>
  <path fill-rule="evenodd" clip-rule="evenodd" d="m10.123,9.62066c-0.59134,0 -1.17681,0.11674 -1.72289,0.34353c-0.54607,0.22681 -1.04199,0.55921 -1.45932,0.97801l-0.00257,0.0026l0,0l-3.52305,3.5106c-0.77275,0.8565 -1.18873,1.9765 -1.16201,3.1303c0.02689,1.1615 0.50026,2.2679 1.32175,3.0894c0.82149,0.8215 1.92793,1.2949 3.08938,1.3218c1.15412,0.0267 2.27436,-0.3895 3.13093,-1.1626l2.46018,-2.4602c0.3909,-0.3909 1.0247,-0.3909 1.4156,0c0.3909,0.3909 0.3909,1.0247 0,1.4156l-2.4774,2.4774c-0.0109,0.0109 -0.0221,0.0216 -0.0335,0.032c-1.23919,1.1294 -2.86592,1.738 -4.54214,1.6992c-1.67623,-0.0388 -3.27305,-0.722 -4.45864,-1.9076c-1.18558,-1.1856 -1.86877,-2.7824 -1.90757,-4.4586c-0.03881,-1.6763 0.56974,-3.303 1.6992,-4.5422c0.0108,-0.0118 0.02189,-0.0234 0.03325,-0.0347l3.53836,-3.5259c0.00045,-0.00045 0.0009,-0.0009 0.00135,-0.00136c0.60304,-0.60494 1.31951,-1.08497 2.10836,-1.41259c0.78945,-0.32786 1.63586,-0.49664 2.49073,-0.49664c0.8548,0 1.7012,0.16878 2.4906,0.49664c0.7895,0.32787 1.5064,0.80837 2.1098,1.41395c0.3901,0.39164 0.3889,1.0254 -0.0027,1.4156c-0.3916,0.3902 -1.0254,0.389 -1.4156,-0.0027c-0.4173,-0.4188 -0.9132,-0.7512 -1.4593,-0.97801c-0.5461,-0.22679 -1.1315,-0.34353 -1.7228,-0.34353z" fill="#005665" id="svg_2"/>
 </g>

</svg>