<svg xmlns="http://www.w3.org/2000/svg" viewBox="0 0 144 26.44"><defs><style>.a{fill:#ed2d2c;}.b{fill:#2c7dc0;}</style></defs><title>WWT_Logo</title><path d="M39.38 10.83H41c.92 3.9 1 4.4 1.14 5.22.13-.74.24-1.47 1-5.22h1.56c.84 3.92.9 4.3 1.07 5.22.12-.67.24-1.3 1.16-5.22h1.5l-2 7.14H45c-.73-3.5-.86-4.2-1.1-5.57-.22 1.38-.34 1.9-1.1 5.57h-1.4zM51.94 15.33c0 .67-.2 1.6-1.28 1.6s-1.27-.93-1.27-1.6.2-1.6 1.26-1.6 1.28.92 1.28 1.6m1.43 0a2.7 2.7 0 1 0-5.4 0 2.7 2.7 0 1 0 5.4 0"/><path d="M53.93 12.68h1.34v.92c.3-.54.6-1.06 1.45-1.06H57V14a1.75 1.75 0 0 0-.4 0 1.13 1.13 0 0 0-1.3 1.27V18h-1.4zM57.65 10.83h1.4v7.14h-1.4zM61.1 15.37c0-.84.3-1.62 1.2-1.62s1.18.85 1.18 1.7S63.14 17 62.25 17s-1.14-1-1.14-1.6m3.72-4.54h-1.4v2.54a1.68 1.68 0 0 0-1.53-.83c-1.17 0-2.2.9-2.2 2.73 0 1.45.65 2.84 2.22 2.84a1.67 1.67 0 0 0 1.53-.8V18h1.37zM67.54 10.83h1.6c.9 3.9 1 4.4 1.13 5.22.13-.74.24-1.47 1-5.22h1.6c.82 3.92.9 4.3 1.05 5.22.12-.67.24-1.3 1.16-5.22h1.52l-2 7.14h-1.42c-.73-3.5-.86-4.2-1.1-5.57-.22 1.38-.34 1.9-1.1 5.57h-1.4zM78.85 18h-1.4v-5.32h1.4zm0-5.92h-1.4v-1.32h1.4zM80.9 15.37c0-.84.3-1.62 1.2-1.62s1.2.85 1.2 1.7S82.93 17 82.05 17s-1.15-1-1.15-1.6m3.72-4.54h-1.4v2.54a1.7 1.7 0 0 0-1.52-.83c-1.17 0-2.2.9-2.2 2.73 0 1.45.66 2.84 2.23 2.84a1.7 1.7 0 0 0 1.53-.8V18h1.36zM86.68 14.8c.08-.7.43-1.1 1.1-1.1a1.07 1.07 0 0 1 1.06 1.1zm2.1 1.62a.9.9 0 0 1-.9.58c-1.12 0-1.2-.9-1.24-1.3h3.63v-.24c0-2.42-1.44-2.92-2.48-2.92a2.46 2.46 0 0 0-2.55 2.68c0 2.18 1.14 2.9 2.64 2.9a2.28 2.28 0 0 0 2.3-1.7zM95.9 17.97h-1.48V12.1h-2.16v-1.27h5.8v1.27h-2.15v5.87zM98.87 14.8c.08-.7.42-1.1 1.08-1.1a1.07 1.07 0 0 1 1.05 1.1zm2.1 1.62a.9.9 0 0 1-.9.58c-1.12 0-1.2-.9-1.24-1.3h3.63v-.24c0-2.42-1.44-2.92-2.5-2.92a2.46 2.46 0 0 0-2.53 2.68c0 2.18 1.15 2.9 2.64 2.9a2.3 2.3 0 0 0 2.33-1.7zM107.54 16a2.27 2.27 0 0 1-2.42 2.07 2.34 2.34 0 0 1-2.44-2.63c0-1.7.74-2.94 2.53-2.94a2.17 2.17 0 0 1 2.35 2h-1.4a.9.9 0 0 0-.94-.85c-.86 0-1.1.87-1.1 1.53s0 1.72 1.08 1.72a1 1 0 0 0 .95-.93zM112.9 18h-1.4v-3.24c0-.4 0-1-.9-1a1.08 1.08 0 0 0-1.1 1.22v3h-1.38v-7.15h1.4v2.54a1.64 1.64 0 0 1 1.52-.83 1.7 1.7 0 0 1 1.84 1.77zM118.58 18h-1.4v-3.24c0-.4 0-1-.9-1a1.08 1.08 0 0 0-1.1 1.22v3h-1.38v-5.3h1.33v.78a1.7 1.7 0 0 1 1.6-.92 1.7 1.7 0 0 1 1.83 1.77zM123.15 15.33c0 .67-.2 1.6-1.27 1.6s-1.28-.93-1.28-1.6.2-1.6 1.28-1.6 1.27.92 1.27 1.6m1.43 0a2.7 2.7 0 1 0-5.4 0 2.7 2.7 0 1 0 5.4 0"/><path d="M125.2 10.83h1.4v7.14h-1.4zM131.2 15.33c0 .67-.2 1.6-1.28 1.6s-1.27-.93-1.27-1.6.2-1.6 1.27-1.6 1.28.92 1.28 1.6m1.43 0a2.7 2.7 0 1 0-5.4 0 2.7 2.7 0 1 0 5.4 0"/><path d="M134.6 15.36c0-1.24.57-1.6 1.08-1.6.78 0 1.2.68 1.2 1.54s-.24 1.53-1.2 1.53-1.1-.8-1.1-1.47m2.35-2.68v.8a1.6 1.6 0 0 0-1.56-.94c-1.16 0-2.2.9-2.2 2.73s1 2.73 2.28 2.73a1.44 1.44 0 0 0 1.42-.8v.64c0 .86-.36 1.22-1.1 1.22s-.92-.27-1-.54h-1.52c.06 1.13 1.2 1.6 2.3 1.6 2.6 0 2.68-1.53 2.68-2.45v-5zM142.18 17.9c-.66 2-.84 2.2-2.05 2.2h-.63V19h.27c.5 0 .8-.07.92-.8l-1.96-5.5h1.55l1.12 3.9 1.1-3.9H144z"/><path d="M0 0l15.06 17.86L36.23 0H27.3l-5 4.22-3.52-4.2h-7.84l6.74 8.08-1.92 1.6L7.7 0H0zM35.47 3.98l3.67 4.38L49.06 0H40.1L35.46 4z" class="a"/><path d="M33.82 5.36l3.67 4.38-6.2 5.2 9.62 11.5h-7.8l-6.45-7.62-6.37 5.34-3.67-4.37 17.2-14.44z" class="b"/></svg>